%TF.GenerationSoftware,KiCad,Pcbnew,9.0.1*%
%TF.CreationDate,2025-04-29T20:05:43+02:00*%
%TF.ProjectId,Trackball,54726163-6b62-4616-9c6c-2e6b69636164,rev?*%
%TF.SameCoordinates,Original*%
%TF.FileFunction,Legend,Bot*%
%TF.FilePolarity,Positive*%
%FSLAX46Y46*%
G04 Gerber Fmt 4.6, Leading zero omitted, Abs format (unit mm)*
G04 Created by KiCad (PCBNEW 9.0.1) date 2025-04-29 20:05:43*
%MOMM*%
%LPD*%
G01*
G04 APERTURE LIST*
G04 Aperture macros list*
%AMRoundRect*
0 Rectangle with rounded corners*
0 $1 Rounding radius*
0 $2 $3 $4 $5 $6 $7 $8 $9 X,Y pos of 4 corners*
0 Add a 4 corners polygon primitive as box body*
4,1,4,$2,$3,$4,$5,$6,$7,$8,$9,$2,$3,0*
0 Add four circle primitives for the rounded corners*
1,1,$1+$1,$2,$3*
1,1,$1+$1,$4,$5*
1,1,$1+$1,$6,$7*
1,1,$1+$1,$8,$9*
0 Add four rect primitives between the rounded corners*
20,1,$1+$1,$2,$3,$4,$5,0*
20,1,$1+$1,$4,$5,$6,$7,0*
20,1,$1+$1,$6,$7,$8,$9,0*
20,1,$1+$1,$8,$9,$2,$3,0*%
G04 Aperture macros list end*
%ADD10C,0.150000*%
%ADD11C,0.120000*%
%ADD12C,3.200000*%
%ADD13R,2.000000X1.200000*%
%ADD14O,2.000000X1.200000*%
%ADD15R,0.950000X0.950000*%
%ADD16C,0.950000*%
%ADD17R,1.350000X1.350000*%
%ADD18O,1.350000X1.350000*%
%ADD19C,1.700000*%
%ADD20R,1.800000X1.800000*%
%ADD21C,1.800000*%
%ADD22R,1.700000X1.700000*%
%ADD23O,1.700000X1.700000*%
%ADD24C,1.900000*%
%ADD25C,1.600000*%
%ADD26C,3.050000*%
%ADD27C,5.050000*%
%ADD28RoundRect,0.250000X1.000000X-1.025000X1.000000X1.025000X-1.000000X1.025000X-1.000000X-1.025000X0*%
%ADD29RoundRect,0.250000X-1.000000X1.025000X-1.000000X-1.025000X1.000000X-1.025000X1.000000X1.025000X0*%
%ADD30RoundRect,0.625000X0.875000X-0.625000X0.875000X0.625000X-0.875000X0.625000X-0.875000X-0.625000X0*%
%ADD31O,1.700000X1.400000*%
G04 APERTURE END LIST*
D10*
X-12174875Y-4094295D02*
X-12441542Y-4894295D01*
X-12441542Y-4894295D02*
X-12708208Y-4094295D01*
X-13127256Y-4094295D02*
X-13203446Y-4094295D01*
X-13203446Y-4094295D02*
X-13279637Y-4132390D01*
X-13279637Y-4132390D02*
X-13317732Y-4170485D01*
X-13317732Y-4170485D02*
X-13355827Y-4246676D01*
X-13355827Y-4246676D02*
X-13393922Y-4399057D01*
X-13393922Y-4399057D02*
X-13393922Y-4589533D01*
X-13393922Y-4589533D02*
X-13355827Y-4741914D01*
X-13355827Y-4741914D02*
X-13317732Y-4818104D01*
X-13317732Y-4818104D02*
X-13279637Y-4856200D01*
X-13279637Y-4856200D02*
X-13203446Y-4894295D01*
X-13203446Y-4894295D02*
X-13127256Y-4894295D01*
X-13127256Y-4894295D02*
X-13051065Y-4856200D01*
X-13051065Y-4856200D02*
X-13012970Y-4818104D01*
X-13012970Y-4818104D02*
X-12974875Y-4741914D01*
X-12974875Y-4741914D02*
X-12936779Y-4589533D01*
X-12936779Y-4589533D02*
X-12936779Y-4399057D01*
X-12936779Y-4399057D02*
X-12974875Y-4246676D01*
X-12974875Y-4246676D02*
X-13012970Y-4170485D01*
X-13012970Y-4170485D02*
X-13051065Y-4132390D01*
X-13051065Y-4132390D02*
X-13127256Y-4094295D01*
X-13736780Y-4818104D02*
X-13774875Y-4856200D01*
X-13774875Y-4856200D02*
X-13736780Y-4894295D01*
X-13736780Y-4894295D02*
X-13698684Y-4856200D01*
X-13698684Y-4856200D02*
X-13736780Y-4818104D01*
X-13736780Y-4818104D02*
X-13736780Y-4894295D01*
X-14079636Y-4170485D02*
X-14117732Y-4132390D01*
X-14117732Y-4132390D02*
X-14193922Y-4094295D01*
X-14193922Y-4094295D02*
X-14384398Y-4094295D01*
X-14384398Y-4094295D02*
X-14460589Y-4132390D01*
X-14460589Y-4132390D02*
X-14498684Y-4170485D01*
X-14498684Y-4170485D02*
X-14536779Y-4246676D01*
X-14536779Y-4246676D02*
X-14536779Y-4322866D01*
X-14536779Y-4322866D02*
X-14498684Y-4437152D01*
X-14498684Y-4437152D02*
X-14041541Y-4894295D01*
X-14041541Y-4894295D02*
X-14536779Y-4894295D01*
G36*
X9195830Y-47848935D02*
G01*
X8635903Y-57800000D01*
X10689375Y-57800000D01*
X10811496Y-53542847D01*
X10822487Y-52171423D01*
X10775471Y-51054623D01*
X10689375Y-49852337D01*
X11809228Y-56105565D01*
X13589759Y-56105565D01*
X14795708Y-49852337D01*
X14702896Y-51026535D01*
X14655879Y-52178750D01*
X14659542Y-53578262D01*
X14730983Y-57800000D01*
X16748429Y-57800000D01*
X16188503Y-47848935D01*
X13769277Y-47848935D01*
X12663468Y-54282292D01*
X11615666Y-47848935D01*
X9195830Y-47848935D01*
G37*
G36*
X4950833Y-49957906D02*
G01*
X5733077Y-50067882D01*
X6520928Y-50246133D01*
X7273028Y-50491032D01*
X6748517Y-51999232D01*
X6171910Y-51826968D01*
X5600575Y-51701256D01*
X5050053Y-51619912D01*
X4659630Y-51596842D01*
X4059277Y-51655708D01*
X3649214Y-51809001D01*
X3376818Y-52037939D01*
X3211700Y-52347992D01*
X3152041Y-52767376D01*
X3152041Y-53054361D01*
X4178471Y-53054361D01*
X5078153Y-53103977D01*
X5818006Y-53241254D01*
X6423820Y-53452427D01*
X6917655Y-53729082D01*
X7345152Y-54104111D01*
X7643995Y-54539523D01*
X7826520Y-55047023D01*
X7890352Y-55646388D01*
X7844268Y-56162685D01*
X7711570Y-56615073D01*
X7495156Y-57015697D01*
X7190596Y-57373185D01*
X6822124Y-57659653D01*
X6394529Y-57867939D01*
X5896461Y-57998289D01*
X5312979Y-58044242D01*
X4611428Y-57980955D01*
X3920184Y-57789619D01*
X3487417Y-57586615D01*
X3116510Y-57327530D01*
X2800331Y-57010484D01*
X2483279Y-57426236D01*
X2071877Y-57717568D01*
X1575116Y-57903476D01*
X933094Y-58015544D01*
X466591Y-56521999D01*
X700918Y-56393786D01*
X850662Y-56227686D01*
X934208Y-56001092D01*
X969120Y-55603035D01*
X969120Y-55581664D01*
X3152041Y-55581664D01*
X3408326Y-55937317D01*
X3762648Y-56202651D01*
X4166296Y-56369655D01*
X4530181Y-56421249D01*
X4971754Y-56354912D01*
X5280617Y-56173953D01*
X5427239Y-55992698D01*
X5517678Y-55768390D01*
X5549895Y-55488241D01*
X5498555Y-55138985D01*
X5352092Y-54861395D01*
X5104762Y-54637665D01*
X4792177Y-54489028D01*
X4342431Y-54385995D01*
X3711967Y-54346406D01*
X3152041Y-54346406D01*
X3152041Y-55581664D01*
X969120Y-55581664D01*
X969120Y-52616556D01*
X1025451Y-51972002D01*
X1183861Y-51437027D01*
X1436049Y-50990491D01*
X1784281Y-50617428D01*
X2203934Y-50336326D01*
X2743675Y-50119741D01*
X3431358Y-49976847D01*
X4300593Y-49924389D01*
X4950833Y-49957906D01*
G37*
G36*
X-8370116Y-54892288D02*
G01*
X-8314558Y-55494717D01*
X-8152695Y-56036240D01*
X-7885294Y-56529326D01*
X-7524328Y-56960501D01*
X-7066102Y-57331040D01*
X-6496162Y-57642463D01*
X-5880500Y-57858296D01*
X-5161456Y-57995554D01*
X-4321180Y-58044242D01*
X-3388088Y-57993242D01*
X-2609821Y-57851288D01*
X-1962405Y-57631472D01*
X-1347705Y-57324737D01*
X-825790Y-56983221D01*
X-386428Y-56608094D01*
X-1578333Y-55287351D01*
X-2161230Y-55714681D01*
X-2798326Y-56030460D01*
X-3489119Y-56225226D01*
X-4263172Y-56292411D01*
X-4747477Y-56253173D01*
X-5141401Y-56144098D01*
X-5462405Y-55973063D01*
X-5718308Y-55730101D01*
X-5869508Y-55435402D01*
X-5922192Y-55071807D01*
X-5877238Y-54726349D01*
X-5749455Y-54446871D01*
X-5537509Y-54217568D01*
X-5060884Y-53939038D01*
X-4112963Y-53592916D01*
X-2965614Y-53176294D01*
X-2165098Y-52756310D01*
X-1632066Y-52339951D01*
X-1312498Y-51956807D01*
X-1084808Y-51526632D01*
X-944918Y-51040113D01*
X-896285Y-50484316D01*
X-955016Y-49893734D01*
X-1124357Y-49379592D01*
X-1402478Y-48926046D01*
X-1771862Y-48535209D01*
X-2221583Y-48206697D01*
X-2762910Y-47939305D01*
X-3341446Y-47752224D01*
X-3966183Y-47637385D01*
X-4644191Y-47597976D01*
X-5409593Y-47637766D01*
X-6085397Y-47751348D01*
X-6683008Y-47931978D01*
X-7250797Y-48188782D01*
X-7758508Y-48505524D01*
X-8211968Y-48883304D01*
X-7099442Y-50161304D01*
X-6572873Y-49789919D01*
X-6015004Y-49532990D01*
X-5426693Y-49379313D01*
X-4830426Y-49328436D01*
X-4385815Y-49359532D01*
X-4030155Y-49444945D01*
X-3746599Y-49576343D01*
X-3517673Y-49769159D01*
X-3383992Y-50006943D01*
X-3337492Y-50304797D01*
X-3383731Y-50599435D01*
X-3517010Y-50836025D01*
X-3740584Y-51030522D01*
X-4141661Y-51242079D01*
X-5376309Y-51682937D01*
X-6273605Y-52008709D01*
X-6987701Y-52369260D01*
X-7407984Y-52663789D01*
X-7747485Y-52996855D01*
X-8014742Y-53370655D01*
X-8205176Y-53786962D01*
X-8326639Y-54288127D01*
X-8370116Y-54892288D01*
G37*
G36*
X-12417797Y-49989682D02*
G01*
X-11748753Y-50175299D01*
X-11172802Y-50473325D01*
X-10664787Y-50880269D01*
X-10246634Y-51367795D01*
X-9912509Y-51944888D01*
X-9676224Y-52572838D01*
X-9531640Y-53252975D01*
X-9482031Y-53994696D01*
X-9534253Y-54774225D01*
X-9684586Y-55468935D01*
X-9927164Y-56091521D01*
X-10273103Y-56656570D01*
X-10712892Y-57131264D01*
X-11255234Y-57524005D01*
X-11864712Y-57804033D01*
X-12586760Y-57981245D01*
X-13444871Y-58044242D01*
X-14090722Y-58009506D01*
X-14668123Y-57909740D01*
X-15185712Y-57749930D01*
X-15905926Y-57407331D01*
X-16488748Y-56995830D01*
X-15577111Y-55761182D01*
X-15113732Y-56020402D01*
X-14636166Y-56220359D01*
X-14140049Y-56349372D01*
X-13624390Y-56392550D01*
X-13155725Y-56345194D01*
X-12753460Y-56209356D01*
X-12403786Y-55987107D01*
X-12131363Y-55682018D01*
X-11924666Y-55248612D01*
X-11793790Y-54648046D01*
X-16732991Y-54648046D01*
X-16765353Y-54253593D01*
X-16776344Y-53837159D01*
X-16740062Y-53283949D01*
X-14564725Y-53283949D01*
X-11765091Y-53283949D01*
X-11861879Y-52651380D01*
X-12017272Y-52199112D01*
X-12216940Y-51884438D01*
X-12491442Y-51641444D01*
X-12814191Y-51496410D01*
X-13200629Y-51446022D01*
X-13656811Y-51507157D01*
X-13993691Y-51675326D01*
X-14241714Y-51948551D01*
X-14410185Y-52297711D01*
X-14521208Y-52735880D01*
X-14564725Y-53283949D01*
X-16740062Y-53283949D01*
X-16723280Y-53028067D01*
X-16573028Y-52332789D01*
X-16334875Y-51733618D01*
X-15995985Y-51188836D01*
X-15583744Y-50744824D01*
X-15092900Y-50390893D01*
X-14541690Y-50136898D01*
X-13915969Y-49979379D01*
X-13200629Y-49924389D01*
X-12417797Y-49989682D01*
G37*
D11*
%TO.C,SW1*%
X-22596000Y-26232000D02*
X-22516000Y-25829000D01*
X-22596000Y-28979000D02*
X-22596000Y-26232000D01*
X-22516000Y-25829000D02*
X-22287000Y-25487000D01*
X-22287000Y-25487000D02*
X-21754000Y-24954000D01*
X-21754000Y-24954000D02*
X-21532000Y-24954000D01*
X-21659000Y-29916000D02*
X-22596000Y-28979000D01*
X-21532000Y-24954000D02*
X-21094000Y-24867000D01*
X-21094000Y-24867000D02*
X-20727000Y-24623000D01*
X-20727000Y-24623000D02*
X-20483000Y-24256000D01*
X-20483000Y-24256000D02*
X-20396000Y-23818000D01*
X-20396000Y-21018000D02*
X-20331000Y-20691000D01*
X-20396000Y-23818000D02*
X-20396000Y-21018000D01*
X-20331000Y-20691000D02*
X-20142000Y-20408000D01*
X-20142000Y-20408000D02*
X-19859000Y-20219000D01*
X-19859000Y-20219000D02*
X-19432000Y-20134000D01*
X-17804000Y-26332000D02*
X-17804000Y-28979000D01*
X-17804000Y-28979000D02*
X-18825000Y-30000000D01*
X-17699000Y-25770000D02*
X-17804000Y-26332000D01*
X-17400000Y-25291000D02*
X-17699000Y-25770000D01*
X-16947000Y-24953000D02*
X-17400000Y-25291000D01*
X-16546000Y-19854000D02*
X-15604000Y-19854000D01*
X-16546000Y-20217000D02*
X-16546000Y-19854000D01*
X-16389000Y-24799000D02*
X-16947000Y-24953000D01*
X-16091000Y-24717000D02*
X-16389000Y-24799000D01*
X-15833000Y-24524000D02*
X-16091000Y-24717000D01*
X-15663000Y-24250000D02*
X-15833000Y-24524000D01*
X-15604000Y-19854000D02*
X-15604000Y-23940000D01*
X-15604000Y-23940000D02*
X-15663000Y-24250000D01*
%TO.C,SW2*%
X15604000Y-31060000D02*
X15663000Y-30750000D01*
X15604000Y-35146000D02*
X15604000Y-31060000D01*
X15663000Y-30750000D02*
X15833000Y-30476000D01*
X15833000Y-30476000D02*
X16091000Y-30283000D01*
X16091000Y-30283000D02*
X16389000Y-30201000D01*
X16389000Y-30201000D02*
X16947000Y-30047000D01*
X16546000Y-34783000D02*
X16546000Y-35146000D01*
X16546000Y-35146000D02*
X15604000Y-35146000D01*
X16947000Y-30047000D02*
X17400000Y-29709000D01*
X17400000Y-29709000D02*
X17699000Y-29230000D01*
X17699000Y-29230000D02*
X17804000Y-28668000D01*
X17804000Y-26021000D02*
X18825000Y-25000000D01*
X17804000Y-28668000D02*
X17804000Y-26021000D01*
X19859000Y-34781000D02*
X19432000Y-34866000D01*
X20142000Y-34592000D02*
X19859000Y-34781000D01*
X20331000Y-34309000D02*
X20142000Y-34592000D01*
X20396000Y-31182000D02*
X20396000Y-33982000D01*
X20396000Y-33982000D02*
X20331000Y-34309000D01*
X20483000Y-30744000D02*
X20396000Y-31182000D01*
X20727000Y-30377000D02*
X20483000Y-30744000D01*
X21094000Y-30133000D02*
X20727000Y-30377000D01*
X21532000Y-30046000D02*
X21094000Y-30133000D01*
X21659000Y-25084000D02*
X22596000Y-26021000D01*
X21754000Y-30046000D02*
X21532000Y-30046000D01*
X22287000Y-29513000D02*
X21754000Y-30046000D01*
X22516000Y-29171000D02*
X22287000Y-29513000D01*
X22596000Y-26021000D02*
X22596000Y-28768000D01*
X22596000Y-28768000D02*
X22516000Y-29171000D01*
%TD*%
%LPC*%
D12*
%TO.C,H1*%
X-99575000Y14575000D03*
%TD*%
%TO.C,H4*%
X20000000Y-6500000D03*
%TD*%
%TO.C,H3*%
X-20000000Y-9500000D03*
%TD*%
D13*
%TO.C,U2*%
X-5350000Y-32185000D03*
D14*
X-5350000Y-33965000D03*
X-5350000Y-35745000D03*
X-5350000Y-37525000D03*
X-5350000Y-39305000D03*
X-5350000Y-41085000D03*
X-5350000Y-42865000D03*
X-5350000Y-44645000D03*
X5350000Y-45535000D03*
X5350000Y-43755000D03*
X5350000Y-41975000D03*
X5350000Y-40195000D03*
X5350000Y-38415000D03*
X5350000Y-36635000D03*
X5350000Y-34855000D03*
X5350000Y-33075000D03*
%TD*%
D15*
%TO.C,J3*%
X-5200000Y-64000000D03*
D16*
X-3950000Y-64000000D03*
X-2700000Y-64000000D03*
X-5200000Y-65250000D03*
X-3950000Y-65250000D03*
X-2700000Y-65250000D03*
%TD*%
D17*
%TO.C,J4*%
X-1450000Y-60050000D03*
D18*
X-3450001Y-60049999D03*
X-5450000Y-60050000D03*
X-7450001Y-60049999D03*
X-9450000Y-60050000D03*
X-11450000Y-60050001D03*
%TD*%
D19*
%TO.C,SW4*%
X10000000Y-15530000D03*
X10000000Y-10450000D03*
X10000000Y-5370000D03*
%TD*%
D20*
%TO.C,D102*%
X15800000Y-13460000D03*
D21*
X15800000Y-16000000D03*
%TD*%
D22*
%TO.C,J7*%
X-22400000Y-51750000D03*
%TD*%
%TO.C,J1*%
X22450000Y-54250000D03*
D23*
X22450000Y-51710000D03*
X22450000Y-49170000D03*
X22450000Y-46630000D03*
%TD*%
D24*
%TO.C,SW1*%
X-14250000Y-33000000D03*
D25*
X-9100000Y-32500000D03*
D26*
X-20150000Y-27500000D03*
D27*
X-14250000Y-27500000D03*
D26*
X-18050000Y-22500000D03*
D24*
X-14250000Y-22000000D03*
D28*
X-20250000Y-31000000D03*
X-18050000Y-19000000D03*
%TD*%
D12*
%TO.C,H2*%
X-20100000Y-64500000D03*
%TD*%
D20*
%TO.C,D101*%
X20550000Y-13480000D03*
D21*
X20550000Y-16020000D03*
%TD*%
D24*
%TO.C,SW2*%
X14250000Y-22000000D03*
D25*
X9100000Y-22500000D03*
D26*
X20150000Y-27500000D03*
D27*
X14250000Y-27500000D03*
D26*
X18050000Y-32500000D03*
D24*
X14250000Y-33000000D03*
D29*
X20250000Y-24000000D03*
X18050000Y-36000000D03*
%TD*%
D30*
%TO.C,SW3*%
X-12000000Y-16920000D03*
X-12000000Y-7920000D03*
D31*
X-10000000Y-14920000D03*
X-10000000Y-12420000D03*
X-10000000Y-9920000D03*
%TD*%
D22*
%TO.C,J10*%
X-22400000Y-55350000D03*
%TD*%
%LPD*%
M02*
