%TF.GenerationSoftware,KiCad,Pcbnew,9.0.1*%
%TF.CreationDate,2025-04-29T20:05:43+02:00*%
%TF.ProjectId,Trackball,54726163-6b62-4616-9c6c-2e6b69636164,rev?*%
%TF.SameCoordinates,Original*%
%TF.FileFunction,Soldermask,Bot*%
%TF.FilePolarity,Negative*%
%FSLAX46Y46*%
G04 Gerber Fmt 4.6, Leading zero omitted, Abs format (unit mm)*
G04 Created by KiCad (PCBNEW 9.0.1) date 2025-04-29 20:05:43*
%MOMM*%
%LPD*%
G01*
G04 APERTURE LIST*
G04 Aperture macros list*
%AMRoundRect*
0 Rectangle with rounded corners*
0 $1 Rounding radius*
0 $2 $3 $4 $5 $6 $7 $8 $9 X,Y pos of 4 corners*
0 Add a 4 corners polygon primitive as box body*
4,1,4,$2,$3,$4,$5,$6,$7,$8,$9,$2,$3,0*
0 Add four circle primitives for the rounded corners*
1,1,$1+$1,$2,$3*
1,1,$1+$1,$4,$5*
1,1,$1+$1,$6,$7*
1,1,$1+$1,$8,$9*
0 Add four rect primitives between the rounded corners*
20,1,$1+$1,$2,$3,$4,$5,0*
20,1,$1+$1,$4,$5,$6,$7,0*
20,1,$1+$1,$6,$7,$8,$9,0*
20,1,$1+$1,$8,$9,$2,$3,0*%
G04 Aperture macros list end*
%ADD10C,3.200000*%
%ADD11R,2.000000X1.200000*%
%ADD12O,2.000000X1.200000*%
%ADD13R,0.950000X0.950000*%
%ADD14C,0.950000*%
%ADD15R,1.350000X1.350000*%
%ADD16O,1.350000X1.350000*%
%ADD17C,1.700000*%
%ADD18R,1.800000X1.800000*%
%ADD19C,1.800000*%
%ADD20R,1.700000X1.700000*%
%ADD21O,1.700000X1.700000*%
%ADD22C,1.900000*%
%ADD23C,1.600000*%
%ADD24C,3.050000*%
%ADD25C,5.050000*%
%ADD26RoundRect,0.250000X1.000000X-1.025000X1.000000X1.025000X-1.000000X1.025000X-1.000000X-1.025000X0*%
%ADD27RoundRect,0.250000X-1.000000X1.025000X-1.000000X-1.025000X1.000000X-1.025000X1.000000X1.025000X0*%
%ADD28RoundRect,0.625000X0.875000X-0.625000X0.875000X0.625000X-0.875000X0.625000X-0.875000X-0.625000X0*%
%ADD29O,1.700000X1.400000*%
G04 APERTURE END LIST*
D10*
%TO.C,H1*%
X-99575000Y14575000D03*
%TD*%
%TO.C,H4*%
X20000000Y-6500000D03*
%TD*%
%TO.C,H3*%
X-20000000Y-9500000D03*
%TD*%
D11*
%TO.C,U2*%
X-5350000Y-32185000D03*
D12*
X-5350000Y-33965000D03*
X-5350000Y-35745000D03*
X-5350000Y-37525000D03*
X-5350000Y-39305000D03*
X-5350000Y-41085000D03*
X-5350000Y-42865000D03*
X-5350000Y-44645000D03*
X5350000Y-45535000D03*
X5350000Y-43755000D03*
X5350000Y-41975000D03*
X5350000Y-40195000D03*
X5350000Y-38415000D03*
X5350000Y-36635000D03*
X5350000Y-34855000D03*
X5350000Y-33075000D03*
%TD*%
D13*
%TO.C,J3*%
X-5200000Y-64000000D03*
D14*
X-3950000Y-64000000D03*
X-2700000Y-64000000D03*
X-5200000Y-65250000D03*
X-3950000Y-65250000D03*
X-2700000Y-65250000D03*
%TD*%
D15*
%TO.C,J4*%
X-1450000Y-60050000D03*
D16*
X-3450001Y-60049999D03*
X-5450000Y-60050000D03*
X-7450001Y-60049999D03*
X-9450000Y-60050000D03*
X-11450000Y-60050001D03*
%TD*%
D17*
%TO.C,SW4*%
X10000000Y-15530000D03*
X10000000Y-10450000D03*
X10000000Y-5370000D03*
%TD*%
D18*
%TO.C,D102*%
X15800000Y-13460000D03*
D19*
X15800000Y-16000000D03*
%TD*%
D20*
%TO.C,J7*%
X-22400000Y-51750000D03*
%TD*%
%TO.C,J1*%
X22450000Y-54250000D03*
D21*
X22450000Y-51710000D03*
X22450000Y-49170000D03*
X22450000Y-46630000D03*
%TD*%
D22*
%TO.C,SW1*%
X-14250000Y-33000000D03*
D23*
X-9100000Y-32500000D03*
D24*
X-20150000Y-27500000D03*
D25*
X-14250000Y-27500000D03*
D24*
X-18050000Y-22500000D03*
D22*
X-14250000Y-22000000D03*
D26*
X-20250000Y-31000000D03*
X-18050000Y-19000000D03*
%TD*%
D10*
%TO.C,H2*%
X-20100000Y-64500000D03*
%TD*%
D18*
%TO.C,D101*%
X20550000Y-13480000D03*
D19*
X20550000Y-16020000D03*
%TD*%
D22*
%TO.C,SW2*%
X14250000Y-22000000D03*
D23*
X9100000Y-22500000D03*
D24*
X20150000Y-27500000D03*
D25*
X14250000Y-27500000D03*
D24*
X18050000Y-32500000D03*
D22*
X14250000Y-33000000D03*
D27*
X20250000Y-24000000D03*
X18050000Y-36000000D03*
%TD*%
D28*
%TO.C,SW3*%
X-12000000Y-16920000D03*
X-12000000Y-7920000D03*
D29*
X-10000000Y-14920000D03*
X-10000000Y-12420000D03*
X-10000000Y-9920000D03*
%TD*%
D20*
%TO.C,J10*%
X-22400000Y-55350000D03*
%TD*%
M02*
