%TF.GenerationSoftware,KiCad,Pcbnew,9.0.2*%
%TF.CreationDate,2025-06-05T16:57:42+02:00*%
%TF.ProjectId,MaSe,4d615365-2e6b-4696-9361-645f70636258,rev?*%
%TF.SameCoordinates,Original*%
%TF.FileFunction,Legend,Top*%
%TF.FilePolarity,Positive*%
%FSLAX46Y46*%
G04 Gerber Fmt 4.6, Leading zero omitted, Abs format (unit mm)*
G04 Created by KiCad (PCBNEW 9.0.2) date 2025-06-05 16:57:42*
%MOMM*%
%LPD*%
G01*
G04 APERTURE LIST*
G04 Aperture macros list*
%AMRoundRect*
0 Rectangle with rounded corners*
0 $1 Rounding radius*
0 $2 $3 $4 $5 $6 $7 $8 $9 X,Y pos of 4 corners*
0 Add a 4 corners polygon primitive as box body*
4,1,4,$2,$3,$4,$5,$6,$7,$8,$9,$2,$3,0*
0 Add four circle primitives for the rounded corners*
1,1,$1+$1,$2,$3*
1,1,$1+$1,$4,$5*
1,1,$1+$1,$6,$7*
1,1,$1+$1,$8,$9*
0 Add four rect primitives between the rounded corners*
20,1,$1+$1,$2,$3,$4,$5,0*
20,1,$1+$1,$4,$5,$6,$7,0*
20,1,$1+$1,$6,$7,$8,$9,0*
20,1,$1+$1,$8,$9,$2,$3,0*%
G04 Aperture macros list end*
%ADD10C,0.150000*%
%ADD11C,0.400000*%
%ADD12C,0.120000*%
%ADD13C,0.100000*%
%ADD14C,2.200000*%
%ADD15R,1.200000X2.000000*%
%ADD16O,1.200000X2.000000*%
%ADD17RoundRect,0.250000X0.475000X-0.250000X0.475000X0.250000X-0.475000X0.250000X-0.475000X-0.250000X0*%
%ADD18RoundRect,0.200000X0.250000X0.200000X-0.250000X0.200000X-0.250000X-0.200000X0.250000X-0.200000X0*%
%ADD19C,1.700000*%
%ADD20RoundRect,0.250000X0.250000X0.475000X-0.250000X0.475000X-0.250000X-0.475000X0.250000X-0.475000X0*%
%ADD21RoundRect,0.250000X-0.475000X0.250000X-0.475000X-0.250000X0.475000X-0.250000X0.475000X0.250000X0*%
%ADD22C,1.900000*%
%ADD23C,1.600000*%
%ADD24C,3.050000*%
%ADD25C,5.050000*%
%ADD26RoundRect,0.150000X-0.512500X-0.150000X0.512500X-0.150000X0.512500X0.150000X-0.512500X0.150000X0*%
%ADD27RoundRect,0.250000X-0.450000X0.262500X-0.450000X-0.262500X0.450000X-0.262500X0.450000X0.262500X0*%
%ADD28RoundRect,0.250000X-0.262500X-0.450000X0.262500X-0.450000X0.262500X0.450000X-0.262500X0.450000X0*%
%ADD29R,1.700000X1.700000*%
%ADD30RoundRect,0.150000X0.587500X0.150000X-0.587500X0.150000X-0.587500X-0.150000X0.587500X-0.150000X0*%
%ADD31C,2.000000*%
%ADD32RoundRect,0.250000X0.450000X-0.262500X0.450000X0.262500X-0.450000X0.262500X-0.450000X-0.262500X0*%
%ADD33RoundRect,0.625000X0.875000X-0.625000X0.875000X0.625000X-0.875000X0.625000X-0.875000X-0.625000X0*%
%ADD34O,1.700000X1.400000*%
%ADD35R,1.000000X1.000000*%
%ADD36C,1.000000*%
%ADD37R,2.800000X2.800000*%
G04 APERTURE END LIST*
D10*
X47524874Y-106894295D02*
X47791541Y-107694295D01*
X47791541Y-107694295D02*
X48058207Y-106894295D01*
X48477255Y-106894295D02*
X48553445Y-106894295D01*
X48553445Y-106894295D02*
X48629636Y-106932390D01*
X48629636Y-106932390D02*
X48667731Y-106970485D01*
X48667731Y-106970485D02*
X48705826Y-107046676D01*
X48705826Y-107046676D02*
X48743921Y-107199057D01*
X48743921Y-107199057D02*
X48743921Y-107389533D01*
X48743921Y-107389533D02*
X48705826Y-107541914D01*
X48705826Y-107541914D02*
X48667731Y-107618104D01*
X48667731Y-107618104D02*
X48629636Y-107656200D01*
X48629636Y-107656200D02*
X48553445Y-107694295D01*
X48553445Y-107694295D02*
X48477255Y-107694295D01*
X48477255Y-107694295D02*
X48401064Y-107656200D01*
X48401064Y-107656200D02*
X48362969Y-107618104D01*
X48362969Y-107618104D02*
X48324874Y-107541914D01*
X48324874Y-107541914D02*
X48286778Y-107389533D01*
X48286778Y-107389533D02*
X48286778Y-107199057D01*
X48286778Y-107199057D02*
X48324874Y-107046676D01*
X48324874Y-107046676D02*
X48362969Y-106970485D01*
X48362969Y-106970485D02*
X48401064Y-106932390D01*
X48401064Y-106932390D02*
X48477255Y-106894295D01*
X49086779Y-107618104D02*
X49124874Y-107656200D01*
X49124874Y-107656200D02*
X49086779Y-107694295D01*
X49086779Y-107694295D02*
X49048683Y-107656200D01*
X49048683Y-107656200D02*
X49086779Y-107618104D01*
X49086779Y-107618104D02*
X49086779Y-107694295D01*
X49429635Y-106970485D02*
X49467731Y-106932390D01*
X49467731Y-106932390D02*
X49543921Y-106894295D01*
X49543921Y-106894295D02*
X49734397Y-106894295D01*
X49734397Y-106894295D02*
X49810588Y-106932390D01*
X49810588Y-106932390D02*
X49848683Y-106970485D01*
X49848683Y-106970485D02*
X49886778Y-107046676D01*
X49886778Y-107046676D02*
X49886778Y-107122866D01*
X49886778Y-107122866D02*
X49848683Y-107237152D01*
X49848683Y-107237152D02*
X49391540Y-107694295D01*
X49391540Y-107694295D02*
X49886778Y-107694295D01*
G36*
X31451667Y-21464574D02*
G01*
X31675638Y-25445000D01*
X30854249Y-25445000D01*
X30805401Y-23742138D01*
X30801004Y-23193569D01*
X30819811Y-22746849D01*
X30854249Y-22265935D01*
X30406308Y-24767226D01*
X29694096Y-24767226D01*
X29211716Y-22265935D01*
X29248841Y-22735614D01*
X29267648Y-23196500D01*
X29266182Y-23756304D01*
X29237606Y-25445000D01*
X28430628Y-25445000D01*
X28654598Y-21464574D01*
X29622288Y-21464574D01*
X30064612Y-24037916D01*
X30483733Y-21464574D01*
X31451667Y-21464574D01*
G37*
G36*
X33757456Y-22315739D02*
G01*
X34032529Y-22372896D01*
X34248426Y-22459530D01*
X34416287Y-22571971D01*
X34555580Y-22721196D01*
X34656455Y-22899810D01*
X34719819Y-23113801D01*
X34742351Y-23371622D01*
X34742351Y-24566214D01*
X34756316Y-24725437D01*
X34789734Y-24816074D01*
X34849632Y-24882514D01*
X34943363Y-24933799D01*
X34756762Y-25531217D01*
X34499953Y-25486390D01*
X34301249Y-25412027D01*
X34136688Y-25295494D01*
X34009867Y-25129193D01*
X33883395Y-25256012D01*
X33735032Y-25359646D01*
X33561926Y-25440847D01*
X33285428Y-25517382D01*
X33004808Y-25542697D01*
X32771415Y-25524315D01*
X32572188Y-25472175D01*
X32401150Y-25388861D01*
X32253761Y-25274274D01*
X32131937Y-25131279D01*
X32045371Y-24971029D01*
X31992292Y-24790074D01*
X31973859Y-24583555D01*
X31980596Y-24520296D01*
X32910041Y-24520296D01*
X32922928Y-24632356D01*
X32959104Y-24722079D01*
X33017752Y-24794581D01*
X33141298Y-24866964D01*
X33317927Y-24893499D01*
X33463481Y-24872862D01*
X33624940Y-24806060D01*
X33766669Y-24699926D01*
X33869183Y-24557665D01*
X33869183Y-24063562D01*
X33645212Y-24063562D01*
X33393027Y-24079398D01*
X33213128Y-24120611D01*
X33088094Y-24180066D01*
X32989162Y-24269558D01*
X32930577Y-24380594D01*
X32910041Y-24520296D01*
X31980596Y-24520296D01*
X31999391Y-24343809D01*
X32072401Y-24140809D01*
X32191939Y-23966644D01*
X32362937Y-23816632D01*
X32560471Y-23705970D01*
X32802797Y-23621501D01*
X33098738Y-23566591D01*
X33458611Y-23546744D01*
X33869183Y-23546744D01*
X33869183Y-23431950D01*
X33845319Y-23264197D01*
X33779272Y-23140175D01*
X33670314Y-23048600D01*
X33506288Y-22987283D01*
X33266147Y-22963736D01*
X33109978Y-22972964D01*
X32889769Y-23005502D01*
X32661235Y-23055787D01*
X32430593Y-23124692D01*
X32220788Y-22521413D01*
X32521628Y-22423453D01*
X32836769Y-22352152D01*
X33149666Y-22308162D01*
X33409762Y-22294755D01*
X33757456Y-22315739D01*
G37*
G36*
X38478046Y-24281915D02*
G01*
X38455823Y-24522887D01*
X38391077Y-24739496D01*
X38284117Y-24936730D01*
X38139730Y-25109200D01*
X37956440Y-25257416D01*
X37728464Y-25381985D01*
X37482199Y-25468318D01*
X37194582Y-25523221D01*
X36858471Y-25542697D01*
X36485234Y-25522297D01*
X36173928Y-25465515D01*
X35914961Y-25377588D01*
X35669081Y-25254894D01*
X35460315Y-25118288D01*
X35284570Y-24968237D01*
X35761332Y-24439940D01*
X35994491Y-24610872D01*
X36249330Y-24737184D01*
X36525647Y-24815090D01*
X36835268Y-24841964D01*
X37028990Y-24826269D01*
X37186560Y-24782639D01*
X37314961Y-24714225D01*
X37417322Y-24617040D01*
X37477802Y-24499161D01*
X37498876Y-24353722D01*
X37480895Y-24215539D01*
X37429781Y-24103748D01*
X37345003Y-24012027D01*
X37154353Y-23900615D01*
X36775184Y-23762166D01*
X36316245Y-23595517D01*
X35996039Y-23427524D01*
X35782826Y-23260980D01*
X35654999Y-23107723D01*
X35563922Y-22935652D01*
X35507967Y-22741045D01*
X35488513Y-22518726D01*
X35512006Y-22282493D01*
X35579742Y-22076837D01*
X35690990Y-21895418D01*
X35838744Y-21739083D01*
X36018633Y-21607679D01*
X36235163Y-21500722D01*
X36466578Y-21425889D01*
X36716472Y-21379954D01*
X36987676Y-21364190D01*
X37293836Y-21380106D01*
X37564158Y-21425539D01*
X37803203Y-21497791D01*
X38030318Y-21600513D01*
X38233403Y-21727209D01*
X38414787Y-21878321D01*
X37969776Y-22389521D01*
X37759149Y-22240967D01*
X37536001Y-22138196D01*
X37300677Y-22076725D01*
X37062170Y-22056374D01*
X36884325Y-22068813D01*
X36742061Y-22102978D01*
X36628639Y-22155537D01*
X36537068Y-22232663D01*
X36483596Y-22327777D01*
X36464996Y-22446919D01*
X36483492Y-22564774D01*
X36536803Y-22659410D01*
X36626233Y-22737209D01*
X36786664Y-22821831D01*
X37280523Y-22998175D01*
X37639441Y-23128483D01*
X37925080Y-23272704D01*
X38093193Y-23390515D01*
X38228993Y-23523742D01*
X38335896Y-23673262D01*
X38412070Y-23839784D01*
X38460655Y-24040251D01*
X38478046Y-24281915D01*
G37*
G36*
X40696387Y-22316751D02*
G01*
X40946675Y-22379759D01*
X41167159Y-22481357D01*
X41363497Y-22622929D01*
X41528393Y-22800534D01*
X41663949Y-23018447D01*
X41759211Y-23258115D01*
X41819311Y-23536227D01*
X41840537Y-23859863D01*
X41836140Y-24026437D01*
X41823196Y-24184218D01*
X39847515Y-24184218D01*
X39899866Y-24424444D01*
X39982545Y-24597807D01*
X40091514Y-24719842D01*
X40231383Y-24808742D01*
X40392289Y-24863077D01*
X40579755Y-24882020D01*
X40786019Y-24864749D01*
X40984466Y-24813143D01*
X41175492Y-24733161D01*
X41360844Y-24629473D01*
X41725498Y-25123332D01*
X41492370Y-25287932D01*
X41204284Y-25424972D01*
X40997248Y-25488896D01*
X40766288Y-25528802D01*
X40507948Y-25542697D01*
X40164703Y-25517498D01*
X39875884Y-25446613D01*
X39632093Y-25334602D01*
X39415156Y-25177505D01*
X39239241Y-24987628D01*
X39100865Y-24761608D01*
X39003834Y-24512574D01*
X38943701Y-24234690D01*
X38922812Y-23922878D01*
X38941826Y-23638579D01*
X39836036Y-23638579D01*
X40955889Y-23638579D01*
X40938482Y-23419352D01*
X40894073Y-23244084D01*
X40826685Y-23104420D01*
X40727476Y-22995130D01*
X40592724Y-22927863D01*
X40410251Y-22903408D01*
X40255676Y-22923564D01*
X40126576Y-22981577D01*
X40016775Y-23078775D01*
X39936908Y-23204645D01*
X39874751Y-23385552D01*
X39836036Y-23638579D01*
X38941826Y-23638579D01*
X38942655Y-23626190D01*
X39000489Y-23354135D01*
X39095003Y-23102955D01*
X39228653Y-22872118D01*
X39395914Y-22677107D01*
X39599120Y-22514330D01*
X39829501Y-22395119D01*
X40097118Y-22320873D01*
X40410251Y-22294755D01*
X40696387Y-22316751D01*
G37*
X42319881Y-89918509D02*
X42462738Y-89966128D01*
X42462738Y-89966128D02*
X42510357Y-90013747D01*
X42510357Y-90013747D02*
X42557976Y-90108985D01*
X42557976Y-90108985D02*
X42557976Y-90251842D01*
X42557976Y-90251842D02*
X42510357Y-90347080D01*
X42510357Y-90347080D02*
X42462738Y-90394700D01*
X42462738Y-90394700D02*
X42367500Y-90442319D01*
X42367500Y-90442319D02*
X41986548Y-90442319D01*
X41986548Y-90442319D02*
X41986548Y-89442319D01*
X41986548Y-89442319D02*
X42319881Y-89442319D01*
X42319881Y-89442319D02*
X42415119Y-89489938D01*
X42415119Y-89489938D02*
X42462738Y-89537557D01*
X42462738Y-89537557D02*
X42510357Y-89632795D01*
X42510357Y-89632795D02*
X42510357Y-89728033D01*
X42510357Y-89728033D02*
X42462738Y-89823271D01*
X42462738Y-89823271D02*
X42415119Y-89870890D01*
X42415119Y-89870890D02*
X42319881Y-89918509D01*
X42319881Y-89918509D02*
X41986548Y-89918509D01*
X42986548Y-90061366D02*
X43748453Y-90061366D01*
X43367500Y-90442319D02*
X43367500Y-89680414D01*
X42319881Y-97518509D02*
X42462738Y-97566128D01*
X42462738Y-97566128D02*
X42510357Y-97613747D01*
X42510357Y-97613747D02*
X42557976Y-97708985D01*
X42557976Y-97708985D02*
X42557976Y-97851842D01*
X42557976Y-97851842D02*
X42510357Y-97947080D01*
X42510357Y-97947080D02*
X42462738Y-97994700D01*
X42462738Y-97994700D02*
X42367500Y-98042319D01*
X42367500Y-98042319D02*
X41986548Y-98042319D01*
X41986548Y-98042319D02*
X41986548Y-97042319D01*
X41986548Y-97042319D02*
X42319881Y-97042319D01*
X42319881Y-97042319D02*
X42415119Y-97089938D01*
X42415119Y-97089938D02*
X42462738Y-97137557D01*
X42462738Y-97137557D02*
X42510357Y-97232795D01*
X42510357Y-97232795D02*
X42510357Y-97328033D01*
X42510357Y-97328033D02*
X42462738Y-97423271D01*
X42462738Y-97423271D02*
X42415119Y-97470890D01*
X42415119Y-97470890D02*
X42319881Y-97518509D01*
X42319881Y-97518509D02*
X41986548Y-97518509D01*
X42986548Y-97661366D02*
X43748453Y-97661366D01*
X22205595Y-98089938D02*
X22110357Y-98042319D01*
X22110357Y-98042319D02*
X21967500Y-98042319D01*
X21967500Y-98042319D02*
X21824643Y-98089938D01*
X21824643Y-98089938D02*
X21729405Y-98185176D01*
X21729405Y-98185176D02*
X21681786Y-98280414D01*
X21681786Y-98280414D02*
X21634167Y-98470890D01*
X21634167Y-98470890D02*
X21634167Y-98613747D01*
X21634167Y-98613747D02*
X21681786Y-98804223D01*
X21681786Y-98804223D02*
X21729405Y-98899461D01*
X21729405Y-98899461D02*
X21824643Y-98994700D01*
X21824643Y-98994700D02*
X21967500Y-99042319D01*
X21967500Y-99042319D02*
X22062738Y-99042319D01*
X22062738Y-99042319D02*
X22205595Y-98994700D01*
X22205595Y-98994700D02*
X22253214Y-98947080D01*
X22253214Y-98947080D02*
X22253214Y-98613747D01*
X22253214Y-98613747D02*
X22062738Y-98613747D01*
X22681786Y-99042319D02*
X22681786Y-98042319D01*
X22681786Y-98042319D02*
X23253214Y-99042319D01*
X23253214Y-99042319D02*
X23253214Y-98042319D01*
X23729405Y-99042319D02*
X23729405Y-98042319D01*
X23729405Y-98042319D02*
X23967500Y-98042319D01*
X23967500Y-98042319D02*
X24110357Y-98089938D01*
X24110357Y-98089938D02*
X24205595Y-98185176D01*
X24205595Y-98185176D02*
X24253214Y-98280414D01*
X24253214Y-98280414D02*
X24300833Y-98470890D01*
X24300833Y-98470890D02*
X24300833Y-98613747D01*
X24300833Y-98613747D02*
X24253214Y-98804223D01*
X24253214Y-98804223D02*
X24205595Y-98899461D01*
X24205595Y-98899461D02*
X24110357Y-98994700D01*
X24110357Y-98994700D02*
X23967500Y-99042319D01*
X23967500Y-99042319D02*
X23729405Y-99042319D01*
X24686548Y-86561366D02*
X25448453Y-86561366D01*
X25067500Y-86942319D02*
X25067500Y-86180414D01*
X22724642Y-88442319D02*
X22248452Y-88442319D01*
X22248452Y-88442319D02*
X22200833Y-88918509D01*
X22200833Y-88918509D02*
X22248452Y-88870890D01*
X22248452Y-88870890D02*
X22343690Y-88823271D01*
X22343690Y-88823271D02*
X22581785Y-88823271D01*
X22581785Y-88823271D02*
X22677023Y-88870890D01*
X22677023Y-88870890D02*
X22724642Y-88918509D01*
X22724642Y-88918509D02*
X22772261Y-89013747D01*
X22772261Y-89013747D02*
X22772261Y-89251842D01*
X22772261Y-89251842D02*
X22724642Y-89347080D01*
X22724642Y-89347080D02*
X22677023Y-89394700D01*
X22677023Y-89394700D02*
X22581785Y-89442319D01*
X22581785Y-89442319D02*
X22343690Y-89442319D01*
X22343690Y-89442319D02*
X22248452Y-89394700D01*
X22248452Y-89394700D02*
X22200833Y-89347080D01*
X23105595Y-88775652D02*
X23343690Y-89442319D01*
X23343690Y-89442319D02*
X23581785Y-88775652D01*
X22222319Y-95249404D02*
X23031842Y-95249404D01*
X23031842Y-95249404D02*
X23127080Y-95201785D01*
X23127080Y-95201785D02*
X23174700Y-95154166D01*
X23174700Y-95154166D02*
X23222319Y-95058928D01*
X23222319Y-95058928D02*
X23222319Y-94868452D01*
X23222319Y-94868452D02*
X23174700Y-94773214D01*
X23174700Y-94773214D02*
X23127080Y-94725595D01*
X23127080Y-94725595D02*
X23031842Y-94677976D01*
X23031842Y-94677976D02*
X22222319Y-94677976D01*
X23174700Y-94249404D02*
X23222319Y-94106547D01*
X23222319Y-94106547D02*
X23222319Y-93868452D01*
X23222319Y-93868452D02*
X23174700Y-93773214D01*
X23174700Y-93773214D02*
X23127080Y-93725595D01*
X23127080Y-93725595D02*
X23031842Y-93677976D01*
X23031842Y-93677976D02*
X22936604Y-93677976D01*
X22936604Y-93677976D02*
X22841366Y-93725595D01*
X22841366Y-93725595D02*
X22793747Y-93773214D01*
X22793747Y-93773214D02*
X22746128Y-93868452D01*
X22746128Y-93868452D02*
X22698509Y-94058928D01*
X22698509Y-94058928D02*
X22650890Y-94154166D01*
X22650890Y-94154166D02*
X22603271Y-94201785D01*
X22603271Y-94201785D02*
X22508033Y-94249404D01*
X22508033Y-94249404D02*
X22412795Y-94249404D01*
X22412795Y-94249404D02*
X22317557Y-94201785D01*
X22317557Y-94201785D02*
X22269938Y-94154166D01*
X22269938Y-94154166D02*
X22222319Y-94058928D01*
X22222319Y-94058928D02*
X22222319Y-93820833D01*
X22222319Y-93820833D02*
X22269938Y-93677976D01*
X22698509Y-92916071D02*
X22746128Y-92773214D01*
X22746128Y-92773214D02*
X22793747Y-92725595D01*
X22793747Y-92725595D02*
X22888985Y-92677976D01*
X22888985Y-92677976D02*
X23031842Y-92677976D01*
X23031842Y-92677976D02*
X23127080Y-92725595D01*
X23127080Y-92725595D02*
X23174700Y-92773214D01*
X23174700Y-92773214D02*
X23222319Y-92868452D01*
X23222319Y-92868452D02*
X23222319Y-93249404D01*
X23222319Y-93249404D02*
X22222319Y-93249404D01*
X22222319Y-93249404D02*
X22222319Y-92916071D01*
X22222319Y-92916071D02*
X22269938Y-92820833D01*
X22269938Y-92820833D02*
X22317557Y-92773214D01*
X22317557Y-92773214D02*
X22412795Y-92725595D01*
X22412795Y-92725595D02*
X22508033Y-92725595D01*
X22508033Y-92725595D02*
X22603271Y-92773214D01*
X22603271Y-92773214D02*
X22650890Y-92820833D01*
X22650890Y-92820833D02*
X22698509Y-92916071D01*
X22698509Y-92916071D02*
X22698509Y-93249404D01*
X40615119Y-100542319D02*
X40805595Y-100542319D01*
X40805595Y-100542319D02*
X40900833Y-100589938D01*
X40900833Y-100589938D02*
X40996071Y-100685176D01*
X40996071Y-100685176D02*
X41043690Y-100875652D01*
X41043690Y-100875652D02*
X41043690Y-101208985D01*
X41043690Y-101208985D02*
X40996071Y-101399461D01*
X40996071Y-101399461D02*
X40900833Y-101494700D01*
X40900833Y-101494700D02*
X40805595Y-101542319D01*
X40805595Y-101542319D02*
X40615119Y-101542319D01*
X40615119Y-101542319D02*
X40519881Y-101494700D01*
X40519881Y-101494700D02*
X40424643Y-101399461D01*
X40424643Y-101399461D02*
X40377024Y-101208985D01*
X40377024Y-101208985D02*
X40377024Y-100875652D01*
X40377024Y-100875652D02*
X40424643Y-100685176D01*
X40424643Y-100685176D02*
X40519881Y-100589938D01*
X40519881Y-100589938D02*
X40615119Y-100542319D01*
X41900833Y-100875652D02*
X41900833Y-101542319D01*
X41472262Y-100875652D02*
X41472262Y-101399461D01*
X41472262Y-101399461D02*
X41519881Y-101494700D01*
X41519881Y-101494700D02*
X41615119Y-101542319D01*
X41615119Y-101542319D02*
X41757976Y-101542319D01*
X41757976Y-101542319D02*
X41853214Y-101494700D01*
X41853214Y-101494700D02*
X41900833Y-101447080D01*
X42234167Y-100875652D02*
X42615119Y-100875652D01*
X42377024Y-100542319D02*
X42377024Y-101399461D01*
X42377024Y-101399461D02*
X42424643Y-101494700D01*
X42424643Y-101494700D02*
X42519881Y-101542319D01*
X42519881Y-101542319D02*
X42615119Y-101542319D01*
X42948453Y-101161366D02*
X43710358Y-101161366D01*
X24786548Y-101761366D02*
X25548453Y-101761366D01*
X40615119Y-85942319D02*
X40805595Y-85942319D01*
X40805595Y-85942319D02*
X40900833Y-85989938D01*
X40900833Y-85989938D02*
X40996071Y-86085176D01*
X40996071Y-86085176D02*
X41043690Y-86275652D01*
X41043690Y-86275652D02*
X41043690Y-86608985D01*
X41043690Y-86608985D02*
X40996071Y-86799461D01*
X40996071Y-86799461D02*
X40900833Y-86894700D01*
X40900833Y-86894700D02*
X40805595Y-86942319D01*
X40805595Y-86942319D02*
X40615119Y-86942319D01*
X40615119Y-86942319D02*
X40519881Y-86894700D01*
X40519881Y-86894700D02*
X40424643Y-86799461D01*
X40424643Y-86799461D02*
X40377024Y-86608985D01*
X40377024Y-86608985D02*
X40377024Y-86275652D01*
X40377024Y-86275652D02*
X40424643Y-86085176D01*
X40424643Y-86085176D02*
X40519881Y-85989938D01*
X40519881Y-85989938D02*
X40615119Y-85942319D01*
X41900833Y-86275652D02*
X41900833Y-86942319D01*
X41472262Y-86275652D02*
X41472262Y-86799461D01*
X41472262Y-86799461D02*
X41519881Y-86894700D01*
X41519881Y-86894700D02*
X41615119Y-86942319D01*
X41615119Y-86942319D02*
X41757976Y-86942319D01*
X41757976Y-86942319D02*
X41853214Y-86894700D01*
X41853214Y-86894700D02*
X41900833Y-86847080D01*
X42234167Y-86275652D02*
X42615119Y-86275652D01*
X42377024Y-85942319D02*
X42377024Y-86799461D01*
X42377024Y-86799461D02*
X42424643Y-86894700D01*
X42424643Y-86894700D02*
X42519881Y-86942319D01*
X42519881Y-86942319D02*
X42615119Y-86942319D01*
X42948453Y-86561366D02*
X43710358Y-86561366D01*
X43329405Y-86942319D02*
X43329405Y-86180414D01*
D11*
X65545000Y-100650000D02*
G75*
G02*
X65145000Y-100650000I-200000J0D01*
G01*
X65145000Y-100650000D02*
G75*
G02*
X65545000Y-100650000I200000J0D01*
G01*
D12*
X77382500Y-102173752D02*
X77382500Y-101651248D01*
X78852500Y-102173752D02*
X78852500Y-101651248D01*
X20812720Y-80850000D02*
X20812720Y-106709999D01*
X20812720Y-106709999D02*
X84710000Y-106710000D01*
X84710000Y-80850001D02*
X20812720Y-80850000D01*
X84710000Y-106710000D02*
X84710000Y-80850001D01*
X84730320Y-84810120D02*
X90623120Y-84810120D01*
X90623120Y-84810120D02*
X90623120Y-102793320D01*
X90623120Y-102793320D02*
X84730320Y-102793320D01*
X55867500Y-85475000D02*
X55867500Y-89075000D01*
X55867500Y-89075000D02*
X59467500Y-89075000D01*
X59467500Y-85475000D02*
X55867500Y-85475000D01*
X59467500Y-89075000D02*
X59467500Y-85475000D01*
X60860000Y-14905000D02*
X60860000Y-15905000D01*
X60860000Y-14905000D02*
X61860000Y-14905000D01*
X60860000Y-27945000D02*
X60860000Y-26945000D01*
X60860000Y-27945000D02*
X61860000Y-27945000D01*
X64780000Y-22825000D02*
X62980000Y-22825000D01*
X64780000Y-23925000D02*
X62980000Y-23925000D01*
X66900000Y-14905000D02*
X65900000Y-14905000D01*
X66900000Y-14905000D02*
X66900000Y-15905000D01*
X66900000Y-27945000D02*
X65900000Y-27945000D01*
X66900000Y-27945000D02*
X66900000Y-26945000D01*
X62980000Y-23925000D02*
G75*
G02*
X62980000Y-22825000I0J550000D01*
G01*
X64780000Y-22825000D02*
G75*
G02*
X64780000Y-23925000I0J-550000D01*
G01*
X51529152Y-86515000D02*
X51006648Y-86515000D01*
X51529152Y-87985000D02*
X51006648Y-87985000D01*
X66382500Y-101651248D02*
X66382500Y-102173752D01*
X67852500Y-101651248D02*
X67852500Y-102173752D01*
X32030000Y-30875000D02*
X32030000Y-46075000D01*
X32030000Y-46075000D02*
X47230000Y-46075000D01*
X47230000Y-30875000D02*
X32030000Y-30875000D01*
X47230000Y-46075000D02*
X47230000Y-30875000D01*
X57467500Y-96965000D02*
X56667500Y-96965000D01*
X57467500Y-96965000D02*
X58267500Y-96965000D01*
X57467500Y-100085000D02*
X56667500Y-100085000D01*
X57467500Y-100085000D02*
X58267500Y-100085000D01*
X56167500Y-97015000D02*
X55927500Y-96685000D01*
X56407500Y-96685000D01*
X56167500Y-97015000D01*
G36*
X56167500Y-97015000D02*
G01*
X55927500Y-96685000D01*
X56407500Y-96685000D01*
X56167500Y-97015000D01*
G37*
X75232500Y-101685436D02*
X75232500Y-102139564D01*
X76702500Y-101685436D02*
X76702500Y-102139564D01*
X60530000Y-49325000D02*
X60530000Y-64525000D01*
X60530000Y-64525000D02*
X75730000Y-64525000D01*
X75730000Y-49325000D02*
X60530000Y-49325000D01*
X75730000Y-64525000D02*
X75730000Y-49325000D01*
X39645000Y-77213748D02*
X39645000Y-77736252D01*
X41115000Y-77213748D02*
X41115000Y-77736252D01*
X72102936Y-84365000D02*
X72557064Y-84365000D01*
X72102936Y-85835000D02*
X72557064Y-85835000D01*
X21144500Y-64125000D02*
X50344500Y-64125000D01*
X21144500Y-79575000D02*
X21144500Y-64125000D01*
X44680500Y-68331000D02*
X50014500Y-68331000D01*
X44680500Y-78999000D02*
X44680500Y-68331000D01*
X50014500Y-68331000D02*
X50014500Y-68331000D01*
X50014500Y-68331000D02*
X50014500Y-78999000D01*
X50014500Y-78999000D02*
X44680500Y-78999000D01*
X50014500Y-78999000D02*
X50014500Y-78999000D01*
X50344500Y-64125000D02*
X50344500Y-79575000D01*
X50344500Y-79575000D02*
X21144500Y-79575000D01*
X50344500Y-79575000D02*
X50344500Y-79575000D01*
X50880500Y-77715000D02*
X50544500Y-77475000D01*
X50880500Y-77235000D01*
X50880500Y-77715000D01*
G36*
X50880500Y-77715000D02*
G01*
X50544500Y-77475000D01*
X50880500Y-77235000D01*
X50880500Y-77715000D01*
G37*
X26955000Y-108520000D02*
X26955000Y-111280000D01*
X29605000Y-108520000D02*
X26955000Y-108520000D01*
X29605000Y-108520000D02*
X29605000Y-111280000D01*
X29605000Y-111280000D02*
X26955000Y-111280000D01*
X30875000Y-108520000D02*
X32255000Y-108520000D01*
X32255000Y-108520000D02*
X32255000Y-109900000D01*
X40480000Y-71177500D02*
X39830000Y-71177500D01*
X40480000Y-71177500D02*
X41130000Y-71177500D01*
X40480000Y-74297500D02*
X39830000Y-74297500D01*
X40480000Y-74297500D02*
X41130000Y-74297500D01*
X41882500Y-74577500D02*
X41402500Y-74577500D01*
X41642500Y-74247500D01*
X41882500Y-74577500D01*
G36*
X41882500Y-74577500D02*
G01*
X41402500Y-74577500D01*
X41642500Y-74247500D01*
X41882500Y-74577500D01*
G37*
X57617500Y-89352500D02*
X56817500Y-89352500D01*
X57617500Y-89352500D02*
X58417500Y-89352500D01*
X57617500Y-92472500D02*
X56817500Y-92472500D01*
X57617500Y-92472500D02*
X58417500Y-92472500D01*
X56317500Y-89402500D02*
X56077500Y-89072500D01*
X56557500Y-89072500D01*
X56317500Y-89402500D01*
G36*
X56317500Y-89402500D02*
G01*
X56077500Y-89072500D01*
X56557500Y-89072500D01*
X56317500Y-89402500D01*
G37*
X50430000Y-42325000D02*
X50430000Y-43825000D01*
X51680000Y-46325000D02*
X56180000Y-46325000D01*
X56180000Y-39825000D02*
X51680000Y-39825000D01*
X57430000Y-43825000D02*
X57430000Y-42325000D01*
X73032500Y-102139564D02*
X73032500Y-101685436D01*
X74502500Y-102139564D02*
X74502500Y-101685436D01*
X68295000Y-109438748D02*
X68295000Y-109961252D01*
X69765000Y-109438748D02*
X69765000Y-109961252D01*
X60530000Y-30875000D02*
X60530000Y-46075000D01*
X60530000Y-46075000D02*
X75730000Y-46075000D01*
X75730000Y-30875000D02*
X60530000Y-30875000D01*
X75730000Y-46075000D02*
X75730000Y-30875000D01*
X68532500Y-101651248D02*
X68532500Y-102173752D01*
X70002500Y-101651248D02*
X70002500Y-102173752D01*
X61560000Y-30855000D02*
X61560000Y-31855000D01*
X61560000Y-30855000D02*
X62560000Y-30855000D01*
X61560000Y-43895000D02*
X61560000Y-42895000D01*
X61560000Y-43895000D02*
X62560000Y-43895000D01*
X63680000Y-34875000D02*
X65480000Y-34875000D01*
X63680000Y-35975000D02*
X65480000Y-35975000D01*
X67600000Y-30855000D02*
X66600000Y-30855000D01*
X67600000Y-30855000D02*
X67600000Y-31855000D01*
X67600000Y-43895000D02*
X66600000Y-43895000D01*
X67600000Y-43895000D02*
X67600000Y-42895000D01*
X63680000Y-35975000D02*
G75*
G02*
X63680000Y-34875000I0J550000D01*
G01*
X65480000Y-34875000D02*
G75*
G02*
X65480000Y-35975000I0J-550000D01*
G01*
D13*
X39480000Y-18895000D02*
X40280000Y-18895000D01*
X39480000Y-27895000D02*
X40280000Y-27895000D01*
X45580000Y-18895000D02*
X43880000Y-18895000D01*
X45580000Y-27895000D02*
X43880000Y-27895000D01*
D12*
X64232500Y-102173752D02*
X64232500Y-101651248D01*
X65702500Y-102173752D02*
X65702500Y-101651248D01*
X55867500Y-92925000D02*
X55867500Y-96525000D01*
X55867500Y-96525000D02*
X59467500Y-96525000D01*
X59467500Y-92925000D02*
X55867500Y-92925000D01*
X59467500Y-96525000D02*
X59467500Y-92925000D01*
X52540000Y-107385000D02*
X52540000Y-108247077D01*
X52540000Y-108882923D02*
X52540000Y-109517077D01*
X52540000Y-110152923D02*
X52540000Y-111015000D01*
X61365000Y-107385000D02*
X52540000Y-107385000D01*
X61365000Y-107385000D02*
X61365000Y-107898292D01*
X62175000Y-107385000D02*
X62985000Y-107385000D01*
X62920000Y-110152923D02*
X62920000Y-111015000D01*
X62920000Y-111015000D02*
X52540000Y-111015000D01*
X62985000Y-107385000D02*
X62985000Y-108565000D01*
X66877936Y-84365000D02*
X67332064Y-84365000D01*
X66877936Y-85835000D02*
X67332064Y-85835000D01*
X40160000Y-30855000D02*
X40160000Y-31855000D01*
X40160000Y-30855000D02*
X41160000Y-30855000D01*
X40160000Y-43895000D02*
X40160000Y-42895000D01*
X40160000Y-43895000D02*
X41160000Y-43895000D01*
X42280000Y-34875000D02*
X44080000Y-34875000D01*
X42280000Y-35975000D02*
X44080000Y-35975000D01*
X46200000Y-30855000D02*
X45200000Y-30855000D01*
X46200000Y-30855000D02*
X46200000Y-31855000D01*
X46200000Y-43895000D02*
X45200000Y-43895000D01*
X46200000Y-43895000D02*
X46200000Y-42895000D01*
X42280000Y-35975000D02*
G75*
G02*
X42280000Y-34875000I0J550000D01*
G01*
X44080000Y-34875000D02*
G75*
G02*
X44080000Y-35975000I0J-550000D01*
G01*
D10*
X21167500Y-84887500D02*
X47467500Y-84887500D01*
X21167500Y-102687500D02*
X21167500Y-84887500D01*
X21567500Y-92087500D02*
X24067500Y-92087500D01*
X21567500Y-95887500D02*
X21567500Y-92187500D01*
X24067500Y-92087500D02*
X24067500Y-95887500D01*
X24067500Y-95887500D02*
X21567500Y-95887500D01*
X47267500Y-87387500D02*
X47267500Y-100287500D01*
X47267500Y-100287500D02*
X47567500Y-100287500D01*
X47467500Y-84887500D02*
X49567500Y-84887500D01*
X47467500Y-100287500D02*
X49567500Y-100287500D01*
X49567500Y-84887500D02*
X49567500Y-87387500D01*
X49567500Y-87387500D02*
X47267500Y-87387500D01*
X49567500Y-100287500D02*
X49567500Y-100587500D01*
X49567500Y-100587500D02*
X49567500Y-102687500D01*
X49567500Y-102687500D02*
X21167500Y-102687500D01*
D12*
X50430000Y-50625000D02*
X50430000Y-52125000D01*
X51680000Y-54625000D02*
X56180000Y-54625000D01*
X56180000Y-48125000D02*
X51680000Y-48125000D01*
X57430000Y-52125000D02*
X57430000Y-50625000D01*
X70682500Y-102139564D02*
X70682500Y-101685436D01*
X72152500Y-102139564D02*
X72152500Y-101685436D01*
X72180000Y-108102500D02*
X71530000Y-108102500D01*
X72180000Y-108102500D02*
X72830000Y-108102500D01*
X72180000Y-111222500D02*
X71530000Y-111222500D01*
X72180000Y-111222500D02*
X72830000Y-111222500D01*
X73582500Y-111502500D02*
X73102500Y-111502500D01*
X73342500Y-111172500D01*
X73582500Y-111502500D01*
G36*
X73582500Y-111502500D02*
G01*
X73102500Y-111502500D01*
X73342500Y-111172500D01*
X73582500Y-111502500D01*
G37*
X32030000Y-49325000D02*
X32030000Y-64525000D01*
X32030000Y-64525000D02*
X47230000Y-64525000D01*
X47230000Y-49325000D02*
X32030000Y-49325000D01*
X47230000Y-64525000D02*
X47230000Y-49325000D01*
%LPC*%
D14*
X30880000Y-17725000D03*
D15*
X65345000Y-98650000D03*
D16*
X67125000Y-98650000D03*
X68905000Y-98650000D03*
X70685000Y-98650000D03*
X72465000Y-98650000D03*
X74245000Y-98650000D03*
X76025000Y-98650000D03*
X77805000Y-98650000D03*
X78695000Y-87950000D03*
X76915000Y-87950000D03*
X75135000Y-87950000D03*
X73355000Y-87950000D03*
X71575000Y-87950000D03*
X69795000Y-87950000D03*
X68015000Y-87950000D03*
X66235000Y-87950000D03*
D17*
X78117500Y-102862500D03*
X78117500Y-100962500D03*
D15*
X83610000Y-82350000D03*
D16*
X81070000Y-82350000D03*
X78530000Y-82350000D03*
X75990000Y-82350000D03*
X73450000Y-82350000D03*
X70910000Y-82350000D03*
X68370000Y-82350000D03*
X65830000Y-82350000D03*
X63290000Y-82350000D03*
X60750000Y-82350000D03*
X58210000Y-82350000D03*
X55670000Y-82350000D03*
X53130000Y-82350000D03*
X50590000Y-82350000D03*
X48050000Y-82350000D03*
X45510000Y-82350000D03*
X42970000Y-82350000D03*
X40430000Y-82350000D03*
X37890000Y-82350000D03*
X35352720Y-82346320D03*
X32812720Y-82346320D03*
X30272720Y-82346320D03*
X30270000Y-105210000D03*
X32810000Y-105210000D03*
X35350000Y-105210000D03*
X37890000Y-105210000D03*
X40430000Y-105210000D03*
X42970000Y-105210000D03*
X45510000Y-105210000D03*
X48050000Y-105210000D03*
X50590000Y-105210000D03*
X53130000Y-105210000D03*
X55670000Y-105210000D03*
X58210000Y-105210000D03*
X60750000Y-105210000D03*
X63290000Y-105210000D03*
X65830000Y-105210000D03*
X68370000Y-105210000D03*
X70910000Y-105210000D03*
X73450000Y-105210000D03*
X75990000Y-105210000D03*
X78530000Y-105210000D03*
X81070000Y-105210000D03*
X83610000Y-105210000D03*
D18*
X58667500Y-88225000D03*
X58667500Y-86325000D03*
X56667500Y-87275000D03*
D19*
X63880000Y-26505000D03*
X63880000Y-21425000D03*
X63880000Y-16345000D03*
D20*
X52217900Y-87250000D03*
X50317900Y-87250000D03*
D21*
X67117500Y-100962500D03*
X67117500Y-102862500D03*
D22*
X39630000Y-43975000D03*
D23*
X44780000Y-43475000D03*
D24*
X33730000Y-38475000D03*
D25*
X39630000Y-38475000D03*
D24*
X35830000Y-33475000D03*
D22*
X39630000Y-32975000D03*
D26*
X56330000Y-97575000D03*
X56330000Y-98525000D03*
X56330000Y-99475000D03*
X58605000Y-99475000D03*
X58605000Y-97575000D03*
D14*
X22955000Y-69875000D03*
D27*
X75967500Y-101000000D03*
X75967500Y-102825000D03*
D22*
X68130000Y-51425000D03*
D23*
X62980000Y-51925000D03*
D24*
X74030000Y-56925000D03*
D25*
X68130000Y-56925000D03*
D24*
X71930000Y-61925000D03*
D22*
X68130000Y-62425000D03*
D21*
X40380000Y-76525000D03*
X40380000Y-78425000D03*
D28*
X71417500Y-85100000D03*
X73242500Y-85100000D03*
D14*
X22950000Y-110250000D03*
D29*
X48744500Y-77475000D03*
D19*
X46204500Y-77475000D03*
X48744500Y-74935000D03*
X46204500Y-74935000D03*
X48744500Y-72395000D03*
X46204500Y-72395000D03*
X48744500Y-69855000D03*
X46204500Y-69855000D03*
D29*
X30875000Y-109900000D03*
D19*
X28335000Y-109900000D03*
D30*
X41417500Y-73687500D03*
X41417500Y-71787500D03*
X39542500Y-72737500D03*
D26*
X56480000Y-89962500D03*
X56480000Y-90912500D03*
X56480000Y-91862500D03*
X58755000Y-91862500D03*
X58755000Y-89962500D03*
D31*
X50680000Y-40825000D03*
X57180000Y-40825000D03*
X50680000Y-45325000D03*
X57180000Y-45325000D03*
D32*
X73767500Y-102825000D03*
X73767500Y-101000000D03*
D14*
X77640000Y-47675000D03*
D21*
X69030000Y-108750000D03*
X69030000Y-110650000D03*
D22*
X68130000Y-32975000D03*
D23*
X62980000Y-33475000D03*
D24*
X74030000Y-38475000D03*
D25*
X68130000Y-38475000D03*
D24*
X71930000Y-43475000D03*
D22*
X68130000Y-43975000D03*
D14*
X82650000Y-110250000D03*
D21*
X69267500Y-100962500D03*
X69267500Y-102862500D03*
D19*
X64580000Y-32295000D03*
X64580000Y-37375000D03*
X64580000Y-42455000D03*
D14*
X75890000Y-26075000D03*
D33*
X41880000Y-27895000D03*
X41880000Y-18895000D03*
D34*
X43880000Y-25895000D03*
X43880000Y-23395000D03*
X43880000Y-20895000D03*
D17*
X64967500Y-102862500D03*
X64967500Y-100962500D03*
D18*
X58667500Y-95675000D03*
X58667500Y-93775000D03*
X56667500Y-94725000D03*
D14*
X30140000Y-47725000D03*
D35*
X62175000Y-108565000D03*
D36*
X62175000Y-109835000D03*
X60905000Y-108565000D03*
X60905000Y-109835000D03*
X59635000Y-108565000D03*
X59635000Y-109835000D03*
X58365000Y-108565000D03*
X58365000Y-109835000D03*
X57095000Y-108565000D03*
X57095000Y-109835000D03*
X55825000Y-108565000D03*
X55825000Y-109835000D03*
X54555000Y-108565000D03*
X54555000Y-109835000D03*
X53285000Y-108565000D03*
X53285000Y-109835000D03*
D28*
X66192500Y-85100000D03*
X68017500Y-85100000D03*
D19*
X43180000Y-32295000D03*
X43180000Y-37375000D03*
X43180000Y-42455000D03*
D37*
X22867500Y-86587500D03*
X22867500Y-100787500D03*
X45767500Y-86587500D03*
X45767500Y-101087500D03*
X45767500Y-90087500D03*
X45767500Y-97687500D03*
D14*
X82655000Y-69875000D03*
D31*
X50680000Y-49125000D03*
X57180000Y-49125000D03*
X50680000Y-53625000D03*
X57180000Y-53625000D03*
D32*
X71417500Y-102825000D03*
X71417500Y-101000000D03*
D30*
X73117500Y-110612500D03*
X73117500Y-108712500D03*
X71242500Y-109662500D03*
D22*
X39630000Y-62425000D03*
D23*
X44780000Y-61925000D03*
D24*
X33730000Y-56925000D03*
D25*
X39630000Y-56925000D03*
D24*
X35830000Y-51925000D03*
D22*
X39630000Y-51425000D03*
D29*
X77170000Y-18475000D03*
D19*
X74630000Y-18475000D03*
X72090000Y-18475000D03*
X69550000Y-18475000D03*
D35*
X54500000Y-56945000D03*
D36*
X53230000Y-56945000D03*
X54500000Y-58215000D03*
X53230000Y-58215000D03*
X54500000Y-59485000D03*
X53230000Y-59485000D03*
X54500000Y-60755000D03*
X53230000Y-60755000D03*
X54500000Y-62025000D03*
X53230000Y-62025000D03*
X54500000Y-63295000D03*
X53230000Y-63295000D03*
X54500000Y-64565000D03*
X53230000Y-64565000D03*
X54500000Y-65835000D03*
X53230000Y-65835000D03*
%LPD*%
M02*
