%TF.GenerationSoftware,KiCad,Pcbnew,9.0.2*%
%TF.CreationDate,2025-05-15T14:08:42+02:00*%
%TF.ProjectId,MaSe,4d615365-2e6b-4696-9361-645f70636258,rev?*%
%TF.SameCoordinates,Original*%
%TF.FileFunction,Legend,Top*%
%TF.FilePolarity,Positive*%
%FSLAX46Y46*%
G04 Gerber Fmt 4.6, Leading zero omitted, Abs format (unit mm)*
G04 Created by KiCad (PCBNEW 9.0.2) date 2025-05-15 14:08:42*
%MOMM*%
%LPD*%
G01*
G04 APERTURE LIST*
G04 Aperture macros list*
%AMRoundRect*
0 Rectangle with rounded corners*
0 $1 Rounding radius*
0 $2 $3 $4 $5 $6 $7 $8 $9 X,Y pos of 4 corners*
0 Add a 4 corners polygon primitive as box body*
4,1,4,$2,$3,$4,$5,$6,$7,$8,$9,$2,$3,0*
0 Add four circle primitives for the rounded corners*
1,1,$1+$1,$2,$3*
1,1,$1+$1,$4,$5*
1,1,$1+$1,$6,$7*
1,1,$1+$1,$8,$9*
0 Add four rect primitives between the rounded corners*
20,1,$1+$1,$2,$3,$4,$5,0*
20,1,$1+$1,$4,$5,$6,$7,0*
20,1,$1+$1,$6,$7,$8,$9,0*
20,1,$1+$1,$8,$9,$2,$3,0*%
G04 Aperture macros list end*
%ADD10C,0.150000*%
%ADD11C,0.120000*%
%ADD12C,0.400000*%
%ADD13C,0.100000*%
%ADD14R,1.700000X1.700000*%
%ADD15C,1.700000*%
%ADD16RoundRect,0.250000X0.475000X-0.250000X0.475000X0.250000X-0.475000X0.250000X-0.475000X-0.250000X0*%
%ADD17RoundRect,0.200000X0.250000X0.200000X-0.250000X0.200000X-0.250000X-0.200000X0.250000X-0.200000X0*%
%ADD18RoundRect,0.250000X-0.262500X-0.450000X0.262500X-0.450000X0.262500X0.450000X-0.262500X0.450000X0*%
%ADD19RoundRect,0.250000X0.450000X-0.262500X0.450000X0.262500X-0.450000X0.262500X-0.450000X-0.262500X0*%
%ADD20RoundRect,0.150000X-0.512500X-0.150000X0.512500X-0.150000X0.512500X0.150000X-0.512500X0.150000X0*%
%ADD21RoundRect,0.250000X-0.475000X0.250000X-0.475000X-0.250000X0.475000X-0.250000X0.475000X0.250000X0*%
%ADD22RoundRect,0.250000X-0.450000X0.262500X-0.450000X-0.262500X0.450000X-0.262500X0.450000X0.262500X0*%
%ADD23O,1.200000X2.000000*%
%ADD24R,1.200000X2.000000*%
%ADD25RoundRect,0.150000X0.587500X0.150000X-0.587500X0.150000X-0.587500X-0.150000X0.587500X-0.150000X0*%
%ADD26C,2.200000*%
%ADD27RoundRect,0.250000X0.250000X0.475000X-0.250000X0.475000X-0.250000X-0.475000X0.250000X-0.475000X0*%
%ADD28C,1.900000*%
%ADD29C,1.600000*%
%ADD30C,3.050000*%
%ADD31C,5.050000*%
%ADD32C,2.000000*%
%ADD33RoundRect,0.625000X0.875000X-0.625000X0.875000X0.625000X-0.875000X0.625000X-0.875000X-0.625000X0*%
%ADD34O,1.700000X1.400000*%
%ADD35R,1.000000X1.000000*%
%ADD36C,1.000000*%
%ADD37R,2.800000X2.800000*%
G04 APERTURE END LIST*
D10*
G36*
X151321667Y-52164574D02*
G01*
X151545638Y-56145000D01*
X150724249Y-56145000D01*
X150675401Y-54442138D01*
X150671004Y-53893569D01*
X150689811Y-53446849D01*
X150724249Y-52965935D01*
X150276308Y-55467226D01*
X149564096Y-55467226D01*
X149081716Y-52965935D01*
X149118841Y-53435614D01*
X149137648Y-53896500D01*
X149136182Y-54456304D01*
X149107606Y-56145000D01*
X148300628Y-56145000D01*
X148524598Y-52164574D01*
X149492288Y-52164574D01*
X149934612Y-54737916D01*
X150353733Y-52164574D01*
X151321667Y-52164574D01*
G37*
G36*
X153627456Y-53015739D02*
G01*
X153902529Y-53072896D01*
X154118426Y-53159530D01*
X154286287Y-53271971D01*
X154425580Y-53421196D01*
X154526455Y-53599810D01*
X154589819Y-53813801D01*
X154612351Y-54071622D01*
X154612351Y-55266214D01*
X154626316Y-55425437D01*
X154659734Y-55516074D01*
X154719632Y-55582514D01*
X154813363Y-55633799D01*
X154626762Y-56231217D01*
X154369953Y-56186390D01*
X154171249Y-56112027D01*
X154006688Y-55995494D01*
X153879867Y-55829193D01*
X153753395Y-55956012D01*
X153605032Y-56059646D01*
X153431926Y-56140847D01*
X153155428Y-56217382D01*
X152874808Y-56242697D01*
X152641415Y-56224315D01*
X152442188Y-56172175D01*
X152271150Y-56088861D01*
X152123761Y-55974274D01*
X152001937Y-55831279D01*
X151915371Y-55671029D01*
X151862292Y-55490074D01*
X151843859Y-55283555D01*
X151850596Y-55220296D01*
X152780041Y-55220296D01*
X152792928Y-55332356D01*
X152829104Y-55422079D01*
X152887752Y-55494581D01*
X153011298Y-55566964D01*
X153187927Y-55593499D01*
X153333481Y-55572862D01*
X153494940Y-55506060D01*
X153636669Y-55399926D01*
X153739183Y-55257665D01*
X153739183Y-54763562D01*
X153515212Y-54763562D01*
X153263027Y-54779398D01*
X153083128Y-54820611D01*
X152958094Y-54880066D01*
X152859162Y-54969558D01*
X152800577Y-55080594D01*
X152780041Y-55220296D01*
X151850596Y-55220296D01*
X151869391Y-55043809D01*
X151942401Y-54840809D01*
X152061939Y-54666644D01*
X152232937Y-54516632D01*
X152430471Y-54405970D01*
X152672797Y-54321501D01*
X152968738Y-54266591D01*
X153328611Y-54246744D01*
X153739183Y-54246744D01*
X153739183Y-54131950D01*
X153715319Y-53964197D01*
X153649272Y-53840175D01*
X153540314Y-53748600D01*
X153376288Y-53687283D01*
X153136147Y-53663736D01*
X152979978Y-53672964D01*
X152759769Y-53705502D01*
X152531235Y-53755787D01*
X152300593Y-53824692D01*
X152090788Y-53221413D01*
X152391628Y-53123453D01*
X152706769Y-53052152D01*
X153019666Y-53008162D01*
X153279762Y-52994755D01*
X153627456Y-53015739D01*
G37*
G36*
X158348046Y-54981915D02*
G01*
X158325823Y-55222887D01*
X158261077Y-55439496D01*
X158154117Y-55636730D01*
X158009730Y-55809200D01*
X157826440Y-55957416D01*
X157598464Y-56081985D01*
X157352199Y-56168318D01*
X157064582Y-56223221D01*
X156728471Y-56242697D01*
X156355234Y-56222297D01*
X156043928Y-56165515D01*
X155784961Y-56077588D01*
X155539081Y-55954894D01*
X155330315Y-55818288D01*
X155154570Y-55668237D01*
X155631332Y-55139940D01*
X155864491Y-55310872D01*
X156119330Y-55437184D01*
X156395647Y-55515090D01*
X156705268Y-55541964D01*
X156898990Y-55526269D01*
X157056560Y-55482639D01*
X157184961Y-55414225D01*
X157287322Y-55317040D01*
X157347802Y-55199161D01*
X157368876Y-55053722D01*
X157350895Y-54915539D01*
X157299781Y-54803748D01*
X157215003Y-54712027D01*
X157024353Y-54600615D01*
X156645184Y-54462166D01*
X156186245Y-54295517D01*
X155866039Y-54127524D01*
X155652826Y-53960980D01*
X155524999Y-53807723D01*
X155433922Y-53635652D01*
X155377967Y-53441045D01*
X155358513Y-53218726D01*
X155382006Y-52982493D01*
X155449742Y-52776837D01*
X155560990Y-52595418D01*
X155708744Y-52439083D01*
X155888633Y-52307679D01*
X156105163Y-52200722D01*
X156336578Y-52125889D01*
X156586472Y-52079954D01*
X156857676Y-52064190D01*
X157163836Y-52080106D01*
X157434158Y-52125539D01*
X157673203Y-52197791D01*
X157900318Y-52300513D01*
X158103403Y-52427209D01*
X158284787Y-52578321D01*
X157839776Y-53089521D01*
X157629149Y-52940967D01*
X157406001Y-52838196D01*
X157170677Y-52776725D01*
X156932170Y-52756374D01*
X156754325Y-52768813D01*
X156612061Y-52802978D01*
X156498639Y-52855537D01*
X156407068Y-52932663D01*
X156353596Y-53027777D01*
X156334996Y-53146919D01*
X156353492Y-53264774D01*
X156406803Y-53359410D01*
X156496233Y-53437209D01*
X156656664Y-53521831D01*
X157150523Y-53698175D01*
X157509441Y-53828483D01*
X157795080Y-53972704D01*
X157963193Y-54090515D01*
X158098993Y-54223742D01*
X158205896Y-54373262D01*
X158282070Y-54539784D01*
X158330655Y-54740251D01*
X158348046Y-54981915D01*
G37*
G36*
X160566387Y-53016751D02*
G01*
X160816675Y-53079759D01*
X161037159Y-53181357D01*
X161233497Y-53322929D01*
X161398393Y-53500534D01*
X161533949Y-53718447D01*
X161629211Y-53958115D01*
X161689311Y-54236227D01*
X161710537Y-54559863D01*
X161706140Y-54726437D01*
X161693196Y-54884218D01*
X159717515Y-54884218D01*
X159769866Y-55124444D01*
X159852545Y-55297807D01*
X159961514Y-55419842D01*
X160101383Y-55508742D01*
X160262289Y-55563077D01*
X160449755Y-55582020D01*
X160656019Y-55564749D01*
X160854466Y-55513143D01*
X161045492Y-55433161D01*
X161230844Y-55329473D01*
X161595498Y-55823332D01*
X161362370Y-55987932D01*
X161074284Y-56124972D01*
X160867248Y-56188896D01*
X160636288Y-56228802D01*
X160377948Y-56242697D01*
X160034703Y-56217498D01*
X159745884Y-56146613D01*
X159502093Y-56034602D01*
X159285156Y-55877505D01*
X159109241Y-55687628D01*
X158970865Y-55461608D01*
X158873834Y-55212574D01*
X158813701Y-54934690D01*
X158792812Y-54622878D01*
X158811826Y-54338579D01*
X159706036Y-54338579D01*
X160825889Y-54338579D01*
X160808482Y-54119352D01*
X160764073Y-53944084D01*
X160696685Y-53804420D01*
X160597476Y-53695130D01*
X160462724Y-53627863D01*
X160280251Y-53603408D01*
X160125676Y-53623564D01*
X159996576Y-53681577D01*
X159886775Y-53778775D01*
X159806908Y-53904645D01*
X159744751Y-54085552D01*
X159706036Y-54338579D01*
X158811826Y-54338579D01*
X158812655Y-54326190D01*
X158870489Y-54054135D01*
X158965003Y-53802955D01*
X159098653Y-53572118D01*
X159265914Y-53377107D01*
X159469120Y-53214330D01*
X159699501Y-53095119D01*
X159967118Y-53020873D01*
X160280251Y-52994755D01*
X160566387Y-53016751D01*
G37*
X148399819Y-140208333D02*
X149114104Y-140208333D01*
X149114104Y-140208333D02*
X149256961Y-140255952D01*
X149256961Y-140255952D02*
X149352200Y-140351190D01*
X149352200Y-140351190D02*
X149399819Y-140494047D01*
X149399819Y-140494047D02*
X149399819Y-140589285D01*
X148733152Y-139303571D02*
X149399819Y-139303571D01*
X148352200Y-139541666D02*
X149066485Y-139779761D01*
X149066485Y-139779761D02*
X149066485Y-139160714D01*
X162189881Y-120618509D02*
X162332738Y-120666128D01*
X162332738Y-120666128D02*
X162380357Y-120713747D01*
X162380357Y-120713747D02*
X162427976Y-120808985D01*
X162427976Y-120808985D02*
X162427976Y-120951842D01*
X162427976Y-120951842D02*
X162380357Y-121047080D01*
X162380357Y-121047080D02*
X162332738Y-121094700D01*
X162332738Y-121094700D02*
X162237500Y-121142319D01*
X162237500Y-121142319D02*
X161856548Y-121142319D01*
X161856548Y-121142319D02*
X161856548Y-120142319D01*
X161856548Y-120142319D02*
X162189881Y-120142319D01*
X162189881Y-120142319D02*
X162285119Y-120189938D01*
X162285119Y-120189938D02*
X162332738Y-120237557D01*
X162332738Y-120237557D02*
X162380357Y-120332795D01*
X162380357Y-120332795D02*
X162380357Y-120428033D01*
X162380357Y-120428033D02*
X162332738Y-120523271D01*
X162332738Y-120523271D02*
X162285119Y-120570890D01*
X162285119Y-120570890D02*
X162189881Y-120618509D01*
X162189881Y-120618509D02*
X161856548Y-120618509D01*
X162856548Y-120761366D02*
X163618453Y-120761366D01*
X163237500Y-121142319D02*
X163237500Y-120380414D01*
X162189881Y-128218509D02*
X162332738Y-128266128D01*
X162332738Y-128266128D02*
X162380357Y-128313747D01*
X162380357Y-128313747D02*
X162427976Y-128408985D01*
X162427976Y-128408985D02*
X162427976Y-128551842D01*
X162427976Y-128551842D02*
X162380357Y-128647080D01*
X162380357Y-128647080D02*
X162332738Y-128694700D01*
X162332738Y-128694700D02*
X162237500Y-128742319D01*
X162237500Y-128742319D02*
X161856548Y-128742319D01*
X161856548Y-128742319D02*
X161856548Y-127742319D01*
X161856548Y-127742319D02*
X162189881Y-127742319D01*
X162189881Y-127742319D02*
X162285119Y-127789938D01*
X162285119Y-127789938D02*
X162332738Y-127837557D01*
X162332738Y-127837557D02*
X162380357Y-127932795D01*
X162380357Y-127932795D02*
X162380357Y-128028033D01*
X162380357Y-128028033D02*
X162332738Y-128123271D01*
X162332738Y-128123271D02*
X162285119Y-128170890D01*
X162285119Y-128170890D02*
X162189881Y-128218509D01*
X162189881Y-128218509D02*
X161856548Y-128218509D01*
X162856548Y-128361366D02*
X163618453Y-128361366D01*
X142075595Y-128789938D02*
X141980357Y-128742319D01*
X141980357Y-128742319D02*
X141837500Y-128742319D01*
X141837500Y-128742319D02*
X141694643Y-128789938D01*
X141694643Y-128789938D02*
X141599405Y-128885176D01*
X141599405Y-128885176D02*
X141551786Y-128980414D01*
X141551786Y-128980414D02*
X141504167Y-129170890D01*
X141504167Y-129170890D02*
X141504167Y-129313747D01*
X141504167Y-129313747D02*
X141551786Y-129504223D01*
X141551786Y-129504223D02*
X141599405Y-129599461D01*
X141599405Y-129599461D02*
X141694643Y-129694700D01*
X141694643Y-129694700D02*
X141837500Y-129742319D01*
X141837500Y-129742319D02*
X141932738Y-129742319D01*
X141932738Y-129742319D02*
X142075595Y-129694700D01*
X142075595Y-129694700D02*
X142123214Y-129647080D01*
X142123214Y-129647080D02*
X142123214Y-129313747D01*
X142123214Y-129313747D02*
X141932738Y-129313747D01*
X142551786Y-129742319D02*
X142551786Y-128742319D01*
X142551786Y-128742319D02*
X143123214Y-129742319D01*
X143123214Y-129742319D02*
X143123214Y-128742319D01*
X143599405Y-129742319D02*
X143599405Y-128742319D01*
X143599405Y-128742319D02*
X143837500Y-128742319D01*
X143837500Y-128742319D02*
X143980357Y-128789938D01*
X143980357Y-128789938D02*
X144075595Y-128885176D01*
X144075595Y-128885176D02*
X144123214Y-128980414D01*
X144123214Y-128980414D02*
X144170833Y-129170890D01*
X144170833Y-129170890D02*
X144170833Y-129313747D01*
X144170833Y-129313747D02*
X144123214Y-129504223D01*
X144123214Y-129504223D02*
X144075595Y-129599461D01*
X144075595Y-129599461D02*
X143980357Y-129694700D01*
X143980357Y-129694700D02*
X143837500Y-129742319D01*
X143837500Y-129742319D02*
X143599405Y-129742319D01*
X144556548Y-117261366D02*
X145318453Y-117261366D01*
X144937500Y-117642319D02*
X144937500Y-116880414D01*
X142594642Y-119142319D02*
X142118452Y-119142319D01*
X142118452Y-119142319D02*
X142070833Y-119618509D01*
X142070833Y-119618509D02*
X142118452Y-119570890D01*
X142118452Y-119570890D02*
X142213690Y-119523271D01*
X142213690Y-119523271D02*
X142451785Y-119523271D01*
X142451785Y-119523271D02*
X142547023Y-119570890D01*
X142547023Y-119570890D02*
X142594642Y-119618509D01*
X142594642Y-119618509D02*
X142642261Y-119713747D01*
X142642261Y-119713747D02*
X142642261Y-119951842D01*
X142642261Y-119951842D02*
X142594642Y-120047080D01*
X142594642Y-120047080D02*
X142547023Y-120094700D01*
X142547023Y-120094700D02*
X142451785Y-120142319D01*
X142451785Y-120142319D02*
X142213690Y-120142319D01*
X142213690Y-120142319D02*
X142118452Y-120094700D01*
X142118452Y-120094700D02*
X142070833Y-120047080D01*
X142975595Y-119475652D02*
X143213690Y-120142319D01*
X143213690Y-120142319D02*
X143451785Y-119475652D01*
X142092319Y-125949404D02*
X142901842Y-125949404D01*
X142901842Y-125949404D02*
X142997080Y-125901785D01*
X142997080Y-125901785D02*
X143044700Y-125854166D01*
X143044700Y-125854166D02*
X143092319Y-125758928D01*
X143092319Y-125758928D02*
X143092319Y-125568452D01*
X143092319Y-125568452D02*
X143044700Y-125473214D01*
X143044700Y-125473214D02*
X142997080Y-125425595D01*
X142997080Y-125425595D02*
X142901842Y-125377976D01*
X142901842Y-125377976D02*
X142092319Y-125377976D01*
X143044700Y-124949404D02*
X143092319Y-124806547D01*
X143092319Y-124806547D02*
X143092319Y-124568452D01*
X143092319Y-124568452D02*
X143044700Y-124473214D01*
X143044700Y-124473214D02*
X142997080Y-124425595D01*
X142997080Y-124425595D02*
X142901842Y-124377976D01*
X142901842Y-124377976D02*
X142806604Y-124377976D01*
X142806604Y-124377976D02*
X142711366Y-124425595D01*
X142711366Y-124425595D02*
X142663747Y-124473214D01*
X142663747Y-124473214D02*
X142616128Y-124568452D01*
X142616128Y-124568452D02*
X142568509Y-124758928D01*
X142568509Y-124758928D02*
X142520890Y-124854166D01*
X142520890Y-124854166D02*
X142473271Y-124901785D01*
X142473271Y-124901785D02*
X142378033Y-124949404D01*
X142378033Y-124949404D02*
X142282795Y-124949404D01*
X142282795Y-124949404D02*
X142187557Y-124901785D01*
X142187557Y-124901785D02*
X142139938Y-124854166D01*
X142139938Y-124854166D02*
X142092319Y-124758928D01*
X142092319Y-124758928D02*
X142092319Y-124520833D01*
X142092319Y-124520833D02*
X142139938Y-124377976D01*
X142568509Y-123616071D02*
X142616128Y-123473214D01*
X142616128Y-123473214D02*
X142663747Y-123425595D01*
X142663747Y-123425595D02*
X142758985Y-123377976D01*
X142758985Y-123377976D02*
X142901842Y-123377976D01*
X142901842Y-123377976D02*
X142997080Y-123425595D01*
X142997080Y-123425595D02*
X143044700Y-123473214D01*
X143044700Y-123473214D02*
X143092319Y-123568452D01*
X143092319Y-123568452D02*
X143092319Y-123949404D01*
X143092319Y-123949404D02*
X142092319Y-123949404D01*
X142092319Y-123949404D02*
X142092319Y-123616071D01*
X142092319Y-123616071D02*
X142139938Y-123520833D01*
X142139938Y-123520833D02*
X142187557Y-123473214D01*
X142187557Y-123473214D02*
X142282795Y-123425595D01*
X142282795Y-123425595D02*
X142378033Y-123425595D01*
X142378033Y-123425595D02*
X142473271Y-123473214D01*
X142473271Y-123473214D02*
X142520890Y-123520833D01*
X142520890Y-123520833D02*
X142568509Y-123616071D01*
X142568509Y-123616071D02*
X142568509Y-123949404D01*
X160485119Y-131242319D02*
X160675595Y-131242319D01*
X160675595Y-131242319D02*
X160770833Y-131289938D01*
X160770833Y-131289938D02*
X160866071Y-131385176D01*
X160866071Y-131385176D02*
X160913690Y-131575652D01*
X160913690Y-131575652D02*
X160913690Y-131908985D01*
X160913690Y-131908985D02*
X160866071Y-132099461D01*
X160866071Y-132099461D02*
X160770833Y-132194700D01*
X160770833Y-132194700D02*
X160675595Y-132242319D01*
X160675595Y-132242319D02*
X160485119Y-132242319D01*
X160485119Y-132242319D02*
X160389881Y-132194700D01*
X160389881Y-132194700D02*
X160294643Y-132099461D01*
X160294643Y-132099461D02*
X160247024Y-131908985D01*
X160247024Y-131908985D02*
X160247024Y-131575652D01*
X160247024Y-131575652D02*
X160294643Y-131385176D01*
X160294643Y-131385176D02*
X160389881Y-131289938D01*
X160389881Y-131289938D02*
X160485119Y-131242319D01*
X161770833Y-131575652D02*
X161770833Y-132242319D01*
X161342262Y-131575652D02*
X161342262Y-132099461D01*
X161342262Y-132099461D02*
X161389881Y-132194700D01*
X161389881Y-132194700D02*
X161485119Y-132242319D01*
X161485119Y-132242319D02*
X161627976Y-132242319D01*
X161627976Y-132242319D02*
X161723214Y-132194700D01*
X161723214Y-132194700D02*
X161770833Y-132147080D01*
X162104167Y-131575652D02*
X162485119Y-131575652D01*
X162247024Y-131242319D02*
X162247024Y-132099461D01*
X162247024Y-132099461D02*
X162294643Y-132194700D01*
X162294643Y-132194700D02*
X162389881Y-132242319D01*
X162389881Y-132242319D02*
X162485119Y-132242319D01*
X162818453Y-131861366D02*
X163580358Y-131861366D01*
X144656548Y-132461366D02*
X145418453Y-132461366D01*
X160485119Y-116642319D02*
X160675595Y-116642319D01*
X160675595Y-116642319D02*
X160770833Y-116689938D01*
X160770833Y-116689938D02*
X160866071Y-116785176D01*
X160866071Y-116785176D02*
X160913690Y-116975652D01*
X160913690Y-116975652D02*
X160913690Y-117308985D01*
X160913690Y-117308985D02*
X160866071Y-117499461D01*
X160866071Y-117499461D02*
X160770833Y-117594700D01*
X160770833Y-117594700D02*
X160675595Y-117642319D01*
X160675595Y-117642319D02*
X160485119Y-117642319D01*
X160485119Y-117642319D02*
X160389881Y-117594700D01*
X160389881Y-117594700D02*
X160294643Y-117499461D01*
X160294643Y-117499461D02*
X160247024Y-117308985D01*
X160247024Y-117308985D02*
X160247024Y-116975652D01*
X160247024Y-116975652D02*
X160294643Y-116785176D01*
X160294643Y-116785176D02*
X160389881Y-116689938D01*
X160389881Y-116689938D02*
X160485119Y-116642319D01*
X161770833Y-116975652D02*
X161770833Y-117642319D01*
X161342262Y-116975652D02*
X161342262Y-117499461D01*
X161342262Y-117499461D02*
X161389881Y-117594700D01*
X161389881Y-117594700D02*
X161485119Y-117642319D01*
X161485119Y-117642319D02*
X161627976Y-117642319D01*
X161627976Y-117642319D02*
X161723214Y-117594700D01*
X161723214Y-117594700D02*
X161770833Y-117547080D01*
X162104167Y-116975652D02*
X162485119Y-116975652D01*
X162247024Y-116642319D02*
X162247024Y-117499461D01*
X162247024Y-117499461D02*
X162294643Y-117594700D01*
X162294643Y-117594700D02*
X162389881Y-117642319D01*
X162389881Y-117642319D02*
X162485119Y-117642319D01*
X162818453Y-117261366D02*
X163580358Y-117261366D01*
X163199405Y-117642319D02*
X163199405Y-116880414D01*
X148507141Y-124331009D02*
X148649998Y-124378628D01*
X148649998Y-124378628D02*
X148697617Y-124426247D01*
X148697617Y-124426247D02*
X148745236Y-124521485D01*
X148745236Y-124521485D02*
X148745236Y-124664342D01*
X148745236Y-124664342D02*
X148697617Y-124759580D01*
X148697617Y-124759580D02*
X148649998Y-124807200D01*
X148649998Y-124807200D02*
X148554760Y-124854819D01*
X148554760Y-124854819D02*
X148173808Y-124854819D01*
X148173808Y-124854819D02*
X148173808Y-123854819D01*
X148173808Y-123854819D02*
X148507141Y-123854819D01*
X148507141Y-123854819D02*
X148602379Y-123902438D01*
X148602379Y-123902438D02*
X148649998Y-123950057D01*
X148649998Y-123950057D02*
X148697617Y-124045295D01*
X148697617Y-124045295D02*
X148697617Y-124140533D01*
X148697617Y-124140533D02*
X148649998Y-124235771D01*
X148649998Y-124235771D02*
X148602379Y-124283390D01*
X148602379Y-124283390D02*
X148507141Y-124331009D01*
X148507141Y-124331009D02*
X148173808Y-124331009D01*
X149602379Y-124854819D02*
X149602379Y-124331009D01*
X149602379Y-124331009D02*
X149554760Y-124235771D01*
X149554760Y-124235771D02*
X149459522Y-124188152D01*
X149459522Y-124188152D02*
X149269046Y-124188152D01*
X149269046Y-124188152D02*
X149173808Y-124235771D01*
X149602379Y-124807200D02*
X149507141Y-124854819D01*
X149507141Y-124854819D02*
X149269046Y-124854819D01*
X149269046Y-124854819D02*
X149173808Y-124807200D01*
X149173808Y-124807200D02*
X149126189Y-124711961D01*
X149126189Y-124711961D02*
X149126189Y-124616723D01*
X149126189Y-124616723D02*
X149173808Y-124521485D01*
X149173808Y-124521485D02*
X149269046Y-124473866D01*
X149269046Y-124473866D02*
X149507141Y-124473866D01*
X149507141Y-124473866D02*
X149602379Y-124426247D01*
X149935713Y-124188152D02*
X150316665Y-124188152D01*
X150078570Y-123854819D02*
X150078570Y-124711961D01*
X150078570Y-124711961D02*
X150126189Y-124807200D01*
X150126189Y-124807200D02*
X150221427Y-124854819D01*
X150221427Y-124854819D02*
X150316665Y-124854819D01*
X150507142Y-124188152D02*
X150888094Y-124188152D01*
X150649999Y-123854819D02*
X150649999Y-124711961D01*
X150649999Y-124711961D02*
X150697618Y-124807200D01*
X150697618Y-124807200D02*
X150792856Y-124854819D01*
X150792856Y-124854819D02*
X150888094Y-124854819D01*
X151602380Y-124807200D02*
X151507142Y-124854819D01*
X151507142Y-124854819D02*
X151316666Y-124854819D01*
X151316666Y-124854819D02*
X151221428Y-124807200D01*
X151221428Y-124807200D02*
X151173809Y-124711961D01*
X151173809Y-124711961D02*
X151173809Y-124331009D01*
X151173809Y-124331009D02*
X151221428Y-124235771D01*
X151221428Y-124235771D02*
X151316666Y-124188152D01*
X151316666Y-124188152D02*
X151507142Y-124188152D01*
X151507142Y-124188152D02*
X151602380Y-124235771D01*
X151602380Y-124235771D02*
X151649999Y-124331009D01*
X151649999Y-124331009D02*
X151649999Y-124426247D01*
X151649999Y-124426247D02*
X151173809Y-124521485D01*
X152078571Y-124854819D02*
X152078571Y-124188152D01*
X152078571Y-124378628D02*
X152126190Y-124283390D01*
X152126190Y-124283390D02*
X152173809Y-124235771D01*
X152173809Y-124235771D02*
X152269047Y-124188152D01*
X152269047Y-124188152D02*
X152364285Y-124188152D01*
X152602381Y-124188152D02*
X152840476Y-124854819D01*
X153078571Y-124188152D02*
X152840476Y-124854819D01*
X152840476Y-124854819D02*
X152745238Y-125092914D01*
X152745238Y-125092914D02*
X152697619Y-125140533D01*
X152697619Y-125140533D02*
X152602381Y-125188152D01*
X154792857Y-124759580D02*
X154745238Y-124807200D01*
X154745238Y-124807200D02*
X154602381Y-124854819D01*
X154602381Y-124854819D02*
X154507143Y-124854819D01*
X154507143Y-124854819D02*
X154364286Y-124807200D01*
X154364286Y-124807200D02*
X154269048Y-124711961D01*
X154269048Y-124711961D02*
X154221429Y-124616723D01*
X154221429Y-124616723D02*
X154173810Y-124426247D01*
X154173810Y-124426247D02*
X154173810Y-124283390D01*
X154173810Y-124283390D02*
X154221429Y-124092914D01*
X154221429Y-124092914D02*
X154269048Y-123997676D01*
X154269048Y-123997676D02*
X154364286Y-123902438D01*
X154364286Y-123902438D02*
X154507143Y-123854819D01*
X154507143Y-123854819D02*
X154602381Y-123854819D01*
X154602381Y-123854819D02*
X154745238Y-123902438D01*
X154745238Y-123902438D02*
X154792857Y-123950057D01*
X155221429Y-124854819D02*
X155221429Y-123854819D01*
X155650000Y-124854819D02*
X155650000Y-124331009D01*
X155650000Y-124331009D02*
X155602381Y-124235771D01*
X155602381Y-124235771D02*
X155507143Y-124188152D01*
X155507143Y-124188152D02*
X155364286Y-124188152D01*
X155364286Y-124188152D02*
X155269048Y-124235771D01*
X155269048Y-124235771D02*
X155221429Y-124283390D01*
X156554762Y-124854819D02*
X156554762Y-124331009D01*
X156554762Y-124331009D02*
X156507143Y-124235771D01*
X156507143Y-124235771D02*
X156411905Y-124188152D01*
X156411905Y-124188152D02*
X156221429Y-124188152D01*
X156221429Y-124188152D02*
X156126191Y-124235771D01*
X156554762Y-124807200D02*
X156459524Y-124854819D01*
X156459524Y-124854819D02*
X156221429Y-124854819D01*
X156221429Y-124854819D02*
X156126191Y-124807200D01*
X156126191Y-124807200D02*
X156078572Y-124711961D01*
X156078572Y-124711961D02*
X156078572Y-124616723D01*
X156078572Y-124616723D02*
X156126191Y-124521485D01*
X156126191Y-124521485D02*
X156221429Y-124473866D01*
X156221429Y-124473866D02*
X156459524Y-124473866D01*
X156459524Y-124473866D02*
X156554762Y-124426247D01*
X157030953Y-124854819D02*
X157030953Y-124188152D01*
X157030953Y-124378628D02*
X157078572Y-124283390D01*
X157078572Y-124283390D02*
X157126191Y-124235771D01*
X157126191Y-124235771D02*
X157221429Y-124188152D01*
X157221429Y-124188152D02*
X157316667Y-124188152D01*
X158078572Y-124188152D02*
X158078572Y-124997676D01*
X158078572Y-124997676D02*
X158030953Y-125092914D01*
X158030953Y-125092914D02*
X157983334Y-125140533D01*
X157983334Y-125140533D02*
X157888096Y-125188152D01*
X157888096Y-125188152D02*
X157745239Y-125188152D01*
X157745239Y-125188152D02*
X157650001Y-125140533D01*
X158078572Y-124807200D02*
X157983334Y-124854819D01*
X157983334Y-124854819D02*
X157792858Y-124854819D01*
X157792858Y-124854819D02*
X157697620Y-124807200D01*
X157697620Y-124807200D02*
X157650001Y-124759580D01*
X157650001Y-124759580D02*
X157602382Y-124664342D01*
X157602382Y-124664342D02*
X157602382Y-124378628D01*
X157602382Y-124378628D02*
X157650001Y-124283390D01*
X157650001Y-124283390D02*
X157697620Y-124235771D01*
X157697620Y-124235771D02*
X157792858Y-124188152D01*
X157792858Y-124188152D02*
X157983334Y-124188152D01*
X157983334Y-124188152D02*
X158078572Y-124235771D01*
X158935715Y-124807200D02*
X158840477Y-124854819D01*
X158840477Y-124854819D02*
X158650001Y-124854819D01*
X158650001Y-124854819D02*
X158554763Y-124807200D01*
X158554763Y-124807200D02*
X158507144Y-124711961D01*
X158507144Y-124711961D02*
X158507144Y-124331009D01*
X158507144Y-124331009D02*
X158554763Y-124235771D01*
X158554763Y-124235771D02*
X158650001Y-124188152D01*
X158650001Y-124188152D02*
X158840477Y-124188152D01*
X158840477Y-124188152D02*
X158935715Y-124235771D01*
X158935715Y-124235771D02*
X158983334Y-124331009D01*
X158983334Y-124331009D02*
X158983334Y-124426247D01*
X158983334Y-124426247D02*
X158507144Y-124521485D01*
X159411906Y-124854819D02*
X159411906Y-124188152D01*
X159411906Y-124378628D02*
X159459525Y-124283390D01*
X159459525Y-124283390D02*
X159507144Y-124235771D01*
X159507144Y-124235771D02*
X159602382Y-124188152D01*
X159602382Y-124188152D02*
X159697620Y-124188152D01*
X161316668Y-124854819D02*
X160745240Y-124854819D01*
X161030954Y-124854819D02*
X161030954Y-123854819D01*
X161030954Y-123854819D02*
X160935716Y-123997676D01*
X160935716Y-123997676D02*
X160840478Y-124092914D01*
X160840478Y-124092914D02*
X160745240Y-124140533D01*
X161697621Y-124569104D02*
X162173811Y-124569104D01*
X161602383Y-124854819D02*
X161935716Y-123854819D01*
X161935716Y-123854819D02*
X162269049Y-124854819D01*
D11*
X147945000Y-138495000D02*
X147945000Y-139875000D01*
X146565000Y-138495000D02*
X147945000Y-138495000D01*
X145295000Y-138495000D02*
X142645000Y-138495000D01*
X145295000Y-138495000D02*
X145295000Y-141255000D01*
X142645000Y-138495000D02*
X142645000Y-141255000D01*
X145295000Y-141255000D02*
X142645000Y-141255000D01*
X185572500Y-132873752D02*
X185572500Y-132351248D01*
X184102500Y-132873752D02*
X184102500Y-132351248D01*
X175737500Y-123625000D02*
X175737500Y-127225000D01*
X175737500Y-127225000D02*
X179337500Y-127225000D01*
X179337500Y-123625000D02*
X175737500Y-123625000D01*
X179337500Y-127225000D02*
X179337500Y-123625000D01*
X186747936Y-115065000D02*
X187202064Y-115065000D01*
X186747936Y-116535000D02*
X187202064Y-116535000D01*
X192022500Y-132839564D02*
X192022500Y-132385436D01*
X190552500Y-132839564D02*
X190552500Y-132385436D01*
X176037500Y-127715000D02*
X175797500Y-127385000D01*
X176277500Y-127385000D01*
X176037500Y-127715000D01*
G36*
X176037500Y-127715000D02*
G01*
X175797500Y-127385000D01*
X176277500Y-127385000D01*
X176037500Y-127715000D01*
G37*
X177337500Y-127665000D02*
X176537500Y-127665000D01*
X177337500Y-127665000D02*
X178137500Y-127665000D01*
X177337500Y-130785000D02*
X176537500Y-130785000D01*
X177337500Y-130785000D02*
X178137500Y-130785000D01*
X187722500Y-132351248D02*
X187722500Y-132873752D01*
X186252500Y-132351248D02*
X186252500Y-132873752D01*
X198722500Y-132873752D02*
X198722500Y-132351248D01*
X197252500Y-132873752D02*
X197252500Y-132351248D01*
X175737500Y-116175000D02*
X175737500Y-119775000D01*
X175737500Y-119775000D02*
X179337500Y-119775000D01*
X179337500Y-116175000D02*
X175737500Y-116175000D01*
X179337500Y-119775000D02*
X179337500Y-116175000D01*
X196572500Y-132385436D02*
X196572500Y-132839564D01*
X195102500Y-132385436D02*
X195102500Y-132839564D01*
D12*
X185415000Y-131350000D02*
G75*
G02*
X185015000Y-131350000I-200000J0D01*
G01*
X185015000Y-131350000D02*
G75*
G02*
X185415000Y-131350000I200000J0D01*
G01*
D11*
X160985000Y-107913748D02*
X160985000Y-108436252D01*
X159515000Y-107913748D02*
X159515000Y-108436252D01*
X191972936Y-115065000D02*
X192427064Y-115065000D01*
X191972936Y-116535000D02*
X192427064Y-116535000D01*
X161752500Y-105277500D02*
X161272500Y-105277500D01*
X161512500Y-104947500D01*
X161752500Y-105277500D01*
G36*
X161752500Y-105277500D02*
G01*
X161272500Y-105277500D01*
X161512500Y-104947500D01*
X161752500Y-105277500D01*
G37*
X160350000Y-104997500D02*
X161000000Y-104997500D01*
X160350000Y-104997500D02*
X159700000Y-104997500D01*
X160350000Y-101877500D02*
X161000000Y-101877500D01*
X160350000Y-101877500D02*
X159700000Y-101877500D01*
X176187500Y-120102500D02*
X175947500Y-119772500D01*
X176427500Y-119772500D01*
X176187500Y-120102500D01*
G36*
X176187500Y-120102500D02*
G01*
X175947500Y-119772500D01*
X176427500Y-119772500D01*
X176187500Y-120102500D01*
G37*
X177487500Y-120052500D02*
X176687500Y-120052500D01*
X177487500Y-120052500D02*
X178287500Y-120052500D01*
X177487500Y-123172500D02*
X176687500Y-123172500D01*
X177487500Y-123172500D02*
X178287500Y-123172500D01*
X194372500Y-132839564D02*
X194372500Y-132385436D01*
X192902500Y-132839564D02*
X192902500Y-132385436D01*
X189872500Y-132351248D02*
X189872500Y-132873752D01*
X188402500Y-132351248D02*
X188402500Y-132873752D01*
X140682720Y-111550000D02*
X140682720Y-137409999D01*
X140682720Y-137409999D02*
X204580000Y-137410000D01*
X204580000Y-111550001D02*
X140682720Y-111550000D01*
X204580000Y-137410000D02*
X204580000Y-111550001D01*
X204600320Y-115510120D02*
X210493120Y-115510120D01*
X210493120Y-115510120D02*
X210493120Y-133493320D01*
X210493120Y-133493320D02*
X204600320Y-133493320D01*
X180730000Y-45605000D02*
X180730000Y-46605000D01*
X180730000Y-45605000D02*
X181730000Y-45605000D01*
X180730000Y-58645000D02*
X180730000Y-57645000D01*
X180730000Y-58645000D02*
X181730000Y-58645000D01*
X184650000Y-53525000D02*
X182850000Y-53525000D01*
X184650000Y-54625000D02*
X182850000Y-54625000D01*
X186770000Y-45605000D02*
X185770000Y-45605000D01*
X186770000Y-45605000D02*
X186770000Y-46605000D01*
X186770000Y-58645000D02*
X185770000Y-58645000D01*
X186770000Y-58645000D02*
X186770000Y-57645000D01*
X182850000Y-54625000D02*
G75*
G02*
X182850000Y-53525000I0J550000D01*
G01*
X184650000Y-53525000D02*
G75*
G02*
X184650000Y-54625000I0J-550000D01*
G01*
X171399152Y-118685000D02*
X170876648Y-118685000D01*
X171399152Y-117215000D02*
X170876648Y-117215000D01*
X151900000Y-61575000D02*
X151900000Y-76775000D01*
X151900000Y-76775000D02*
X167100000Y-76775000D01*
X167100000Y-61575000D02*
X151900000Y-61575000D01*
X167100000Y-76775000D02*
X167100000Y-61575000D01*
X180400000Y-80025000D02*
X180400000Y-95225000D01*
X180400000Y-95225000D02*
X195600000Y-95225000D01*
X195600000Y-80025000D02*
X180400000Y-80025000D01*
X195600000Y-95225000D02*
X195600000Y-80025000D01*
X141014500Y-94825000D02*
X170214500Y-94825000D01*
X141014500Y-110275000D02*
X141014500Y-94825000D01*
X164550500Y-99031000D02*
X169884500Y-99031000D01*
X164550500Y-109699000D02*
X164550500Y-99031000D01*
X169884500Y-99031000D02*
X169884500Y-99031000D01*
X169884500Y-99031000D02*
X169884500Y-109699000D01*
X169884500Y-109699000D02*
X164550500Y-109699000D01*
X169884500Y-109699000D02*
X169884500Y-109699000D01*
X170214500Y-94825000D02*
X170214500Y-110275000D01*
X170214500Y-110275000D02*
X141014500Y-110275000D01*
X170214500Y-110275000D02*
X170214500Y-110275000D01*
X170750500Y-108415000D02*
X170414500Y-108175000D01*
X170750500Y-107935000D01*
X170750500Y-108415000D01*
G36*
X170750500Y-108415000D02*
G01*
X170414500Y-108175000D01*
X170750500Y-107935000D01*
X170750500Y-108415000D01*
G37*
X170300000Y-73025000D02*
X170300000Y-74525000D01*
X171550000Y-77025000D02*
X176050000Y-77025000D01*
X176050000Y-70525000D02*
X171550000Y-70525000D01*
X177300000Y-74525000D02*
X177300000Y-73025000D01*
X188165000Y-140138748D02*
X188165000Y-140661252D01*
X189635000Y-140138748D02*
X189635000Y-140661252D01*
X180400000Y-61575000D02*
X180400000Y-76775000D01*
X180400000Y-76775000D02*
X195600000Y-76775000D01*
X195600000Y-61575000D02*
X180400000Y-61575000D01*
X195600000Y-76775000D02*
X195600000Y-61575000D01*
X181430000Y-61555000D02*
X181430000Y-62555000D01*
X181430000Y-61555000D02*
X182430000Y-61555000D01*
X181430000Y-74595000D02*
X181430000Y-73595000D01*
X181430000Y-74595000D02*
X182430000Y-74595000D01*
X183550000Y-65575000D02*
X185350000Y-65575000D01*
X183550000Y-66675000D02*
X185350000Y-66675000D01*
X187470000Y-61555000D02*
X186470000Y-61555000D01*
X187470000Y-61555000D02*
X187470000Y-62555000D01*
X187470000Y-74595000D02*
X186470000Y-74595000D01*
X187470000Y-74595000D02*
X187470000Y-73595000D01*
X183550000Y-66675000D02*
G75*
G02*
X183550000Y-65575000I0J550000D01*
G01*
X185350000Y-65575000D02*
G75*
G02*
X185350000Y-66675000I0J-550000D01*
G01*
D13*
X159350000Y-49595000D02*
X160150000Y-49595000D01*
X159350000Y-58595000D02*
X160150000Y-58595000D01*
X165450000Y-49595000D02*
X163750000Y-49595000D01*
X165450000Y-58595000D02*
X163750000Y-58595000D01*
D11*
X172410000Y-138085000D02*
X172410000Y-138947077D01*
X172410000Y-139582923D02*
X172410000Y-140217077D01*
X172410000Y-140852923D02*
X172410000Y-141715000D01*
X181235000Y-138085000D02*
X172410000Y-138085000D01*
X181235000Y-138085000D02*
X181235000Y-138598292D01*
X182045000Y-138085000D02*
X182855000Y-138085000D01*
X182790000Y-140852923D02*
X182790000Y-141715000D01*
X182790000Y-141715000D02*
X172410000Y-141715000D01*
X182855000Y-138085000D02*
X182855000Y-139265000D01*
X160030000Y-61555000D02*
X160030000Y-62555000D01*
X160030000Y-61555000D02*
X161030000Y-61555000D01*
X160030000Y-74595000D02*
X160030000Y-73595000D01*
X160030000Y-74595000D02*
X161030000Y-74595000D01*
X162150000Y-65575000D02*
X163950000Y-65575000D01*
X162150000Y-66675000D02*
X163950000Y-66675000D01*
X166070000Y-61555000D02*
X165070000Y-61555000D01*
X166070000Y-61555000D02*
X166070000Y-62555000D01*
X166070000Y-74595000D02*
X165070000Y-74595000D01*
X166070000Y-74595000D02*
X166070000Y-73595000D01*
X162150000Y-66675000D02*
G75*
G02*
X162150000Y-65575000I0J550000D01*
G01*
X163950000Y-65575000D02*
G75*
G02*
X163950000Y-66675000I0J-550000D01*
G01*
D10*
X169437500Y-133387500D02*
X141037500Y-133387500D01*
X169437500Y-131287500D02*
X169437500Y-133387500D01*
X169437500Y-130987500D02*
X169437500Y-131287500D01*
X169437500Y-118087500D02*
X167137500Y-118087500D01*
X169437500Y-115587500D02*
X169437500Y-118087500D01*
X167337500Y-130987500D02*
X169437500Y-130987500D01*
X167337500Y-115587500D02*
X169437500Y-115587500D01*
X167137500Y-130987500D02*
X167437500Y-130987500D01*
X167137500Y-118087500D02*
X167137500Y-130987500D01*
X143937500Y-126587500D02*
X141437500Y-126587500D01*
X143937500Y-122787500D02*
X143937500Y-126587500D01*
X141437500Y-126587500D02*
X141437500Y-122887500D01*
X141437500Y-122787500D02*
X143937500Y-122787500D01*
X141037500Y-133387500D02*
X141037500Y-115587500D01*
X141037500Y-115587500D02*
X167337500Y-115587500D01*
D11*
X170300000Y-81325000D02*
X170300000Y-82825000D01*
X171550000Y-85325000D02*
X176050000Y-85325000D01*
X176050000Y-78825000D02*
X171550000Y-78825000D01*
X177300000Y-82825000D02*
X177300000Y-81325000D01*
X192050000Y-138802500D02*
X191400000Y-138802500D01*
X192050000Y-138802500D02*
X192700000Y-138802500D01*
X192050000Y-141922500D02*
X191400000Y-141922500D01*
X192050000Y-141922500D02*
X192700000Y-141922500D01*
X193452500Y-142202500D02*
X192972500Y-142202500D01*
X193212500Y-141872500D01*
X193452500Y-142202500D01*
G36*
X193452500Y-142202500D02*
G01*
X192972500Y-142202500D01*
X193212500Y-141872500D01*
X193452500Y-142202500D01*
G37*
X151900000Y-80025000D02*
X151900000Y-95225000D01*
X151900000Y-95225000D02*
X167100000Y-95225000D01*
X167100000Y-80025000D02*
X151900000Y-80025000D01*
X167100000Y-95225000D02*
X167100000Y-80025000D01*
%LPC*%
D14*
X146565000Y-139875000D03*
D15*
X144025000Y-139875000D03*
D16*
X184837500Y-131662500D03*
X184837500Y-133562500D03*
D17*
X176537500Y-125425000D03*
X178537500Y-124475000D03*
X178537500Y-126375000D03*
D18*
X187887500Y-115800000D03*
X186062500Y-115800000D03*
D19*
X191287500Y-131700000D03*
X191287500Y-133525000D03*
D20*
X178475000Y-128275000D03*
X178475000Y-130175000D03*
X176200000Y-130175000D03*
X176200000Y-129225000D03*
X176200000Y-128275000D03*
D21*
X186987500Y-133562500D03*
X186987500Y-131662500D03*
D16*
X197987500Y-131662500D03*
X197987500Y-133562500D03*
D17*
X176537500Y-117975000D03*
X178537500Y-117025000D03*
X178537500Y-118925000D03*
D22*
X195837500Y-133525000D03*
X195837500Y-131700000D03*
D23*
X186105000Y-118650000D03*
X187885000Y-118650000D03*
X189665000Y-118650000D03*
X191445000Y-118650000D03*
X193225000Y-118650000D03*
X195005000Y-118650000D03*
X196785000Y-118650000D03*
X198565000Y-118650000D03*
X197675000Y-129350000D03*
X195895000Y-129350000D03*
X194115000Y-129350000D03*
X192335000Y-129350000D03*
X190555000Y-129350000D03*
X188775000Y-129350000D03*
X186995000Y-129350000D03*
D24*
X185215000Y-129350000D03*
D21*
X160250000Y-109125000D03*
X160250000Y-107225000D03*
D18*
X193112500Y-115800000D03*
X191287500Y-115800000D03*
D25*
X159412500Y-103437500D03*
X161287500Y-102487500D03*
X161287500Y-104387500D03*
D20*
X178625000Y-120662500D03*
X178625000Y-122562500D03*
X176350000Y-122562500D03*
X176350000Y-121612500D03*
X176350000Y-120662500D03*
D19*
X193637500Y-131700000D03*
X193637500Y-133525000D03*
D21*
X189137500Y-133562500D03*
X189137500Y-131662500D03*
D26*
X150750000Y-48425000D03*
D24*
X203480000Y-113050000D03*
D23*
X200940000Y-113050000D03*
X198400000Y-113050000D03*
X195860000Y-113050000D03*
X193320000Y-113050000D03*
X190780000Y-113050000D03*
X188240000Y-113050000D03*
X185700000Y-113050000D03*
X183160000Y-113050000D03*
X180620000Y-113050000D03*
X178080000Y-113050000D03*
X175540000Y-113050000D03*
X173000000Y-113050000D03*
X170460000Y-113050000D03*
X167920000Y-113050000D03*
X165380000Y-113050000D03*
X162840000Y-113050000D03*
X160300000Y-113050000D03*
X157760000Y-113050000D03*
X155222720Y-113046320D03*
X152682720Y-113046320D03*
X150142720Y-113046320D03*
X150140000Y-135910000D03*
X152680000Y-135910000D03*
X155220000Y-135910000D03*
X157760000Y-135910000D03*
X160300000Y-135910000D03*
X162840000Y-135910000D03*
X165380000Y-135910000D03*
X167920000Y-135910000D03*
X170460000Y-135910000D03*
X173000000Y-135910000D03*
X175540000Y-135910000D03*
X178080000Y-135910000D03*
X180620000Y-135910000D03*
X183160000Y-135910000D03*
X185700000Y-135910000D03*
X188240000Y-135910000D03*
X190780000Y-135910000D03*
X193320000Y-135910000D03*
X195860000Y-135910000D03*
X198400000Y-135910000D03*
X200940000Y-135910000D03*
X203480000Y-135910000D03*
D15*
X183750000Y-57205000D03*
X183750000Y-52125000D03*
X183750000Y-47045000D03*
D27*
X172087900Y-117950000D03*
X170187900Y-117950000D03*
D28*
X159500000Y-74675000D03*
D29*
X164650000Y-74175000D03*
D30*
X153600000Y-69175000D03*
D31*
X159500000Y-69175000D03*
D30*
X155700000Y-64175000D03*
D28*
X159500000Y-63675000D03*
D26*
X142825000Y-100575000D03*
D28*
X188000000Y-82125000D03*
D29*
X182850000Y-82625000D03*
D30*
X193900000Y-87625000D03*
D31*
X188000000Y-87625000D03*
D30*
X191800000Y-92625000D03*
D28*
X188000000Y-93125000D03*
D14*
X168614500Y-108175000D03*
D15*
X166074500Y-108175000D03*
X168614500Y-105635000D03*
X166074500Y-105635000D03*
X168614500Y-103095000D03*
X166074500Y-103095000D03*
X168614500Y-100555000D03*
X166074500Y-100555000D03*
D32*
X170550000Y-71525000D03*
X177050000Y-71525000D03*
X170550000Y-76025000D03*
X177050000Y-76025000D03*
D26*
X197510000Y-78375000D03*
D21*
X188900000Y-139450000D03*
X188900000Y-141350000D03*
D28*
X188000000Y-63675000D03*
D29*
X182850000Y-64175000D03*
D30*
X193900000Y-69175000D03*
D31*
X188000000Y-69175000D03*
D30*
X191800000Y-74175000D03*
D28*
X188000000Y-74675000D03*
D15*
X184450000Y-62995000D03*
X184450000Y-68075000D03*
X184450000Y-73155000D03*
D26*
X195760000Y-56775000D03*
D33*
X161750000Y-58595000D03*
X161750000Y-49595000D03*
D34*
X163750000Y-56595000D03*
X163750000Y-54095000D03*
X163750000Y-51595000D03*
D26*
X150010000Y-78425000D03*
D35*
X182045000Y-139265000D03*
D36*
X182045000Y-140535000D03*
X180775000Y-139265000D03*
X180775000Y-140535000D03*
X179505000Y-139265000D03*
X179505000Y-140535000D03*
X178235000Y-139265000D03*
X178235000Y-140535000D03*
X176965000Y-139265000D03*
X176965000Y-140535000D03*
X175695000Y-139265000D03*
X175695000Y-140535000D03*
X174425000Y-139265000D03*
X174425000Y-140535000D03*
X173155000Y-139265000D03*
X173155000Y-140535000D03*
D15*
X163050000Y-62995000D03*
X163050000Y-68075000D03*
X163050000Y-73155000D03*
D37*
X142737500Y-117287500D03*
X142737500Y-131487500D03*
X165637500Y-117287500D03*
X165637500Y-131787500D03*
X165637500Y-120787500D03*
X165637500Y-128387500D03*
D26*
X202525000Y-100575000D03*
D32*
X170550000Y-79825000D03*
X177050000Y-79825000D03*
X170550000Y-84325000D03*
X177050000Y-84325000D03*
D25*
X192987500Y-141312500D03*
X192987500Y-139412500D03*
X191112500Y-140362500D03*
D28*
X159500000Y-93125000D03*
D29*
X164650000Y-92625000D03*
D30*
X153600000Y-87625000D03*
D31*
X159500000Y-87625000D03*
D30*
X155700000Y-82625000D03*
D28*
X159500000Y-82125000D03*
D14*
X197040000Y-49175000D03*
D15*
X194500000Y-49175000D03*
X191960000Y-49175000D03*
X189420000Y-49175000D03*
D35*
X174370000Y-87645000D03*
D36*
X173100000Y-87645000D03*
X174370000Y-88915000D03*
X173100000Y-88915000D03*
X174370000Y-90185000D03*
X173100000Y-90185000D03*
X174370000Y-91455000D03*
X173100000Y-91455000D03*
X174370000Y-92725000D03*
X173100000Y-92725000D03*
X174370000Y-93995000D03*
X173100000Y-93995000D03*
X174370000Y-95265000D03*
X173100000Y-95265000D03*
X174370000Y-96535000D03*
X173100000Y-96535000D03*
%LPD*%
M02*
