%TF.GenerationSoftware,KiCad,Pcbnew,9.0.2*%
%TF.CreationDate,2025-06-05T16:57:42+02:00*%
%TF.ProjectId,MaSe,4d615365-2e6b-4696-9361-645f70636258,rev?*%
%TF.SameCoordinates,Original*%
%TF.FileFunction,Paste,Top*%
%TF.FilePolarity,Positive*%
%FSLAX46Y46*%
G04 Gerber Fmt 4.6, Leading zero omitted, Abs format (unit mm)*
G04 Created by KiCad (PCBNEW 9.0.2) date 2025-06-05 16:57:42*
%MOMM*%
%LPD*%
G01*
G04 APERTURE LIST*
G04 Aperture macros list*
%AMRoundRect*
0 Rectangle with rounded corners*
0 $1 Rounding radius*
0 $2 $3 $4 $5 $6 $7 $8 $9 X,Y pos of 4 corners*
0 Add a 4 corners polygon primitive as box body*
4,1,4,$2,$3,$4,$5,$6,$7,$8,$9,$2,$3,0*
0 Add four circle primitives for the rounded corners*
1,1,$1+$1,$2,$3*
1,1,$1+$1,$4,$5*
1,1,$1+$1,$6,$7*
1,1,$1+$1,$8,$9*
0 Add four rect primitives between the rounded corners*
20,1,$1+$1,$2,$3,$4,$5,0*
20,1,$1+$1,$4,$5,$6,$7,0*
20,1,$1+$1,$6,$7,$8,$9,0*
20,1,$1+$1,$8,$9,$2,$3,0*%
G04 Aperture macros list end*
%ADD10RoundRect,0.250000X0.475000X-0.250000X0.475000X0.250000X-0.475000X0.250000X-0.475000X-0.250000X0*%
%ADD11RoundRect,0.200000X0.250000X0.200000X-0.250000X0.200000X-0.250000X-0.200000X0.250000X-0.200000X0*%
%ADD12RoundRect,0.250000X0.250000X0.475000X-0.250000X0.475000X-0.250000X-0.475000X0.250000X-0.475000X0*%
%ADD13RoundRect,0.250000X-0.475000X0.250000X-0.475000X-0.250000X0.475000X-0.250000X0.475000X0.250000X0*%
%ADD14RoundRect,0.150000X-0.512500X-0.150000X0.512500X-0.150000X0.512500X0.150000X-0.512500X0.150000X0*%
%ADD15RoundRect,0.250000X-0.450000X0.262500X-0.450000X-0.262500X0.450000X-0.262500X0.450000X0.262500X0*%
%ADD16RoundRect,0.250000X-0.262500X-0.450000X0.262500X-0.450000X0.262500X0.450000X-0.262500X0.450000X0*%
%ADD17RoundRect,0.150000X0.587500X0.150000X-0.587500X0.150000X-0.587500X-0.150000X0.587500X-0.150000X0*%
%ADD18RoundRect,0.250000X0.450000X-0.262500X0.450000X0.262500X-0.450000X0.262500X-0.450000X-0.262500X0*%
G04 APERTURE END LIST*
D10*
X78117500Y-102862500D03*
X78117500Y-100962500D03*
D11*
X58667500Y-88225000D03*
X58667500Y-86325000D03*
X56667500Y-87275000D03*
D12*
X52217900Y-87250000D03*
X50317900Y-87250000D03*
D13*
X67117500Y-100962500D03*
X67117500Y-102862500D03*
D14*
X56330000Y-97575000D03*
X56330000Y-98525000D03*
X56330000Y-99475000D03*
X58605000Y-99475000D03*
X58605000Y-97575000D03*
D15*
X75967500Y-101000000D03*
X75967500Y-102825000D03*
D13*
X40380000Y-76525000D03*
X40380000Y-78425000D03*
D16*
X71417500Y-85100000D03*
X73242500Y-85100000D03*
D17*
X41417500Y-73687500D03*
X41417500Y-71787500D03*
X39542500Y-72737500D03*
D14*
X56480000Y-89962500D03*
X56480000Y-90912500D03*
X56480000Y-91862500D03*
X58755000Y-91862500D03*
X58755000Y-89962500D03*
D18*
X73767500Y-102825000D03*
X73767500Y-101000000D03*
D13*
X69030000Y-108750000D03*
X69030000Y-110650000D03*
X69267500Y-100962500D03*
X69267500Y-102862500D03*
D10*
X64967500Y-102862500D03*
X64967500Y-100962500D03*
D11*
X58667500Y-95675000D03*
X58667500Y-93775000D03*
X56667500Y-94725000D03*
D16*
X66192500Y-85100000D03*
X68017500Y-85100000D03*
D18*
X71417500Y-102825000D03*
X71417500Y-101000000D03*
D17*
X73117500Y-110612500D03*
X73117500Y-108712500D03*
X71242500Y-109662500D03*
M02*
