M48
; DRILL file {KiCad 9.0.2} date 2025-06-05T16:57:44+0200
; FORMAT={-:-/ absolute / metric / decimal}
; #@! TF.CreationDate,2025-06-05T16:57:44+02:00
; #@! TF.GenerationSoftware,Kicad,Pcbnew,9.0.2
; #@! TF.FileFunction,Plated,1,2,PTH
FMAT,2
METRIC
; #@! TA.AperFunction,Plated,PTH,ViaDrill
T1C0.350
; #@! TA.AperFunction,Plated,PTH,ComponentDrill
T2C0.650
; #@! TA.AperFunction,Plated,PTH,ComponentDrill
T3C0.700
; #@! TA.AperFunction,Plated,PTH,ComponentDrill
T4C0.800
; #@! TA.AperFunction,Plated,PTH,ComponentDrill
T5C1.000
; #@! TA.AperFunction,Plated,PTH,ComponentDrill
T6C1.100
; #@! TA.AperFunction,Plated,PTH,ComponentDrill
T7C1.540
; #@! TA.AperFunction,Plated,PTH,ComponentDrill
T8C1.800
%
G90
G05
T1
X23.73Y-72.285
X23.73Y-74.825
X23.73Y-77.365
X23.73Y-79.905
X23.73Y-82.445
X23.73Y-90.065
X23.73Y-92.605
X23.73Y-95.145
X23.73Y-97.685
X23.73Y-102.765
X23.73Y-105.305
X23.73Y-107.845
X26.27Y-69.745
X26.27Y-72.285
X26.27Y-74.825
X26.27Y-77.365
X26.27Y-79.905
X26.27Y-82.445
X26.27Y-87.525
X26.27Y-90.065
X26.27Y-92.605
X26.27Y-95.145
X26.27Y-97.685
X26.27Y-100.225
X26.27Y-102.765
X26.27Y-105.305
X26.27Y-107.845
X26.27Y-110.385
X28.81Y-18.945
X28.81Y-21.485
X28.81Y-24.025
X28.81Y-26.565
X28.81Y-29.105
X28.81Y-31.645
X28.81Y-34.185
X28.81Y-36.725
X28.81Y-39.265
X28.81Y-41.805
X28.81Y-44.345
X28.81Y-49.425
X28.81Y-51.965
X28.81Y-54.505
X28.81Y-57.045
X28.81Y-59.585
X28.81Y-62.125
X28.81Y-64.665
X28.81Y-69.745
X28.81Y-72.285
X28.81Y-74.825
X28.81Y-77.365
X28.81Y-79.905
X28.81Y-82.445
X28.81Y-84.985
X28.81Y-87.525
X28.81Y-90.065
X28.81Y-92.605
X28.81Y-95.145
X28.81Y-97.685
X28.81Y-100.225
X28.81Y-102.765
X28.81Y-105.305
X31.35Y-21.485
X31.35Y-24.025
X31.35Y-26.565
X31.35Y-29.105
X31.35Y-31.645
X31.35Y-34.185
X31.35Y-36.725
X31.35Y-39.265
X31.35Y-41.805
X31.35Y-44.345
X31.35Y-49.425
X31.35Y-51.965
X31.35Y-54.505
X31.35Y-57.045
X31.35Y-59.585
X31.35Y-62.125
X31.35Y-64.665
X31.35Y-69.745
X31.35Y-72.285
X31.35Y-74.825
X31.35Y-77.365
X31.35Y-79.905
X31.35Y-84.985
X31.35Y-87.525
X31.35Y-90.065
X31.35Y-92.605
X31.35Y-95.145
X31.35Y-97.685
X31.35Y-100.225
X31.35Y-102.765
X33.89Y-16.405
X33.89Y-18.945
X33.89Y-21.485
X33.89Y-24.025
X33.89Y-26.565
X33.89Y-29.105
X33.89Y-31.645
X33.89Y-41.805
X33.89Y-44.345
X33.89Y-46.885
X33.89Y-49.425
X33.89Y-54.505
X33.89Y-64.665
X33.89Y-67.205
X33.89Y-69.745
X33.89Y-72.285
X33.89Y-74.825
X33.89Y-77.365
X33.89Y-79.905
X33.89Y-84.985
X33.89Y-87.525
X33.89Y-90.065
X33.89Y-92.605
X33.89Y-95.145
X33.89Y-97.685
X33.89Y-100.225
X33.89Y-110.385
X36.43Y-16.405
X36.43Y-18.945
X36.43Y-21.485
X36.43Y-24.025
X36.43Y-26.565
X36.43Y-36.725
X36.43Y-41.805
X36.43Y-44.345
X36.43Y-54.505
X36.43Y-59.585
X36.43Y-62.125
X36.43Y-64.665
X36.43Y-67.205
X36.43Y-69.745
X36.43Y-72.285
X36.43Y-74.825
X36.43Y-77.365
X36.43Y-79.905
X36.43Y-84.985
X36.43Y-87.525
X36.43Y-90.065
X36.43Y-92.605
X36.43Y-95.145
X36.43Y-97.685
X36.43Y-107.845
X36.43Y-110.385
X38.97Y-16.405
X38.97Y-18.945
X38.97Y-21.485
X38.97Y-24.025
X38.97Y-26.565
X38.97Y-29.105
X38.97Y-41.805
X38.97Y-46.885
X38.97Y-64.665
X38.97Y-67.205
X38.97Y-69.745
X38.97Y-77.365
X38.97Y-79.905
X38.97Y-84.985
X38.97Y-87.525
X38.97Y-90.065
X38.97Y-92.605
X38.97Y-95.145
X38.97Y-102.765
X38.97Y-107.845
X38.97Y-110.385
X41.51Y-16.405
X41.51Y-21.485
X41.51Y-24.025
X41.51Y-34.185
X41.51Y-62.125
X41.51Y-64.665
X41.51Y-67.205
X41.51Y-69.745
X41.51Y-79.905
X41.51Y-84.985
X41.51Y-87.525
X41.51Y-90.065
X41.51Y-92.605
X41.51Y-100.225
X41.51Y-102.765
X41.51Y-110.385
X42.632Y-75.417
X44.05Y-16.405
X44.05Y-18.945
X44.05Y-46.885
X44.05Y-49.425
X44.05Y-51.965
X44.05Y-59.585
X44.05Y-64.665
X44.05Y-67.205
X44.05Y-69.745
X44.05Y-72.285
X44.05Y-95.145
X44.05Y-107.845
X46.59Y-44.345
X46.59Y-46.885
X46.59Y-49.425
X46.59Y-51.965
X46.59Y-54.505
X46.59Y-62.125
X46.59Y-64.665
X46.59Y-67.205
X46.59Y-95.145
X46.59Y-107.845
X47.95Y-80.3
X49.13Y-39.265
X49.13Y-57.045
X49.13Y-64.665
X49.13Y-67.205
X49.13Y-79.905
X49.13Y-84.985
X49.13Y-87.525
X49.13Y-90.065
X49.13Y-92.605
X49.13Y-97.685
X49.13Y-100.225
X49.13Y-102.765
X49.13Y-107.845
X51.352Y-84.542
X51.67Y-39.265
X51.67Y-46.885
X51.67Y-51.965
X51.67Y-67.205
X51.67Y-74.825
X51.67Y-79.905
X51.67Y-90.065
X51.67Y-92.605
X51.67Y-95.145
X51.67Y-100.225
X51.67Y-102.765
X54.21Y-39.265
X54.21Y-41.805
X54.21Y-44.345
X54.21Y-46.885
X54.21Y-49.425
X54.21Y-51.965
X54.21Y-54.505
X54.21Y-67.205
X54.21Y-74.825
X54.21Y-77.365
X54.21Y-79.905
X54.21Y-84.985
X54.21Y-92.605
X54.21Y-95.145
X54.21Y-102.765
X55.6Y-111.8
X56.75Y-39.265
X56.75Y-51.965
X56.75Y-64.665
X56.75Y-67.205
X56.75Y-74.825
X56.75Y-77.365
X56.75Y-79.905
X56.75Y-84.985
X56.75Y-102.765
X56.776Y-60.131
X58.418Y-92.769
X59.29Y-39.265
X59.29Y-41.805
X59.29Y-44.345
X59.29Y-46.885
X59.29Y-49.425
X59.29Y-51.965
X59.29Y-62.125
X59.29Y-64.665
X59.29Y-67.205
X59.29Y-74.825
X59.29Y-77.365
X59.29Y-79.905
X59.29Y-84.985
X59.29Y-102.765
X61.83Y-16.405
X61.83Y-18.945
X61.83Y-21.485
X61.83Y-59.585
X61.83Y-62.125
X61.83Y-64.665
X61.83Y-67.205
X61.83Y-74.825
X61.83Y-77.365
X61.83Y-79.905
X61.83Y-84.985
X62.884Y-102.03
X62.98Y-87.215
X63.45Y-108.6
X63.5Y-88.4
X64.37Y-18.945
X64.37Y-24.025
X64.37Y-29.105
X64.37Y-44.345
X64.37Y-46.885
X64.37Y-57.045
X64.37Y-59.585
X64.37Y-62.125
X64.37Y-64.665
X64.37Y-67.205
X64.37Y-77.365
X64.37Y-79.905
X65.082Y-51.033
X65.1Y-86.55
X65.45Y-108.1
X65.807Y-48.618
X66.365Y-72.208
X66.5Y-109.7
X66.91Y-16.405
X66.91Y-18.945
X66.91Y-24.025
X66.91Y-26.565
X66.91Y-29.105
X66.91Y-46.885
X66.91Y-64.665
X66.91Y-67.205
X66.91Y-69.745
X67.05Y-86.5
X67.1Y-106.1
X67.15Y-104.6
X69.389Y-84.542
X69.45Y-16.405
X69.45Y-21.485
X69.45Y-24.025
X69.45Y-26.565
X69.45Y-29.105
X69.45Y-49.425
X69.45Y-64.665
X69.45Y-67.205
X69.45Y-69.745
X69.45Y-72.285
X69.45Y-74.825
X69.609Y-104.988
X71.99Y-16.405
X71.99Y-49.425
X71.99Y-51.965
X71.99Y-54.505
X71.99Y-59.585
X71.99Y-69.745
X71.99Y-72.285
X71.99Y-74.825
X71.99Y-77.365
X72.18Y-104.993
X74.53Y-16.405
X74.53Y-21.485
X74.53Y-24.025
X74.53Y-29.105
X74.53Y-31.645
X74.53Y-41.805
X74.53Y-44.345
X74.53Y-46.885
X74.53Y-49.425
X74.53Y-59.585
X74.53Y-62.125
X74.53Y-64.665
X74.53Y-67.205
X74.53Y-69.745
X74.53Y-72.285
X74.53Y-74.825
X74.53Y-77.365
X74.53Y-79.905
X74.75Y-104.25
X75.05Y-111.65
X75.35Y-107.45
X77.07Y-16.405
X77.07Y-21.485
X77.07Y-24.025
X77.07Y-29.105
X77.07Y-31.645
X77.07Y-34.185
X77.07Y-36.725
X77.07Y-39.265
X77.07Y-41.805
X77.07Y-44.345
X77.07Y-51.965
X77.07Y-54.505
X77.07Y-57.045
X77.07Y-59.585
X77.07Y-62.125
X77.07Y-64.665
X77.07Y-69.745
X77.07Y-72.285
X77.07Y-74.825
X77.07Y-77.365
X77.07Y-79.905
X77.2Y-104.1
X79.61Y-69.745
X79.61Y-72.285
X79.61Y-74.825
X79.61Y-77.365
X79.61Y-79.905
X79.61Y-110.385
X79.8Y-85.65
X80.05Y-88.2
X82.15Y-72.285
X82.15Y-74.825
X82.15Y-77.365
X82.15Y-79.905
X82.15Y-84.985
X82.15Y-87.525
X82.15Y-90.065
X82.15Y-92.605
X82.15Y-95.145
X82.15Y-97.685
X82.15Y-100.225
X82.15Y-102.765
X82.15Y-107.845
T2
X53.23Y-56.945
X53.23Y-58.215
X53.23Y-59.485
X53.23Y-60.755
X53.23Y-62.025
X53.23Y-63.295
X53.23Y-64.565
X53.23Y-65.835
X53.285Y-108.565
X53.285Y-109.835
X54.5Y-56.945
X54.5Y-58.215
X54.5Y-59.485
X54.5Y-60.755
X54.5Y-62.025
X54.5Y-63.295
X54.5Y-64.565
X54.5Y-65.835
X54.555Y-108.565
X54.555Y-109.835
X55.825Y-108.565
X55.825Y-109.835
X57.095Y-108.565
X57.095Y-109.835
X58.365Y-108.565
X58.365Y-109.835
X59.635Y-108.565
X59.635Y-109.835
X60.905Y-108.565
X60.905Y-109.835
X62.175Y-108.565
X62.175Y-109.835
T3
X65.345Y-98.65
X66.235Y-87.95
X67.125Y-98.65
X68.015Y-87.95
X68.905Y-98.65
X69.795Y-87.95
X70.685Y-98.65
X71.575Y-87.95
X72.465Y-98.65
X73.355Y-87.95
X74.245Y-98.65
X75.135Y-87.95
X76.025Y-98.65
X76.915Y-87.95
X77.805Y-98.65
X78.695Y-87.95
T4
X30.27Y-105.21
X30.273Y-82.346
X32.81Y-105.21
X32.813Y-82.346
X35.35Y-105.21
X35.353Y-82.346
X37.89Y-82.35
X37.89Y-105.21
X40.43Y-82.35
X40.43Y-105.21
X42.97Y-82.35
X42.97Y-105.21
X45.51Y-82.35
X45.51Y-105.21
X48.05Y-82.35
X48.05Y-105.21
X50.59Y-82.35
X50.59Y-105.21
X53.13Y-82.35
X53.13Y-105.21
X55.67Y-82.35
X55.67Y-105.21
X58.21Y-82.35
X58.21Y-105.21
X60.75Y-82.35
X60.75Y-105.21
X63.29Y-82.35
X63.29Y-105.21
X65.83Y-82.35
X65.83Y-105.21
X68.37Y-82.35
X68.37Y-105.21
X70.91Y-82.35
X70.91Y-105.21
X73.45Y-82.35
X73.45Y-105.21
X75.99Y-82.35
X75.99Y-105.21
X78.53Y-82.35
X78.53Y-105.21
X81.07Y-82.35
X81.07Y-105.21
X83.61Y-82.35
X83.61Y-105.21
T5
X28.335Y-109.9
X30.875Y-109.9
X43.18Y-32.295
X43.18Y-37.375
X43.18Y-42.455
X46.204Y-69.855
X46.204Y-72.395
X46.204Y-74.935
X46.204Y-77.475
X48.744Y-69.855
X48.744Y-72.395
X48.744Y-74.935
X48.744Y-77.475
X63.88Y-16.345
X63.88Y-21.425
X63.88Y-26.505
X64.58Y-32.295
X64.58Y-37.375
X64.58Y-42.455
X69.55Y-18.475
X72.09Y-18.475
X74.63Y-18.475
X77.17Y-18.475
T6
X50.68Y-40.825
X50.68Y-45.325
X50.68Y-49.125
X50.68Y-53.625
X57.18Y-40.825
X57.18Y-45.325
X57.18Y-49.125
X57.18Y-53.625
T7
X22.867Y-86.587
X22.867Y-100.787
X45.767Y-86.587
X45.767Y-90.087
X45.767Y-97.688
X45.767Y-101.087
T3
G00X43.73Y-20.895
M15
G01X44.03Y-20.895
M16
G05
G00X43.73Y-23.395
M15
G01X44.03Y-23.395
M16
G05
G00X43.73Y-25.895
M15
G01X44.03Y-25.895
M16
G05
T8
G00X41.755Y-18.895
M15
G01X42.005Y-18.895
M16
G05
G00X41.755Y-27.895
M15
G01X42.005Y-27.895
M16
G05
M30
