%TF.GenerationSoftware,KiCad,Pcbnew,9.0.2*%
%TF.CreationDate,2025-05-15T14:08:43+02:00*%
%TF.ProjectId,MaSe,4d615365-2e6b-4696-9361-645f70636258,rev?*%
%TF.SameCoordinates,Original*%
%TF.FileFunction,AssemblyDrawing,Bot*%
%FSLAX46Y46*%
G04 Gerber Fmt 4.6, Leading zero omitted, Abs format (unit mm)*
G04 Created by KiCad (PCBNEW 9.0.2) date 2025-05-15 14:08:43*
%MOMM*%
%LPD*%
G01*
G04 APERTURE LIST*
%ADD10C,0.150000*%
%ADD11C,0.100000*%
G04 APERTURE END LIST*
D10*
X187447200Y-46008333D02*
X187494819Y-46151190D01*
X187494819Y-46151190D02*
X187494819Y-46389285D01*
X187494819Y-46389285D02*
X187447200Y-46484523D01*
X187447200Y-46484523D02*
X187399580Y-46532142D01*
X187399580Y-46532142D02*
X187304342Y-46579761D01*
X187304342Y-46579761D02*
X187209104Y-46579761D01*
X187209104Y-46579761D02*
X187113866Y-46532142D01*
X187113866Y-46532142D02*
X187066247Y-46484523D01*
X187066247Y-46484523D02*
X187018628Y-46389285D01*
X187018628Y-46389285D02*
X186971009Y-46198809D01*
X186971009Y-46198809D02*
X186923390Y-46103571D01*
X186923390Y-46103571D02*
X186875771Y-46055952D01*
X186875771Y-46055952D02*
X186780533Y-46008333D01*
X186780533Y-46008333D02*
X186685295Y-46008333D01*
X186685295Y-46008333D02*
X186590057Y-46055952D01*
X186590057Y-46055952D02*
X186542438Y-46103571D01*
X186542438Y-46103571D02*
X186494819Y-46198809D01*
X186494819Y-46198809D02*
X186494819Y-46436904D01*
X186494819Y-46436904D02*
X186542438Y-46579761D01*
X187447200Y-46960714D02*
X187494819Y-47103571D01*
X187494819Y-47103571D02*
X187494819Y-47341666D01*
X187494819Y-47341666D02*
X187447200Y-47436904D01*
X187447200Y-47436904D02*
X187399580Y-47484523D01*
X187399580Y-47484523D02*
X187304342Y-47532142D01*
X187304342Y-47532142D02*
X187209104Y-47532142D01*
X187209104Y-47532142D02*
X187113866Y-47484523D01*
X187113866Y-47484523D02*
X187066247Y-47436904D01*
X187066247Y-47436904D02*
X187018628Y-47341666D01*
X187018628Y-47341666D02*
X186971009Y-47151190D01*
X186971009Y-47151190D02*
X186923390Y-47055952D01*
X186923390Y-47055952D02*
X186875771Y-47008333D01*
X186875771Y-47008333D02*
X186780533Y-46960714D01*
X186780533Y-46960714D02*
X186685295Y-46960714D01*
X186685295Y-46960714D02*
X186590057Y-47008333D01*
X186590057Y-47008333D02*
X186542438Y-47055952D01*
X186542438Y-47055952D02*
X186494819Y-47151190D01*
X186494819Y-47151190D02*
X186494819Y-47389285D01*
X186494819Y-47389285D02*
X186542438Y-47532142D01*
X187494819Y-47960714D02*
X186494819Y-47960714D01*
X186494819Y-47960714D02*
X186494819Y-48198809D01*
X186494819Y-48198809D02*
X186542438Y-48341666D01*
X186542438Y-48341666D02*
X186637676Y-48436904D01*
X186637676Y-48436904D02*
X186732914Y-48484523D01*
X186732914Y-48484523D02*
X186923390Y-48532142D01*
X186923390Y-48532142D02*
X187066247Y-48532142D01*
X187066247Y-48532142D02*
X187256723Y-48484523D01*
X187256723Y-48484523D02*
X187351961Y-48436904D01*
X187351961Y-48436904D02*
X187447200Y-48341666D01*
X187447200Y-48341666D02*
X187494819Y-48198809D01*
X187494819Y-48198809D02*
X187494819Y-47960714D01*
X187494819Y-49484523D02*
X187494819Y-48913095D01*
X187494819Y-49198809D02*
X186494819Y-49198809D01*
X186494819Y-49198809D02*
X186637676Y-49103571D01*
X186637676Y-49103571D02*
X186732914Y-49008333D01*
X186732914Y-49008333D02*
X186780533Y-48913095D01*
X186494819Y-49817857D02*
X186494819Y-50436904D01*
X186494819Y-50436904D02*
X186875771Y-50103571D01*
X186875771Y-50103571D02*
X186875771Y-50246428D01*
X186875771Y-50246428D02*
X186923390Y-50341666D01*
X186923390Y-50341666D02*
X186971009Y-50389285D01*
X186971009Y-50389285D02*
X187066247Y-50436904D01*
X187066247Y-50436904D02*
X187304342Y-50436904D01*
X187304342Y-50436904D02*
X187399580Y-50389285D01*
X187399580Y-50389285D02*
X187447200Y-50341666D01*
X187447200Y-50341666D02*
X187494819Y-50246428D01*
X187494819Y-50246428D02*
X187494819Y-49960714D01*
X187494819Y-49960714D02*
X187447200Y-49865476D01*
X187447200Y-49865476D02*
X187399580Y-49817857D01*
X186494819Y-51055952D02*
X186494819Y-51151190D01*
X186494819Y-51151190D02*
X186542438Y-51246428D01*
X186542438Y-51246428D02*
X186590057Y-51294047D01*
X186590057Y-51294047D02*
X186685295Y-51341666D01*
X186685295Y-51341666D02*
X186875771Y-51389285D01*
X186875771Y-51389285D02*
X187113866Y-51389285D01*
X187113866Y-51389285D02*
X187304342Y-51341666D01*
X187304342Y-51341666D02*
X187399580Y-51294047D01*
X187399580Y-51294047D02*
X187447200Y-51246428D01*
X187447200Y-51246428D02*
X187494819Y-51151190D01*
X187494819Y-51151190D02*
X187494819Y-51055952D01*
X187494819Y-51055952D02*
X187447200Y-50960714D01*
X187447200Y-50960714D02*
X187399580Y-50913095D01*
X187399580Y-50913095D02*
X187304342Y-50865476D01*
X187304342Y-50865476D02*
X187113866Y-50817857D01*
X187113866Y-50817857D02*
X186875771Y-50817857D01*
X186875771Y-50817857D02*
X186685295Y-50865476D01*
X186685295Y-50865476D02*
X186590057Y-50913095D01*
X186590057Y-50913095D02*
X186542438Y-50960714D01*
X186542438Y-50960714D02*
X186494819Y-51055952D01*
X186494819Y-52246428D02*
X186494819Y-52055952D01*
X186494819Y-52055952D02*
X186542438Y-51960714D01*
X186542438Y-51960714D02*
X186590057Y-51913095D01*
X186590057Y-51913095D02*
X186732914Y-51817857D01*
X186732914Y-51817857D02*
X186923390Y-51770238D01*
X186923390Y-51770238D02*
X187304342Y-51770238D01*
X187304342Y-51770238D02*
X187399580Y-51817857D01*
X187399580Y-51817857D02*
X187447200Y-51865476D01*
X187447200Y-51865476D02*
X187494819Y-51960714D01*
X187494819Y-51960714D02*
X187494819Y-52151190D01*
X187494819Y-52151190D02*
X187447200Y-52246428D01*
X187447200Y-52246428D02*
X187399580Y-52294047D01*
X187399580Y-52294047D02*
X187304342Y-52341666D01*
X187304342Y-52341666D02*
X187066247Y-52341666D01*
X187066247Y-52341666D02*
X186971009Y-52294047D01*
X186971009Y-52294047D02*
X186923390Y-52246428D01*
X186923390Y-52246428D02*
X186875771Y-52151190D01*
X186875771Y-52151190D02*
X186875771Y-51960714D01*
X186875771Y-51960714D02*
X186923390Y-51865476D01*
X186923390Y-51865476D02*
X186971009Y-51817857D01*
X186971009Y-51817857D02*
X187066247Y-51770238D01*
X194396666Y-49106009D02*
X194253809Y-49153628D01*
X194253809Y-49153628D02*
X194206190Y-49201247D01*
X194206190Y-49201247D02*
X194158571Y-49296485D01*
X194158571Y-49296485D02*
X194158571Y-49439342D01*
X194158571Y-49439342D02*
X194206190Y-49534580D01*
X194206190Y-49534580D02*
X194253809Y-49582200D01*
X194253809Y-49582200D02*
X194349047Y-49629819D01*
X194349047Y-49629819D02*
X194729999Y-49629819D01*
X194729999Y-49629819D02*
X194729999Y-48629819D01*
X194729999Y-48629819D02*
X194396666Y-48629819D01*
X194396666Y-48629819D02*
X194301428Y-48677438D01*
X194301428Y-48677438D02*
X194253809Y-48725057D01*
X194253809Y-48725057D02*
X194206190Y-48820295D01*
X194206190Y-48820295D02*
X194206190Y-48915533D01*
X194206190Y-48915533D02*
X194253809Y-49010771D01*
X194253809Y-49010771D02*
X194301428Y-49058390D01*
X194301428Y-49058390D02*
X194396666Y-49106009D01*
X194396666Y-49106009D02*
X194729999Y-49106009D01*
X193729999Y-49629819D02*
X193729999Y-48963152D01*
X193729999Y-49153628D02*
X193682380Y-49058390D01*
X193682380Y-49058390D02*
X193634761Y-49010771D01*
X193634761Y-49010771D02*
X193539523Y-48963152D01*
X193539523Y-48963152D02*
X193444285Y-48963152D01*
X192682380Y-49629819D02*
X192682380Y-48629819D01*
X192682380Y-49582200D02*
X192777618Y-49629819D01*
X192777618Y-49629819D02*
X192968094Y-49629819D01*
X192968094Y-49629819D02*
X193063332Y-49582200D01*
X193063332Y-49582200D02*
X193110951Y-49534580D01*
X193110951Y-49534580D02*
X193158570Y-49439342D01*
X193158570Y-49439342D02*
X193158570Y-49153628D01*
X193158570Y-49153628D02*
X193110951Y-49058390D01*
X193110951Y-49058390D02*
X193063332Y-49010771D01*
X193063332Y-49010771D02*
X192968094Y-48963152D01*
X192968094Y-48963152D02*
X192777618Y-48963152D01*
X192777618Y-48963152D02*
X192682380Y-49010771D01*
X191682380Y-49629819D02*
X192253808Y-49629819D01*
X191968094Y-49629819D02*
X191968094Y-48629819D01*
X191968094Y-48629819D02*
X192063332Y-48772676D01*
X192063332Y-48772676D02*
X192158570Y-48867914D01*
X192158570Y-48867914D02*
X192253808Y-48915533D01*
X181377858Y-98639580D02*
X181425477Y-98687200D01*
X181425477Y-98687200D02*
X181568334Y-98734819D01*
X181568334Y-98734819D02*
X181663572Y-98734819D01*
X181663572Y-98734819D02*
X181806429Y-98687200D01*
X181806429Y-98687200D02*
X181901667Y-98591961D01*
X181901667Y-98591961D02*
X181949286Y-98496723D01*
X181949286Y-98496723D02*
X181996905Y-98306247D01*
X181996905Y-98306247D02*
X181996905Y-98163390D01*
X181996905Y-98163390D02*
X181949286Y-97972914D01*
X181949286Y-97972914D02*
X181901667Y-97877676D01*
X181901667Y-97877676D02*
X181806429Y-97782438D01*
X181806429Y-97782438D02*
X181663572Y-97734819D01*
X181663572Y-97734819D02*
X181568334Y-97734819D01*
X181568334Y-97734819D02*
X181425477Y-97782438D01*
X181425477Y-97782438D02*
X181377858Y-97830057D01*
X180806429Y-98734819D02*
X180901667Y-98687200D01*
X180901667Y-98687200D02*
X180949286Y-98639580D01*
X180949286Y-98639580D02*
X180996905Y-98544342D01*
X180996905Y-98544342D02*
X180996905Y-98258628D01*
X180996905Y-98258628D02*
X180949286Y-98163390D01*
X180949286Y-98163390D02*
X180901667Y-98115771D01*
X180901667Y-98115771D02*
X180806429Y-98068152D01*
X180806429Y-98068152D02*
X180663572Y-98068152D01*
X180663572Y-98068152D02*
X180568334Y-98115771D01*
X180568334Y-98115771D02*
X180520715Y-98163390D01*
X180520715Y-98163390D02*
X180473096Y-98258628D01*
X180473096Y-98258628D02*
X180473096Y-98544342D01*
X180473096Y-98544342D02*
X180520715Y-98639580D01*
X180520715Y-98639580D02*
X180568334Y-98687200D01*
X180568334Y-98687200D02*
X180663572Y-98734819D01*
X180663572Y-98734819D02*
X180806429Y-98734819D01*
X180044524Y-98068152D02*
X180044524Y-98734819D01*
X180044524Y-98163390D02*
X179996905Y-98115771D01*
X179996905Y-98115771D02*
X179901667Y-98068152D01*
X179901667Y-98068152D02*
X179758810Y-98068152D01*
X179758810Y-98068152D02*
X179663572Y-98115771D01*
X179663572Y-98115771D02*
X179615953Y-98211009D01*
X179615953Y-98211009D02*
X179615953Y-98734819D01*
X179139762Y-98068152D02*
X179139762Y-98734819D01*
X179139762Y-98163390D02*
X179092143Y-98115771D01*
X179092143Y-98115771D02*
X178996905Y-98068152D01*
X178996905Y-98068152D02*
X178854048Y-98068152D01*
X178854048Y-98068152D02*
X178758810Y-98115771D01*
X178758810Y-98115771D02*
X178711191Y-98211009D01*
X178711191Y-98211009D02*
X178711191Y-98734819D01*
X178473096Y-98830057D02*
X177711191Y-98830057D01*
X177282619Y-97734819D02*
X177187381Y-97734819D01*
X177187381Y-97734819D02*
X177092143Y-97782438D01*
X177092143Y-97782438D02*
X177044524Y-97830057D01*
X177044524Y-97830057D02*
X176996905Y-97925295D01*
X176996905Y-97925295D02*
X176949286Y-98115771D01*
X176949286Y-98115771D02*
X176949286Y-98353866D01*
X176949286Y-98353866D02*
X176996905Y-98544342D01*
X176996905Y-98544342D02*
X177044524Y-98639580D01*
X177044524Y-98639580D02*
X177092143Y-98687200D01*
X177092143Y-98687200D02*
X177187381Y-98734819D01*
X177187381Y-98734819D02*
X177282619Y-98734819D01*
X177282619Y-98734819D02*
X177377857Y-98687200D01*
X177377857Y-98687200D02*
X177425476Y-98639580D01*
X177425476Y-98639580D02*
X177473095Y-98544342D01*
X177473095Y-98544342D02*
X177520714Y-98353866D01*
X177520714Y-98353866D02*
X177520714Y-98115771D01*
X177520714Y-98115771D02*
X177473095Y-97925295D01*
X177473095Y-97925295D02*
X177425476Y-97830057D01*
X177425476Y-97830057D02*
X177377857Y-97782438D01*
X177377857Y-97782438D02*
X177282619Y-97734819D01*
X176568333Y-97830057D02*
X176520714Y-97782438D01*
X176520714Y-97782438D02*
X176425476Y-97734819D01*
X176425476Y-97734819D02*
X176187381Y-97734819D01*
X176187381Y-97734819D02*
X176092143Y-97782438D01*
X176092143Y-97782438D02*
X176044524Y-97830057D01*
X176044524Y-97830057D02*
X175996905Y-97925295D01*
X175996905Y-97925295D02*
X175996905Y-98020533D01*
X175996905Y-98020533D02*
X176044524Y-98163390D01*
X176044524Y-98163390D02*
X176615952Y-98734819D01*
X176615952Y-98734819D02*
X175996905Y-98734819D01*
X175663571Y-98734819D02*
X175139762Y-98068152D01*
X175663571Y-98068152D02*
X175139762Y-98734819D01*
X174568333Y-97734819D02*
X174473095Y-97734819D01*
X174473095Y-97734819D02*
X174377857Y-97782438D01*
X174377857Y-97782438D02*
X174330238Y-97830057D01*
X174330238Y-97830057D02*
X174282619Y-97925295D01*
X174282619Y-97925295D02*
X174235000Y-98115771D01*
X174235000Y-98115771D02*
X174235000Y-98353866D01*
X174235000Y-98353866D02*
X174282619Y-98544342D01*
X174282619Y-98544342D02*
X174330238Y-98639580D01*
X174330238Y-98639580D02*
X174377857Y-98687200D01*
X174377857Y-98687200D02*
X174473095Y-98734819D01*
X174473095Y-98734819D02*
X174568333Y-98734819D01*
X174568333Y-98734819D02*
X174663571Y-98687200D01*
X174663571Y-98687200D02*
X174711190Y-98639580D01*
X174711190Y-98639580D02*
X174758809Y-98544342D01*
X174758809Y-98544342D02*
X174806428Y-98353866D01*
X174806428Y-98353866D02*
X174806428Y-98115771D01*
X174806428Y-98115771D02*
X174758809Y-97925295D01*
X174758809Y-97925295D02*
X174711190Y-97830057D01*
X174711190Y-97830057D02*
X174663571Y-97782438D01*
X174663571Y-97782438D02*
X174568333Y-97734819D01*
X173663571Y-98163390D02*
X173758809Y-98115771D01*
X173758809Y-98115771D02*
X173806428Y-98068152D01*
X173806428Y-98068152D02*
X173854047Y-97972914D01*
X173854047Y-97972914D02*
X173854047Y-97925295D01*
X173854047Y-97925295D02*
X173806428Y-97830057D01*
X173806428Y-97830057D02*
X173758809Y-97782438D01*
X173758809Y-97782438D02*
X173663571Y-97734819D01*
X173663571Y-97734819D02*
X173473095Y-97734819D01*
X173473095Y-97734819D02*
X173377857Y-97782438D01*
X173377857Y-97782438D02*
X173330238Y-97830057D01*
X173330238Y-97830057D02*
X173282619Y-97925295D01*
X173282619Y-97925295D02*
X173282619Y-97972914D01*
X173282619Y-97972914D02*
X173330238Y-98068152D01*
X173330238Y-98068152D02*
X173377857Y-98115771D01*
X173377857Y-98115771D02*
X173473095Y-98163390D01*
X173473095Y-98163390D02*
X173663571Y-98163390D01*
X173663571Y-98163390D02*
X173758809Y-98211009D01*
X173758809Y-98211009D02*
X173806428Y-98258628D01*
X173806428Y-98258628D02*
X173854047Y-98353866D01*
X173854047Y-98353866D02*
X173854047Y-98544342D01*
X173854047Y-98544342D02*
X173806428Y-98639580D01*
X173806428Y-98639580D02*
X173758809Y-98687200D01*
X173758809Y-98687200D02*
X173663571Y-98734819D01*
X173663571Y-98734819D02*
X173473095Y-98734819D01*
X173473095Y-98734819D02*
X173377857Y-98687200D01*
X173377857Y-98687200D02*
X173330238Y-98639580D01*
X173330238Y-98639580D02*
X173282619Y-98544342D01*
X173282619Y-98544342D02*
X173282619Y-98353866D01*
X173282619Y-98353866D02*
X173330238Y-98258628D01*
X173330238Y-98258628D02*
X173377857Y-98211009D01*
X173377857Y-98211009D02*
X173473095Y-98163390D01*
X173092143Y-98830057D02*
X172330238Y-98830057D01*
X171901666Y-97734819D02*
X171711190Y-97734819D01*
X171711190Y-97734819D02*
X171615952Y-97782438D01*
X171615952Y-97782438D02*
X171520714Y-97877676D01*
X171520714Y-97877676D02*
X171473095Y-98068152D01*
X171473095Y-98068152D02*
X171473095Y-98401485D01*
X171473095Y-98401485D02*
X171520714Y-98591961D01*
X171520714Y-98591961D02*
X171615952Y-98687200D01*
X171615952Y-98687200D02*
X171711190Y-98734819D01*
X171711190Y-98734819D02*
X171901666Y-98734819D01*
X171901666Y-98734819D02*
X171996904Y-98687200D01*
X171996904Y-98687200D02*
X172092142Y-98591961D01*
X172092142Y-98591961D02*
X172139761Y-98401485D01*
X172139761Y-98401485D02*
X172139761Y-98068152D01*
X172139761Y-98068152D02*
X172092142Y-97877676D01*
X172092142Y-97877676D02*
X171996904Y-97782438D01*
X171996904Y-97782438D02*
X171901666Y-97734819D01*
X170615952Y-98734819D02*
X170615952Y-97734819D01*
X170615952Y-98687200D02*
X170711190Y-98734819D01*
X170711190Y-98734819D02*
X170901666Y-98734819D01*
X170901666Y-98734819D02*
X170996904Y-98687200D01*
X170996904Y-98687200D02*
X171044523Y-98639580D01*
X171044523Y-98639580D02*
X171092142Y-98544342D01*
X171092142Y-98544342D02*
X171092142Y-98258628D01*
X171092142Y-98258628D02*
X171044523Y-98163390D01*
X171044523Y-98163390D02*
X170996904Y-98115771D01*
X170996904Y-98115771D02*
X170901666Y-98068152D01*
X170901666Y-98068152D02*
X170711190Y-98068152D01*
X170711190Y-98068152D02*
X170615952Y-98115771D01*
X169711190Y-98734819D02*
X169711190Y-97734819D01*
X169711190Y-98687200D02*
X169806428Y-98734819D01*
X169806428Y-98734819D02*
X169996904Y-98734819D01*
X169996904Y-98734819D02*
X170092142Y-98687200D01*
X170092142Y-98687200D02*
X170139761Y-98639580D01*
X170139761Y-98639580D02*
X170187380Y-98544342D01*
X170187380Y-98544342D02*
X170187380Y-98258628D01*
X170187380Y-98258628D02*
X170139761Y-98163390D01*
X170139761Y-98163390D02*
X170092142Y-98115771D01*
X170092142Y-98115771D02*
X169996904Y-98068152D01*
X169996904Y-98068152D02*
X169806428Y-98068152D01*
X169806428Y-98068152D02*
X169711190Y-98115771D01*
X169473095Y-98830057D02*
X168711190Y-98830057D01*
X168473094Y-98211009D02*
X168139761Y-98211009D01*
X167996904Y-98734819D02*
X168473094Y-98734819D01*
X168473094Y-98734819D02*
X168473094Y-97734819D01*
X168473094Y-97734819D02*
X167996904Y-97734819D01*
X167663570Y-98068152D02*
X167425475Y-98734819D01*
X167425475Y-98734819D02*
X167187380Y-98068152D01*
X166425475Y-98687200D02*
X166520713Y-98734819D01*
X166520713Y-98734819D02*
X166711189Y-98734819D01*
X166711189Y-98734819D02*
X166806427Y-98687200D01*
X166806427Y-98687200D02*
X166854046Y-98591961D01*
X166854046Y-98591961D02*
X166854046Y-98211009D01*
X166854046Y-98211009D02*
X166806427Y-98115771D01*
X166806427Y-98115771D02*
X166711189Y-98068152D01*
X166711189Y-98068152D02*
X166520713Y-98068152D01*
X166520713Y-98068152D02*
X166425475Y-98115771D01*
X166425475Y-98115771D02*
X166377856Y-98211009D01*
X166377856Y-98211009D02*
X166377856Y-98306247D01*
X166377856Y-98306247D02*
X166854046Y-98401485D01*
X165949284Y-98068152D02*
X165949284Y-98734819D01*
X165949284Y-98163390D02*
X165901665Y-98115771D01*
X165901665Y-98115771D02*
X165806427Y-98068152D01*
X165806427Y-98068152D02*
X165663570Y-98068152D01*
X165663570Y-98068152D02*
X165568332Y-98115771D01*
X165568332Y-98115771D02*
X165520713Y-98211009D01*
X165520713Y-98211009D02*
X165520713Y-98734819D01*
X173189819Y-91756666D02*
X173904104Y-91756666D01*
X173904104Y-91756666D02*
X174046961Y-91709047D01*
X174046961Y-91709047D02*
X174142200Y-91613809D01*
X174142200Y-91613809D02*
X174189819Y-91470952D01*
X174189819Y-91470952D02*
X174189819Y-91375714D01*
X174189819Y-92756666D02*
X174189819Y-92185238D01*
X174189819Y-92470952D02*
X173189819Y-92470952D01*
X173189819Y-92470952D02*
X173332676Y-92375714D01*
X173332676Y-92375714D02*
X173427914Y-92280476D01*
X173427914Y-92280476D02*
X173475533Y-92185238D01*
D11*
X151225000Y-67914000D02*
X151301000Y-67532000D01*
X151225000Y-70625000D02*
X151225000Y-67914000D01*
X151301000Y-67532000D02*
X151518000Y-67207000D01*
X151518000Y-67207000D02*
X152025000Y-66700000D01*
X152025000Y-66700000D02*
X152225000Y-66700000D01*
X152050000Y-71450000D02*
X151225000Y-70625000D01*
X152225000Y-66700000D02*
X152684000Y-66609000D01*
X152684000Y-66609000D02*
X153074000Y-66349000D01*
X153074000Y-66349000D02*
X153334000Y-65959000D01*
X153334000Y-65959000D02*
X153425000Y-65500000D01*
X153425000Y-62700000D02*
X153486000Y-62394000D01*
X153425000Y-65500000D02*
X153425000Y-62700000D01*
X153486000Y-62394000D02*
X153659000Y-62134000D01*
X153659000Y-62134000D02*
X153919000Y-61961000D01*
X153919000Y-61961000D02*
X154225000Y-61900000D01*
X155875000Y-68000000D02*
X155875000Y-70625000D01*
X155875000Y-70625000D02*
X155050000Y-71450000D01*
X155984000Y-67419000D02*
X155875000Y-68000000D01*
X156297000Y-66917000D02*
X155984000Y-67419000D01*
X156771000Y-66563000D02*
X156297000Y-66917000D01*
X157275000Y-61600000D02*
X158075000Y-61600000D01*
X157275000Y-61900000D02*
X157275000Y-61600000D01*
X157342000Y-66406000D02*
X156771000Y-66563000D01*
X157627000Y-66327000D02*
X157342000Y-66406000D01*
X157864000Y-66150000D02*
X157627000Y-66327000D01*
X158020000Y-65899000D02*
X157864000Y-66150000D01*
X158075000Y-61600000D02*
X158075000Y-65608000D01*
X158075000Y-65608000D02*
X158020000Y-65899000D01*
X189425000Y-91192000D02*
X189480000Y-90901000D01*
X189425000Y-95200000D02*
X189425000Y-91192000D01*
X189480000Y-90901000D02*
X189636000Y-90650000D01*
X189636000Y-90650000D02*
X189873000Y-90473000D01*
X189873000Y-90473000D02*
X190158000Y-90394000D01*
X190158000Y-90394000D02*
X190729000Y-90237000D01*
X190225000Y-94900000D02*
X190225000Y-95200000D01*
X190225000Y-95200000D02*
X189425000Y-95200000D01*
X190729000Y-90237000D02*
X191203000Y-89883000D01*
X191203000Y-89883000D02*
X191516000Y-89381000D01*
X191516000Y-89381000D02*
X191625000Y-88800000D01*
X191625000Y-86175000D02*
X192450000Y-85350000D01*
X191625000Y-88800000D02*
X191625000Y-86175000D01*
X193581000Y-94839000D02*
X193275000Y-94900000D01*
X193841000Y-94666000D02*
X193581000Y-94839000D01*
X194014000Y-94406000D02*
X193841000Y-94666000D01*
X194075000Y-91300000D02*
X194075000Y-94100000D01*
X194075000Y-94100000D02*
X194014000Y-94406000D01*
X194166000Y-90841000D02*
X194075000Y-91300000D01*
X194426000Y-90451000D02*
X194166000Y-90841000D01*
X194816000Y-90191000D02*
X194426000Y-90451000D01*
X195275000Y-90100000D02*
X194816000Y-90191000D01*
X195450000Y-85350000D02*
X196275000Y-86175000D01*
X195475000Y-90100000D02*
X195275000Y-90100000D01*
X195982000Y-89593000D02*
X195475000Y-90100000D01*
X196199000Y-89268000D02*
X195982000Y-89593000D01*
X196275000Y-86175000D02*
X196275000Y-88886000D01*
X196275000Y-88886000D02*
X196199000Y-89268000D01*
X189425000Y-72742000D02*
X189480000Y-72451000D01*
X189425000Y-76750000D02*
X189425000Y-72742000D01*
X189480000Y-72451000D02*
X189636000Y-72200000D01*
X189636000Y-72200000D02*
X189873000Y-72023000D01*
X189873000Y-72023000D02*
X190158000Y-71944000D01*
X190158000Y-71944000D02*
X190729000Y-71787000D01*
X190225000Y-76450000D02*
X190225000Y-76750000D01*
X190225000Y-76750000D02*
X189425000Y-76750000D01*
X190729000Y-71787000D02*
X191203000Y-71433000D01*
X191203000Y-71433000D02*
X191516000Y-70931000D01*
X191516000Y-70931000D02*
X191625000Y-70350000D01*
X191625000Y-67725000D02*
X192450000Y-66900000D01*
X191625000Y-70350000D02*
X191625000Y-67725000D01*
X193581000Y-76389000D02*
X193275000Y-76450000D01*
X193841000Y-76216000D02*
X193581000Y-76389000D01*
X194014000Y-75956000D02*
X193841000Y-76216000D01*
X194075000Y-72850000D02*
X194075000Y-75650000D01*
X194075000Y-75650000D02*
X194014000Y-75956000D01*
X194166000Y-72391000D02*
X194075000Y-72850000D01*
X194426000Y-72001000D02*
X194166000Y-72391000D01*
X194816000Y-71741000D02*
X194426000Y-72001000D01*
X195275000Y-71650000D02*
X194816000Y-71741000D01*
X195450000Y-66900000D02*
X196275000Y-67725000D01*
X195475000Y-71650000D02*
X195275000Y-71650000D01*
X195982000Y-71143000D02*
X195475000Y-71650000D01*
X196199000Y-70818000D02*
X195982000Y-71143000D01*
X196275000Y-67725000D02*
X196275000Y-70436000D01*
X196275000Y-70436000D02*
X196199000Y-70818000D01*
X151225000Y-86364000D02*
X151301000Y-85982000D01*
X151225000Y-89075000D02*
X151225000Y-86364000D01*
X151301000Y-85982000D02*
X151518000Y-85657000D01*
X151518000Y-85657000D02*
X152025000Y-85150000D01*
X152025000Y-85150000D02*
X152225000Y-85150000D01*
X152050000Y-89900000D02*
X151225000Y-89075000D01*
X152225000Y-85150000D02*
X152684000Y-85059000D01*
X152684000Y-85059000D02*
X153074000Y-84799000D01*
X153074000Y-84799000D02*
X153334000Y-84409000D01*
X153334000Y-84409000D02*
X153425000Y-83950000D01*
X153425000Y-81150000D02*
X153486000Y-80844000D01*
X153425000Y-83950000D02*
X153425000Y-81150000D01*
X153486000Y-80844000D02*
X153659000Y-80584000D01*
X153659000Y-80584000D02*
X153919000Y-80411000D01*
X153919000Y-80411000D02*
X154225000Y-80350000D01*
X155875000Y-86450000D02*
X155875000Y-89075000D01*
X155875000Y-89075000D02*
X155050000Y-89900000D01*
X155984000Y-85869000D02*
X155875000Y-86450000D01*
X156297000Y-85367000D02*
X155984000Y-85869000D01*
X156771000Y-85013000D02*
X156297000Y-85367000D01*
X157275000Y-80050000D02*
X158075000Y-80050000D01*
X157275000Y-80350000D02*
X157275000Y-80050000D01*
X157342000Y-84856000D02*
X156771000Y-85013000D01*
X157627000Y-84777000D02*
X157342000Y-84856000D01*
X157864000Y-84600000D02*
X157627000Y-84777000D01*
X158020000Y-84349000D02*
X157864000Y-84600000D01*
X158075000Y-80050000D02*
X158075000Y-84058000D01*
X158075000Y-84058000D02*
X158020000Y-84349000D01*
X188150000Y-47905000D02*
X188150000Y-50445000D01*
X188150000Y-50445000D02*
X197675000Y-50445000D01*
X197675000Y-50445000D02*
X198310000Y-49810000D01*
X198310000Y-47905000D02*
X188150000Y-47905000D01*
X198310000Y-49810000D02*
X198310000Y-47905000D01*
X172030000Y-87010000D02*
X172030000Y-97170000D01*
X172030000Y-97170000D02*
X175440000Y-97170000D01*
X174587500Y-87010000D02*
X172030000Y-87010000D01*
X175440000Y-87862500D02*
X174587500Y-87010000D01*
X175440000Y-97170000D02*
X175440000Y-87862500D01*
M02*
