%TF.GenerationSoftware,KiCad,Pcbnew,9.0.2*%
%TF.CreationDate,2025-06-05T16:57:42+02:00*%
%TF.ProjectId,MaSe,4d615365-2e6b-4696-9361-645f70636258,rev?*%
%TF.SameCoordinates,Original*%
%TF.FileFunction,Profile,NP*%
%FSLAX46Y46*%
G04 Gerber Fmt 4.6, Leading zero omitted, Abs format (unit mm)*
G04 Created by KiCad (PCBNEW 9.0.2) date 2025-06-05 16:57:42*
%MOMM*%
%LPD*%
G01*
G04 APERTURE LIST*
%TA.AperFunction,Profile*%
%ADD10C,0.050000*%
%TD*%
G04 APERTURE END LIST*
D10*
X27880000Y-64225000D02*
X27880000Y-17725000D01*
X61930000Y-89050000D02*
X80130000Y-89050000D01*
X80130000Y-97550000D01*
X61930000Y-97550000D01*
X61930000Y-89050000D01*
X60380000Y-14725000D02*
X76880000Y-14725000D01*
X76880000Y-67225000D02*
X76880000Y-67850000D01*
X30880000Y-14725000D02*
X47380000Y-14725000D01*
X27880000Y-17725000D02*
G75*
G02*
X30880000Y-14725000I3000000J0D01*
G01*
X58380000Y-37875000D02*
X49380000Y-37875000D01*
X84680000Y-110300000D02*
G75*
G02*
X82680000Y-112300000I-2000000J0D01*
G01*
X60380000Y-35875000D02*
G75*
G02*
X58380000Y-37875000I-2000000J0D01*
G01*
X84680000Y-69850000D02*
X84680000Y-110300000D01*
X30880000Y-67225000D02*
G75*
G02*
X27880000Y-64225000I0J3000000D01*
G01*
X82680000Y-112300000D02*
X22930000Y-112300000D01*
X22930000Y-67850000D02*
X30880000Y-67850000D01*
X22930000Y-112300000D02*
G75*
G02*
X20930000Y-110300000I0J2000000D01*
G01*
X79880000Y-64225000D02*
G75*
G02*
X76880000Y-67225000I-3000000J0D01*
G01*
X30880000Y-67225000D02*
X30880000Y-67850000D01*
X79880000Y-17725000D02*
X79880000Y-64225000D01*
X60380000Y-14725000D02*
X60380000Y-35875000D01*
X76880000Y-14725000D02*
G75*
G02*
X79880000Y-17725000I0J-3000000D01*
G01*
X49380000Y-37875000D02*
G75*
G02*
X47380000Y-35875000I0J2000000D01*
G01*
X20930000Y-69850000D02*
G75*
G02*
X22930000Y-67850000I2000000J0D01*
G01*
X82680000Y-67850000D02*
G75*
G02*
X84680000Y-69850000I0J-2000000D01*
G01*
X20930000Y-110300000D02*
X20930000Y-69850000D01*
X47380000Y-35875000D02*
X47380000Y-14725000D01*
X76880000Y-67850000D02*
X82680000Y-67850000D01*
M02*
