%TF.GenerationSoftware,KiCad,Pcbnew,9.0.2*%
%TF.CreationDate,2025-05-15T14:08:42+02:00*%
%TF.ProjectId,MaSe,4d615365-2e6b-4696-9361-645f70636258,rev?*%
%TF.SameCoordinates,Original*%
%TF.FileFunction,Paste,Top*%
%TF.FilePolarity,Positive*%
%FSLAX46Y46*%
G04 Gerber Fmt 4.6, Leading zero omitted, Abs format (unit mm)*
G04 Created by KiCad (PCBNEW 9.0.2) date 2025-05-15 14:08:42*
%MOMM*%
%LPD*%
G01*
G04 APERTURE LIST*
G04 Aperture macros list*
%AMRoundRect*
0 Rectangle with rounded corners*
0 $1 Rounding radius*
0 $2 $3 $4 $5 $6 $7 $8 $9 X,Y pos of 4 corners*
0 Add a 4 corners polygon primitive as box body*
4,1,4,$2,$3,$4,$5,$6,$7,$8,$9,$2,$3,0*
0 Add four circle primitives for the rounded corners*
1,1,$1+$1,$2,$3*
1,1,$1+$1,$4,$5*
1,1,$1+$1,$6,$7*
1,1,$1+$1,$8,$9*
0 Add four rect primitives between the rounded corners*
20,1,$1+$1,$2,$3,$4,$5,0*
20,1,$1+$1,$4,$5,$6,$7,0*
20,1,$1+$1,$6,$7,$8,$9,0*
20,1,$1+$1,$8,$9,$2,$3,0*%
G04 Aperture macros list end*
%ADD10RoundRect,0.250000X0.475000X-0.250000X0.475000X0.250000X-0.475000X0.250000X-0.475000X-0.250000X0*%
%ADD11RoundRect,0.200000X0.250000X0.200000X-0.250000X0.200000X-0.250000X-0.200000X0.250000X-0.200000X0*%
%ADD12RoundRect,0.250000X-0.262500X-0.450000X0.262500X-0.450000X0.262500X0.450000X-0.262500X0.450000X0*%
%ADD13RoundRect,0.250000X0.450000X-0.262500X0.450000X0.262500X-0.450000X0.262500X-0.450000X-0.262500X0*%
%ADD14RoundRect,0.150000X-0.512500X-0.150000X0.512500X-0.150000X0.512500X0.150000X-0.512500X0.150000X0*%
%ADD15RoundRect,0.250000X-0.475000X0.250000X-0.475000X-0.250000X0.475000X-0.250000X0.475000X0.250000X0*%
%ADD16RoundRect,0.250000X-0.450000X0.262500X-0.450000X-0.262500X0.450000X-0.262500X0.450000X0.262500X0*%
%ADD17RoundRect,0.150000X0.587500X0.150000X-0.587500X0.150000X-0.587500X-0.150000X0.587500X-0.150000X0*%
%ADD18RoundRect,0.250000X0.250000X0.475000X-0.250000X0.475000X-0.250000X-0.475000X0.250000X-0.475000X0*%
G04 APERTURE END LIST*
D10*
X184837500Y-131662500D03*
X184837500Y-133562500D03*
D11*
X176537500Y-125425000D03*
X178537500Y-124475000D03*
X178537500Y-126375000D03*
D12*
X187887500Y-115800000D03*
X186062500Y-115800000D03*
D13*
X191287500Y-131700000D03*
X191287500Y-133525000D03*
D14*
X178475000Y-128275000D03*
X178475000Y-130175000D03*
X176200000Y-130175000D03*
X176200000Y-129225000D03*
X176200000Y-128275000D03*
D15*
X186987500Y-133562500D03*
X186987500Y-131662500D03*
D10*
X197987500Y-131662500D03*
X197987500Y-133562500D03*
D11*
X176537500Y-117975000D03*
X178537500Y-117025000D03*
X178537500Y-118925000D03*
D16*
X195837500Y-133525000D03*
X195837500Y-131700000D03*
D15*
X160250000Y-109125000D03*
X160250000Y-107225000D03*
D12*
X193112500Y-115800000D03*
X191287500Y-115800000D03*
D17*
X159412500Y-103437500D03*
X161287500Y-102487500D03*
X161287500Y-104387500D03*
D14*
X178625000Y-120662500D03*
X178625000Y-122562500D03*
X176350000Y-122562500D03*
X176350000Y-121612500D03*
X176350000Y-120662500D03*
D13*
X193637500Y-131700000D03*
X193637500Y-133525000D03*
D15*
X189137500Y-133562500D03*
X189137500Y-131662500D03*
D18*
X172087900Y-117950000D03*
X170187900Y-117950000D03*
D15*
X188900000Y-139450000D03*
X188900000Y-141350000D03*
D17*
X192987500Y-141312500D03*
X192987500Y-139412500D03*
X191112500Y-140362500D03*
M02*
