%TF.GenerationSoftware,KiCad,Pcbnew,9.0.1*%
%TF.CreationDate,2025-04-29T20:05:43+02:00*%
%TF.ProjectId,Trackball,54726163-6b62-4616-9c6c-2e6b69636164,rev?*%
%TF.SameCoordinates,Original*%
%TF.FileFunction,Legend,Top*%
%TF.FilePolarity,Positive*%
%FSLAX46Y46*%
G04 Gerber Fmt 4.6, Leading zero omitted, Abs format (unit mm)*
G04 Created by KiCad (PCBNEW 9.0.1) date 2025-04-29 20:05:43*
%MOMM*%
%LPD*%
G01*
G04 APERTURE LIST*
G04 Aperture macros list*
%AMRoundRect*
0 Rectangle with rounded corners*
0 $1 Rounding radius*
0 $2 $3 $4 $5 $6 $7 $8 $9 X,Y pos of 4 corners*
0 Add a 4 corners polygon primitive as box body*
4,1,4,$2,$3,$4,$5,$6,$7,$8,$9,$2,$3,0*
0 Add four circle primitives for the rounded corners*
1,1,$1+$1,$2,$3*
1,1,$1+$1,$4,$5*
1,1,$1+$1,$6,$7*
1,1,$1+$1,$8,$9*
0 Add four rect primitives between the rounded corners*
20,1,$1+$1,$2,$3,$4,$5,0*
20,1,$1+$1,$4,$5,$6,$7,0*
20,1,$1+$1,$6,$7,$8,$9,0*
20,1,$1+$1,$8,$9,$2,$3,0*%
G04 Aperture macros list end*
%ADD10C,0.050000*%
%ADD11C,0.150000*%
%ADD12C,0.120000*%
%ADD13C,0.400000*%
%ADD14C,0.100000*%
%ADD15RoundRect,0.250000X0.450000X-0.262500X0.450000X0.262500X-0.450000X0.262500X-0.450000X-0.262500X0*%
%ADD16RoundRect,0.250000X0.262500X0.450000X-0.262500X0.450000X-0.262500X-0.450000X0.262500X-0.450000X0*%
%ADD17C,3.200000*%
%ADD18RoundRect,0.250000X-0.250000X-0.475000X0.250000X-0.475000X0.250000X0.475000X-0.250000X0.475000X0*%
%ADD19RoundRect,0.250000X-0.475000X0.250000X-0.475000X-0.250000X0.475000X-0.250000X0.475000X0.250000X0*%
%ADD20R,2.000000X1.200000*%
%ADD21O,2.000000X1.200000*%
%ADD22RoundRect,0.250000X0.250000X0.475000X-0.250000X0.475000X-0.250000X-0.475000X0.250000X-0.475000X0*%
%ADD23R,0.950000X0.950000*%
%ADD24C,0.950000*%
%ADD25R,1.350000X1.350000*%
%ADD26O,1.350000X1.350000*%
%ADD27C,1.700000*%
%ADD28RoundRect,0.150000X0.150000X-0.825000X0.150000X0.825000X-0.150000X0.825000X-0.150000X-0.825000X0*%
%ADD29R,3.000000X2.290000*%
%ADD30R,1.800000X1.800000*%
%ADD31C,1.800000*%
%ADD32R,1.700000X1.700000*%
%ADD33O,1.700000X1.700000*%
%ADD34C,1.900000*%
%ADD35C,1.600000*%
%ADD36C,3.050000*%
%ADD37C,5.050000*%
%ADD38RoundRect,0.150000X0.150000X-0.512500X0.150000X0.512500X-0.150000X0.512500X-0.150000X-0.512500X0*%
%ADD39R,1.500000X0.900000*%
%ADD40R,0.900000X1.500000*%
%ADD41R,0.900000X0.900000*%
%ADD42RoundRect,0.250000X-0.625000X0.400000X-0.625000X-0.400000X0.625000X-0.400000X0.625000X0.400000X0*%
%ADD43RoundRect,0.162500X-0.617500X-0.162500X0.617500X-0.162500X0.617500X0.162500X-0.617500X0.162500X0*%
%ADD44RoundRect,0.150000X-0.512500X-0.150000X0.512500X-0.150000X0.512500X0.150000X-0.512500X0.150000X0*%
%ADD45RoundRect,0.250000X-0.262500X-0.450000X0.262500X-0.450000X0.262500X0.450000X-0.262500X0.450000X0*%
%ADD46RoundRect,0.162500X0.617500X0.162500X-0.617500X0.162500X-0.617500X-0.162500X0.617500X-0.162500X0*%
%ADD47RoundRect,0.243750X-0.243750X-0.456250X0.243750X-0.456250X0.243750X0.456250X-0.243750X0.456250X0*%
%ADD48RoundRect,0.625000X0.875000X-0.625000X0.875000X0.625000X-0.875000X0.625000X-0.875000X-0.625000X0*%
%ADD49O,1.700000X1.400000*%
%ADD50RoundRect,0.250000X0.350000X0.450000X-0.350000X0.450000X-0.350000X-0.450000X0.350000X-0.450000X0*%
%ADD51RoundRect,0.250000X-0.337500X-0.475000X0.337500X-0.475000X0.337500X0.475000X-0.337500X0.475000X0*%
G04 APERTURE END LIST*
D10*
X0Y0D02*
X0Y-81950000D01*
D11*
X-16445181Y-45566666D02*
X-16921372Y-45899999D01*
X-16445181Y-46138094D02*
X-17445181Y-46138094D01*
X-17445181Y-46138094D02*
X-17445181Y-45757142D01*
X-17445181Y-45757142D02*
X-17397562Y-45661904D01*
X-17397562Y-45661904D02*
X-17349943Y-45614285D01*
X-17349943Y-45614285D02*
X-17254705Y-45566666D01*
X-17254705Y-45566666D02*
X-17111848Y-45566666D01*
X-17111848Y-45566666D02*
X-17016610Y-45614285D01*
X-17016610Y-45614285D02*
X-16968991Y-45661904D01*
X-16968991Y-45661904D02*
X-16921372Y-45757142D01*
X-16921372Y-45757142D02*
X-16921372Y-46138094D01*
X-17445181Y-44709523D02*
X-17445181Y-44899999D01*
X-17445181Y-44899999D02*
X-17397562Y-44995237D01*
X-17397562Y-44995237D02*
X-17349943Y-45042856D01*
X-17349943Y-45042856D02*
X-17207086Y-45138094D01*
X-17207086Y-45138094D02*
X-17016610Y-45185713D01*
X-17016610Y-45185713D02*
X-16635658Y-45185713D01*
X-16635658Y-45185713D02*
X-16540420Y-45138094D01*
X-16540420Y-45138094D02*
X-16492800Y-45090475D01*
X-16492800Y-45090475D02*
X-16445181Y-44995237D01*
X-16445181Y-44995237D02*
X-16445181Y-44804761D01*
X-16445181Y-44804761D02*
X-16492800Y-44709523D01*
X-16492800Y-44709523D02*
X-16540420Y-44661904D01*
X-16540420Y-44661904D02*
X-16635658Y-44614285D01*
X-16635658Y-44614285D02*
X-16873753Y-44614285D01*
X-16873753Y-44614285D02*
X-16968991Y-44661904D01*
X-16968991Y-44661904D02*
X-17016610Y-44709523D01*
X-17016610Y-44709523D02*
X-17064229Y-44804761D01*
X-17064229Y-44804761D02*
X-17064229Y-44995237D01*
X-17064229Y-44995237D02*
X-17016610Y-45090475D01*
X-17016610Y-45090475D02*
X-16968991Y-45138094D01*
X-16968991Y-45138094D02*
X-16873753Y-45185713D01*
X-20566667Y-62004819D02*
X-20900000Y-61528628D01*
X-21138095Y-62004819D02*
X-21138095Y-61004819D01*
X-21138095Y-61004819D02*
X-20757143Y-61004819D01*
X-20757143Y-61004819D02*
X-20661905Y-61052438D01*
X-20661905Y-61052438D02*
X-20614286Y-61100057D01*
X-20614286Y-61100057D02*
X-20566667Y-61195295D01*
X-20566667Y-61195295D02*
X-20566667Y-61338152D01*
X-20566667Y-61338152D02*
X-20614286Y-61433390D01*
X-20614286Y-61433390D02*
X-20661905Y-61481009D01*
X-20661905Y-61481009D02*
X-20757143Y-61528628D01*
X-20757143Y-61528628D02*
X-21138095Y-61528628D01*
X-19661905Y-61004819D02*
X-20138095Y-61004819D01*
X-20138095Y-61004819D02*
X-20185714Y-61481009D01*
X-20185714Y-61481009D02*
X-20138095Y-61433390D01*
X-20138095Y-61433390D02*
X-20042857Y-61385771D01*
X-20042857Y-61385771D02*
X-19804762Y-61385771D01*
X-19804762Y-61385771D02*
X-19709524Y-61433390D01*
X-19709524Y-61433390D02*
X-19661905Y-61481009D01*
X-19661905Y-61481009D02*
X-19614286Y-61576247D01*
X-19614286Y-61576247D02*
X-19614286Y-61814342D01*
X-19614286Y-61814342D02*
X-19661905Y-61909580D01*
X-19661905Y-61909580D02*
X-19709524Y-61957200D01*
X-19709524Y-61957200D02*
X-19804762Y-62004819D01*
X-19804762Y-62004819D02*
X-20042857Y-62004819D01*
X-20042857Y-62004819D02*
X-20138095Y-61957200D01*
X-20138095Y-61957200D02*
X-20185714Y-61909580D01*
X-100336905Y18320180D02*
X-100336905Y19320180D01*
X-100336905Y18843990D02*
X-99765477Y18843990D01*
X-99765477Y18320180D02*
X-99765477Y19320180D01*
X-98765477Y18320180D02*
X-99336905Y18320180D01*
X-99051191Y18320180D02*
X-99051191Y19320180D01*
X-99051191Y19320180D02*
X-99146429Y19177323D01*
X-99146429Y19177323D02*
X-99241667Y19082085D01*
X-99241667Y19082085D02*
X-99336905Y19034466D01*
X-21866667Y-38029580D02*
X-21914286Y-38077200D01*
X-21914286Y-38077200D02*
X-22057143Y-38124819D01*
X-22057143Y-38124819D02*
X-22152381Y-38124819D01*
X-22152381Y-38124819D02*
X-22295238Y-38077200D01*
X-22295238Y-38077200D02*
X-22390476Y-37981961D01*
X-22390476Y-37981961D02*
X-22438095Y-37886723D01*
X-22438095Y-37886723D02*
X-22485714Y-37696247D01*
X-22485714Y-37696247D02*
X-22485714Y-37553390D01*
X-22485714Y-37553390D02*
X-22438095Y-37362914D01*
X-22438095Y-37362914D02*
X-22390476Y-37267676D01*
X-22390476Y-37267676D02*
X-22295238Y-37172438D01*
X-22295238Y-37172438D02*
X-22152381Y-37124819D01*
X-22152381Y-37124819D02*
X-22057143Y-37124819D01*
X-22057143Y-37124819D02*
X-21914286Y-37172438D01*
X-21914286Y-37172438D02*
X-21866667Y-37220057D01*
X-21390476Y-38124819D02*
X-21200000Y-38124819D01*
X-21200000Y-38124819D02*
X-21104762Y-38077200D01*
X-21104762Y-38077200D02*
X-21057143Y-38029580D01*
X-21057143Y-38029580D02*
X-20961905Y-37886723D01*
X-20961905Y-37886723D02*
X-20914286Y-37696247D01*
X-20914286Y-37696247D02*
X-20914286Y-37315295D01*
X-20914286Y-37315295D02*
X-20961905Y-37220057D01*
X-20961905Y-37220057D02*
X-21009524Y-37172438D01*
X-21009524Y-37172438D02*
X-21104762Y-37124819D01*
X-21104762Y-37124819D02*
X-21295238Y-37124819D01*
X-21295238Y-37124819D02*
X-21390476Y-37172438D01*
X-21390476Y-37172438D02*
X-21438095Y-37220057D01*
X-21438095Y-37220057D02*
X-21485714Y-37315295D01*
X-21485714Y-37315295D02*
X-21485714Y-37553390D01*
X-21485714Y-37553390D02*
X-21438095Y-37648628D01*
X-21438095Y-37648628D02*
X-21390476Y-37696247D01*
X-21390476Y-37696247D02*
X-21295238Y-37743866D01*
X-21295238Y-37743866D02*
X-21104762Y-37743866D01*
X-21104762Y-37743866D02*
X-21009524Y-37696247D01*
X-21009524Y-37696247D02*
X-20961905Y-37648628D01*
X-20961905Y-37648628D02*
X-20914286Y-37553390D01*
X-14060420Y-61216666D02*
X-14012800Y-61264285D01*
X-14012800Y-61264285D02*
X-13965181Y-61407142D01*
X-13965181Y-61407142D02*
X-13965181Y-61502380D01*
X-13965181Y-61502380D02*
X-14012800Y-61645237D01*
X-14012800Y-61645237D02*
X-14108039Y-61740475D01*
X-14108039Y-61740475D02*
X-14203277Y-61788094D01*
X-14203277Y-61788094D02*
X-14393753Y-61835713D01*
X-14393753Y-61835713D02*
X-14536610Y-61835713D01*
X-14536610Y-61835713D02*
X-14727086Y-61788094D01*
X-14727086Y-61788094D02*
X-14822324Y-61740475D01*
X-14822324Y-61740475D02*
X-14917562Y-61645237D01*
X-14917562Y-61645237D02*
X-14965181Y-61502380D01*
X-14965181Y-61502380D02*
X-14965181Y-61407142D01*
X-14965181Y-61407142D02*
X-14917562Y-61264285D01*
X-14917562Y-61264285D02*
X-14869943Y-61216666D01*
X-14965181Y-60883332D02*
X-14965181Y-60216666D01*
X-14965181Y-60216666D02*
X-13965181Y-60645237D01*
X-761905Y-27714819D02*
X-761905Y-28524342D01*
X-761905Y-28524342D02*
X-714286Y-28619580D01*
X-714286Y-28619580D02*
X-666667Y-28667200D01*
X-666667Y-28667200D02*
X-571429Y-28714819D01*
X-571429Y-28714819D02*
X-380953Y-28714819D01*
X-380953Y-28714819D02*
X-285715Y-28667200D01*
X-285715Y-28667200D02*
X-238096Y-28619580D01*
X-238096Y-28619580D02*
X-190477Y-28524342D01*
X-190477Y-28524342D02*
X-190477Y-27714819D01*
X238095Y-27810057D02*
X285714Y-27762438D01*
X285714Y-27762438D02*
X380952Y-27714819D01*
X380952Y-27714819D02*
X619047Y-27714819D01*
X619047Y-27714819D02*
X714285Y-27762438D01*
X714285Y-27762438D02*
X761904Y-27810057D01*
X761904Y-27810057D02*
X809523Y-27905295D01*
X809523Y-27905295D02*
X809523Y-28000533D01*
X809523Y-28000533D02*
X761904Y-28143390D01*
X761904Y-28143390D02*
X190476Y-28714819D01*
X190476Y-28714819D02*
X809523Y-28714819D01*
X-14416667Y-65859580D02*
X-14464286Y-65907200D01*
X-14464286Y-65907200D02*
X-14607143Y-65954819D01*
X-14607143Y-65954819D02*
X-14702381Y-65954819D01*
X-14702381Y-65954819D02*
X-14845238Y-65907200D01*
X-14845238Y-65907200D02*
X-14940476Y-65811961D01*
X-14940476Y-65811961D02*
X-14988095Y-65716723D01*
X-14988095Y-65716723D02*
X-15035714Y-65526247D01*
X-15035714Y-65526247D02*
X-15035714Y-65383390D01*
X-15035714Y-65383390D02*
X-14988095Y-65192914D01*
X-14988095Y-65192914D02*
X-14940476Y-65097676D01*
X-14940476Y-65097676D02*
X-14845238Y-65002438D01*
X-14845238Y-65002438D02*
X-14702381Y-64954819D01*
X-14702381Y-64954819D02*
X-14607143Y-64954819D01*
X-14607143Y-64954819D02*
X-14464286Y-65002438D01*
X-14464286Y-65002438D02*
X-14416667Y-65050057D01*
X-13559524Y-65288152D02*
X-13559524Y-65954819D01*
X-13797619Y-64907200D02*
X-14035714Y-65621485D01*
X-14035714Y-65621485D02*
X-13416667Y-65621485D01*
X-4283334Y-60104819D02*
X-4283334Y-60819104D01*
X-4283334Y-60819104D02*
X-4330953Y-60961961D01*
X-4330953Y-60961961D02*
X-4426191Y-61057200D01*
X-4426191Y-61057200D02*
X-4569048Y-61104819D01*
X-4569048Y-61104819D02*
X-4664286Y-61104819D01*
X-3902381Y-60104819D02*
X-3283334Y-60104819D01*
X-3283334Y-60104819D02*
X-3616667Y-60485771D01*
X-3616667Y-60485771D02*
X-3473810Y-60485771D01*
X-3473810Y-60485771D02*
X-3378572Y-60533390D01*
X-3378572Y-60533390D02*
X-3330953Y-60581009D01*
X-3330953Y-60581009D02*
X-3283334Y-60676247D01*
X-3283334Y-60676247D02*
X-3283334Y-60914342D01*
X-3283334Y-60914342D02*
X-3330953Y-61009580D01*
X-3330953Y-61009580D02*
X-3378572Y-61057200D01*
X-3378572Y-61057200D02*
X-3473810Y-61104819D01*
X-3473810Y-61104819D02*
X-3759524Y-61104819D01*
X-3759524Y-61104819D02*
X-3854762Y-61057200D01*
X-3854762Y-61057200D02*
X-3902381Y-61009580D01*
X64819Y-60383333D02*
X779104Y-60383333D01*
X779104Y-60383333D02*
X921961Y-60430952D01*
X921961Y-60430952D02*
X1017200Y-60526190D01*
X1017200Y-60526190D02*
X1064819Y-60669047D01*
X1064819Y-60669047D02*
X1064819Y-60764285D01*
X398152Y-59478571D02*
X1064819Y-59478571D01*
X17200Y-59716666D02*
X731485Y-59954761D01*
X731485Y-59954761D02*
X731485Y-59335714D01*
X-2279167Y-48779580D02*
X-2326786Y-48827200D01*
X-2326786Y-48827200D02*
X-2469643Y-48874819D01*
X-2469643Y-48874819D02*
X-2564881Y-48874819D01*
X-2564881Y-48874819D02*
X-2707738Y-48827200D01*
X-2707738Y-48827200D02*
X-2802976Y-48731961D01*
X-2802976Y-48731961D02*
X-2850595Y-48636723D01*
X-2850595Y-48636723D02*
X-2898214Y-48446247D01*
X-2898214Y-48446247D02*
X-2898214Y-48303390D01*
X-2898214Y-48303390D02*
X-2850595Y-48112914D01*
X-2850595Y-48112914D02*
X-2802976Y-48017676D01*
X-2802976Y-48017676D02*
X-2707738Y-47922438D01*
X-2707738Y-47922438D02*
X-2564881Y-47874819D01*
X-2564881Y-47874819D02*
X-2469643Y-47874819D01*
X-2469643Y-47874819D02*
X-2326786Y-47922438D01*
X-2326786Y-47922438D02*
X-2279167Y-47970057D01*
X-1422024Y-47874819D02*
X-1612500Y-47874819D01*
X-1612500Y-47874819D02*
X-1707738Y-47922438D01*
X-1707738Y-47922438D02*
X-1755357Y-47970057D01*
X-1755357Y-47970057D02*
X-1850595Y-48112914D01*
X-1850595Y-48112914D02*
X-1898214Y-48303390D01*
X-1898214Y-48303390D02*
X-1898214Y-48684342D01*
X-1898214Y-48684342D02*
X-1850595Y-48779580D01*
X-1850595Y-48779580D02*
X-1802976Y-48827200D01*
X-1802976Y-48827200D02*
X-1707738Y-48874819D01*
X-1707738Y-48874819D02*
X-1517262Y-48874819D01*
X-1517262Y-48874819D02*
X-1422024Y-48827200D01*
X-1422024Y-48827200D02*
X-1374405Y-48779580D01*
X-1374405Y-48779580D02*
X-1326786Y-48684342D01*
X-1326786Y-48684342D02*
X-1326786Y-48446247D01*
X-1326786Y-48446247D02*
X-1374405Y-48351009D01*
X-1374405Y-48351009D02*
X-1422024Y-48303390D01*
X-1422024Y-48303390D02*
X-1517262Y-48255771D01*
X-1517262Y-48255771D02*
X-1707738Y-48255771D01*
X-1707738Y-48255771D02*
X-1802976Y-48303390D01*
X-1802976Y-48303390D02*
X-1850595Y-48351009D01*
X-1850595Y-48351009D02*
X-1898214Y-48446247D01*
X-14445181Y-55411904D02*
X-13635658Y-55411904D01*
X-13635658Y-55411904D02*
X-13540420Y-55364285D01*
X-13540420Y-55364285D02*
X-13492800Y-55316666D01*
X-13492800Y-55316666D02*
X-13445181Y-55221428D01*
X-13445181Y-55221428D02*
X-13445181Y-55030952D01*
X-13445181Y-55030952D02*
X-13492800Y-54935714D01*
X-13492800Y-54935714D02*
X-13540420Y-54888095D01*
X-13540420Y-54888095D02*
X-13635658Y-54840476D01*
X-13635658Y-54840476D02*
X-14445181Y-54840476D01*
X-14445181Y-53888095D02*
X-14445181Y-54364285D01*
X-14445181Y-54364285D02*
X-13968991Y-54411904D01*
X-13968991Y-54411904D02*
X-14016610Y-54364285D01*
X-14016610Y-54364285D02*
X-14064229Y-54269047D01*
X-14064229Y-54269047D02*
X-14064229Y-54030952D01*
X-14064229Y-54030952D02*
X-14016610Y-53935714D01*
X-14016610Y-53935714D02*
X-13968991Y-53888095D01*
X-13968991Y-53888095D02*
X-13873753Y-53840476D01*
X-13873753Y-53840476D02*
X-13635658Y-53840476D01*
X-13635658Y-53840476D02*
X-13540420Y-53888095D01*
X-13540420Y-53888095D02*
X-13492800Y-53935714D01*
X-13492800Y-53935714D02*
X-13445181Y-54030952D01*
X-13445181Y-54030952D02*
X-13445181Y-54269047D01*
X-13445181Y-54269047D02*
X-13492800Y-54364285D01*
X-13492800Y-54364285D02*
X-13540420Y-54411904D01*
X-9116667Y-57959580D02*
X-9164286Y-58007200D01*
X-9164286Y-58007200D02*
X-9307143Y-58054819D01*
X-9307143Y-58054819D02*
X-9402381Y-58054819D01*
X-9402381Y-58054819D02*
X-9545238Y-58007200D01*
X-9545238Y-58007200D02*
X-9640476Y-57911961D01*
X-9640476Y-57911961D02*
X-9688095Y-57816723D01*
X-9688095Y-57816723D02*
X-9735714Y-57626247D01*
X-9735714Y-57626247D02*
X-9735714Y-57483390D01*
X-9735714Y-57483390D02*
X-9688095Y-57292914D01*
X-9688095Y-57292914D02*
X-9640476Y-57197676D01*
X-9640476Y-57197676D02*
X-9545238Y-57102438D01*
X-9545238Y-57102438D02*
X-9402381Y-57054819D01*
X-9402381Y-57054819D02*
X-9307143Y-57054819D01*
X-9307143Y-57054819D02*
X-9164286Y-57102438D01*
X-9164286Y-57102438D02*
X-9116667Y-57150057D01*
X-8783333Y-57054819D02*
X-8164286Y-57054819D01*
X-8164286Y-57054819D02*
X-8497619Y-57435771D01*
X-8497619Y-57435771D02*
X-8354762Y-57435771D01*
X-8354762Y-57435771D02*
X-8259524Y-57483390D01*
X-8259524Y-57483390D02*
X-8211905Y-57531009D01*
X-8211905Y-57531009D02*
X-8164286Y-57626247D01*
X-8164286Y-57626247D02*
X-8164286Y-57864342D01*
X-8164286Y-57864342D02*
X-8211905Y-57959580D01*
X-8211905Y-57959580D02*
X-8259524Y-58007200D01*
X-8259524Y-58007200D02*
X-8354762Y-58054819D01*
X-8354762Y-58054819D02*
X-8640476Y-58054819D01*
X-8640476Y-58054819D02*
X-8735714Y-58007200D01*
X-8735714Y-58007200D02*
X-8783333Y-57959580D01*
X-22733334Y-48434819D02*
X-22733334Y-49149104D01*
X-22733334Y-49149104D02*
X-22780953Y-49291961D01*
X-22780953Y-49291961D02*
X-22876191Y-49387200D01*
X-22876191Y-49387200D02*
X-23019048Y-49434819D01*
X-23019048Y-49434819D02*
X-23114286Y-49434819D01*
X-22352381Y-48434819D02*
X-21685715Y-48434819D01*
X-21685715Y-48434819D02*
X-22114286Y-49434819D01*
X-13919048Y-38109580D02*
X-13966667Y-38157200D01*
X-13966667Y-38157200D02*
X-14109524Y-38204819D01*
X-14109524Y-38204819D02*
X-14204762Y-38204819D01*
X-14204762Y-38204819D02*
X-14347619Y-38157200D01*
X-14347619Y-38157200D02*
X-14442857Y-38061961D01*
X-14442857Y-38061961D02*
X-14490476Y-37966723D01*
X-14490476Y-37966723D02*
X-14538095Y-37776247D01*
X-14538095Y-37776247D02*
X-14538095Y-37633390D01*
X-14538095Y-37633390D02*
X-14490476Y-37442914D01*
X-14490476Y-37442914D02*
X-14442857Y-37347676D01*
X-14442857Y-37347676D02*
X-14347619Y-37252438D01*
X-14347619Y-37252438D02*
X-14204762Y-37204819D01*
X-14204762Y-37204819D02*
X-14109524Y-37204819D01*
X-14109524Y-37204819D02*
X-13966667Y-37252438D01*
X-13966667Y-37252438D02*
X-13919048Y-37300057D01*
X-12966667Y-38204819D02*
X-13538095Y-38204819D01*
X-13252381Y-38204819D02*
X-13252381Y-37204819D01*
X-13252381Y-37204819D02*
X-13347619Y-37347676D01*
X-13347619Y-37347676D02*
X-13442857Y-37442914D01*
X-13442857Y-37442914D02*
X-13538095Y-37490533D01*
X-12347619Y-37204819D02*
X-12252381Y-37204819D01*
X-12252381Y-37204819D02*
X-12157143Y-37252438D01*
X-12157143Y-37252438D02*
X-12109524Y-37300057D01*
X-12109524Y-37300057D02*
X-12061905Y-37395295D01*
X-12061905Y-37395295D02*
X-12014286Y-37585771D01*
X-12014286Y-37585771D02*
X-12014286Y-37823866D01*
X-12014286Y-37823866D02*
X-12061905Y-38014342D01*
X-12061905Y-38014342D02*
X-12109524Y-38109580D01*
X-12109524Y-38109580D02*
X-12157143Y-38157200D01*
X-12157143Y-38157200D02*
X-12252381Y-38204819D01*
X-12252381Y-38204819D02*
X-12347619Y-38204819D01*
X-12347619Y-38204819D02*
X-12442857Y-38157200D01*
X-12442857Y-38157200D02*
X-12490476Y-38109580D01*
X-12490476Y-38109580D02*
X-12538095Y-38014342D01*
X-12538095Y-38014342D02*
X-12585714Y-37823866D01*
X-12585714Y-37823866D02*
X-12585714Y-37585771D01*
X-12585714Y-37585771D02*
X-12538095Y-37395295D01*
X-12538095Y-37395295D02*
X-12490476Y-37300057D01*
X-12490476Y-37300057D02*
X-12442857Y-37252438D01*
X-12442857Y-37252438D02*
X-12347619Y-37204819D01*
X-11157143Y-37538152D02*
X-11157143Y-38204819D01*
X-11395238Y-37157200D02*
X-11633333Y-37871485D01*
X-11633333Y-37871485D02*
X-11014286Y-37871485D01*
X11242319Y-43511904D02*
X12051842Y-43511904D01*
X12051842Y-43511904D02*
X12147080Y-43464285D01*
X12147080Y-43464285D02*
X12194700Y-43416666D01*
X12194700Y-43416666D02*
X12242319Y-43321428D01*
X12242319Y-43321428D02*
X12242319Y-43130952D01*
X12242319Y-43130952D02*
X12194700Y-43035714D01*
X12194700Y-43035714D02*
X12147080Y-42988095D01*
X12147080Y-42988095D02*
X12051842Y-42940476D01*
X12051842Y-42940476D02*
X11242319Y-42940476D01*
X12242319Y-41940476D02*
X12242319Y-42511904D01*
X12242319Y-42226190D02*
X11242319Y-42226190D01*
X11242319Y-42226190D02*
X11385176Y-42321428D01*
X11385176Y-42321428D02*
X11480414Y-42416666D01*
X11480414Y-42416666D02*
X11528033Y-42511904D01*
X9638095Y-74564819D02*
X9638095Y-75374342D01*
X9638095Y-75374342D02*
X9685714Y-75469580D01*
X9685714Y-75469580D02*
X9733333Y-75517200D01*
X9733333Y-75517200D02*
X9828571Y-75564819D01*
X9828571Y-75564819D02*
X10019047Y-75564819D01*
X10019047Y-75564819D02*
X10114285Y-75517200D01*
X10114285Y-75517200D02*
X10161904Y-75469580D01*
X10161904Y-75469580D02*
X10209523Y-75374342D01*
X10209523Y-75374342D02*
X10209523Y-74564819D01*
X11114285Y-74898152D02*
X11114285Y-75564819D01*
X10876190Y-74517200D02*
X10638095Y-75231485D01*
X10638095Y-75231485D02*
X11257142Y-75231485D01*
X5638094Y-70979104D02*
X6114284Y-70979104D01*
X5542856Y-71264819D02*
X5876189Y-70264819D01*
X5876189Y-70264819D02*
X6209522Y-71264819D01*
X6542856Y-70598152D02*
X6542856Y-71264819D01*
X6542856Y-70693390D02*
X6590475Y-70645771D01*
X6590475Y-70645771D02*
X6685713Y-70598152D01*
X6685713Y-70598152D02*
X6828570Y-70598152D01*
X6828570Y-70598152D02*
X6923808Y-70645771D01*
X6923808Y-70645771D02*
X6971427Y-70741009D01*
X6971427Y-70741009D02*
X6971427Y-71264819D01*
X7304761Y-70598152D02*
X7685713Y-70598152D01*
X7447618Y-70264819D02*
X7447618Y-71121961D01*
X7447618Y-71121961D02*
X7495237Y-71217200D01*
X7495237Y-71217200D02*
X7590475Y-71264819D01*
X7590475Y-71264819D02*
X7685713Y-71264819D01*
X8399999Y-71217200D02*
X8304761Y-71264819D01*
X8304761Y-71264819D02*
X8114285Y-71264819D01*
X8114285Y-71264819D02*
X8019047Y-71217200D01*
X8019047Y-71217200D02*
X7971428Y-71121961D01*
X7971428Y-71121961D02*
X7971428Y-70741009D01*
X7971428Y-70741009D02*
X8019047Y-70645771D01*
X8019047Y-70645771D02*
X8114285Y-70598152D01*
X8114285Y-70598152D02*
X8304761Y-70598152D01*
X8304761Y-70598152D02*
X8399999Y-70645771D01*
X8399999Y-70645771D02*
X8447618Y-70741009D01*
X8447618Y-70741009D02*
X8447618Y-70836247D01*
X8447618Y-70836247D02*
X7971428Y-70931485D01*
X8876190Y-70598152D02*
X8876190Y-71264819D01*
X8876190Y-70693390D02*
X8923809Y-70645771D01*
X8923809Y-70645771D02*
X9019047Y-70598152D01*
X9019047Y-70598152D02*
X9161904Y-70598152D01*
X9161904Y-70598152D02*
X9257142Y-70645771D01*
X9257142Y-70645771D02*
X9304761Y-70741009D01*
X9304761Y-70741009D02*
X9304761Y-71264819D01*
X9780952Y-70598152D02*
X9780952Y-71264819D01*
X9780952Y-70693390D02*
X9828571Y-70645771D01*
X9828571Y-70645771D02*
X9923809Y-70598152D01*
X9923809Y-70598152D02*
X10066666Y-70598152D01*
X10066666Y-70598152D02*
X10161904Y-70645771D01*
X10161904Y-70645771D02*
X10209523Y-70741009D01*
X10209523Y-70741009D02*
X10209523Y-71264819D01*
X11114285Y-71264819D02*
X11114285Y-70741009D01*
X11114285Y-70741009D02*
X11066666Y-70645771D01*
X11066666Y-70645771D02*
X10971428Y-70598152D01*
X10971428Y-70598152D02*
X10780952Y-70598152D01*
X10780952Y-70598152D02*
X10685714Y-70645771D01*
X11114285Y-71217200D02*
X11019047Y-71264819D01*
X11019047Y-71264819D02*
X10780952Y-71264819D01*
X10780952Y-71264819D02*
X10685714Y-71217200D01*
X10685714Y-71217200D02*
X10638095Y-71121961D01*
X10638095Y-71121961D02*
X10638095Y-71026723D01*
X10638095Y-71026723D02*
X10685714Y-70931485D01*
X10685714Y-70931485D02*
X10780952Y-70883866D01*
X10780952Y-70883866D02*
X11019047Y-70883866D01*
X11019047Y-70883866D02*
X11114285Y-70836247D01*
X12304762Y-70979104D02*
X12780952Y-70979104D01*
X12209524Y-71264819D02*
X12542857Y-70264819D01*
X12542857Y-70264819D02*
X12876190Y-71264819D01*
X13209524Y-71264819D02*
X13209524Y-70598152D01*
X13209524Y-70788628D02*
X13257143Y-70693390D01*
X13257143Y-70693390D02*
X13304762Y-70645771D01*
X13304762Y-70645771D02*
X13400000Y-70598152D01*
X13400000Y-70598152D02*
X13495238Y-70598152D01*
X14209524Y-71217200D02*
X14114286Y-71264819D01*
X14114286Y-71264819D02*
X13923810Y-71264819D01*
X13923810Y-71264819D02*
X13828572Y-71217200D01*
X13828572Y-71217200D02*
X13780953Y-71121961D01*
X13780953Y-71121961D02*
X13780953Y-70741009D01*
X13780953Y-70741009D02*
X13828572Y-70645771D01*
X13828572Y-70645771D02*
X13923810Y-70598152D01*
X13923810Y-70598152D02*
X14114286Y-70598152D01*
X14114286Y-70598152D02*
X14209524Y-70645771D01*
X14209524Y-70645771D02*
X14257143Y-70741009D01*
X14257143Y-70741009D02*
X14257143Y-70836247D01*
X14257143Y-70836247D02*
X13780953Y-70931485D01*
X15114286Y-71264819D02*
X15114286Y-70741009D01*
X15114286Y-70741009D02*
X15066667Y-70645771D01*
X15066667Y-70645771D02*
X14971429Y-70598152D01*
X14971429Y-70598152D02*
X14780953Y-70598152D01*
X14780953Y-70598152D02*
X14685715Y-70645771D01*
X15114286Y-71217200D02*
X15019048Y-71264819D01*
X15019048Y-71264819D02*
X14780953Y-71264819D01*
X14780953Y-71264819D02*
X14685715Y-71217200D01*
X14685715Y-71217200D02*
X14638096Y-71121961D01*
X14638096Y-71121961D02*
X14638096Y-71026723D01*
X14638096Y-71026723D02*
X14685715Y-70931485D01*
X14685715Y-70931485D02*
X14780953Y-70883866D01*
X14780953Y-70883866D02*
X15019048Y-70883866D01*
X15019048Y-70883866D02*
X15114286Y-70836247D01*
X-13769048Y-45354819D02*
X-14102381Y-44878628D01*
X-14340476Y-45354819D02*
X-14340476Y-44354819D01*
X-14340476Y-44354819D02*
X-13959524Y-44354819D01*
X-13959524Y-44354819D02*
X-13864286Y-44402438D01*
X-13864286Y-44402438D02*
X-13816667Y-44450057D01*
X-13816667Y-44450057D02*
X-13769048Y-44545295D01*
X-13769048Y-44545295D02*
X-13769048Y-44688152D01*
X-13769048Y-44688152D02*
X-13816667Y-44783390D01*
X-13816667Y-44783390D02*
X-13864286Y-44831009D01*
X-13864286Y-44831009D02*
X-13959524Y-44878628D01*
X-13959524Y-44878628D02*
X-14340476Y-44878628D01*
X-12816667Y-45354819D02*
X-13388095Y-45354819D01*
X-13102381Y-45354819D02*
X-13102381Y-44354819D01*
X-13102381Y-44354819D02*
X-13197619Y-44497676D01*
X-13197619Y-44497676D02*
X-13292857Y-44592914D01*
X-13292857Y-44592914D02*
X-13388095Y-44640533D01*
X-12197619Y-44354819D02*
X-12102381Y-44354819D01*
X-12102381Y-44354819D02*
X-12007143Y-44402438D01*
X-12007143Y-44402438D02*
X-11959524Y-44450057D01*
X-11959524Y-44450057D02*
X-11911905Y-44545295D01*
X-11911905Y-44545295D02*
X-11864286Y-44735771D01*
X-11864286Y-44735771D02*
X-11864286Y-44973866D01*
X-11864286Y-44973866D02*
X-11911905Y-45164342D01*
X-11911905Y-45164342D02*
X-11959524Y-45259580D01*
X-11959524Y-45259580D02*
X-12007143Y-45307200D01*
X-12007143Y-45307200D02*
X-12102381Y-45354819D01*
X-12102381Y-45354819D02*
X-12197619Y-45354819D01*
X-12197619Y-45354819D02*
X-12292857Y-45307200D01*
X-12292857Y-45307200D02*
X-12340476Y-45259580D01*
X-12340476Y-45259580D02*
X-12388095Y-45164342D01*
X-12388095Y-45164342D02*
X-12435714Y-44973866D01*
X-12435714Y-44973866D02*
X-12435714Y-44735771D01*
X-12435714Y-44735771D02*
X-12388095Y-44545295D01*
X-12388095Y-44545295D02*
X-12340476Y-44450057D01*
X-12340476Y-44450057D02*
X-12292857Y-44402438D01*
X-12292857Y-44402438D02*
X-12197619Y-44354819D01*
X-11292857Y-44783390D02*
X-11388095Y-44735771D01*
X-11388095Y-44735771D02*
X-11435714Y-44688152D01*
X-11435714Y-44688152D02*
X-11483333Y-44592914D01*
X-11483333Y-44592914D02*
X-11483333Y-44545295D01*
X-11483333Y-44545295D02*
X-11435714Y-44450057D01*
X-11435714Y-44450057D02*
X-11388095Y-44402438D01*
X-11388095Y-44402438D02*
X-11292857Y-44354819D01*
X-11292857Y-44354819D02*
X-11102381Y-44354819D01*
X-11102381Y-44354819D02*
X-11007143Y-44402438D01*
X-11007143Y-44402438D02*
X-10959524Y-44450057D01*
X-10959524Y-44450057D02*
X-10911905Y-44545295D01*
X-10911905Y-44545295D02*
X-10911905Y-44592914D01*
X-10911905Y-44592914D02*
X-10959524Y-44688152D01*
X-10959524Y-44688152D02*
X-11007143Y-44735771D01*
X-11007143Y-44735771D02*
X-11102381Y-44783390D01*
X-11102381Y-44783390D02*
X-11292857Y-44783390D01*
X-11292857Y-44783390D02*
X-11388095Y-44831009D01*
X-11388095Y-44831009D02*
X-11435714Y-44878628D01*
X-11435714Y-44878628D02*
X-11483333Y-44973866D01*
X-11483333Y-44973866D02*
X-11483333Y-45164342D01*
X-11483333Y-45164342D02*
X-11435714Y-45259580D01*
X-11435714Y-45259580D02*
X-11388095Y-45307200D01*
X-11388095Y-45307200D02*
X-11292857Y-45354819D01*
X-11292857Y-45354819D02*
X-11102381Y-45354819D01*
X-11102381Y-45354819D02*
X-11007143Y-45307200D01*
X-11007143Y-45307200D02*
X-10959524Y-45259580D01*
X-10959524Y-45259580D02*
X-10911905Y-45164342D01*
X-10911905Y-45164342D02*
X-10911905Y-44973866D01*
X-10911905Y-44973866D02*
X-10959524Y-44878628D01*
X-10959524Y-44878628D02*
X-11007143Y-44831009D01*
X-11007143Y-44831009D02*
X-11102381Y-44783390D01*
X10004819Y-45819047D02*
X9528628Y-46152380D01*
X10004819Y-46390475D02*
X9004819Y-46390475D01*
X9004819Y-46390475D02*
X9004819Y-46009523D01*
X9004819Y-46009523D02*
X9052438Y-45914285D01*
X9052438Y-45914285D02*
X9100057Y-45866666D01*
X9100057Y-45866666D02*
X9195295Y-45819047D01*
X9195295Y-45819047D02*
X9338152Y-45819047D01*
X9338152Y-45819047D02*
X9433390Y-45866666D01*
X9433390Y-45866666D02*
X9481009Y-45914285D01*
X9481009Y-45914285D02*
X9528628Y-46009523D01*
X9528628Y-46009523D02*
X9528628Y-46390475D01*
X10004819Y-44866666D02*
X10004819Y-45438094D01*
X10004819Y-45152380D02*
X9004819Y-45152380D01*
X9004819Y-45152380D02*
X9147676Y-45247618D01*
X9147676Y-45247618D02*
X9242914Y-45342856D01*
X9242914Y-45342856D02*
X9290533Y-45438094D01*
X9004819Y-44247618D02*
X9004819Y-44152380D01*
X9004819Y-44152380D02*
X9052438Y-44057142D01*
X9052438Y-44057142D02*
X9100057Y-44009523D01*
X9100057Y-44009523D02*
X9195295Y-43961904D01*
X9195295Y-43961904D02*
X9385771Y-43914285D01*
X9385771Y-43914285D02*
X9623866Y-43914285D01*
X9623866Y-43914285D02*
X9814342Y-43961904D01*
X9814342Y-43961904D02*
X9909580Y-44009523D01*
X9909580Y-44009523D02*
X9957200Y-44057142D01*
X9957200Y-44057142D02*
X10004819Y-44152380D01*
X10004819Y-44152380D02*
X10004819Y-44247618D01*
X10004819Y-44247618D02*
X9957200Y-44342856D01*
X9957200Y-44342856D02*
X9909580Y-44390475D01*
X9909580Y-44390475D02*
X9814342Y-44438094D01*
X9814342Y-44438094D02*
X9623866Y-44485713D01*
X9623866Y-44485713D02*
X9385771Y-44485713D01*
X9385771Y-44485713D02*
X9195295Y-44438094D01*
X9195295Y-44438094D02*
X9100057Y-44390475D01*
X9100057Y-44390475D02*
X9052438Y-44342856D01*
X9052438Y-44342856D02*
X9004819Y-44247618D01*
X9100057Y-43533332D02*
X9052438Y-43485713D01*
X9052438Y-43485713D02*
X9004819Y-43390475D01*
X9004819Y-43390475D02*
X9004819Y-43152380D01*
X9004819Y-43152380D02*
X9052438Y-43057142D01*
X9052438Y-43057142D02*
X9100057Y-43009523D01*
X9100057Y-43009523D02*
X9195295Y-42961904D01*
X9195295Y-42961904D02*
X9290533Y-42961904D01*
X9290533Y-42961904D02*
X9433390Y-43009523D01*
X9433390Y-43009523D02*
X10004819Y-43580951D01*
X10004819Y-43580951D02*
X10004819Y-42961904D01*
X-16995181Y-48316666D02*
X-17471372Y-48649999D01*
X-16995181Y-48888094D02*
X-17995181Y-48888094D01*
X-17995181Y-48888094D02*
X-17995181Y-48507142D01*
X-17995181Y-48507142D02*
X-17947562Y-48411904D01*
X-17947562Y-48411904D02*
X-17899943Y-48364285D01*
X-17899943Y-48364285D02*
X-17804705Y-48316666D01*
X-17804705Y-48316666D02*
X-17661848Y-48316666D01*
X-17661848Y-48316666D02*
X-17566610Y-48364285D01*
X-17566610Y-48364285D02*
X-17518991Y-48411904D01*
X-17518991Y-48411904D02*
X-17471372Y-48507142D01*
X-17471372Y-48507142D02*
X-17471372Y-48888094D01*
X-17995181Y-47983332D02*
X-17995181Y-47316666D01*
X-17995181Y-47316666D02*
X-16995181Y-47745237D01*
X-25495181Y-45061904D02*
X-24685658Y-45061904D01*
X-24685658Y-45061904D02*
X-24590420Y-45014285D01*
X-24590420Y-45014285D02*
X-24542800Y-44966666D01*
X-24542800Y-44966666D02*
X-24495181Y-44871428D01*
X-24495181Y-44871428D02*
X-24495181Y-44680952D01*
X-24495181Y-44680952D02*
X-24542800Y-44585714D01*
X-24542800Y-44585714D02*
X-24590420Y-44538095D01*
X-24590420Y-44538095D02*
X-24685658Y-44490476D01*
X-24685658Y-44490476D02*
X-25495181Y-44490476D01*
X-25495181Y-44109523D02*
X-25495181Y-43442857D01*
X-25495181Y-43442857D02*
X-24495181Y-43871428D01*
X-14811905Y-62354819D02*
X-14811905Y-63164342D01*
X-14811905Y-63164342D02*
X-14764286Y-63259580D01*
X-14764286Y-63259580D02*
X-14716667Y-63307200D01*
X-14716667Y-63307200D02*
X-14621429Y-63354819D01*
X-14621429Y-63354819D02*
X-14430953Y-63354819D01*
X-14430953Y-63354819D02*
X-14335715Y-63307200D01*
X-14335715Y-63307200D02*
X-14288096Y-63259580D01*
X-14288096Y-63259580D02*
X-14240477Y-63164342D01*
X-14240477Y-63164342D02*
X-14240477Y-62354819D01*
X-13859524Y-62354819D02*
X-13240477Y-62354819D01*
X-13240477Y-62354819D02*
X-13573810Y-62735771D01*
X-13573810Y-62735771D02*
X-13430953Y-62735771D01*
X-13430953Y-62735771D02*
X-13335715Y-62783390D01*
X-13335715Y-62783390D02*
X-13288096Y-62831009D01*
X-13288096Y-62831009D02*
X-13240477Y-62926247D01*
X-13240477Y-62926247D02*
X-13240477Y-63164342D01*
X-13240477Y-63164342D02*
X-13288096Y-63259580D01*
X-13288096Y-63259580D02*
X-13335715Y-63307200D01*
X-13335715Y-63307200D02*
X-13430953Y-63354819D01*
X-13430953Y-63354819D02*
X-13716667Y-63354819D01*
X-13716667Y-63354819D02*
X-13811905Y-63307200D01*
X-13811905Y-63307200D02*
X-13859524Y-63259580D01*
X-13869048Y-43404819D02*
X-14202381Y-42928628D01*
X-14440476Y-43404819D02*
X-14440476Y-42404819D01*
X-14440476Y-42404819D02*
X-14059524Y-42404819D01*
X-14059524Y-42404819D02*
X-13964286Y-42452438D01*
X-13964286Y-42452438D02*
X-13916667Y-42500057D01*
X-13916667Y-42500057D02*
X-13869048Y-42595295D01*
X-13869048Y-42595295D02*
X-13869048Y-42738152D01*
X-13869048Y-42738152D02*
X-13916667Y-42833390D01*
X-13916667Y-42833390D02*
X-13964286Y-42881009D01*
X-13964286Y-42881009D02*
X-14059524Y-42928628D01*
X-14059524Y-42928628D02*
X-14440476Y-42928628D01*
X-12916667Y-43404819D02*
X-13488095Y-43404819D01*
X-13202381Y-43404819D02*
X-13202381Y-42404819D01*
X-13202381Y-42404819D02*
X-13297619Y-42547676D01*
X-13297619Y-42547676D02*
X-13392857Y-42642914D01*
X-13392857Y-42642914D02*
X-13488095Y-42690533D01*
X-12297619Y-42404819D02*
X-12202381Y-42404819D01*
X-12202381Y-42404819D02*
X-12107143Y-42452438D01*
X-12107143Y-42452438D02*
X-12059524Y-42500057D01*
X-12059524Y-42500057D02*
X-12011905Y-42595295D01*
X-12011905Y-42595295D02*
X-11964286Y-42785771D01*
X-11964286Y-42785771D02*
X-11964286Y-43023866D01*
X-11964286Y-43023866D02*
X-12011905Y-43214342D01*
X-12011905Y-43214342D02*
X-12059524Y-43309580D01*
X-12059524Y-43309580D02*
X-12107143Y-43357200D01*
X-12107143Y-43357200D02*
X-12202381Y-43404819D01*
X-12202381Y-43404819D02*
X-12297619Y-43404819D01*
X-12297619Y-43404819D02*
X-12392857Y-43357200D01*
X-12392857Y-43357200D02*
X-12440476Y-43309580D01*
X-12440476Y-43309580D02*
X-12488095Y-43214342D01*
X-12488095Y-43214342D02*
X-12535714Y-43023866D01*
X-12535714Y-43023866D02*
X-12535714Y-42785771D01*
X-12535714Y-42785771D02*
X-12488095Y-42595295D01*
X-12488095Y-42595295D02*
X-12440476Y-42500057D01*
X-12440476Y-42500057D02*
X-12392857Y-42452438D01*
X-12392857Y-42452438D02*
X-12297619Y-42404819D01*
X-11630952Y-42404819D02*
X-10964286Y-42404819D01*
X-10964286Y-42404819D02*
X-11392857Y-43404819D01*
X-25645181Y-48811904D02*
X-24835658Y-48811904D01*
X-24835658Y-48811904D02*
X-24740420Y-48764285D01*
X-24740420Y-48764285D02*
X-24692800Y-48716666D01*
X-24692800Y-48716666D02*
X-24645181Y-48621428D01*
X-24645181Y-48621428D02*
X-24645181Y-48430952D01*
X-24645181Y-48430952D02*
X-24692800Y-48335714D01*
X-24692800Y-48335714D02*
X-24740420Y-48288095D01*
X-24740420Y-48288095D02*
X-24835658Y-48240476D01*
X-24835658Y-48240476D02*
X-25645181Y-48240476D01*
X-25645181Y-47335714D02*
X-25645181Y-47526190D01*
X-25645181Y-47526190D02*
X-25597562Y-47621428D01*
X-25597562Y-47621428D02*
X-25549943Y-47669047D01*
X-25549943Y-47669047D02*
X-25407086Y-47764285D01*
X-25407086Y-47764285D02*
X-25216610Y-47811904D01*
X-25216610Y-47811904D02*
X-24835658Y-47811904D01*
X-24835658Y-47811904D02*
X-24740420Y-47764285D01*
X-24740420Y-47764285D02*
X-24692800Y-47716666D01*
X-24692800Y-47716666D02*
X-24645181Y-47621428D01*
X-24645181Y-47621428D02*
X-24645181Y-47430952D01*
X-24645181Y-47430952D02*
X-24692800Y-47335714D01*
X-24692800Y-47335714D02*
X-24740420Y-47288095D01*
X-24740420Y-47288095D02*
X-24835658Y-47240476D01*
X-24835658Y-47240476D02*
X-25073753Y-47240476D01*
X-25073753Y-47240476D02*
X-25168991Y-47288095D01*
X-25168991Y-47288095D02*
X-25216610Y-47335714D01*
X-25216610Y-47335714D02*
X-25264229Y-47430952D01*
X-25264229Y-47430952D02*
X-25264229Y-47621428D01*
X-25264229Y-47621428D02*
X-25216610Y-47716666D01*
X-25216610Y-47716666D02*
X-25168991Y-47764285D01*
X-25168991Y-47764285D02*
X-25073753Y-47811904D01*
X-6666667Y-50004819D02*
X-7000000Y-49528628D01*
X-7238095Y-50004819D02*
X-7238095Y-49004819D01*
X-7238095Y-49004819D02*
X-6857143Y-49004819D01*
X-6857143Y-49004819D02*
X-6761905Y-49052438D01*
X-6761905Y-49052438D02*
X-6714286Y-49100057D01*
X-6714286Y-49100057D02*
X-6666667Y-49195295D01*
X-6666667Y-49195295D02*
X-6666667Y-49338152D01*
X-6666667Y-49338152D02*
X-6714286Y-49433390D01*
X-6714286Y-49433390D02*
X-6761905Y-49481009D01*
X-6761905Y-49481009D02*
X-6857143Y-49528628D01*
X-6857143Y-49528628D02*
X-7238095Y-49528628D01*
X-6333333Y-49004819D02*
X-5714286Y-49004819D01*
X-5714286Y-49004819D02*
X-6047619Y-49385771D01*
X-6047619Y-49385771D02*
X-5904762Y-49385771D01*
X-5904762Y-49385771D02*
X-5809524Y-49433390D01*
X-5809524Y-49433390D02*
X-5761905Y-49481009D01*
X-5761905Y-49481009D02*
X-5714286Y-49576247D01*
X-5714286Y-49576247D02*
X-5714286Y-49814342D01*
X-5714286Y-49814342D02*
X-5761905Y-49909580D01*
X-5761905Y-49909580D02*
X-5809524Y-49957200D01*
X-5809524Y-49957200D02*
X-5904762Y-50004819D01*
X-5904762Y-50004819D02*
X-6190476Y-50004819D01*
X-6190476Y-50004819D02*
X-6285714Y-49957200D01*
X-6285714Y-49957200D02*
X-6333333Y-49909580D01*
X16883333Y-39609580D02*
X16835714Y-39657200D01*
X16835714Y-39657200D02*
X16692857Y-39704819D01*
X16692857Y-39704819D02*
X16597619Y-39704819D01*
X16597619Y-39704819D02*
X16454762Y-39657200D01*
X16454762Y-39657200D02*
X16359524Y-39561961D01*
X16359524Y-39561961D02*
X16311905Y-39466723D01*
X16311905Y-39466723D02*
X16264286Y-39276247D01*
X16264286Y-39276247D02*
X16264286Y-39133390D01*
X16264286Y-39133390D02*
X16311905Y-38942914D01*
X16311905Y-38942914D02*
X16359524Y-38847676D01*
X16359524Y-38847676D02*
X16454762Y-38752438D01*
X16454762Y-38752438D02*
X16597619Y-38704819D01*
X16597619Y-38704819D02*
X16692857Y-38704819D01*
X16692857Y-38704819D02*
X16835714Y-38752438D01*
X16835714Y-38752438D02*
X16883333Y-38800057D01*
X17264286Y-38800057D02*
X17311905Y-38752438D01*
X17311905Y-38752438D02*
X17407143Y-38704819D01*
X17407143Y-38704819D02*
X17645238Y-38704819D01*
X17645238Y-38704819D02*
X17740476Y-38752438D01*
X17740476Y-38752438D02*
X17788095Y-38800057D01*
X17788095Y-38800057D02*
X17835714Y-38895295D01*
X17835714Y-38895295D02*
X17835714Y-38990533D01*
X17835714Y-38990533D02*
X17788095Y-39133390D01*
X17788095Y-39133390D02*
X17216667Y-39704819D01*
X17216667Y-39704819D02*
X17835714Y-39704819D01*
X12230952Y-18854819D02*
X11897619Y-18378628D01*
X11659524Y-18854819D02*
X11659524Y-17854819D01*
X11659524Y-17854819D02*
X12040476Y-17854819D01*
X12040476Y-17854819D02*
X12135714Y-17902438D01*
X12135714Y-17902438D02*
X12183333Y-17950057D01*
X12183333Y-17950057D02*
X12230952Y-18045295D01*
X12230952Y-18045295D02*
X12230952Y-18188152D01*
X12230952Y-18188152D02*
X12183333Y-18283390D01*
X12183333Y-18283390D02*
X12135714Y-18331009D01*
X12135714Y-18331009D02*
X12040476Y-18378628D01*
X12040476Y-18378628D02*
X11659524Y-18378628D01*
X13183333Y-18854819D02*
X12611905Y-18854819D01*
X12897619Y-18854819D02*
X12897619Y-17854819D01*
X12897619Y-17854819D02*
X12802381Y-17997676D01*
X12802381Y-17997676D02*
X12707143Y-18092914D01*
X12707143Y-18092914D02*
X12611905Y-18140533D01*
X13802381Y-17854819D02*
X13897619Y-17854819D01*
X13897619Y-17854819D02*
X13992857Y-17902438D01*
X13992857Y-17902438D02*
X14040476Y-17950057D01*
X14040476Y-17950057D02*
X14088095Y-18045295D01*
X14088095Y-18045295D02*
X14135714Y-18235771D01*
X14135714Y-18235771D02*
X14135714Y-18473866D01*
X14135714Y-18473866D02*
X14088095Y-18664342D01*
X14088095Y-18664342D02*
X14040476Y-18759580D01*
X14040476Y-18759580D02*
X13992857Y-18807200D01*
X13992857Y-18807200D02*
X13897619Y-18854819D01*
X13897619Y-18854819D02*
X13802381Y-18854819D01*
X13802381Y-18854819D02*
X13707143Y-18807200D01*
X13707143Y-18807200D02*
X13659524Y-18759580D01*
X13659524Y-18759580D02*
X13611905Y-18664342D01*
X13611905Y-18664342D02*
X13564286Y-18473866D01*
X13564286Y-18473866D02*
X13564286Y-18235771D01*
X13564286Y-18235771D02*
X13611905Y-18045295D01*
X13611905Y-18045295D02*
X13659524Y-17950057D01*
X13659524Y-17950057D02*
X13707143Y-17902438D01*
X13707143Y-17902438D02*
X13802381Y-17854819D01*
X14992857Y-17854819D02*
X14802381Y-17854819D01*
X14802381Y-17854819D02*
X14707143Y-17902438D01*
X14707143Y-17902438D02*
X14659524Y-17950057D01*
X14659524Y-17950057D02*
X14564286Y-18092914D01*
X14564286Y-18092914D02*
X14516667Y-18283390D01*
X14516667Y-18283390D02*
X14516667Y-18664342D01*
X14516667Y-18664342D02*
X14564286Y-18759580D01*
X14564286Y-18759580D02*
X14611905Y-18807200D01*
X14611905Y-18807200D02*
X14707143Y-18854819D01*
X14707143Y-18854819D02*
X14897619Y-18854819D01*
X14897619Y-18854819D02*
X14992857Y-18807200D01*
X14992857Y-18807200D02*
X15040476Y-18759580D01*
X15040476Y-18759580D02*
X15088095Y-18664342D01*
X15088095Y-18664342D02*
X15088095Y-18426247D01*
X15088095Y-18426247D02*
X15040476Y-18331009D01*
X15040476Y-18331009D02*
X14992857Y-18283390D01*
X14992857Y-18283390D02*
X14897619Y-18235771D01*
X14897619Y-18235771D02*
X14707143Y-18235771D01*
X14707143Y-18235771D02*
X14611905Y-18283390D01*
X14611905Y-18283390D02*
X14564286Y-18331009D01*
X14564286Y-18331009D02*
X14516667Y-18426247D01*
X20139580Y-42966666D02*
X20187200Y-43014285D01*
X20187200Y-43014285D02*
X20234819Y-43157142D01*
X20234819Y-43157142D02*
X20234819Y-43252380D01*
X20234819Y-43252380D02*
X20187200Y-43395237D01*
X20187200Y-43395237D02*
X20091961Y-43490475D01*
X20091961Y-43490475D02*
X19996723Y-43538094D01*
X19996723Y-43538094D02*
X19806247Y-43585713D01*
X19806247Y-43585713D02*
X19663390Y-43585713D01*
X19663390Y-43585713D02*
X19472914Y-43538094D01*
X19472914Y-43538094D02*
X19377676Y-43490475D01*
X19377676Y-43490475D02*
X19282438Y-43395237D01*
X19282438Y-43395237D02*
X19234819Y-43252380D01*
X19234819Y-43252380D02*
X19234819Y-43157142D01*
X19234819Y-43157142D02*
X19282438Y-43014285D01*
X19282438Y-43014285D02*
X19330057Y-42966666D01*
X20234819Y-42014285D02*
X20234819Y-42585713D01*
X20234819Y-42299999D02*
X19234819Y-42299999D01*
X19234819Y-42299999D02*
X19377676Y-42395237D01*
X19377676Y-42395237D02*
X19472914Y-42490475D01*
X19472914Y-42490475D02*
X19520533Y-42585713D01*
X9930952Y-37554819D02*
X9597619Y-37078628D01*
X9359524Y-37554819D02*
X9359524Y-36554819D01*
X9359524Y-36554819D02*
X9740476Y-36554819D01*
X9740476Y-36554819D02*
X9835714Y-36602438D01*
X9835714Y-36602438D02*
X9883333Y-36650057D01*
X9883333Y-36650057D02*
X9930952Y-36745295D01*
X9930952Y-36745295D02*
X9930952Y-36888152D01*
X9930952Y-36888152D02*
X9883333Y-36983390D01*
X9883333Y-36983390D02*
X9835714Y-37031009D01*
X9835714Y-37031009D02*
X9740476Y-37078628D01*
X9740476Y-37078628D02*
X9359524Y-37078628D01*
X10883333Y-37554819D02*
X10311905Y-37554819D01*
X10597619Y-37554819D02*
X10597619Y-36554819D01*
X10597619Y-36554819D02*
X10502381Y-36697676D01*
X10502381Y-36697676D02*
X10407143Y-36792914D01*
X10407143Y-36792914D02*
X10311905Y-36840533D01*
X11502381Y-36554819D02*
X11597619Y-36554819D01*
X11597619Y-36554819D02*
X11692857Y-36602438D01*
X11692857Y-36602438D02*
X11740476Y-36650057D01*
X11740476Y-36650057D02*
X11788095Y-36745295D01*
X11788095Y-36745295D02*
X11835714Y-36935771D01*
X11835714Y-36935771D02*
X11835714Y-37173866D01*
X11835714Y-37173866D02*
X11788095Y-37364342D01*
X11788095Y-37364342D02*
X11740476Y-37459580D01*
X11740476Y-37459580D02*
X11692857Y-37507200D01*
X11692857Y-37507200D02*
X11597619Y-37554819D01*
X11597619Y-37554819D02*
X11502381Y-37554819D01*
X11502381Y-37554819D02*
X11407143Y-37507200D01*
X11407143Y-37507200D02*
X11359524Y-37459580D01*
X11359524Y-37459580D02*
X11311905Y-37364342D01*
X11311905Y-37364342D02*
X11264286Y-37173866D01*
X11264286Y-37173866D02*
X11264286Y-36935771D01*
X11264286Y-36935771D02*
X11311905Y-36745295D01*
X11311905Y-36745295D02*
X11359524Y-36650057D01*
X11359524Y-36650057D02*
X11407143Y-36602438D01*
X11407143Y-36602438D02*
X11502381Y-36554819D01*
X12788095Y-37554819D02*
X12216667Y-37554819D01*
X12502381Y-37554819D02*
X12502381Y-36554819D01*
X12502381Y-36554819D02*
X12407143Y-36697676D01*
X12407143Y-36697676D02*
X12311905Y-36792914D01*
X12311905Y-36792914D02*
X12216667Y-36840533D01*
X24204819Y-20419047D02*
X23728628Y-20752380D01*
X24204819Y-20990475D02*
X23204819Y-20990475D01*
X23204819Y-20990475D02*
X23204819Y-20609523D01*
X23204819Y-20609523D02*
X23252438Y-20514285D01*
X23252438Y-20514285D02*
X23300057Y-20466666D01*
X23300057Y-20466666D02*
X23395295Y-20419047D01*
X23395295Y-20419047D02*
X23538152Y-20419047D01*
X23538152Y-20419047D02*
X23633390Y-20466666D01*
X23633390Y-20466666D02*
X23681009Y-20514285D01*
X23681009Y-20514285D02*
X23728628Y-20609523D01*
X23728628Y-20609523D02*
X23728628Y-20990475D01*
X24204819Y-19466666D02*
X24204819Y-20038094D01*
X24204819Y-19752380D02*
X23204819Y-19752380D01*
X23204819Y-19752380D02*
X23347676Y-19847618D01*
X23347676Y-19847618D02*
X23442914Y-19942856D01*
X23442914Y-19942856D02*
X23490533Y-20038094D01*
X23204819Y-18847618D02*
X23204819Y-18752380D01*
X23204819Y-18752380D02*
X23252438Y-18657142D01*
X23252438Y-18657142D02*
X23300057Y-18609523D01*
X23300057Y-18609523D02*
X23395295Y-18561904D01*
X23395295Y-18561904D02*
X23585771Y-18514285D01*
X23585771Y-18514285D02*
X23823866Y-18514285D01*
X23823866Y-18514285D02*
X24014342Y-18561904D01*
X24014342Y-18561904D02*
X24109580Y-18609523D01*
X24109580Y-18609523D02*
X24157200Y-18657142D01*
X24157200Y-18657142D02*
X24204819Y-18752380D01*
X24204819Y-18752380D02*
X24204819Y-18847618D01*
X24204819Y-18847618D02*
X24157200Y-18942856D01*
X24157200Y-18942856D02*
X24109580Y-18990475D01*
X24109580Y-18990475D02*
X24014342Y-19038094D01*
X24014342Y-19038094D02*
X23823866Y-19085713D01*
X23823866Y-19085713D02*
X23585771Y-19085713D01*
X23585771Y-19085713D02*
X23395295Y-19038094D01*
X23395295Y-19038094D02*
X23300057Y-18990475D01*
X23300057Y-18990475D02*
X23252438Y-18942856D01*
X23252438Y-18942856D02*
X23204819Y-18847618D01*
X23204819Y-17609523D02*
X23204819Y-18085713D01*
X23204819Y-18085713D02*
X23681009Y-18133332D01*
X23681009Y-18133332D02*
X23633390Y-18085713D01*
X23633390Y-18085713D02*
X23585771Y-17990475D01*
X23585771Y-17990475D02*
X23585771Y-17752380D01*
X23585771Y-17752380D02*
X23633390Y-17657142D01*
X23633390Y-17657142D02*
X23681009Y-17609523D01*
X23681009Y-17609523D02*
X23776247Y-17561904D01*
X23776247Y-17561904D02*
X24014342Y-17561904D01*
X24014342Y-17561904D02*
X24109580Y-17609523D01*
X24109580Y-17609523D02*
X24157200Y-17657142D01*
X24157200Y-17657142D02*
X24204819Y-17752380D01*
X24204819Y-17752380D02*
X24204819Y-17990475D01*
X24204819Y-17990475D02*
X24157200Y-18085713D01*
X24157200Y-18085713D02*
X24109580Y-18133332D01*
X21909580Y-58566666D02*
X21957200Y-58614285D01*
X21957200Y-58614285D02*
X22004819Y-58757142D01*
X22004819Y-58757142D02*
X22004819Y-58852380D01*
X22004819Y-58852380D02*
X21957200Y-58995237D01*
X21957200Y-58995237D02*
X21861961Y-59090475D01*
X21861961Y-59090475D02*
X21766723Y-59138094D01*
X21766723Y-59138094D02*
X21576247Y-59185713D01*
X21576247Y-59185713D02*
X21433390Y-59185713D01*
X21433390Y-59185713D02*
X21242914Y-59138094D01*
X21242914Y-59138094D02*
X21147676Y-59090475D01*
X21147676Y-59090475D02*
X21052438Y-58995237D01*
X21052438Y-58995237D02*
X21004819Y-58852380D01*
X21004819Y-58852380D02*
X21004819Y-58757142D01*
X21004819Y-58757142D02*
X21052438Y-58614285D01*
X21052438Y-58614285D02*
X21100057Y-58566666D01*
X21004819Y-57661904D02*
X21004819Y-58138094D01*
X21004819Y-58138094D02*
X21481009Y-58185713D01*
X21481009Y-58185713D02*
X21433390Y-58138094D01*
X21433390Y-58138094D02*
X21385771Y-58042856D01*
X21385771Y-58042856D02*
X21385771Y-57804761D01*
X21385771Y-57804761D02*
X21433390Y-57709523D01*
X21433390Y-57709523D02*
X21481009Y-57661904D01*
X21481009Y-57661904D02*
X21576247Y-57614285D01*
X21576247Y-57614285D02*
X21814342Y-57614285D01*
X21814342Y-57614285D02*
X21909580Y-57661904D01*
X21909580Y-57661904D02*
X21957200Y-57709523D01*
X21957200Y-57709523D02*
X22004819Y-57804761D01*
X22004819Y-57804761D02*
X22004819Y-58042856D01*
X22004819Y-58042856D02*
X21957200Y-58138094D01*
X21957200Y-58138094D02*
X21909580Y-58185713D01*
X-24816667Y-41754819D02*
X-25150000Y-41278628D01*
X-25388095Y-41754819D02*
X-25388095Y-40754819D01*
X-25388095Y-40754819D02*
X-25007143Y-40754819D01*
X-25007143Y-40754819D02*
X-24911905Y-40802438D01*
X-24911905Y-40802438D02*
X-24864286Y-40850057D01*
X-24864286Y-40850057D02*
X-24816667Y-40945295D01*
X-24816667Y-40945295D02*
X-24816667Y-41088152D01*
X-24816667Y-41088152D02*
X-24864286Y-41183390D01*
X-24864286Y-41183390D02*
X-24911905Y-41231009D01*
X-24911905Y-41231009D02*
X-25007143Y-41278628D01*
X-25007143Y-41278628D02*
X-25388095Y-41278628D01*
X-24245238Y-41183390D02*
X-24340476Y-41135771D01*
X-24340476Y-41135771D02*
X-24388095Y-41088152D01*
X-24388095Y-41088152D02*
X-24435714Y-40992914D01*
X-24435714Y-40992914D02*
X-24435714Y-40945295D01*
X-24435714Y-40945295D02*
X-24388095Y-40850057D01*
X-24388095Y-40850057D02*
X-24340476Y-40802438D01*
X-24340476Y-40802438D02*
X-24245238Y-40754819D01*
X-24245238Y-40754819D02*
X-24054762Y-40754819D01*
X-24054762Y-40754819D02*
X-23959524Y-40802438D01*
X-23959524Y-40802438D02*
X-23911905Y-40850057D01*
X-23911905Y-40850057D02*
X-23864286Y-40945295D01*
X-23864286Y-40945295D02*
X-23864286Y-40992914D01*
X-23864286Y-40992914D02*
X-23911905Y-41088152D01*
X-23911905Y-41088152D02*
X-23959524Y-41135771D01*
X-23959524Y-41135771D02*
X-24054762Y-41183390D01*
X-24054762Y-41183390D02*
X-24245238Y-41183390D01*
X-24245238Y-41183390D02*
X-24340476Y-41231009D01*
X-24340476Y-41231009D02*
X-24388095Y-41278628D01*
X-24388095Y-41278628D02*
X-24435714Y-41373866D01*
X-24435714Y-41373866D02*
X-24435714Y-41564342D01*
X-24435714Y-41564342D02*
X-24388095Y-41659580D01*
X-24388095Y-41659580D02*
X-24340476Y-41707200D01*
X-24340476Y-41707200D02*
X-24245238Y-41754819D01*
X-24245238Y-41754819D02*
X-24054762Y-41754819D01*
X-24054762Y-41754819D02*
X-23959524Y-41707200D01*
X-23959524Y-41707200D02*
X-23911905Y-41659580D01*
X-23911905Y-41659580D02*
X-23864286Y-41564342D01*
X-23864286Y-41564342D02*
X-23864286Y-41373866D01*
X-23864286Y-41373866D02*
X-23911905Y-41278628D01*
X-23911905Y-41278628D02*
X-23959524Y-41231009D01*
X-23959524Y-41231009D02*
X-24054762Y-41183390D01*
X-6366667Y-53509580D02*
X-6414286Y-53557200D01*
X-6414286Y-53557200D02*
X-6557143Y-53604819D01*
X-6557143Y-53604819D02*
X-6652381Y-53604819D01*
X-6652381Y-53604819D02*
X-6795238Y-53557200D01*
X-6795238Y-53557200D02*
X-6890476Y-53461961D01*
X-6890476Y-53461961D02*
X-6938095Y-53366723D01*
X-6938095Y-53366723D02*
X-6985714Y-53176247D01*
X-6985714Y-53176247D02*
X-6985714Y-53033390D01*
X-6985714Y-53033390D02*
X-6938095Y-52842914D01*
X-6938095Y-52842914D02*
X-6890476Y-52747676D01*
X-6890476Y-52747676D02*
X-6795238Y-52652438D01*
X-6795238Y-52652438D02*
X-6652381Y-52604819D01*
X-6652381Y-52604819D02*
X-6557143Y-52604819D01*
X-6557143Y-52604819D02*
X-6414286Y-52652438D01*
X-6414286Y-52652438D02*
X-6366667Y-52700057D01*
X-5795238Y-53033390D02*
X-5890476Y-52985771D01*
X-5890476Y-52985771D02*
X-5938095Y-52938152D01*
X-5938095Y-52938152D02*
X-5985714Y-52842914D01*
X-5985714Y-52842914D02*
X-5985714Y-52795295D01*
X-5985714Y-52795295D02*
X-5938095Y-52700057D01*
X-5938095Y-52700057D02*
X-5890476Y-52652438D01*
X-5890476Y-52652438D02*
X-5795238Y-52604819D01*
X-5795238Y-52604819D02*
X-5604762Y-52604819D01*
X-5604762Y-52604819D02*
X-5509524Y-52652438D01*
X-5509524Y-52652438D02*
X-5461905Y-52700057D01*
X-5461905Y-52700057D02*
X-5414286Y-52795295D01*
X-5414286Y-52795295D02*
X-5414286Y-52842914D01*
X-5414286Y-52842914D02*
X-5461905Y-52938152D01*
X-5461905Y-52938152D02*
X-5509524Y-52985771D01*
X-5509524Y-52985771D02*
X-5604762Y-53033390D01*
X-5604762Y-53033390D02*
X-5795238Y-53033390D01*
X-5795238Y-53033390D02*
X-5890476Y-53081009D01*
X-5890476Y-53081009D02*
X-5938095Y-53128628D01*
X-5938095Y-53128628D02*
X-5985714Y-53223866D01*
X-5985714Y-53223866D02*
X-5985714Y-53414342D01*
X-5985714Y-53414342D02*
X-5938095Y-53509580D01*
X-5938095Y-53509580D02*
X-5890476Y-53557200D01*
X-5890476Y-53557200D02*
X-5795238Y-53604819D01*
X-5795238Y-53604819D02*
X-5604762Y-53604819D01*
X-5604762Y-53604819D02*
X-5509524Y-53557200D01*
X-5509524Y-53557200D02*
X-5461905Y-53509580D01*
X-5461905Y-53509580D02*
X-5414286Y-53414342D01*
X-5414286Y-53414342D02*
X-5414286Y-53223866D01*
X-5414286Y-53223866D02*
X-5461905Y-53128628D01*
X-5461905Y-53128628D02*
X-5509524Y-53081009D01*
X-5509524Y-53081009D02*
X-5604762Y-53033390D01*
X23554819Y-62816666D02*
X23078628Y-63149999D01*
X23554819Y-63388094D02*
X22554819Y-63388094D01*
X22554819Y-63388094D02*
X22554819Y-63007142D01*
X22554819Y-63007142D02*
X22602438Y-62911904D01*
X22602438Y-62911904D02*
X22650057Y-62864285D01*
X22650057Y-62864285D02*
X22745295Y-62816666D01*
X22745295Y-62816666D02*
X22888152Y-62816666D01*
X22888152Y-62816666D02*
X22983390Y-62864285D01*
X22983390Y-62864285D02*
X23031009Y-62911904D01*
X23031009Y-62911904D02*
X23078628Y-63007142D01*
X23078628Y-63007142D02*
X23078628Y-63388094D01*
X23554819Y-61864285D02*
X23554819Y-62435713D01*
X23554819Y-62149999D02*
X22554819Y-62149999D01*
X22554819Y-62149999D02*
X22697676Y-62245237D01*
X22697676Y-62245237D02*
X22792914Y-62340475D01*
X22792914Y-62340475D02*
X22840533Y-62435713D01*
X-2166667Y-54604819D02*
X-2500000Y-54128628D01*
X-2738095Y-54604819D02*
X-2738095Y-53604819D01*
X-2738095Y-53604819D02*
X-2357143Y-53604819D01*
X-2357143Y-53604819D02*
X-2261905Y-53652438D01*
X-2261905Y-53652438D02*
X-2214286Y-53700057D01*
X-2214286Y-53700057D02*
X-2166667Y-53795295D01*
X-2166667Y-53795295D02*
X-2166667Y-53938152D01*
X-2166667Y-53938152D02*
X-2214286Y-54033390D01*
X-2214286Y-54033390D02*
X-2261905Y-54081009D01*
X-2261905Y-54081009D02*
X-2357143Y-54128628D01*
X-2357143Y-54128628D02*
X-2738095Y-54128628D01*
X-1785714Y-53700057D02*
X-1738095Y-53652438D01*
X-1738095Y-53652438D02*
X-1642857Y-53604819D01*
X-1642857Y-53604819D02*
X-1404762Y-53604819D01*
X-1404762Y-53604819D02*
X-1309524Y-53652438D01*
X-1309524Y-53652438D02*
X-1261905Y-53700057D01*
X-1261905Y-53700057D02*
X-1214286Y-53795295D01*
X-1214286Y-53795295D02*
X-1214286Y-53890533D01*
X-1214286Y-53890533D02*
X-1261905Y-54033390D01*
X-1261905Y-54033390D02*
X-1833333Y-54604819D01*
X-1833333Y-54604819D02*
X-1214286Y-54604819D01*
X-14169048Y-40954819D02*
X-14502381Y-40478628D01*
X-14740476Y-40954819D02*
X-14740476Y-39954819D01*
X-14740476Y-39954819D02*
X-14359524Y-39954819D01*
X-14359524Y-39954819D02*
X-14264286Y-40002438D01*
X-14264286Y-40002438D02*
X-14216667Y-40050057D01*
X-14216667Y-40050057D02*
X-14169048Y-40145295D01*
X-14169048Y-40145295D02*
X-14169048Y-40288152D01*
X-14169048Y-40288152D02*
X-14216667Y-40383390D01*
X-14216667Y-40383390D02*
X-14264286Y-40431009D01*
X-14264286Y-40431009D02*
X-14359524Y-40478628D01*
X-14359524Y-40478628D02*
X-14740476Y-40478628D01*
X-13216667Y-40954819D02*
X-13788095Y-40954819D01*
X-13502381Y-40954819D02*
X-13502381Y-39954819D01*
X-13502381Y-39954819D02*
X-13597619Y-40097676D01*
X-13597619Y-40097676D02*
X-13692857Y-40192914D01*
X-13692857Y-40192914D02*
X-13788095Y-40240533D01*
X-12597619Y-39954819D02*
X-12502381Y-39954819D01*
X-12502381Y-39954819D02*
X-12407143Y-40002438D01*
X-12407143Y-40002438D02*
X-12359524Y-40050057D01*
X-12359524Y-40050057D02*
X-12311905Y-40145295D01*
X-12311905Y-40145295D02*
X-12264286Y-40335771D01*
X-12264286Y-40335771D02*
X-12264286Y-40573866D01*
X-12264286Y-40573866D02*
X-12311905Y-40764342D01*
X-12311905Y-40764342D02*
X-12359524Y-40859580D01*
X-12359524Y-40859580D02*
X-12407143Y-40907200D01*
X-12407143Y-40907200D02*
X-12502381Y-40954819D01*
X-12502381Y-40954819D02*
X-12597619Y-40954819D01*
X-12597619Y-40954819D02*
X-12692857Y-40907200D01*
X-12692857Y-40907200D02*
X-12740476Y-40859580D01*
X-12740476Y-40859580D02*
X-12788095Y-40764342D01*
X-12788095Y-40764342D02*
X-12835714Y-40573866D01*
X-12835714Y-40573866D02*
X-12835714Y-40335771D01*
X-12835714Y-40335771D02*
X-12788095Y-40145295D01*
X-12788095Y-40145295D02*
X-12740476Y-40050057D01*
X-12740476Y-40050057D02*
X-12692857Y-40002438D01*
X-12692857Y-40002438D02*
X-12597619Y-39954819D01*
X-11788095Y-40954819D02*
X-11597619Y-40954819D01*
X-11597619Y-40954819D02*
X-11502381Y-40907200D01*
X-11502381Y-40907200D02*
X-11454762Y-40859580D01*
X-11454762Y-40859580D02*
X-11359524Y-40716723D01*
X-11359524Y-40716723D02*
X-11311905Y-40526247D01*
X-11311905Y-40526247D02*
X-11311905Y-40145295D01*
X-11311905Y-40145295D02*
X-11359524Y-40050057D01*
X-11359524Y-40050057D02*
X-11407143Y-40002438D01*
X-11407143Y-40002438D02*
X-11502381Y-39954819D01*
X-11502381Y-39954819D02*
X-11692857Y-39954819D01*
X-11692857Y-39954819D02*
X-11788095Y-40002438D01*
X-11788095Y-40002438D02*
X-11835714Y-40050057D01*
X-11835714Y-40050057D02*
X-11883333Y-40145295D01*
X-11883333Y-40145295D02*
X-11883333Y-40383390D01*
X-11883333Y-40383390D02*
X-11835714Y-40478628D01*
X-11835714Y-40478628D02*
X-11788095Y-40526247D01*
X-11788095Y-40526247D02*
X-11692857Y-40573866D01*
X-11692857Y-40573866D02*
X-11502381Y-40573866D01*
X-11502381Y-40573866D02*
X-11407143Y-40526247D01*
X-11407143Y-40526247D02*
X-11359524Y-40478628D01*
X-11359524Y-40478628D02*
X-11311905Y-40383390D01*
X-11966667Y-51804819D02*
X-12300000Y-51328628D01*
X-12538095Y-51804819D02*
X-12538095Y-50804819D01*
X-12538095Y-50804819D02*
X-12157143Y-50804819D01*
X-12157143Y-50804819D02*
X-12061905Y-50852438D01*
X-12061905Y-50852438D02*
X-12014286Y-50900057D01*
X-12014286Y-50900057D02*
X-11966667Y-50995295D01*
X-11966667Y-50995295D02*
X-11966667Y-51138152D01*
X-11966667Y-51138152D02*
X-12014286Y-51233390D01*
X-12014286Y-51233390D02*
X-12061905Y-51281009D01*
X-12061905Y-51281009D02*
X-12157143Y-51328628D01*
X-12157143Y-51328628D02*
X-12538095Y-51328628D01*
X-11109524Y-51138152D02*
X-11109524Y-51804819D01*
X-11347619Y-50757200D02*
X-11585714Y-51471485D01*
X-11585714Y-51471485D02*
X-10966667Y-51471485D01*
D12*
%TO.C,R6*%
X-15985000Y-45627064D02*
X-15985000Y-45172936D01*
X-14515000Y-45627064D02*
X-14515000Y-45172936D01*
%TO.C,R5*%
X-20172936Y-60635000D02*
X-20627064Y-60635000D01*
X-20172936Y-59165000D02*
X-20627064Y-59165000D01*
%TO.C,C9*%
X-21961252Y-38615000D02*
X-21438748Y-38615000D01*
X-21961252Y-40085000D02*
X-21438748Y-40085000D01*
%TO.C,C7*%
X-15365000Y-60788748D02*
X-15365000Y-61311252D01*
X-16835000Y-60788748D02*
X-16835000Y-61311252D01*
D13*
%TO.C,U2*%
X-7150000Y-32185000D02*
G75*
G02*
X-7550000Y-32185000I-200000J0D01*
G01*
X-7550000Y-32185000D02*
G75*
G02*
X-7150000Y-32185000I200000J0D01*
G01*
D12*
%TO.C,C4*%
X-10638748Y-62065000D02*
X-11161252Y-62065000D01*
X-10638748Y-63535000D02*
X-11161252Y-63535000D01*
%TO.C,J3*%
X-7100000Y-62925000D02*
X-7100000Y-66325000D01*
X-6350000Y-62175000D02*
X-5500000Y-62175000D01*
X-6350000Y-67075000D02*
X-1550000Y-67075000D01*
X-6100000Y-62925000D02*
X-6100000Y-65925000D01*
X-5850000Y-62675000D02*
X-4850000Y-62675000D01*
X-5850000Y-66175000D02*
X-4575000Y-66175000D01*
X-4900000Y-62175000D02*
X-1550000Y-62175000D01*
X-4850000Y-62675000D02*
X-4850000Y-63075000D01*
X-4850000Y-63075000D02*
X-3050000Y-63075000D01*
X-4575000Y-66175000D02*
X-4575000Y-66575000D01*
X-4575000Y-66575000D02*
X-3325000Y-66575000D01*
X-3325000Y-66175000D02*
X-2050000Y-66175000D01*
X-3325000Y-66575000D02*
X-3325000Y-66175000D01*
X-3050000Y-62675000D02*
X-2050000Y-62675000D01*
X-3050000Y-63075000D02*
X-3050000Y-62675000D01*
X-1800000Y-62925000D02*
X-1800000Y-65925000D01*
X-800000Y-62925000D02*
X-800000Y-66325000D01*
X-7100000Y-62925000D02*
G75*
G02*
X-6350000Y-62175000I750000J0D01*
G01*
X-6350000Y-67075000D02*
G75*
G02*
X-7100000Y-66325000I0J750000D01*
G01*
X-6100000Y-62925000D02*
G75*
G02*
X-5850000Y-62675000I249999J1D01*
G01*
X-5850000Y-66175000D02*
G75*
G02*
X-6100000Y-65925000I-1J249999D01*
G01*
X-2050000Y-62675000D02*
G75*
G02*
X-1800000Y-62925000I0J-250000D01*
G01*
X-1800000Y-65925000D02*
G75*
G02*
X-2050000Y-66175000I-250000J0D01*
G01*
X-1550000Y-62175000D02*
G75*
G02*
X-800000Y-62925000I0J-750000D01*
G01*
X-800000Y-66325000D02*
G75*
G02*
X-1550000Y-67075000I-750000J0D01*
G01*
X-5200000Y-62170000D02*
X-5540000Y-61700000D01*
X-4860000Y-61700000D01*
X-5200000Y-62170000D01*
G36*
X-5200000Y-62170000D02*
G01*
X-5540000Y-61700000D01*
X-4860000Y-61700000D01*
X-5200000Y-62170000D01*
G37*
%TO.C,J4*%
X-12510001Y-58990000D02*
X-12510001Y-61110000D01*
X-2450000Y-58990000D02*
X-12510001Y-58990000D01*
X-2450000Y-58990000D02*
X-2450000Y-61110000D01*
X-2450000Y-61110000D02*
X-12510001Y-61110000D01*
X-1450000Y-58990000D02*
X-390000Y-58990000D01*
X-390000Y-58990000D02*
X-390000Y-60050000D01*
%TO.C,SW4*%
X6980000Y-3930000D02*
X6980000Y-4930000D01*
X6980000Y-3930000D02*
X7980000Y-3930000D01*
X6980000Y-16970000D02*
X6980000Y-15970000D01*
X6980000Y-16970000D02*
X7980000Y-16970000D01*
X10900000Y-11850000D02*
X9100000Y-11850000D01*
X10900000Y-12950000D02*
X9100000Y-12950000D01*
X13020000Y-3930000D02*
X12020000Y-3930000D01*
X13020000Y-3930000D02*
X13020000Y-4930000D01*
X13020000Y-16970000D02*
X12020000Y-16970000D01*
X13020000Y-16970000D02*
X13020000Y-15970000D01*
X9100000Y-12950000D02*
G75*
G02*
X9100000Y-11850000I0J550000D01*
G01*
X10900000Y-11850000D02*
G75*
G02*
X10900000Y-12950000I0J-550000D01*
G01*
%TO.C,C6*%
X-2373752Y-49365000D02*
X-1851248Y-49365000D01*
X-2373752Y-50835000D02*
X-1851248Y-50835000D01*
%TO.C,U5*%
X-19960000Y-54780000D02*
X-19960000Y-52830000D01*
X-19960000Y-54780000D02*
X-19960000Y-56730000D01*
X-14840000Y-54780000D02*
X-14840000Y-52830000D01*
X-14840000Y-54780000D02*
X-14840000Y-56730000D01*
X-19865000Y-57480000D02*
X-20195000Y-57720000D01*
X-20195000Y-57240000D01*
X-19865000Y-57480000D01*
G36*
X-19865000Y-57480000D02*
G01*
X-20195000Y-57720000D01*
X-20195000Y-57240000D01*
X-19865000Y-57480000D01*
G37*
%TO.C,D102*%
X14720000Y-13170000D02*
X14564000Y-13170000D01*
X17036000Y-13170000D02*
X16880000Y-13170000D01*
X14719939Y-16401397D02*
G75*
G02*
X14564484Y-13170000I1080061J1671397D01*
G01*
X14719951Y-15770910D02*
G75*
G02*
X14720000Y-13689039I1080049J1040910D01*
G01*
X16880000Y-13689039D02*
G75*
G02*
X16880049Y-15770910I-1080000J-1040961D01*
G01*
X17035516Y-13170000D02*
G75*
G02*
X16880061Y-16401397I-1235516J-1560000D01*
G01*
%TO.C,C3*%
X-9361252Y-54915000D02*
X-8838748Y-54915000D01*
X-9361252Y-56385000D02*
X-8838748Y-56385000D01*
%TO.C,J7*%
X-23730000Y-52960000D02*
X-23730000Y-53080000D01*
X-23730000Y-53080000D02*
X-21070000Y-53080000D01*
X-22400000Y-50420000D02*
X-21070000Y-50420000D01*
X-21070000Y-50420000D02*
X-21070000Y-51750000D01*
X-21070000Y-52960000D02*
X-21070000Y-53080000D01*
%TO.C,J1*%
X21120000Y-52980000D02*
X21120000Y-45300000D01*
X23780000Y-45300000D02*
X21120000Y-45300000D01*
X23780000Y-52980000D02*
X21120000Y-52980000D01*
X23780000Y-52980000D02*
X23780000Y-45300000D01*
X23780000Y-54250000D02*
X23780000Y-55580000D01*
X23780000Y-55580000D02*
X22450000Y-55580000D01*
%TO.C,C104*%
X-8838748Y-37015000D02*
X-9361252Y-37015000D01*
X-8838748Y-38485000D02*
X-9361252Y-38485000D01*
%TO.C,SW1*%
X-21850000Y-19900000D02*
X-21850000Y-35100000D01*
X-21850000Y-35100000D02*
X-6650000Y-35100000D01*
X-6650000Y-19900000D02*
X-21850000Y-19900000D01*
X-6650000Y-35100000D02*
X-6650000Y-19900000D01*
%TO.C,U1*%
X12627500Y-42750000D02*
X12627500Y-41950000D01*
X12627500Y-42750000D02*
X12627500Y-43550000D01*
X15747500Y-42750000D02*
X15747500Y-41950000D01*
X15747500Y-42750000D02*
X15747500Y-43550000D01*
X12677500Y-44050000D02*
X12347500Y-44290000D01*
X12347500Y-43810000D01*
X12677500Y-44050000D01*
G36*
X12677500Y-44050000D02*
G01*
X12347500Y-44290000D01*
X12347500Y-43810000D01*
X12677500Y-44050000D01*
G37*
%TO.C,U4*%
X1400000Y-48310000D02*
X2400000Y-48310000D01*
X1400000Y-49060000D02*
X1400000Y-48310000D01*
X1400000Y-67870000D02*
X19400000Y-67870000D01*
X1400000Y-73810000D02*
X1400000Y-67060000D01*
X19400000Y-48310000D02*
X18400000Y-48310000D01*
X19400000Y-49060000D02*
X19400000Y-48310000D01*
X19400000Y-73810000D02*
X1400000Y-73810000D01*
X19400000Y-73810000D02*
X19400000Y-67060000D01*
%TO.C,R108*%
X-8872936Y-44165000D02*
X-9327064Y-44165000D01*
X-8872936Y-45635000D02*
X-9327064Y-45635000D01*
%TO.C,R102*%
X8665000Y-41327064D02*
X8665000Y-40872936D01*
X10135000Y-41327064D02*
X10135000Y-40872936D01*
%TO.C,D101*%
X19470000Y-13190000D02*
X19314000Y-13190000D01*
X21786000Y-13190000D02*
X21630000Y-13190000D01*
X19469939Y-16421397D02*
G75*
G02*
X19314484Y-13190000I1080061J1671397D01*
G01*
X19469951Y-15790910D02*
G75*
G02*
X19470000Y-13709039I1080049J1040910D01*
G01*
X21630000Y-13709039D02*
G75*
G02*
X21630049Y-15790910I-1080000J-1040961D01*
G01*
X21785516Y-13190000D02*
G75*
G02*
X21630061Y-16421397I-1235516J-1560000D01*
G01*
%TO.C,R7*%
X-18410000Y-43972936D02*
X-18410000Y-45427064D01*
X-16590000Y-43972936D02*
X-16590000Y-45427064D01*
%TO.C,U7*%
X-22600000Y-49610000D02*
X-20800000Y-49610000D01*
X-21600000Y-46390000D02*
X-22400000Y-46390000D01*
X-21600000Y-46390000D02*
X-20800000Y-46390000D01*
X-22900000Y-46440000D02*
X-23140000Y-46110000D01*
X-22660000Y-46110000D01*
X-22900000Y-46440000D01*
G36*
X-22900000Y-46440000D02*
G01*
X-23140000Y-46110000D01*
X-22660000Y-46110000D01*
X-22900000Y-46440000D01*
G37*
%TO.C,U3*%
X-11150000Y-64077500D02*
X-11950000Y-64077500D01*
X-11150000Y-64077500D02*
X-10350000Y-64077500D01*
X-11150000Y-67197500D02*
X-11950000Y-67197500D01*
X-11150000Y-67197500D02*
X-10350000Y-67197500D01*
X-12450000Y-64127500D02*
X-12690000Y-63797500D01*
X-12210000Y-63797500D01*
X-12450000Y-64127500D01*
G36*
X-12450000Y-64127500D02*
G01*
X-12690000Y-63797500D01*
X-12210000Y-63797500D01*
X-12450000Y-64127500D01*
G37*
%TO.C,R107*%
X-9327064Y-42165000D02*
X-8872936Y-42165000D01*
X-9327064Y-43635000D02*
X-8872936Y-43635000D01*
%TO.C,SW2*%
X6650000Y-19900000D02*
X6650000Y-35100000D01*
X6650000Y-35100000D02*
X21850000Y-35100000D01*
X21850000Y-19900000D02*
X6650000Y-19900000D01*
X21850000Y-35100000D02*
X21850000Y-19900000D01*
%TO.C,U6*%
X-21800000Y-45860000D02*
X-22600000Y-45860000D01*
X-21800000Y-45860000D02*
X-21000000Y-45860000D01*
X-20800000Y-42640000D02*
X-22600000Y-42640000D01*
X-20260000Y-46140000D02*
X-20740000Y-46140000D01*
X-20500000Y-45810000D01*
X-20260000Y-46140000D01*
G36*
X-20260000Y-46140000D02*
G01*
X-20740000Y-46140000D01*
X-20500000Y-45810000D01*
X-20260000Y-46140000D01*
G37*
%TO.C,R3*%
X-8872936Y-48765000D02*
X-9327064Y-48765000D01*
X-8872936Y-50235000D02*
X-9327064Y-50235000D01*
%TO.C,C2*%
X14038748Y-38465000D02*
X14561252Y-38465000D01*
X14038748Y-39935000D02*
X14561252Y-39935000D01*
%TO.C,R106*%
X16641422Y-17640000D02*
X17158578Y-17640000D01*
X16641422Y-19060000D02*
X17158578Y-19060000D01*
D14*
%TO.C,SW3*%
X-14400000Y-7920000D02*
X-13600000Y-7920000D01*
X-14400000Y-16920000D02*
X-13600000Y-16920000D01*
X-8300000Y-7920000D02*
X-10000000Y-7920000D01*
X-8300000Y-16920000D02*
X-10000000Y-16920000D01*
D12*
%TO.C,C1*%
X17365000Y-42538748D02*
X17365000Y-43061252D01*
X18835000Y-42538748D02*
X18835000Y-43061252D01*
%TO.C,R101*%
X7465000Y-37327064D02*
X7465000Y-36872936D01*
X8935000Y-37327064D02*
X8935000Y-36872936D01*
%TO.C,R105*%
X21103922Y-17640000D02*
X21621078Y-17640000D01*
X21103922Y-19060000D02*
X21621078Y-19060000D01*
%TO.C,C5*%
X20815000Y-60838748D02*
X20815000Y-61361252D01*
X22285000Y-60838748D02*
X22285000Y-61361252D01*
%TO.C,R8*%
X-21472936Y-40665000D02*
X-21927064Y-40665000D01*
X-21472936Y-42135000D02*
X-21927064Y-42135000D01*
%TO.C,C8*%
X-9361252Y-52815000D02*
X-8838748Y-52815000D01*
X-9361252Y-54285000D02*
X-8838748Y-54285000D01*
%TO.C,R1*%
X20815000Y-64877064D02*
X20815000Y-64422936D01*
X22285000Y-64877064D02*
X22285000Y-64422936D01*
%TO.C,R2*%
X-2327064Y-51665000D02*
X-1872936Y-51665000D01*
X-2327064Y-53135000D02*
X-1872936Y-53135000D01*
%TO.C,J10*%
X-23730000Y-56560000D02*
X-23730000Y-56680000D01*
X-23730000Y-56680000D02*
X-21070000Y-56680000D01*
X-22400000Y-54020000D02*
X-21070000Y-54020000D01*
X-21070000Y-54020000D02*
X-21070000Y-55350000D01*
X-21070000Y-56560000D02*
X-21070000Y-56680000D01*
%TO.C,R109*%
X-9327064Y-40115000D02*
X-8872936Y-40115000D01*
X-9327064Y-41585000D02*
X-8872936Y-41585000D01*
%TO.C,R4*%
X-8872936Y-50815000D02*
X-9327064Y-50815000D01*
X-8872936Y-52285000D02*
X-9327064Y-52285000D01*
%TD*%
%LPC*%
D15*
%TO.C,R6*%
X-15250000Y-46312500D03*
X-15250000Y-44487500D03*
%TD*%
D16*
%TO.C,R5*%
X-19487500Y-59900000D03*
X-21312500Y-59900000D03*
%TD*%
D17*
%TO.C,H1*%
X-99575000Y14575000D03*
%TD*%
D18*
%TO.C,C9*%
X-22650000Y-39350000D03*
X-20750000Y-39350000D03*
%TD*%
D19*
%TO.C,C7*%
X-16100000Y-60100000D03*
X-16100000Y-62000000D03*
%TD*%
D17*
%TO.C,H4*%
X20000000Y-6500000D03*
%TD*%
%TO.C,H3*%
X-20000000Y-9500000D03*
%TD*%
D20*
%TO.C,U2*%
X-5350000Y-32185000D03*
D21*
X-5350000Y-33965000D03*
X-5350000Y-35745000D03*
X-5350000Y-37525000D03*
X-5350000Y-39305000D03*
X-5350000Y-41085000D03*
X-5350000Y-42865000D03*
X-5350000Y-44645000D03*
X5350000Y-45535000D03*
X5350000Y-43755000D03*
X5350000Y-41975000D03*
X5350000Y-40195000D03*
X5350000Y-38415000D03*
X5350000Y-36635000D03*
X5350000Y-34855000D03*
X5350000Y-33075000D03*
%TD*%
D22*
%TO.C,C4*%
X-9950000Y-62800000D03*
X-11850000Y-62800000D03*
%TD*%
D23*
%TO.C,J3*%
X-5200000Y-64000000D03*
D24*
X-3950000Y-64000000D03*
X-2700000Y-64000000D03*
X-5200000Y-65250000D03*
X-3950000Y-65250000D03*
X-2700000Y-65250000D03*
%TD*%
D25*
%TO.C,J4*%
X-1450000Y-60050000D03*
D26*
X-3450001Y-60049999D03*
X-5450000Y-60050000D03*
X-7450001Y-60049999D03*
X-9450000Y-60050000D03*
X-11450000Y-60050001D03*
%TD*%
D27*
%TO.C,SW4*%
X10000000Y-15530000D03*
X10000000Y-10450000D03*
X10000000Y-5370000D03*
%TD*%
D18*
%TO.C,C6*%
X-3062500Y-50100000D03*
X-1162500Y-50100000D03*
%TD*%
D28*
%TO.C,U5*%
X-19305000Y-57255000D03*
X-18035000Y-57255000D03*
X-16765000Y-57255000D03*
X-15495000Y-57255000D03*
X-15495000Y-52305000D03*
X-16765000Y-52305000D03*
X-18035000Y-52305000D03*
X-19305000Y-52305000D03*
D29*
X-17400000Y-54780000D03*
%TD*%
D30*
%TO.C,D102*%
X15800000Y-13460000D03*
D31*
X15800000Y-16000000D03*
%TD*%
D18*
%TO.C,C3*%
X-10050000Y-55650000D03*
X-8150000Y-55650000D03*
%TD*%
D32*
%TO.C,J7*%
X-22400000Y-51750000D03*
%TD*%
%TO.C,J1*%
X22450000Y-54250000D03*
D33*
X22450000Y-51710000D03*
X22450000Y-49170000D03*
X22450000Y-46630000D03*
%TD*%
D22*
%TO.C,C104*%
X-8150000Y-37750000D03*
X-10050000Y-37750000D03*
%TD*%
D34*
%TO.C,SW1*%
X-14250000Y-33000000D03*
D35*
X-9100000Y-32500000D03*
D36*
X-20150000Y-27500000D03*
D37*
X-14250000Y-27500000D03*
D36*
X-18050000Y-22500000D03*
D34*
X-14250000Y-22000000D03*
%TD*%
D38*
%TO.C,U1*%
X13237500Y-43887500D03*
X14187500Y-43887500D03*
X15137500Y-43887500D03*
X15137500Y-41612500D03*
X13237500Y-41612500D03*
%TD*%
D39*
%TO.C,U4*%
X19150000Y-66320000D03*
X19150000Y-65050000D03*
X19150000Y-63780000D03*
X19150000Y-62510000D03*
X19150000Y-61240000D03*
X19150000Y-59970000D03*
X19150000Y-58700000D03*
X19150000Y-57430000D03*
X19150000Y-56160000D03*
X19150000Y-54890000D03*
X19150000Y-53620000D03*
X19150000Y-52350000D03*
X19150000Y-51080000D03*
X19150000Y-49810000D03*
D40*
X17385000Y-48560000D03*
X16115000Y-48560000D03*
X14845000Y-48560000D03*
X13575000Y-48560000D03*
X12305000Y-48560000D03*
X11035000Y-48560000D03*
X9765000Y-48560000D03*
X8495000Y-48560000D03*
X7225000Y-48560000D03*
X5955000Y-48560000D03*
X4685000Y-48560000D03*
X3415000Y-48560000D03*
D39*
X1650000Y-49810000D03*
X1650000Y-51080000D03*
X1650000Y-52350000D03*
X1650000Y-53620000D03*
X1650000Y-54890000D03*
X1650000Y-56160000D03*
X1650000Y-57430000D03*
X1650000Y-58700000D03*
X1650000Y-59970000D03*
X1650000Y-61240000D03*
X1650000Y-62510000D03*
X1650000Y-63780000D03*
X1650000Y-65050000D03*
X1650000Y-66320000D03*
D41*
X13300000Y-60000000D03*
X13300000Y-58600000D03*
X13300000Y-57200000D03*
X13300000Y-57200000D03*
X11900000Y-60000000D03*
X11900000Y-60000000D03*
X11900000Y-58600000D03*
X11900000Y-57200000D03*
X10500000Y-60000000D03*
X10500000Y-58600000D03*
X10500000Y-57200000D03*
%TD*%
D17*
%TO.C,H2*%
X-20100000Y-64500000D03*
%TD*%
D16*
%TO.C,R108*%
X-8187500Y-44900000D03*
X-10012500Y-44900000D03*
%TD*%
D15*
%TO.C,R102*%
X9400000Y-42012500D03*
X9400000Y-40187500D03*
%TD*%
D30*
%TO.C,D101*%
X20550000Y-13480000D03*
D31*
X20550000Y-16020000D03*
%TD*%
D42*
%TO.C,R7*%
X-17500000Y-43150000D03*
X-17500000Y-46250000D03*
%TD*%
D43*
%TO.C,U7*%
X-23050000Y-47050000D03*
X-23050000Y-48000000D03*
X-23050000Y-48950000D03*
X-20350000Y-48950000D03*
X-20350000Y-48000000D03*
X-20350000Y-47050000D03*
%TD*%
D44*
%TO.C,U3*%
X-12287500Y-64687500D03*
X-12287500Y-65637500D03*
X-12287500Y-66587500D03*
X-10012500Y-66587500D03*
X-10012500Y-64687500D03*
%TD*%
D45*
%TO.C,R107*%
X-10012500Y-42900000D03*
X-8187500Y-42900000D03*
%TD*%
D34*
%TO.C,SW2*%
X14250000Y-22000000D03*
D35*
X9100000Y-22500000D03*
D36*
X20150000Y-27500000D03*
D37*
X14250000Y-27500000D03*
D36*
X18050000Y-32500000D03*
D34*
X14250000Y-33000000D03*
%TD*%
D46*
%TO.C,U6*%
X-20350000Y-45200000D03*
X-20350000Y-44250000D03*
X-20350000Y-43300000D03*
X-23050000Y-43300000D03*
X-23050000Y-44250000D03*
X-23050000Y-45200000D03*
%TD*%
D16*
%TO.C,R3*%
X-8187500Y-49500000D03*
X-10012500Y-49500000D03*
%TD*%
D18*
%TO.C,C2*%
X13350000Y-39200000D03*
X15250000Y-39200000D03*
%TD*%
D47*
%TO.C,R106*%
X15962500Y-18350000D03*
X17837500Y-18350000D03*
%TD*%
D48*
%TO.C,SW3*%
X-12000000Y-16920000D03*
X-12000000Y-7920000D03*
D49*
X-10000000Y-14920000D03*
X-10000000Y-12420000D03*
X-10000000Y-9920000D03*
%TD*%
D19*
%TO.C,C1*%
X18100000Y-41850000D03*
X18100000Y-43750000D03*
%TD*%
D15*
%TO.C,R101*%
X8200000Y-38012500D03*
X8200000Y-36187500D03*
%TD*%
D47*
%TO.C,R105*%
X20425000Y-18350000D03*
X22300000Y-18350000D03*
%TD*%
D19*
%TO.C,C5*%
X21550000Y-60150000D03*
X21550000Y-62050000D03*
%TD*%
D50*
%TO.C,R8*%
X-20700000Y-41400000D03*
X-22700000Y-41400000D03*
%TD*%
D51*
%TO.C,C8*%
X-10137500Y-53550000D03*
X-8062500Y-53550000D03*
%TD*%
D15*
%TO.C,R1*%
X21550000Y-65562500D03*
X21550000Y-63737500D03*
%TD*%
D45*
%TO.C,R2*%
X-3012500Y-52400000D03*
X-1187500Y-52400000D03*
%TD*%
D32*
%TO.C,J10*%
X-22400000Y-55350000D03*
%TD*%
D45*
%TO.C,R109*%
X-10012500Y-40850000D03*
X-8187500Y-40850000D03*
%TD*%
D16*
%TO.C,R4*%
X-8187500Y-51550000D03*
X-10012500Y-51550000D03*
%TD*%
%LPD*%
M02*
