M48
; DRILL file {KiCad 9.0.1} date 2025-04-29T20:05:43+0200
; FORMAT={-:-/ absolute / inch / decimal}
; #@! TF.CreationDate,2025-04-29T20:05:43+02:00
; #@! TF.GenerationSoftware,Kicad,Pcbnew,9.0.1
; #@! TF.FileFunction,Plated,1,2,PTH
FMAT,2
INCH
; #@! TA.AperFunction,Plated,PTH,ViaDrill
T1C0.0138
; #@! TA.AperFunction,Plated,PTH,ComponentDrill
T2C0.0217
; #@! TA.AperFunction,Plated,PTH,ComponentDrill
T3C0.0276
; #@! TA.AperFunction,Plated,PTH,ComponentDrill
T4C0.0315
; #@! TA.AperFunction,Plated,PTH,ComponentDrill
T5C0.0354
; #@! TA.AperFunction,Plated,PTH,ComponentDrill
T6C0.0394
; #@! TA.AperFunction,Plated,PTH,ComponentDrill
T7C0.0709
%
G90
G05
T1
X-0.9409Y-0.7539
X-0.9043Y-0.4841
X-0.9043Y-0.5447
X-0.9043Y-0.6053
X-0.9043Y-2.1211
X-0.9043Y-2.2423
X-0.9043Y-2.303
X-0.8878Y-1.3169
X-0.8583Y-1.9606
X-0.8437Y-0.4841
X-0.8437Y-0.5447
X-0.8437Y-0.7872
X-0.8437Y-0.8478
X-0.8437Y-0.9085
X-0.8437Y-0.9691
X-0.8437Y-2.2423
X-0.8437Y-2.303
X-0.8437Y-2.4242
X-0.7831Y-0.4841
X-0.7831Y-0.7872
X-0.7831Y-0.9691
X-0.7831Y-2.1817
X-0.7831Y-2.4242
X-0.7224Y-0.4841
X-0.7224Y-0.6659
X-0.7224Y-1.2116
X-0.7224Y-1.2722
X-0.7224Y-1.3329
X-0.7224Y-2.4242
X-0.6618Y-0.3022
X-0.6618Y-0.3628
X-0.6618Y-0.4234
X-0.6618Y-0.6053
X-0.6618Y-0.6659
X-0.6618Y-1.2116
X-0.6618Y-1.2722
X-0.6618Y-1.3329
X-0.6618Y-1.3935
X-0.6618Y-2.5455
X-0.6063Y-1.874
X-0.6012Y-0.3022
X-0.6012Y-0.3628
X-0.6012Y-0.4234
X-0.6012Y-0.6053
X-0.6012Y-0.6659
X-0.6012Y-0.7266
X-0.6012Y-0.7872
X-0.6012Y-1.2116
X-0.6012Y-1.3935
X-0.6012Y-2.1211
X-0.5945Y-2.6457
X-0.5748Y-2.0591
X-0.5662Y-1.9299
X-0.5406Y-0.4234
X-0.5406Y-0.5447
X-0.5406Y-0.7872
X-0.5406Y-1.2116
X-0.5406Y-1.3935
X-0.5406Y-1.4541
X-0.5406Y-2.1817
X-0.5039Y-2.4764
X-0.4799Y-0.7872
X-0.4799Y-0.8478
X-0.4799Y-0.9085
X-0.4799Y-0.9691
X-0.4799Y-1.2116
X-0.4799Y-1.2722
X-0.4799Y-1.3329
X-0.4799Y-1.3935
X-0.4799Y-1.4541
X-0.4799Y-2.0604
X-0.4193Y-0.7872
X-0.4193Y-0.8478
X-0.4193Y-0.9085
X-0.4193Y-0.9691
X-0.4193Y-1.0297
X-0.4193Y-1.0904
X-0.4193Y-1.151
X-0.4193Y-1.2116
X-0.4193Y-1.2722
X-0.4193Y-1.3329
X-0.3957Y-1.4272
X-0.3587Y-0.3022
X-0.3587Y-0.6659
X-0.3587Y-0.7266
X-0.3587Y-0.7872
X-0.3587Y-0.8478
X-0.3587Y-0.9085
X-0.3587Y-0.9691
X-0.3587Y-1.0297
X-0.3587Y-1.0904
X-0.3587Y-1.151
X-0.3587Y-1.2116
X-0.2992Y-1.4252
X-0.2992Y-2.6181
X-0.298Y-0.3022
X-0.298Y-0.3628
X-0.298Y-0.4234
X-0.298Y-0.4841
X-0.298Y-0.5447
X-0.298Y-0.6053
X-0.298Y-0.6659
X-0.298Y-0.7266
X-0.298Y-0.7872
X-0.298Y-0.8478
X-0.298Y-0.9085
X-0.298Y-0.9691
X-0.298Y-1.0297
X-0.298Y-1.0904
X-0.298Y-2.4848
X-0.2539Y-2.5728
X-0.25Y-2.1516
X-0.2018Y-1.8337
X-0.1693Y-2.1063
X-0.1654Y-1.9724
X-0.1614Y-2.0669
X-0.1516Y-2.1358
X-0.0555Y-2.4242
X0.0051Y-2.5455
X0.0098Y-2.063
X0.061Y-1.8701
X0.122Y-2.0138
X0.1264Y-2.2423
X0.1264Y-2.303
X0.1264Y-2.3636
X0.1264Y-2.4242
X0.1264Y-2.4848
X0.1264Y-2.5455
X0.1339Y-2.1063
X0.1378Y-2.1496
X0.1516Y-1.9744
X0.187Y-2.1817
X0.187Y-2.2423
X0.187Y-2.303
X0.187Y-2.3636
X0.187Y-2.4242
X0.187Y-2.4848
X0.187Y-2.5455
X0.2476Y-2.1817
X0.2476Y-2.2423
X0.2476Y-2.303
X0.2476Y-2.3636
X0.2476Y-2.4242
X0.2476Y-2.4848
X0.3083Y-0.2415
X0.3083Y-0.3022
X0.3083Y-0.3628
X0.3083Y-0.4234
X0.3083Y-0.4841
X0.3083Y-0.5447
X0.3083Y-0.6053
X0.3083Y-0.6659
X0.3083Y-0.7266
X0.3083Y-0.7872
X0.3083Y-0.9691
X0.3083Y-1.0297
X0.3083Y-1.0904
X0.3083Y-1.151
X0.3083Y-1.3329
X0.3083Y-2.1817
X0.3083Y-2.2423
X0.3083Y-2.303
X0.3083Y-2.3636
X0.3083Y-2.4242
X0.3083Y-2.5455
X0.3189Y-1.5748
X0.3689Y-0.3022
X0.3689Y-0.4841
X0.3689Y-0.5447
X0.3689Y-0.7266
X0.3689Y-0.7872
X0.3689Y-0.9691
X0.3689Y-1.0297
X0.3689Y-1.0904
X0.3689Y-1.151
X0.3689Y-1.2116
X0.3689Y-1.9998
X0.3689Y-2.1817
X0.3689Y-2.2423
X0.3689Y-2.303
X0.3689Y-2.3636
X0.3689Y-2.4242
X0.3689Y-2.5455
X0.4295Y-0.3022
X0.4295Y-0.4841
X0.4295Y-0.5447
X0.4295Y-0.6659
X0.4295Y-0.7266
X0.4295Y-0.7872
X0.4295Y-0.8478
X0.4295Y-0.9085
X0.4295Y-0.9691
X0.4295Y-1.0297
X0.4295Y-1.0904
X0.4295Y-1.151
X0.4295Y-1.2116
X0.4295Y-1.2722
X0.4295Y-1.4541
X0.4295Y-1.5754
X0.4295Y-1.9998
X0.4295Y-2.1817
X0.4295Y-2.4242
X0.4295Y-2.5455
X0.4902Y-0.2415
X0.4902Y-0.3022
X0.4902Y-0.3628
X0.4902Y-0.7266
X0.4902Y-0.7872
X0.4902Y-0.8478
X0.4902Y-0.9085
X0.4902Y-1.2116
X0.4902Y-1.2722
X0.4902Y-1.3329
X0.4902Y-1.9998
X0.4902Y-2.1817
X0.4902Y-2.4242
X0.4902Y-2.5455
X0.5508Y-0.2415
X0.5508Y-0.3022
X0.5508Y-0.3628
X0.5508Y-0.4234
X0.5508Y-0.4841
X0.5508Y-0.5447
X0.5508Y-0.6053
X0.5508Y-0.7872
X0.5508Y-1.2116
X0.5508Y-1.3935
X0.5508Y-1.8179
X0.5508Y-1.9998
X0.5508Y-2.1817
X0.5508Y-2.4242
X0.5508Y-2.5455
X0.6114Y-0.2415
X0.6114Y-0.3022
X0.6114Y-0.3628
X0.6114Y-0.4234
X0.6114Y-1.2116
X0.6114Y-1.3935
X0.6114Y-1.8179
X0.6114Y-1.9998
X0.6114Y-2.1817
X0.6114Y-2.2423
X0.6114Y-2.303
X0.6114Y-2.3636
X0.6114Y-2.4242
X0.6535Y-1.7657
X0.672Y-0.2415
X0.672Y-0.3022
X0.672Y-0.3628
X0.672Y-0.4234
X0.672Y-0.9085
X0.672Y-0.9691
X0.672Y-1.9998
X0.672Y-2.1817
X0.672Y-2.2423
X0.672Y-2.303
X0.672Y-2.3636
X0.672Y-2.4242
X0.7126Y-2.561
X0.7327Y-0.4234
X0.7327Y-0.4841
X0.7327Y-0.5447
X0.7327Y-0.6053
X0.7327Y-0.6659
X0.7327Y-1.5754
X0.7327Y-1.8179
X0.7327Y-1.8785
X0.7933Y-0.4234
X0.7933Y-1.2116
X0.7933Y-1.3329
X0.7933Y-1.3935
X0.7933Y-1.4541
X0.7933Y-1.5148
X0.7933Y-1.5754
X0.7933Y-1.636
X0.7933Y-1.6967
X0.8539Y-0.4234
X0.8539Y-1.2116
X0.8539Y-1.2722
X0.8539Y-1.3329
X0.8539Y-1.3935
X0.8539Y-1.4541
X0.8539Y-1.5148
X0.8539Y-1.5754
X0.8539Y-1.636
X0.8539Y-1.6967
X0.8583Y-2.2972
X0.8661Y-2.261
X0.874Y-2.211
X0.9114Y-2.2913
X0.9146Y-0.4841
X0.9146Y-0.5447
X0.9146Y-0.6053
X0.9146Y-0.6659
X0.9232Y-1.7402
X0.9488Y-1.8307
X0.9606Y-1.7382
X0.9921Y-1.7224
T2
X-0.2047Y-2.5197
X-0.2047Y-2.5689
X-0.1555Y-2.5197
X-0.1555Y-2.5689
X-0.1063Y-2.5197
X-0.1063Y-2.5689
T3
X-0.2106Y-1.2671
X-0.2106Y-1.3372
X-0.2106Y-1.4073
X-0.2106Y-1.4774
X-0.2106Y-1.5474
X-0.2106Y-1.6175
X-0.2106Y-1.6876
X-0.2106Y-1.7577
X0.2106Y-1.3022
X0.2106Y-1.3722
X0.2106Y-1.4423
X0.2106Y-1.5124
X0.2106Y-1.5825
X0.2106Y-1.6526
X0.2106Y-1.7226
X0.2106Y-1.7927
T4
X-0.4508Y-2.3642
X-0.372Y-2.3642
X-0.2933Y-2.3642
X-0.2146Y-2.3642
X-0.1358Y-2.3642
X-0.0571Y-2.3642
T5
X0.622Y-0.5299
X0.622Y-0.6299
X0.8091Y-0.5307
X0.8091Y-0.6307
T6
X-0.8819Y-2.0374
X-0.8819Y-2.1791
X0.3937Y-0.2114
X0.3937Y-0.4114
X0.3937Y-0.6114
X0.8839Y-1.8358
X0.8839Y-1.9358
X0.8839Y-2.0358
X0.8839Y-2.1358
T3
G00X-0.3996Y-0.3906
M15
G01X-0.3878Y-0.3906
M16
G05
G00X-0.3996Y-0.489
M15
G01X-0.3878Y-0.489
M16
G05
G00X-0.3996Y-0.5874
M15
G01X-0.3878Y-0.5874
M16
G05
T7
G00X-0.4774Y-0.3118
M15
G01X-0.4675Y-0.3118
M16
G05
G00X-0.4774Y-0.6661
M15
G01X-0.4675Y-0.6661
M16
G05
M30
