%TF.GenerationSoftware,KiCad,Pcbnew,8.0.7*%
%TF.CreationDate,2025-01-14T08:36:20+01:00*%
%TF.ProjectId,Trackball,54726163-6b62-4616-9c6c-2e6b69636164,rev?*%
%TF.SameCoordinates,Original*%
%TF.FileFunction,Profile,NP*%
%FSLAX46Y46*%
G04 Gerber Fmt 4.6, Leading zero omitted, Abs format (unit mm)*
G04 Created by KiCad (PCBNEW 8.0.7) date 2025-01-14 08:36:20*
%MOMM*%
%LPD*%
G01*
G04 APERTURE LIST*
%TA.AperFunction,Profile*%
%ADD10C,0.050000*%
%TD*%
G04 APERTURE END LIST*
D10*
X152000000Y-23500000D02*
X152000000Y-72500000D01*
X92000000Y-72500000D02*
X92000000Y-23500000D01*
X103995000Y-39350000D02*
X121245000Y-39350000D01*
X149000000Y-75500000D02*
X95000000Y-75500000D01*
X92000000Y-23500000D02*
G75*
G02*
X95000000Y-20500000I3000000J0D01*
G01*
X152000000Y-72500000D02*
G75*
G02*
X149000000Y-75500000I-3000000J0D01*
G01*
X121245000Y-30350000D02*
G75*
G02*
X121445000Y-30550000I0J-200000D01*
G01*
X95000000Y-20500000D02*
X149000000Y-20500000D01*
X95000000Y-75500000D02*
G75*
G02*
X92000000Y-72500000I0J3000000D01*
G01*
X103795000Y-30550000D02*
G75*
G02*
X103995000Y-30350000I200000J0D01*
G01*
X103995000Y-39350000D02*
G75*
G02*
X103795000Y-39150000I0J200000D01*
G01*
X121445000Y-39150000D02*
X121445000Y-30550000D01*
X103795000Y-30550000D02*
X103795000Y-39150000D01*
X149000000Y-20500000D02*
G75*
G02*
X152000000Y-23500000I0J-3000000D01*
G01*
X121445000Y-39150000D02*
G75*
G02*
X121245000Y-39350000I-200000J0D01*
G01*
X121245000Y-30350000D02*
X103995000Y-30350000D01*
X140900000Y-41700000D02*
X140900000Y-55300000D01*
X141200000Y-55600000D02*
X143000000Y-55600000D01*
X143000000Y-41400000D02*
X141200000Y-41400000D01*
X143300000Y-55300000D02*
X143300000Y-41700000D01*
X140900000Y-41700000D02*
G75*
G02*
X141200000Y-41400000I300000J0D01*
G01*
X141200000Y-55600000D02*
G75*
G02*
X140900000Y-55300000I0J300000D01*
G01*
X143000000Y-41400000D02*
G75*
G02*
X143300000Y-41700000I0J-300000D01*
G01*
X143300000Y-55300000D02*
G75*
G02*
X143000000Y-55600000I-300000J0D01*
G01*
G36*
X103303350Y-56929685D02*
G01*
X103349105Y-56982489D01*
X103360311Y-57033688D01*
X103369689Y-60766614D01*
X103350173Y-60833703D01*
X103297484Y-60879591D01*
X103246617Y-60890923D01*
X99484928Y-60919065D01*
X99417743Y-60899882D01*
X99371594Y-60847422D01*
X99360000Y-60795068D01*
X99360000Y-57034000D01*
X99379685Y-56966961D01*
X99432489Y-56921206D01*
X99484000Y-56910000D01*
X103236311Y-56910000D01*
X103303350Y-56929685D01*
G37*
M02*
