M48
; DRILL file {KiCad 8.0.7} date 2025-01-15T16:08:09+0100
; FORMAT={-:-/ absolute / inch / decimal}
; #@! TF.CreationDate,2025-01-15T16:08:09+01:00
; #@! TF.GenerationSoftware,Kicad,Pcbnew,8.0.7
; #@! TF.FileFunction,Plated,1,2,PTH
FMAT,2
INCH
; #@! TA.AperFunction,Plated,PTH,ViaDrill
T1C0.0138
; #@! TA.AperFunction,Plated,PTH,ComponentDrill
T2C0.0217
; #@! TA.AperFunction,Plated,PTH,ComponentDrill
T3C0.0276
; #@! TA.AperFunction,Plated,PTH,ViaDrill
T4C0.0315
; #@! TA.AperFunction,Plated,PTH,ComponentDrill
T5C0.0350
; #@! TA.AperFunction,Plated,PTH,ComponentDrill
T6C0.0354
; #@! TA.AperFunction,Plated,PTH,ComponentDrill
T7C0.0394
%
G90
G05
T1
X3.6749Y-0.9248
X3.6749Y-0.9854
X3.6749Y-1.046
X3.6749Y-1.1067
X3.6749Y-1.1673
X3.6749Y-1.2279
X3.6749Y-1.8342
X3.6749Y-2.6831
X3.6749Y-2.7437
X3.6749Y-2.8043
X3.6749Y-2.8649
X3.6814Y-2.0051
X3.6988Y-1.4544
X3.7355Y-1.046
X3.7355Y-1.1067
X3.7355Y-1.1673
X3.7355Y-1.2279
X3.7355Y-1.2886
X3.7355Y-1.3492
X3.7355Y-1.7736
X3.7355Y-1.8342
X3.7355Y-2.7437
X3.7355Y-2.9256
X3.7961Y-1.046
X3.7961Y-2.9256
X3.8484Y-2.6924
X3.8568Y-0.8642
X3.8568Y-0.9248
X3.8568Y-0.9854
X3.8568Y-2.0768
X3.8568Y-2.1374
X3.8568Y-2.198
X3.8568Y-2.2586
X3.8568Y-2.3193
X3.8568Y-2.3799
X3.8568Y-2.8043
X3.8568Y-2.8649
X3.8568Y-2.9256
X3.8633Y-1.8612
X3.874Y-2.5256
X3.8888Y-1.5494
X3.9075Y-1.8612
X3.9174Y-0.8642
X3.9174Y-0.9248
X3.9174Y-1.2886
X3.9174Y-2.0768
X3.9174Y-2.1374
X3.9174Y-2.198
X3.9174Y-2.4405
X3.9174Y-2.8649
X3.9174Y-2.9256
X3.9218Y-1.7559
X3.9724Y-2.5236
X3.978Y-1.2886
X3.978Y-1.5311
X3.978Y-2.0768
X3.978Y-2.1374
X3.978Y-2.198
X4.0387Y-1.046
X4.0387Y-2.0768
X4.0387Y-2.1374
X4.0387Y-2.198
X4.0437Y-2.5118
X4.0993Y-0.9854
X4.0993Y-1.046
X4.0993Y-1.6523
X4.0993Y-2.0768
X4.0993Y-2.1374
X4.0993Y-2.198
X4.1329Y-2.4616
X4.1599Y-1.046
X4.1599Y-2.0768
X4.1599Y-2.1374
X4.1599Y-2.198
X4.1599Y-2.2586
X4.1706Y-1.8497
X4.1708Y-2.3437
X4.1811Y-2.811
X4.2008Y-2.3532
X4.2205Y-0.8642
X4.2205Y-1.046
X4.2205Y-2.0768
X4.2205Y-2.1374
X4.2205Y-2.198
X4.2205Y-2.2586
X4.2205Y-2.6831
X4.2205Y-2.7437
X4.2421Y-2.4547
X4.2812Y-1.046
X4.2812Y-1.1067
X4.2812Y-1.7736
X4.2812Y-2.0768
X4.2812Y-2.1374
X4.2812Y-2.198
X4.2812Y-2.2586
X4.2812Y-2.8043
X4.2812Y-2.8649
X4.3276Y-2.5472
X4.3294Y-2.5158
X4.3319Y-2.4844
X4.3418Y-0.9854
X4.3418Y-1.1067
X4.3506Y-1.6949
X4.4024Y-0.8642
X4.4024Y-0.9854
X4.4024Y-1.046
X4.4024Y-1.713
X4.4024Y-2.6224
X4.4024Y-2.6831
X4.4585Y-2.5663
X4.4631Y-1.046
X4.4631Y-1.713
X4.4631Y-2.6831
X4.4631Y-2.7437
X4.4764Y-2.437
X4.492Y-2.5488
X4.5Y-2.4138
X4.5143Y-2.5266
X4.5237Y-1.6523
X4.5237Y-2.198
X4.5237Y-2.6831
X4.5237Y-2.7437
X4.5237Y-2.8043
X4.5366Y-2.5043
X4.5591Y-2.361
X4.5748Y-2.5035
X4.5843Y-0.8642
X4.5843Y-1.7736
X4.5843Y-2.198
X4.5843Y-2.2586
X4.5843Y-2.6831
X4.5843Y-2.7437
X4.5843Y-2.8043
X4.6142Y-2.5039
X4.645Y-0.8642
X4.645Y-1.7736
X4.645Y-1.8342
X4.645Y-1.8949
X4.645Y-2.1374
X4.645Y-2.198
X4.645Y-2.2586
X4.645Y-2.3193
X4.645Y-2.6831
X4.645Y-2.7437
X4.645Y-2.8043
X4.7056Y-0.8642
X4.7056Y-1.5917
X4.7056Y-2.0768
X4.7056Y-2.1374
X4.7056Y-2.198
X4.7056Y-2.2586
X4.7056Y-2.3193
X4.7056Y-2.8043
X4.7662Y-0.8642
X4.7662Y-0.9854
X4.7662Y-1.046
X4.7662Y-1.1067
X4.7662Y-1.8949
X4.7662Y-1.9555
X4.7662Y-2.0161
X4.7662Y-2.0768
X4.7662Y-2.1374
X4.7662Y-2.198
X4.7662Y-2.2586
X4.7662Y-2.3193
X4.8268Y-0.8642
X4.8268Y-0.9248
X4.8268Y-0.9854
X4.8268Y-1.046
X4.8268Y-1.1067
X4.8268Y-1.1673
X4.8268Y-1.2279
X4.8268Y-1.2886
X4.8268Y-1.3492
X4.8268Y-1.4098
X4.8268Y-1.4705
X4.8268Y-1.9555
X4.8268Y-2.0161
X4.8268Y-2.0768
X4.8268Y-2.1374
X4.8268Y-2.198
X4.8268Y-2.2586
X4.8268Y-2.3193
X4.8875Y-0.8642
X4.8875Y-0.9248
X4.8875Y-0.9854
X4.8875Y-1.046
X4.8875Y-1.1067
X4.8875Y-1.1673
X4.8875Y-1.2279
X4.8875Y-1.2886
X4.8875Y-1.3492
X4.8875Y-1.4098
X4.8875Y-1.5917
X4.8875Y-1.9555
X4.8875Y-2.0161
X4.8875Y-2.0768
X4.8875Y-2.1374
X4.8875Y-2.198
X4.8875Y-2.2586
X4.9481Y-0.8642
X4.9481Y-0.9248
X4.9481Y-0.9854
X4.9481Y-1.046
X4.9481Y-1.1067
X4.9481Y-1.1673
X4.9481Y-1.2279
X4.9481Y-1.2886
X4.9481Y-1.3492
X4.9481Y-1.5311
X4.9481Y-1.5917
X4.9481Y-1.8949
X4.9481Y-1.9555
X4.9481Y-2.0161
X4.9481Y-2.0768
X4.9481Y-2.1374
X4.9481Y-2.198
X4.9481Y-2.8043
X4.9481Y-2.8649
X4.9481Y-2.9256
X5.0087Y-0.8642
X5.0087Y-0.9248
X5.0087Y-1.046
X5.0087Y-1.1067
X5.0087Y-1.1673
X5.0087Y-1.2279
X5.0087Y-1.2886
X5.0087Y-1.4705
X5.0087Y-1.5311
X5.0087Y-1.5917
X5.0087Y-2.198
X5.0087Y-2.5012
X5.0087Y-2.5618
X5.0087Y-2.6224
X5.0087Y-2.6831
X5.0087Y-2.7437
X5.0087Y-2.8043
X5.0087Y-2.8649
X5.0087Y-2.9256
X5.0694Y-0.8642
X5.0694Y-0.9248
X5.0694Y-1.046
X5.0694Y-1.1067
X5.0694Y-1.1673
X5.0694Y-1.2279
X5.0694Y-1.2886
X5.0694Y-1.4098
X5.0694Y-1.4705
X5.0694Y-1.5311
X5.0694Y-1.5917
X5.0694Y-2.198
X5.0694Y-2.5012
X5.0694Y-2.5618
X5.0694Y-2.6224
X5.0694Y-2.6831
X5.0694Y-2.7437
X5.0694Y-2.8043
X5.0694Y-2.8649
X5.0694Y-2.9256
X5.13Y-0.8642
X5.13Y-0.9248
X5.13Y-0.9854
X5.13Y-1.046
X5.13Y-1.1067
X5.13Y-1.1673
X5.13Y-1.2279
X5.13Y-1.2886
X5.13Y-1.4098
X5.13Y-1.4705
X5.13Y-1.5311
X5.13Y-1.5917
X5.13Y-1.6523
X5.13Y-1.713
X5.13Y-1.7736
X5.13Y-1.8342
X5.13Y-1.8949
X5.13Y-1.9555
X5.13Y-2.0161
X5.13Y-2.0768
X5.13Y-2.1374
X5.13Y-2.3799
X5.13Y-2.5012
X5.13Y-2.5618
X5.13Y-2.6224
X5.13Y-2.6831
X5.13Y-2.7437
X5.13Y-2.8043
X5.13Y-2.8649
X5.13Y-2.9256
X5.1906Y-0.8642
X5.1906Y-0.9248
X5.1906Y-0.9854
X5.1906Y-1.046
X5.1906Y-1.4098
X5.1906Y-1.5917
X5.1906Y-1.6523
X5.1906Y-2.3799
X5.1906Y-2.7437
X5.1906Y-2.8043
X5.1906Y-2.8649
X5.1906Y-2.9256
X5.2512Y-0.8642
X5.2512Y-1.046
X5.2512Y-1.5917
X5.2512Y-1.7736
X5.2512Y-1.8342
X5.2512Y-1.8949
X5.2512Y-1.9555
X5.2512Y-2.0161
X5.2512Y-2.0768
X5.2512Y-2.1374
X5.2512Y-2.7437
X5.2512Y-2.9256
X5.3119Y-0.8642
X5.3119Y-0.9248
X5.3119Y-1.046
X5.3119Y-1.4705
X5.3119Y-1.5311
X5.3119Y-1.713
X5.3119Y-1.7736
X5.3119Y-1.8342
X5.3119Y-1.8949
X5.3119Y-1.9555
X5.3119Y-2.0161
X5.3119Y-2.0768
X5.3119Y-2.1374
X5.3119Y-2.3193
X5.3119Y-2.9256
X5.3725Y-0.8642
X5.3725Y-0.9248
X5.3725Y-0.9854
X5.3725Y-1.046
X5.3725Y-1.1067
X5.3725Y-1.6523
X5.3725Y-1.713
X5.3725Y-1.7736
X5.3725Y-1.8342
X5.3725Y-1.8949
X5.3725Y-1.9555
X5.3725Y-2.0161
X5.3725Y-2.0768
X5.3725Y-2.1374
X5.3725Y-2.3799
X5.3725Y-2.5012
X5.4331Y-0.8642
X5.4331Y-0.9248
X5.4331Y-1.5917
X5.4331Y-1.6523
X5.4331Y-1.713
X5.4331Y-1.7736
X5.4331Y-1.8342
X5.4331Y-1.8949
X5.4331Y-1.9555
X5.4331Y-2.0161
X5.4331Y-2.0768
X5.4331Y-2.1374
X5.4331Y-2.2586
X5.4331Y-2.3799
X5.4331Y-2.6831
X5.4938Y-0.9248
X5.4938Y-1.3492
X5.4938Y-1.4098
X5.4938Y-1.4705
X5.4938Y-1.5311
X5.4938Y-1.5917
X5.4938Y-1.6523
X5.4938Y-1.713
X5.4938Y-1.7736
X5.4938Y-1.8342
X5.4938Y-1.8949
X5.4938Y-1.9555
X5.4938Y-2.0161
X5.4938Y-2.0768
X5.4938Y-2.1374
X5.4938Y-2.2586
X5.4938Y-2.3193
X5.4938Y-2.3799
X5.4938Y-2.6831
X5.4938Y-2.7437
X5.4938Y-2.8043
X5.4938Y-2.8649
X5.4938Y-2.9256
X5.5544Y-1.3492
X5.5544Y-1.4098
X5.5544Y-1.4705
X5.5544Y-1.5311
X5.5544Y-1.5917
X5.5544Y-2.2586
X5.5544Y-2.3193
X5.5544Y-2.3799
X5.5544Y-2.6831
X5.5544Y-2.7437
X5.5544Y-2.8043
X5.5544Y-2.8649
X5.5544Y-2.9256
X5.615Y-0.8642
X5.615Y-1.046
X5.615Y-1.1067
X5.615Y-1.1673
X5.615Y-1.2279
X5.615Y-1.3492
X5.615Y-1.4098
X5.615Y-1.5917
X5.615Y-2.2586
X5.615Y-2.3799
X5.615Y-2.5012
X5.615Y-2.5618
X5.615Y-2.6224
X5.615Y-2.6831
X5.615Y-2.7437
X5.615Y-2.8043
X5.615Y-2.8649
X5.615Y-2.9256
X5.6757Y-0.8642
X5.6757Y-0.9248
X5.6757Y-1.1067
X5.6757Y-1.3492
X5.6757Y-1.4098
X5.6757Y-1.4705
X5.6757Y-1.5311
X5.6757Y-1.5917
X5.6757Y-1.6523
X5.6757Y-1.713
X5.6757Y-1.7736
X5.6757Y-1.8342
X5.6757Y-1.8949
X5.6757Y-1.9555
X5.6757Y-2.0161
X5.6757Y-2.0768
X5.6757Y-2.1374
X5.6757Y-2.2586
X5.6757Y-2.3193
X5.6757Y-2.3799
X5.6757Y-2.5012
X5.6757Y-2.5618
X5.6757Y-2.6224
X5.6757Y-2.6831
X5.6757Y-2.7437
X5.6757Y-2.8043
X5.6757Y-2.8649
X5.6757Y-2.9256
X5.7363Y-0.8642
X5.7363Y-0.9248
X5.7363Y-0.9854
X5.7363Y-1.8949
X5.7363Y-1.9555
X5.7363Y-2.0161
X5.7363Y-2.0768
X5.7363Y-2.2586
X5.7363Y-2.3193
X5.7363Y-2.3799
X5.7363Y-2.4405
X5.7363Y-2.6831
X5.7363Y-2.7437
X5.7363Y-2.8043
X5.7363Y-2.8649
X5.7363Y-2.9256
X5.7578Y-1.1339
X5.7578Y-1.313
X5.7805Y-1.8593
X5.7969Y-0.8642
X5.7969Y-1.046
X5.7969Y-1.4098
X5.7969Y-1.4705
X5.7969Y-1.5311
X5.7969Y-1.5917
X5.7969Y-1.6523
X5.7969Y-1.713
X5.7969Y-1.7736
X5.7969Y-2.2586
X5.7969Y-2.3193
X5.7969Y-2.3799
X5.7969Y-2.4405
X5.7969Y-2.5012
X5.7969Y-2.6831
X5.7969Y-2.7437
X5.7969Y-2.9256
X5.8575Y-1.046
X5.8575Y-1.1067
X5.8575Y-1.2886
X5.8575Y-1.3492
X5.8575Y-1.4098
X5.8575Y-1.4705
X5.8575Y-1.5311
X5.8575Y-1.5917
X5.8575Y-1.6523
X5.8575Y-2.2586
X5.8575Y-2.3193
X5.8575Y-2.3799
X5.8575Y-2.4405
X5.8575Y-2.5012
X5.8575Y-2.6831
X5.8575Y-2.7437
X5.8575Y-2.9256
X5.9182Y-0.8642
X5.9182Y-1.046
X5.9182Y-1.1067
X5.9182Y-1.2886
X5.9182Y-1.3492
X5.9182Y-1.4098
X5.9182Y-1.4705
X5.9182Y-1.5311
X5.9182Y-1.5917
X5.9182Y-1.6523
X5.9182Y-2.198
X5.9182Y-2.2586
X5.9182Y-2.3193
X5.9182Y-2.3799
X5.9182Y-2.4405
X5.9182Y-2.5012
X5.9182Y-2.6831
X5.9182Y-2.7437
T2
X4.0177Y-2.8701
X4.0177Y-2.9193
X4.0669Y-2.8701
X4.0669Y-2.9193
X4.1161Y-2.8701
X4.1161Y-2.9193
T3
X4.1404Y-1.5807
X4.1754Y-1.1594
X4.2104Y-1.5807
X4.2455Y-1.1594
X4.2805Y-1.5807
X4.3156Y-1.1594
X4.3506Y-1.5807
X4.3856Y-1.1594
X4.4207Y-1.5807
X4.4557Y-1.1594
X4.4907Y-1.5807
X4.5258Y-1.1594
X4.5608Y-1.5807
X4.5959Y-1.1594
X4.6309Y-1.5807
X4.6659Y-1.1594
T4
X3.939Y-2.3228
X3.939Y-2.378
X3.9394Y-2.2677
X3.9941Y-2.2677
X3.9941Y-2.3228
X3.9941Y-2.378
X4.0492Y-2.2677
X4.0492Y-2.3228
X4.0492Y-2.3799
T5
X3.9748Y-0.9055
X4.0748Y-0.9055
X4.1748Y-0.9055
T6
X4.9862Y-1.6457
X5.0344Y-1.7398
X5.0344Y-1.8398
X5.0344Y-1.9398
X5.0344Y-2.0398
X5.0591Y-1.6457
X5.826Y-2.5906
X5.8299Y-1.1791
X5.926Y-2.5906
X5.9299Y-1.1791
T7
X4.3189Y-2.9134
X4.4189Y-2.9134
X4.5189Y-2.9134
X4.6189Y-2.9134
X4.7583Y-2.5795
X4.7583Y-2.6795
X4.7583Y-2.7795
X4.7583Y-2.8795
X4.8583Y-2.5795
X4.8583Y-2.6795
X4.8583Y-2.7795
X4.8583Y-2.8795
X5.2134Y-1.4961
X5.2134Y-2.3228
X5.4134Y-1.4961
X5.4134Y-2.3228
X5.6134Y-1.4961
X5.6134Y-2.3228
X5.874Y-1.7441
X5.874Y-1.8441
X5.874Y-1.9441
X5.874Y-2.0441
M30
