%TF.GenerationSoftware,KiCad,Pcbnew,8.0.7*%
%TF.CreationDate,2025-01-15T16:08:07+01:00*%
%TF.ProjectId,Trackball,54726163-6b62-4616-9c6c-2e6b69636164,rev?*%
%TF.SameCoordinates,Original*%
%TF.FileFunction,Paste,Top*%
%TF.FilePolarity,Positive*%
%FSLAX46Y46*%
G04 Gerber Fmt 4.6, Leading zero omitted, Abs format (unit mm)*
G04 Created by KiCad (PCBNEW 8.0.7) date 2025-01-15 16:08:07*
%MOMM*%
%LPD*%
G01*
G04 APERTURE LIST*
G04 Aperture macros list*
%AMRoundRect*
0 Rectangle with rounded corners*
0 $1 Rounding radius*
0 $2 $3 $4 $5 $6 $7 $8 $9 X,Y pos of 4 corners*
0 Add a 4 corners polygon primitive as box body*
4,1,4,$2,$3,$4,$5,$6,$7,$8,$9,$2,$3,0*
0 Add four circle primitives for the rounded corners*
1,1,$1+$1,$2,$3*
1,1,$1+$1,$4,$5*
1,1,$1+$1,$6,$7*
1,1,$1+$1,$8,$9*
0 Add four rect primitives between the rounded corners*
20,1,$1+$1,$2,$3,$4,$5,0*
20,1,$1+$1,$4,$5,$6,$7,0*
20,1,$1+$1,$6,$7,$8,$9,0*
20,1,$1+$1,$8,$9,$2,$3,0*%
G04 Aperture macros list end*
%ADD10R,0.650000X1.060000*%
%ADD11R,0.900000X1.500000*%
%ADD12R,1.500000X0.900000*%
%ADD13R,0.900000X0.900000*%
%ADD14RoundRect,0.250000X-0.250000X-0.475000X0.250000X-0.475000X0.250000X0.475000X-0.250000X0.475000X0*%
%ADD15R,1.000000X2.800000*%
%ADD16RoundRect,0.250000X0.475000X-0.250000X0.475000X0.250000X-0.475000X0.250000X-0.475000X-0.250000X0*%
%ADD17RoundRect,0.250000X-0.262500X-0.450000X0.262500X-0.450000X0.262500X0.450000X-0.262500X0.450000X0*%
%ADD18RoundRect,0.250000X0.262500X0.450000X-0.262500X0.450000X-0.262500X-0.450000X0.262500X-0.450000X0*%
%ADD19RoundRect,0.250000X0.450000X-0.262500X0.450000X0.262500X-0.450000X0.262500X-0.450000X-0.262500X0*%
%ADD20RoundRect,0.250000X0.250000X0.475000X-0.250000X0.475000X-0.250000X-0.475000X0.250000X-0.475000X0*%
%ADD21RoundRect,0.150000X-0.150000X0.512500X-0.150000X-0.512500X0.150000X-0.512500X0.150000X0.512500X0*%
%ADD22RoundRect,0.250000X-0.450000X0.262500X-0.450000X-0.262500X0.450000X-0.262500X0.450000X0.262500X0*%
%ADD23RoundRect,0.250000X-0.475000X0.250000X-0.475000X-0.250000X0.475000X-0.250000X0.475000X0.250000X0*%
%ADD24RoundRect,0.243750X0.456250X-0.243750X0.456250X0.243750X-0.456250X0.243750X-0.456250X-0.243750X0*%
%ADD25RoundRect,0.243750X-0.456250X0.243750X-0.456250X-0.243750X0.456250X-0.243750X0.456250X0.243750X0*%
G04 APERTURE END LIST*
D10*
X95900000Y-42900000D03*
X94950000Y-42900000D03*
X94000000Y-42900000D03*
X94000000Y-45100000D03*
X95900000Y-45100000D03*
D11*
X93740000Y-66250000D03*
X95010000Y-66250000D03*
X96280000Y-66250000D03*
X97550000Y-66250000D03*
X98820000Y-66250000D03*
X100090000Y-66250000D03*
X101360000Y-66250000D03*
X102630000Y-66250000D03*
X103900000Y-66250000D03*
X105170000Y-66250000D03*
X106440000Y-66250000D03*
X107710000Y-66250000D03*
X108980000Y-66250000D03*
X110250000Y-66250000D03*
D12*
X111500000Y-64485000D03*
X111500000Y-63215000D03*
X111500000Y-61945000D03*
X111500000Y-60675000D03*
X111500000Y-59405000D03*
X111500000Y-58135000D03*
X111500000Y-56865000D03*
X111500000Y-55595000D03*
X111500000Y-54325000D03*
X111500000Y-53055000D03*
X111500000Y-51785000D03*
X111500000Y-50515000D03*
D11*
X110250000Y-48750000D03*
X108980000Y-48750000D03*
X107710000Y-48750000D03*
X106440000Y-48750000D03*
X105170000Y-48750000D03*
X103900000Y-48750000D03*
X102630000Y-48750000D03*
X101360000Y-48750000D03*
X100090000Y-48750000D03*
X98820000Y-48750000D03*
X97550000Y-48750000D03*
X96280000Y-48750000D03*
X95010000Y-48750000D03*
X93740000Y-48750000D03*
D13*
X100060000Y-60400000D03*
X101460000Y-60400000D03*
X102860000Y-60400000D03*
X102860000Y-60400000D03*
X100060000Y-59000000D03*
X100060000Y-59000000D03*
X101460000Y-59000000D03*
X102860000Y-59000000D03*
X100060000Y-57600000D03*
X101460000Y-57600000D03*
X102860000Y-57600000D03*
D14*
X116850000Y-27300000D03*
X118750000Y-27300000D03*
D15*
X96050000Y-35550000D03*
X96050000Y-29750000D03*
X100050000Y-35550000D03*
X100050000Y-29750000D03*
D16*
X98050000Y-44150000D03*
X98050000Y-42250000D03*
D17*
X100487500Y-40550000D03*
X102312500Y-40550000D03*
D16*
X104800000Y-70200000D03*
X104800000Y-68300000D03*
D18*
X113962500Y-44850000D03*
X112137500Y-44850000D03*
D19*
X100550000Y-70162500D03*
X100550000Y-68337500D03*
D20*
X110450000Y-23000000D03*
X108550000Y-23000000D03*
D19*
X102600000Y-31662500D03*
X102600000Y-29837500D03*
D21*
X114912500Y-22962500D03*
X113962500Y-22962500D03*
X113012500Y-22962500D03*
X113012500Y-25237500D03*
X114912500Y-25237500D03*
D22*
X113950000Y-46937500D03*
X113950000Y-48762500D03*
D16*
X123750000Y-44900000D03*
X123750000Y-43000000D03*
D14*
X116850000Y-25200000D03*
X118750000Y-25200000D03*
D16*
X94000000Y-40450000D03*
X94000000Y-38550000D03*
D23*
X93650000Y-33650000D03*
X93650000Y-35550000D03*
D24*
X145400000Y-65787500D03*
X145400000Y-63912500D03*
D23*
X102650000Y-68300000D03*
X102650000Y-70200000D03*
D16*
X123700000Y-48500000D03*
X123700000Y-46600000D03*
D18*
X117812500Y-42450000D03*
X115987500Y-42450000D03*
D25*
X145150000Y-29912500D03*
X145150000Y-31787500D03*
D16*
X116450000Y-48837500D03*
X116450000Y-46937500D03*
D18*
X102312500Y-42600000D03*
X100487500Y-42600000D03*
G36*
X103303350Y-56929685D02*
G01*
X103349105Y-56982489D01*
X103360311Y-57033688D01*
X103369689Y-60766614D01*
X103350173Y-60833703D01*
X103297484Y-60879591D01*
X103246617Y-60890923D01*
X99484928Y-60919065D01*
X99417743Y-60899882D01*
X99371594Y-60847422D01*
X99360000Y-60795068D01*
X99360000Y-57034000D01*
X99379685Y-56966961D01*
X99432489Y-56921206D01*
X99484000Y-56910000D01*
X103236311Y-56910000D01*
X103303350Y-56929685D01*
G37*
M02*
