%TF.GenerationSoftware,KiCad,Pcbnew,8.0.7*%
%TF.CreationDate,2025-01-13T13:49:24+01:00*%
%TF.ProjectId,Trackball,54726163-6b62-4616-9c6c-2e6b69636164,rev?*%
%TF.SameCoordinates,Original*%
%TF.FileFunction,Drillmap*%
%TF.FilePolarity,Positive*%
%FSLAX45Y45*%
G04 Gerber Fmt 4.5, Leading zero omitted, Abs format (unit mm)*
G04 Created by KiCad (PCBNEW 8.0.7) date 2025-01-13 13:49:24*
%MOMM*%
%LPD*%
G01*
G04 APERTURE LIST*
%ADD10C,0.050000*%
%ADD11C,0.200000*%
%ADD12C,0.100000*%
G04 APERTURE END LIST*
D10*
X10399500Y-3935000D02*
X12124500Y-3935000D01*
X12124500Y-3035000D02*
G75*
G02*
X12144500Y-3055000I0J-20000D01*
G01*
X9200000Y-2050000D02*
X15200000Y-2050000D01*
X15200000Y-7550000D01*
X9200000Y-7550000D01*
X9200000Y-2050000D01*
X10379500Y-3055000D02*
G75*
G02*
X10399500Y-3035000I20000J0D01*
G01*
X10399500Y-3935000D02*
G75*
G02*
X10379500Y-3915000I0J20000D01*
G01*
X12144500Y-3915000D02*
X12144500Y-3055000D01*
X10379500Y-3055000D02*
X10379500Y-3915000D01*
X12144500Y-3915000D02*
G75*
G02*
X12124500Y-3935000I-20000J0D01*
G01*
X12124500Y-3035000D02*
X10399500Y-3035000D01*
X14090000Y-4170000D02*
X14090000Y-5530000D01*
X14120000Y-5560000D02*
X14300000Y-5560000D01*
X14300000Y-4140000D02*
X14120000Y-4140000D01*
X14330000Y-5530000D02*
X14330000Y-4170000D01*
X14090000Y-4170000D02*
G75*
G02*
X14120000Y-4140000I30000J0D01*
G01*
X14120000Y-5560000D02*
G75*
G02*
X14090000Y-5530000I0J30000D01*
G01*
X14300000Y-4140000D02*
G75*
G02*
X14330000Y-4170000I0J-30000D01*
G01*
X14330000Y-5530000D02*
G75*
G02*
X14300000Y-5560000I-30000J0D01*
G01*
D11*
D12*
X9341500Y-2177460D02*
X9376500Y-2212460D01*
X9376500Y-2177460D02*
X9341500Y-2212460D01*
X9341500Y-2639460D02*
X9376500Y-2674460D01*
X9376500Y-2639460D02*
X9341500Y-2674460D01*
X9341500Y-2793460D02*
X9376500Y-2828460D01*
X9376500Y-2793460D02*
X9341500Y-2828460D01*
X9341500Y-2947460D02*
X9376500Y-2982460D01*
X9376500Y-2947460D02*
X9341500Y-2982460D01*
X9341500Y-3101460D02*
X9376500Y-3136460D01*
X9376500Y-3101460D02*
X9341500Y-3136460D01*
X9341500Y-3717460D02*
X9376500Y-3752460D01*
X9376500Y-3717460D02*
X9341500Y-3752460D01*
X9341500Y-4641460D02*
X9376500Y-4676460D01*
X9376500Y-4641460D02*
X9341500Y-4676460D01*
X9341500Y-5257460D02*
X9376500Y-5292460D01*
X9376500Y-5257460D02*
X9341500Y-5292460D01*
X9341500Y-5411460D02*
X9376500Y-5446460D01*
X9376500Y-5411460D02*
X9341500Y-5446460D01*
X9341500Y-5565460D02*
X9376500Y-5600460D01*
X9376500Y-5565460D02*
X9341500Y-5600460D01*
X9341500Y-5719460D02*
X9376500Y-5754460D01*
X9376500Y-5719460D02*
X9341500Y-5754460D01*
X9341500Y-5873460D02*
X9376500Y-5908460D01*
X9376500Y-5873460D02*
X9341500Y-5908460D01*
X9341500Y-6027460D02*
X9376500Y-6062460D01*
X9376500Y-6027460D02*
X9341500Y-6062460D01*
X9341500Y-6181460D02*
X9376500Y-6216460D01*
X9376500Y-6181460D02*
X9341500Y-6216460D01*
X9341500Y-6335460D02*
X9376500Y-6370460D01*
X9376500Y-6335460D02*
X9341500Y-6370460D01*
X9341500Y-6797460D02*
X9376500Y-6832460D01*
X9376500Y-6797460D02*
X9341500Y-6832460D01*
X9341500Y-6951460D02*
X9376500Y-6986460D01*
X9376500Y-6951460D02*
X9341500Y-6986460D01*
X9341500Y-7413460D02*
X9376500Y-7448460D01*
X9376500Y-7413460D02*
X9341500Y-7448460D01*
X9495500Y-2639460D02*
X9530500Y-2674460D01*
X9530500Y-2639460D02*
X9495500Y-2674460D01*
X9495500Y-3255460D02*
X9530500Y-3290460D01*
X9530500Y-3255460D02*
X9495500Y-3290460D01*
X9495500Y-4641460D02*
X9530500Y-4676460D01*
X9530500Y-4641460D02*
X9495500Y-4676460D01*
X9495500Y-6951460D02*
X9530500Y-6986460D01*
X9530500Y-6951460D02*
X9495500Y-6986460D01*
X9495500Y-7413460D02*
X9530500Y-7448460D01*
X9530500Y-7413460D02*
X9495500Y-7448460D01*
X9518340Y-5363520D02*
X9553340Y-5398520D01*
X9553340Y-5363520D02*
X9518340Y-5398520D01*
X9649500Y-2177460D02*
X9684500Y-2212460D01*
X9684500Y-2177460D02*
X9649500Y-2212460D01*
X9649500Y-2639460D02*
X9684500Y-2674460D01*
X9684500Y-2639460D02*
X9649500Y-2674460D01*
X9649500Y-3255460D02*
X9684500Y-3290460D01*
X9684500Y-3255460D02*
X9649500Y-3290460D01*
X9649500Y-4641460D02*
X9684500Y-4676460D01*
X9684500Y-4641460D02*
X9649500Y-4676460D01*
X9649500Y-5257460D02*
X9684500Y-5292460D01*
X9684500Y-5257460D02*
X9649500Y-5292460D01*
X9649500Y-5411460D02*
X9684500Y-5446460D01*
X9684500Y-5411460D02*
X9649500Y-5446460D01*
X9649500Y-5565460D02*
X9684500Y-5600460D01*
X9684500Y-5565460D02*
X9649500Y-5600460D01*
X9649500Y-6181460D02*
X9684500Y-6216460D01*
X9684500Y-6181460D02*
X9649500Y-6216460D01*
X9649500Y-6335460D02*
X9684500Y-6370460D01*
X9684500Y-6335460D02*
X9649500Y-6370460D01*
X9649500Y-7413460D02*
X9684500Y-7448460D01*
X9684500Y-7413460D02*
X9649500Y-7448460D01*
X9671670Y-3910870D02*
X9706670Y-3945870D01*
X9706670Y-3910870D02*
X9671670Y-3945870D01*
X9719210Y-6821380D02*
X9754210Y-6856380D01*
X9754210Y-6821380D02*
X9719210Y-6856380D01*
X9800170Y-4989530D02*
X9835170Y-5024530D01*
X9835170Y-4989530D02*
X9800170Y-5024530D01*
X9803500Y-2177460D02*
X9838500Y-2212460D01*
X9838500Y-2177460D02*
X9803500Y-2212460D01*
X9803500Y-2331460D02*
X9838500Y-2366460D01*
X9838500Y-2331460D02*
X9803500Y-2366460D01*
X9803500Y-4025460D02*
X9838500Y-4060460D01*
X9838500Y-4025460D02*
X9803500Y-4060460D01*
X9803500Y-4179460D02*
X9838500Y-4214460D01*
X9838500Y-4179460D02*
X9803500Y-4214460D01*
X9803500Y-5257460D02*
X9838500Y-5292460D01*
X9838500Y-5257460D02*
X9803500Y-5292460D01*
X9803500Y-5411460D02*
X9838500Y-5446460D01*
X9838500Y-5411460D02*
X9803500Y-5446460D01*
X9803500Y-5565460D02*
X9838500Y-5600460D01*
X9838500Y-5565460D02*
X9803500Y-5600460D01*
X9803500Y-6181460D02*
X9838500Y-6216460D01*
X9838500Y-6181460D02*
X9803500Y-6216460D01*
X9803500Y-6335460D02*
X9838500Y-6370460D01*
X9838500Y-6335460D02*
X9803500Y-6370460D01*
X9803500Y-7259460D02*
X9838500Y-7294460D01*
X9838500Y-7259460D02*
X9803500Y-7294460D01*
X9803500Y-7413460D02*
X9838500Y-7448460D01*
X9838500Y-7413460D02*
X9803500Y-7448460D01*
X9889180Y-5075380D02*
X9924180Y-5110380D01*
X9924180Y-5075380D02*
X9889180Y-5110380D01*
X9935300Y-4423770D02*
X9970300Y-4458770D01*
X9970300Y-4423770D02*
X9935300Y-4458770D01*
X9957500Y-2177460D02*
X9992500Y-2212460D01*
X9992500Y-2177460D02*
X9957500Y-2212460D01*
X9957500Y-2639460D02*
X9992500Y-2674460D01*
X9992500Y-2639460D02*
X9957500Y-2674460D01*
X9957500Y-3255460D02*
X9992500Y-3290460D01*
X9992500Y-3255460D02*
X9957500Y-3290460D01*
X9957500Y-4025460D02*
X9992500Y-4060460D01*
X9992500Y-4025460D02*
X9957500Y-4060460D01*
X9957500Y-4179460D02*
X9992500Y-4214460D01*
X9992500Y-4179460D02*
X9957500Y-4214460D01*
X9957500Y-5411460D02*
X9992500Y-5446460D01*
X9992500Y-5411460D02*
X9957500Y-5446460D01*
X9957500Y-5565460D02*
X9992500Y-5600460D01*
X9992500Y-5565460D02*
X9957500Y-5600460D01*
X9957500Y-6181460D02*
X9992500Y-6216460D01*
X9992500Y-6181460D02*
X9957500Y-6216460D01*
X9957500Y-6335460D02*
X9992500Y-6370460D01*
X9992500Y-6335460D02*
X9957500Y-6370460D01*
X9957500Y-7413460D02*
X9992500Y-7448460D01*
X9992500Y-7413460D02*
X9957500Y-7448460D01*
X10111500Y-2485460D02*
X10146500Y-2520460D01*
X10146500Y-2485460D02*
X10111500Y-2520460D01*
X10111500Y-2639460D02*
X10146500Y-2674460D01*
X10146500Y-2639460D02*
X10111500Y-2674460D01*
X10111500Y-2793460D02*
X10146500Y-2828460D01*
X10146500Y-2793460D02*
X10111500Y-2828460D01*
X10111500Y-2947460D02*
X10146500Y-2982460D01*
X10146500Y-2947460D02*
X10111500Y-2982460D01*
X10111500Y-3101460D02*
X10146500Y-3136460D01*
X10146500Y-3101460D02*
X10111500Y-3136460D01*
X10111500Y-3255460D02*
X10146500Y-3290460D01*
X10146500Y-3255460D02*
X10111500Y-3290460D01*
X10111500Y-3409460D02*
X10146500Y-3444460D01*
X10146500Y-3409460D02*
X10111500Y-3444460D01*
X10111500Y-3563460D02*
X10146500Y-3598460D01*
X10146500Y-3563460D02*
X10111500Y-3598460D01*
X10111500Y-3717460D02*
X10146500Y-3752460D01*
X10146500Y-3717460D02*
X10111500Y-3752460D01*
X10111500Y-4025460D02*
X10146500Y-4060460D01*
X10146500Y-4025460D02*
X10111500Y-4060460D01*
X10111500Y-4179460D02*
X10146500Y-4214460D01*
X10146500Y-4179460D02*
X10111500Y-4214460D01*
X10111500Y-5565460D02*
X10146500Y-5600460D01*
X10146500Y-5565460D02*
X10111500Y-5600460D01*
X10111500Y-6181460D02*
X10146500Y-6216460D01*
X10146500Y-6181460D02*
X10111500Y-6216460D01*
X10111500Y-6335460D02*
X10146500Y-6370460D01*
X10146500Y-6335460D02*
X10111500Y-6370460D01*
X10265500Y-5257460D02*
X10300500Y-5292460D01*
X10300500Y-5257460D02*
X10265500Y-5292460D01*
X10265500Y-5719460D02*
X10300500Y-5754460D01*
X10300500Y-5719460D02*
X10265500Y-5754460D01*
X10265500Y-5873460D02*
X10300500Y-5908460D01*
X10300500Y-5873460D02*
X10265500Y-5908460D01*
X10265500Y-6027460D02*
X10300500Y-6062460D01*
X10300500Y-6027460D02*
X10265500Y-6062460D01*
X10265500Y-6181460D02*
X10300500Y-6216460D01*
X10300500Y-6181460D02*
X10265500Y-6216460D01*
X10265500Y-6335460D02*
X10300500Y-6370460D01*
X10300500Y-6335460D02*
X10265500Y-6370460D01*
X10269080Y-3910870D02*
X10304080Y-3945870D01*
X10304080Y-3910870D02*
X10269080Y-3945870D01*
X10292500Y-4087500D02*
X10327500Y-4122500D01*
X10327500Y-4087500D02*
X10292500Y-4122500D01*
X10419500Y-2639460D02*
X10454500Y-2674460D01*
X10454500Y-2639460D02*
X10419500Y-2674460D01*
X10419500Y-2793460D02*
X10454500Y-2828460D01*
X10454500Y-2793460D02*
X10419500Y-2828460D01*
X10419500Y-4641460D02*
X10454500Y-4676460D01*
X10454500Y-4641460D02*
X10419500Y-4676460D01*
X10419500Y-5257460D02*
X10454500Y-5292460D01*
X10454500Y-5257460D02*
X10419500Y-5292460D01*
X10419500Y-5411460D02*
X10454500Y-5446460D01*
X10454500Y-5411460D02*
X10419500Y-5446460D01*
X10423150Y-4495320D02*
X10458150Y-4530320D01*
X10458150Y-4495320D02*
X10423150Y-4530320D01*
X10517500Y-4427500D02*
X10552500Y-4462500D01*
X10552500Y-4427500D02*
X10517500Y-4462500D01*
X10573500Y-2639460D02*
X10608500Y-2674460D01*
X10608500Y-2639460D02*
X10573500Y-2674460D01*
X10573500Y-2793460D02*
X10608500Y-2828460D01*
X10608500Y-2793460D02*
X10573500Y-2828460D01*
X10573500Y-7413460D02*
X10608500Y-7448460D01*
X10608500Y-7413460D02*
X10573500Y-7448460D01*
X10727500Y-2177460D02*
X10762500Y-2212460D01*
X10762500Y-2177460D02*
X10727500Y-2212460D01*
X10727500Y-2793460D02*
X10762500Y-2828460D01*
X10762500Y-2793460D02*
X10727500Y-2828460D01*
X10727500Y-4333460D02*
X10762500Y-4368460D01*
X10762500Y-4333460D02*
X10727500Y-4368460D01*
X10727500Y-4487460D02*
X10762500Y-4522460D01*
X10762500Y-4487460D02*
X10727500Y-4522460D01*
X10727500Y-5257460D02*
X10762500Y-5292460D01*
X10762500Y-5257460D02*
X10727500Y-5292460D01*
X10727500Y-5411460D02*
X10762500Y-5446460D01*
X10762500Y-5411460D02*
X10727500Y-5446460D01*
X10727500Y-5565460D02*
X10762500Y-5600460D01*
X10762500Y-5565460D02*
X10727500Y-5600460D01*
X10727500Y-5719460D02*
X10762500Y-5754460D01*
X10762500Y-5719460D02*
X10727500Y-5754460D01*
X10727500Y-5873460D02*
X10762500Y-5908460D01*
X10762500Y-5873460D02*
X10727500Y-5908460D01*
X10727500Y-6027460D02*
X10762500Y-6062460D01*
X10762500Y-6027460D02*
X10727500Y-6062460D01*
X10727500Y-6181460D02*
X10762500Y-6216460D01*
X10762500Y-6181460D02*
X10727500Y-6216460D01*
X10727500Y-6335460D02*
X10762500Y-6370460D01*
X10762500Y-6335460D02*
X10727500Y-6370460D01*
X10727500Y-6797460D02*
X10762500Y-6832460D01*
X10762500Y-6797460D02*
X10727500Y-6832460D01*
X10727500Y-6951460D02*
X10762500Y-6986460D01*
X10762500Y-6951460D02*
X10727500Y-6986460D01*
X10727500Y-7413460D02*
X10762500Y-7448460D01*
X10762500Y-7413460D02*
X10727500Y-7448460D01*
X10749190Y-5075220D02*
X10784190Y-5110220D01*
X10784190Y-5075220D02*
X10749190Y-5110220D01*
X10843260Y-5013020D02*
X10878260Y-5048020D01*
X10878260Y-5013020D02*
X10843260Y-5048020D01*
X10864010Y-4709690D02*
X10899010Y-4744690D01*
X10899010Y-4709690D02*
X10864010Y-4744690D01*
X10881500Y-2485460D02*
X10916500Y-2520460D01*
X10916500Y-2485460D02*
X10881500Y-2520460D01*
X10881500Y-4179460D02*
X10916500Y-4214460D01*
X10916500Y-4179460D02*
X10881500Y-4214460D01*
X10881500Y-4333460D02*
X10916500Y-4368460D01*
X10916500Y-4333460D02*
X10881500Y-4368460D01*
X10881500Y-4487460D02*
X10916500Y-4522460D01*
X10916500Y-4487460D02*
X10881500Y-4522460D01*
X10881500Y-5257460D02*
X10916500Y-5292460D01*
X10916500Y-5257460D02*
X10881500Y-5292460D01*
X10881500Y-5411460D02*
X10916500Y-5446460D01*
X10916500Y-5411460D02*
X10881500Y-5446460D01*
X10881500Y-5565460D02*
X10916500Y-5600460D01*
X10916500Y-5565460D02*
X10881500Y-5600460D01*
X10881500Y-5719460D02*
X10916500Y-5754460D01*
X10916500Y-5719460D02*
X10881500Y-5754460D01*
X10881500Y-5873460D02*
X10916500Y-5908460D01*
X10916500Y-5873460D02*
X10881500Y-5908460D01*
X10881500Y-6027460D02*
X10916500Y-6062460D01*
X10916500Y-6027460D02*
X10881500Y-6062460D01*
X10881500Y-6181460D02*
X10916500Y-6216460D01*
X10916500Y-6181460D02*
X10881500Y-6216460D01*
X10881500Y-6335460D02*
X10916500Y-6370460D01*
X10916500Y-6335460D02*
X10881500Y-6370460D01*
X10881500Y-7105460D02*
X10916500Y-7140460D01*
X10916500Y-7105460D02*
X10881500Y-7140460D01*
X11035500Y-2485460D02*
X11070500Y-2520460D01*
X11070500Y-2485460D02*
X11035500Y-2520460D01*
X11035500Y-2639460D02*
X11070500Y-2674460D01*
X11070500Y-2639460D02*
X11035500Y-2674460D01*
X11142500Y-4772500D02*
X11177500Y-4807500D01*
X11177500Y-4772500D02*
X11142500Y-4807500D01*
X11189500Y-2177460D02*
X11224500Y-2212460D01*
X11224500Y-2177460D02*
X11189500Y-2212460D01*
X11189500Y-2485460D02*
X11224500Y-2520460D01*
X11224500Y-2485460D02*
X11189500Y-2520460D01*
X11189500Y-2639460D02*
X11224500Y-2674460D01*
X11224500Y-2639460D02*
X11189500Y-2674460D01*
X11189500Y-2793460D02*
X11224500Y-2828460D01*
X11224500Y-2793460D02*
X11189500Y-2828460D01*
X11189500Y-6643460D02*
X11224500Y-6678460D01*
X11224500Y-6643460D02*
X11189500Y-6678460D01*
X11189500Y-6797460D02*
X11224500Y-6832460D01*
X11224500Y-6797460D02*
X11189500Y-6832460D01*
X11189500Y-6951460D02*
X11224500Y-6986460D01*
X11224500Y-6951460D02*
X11189500Y-6986460D01*
X11232500Y-4687500D02*
X11267500Y-4722500D01*
X11267500Y-4687500D02*
X11232500Y-4722500D01*
X11343500Y-4179460D02*
X11378500Y-4214460D01*
X11378500Y-4179460D02*
X11343500Y-4214460D01*
X11343500Y-4333460D02*
X11378500Y-4368460D01*
X11378500Y-4333460D02*
X11343500Y-4368460D01*
X11343500Y-5719460D02*
X11378500Y-5754460D01*
X11378500Y-5719460D02*
X11343500Y-5754460D01*
X11343500Y-6027460D02*
X11378500Y-6062460D01*
X11378500Y-6027460D02*
X11343500Y-6062460D01*
X11343500Y-6181460D02*
X11378500Y-6216460D01*
X11378500Y-6181460D02*
X11343500Y-6216460D01*
X11343500Y-6643460D02*
X11378500Y-6678460D01*
X11378500Y-6643460D02*
X11343500Y-6678460D01*
X11343500Y-6797460D02*
X11378500Y-6832460D01*
X11378500Y-6797460D02*
X11343500Y-6832460D01*
X11343500Y-6951460D02*
X11378500Y-6986460D01*
X11378500Y-6951460D02*
X11343500Y-6986460D01*
X11343500Y-7105460D02*
X11378500Y-7140460D01*
X11378500Y-7105460D02*
X11343500Y-7140460D01*
X11497500Y-2639460D02*
X11532500Y-2674460D01*
X11532500Y-2639460D02*
X11497500Y-2674460D01*
X11497500Y-4949460D02*
X11532500Y-4984460D01*
X11532500Y-4949460D02*
X11497500Y-4984460D01*
X11497500Y-5719460D02*
X11532500Y-5754460D01*
X11532500Y-5719460D02*
X11497500Y-5754460D01*
X11497500Y-6027460D02*
X11532500Y-6062460D01*
X11532500Y-6027460D02*
X11497500Y-6062460D01*
X11497500Y-6181460D02*
X11532500Y-6216460D01*
X11532500Y-6181460D02*
X11497500Y-6216460D01*
X11497500Y-6643460D02*
X11532500Y-6678460D01*
X11532500Y-6643460D02*
X11497500Y-6678460D01*
X11497500Y-6797460D02*
X11532500Y-6832460D01*
X11532500Y-6797460D02*
X11497500Y-6832460D01*
X11497500Y-6951460D02*
X11532500Y-6986460D01*
X11532500Y-6951460D02*
X11497500Y-6986460D01*
X11497500Y-7105460D02*
X11532500Y-7140460D01*
X11532500Y-7105460D02*
X11497500Y-7140460D01*
X11651500Y-2177460D02*
X11686500Y-2212460D01*
X11686500Y-2177460D02*
X11651500Y-2212460D01*
X11651500Y-2331460D02*
X11686500Y-2366460D01*
X11686500Y-2331460D02*
X11651500Y-2366460D01*
X11651500Y-5719460D02*
X11686500Y-5754460D01*
X11686500Y-5719460D02*
X11651500Y-5754460D01*
X11651500Y-6027460D02*
X11686500Y-6062460D01*
X11686500Y-6027460D02*
X11651500Y-6062460D01*
X11651500Y-6181460D02*
X11686500Y-6216460D01*
X11686500Y-6181460D02*
X11651500Y-6216460D01*
X11651500Y-6643460D02*
X11686500Y-6678460D01*
X11686500Y-6643460D02*
X11651500Y-6678460D01*
X11651500Y-6797460D02*
X11686500Y-6832460D01*
X11686500Y-6797460D02*
X11651500Y-6832460D01*
X11651500Y-6951460D02*
X11686500Y-6986460D01*
X11686500Y-6951460D02*
X11651500Y-6986460D01*
X11651500Y-7105460D02*
X11686500Y-7140460D01*
X11686500Y-7105460D02*
X11651500Y-7140460D01*
X11805500Y-2177460D02*
X11840500Y-2212460D01*
X11840500Y-2177460D02*
X11805500Y-2212460D01*
X11805500Y-4641460D02*
X11840500Y-4676460D01*
X11840500Y-4641460D02*
X11805500Y-4676460D01*
X11805500Y-4795460D02*
X11840500Y-4830460D01*
X11840500Y-4795460D02*
X11805500Y-4830460D01*
X11805500Y-5565460D02*
X11840500Y-5600460D01*
X11840500Y-5565460D02*
X11805500Y-5600460D01*
X11805500Y-5719460D02*
X11840500Y-5754460D01*
X11840500Y-5719460D02*
X11805500Y-5754460D01*
X11805500Y-6027460D02*
X11840500Y-6062460D01*
X11840500Y-6027460D02*
X11805500Y-6062460D01*
X11805500Y-6181460D02*
X11840500Y-6216460D01*
X11840500Y-6181460D02*
X11805500Y-6216460D01*
X11805500Y-6643460D02*
X11840500Y-6678460D01*
X11840500Y-6643460D02*
X11805500Y-6678460D01*
X11805500Y-6797460D02*
X11840500Y-6832460D01*
X11840500Y-6797460D02*
X11805500Y-6832460D01*
X11805500Y-6951460D02*
X11840500Y-6986460D01*
X11840500Y-6951460D02*
X11805500Y-6986460D01*
X11805500Y-7105460D02*
X11840500Y-7140460D01*
X11840500Y-7105460D02*
X11805500Y-7140460D01*
X11959500Y-2177460D02*
X11994500Y-2212460D01*
X11994500Y-2177460D02*
X11959500Y-2212460D01*
X11959500Y-2639460D02*
X11994500Y-2674460D01*
X11994500Y-2639460D02*
X11959500Y-2674460D01*
X11959500Y-2793460D02*
X11994500Y-2828460D01*
X11994500Y-2793460D02*
X11959500Y-2828460D01*
X11959500Y-5411460D02*
X11994500Y-5446460D01*
X11994500Y-5411460D02*
X11959500Y-5446460D01*
X11959500Y-5565460D02*
X11994500Y-5600460D01*
X11994500Y-5565460D02*
X11959500Y-5600460D01*
X11959500Y-5719460D02*
X11994500Y-5754460D01*
X11994500Y-5719460D02*
X11959500Y-5754460D01*
X11959500Y-6027460D02*
X11994500Y-6062460D01*
X11994500Y-6027460D02*
X11959500Y-6062460D01*
X11959500Y-6181460D02*
X11994500Y-6216460D01*
X11994500Y-6181460D02*
X11959500Y-6216460D01*
X11959500Y-6643460D02*
X11994500Y-6678460D01*
X11994500Y-6643460D02*
X11959500Y-6678460D01*
X11959500Y-6797460D02*
X11994500Y-6832460D01*
X11994500Y-6797460D02*
X11959500Y-6832460D01*
X11959500Y-6951460D02*
X11994500Y-6986460D01*
X11994500Y-6951460D02*
X11959500Y-6986460D01*
X11959500Y-7105460D02*
X11994500Y-7140460D01*
X11994500Y-7105460D02*
X11959500Y-7140460D01*
X11959500Y-7259460D02*
X11994500Y-7294460D01*
X11994500Y-7259460D02*
X11959500Y-7294460D01*
X11959500Y-7413460D02*
X11994500Y-7448460D01*
X11994500Y-7413460D02*
X11959500Y-7448460D01*
X12113500Y-2177460D02*
X12148500Y-2212460D01*
X12148500Y-2177460D02*
X12113500Y-2212460D01*
X12113500Y-2331460D02*
X12148500Y-2366460D01*
X12148500Y-2331460D02*
X12113500Y-2366460D01*
X12113500Y-4795460D02*
X12148500Y-4830460D01*
X12148500Y-4795460D02*
X12113500Y-4830460D01*
X12113500Y-5257460D02*
X12148500Y-5292460D01*
X12148500Y-5257460D02*
X12113500Y-5292460D01*
X12113500Y-5411460D02*
X12148500Y-5446460D01*
X12148500Y-5411460D02*
X12113500Y-5446460D01*
X12113500Y-5565460D02*
X12148500Y-5600460D01*
X12148500Y-5565460D02*
X12113500Y-5600460D01*
X12113500Y-5719460D02*
X12148500Y-5754460D01*
X12148500Y-5719460D02*
X12113500Y-5754460D01*
X12113500Y-6027460D02*
X12148500Y-6062460D01*
X12148500Y-6027460D02*
X12113500Y-6062460D01*
X12113500Y-6181460D02*
X12148500Y-6216460D01*
X12148500Y-6181460D02*
X12113500Y-6216460D01*
X12113500Y-6643460D02*
X12148500Y-6678460D01*
X12148500Y-6643460D02*
X12113500Y-6678460D01*
X12113500Y-6797460D02*
X12148500Y-6832460D01*
X12148500Y-6797460D02*
X12113500Y-6832460D01*
X12113500Y-6951460D02*
X12148500Y-6986460D01*
X12148500Y-6951460D02*
X12113500Y-6986460D01*
X12113500Y-7105460D02*
X12148500Y-7140460D01*
X12148500Y-7105460D02*
X12113500Y-7140460D01*
X12113500Y-7259460D02*
X12148500Y-7294460D01*
X12148500Y-7259460D02*
X12113500Y-7294460D01*
X12113500Y-7413460D02*
X12148500Y-7448460D01*
X12148500Y-7413460D02*
X12113500Y-7448460D01*
X12256560Y-3620340D02*
X12291560Y-3655340D01*
X12291560Y-3620340D02*
X12256560Y-3655340D01*
X12267500Y-2177460D02*
X12302500Y-2212460D01*
X12302500Y-2177460D02*
X12267500Y-2212460D01*
X12267500Y-2331460D02*
X12302500Y-2366460D01*
X12302500Y-2331460D02*
X12267500Y-2366460D01*
X12267500Y-2485460D02*
X12302500Y-2520460D01*
X12302500Y-2485460D02*
X12267500Y-2520460D01*
X12267500Y-2639460D02*
X12302500Y-2674460D01*
X12302500Y-2639460D02*
X12267500Y-2674460D01*
X12267500Y-2793460D02*
X12302500Y-2828460D01*
X12302500Y-2793460D02*
X12267500Y-2828460D01*
X12267500Y-2947460D02*
X12302500Y-2982460D01*
X12302500Y-2947460D02*
X12267500Y-2982460D01*
X12267500Y-3101460D02*
X12302500Y-3136460D01*
X12302500Y-3101460D02*
X12267500Y-3136460D01*
X12267500Y-3255460D02*
X12302500Y-3290460D01*
X12302500Y-3255460D02*
X12267500Y-3290460D01*
X12267500Y-3409460D02*
X12302500Y-3444460D01*
X12302500Y-3409460D02*
X12267500Y-3444460D01*
X12267500Y-4179460D02*
X12302500Y-4214460D01*
X12302500Y-4179460D02*
X12267500Y-4214460D01*
X12267500Y-5103460D02*
X12302500Y-5138460D01*
X12302500Y-5103460D02*
X12267500Y-5138460D01*
X12267500Y-5257460D02*
X12302500Y-5292460D01*
X12302500Y-5257460D02*
X12267500Y-5292460D01*
X12267500Y-5411460D02*
X12302500Y-5446460D01*
X12302500Y-5411460D02*
X12267500Y-5446460D01*
X12267500Y-5565460D02*
X12302500Y-5600460D01*
X12302500Y-5565460D02*
X12267500Y-5600460D01*
X12267500Y-5719460D02*
X12302500Y-5754460D01*
X12302500Y-5719460D02*
X12267500Y-5754460D01*
X12267500Y-6027460D02*
X12302500Y-6062460D01*
X12302500Y-6027460D02*
X12267500Y-6062460D01*
X12267500Y-6643460D02*
X12302500Y-6678460D01*
X12302500Y-6643460D02*
X12267500Y-6678460D01*
X12267500Y-6797460D02*
X12302500Y-6832460D01*
X12302500Y-6797460D02*
X12267500Y-6832460D01*
X12267500Y-6951460D02*
X12302500Y-6986460D01*
X12302500Y-6951460D02*
X12267500Y-6986460D01*
X12267500Y-7105460D02*
X12302500Y-7140460D01*
X12302500Y-7105460D02*
X12267500Y-7140460D01*
X12267500Y-7259460D02*
X12302500Y-7294460D01*
X12302500Y-7259460D02*
X12267500Y-7294460D01*
X12267500Y-7413460D02*
X12302500Y-7448460D01*
X12302500Y-7413460D02*
X12267500Y-7448460D01*
X12421500Y-2177460D02*
X12456500Y-2212460D01*
X12456500Y-2177460D02*
X12421500Y-2212460D01*
X12421500Y-2331460D02*
X12456500Y-2366460D01*
X12456500Y-2331460D02*
X12421500Y-2366460D01*
X12421500Y-2485460D02*
X12456500Y-2520460D01*
X12456500Y-2485460D02*
X12421500Y-2520460D01*
X12421500Y-2639460D02*
X12456500Y-2674460D01*
X12456500Y-2639460D02*
X12421500Y-2674460D01*
X12421500Y-2793460D02*
X12456500Y-2828460D01*
X12456500Y-2793460D02*
X12421500Y-2828460D01*
X12421500Y-2947460D02*
X12456500Y-2982460D01*
X12456500Y-2947460D02*
X12421500Y-2982460D01*
X12421500Y-3101460D02*
X12456500Y-3136460D01*
X12456500Y-3101460D02*
X12421500Y-3136460D01*
X12421500Y-3255460D02*
X12456500Y-3290460D01*
X12456500Y-3255460D02*
X12421500Y-3290460D01*
X12421500Y-3717460D02*
X12456500Y-3752460D01*
X12456500Y-3717460D02*
X12421500Y-3752460D01*
X12421500Y-4179460D02*
X12456500Y-4214460D01*
X12456500Y-4179460D02*
X12421500Y-4214460D01*
X12421500Y-4333460D02*
X12456500Y-4368460D01*
X12456500Y-4333460D02*
X12421500Y-4368460D01*
X12421500Y-4949460D02*
X12456500Y-4984460D01*
X12456500Y-4949460D02*
X12421500Y-4984460D01*
X12421500Y-5103460D02*
X12456500Y-5138460D01*
X12456500Y-5103460D02*
X12421500Y-5138460D01*
X12421500Y-5257460D02*
X12456500Y-5292460D01*
X12456500Y-5257460D02*
X12421500Y-5292460D01*
X12421500Y-5411460D02*
X12456500Y-5446460D01*
X12456500Y-5411460D02*
X12421500Y-5446460D01*
X12421500Y-5565460D02*
X12456500Y-5600460D01*
X12456500Y-5565460D02*
X12421500Y-5600460D01*
X12421500Y-5719460D02*
X12456500Y-5754460D01*
X12456500Y-5719460D02*
X12421500Y-5754460D01*
X12421500Y-6335460D02*
X12456500Y-6370460D01*
X12456500Y-6335460D02*
X12421500Y-6370460D01*
X12421500Y-6643460D02*
X12456500Y-6678460D01*
X12456500Y-6643460D02*
X12421500Y-6678460D01*
X12421500Y-6797460D02*
X12456500Y-6832460D01*
X12456500Y-6797460D02*
X12421500Y-6832460D01*
X12421500Y-6951460D02*
X12456500Y-6986460D01*
X12456500Y-6951460D02*
X12421500Y-6986460D01*
X12421500Y-7105460D02*
X12456500Y-7140460D01*
X12456500Y-7105460D02*
X12421500Y-7140460D01*
X12421500Y-7259460D02*
X12456500Y-7294460D01*
X12456500Y-7259460D02*
X12421500Y-7294460D01*
X12421500Y-7413460D02*
X12456500Y-7448460D01*
X12456500Y-7413460D02*
X12421500Y-7448460D01*
X12549806Y-4842500D02*
X12584806Y-4877500D01*
X12584806Y-4842500D02*
X12549806Y-4877500D01*
X12575500Y-2177460D02*
X12610500Y-2212460D01*
X12610500Y-2177460D02*
X12575500Y-2212460D01*
X12575500Y-2331460D02*
X12610500Y-2366460D01*
X12610500Y-2331460D02*
X12575500Y-2366460D01*
X12575500Y-2485460D02*
X12610500Y-2520460D01*
X12610500Y-2485460D02*
X12575500Y-2520460D01*
X12575500Y-2639460D02*
X12610500Y-2674460D01*
X12610500Y-2639460D02*
X12575500Y-2674460D01*
X12575500Y-2793460D02*
X12610500Y-2828460D01*
X12610500Y-2793460D02*
X12575500Y-2828460D01*
X12575500Y-2947460D02*
X12610500Y-2982460D01*
X12610500Y-2947460D02*
X12575500Y-2982460D01*
X12575500Y-3101460D02*
X12610500Y-3136460D01*
X12610500Y-3101460D02*
X12575500Y-3136460D01*
X12575500Y-3255460D02*
X12610500Y-3290460D01*
X12610500Y-3255460D02*
X12575500Y-3290460D01*
X12575500Y-3563460D02*
X12610500Y-3598460D01*
X12610500Y-3563460D02*
X12575500Y-3598460D01*
X12575500Y-3717460D02*
X12610500Y-3752460D01*
X12610500Y-3717460D02*
X12575500Y-3752460D01*
X12575500Y-5103460D02*
X12610500Y-5138460D01*
X12610500Y-5103460D02*
X12575500Y-5138460D01*
X12575500Y-5257460D02*
X12610500Y-5292460D01*
X12610500Y-5257460D02*
X12575500Y-5292460D01*
X12575500Y-5411460D02*
X12610500Y-5446460D01*
X12610500Y-5411460D02*
X12575500Y-5446460D01*
X12575500Y-5565460D02*
X12610500Y-5600460D01*
X12610500Y-5565460D02*
X12575500Y-5600460D01*
X12575500Y-6181460D02*
X12610500Y-6216460D01*
X12610500Y-6181460D02*
X12575500Y-6216460D01*
X12575500Y-6335460D02*
X12610500Y-6370460D01*
X12610500Y-6335460D02*
X12575500Y-6370460D01*
X12575500Y-6643460D02*
X12610500Y-6678460D01*
X12610500Y-6643460D02*
X12575500Y-6678460D01*
X12575500Y-6797460D02*
X12610500Y-6832460D01*
X12610500Y-6797460D02*
X12575500Y-6832460D01*
X12575500Y-6951460D02*
X12610500Y-6986460D01*
X12610500Y-6951460D02*
X12575500Y-6986460D01*
X12575500Y-7105460D02*
X12610500Y-7140460D01*
X12610500Y-7105460D02*
X12575500Y-7140460D01*
X12575500Y-7259460D02*
X12610500Y-7294460D01*
X12610500Y-7259460D02*
X12575500Y-7294460D01*
X12575500Y-7413460D02*
X12610500Y-7448460D01*
X12610500Y-7413460D02*
X12575500Y-7448460D01*
X12729500Y-2177460D02*
X12764500Y-2212460D01*
X12764500Y-2177460D02*
X12729500Y-2212460D01*
X12729500Y-2331460D02*
X12764500Y-2366460D01*
X12764500Y-2331460D02*
X12729500Y-2366460D01*
X12729500Y-2639460D02*
X12764500Y-2674460D01*
X12764500Y-2639460D02*
X12729500Y-2674460D01*
X12729500Y-2793460D02*
X12764500Y-2828460D01*
X12764500Y-2793460D02*
X12729500Y-2828460D01*
X12729500Y-2947460D02*
X12764500Y-2982460D01*
X12764500Y-2947460D02*
X12729500Y-2982460D01*
X12729500Y-3101460D02*
X12764500Y-3136460D01*
X12764500Y-3101460D02*
X12729500Y-3136460D01*
X12729500Y-3255460D02*
X12764500Y-3290460D01*
X12764500Y-3255460D02*
X12729500Y-3290460D01*
X12729500Y-3563460D02*
X12764500Y-3598460D01*
X12764500Y-3563460D02*
X12729500Y-3598460D01*
X12729500Y-3717460D02*
X12764500Y-3752460D01*
X12764500Y-3717460D02*
X12729500Y-3752460D01*
X12729500Y-5565460D02*
X12764500Y-5600460D01*
X12764500Y-5565460D02*
X12729500Y-5600460D01*
X12729500Y-6489460D02*
X12764500Y-6524460D01*
X12764500Y-6489460D02*
X12729500Y-6524460D01*
X12729500Y-6643460D02*
X12764500Y-6678460D01*
X12764500Y-6643460D02*
X12729500Y-6678460D01*
X12729500Y-6797460D02*
X12764500Y-6832460D01*
X12764500Y-6797460D02*
X12729500Y-6832460D01*
X12729500Y-6951460D02*
X12764500Y-6986460D01*
X12764500Y-6951460D02*
X12729500Y-6986460D01*
X12729500Y-7105460D02*
X12764500Y-7140460D01*
X12764500Y-7105460D02*
X12729500Y-7140460D01*
X12729500Y-7259460D02*
X12764500Y-7294460D01*
X12764500Y-7259460D02*
X12729500Y-7294460D01*
X12729500Y-7413460D02*
X12764500Y-7448460D01*
X12764500Y-7413460D02*
X12729500Y-7448460D01*
X12883500Y-2177460D02*
X12918500Y-2212460D01*
X12918500Y-2177460D02*
X12883500Y-2212460D01*
X12883500Y-2331460D02*
X12918500Y-2366460D01*
X12918500Y-2331460D02*
X12883500Y-2366460D01*
X12883500Y-2639460D02*
X12918500Y-2674460D01*
X12918500Y-2639460D02*
X12883500Y-2674460D01*
X12883500Y-2793460D02*
X12918500Y-2828460D01*
X12918500Y-2793460D02*
X12883500Y-2828460D01*
X12883500Y-2947460D02*
X12918500Y-2982460D01*
X12918500Y-2947460D02*
X12883500Y-2982460D01*
X12883500Y-3101460D02*
X12918500Y-3136460D01*
X12918500Y-3101460D02*
X12883500Y-3136460D01*
X12883500Y-3255460D02*
X12918500Y-3290460D01*
X12918500Y-3255460D02*
X12883500Y-3290460D01*
X12883500Y-3563460D02*
X12918500Y-3598460D01*
X12918500Y-3563460D02*
X12883500Y-3598460D01*
X12883500Y-3717460D02*
X12918500Y-3752460D01*
X12918500Y-3717460D02*
X12883500Y-3752460D01*
X12883500Y-5565460D02*
X12918500Y-5600460D01*
X12918500Y-5565460D02*
X12883500Y-5600460D01*
X12883500Y-5873460D02*
X12918500Y-5908460D01*
X12918500Y-5873460D02*
X12883500Y-5908460D01*
X12883500Y-6335460D02*
X12918500Y-6370460D01*
X12918500Y-6335460D02*
X12883500Y-6370460D01*
X12883500Y-6489460D02*
X12918500Y-6524460D01*
X12918500Y-6489460D02*
X12883500Y-6524460D01*
X12883500Y-6643460D02*
X12918500Y-6678460D01*
X12918500Y-6643460D02*
X12883500Y-6678460D01*
X12883500Y-6797460D02*
X12918500Y-6832460D01*
X12918500Y-6797460D02*
X12883500Y-6832460D01*
X12883500Y-6951460D02*
X12918500Y-6986460D01*
X12918500Y-6951460D02*
X12883500Y-6986460D01*
X12883500Y-7105460D02*
X12918500Y-7140460D01*
X12918500Y-7105460D02*
X12883500Y-7140460D01*
X12883500Y-7259460D02*
X12918500Y-7294460D01*
X12918500Y-7259460D02*
X12883500Y-7294460D01*
X12883500Y-7413460D02*
X12918500Y-7448460D01*
X12918500Y-7413460D02*
X12883500Y-7448460D01*
X13037500Y-2177460D02*
X13072500Y-2212460D01*
X13072500Y-2177460D02*
X13037500Y-2212460D01*
X13037500Y-2331460D02*
X13072500Y-2366460D01*
X13072500Y-2331460D02*
X13037500Y-2366460D01*
X13037500Y-2485460D02*
X13072500Y-2520460D01*
X13072500Y-2485460D02*
X13037500Y-2520460D01*
X13037500Y-2639460D02*
X13072500Y-2674460D01*
X13072500Y-2639460D02*
X13037500Y-2674460D01*
X13037500Y-2793460D02*
X13072500Y-2828460D01*
X13072500Y-2793460D02*
X13037500Y-2828460D01*
X13037500Y-3255460D02*
X13072500Y-3290460D01*
X13072500Y-3255460D02*
X13037500Y-3290460D01*
X13037500Y-3563460D02*
X13072500Y-3598460D01*
X13072500Y-3563460D02*
X13037500Y-3598460D01*
X13037500Y-3717460D02*
X13072500Y-3752460D01*
X13072500Y-3717460D02*
X13037500Y-3752460D01*
X13037500Y-4179460D02*
X13072500Y-4214460D01*
X13072500Y-4179460D02*
X13037500Y-4214460D01*
X13037500Y-4333460D02*
X13072500Y-4368460D01*
X13072500Y-4333460D02*
X13037500Y-4368460D01*
X13037500Y-4487460D02*
X13072500Y-4522460D01*
X13072500Y-4487460D02*
X13037500Y-4522460D01*
X13037500Y-4641460D02*
X13072500Y-4676460D01*
X13072500Y-4641460D02*
X13037500Y-4676460D01*
X13037500Y-4795460D02*
X13072500Y-4830460D01*
X13072500Y-4795460D02*
X13037500Y-4830460D01*
X13037500Y-4949460D02*
X13072500Y-4984460D01*
X13072500Y-4949460D02*
X13037500Y-4984460D01*
X13037500Y-5103460D02*
X13072500Y-5138460D01*
X13072500Y-5103460D02*
X13037500Y-5138460D01*
X13037500Y-5257460D02*
X13072500Y-5292460D01*
X13072500Y-5257460D02*
X13037500Y-5292460D01*
X13037500Y-5411460D02*
X13072500Y-5446460D01*
X13072500Y-5411460D02*
X13037500Y-5446460D01*
X13037500Y-5565460D02*
X13072500Y-5600460D01*
X13072500Y-5565460D02*
X13037500Y-5600460D01*
X13037500Y-5873460D02*
X13072500Y-5908460D01*
X13072500Y-5873460D02*
X13037500Y-5908460D01*
X13037500Y-6027460D02*
X13072500Y-6062460D01*
X13072500Y-6027460D02*
X13037500Y-6062460D01*
X13037500Y-6181460D02*
X13072500Y-6216460D01*
X13072500Y-6181460D02*
X13037500Y-6216460D01*
X13037500Y-6335460D02*
X13072500Y-6370460D01*
X13072500Y-6335460D02*
X13037500Y-6370460D01*
X13037500Y-6797460D02*
X13072500Y-6832460D01*
X13072500Y-6797460D02*
X13037500Y-6832460D01*
X13037500Y-6951460D02*
X13072500Y-6986460D01*
X13072500Y-6951460D02*
X13037500Y-6986460D01*
X13037500Y-7105460D02*
X13072500Y-7140460D01*
X13072500Y-7105460D02*
X13037500Y-7140460D01*
X13037500Y-7259460D02*
X13072500Y-7294460D01*
X13072500Y-7259460D02*
X13037500Y-7294460D01*
X13037500Y-7413460D02*
X13072500Y-7448460D01*
X13072500Y-7413460D02*
X13037500Y-7448460D01*
X13191500Y-2177460D02*
X13226500Y-2212460D01*
X13226500Y-2177460D02*
X13191500Y-2212460D01*
X13191500Y-2331460D02*
X13226500Y-2366460D01*
X13226500Y-2331460D02*
X13191500Y-2366460D01*
X13191500Y-2639460D02*
X13226500Y-2674460D01*
X13226500Y-2639460D02*
X13191500Y-2674460D01*
X13191500Y-4179460D02*
X13226500Y-4214460D01*
X13226500Y-4179460D02*
X13191500Y-4214460D01*
X13191500Y-4333460D02*
X13226500Y-4368460D01*
X13226500Y-4333460D02*
X13191500Y-4368460D01*
X13191500Y-4487460D02*
X13226500Y-4522460D01*
X13226500Y-4487460D02*
X13191500Y-4522460D01*
X13191500Y-4641460D02*
X13226500Y-4676460D01*
X13226500Y-4641460D02*
X13191500Y-4676460D01*
X13191500Y-4795460D02*
X13226500Y-4830460D01*
X13226500Y-4795460D02*
X13191500Y-4830460D01*
X13191500Y-4949460D02*
X13226500Y-4984460D01*
X13226500Y-4949460D02*
X13191500Y-4984460D01*
X13191500Y-5103460D02*
X13226500Y-5138460D01*
X13226500Y-5103460D02*
X13191500Y-5138460D01*
X13191500Y-5257460D02*
X13226500Y-5292460D01*
X13226500Y-5257460D02*
X13191500Y-5292460D01*
X13191500Y-5411460D02*
X13226500Y-5446460D01*
X13226500Y-5411460D02*
X13191500Y-5446460D01*
X13191500Y-5565460D02*
X13226500Y-5600460D01*
X13226500Y-5565460D02*
X13191500Y-5600460D01*
X13191500Y-6181460D02*
X13226500Y-6216460D01*
X13226500Y-6181460D02*
X13191500Y-6216460D01*
X13191500Y-6951460D02*
X13226500Y-6986460D01*
X13226500Y-6951460D02*
X13191500Y-6986460D01*
X13191500Y-7259460D02*
X13226500Y-7294460D01*
X13226500Y-7259460D02*
X13191500Y-7294460D01*
X13191500Y-7413460D02*
X13226500Y-7448460D01*
X13226500Y-7413460D02*
X13191500Y-7448460D01*
X13345500Y-2177460D02*
X13380500Y-2212460D01*
X13380500Y-2177460D02*
X13345500Y-2212460D01*
X13345500Y-2639460D02*
X13380500Y-2674460D01*
X13380500Y-2639460D02*
X13345500Y-2674460D01*
X13345500Y-4179460D02*
X13380500Y-4214460D01*
X13380500Y-4179460D02*
X13345500Y-4214460D01*
X13345500Y-4333460D02*
X13380500Y-4368460D01*
X13380500Y-4333460D02*
X13345500Y-4368460D01*
X13345500Y-4487460D02*
X13380500Y-4522460D01*
X13380500Y-4487460D02*
X13345500Y-4522460D01*
X13345500Y-4641460D02*
X13380500Y-4676460D01*
X13380500Y-4641460D02*
X13345500Y-4676460D01*
X13345500Y-4795460D02*
X13380500Y-4830460D01*
X13380500Y-4795460D02*
X13345500Y-4830460D01*
X13345500Y-4949460D02*
X13380500Y-4984460D01*
X13380500Y-4949460D02*
X13345500Y-4984460D01*
X13345500Y-5103460D02*
X13380500Y-5138460D01*
X13380500Y-5103460D02*
X13345500Y-5138460D01*
X13345500Y-5257460D02*
X13380500Y-5292460D01*
X13380500Y-5257460D02*
X13345500Y-5292460D01*
X13345500Y-5411460D02*
X13380500Y-5446460D01*
X13380500Y-5411460D02*
X13345500Y-5446460D01*
X13345500Y-5565460D02*
X13380500Y-5600460D01*
X13380500Y-5565460D02*
X13345500Y-5600460D01*
X13345500Y-6951460D02*
X13380500Y-6986460D01*
X13380500Y-6951460D02*
X13345500Y-6986460D01*
X13345500Y-7413460D02*
X13380500Y-7448460D01*
X13380500Y-7413460D02*
X13345500Y-7448460D01*
X13499500Y-2177460D02*
X13534500Y-2212460D01*
X13534500Y-2177460D02*
X13499500Y-2212460D01*
X13499500Y-2331460D02*
X13534500Y-2366460D01*
X13534500Y-2331460D02*
X13499500Y-2366460D01*
X13499500Y-2485460D02*
X13534500Y-2520460D01*
X13534500Y-2485460D02*
X13499500Y-2520460D01*
X13499500Y-2639460D02*
X13534500Y-2674460D01*
X13534500Y-2639460D02*
X13499500Y-2674460D01*
X13499500Y-3563460D02*
X13534500Y-3598460D01*
X13534500Y-3563460D02*
X13499500Y-3598460D01*
X13499500Y-3717460D02*
X13534500Y-3752460D01*
X13534500Y-3717460D02*
X13499500Y-3752460D01*
X13499500Y-4179460D02*
X13534500Y-4214460D01*
X13534500Y-4179460D02*
X13499500Y-4214460D01*
X13499500Y-4333460D02*
X13534500Y-4368460D01*
X13534500Y-4333460D02*
X13499500Y-4368460D01*
X13499500Y-4487460D02*
X13534500Y-4522460D01*
X13534500Y-4487460D02*
X13499500Y-4522460D01*
X13499500Y-4641460D02*
X13534500Y-4676460D01*
X13534500Y-4641460D02*
X13499500Y-4676460D01*
X13499500Y-4795460D02*
X13534500Y-4830460D01*
X13534500Y-4795460D02*
X13499500Y-4830460D01*
X13499500Y-4949460D02*
X13534500Y-4984460D01*
X13534500Y-4949460D02*
X13499500Y-4984460D01*
X13499500Y-5103460D02*
X13534500Y-5138460D01*
X13534500Y-5103460D02*
X13499500Y-5138460D01*
X13499500Y-5257460D02*
X13534500Y-5292460D01*
X13534500Y-5257460D02*
X13499500Y-5292460D01*
X13499500Y-5411460D02*
X13534500Y-5446460D01*
X13534500Y-5411460D02*
X13499500Y-5446460D01*
X13499500Y-5565460D02*
X13534500Y-5600460D01*
X13534500Y-5565460D02*
X13499500Y-5600460D01*
X13499500Y-5873460D02*
X13534500Y-5908460D01*
X13534500Y-5873460D02*
X13499500Y-5908460D01*
X13499500Y-6027460D02*
X13534500Y-6062460D01*
X13534500Y-6027460D02*
X13499500Y-6062460D01*
X13499500Y-6181460D02*
X13534500Y-6216460D01*
X13534500Y-6181460D02*
X13499500Y-6216460D01*
X13499500Y-6951460D02*
X13534500Y-6986460D01*
X13534500Y-6951460D02*
X13499500Y-6986460D01*
X13499500Y-7105460D02*
X13534500Y-7140460D01*
X13534500Y-7105460D02*
X13499500Y-7140460D01*
X13499500Y-7259460D02*
X13534500Y-7294460D01*
X13534500Y-7259460D02*
X13499500Y-7294460D01*
X13499500Y-7413460D02*
X13534500Y-7448460D01*
X13534500Y-7413460D02*
X13499500Y-7448460D01*
X13622500Y-4042500D02*
X13657500Y-4077500D01*
X13657500Y-4042500D02*
X13622500Y-4077500D01*
X13653500Y-2177460D02*
X13688500Y-2212460D01*
X13688500Y-2177460D02*
X13653500Y-2212460D01*
X13653500Y-2331460D02*
X13688500Y-2366460D01*
X13688500Y-2331460D02*
X13653500Y-2366460D01*
X13653500Y-2485460D02*
X13688500Y-2520460D01*
X13688500Y-2485460D02*
X13653500Y-2520460D01*
X13653500Y-2639460D02*
X13688500Y-2674460D01*
X13688500Y-2639460D02*
X13653500Y-2674460D01*
X13653500Y-2793460D02*
X13688500Y-2828460D01*
X13688500Y-2793460D02*
X13653500Y-2828460D01*
X13653500Y-2947460D02*
X13688500Y-2982460D01*
X13688500Y-2947460D02*
X13653500Y-2982460D01*
X13653500Y-3101460D02*
X13688500Y-3136460D01*
X13688500Y-3101460D02*
X13653500Y-3136460D01*
X13653500Y-4179460D02*
X13688500Y-4214460D01*
X13688500Y-4179460D02*
X13653500Y-4214460D01*
X13653500Y-4333460D02*
X13688500Y-4368460D01*
X13688500Y-4333460D02*
X13653500Y-4368460D01*
X13653500Y-4487460D02*
X13688500Y-4522460D01*
X13688500Y-4487460D02*
X13653500Y-4522460D01*
X13653500Y-4641460D02*
X13688500Y-4676460D01*
X13688500Y-4641460D02*
X13653500Y-4676460D01*
X13653500Y-4795460D02*
X13688500Y-4830460D01*
X13688500Y-4795460D02*
X13653500Y-4830460D01*
X13653500Y-4949460D02*
X13688500Y-4984460D01*
X13688500Y-4949460D02*
X13653500Y-4984460D01*
X13653500Y-5103460D02*
X13688500Y-5138460D01*
X13688500Y-5103460D02*
X13653500Y-5138460D01*
X13653500Y-5257460D02*
X13688500Y-5292460D01*
X13688500Y-5257460D02*
X13653500Y-5292460D01*
X13653500Y-5411460D02*
X13688500Y-5446460D01*
X13688500Y-5411460D02*
X13653500Y-5446460D01*
X13653500Y-5565460D02*
X13688500Y-5600460D01*
X13688500Y-5565460D02*
X13653500Y-5600460D01*
X13653500Y-6027460D02*
X13688500Y-6062460D01*
X13688500Y-6027460D02*
X13653500Y-6062460D01*
X13653500Y-6181460D02*
X13688500Y-6216460D01*
X13688500Y-6181460D02*
X13653500Y-6216460D01*
X13653500Y-6335460D02*
X13688500Y-6370460D01*
X13688500Y-6335460D02*
X13653500Y-6370460D01*
X13653500Y-6489460D02*
X13688500Y-6524460D01*
X13688500Y-6489460D02*
X13653500Y-6524460D01*
X13653500Y-6643460D02*
X13688500Y-6678460D01*
X13688500Y-6643460D02*
X13653500Y-6678460D01*
X13653500Y-6797460D02*
X13688500Y-6832460D01*
X13688500Y-6797460D02*
X13653500Y-6832460D01*
X13807500Y-2177460D02*
X13842500Y-2212460D01*
X13842500Y-2177460D02*
X13807500Y-2212460D01*
X13807500Y-2331460D02*
X13842500Y-2366460D01*
X13842500Y-2331460D02*
X13807500Y-2366460D01*
X13807500Y-4025460D02*
X13842500Y-4060460D01*
X13842500Y-4025460D02*
X13807500Y-4060460D01*
X13807500Y-4179460D02*
X13842500Y-4214460D01*
X13842500Y-4179460D02*
X13807500Y-4214460D01*
X13807500Y-4333460D02*
X13842500Y-4368460D01*
X13842500Y-4333460D02*
X13807500Y-4368460D01*
X13807500Y-4487460D02*
X13842500Y-4522460D01*
X13842500Y-4487460D02*
X13807500Y-4522460D01*
X13807500Y-4641460D02*
X13842500Y-4676460D01*
X13842500Y-4641460D02*
X13807500Y-4676460D01*
X13807500Y-4795460D02*
X13842500Y-4830460D01*
X13842500Y-4795460D02*
X13807500Y-4830460D01*
X13807500Y-4949460D02*
X13842500Y-4984460D01*
X13842500Y-4949460D02*
X13807500Y-4984460D01*
X13807500Y-5103460D02*
X13842500Y-5138460D01*
X13842500Y-5103460D02*
X13807500Y-5138460D01*
X13807500Y-5257460D02*
X13842500Y-5292460D01*
X13842500Y-5257460D02*
X13807500Y-5292460D01*
X13807500Y-5411460D02*
X13842500Y-5446460D01*
X13842500Y-5411460D02*
X13807500Y-5446460D01*
X13807500Y-5565460D02*
X13842500Y-5600460D01*
X13842500Y-5565460D02*
X13807500Y-5600460D01*
X13807500Y-6027460D02*
X13842500Y-6062460D01*
X13842500Y-6027460D02*
X13807500Y-6062460D01*
X13807500Y-6797460D02*
X13842500Y-6832460D01*
X13842500Y-6797460D02*
X13807500Y-6832460D01*
X13961500Y-2177460D02*
X13996500Y-2212460D01*
X13996500Y-2177460D02*
X13961500Y-2212460D01*
X13961500Y-2331460D02*
X13996500Y-2366460D01*
X13996500Y-2331460D02*
X13961500Y-2366460D01*
X13961500Y-3409460D02*
X13996500Y-3444460D01*
X13996500Y-3409460D02*
X13961500Y-3444460D01*
X13961500Y-3563460D02*
X13996500Y-3598460D01*
X13996500Y-3563460D02*
X13961500Y-3598460D01*
X13961500Y-3717460D02*
X13996500Y-3752460D01*
X13996500Y-3717460D02*
X13961500Y-3752460D01*
X13961500Y-4025460D02*
X13996500Y-4060460D01*
X13996500Y-4025460D02*
X13961500Y-4060460D01*
X13961500Y-4179460D02*
X13996500Y-4214460D01*
X13996500Y-4179460D02*
X13961500Y-4214460D01*
X13961500Y-4333460D02*
X13996500Y-4368460D01*
X13996500Y-4333460D02*
X13961500Y-4368460D01*
X13961500Y-4487460D02*
X13996500Y-4522460D01*
X13996500Y-4487460D02*
X13961500Y-4522460D01*
X13961500Y-4641460D02*
X13996500Y-4676460D01*
X13996500Y-4641460D02*
X13961500Y-4676460D01*
X13961500Y-4795460D02*
X13996500Y-4830460D01*
X13996500Y-4795460D02*
X13961500Y-4830460D01*
X13961500Y-4949460D02*
X13996500Y-4984460D01*
X13996500Y-4949460D02*
X13961500Y-4984460D01*
X13961500Y-5103460D02*
X13996500Y-5138460D01*
X13996500Y-5103460D02*
X13961500Y-5138460D01*
X13961500Y-5257460D02*
X13996500Y-5292460D01*
X13996500Y-5257460D02*
X13961500Y-5292460D01*
X13961500Y-5411460D02*
X13996500Y-5446460D01*
X13996500Y-5411460D02*
X13961500Y-5446460D01*
X13961500Y-5565460D02*
X13996500Y-5600460D01*
X13996500Y-5565460D02*
X13961500Y-5600460D01*
X13961500Y-5873460D02*
X13996500Y-5908460D01*
X13996500Y-5873460D02*
X13961500Y-5908460D01*
X13961500Y-6027460D02*
X13996500Y-6062460D01*
X13996500Y-6027460D02*
X13961500Y-6062460D01*
X13961500Y-6797460D02*
X13996500Y-6832460D01*
X13996500Y-6797460D02*
X13961500Y-6832460D01*
X13961500Y-6951460D02*
X13996500Y-6986460D01*
X13996500Y-6951460D02*
X13961500Y-6986460D01*
X13961500Y-7105460D02*
X13996500Y-7140460D01*
X13996500Y-7105460D02*
X13961500Y-7140460D01*
X13961500Y-7259460D02*
X13996500Y-7294460D01*
X13996500Y-7259460D02*
X13961500Y-7294460D01*
X13961500Y-7413460D02*
X13996500Y-7448460D01*
X13996500Y-7413460D02*
X13961500Y-7448460D01*
X14115500Y-2177460D02*
X14150500Y-2212460D01*
X14150500Y-2177460D02*
X14115500Y-2212460D01*
X14115500Y-2331460D02*
X14150500Y-2366460D01*
X14150500Y-2331460D02*
X14115500Y-2366460D01*
X14115500Y-2485460D02*
X14150500Y-2520460D01*
X14150500Y-2485460D02*
X14115500Y-2520460D01*
X14115500Y-2639460D02*
X14150500Y-2674460D01*
X14150500Y-2639460D02*
X14115500Y-2674460D01*
X14115500Y-2793460D02*
X14150500Y-2828460D01*
X14150500Y-2793460D02*
X14115500Y-2828460D01*
X14115500Y-3409460D02*
X14150500Y-3444460D01*
X14150500Y-3409460D02*
X14115500Y-3444460D01*
X14115500Y-3563460D02*
X14150500Y-3598460D01*
X14150500Y-3563460D02*
X14115500Y-3598460D01*
X14115500Y-4025460D02*
X14150500Y-4060460D01*
X14150500Y-4025460D02*
X14115500Y-4060460D01*
X14115500Y-6027460D02*
X14150500Y-6062460D01*
X14150500Y-6027460D02*
X14115500Y-6062460D01*
X14115500Y-6181460D02*
X14150500Y-6216460D01*
X14150500Y-6181460D02*
X14115500Y-6216460D01*
X14115500Y-6335460D02*
X14150500Y-6370460D01*
X14150500Y-6335460D02*
X14115500Y-6370460D01*
X14115500Y-6797460D02*
X14150500Y-6832460D01*
X14150500Y-6797460D02*
X14115500Y-6832460D01*
X14115500Y-6951460D02*
X14150500Y-6986460D01*
X14150500Y-6951460D02*
X14115500Y-6986460D01*
X14115500Y-7105460D02*
X14150500Y-7140460D01*
X14150500Y-7105460D02*
X14115500Y-7140460D01*
X14115500Y-7259460D02*
X14150500Y-7294460D01*
X14150500Y-7259460D02*
X14115500Y-7294460D01*
X14115500Y-7413460D02*
X14150500Y-7448460D01*
X14150500Y-7413460D02*
X14115500Y-7448460D01*
X14269500Y-2177460D02*
X14304500Y-2212460D01*
X14304500Y-2177460D02*
X14269500Y-2212460D01*
X14269500Y-2331460D02*
X14304500Y-2366460D01*
X14304500Y-2331460D02*
X14269500Y-2366460D01*
X14269500Y-2485460D02*
X14304500Y-2520460D01*
X14304500Y-2485460D02*
X14269500Y-2520460D01*
X14269500Y-2639460D02*
X14304500Y-2674460D01*
X14304500Y-2639460D02*
X14269500Y-2674460D01*
X14269500Y-2793460D02*
X14304500Y-2828460D01*
X14304500Y-2793460D02*
X14269500Y-2828460D01*
X14269500Y-2947460D02*
X14304500Y-2982460D01*
X14304500Y-2947460D02*
X14269500Y-2982460D01*
X14269500Y-3101460D02*
X14304500Y-3136460D01*
X14304500Y-3101460D02*
X14269500Y-3136460D01*
X14269500Y-3409460D02*
X14304500Y-3444460D01*
X14304500Y-3409460D02*
X14269500Y-3444460D01*
X14269500Y-3563460D02*
X14304500Y-3598460D01*
X14304500Y-3563460D02*
X14269500Y-3598460D01*
X14269500Y-6027460D02*
X14304500Y-6062460D01*
X14304500Y-6027460D02*
X14269500Y-6062460D01*
X14269500Y-6181460D02*
X14304500Y-6216460D01*
X14304500Y-6181460D02*
X14269500Y-6216460D01*
X14269500Y-6335460D02*
X14304500Y-6370460D01*
X14304500Y-6335460D02*
X14269500Y-6370460D01*
X14269500Y-6489460D02*
X14304500Y-6524460D01*
X14304500Y-6489460D02*
X14269500Y-6524460D01*
X14269500Y-6643460D02*
X14304500Y-6678460D01*
X14304500Y-6643460D02*
X14269500Y-6678460D01*
X14269500Y-6797460D02*
X14304500Y-6832460D01*
X14304500Y-6797460D02*
X14269500Y-6832460D01*
X14269500Y-6951460D02*
X14304500Y-6986460D01*
X14304500Y-6951460D02*
X14269500Y-6986460D01*
X14269500Y-7105460D02*
X14304500Y-7140460D01*
X14304500Y-7105460D02*
X14269500Y-7140460D01*
X14269500Y-7259460D02*
X14304500Y-7294460D01*
X14304500Y-7259460D02*
X14269500Y-7294460D01*
X14269500Y-7413460D02*
X14304500Y-7448460D01*
X14304500Y-7413460D02*
X14269500Y-7448460D01*
X14423500Y-2177460D02*
X14458500Y-2212460D01*
X14458500Y-2177460D02*
X14423500Y-2212460D01*
X14423500Y-2331460D02*
X14458500Y-2366460D01*
X14458500Y-2331460D02*
X14423500Y-2366460D01*
X14423500Y-2485460D02*
X14458500Y-2520460D01*
X14458500Y-2485460D02*
X14423500Y-2520460D01*
X14423500Y-2639460D02*
X14458500Y-2674460D01*
X14458500Y-2639460D02*
X14423500Y-2674460D01*
X14423500Y-2793460D02*
X14458500Y-2828460D01*
X14458500Y-2793460D02*
X14423500Y-2828460D01*
X14423500Y-3409460D02*
X14458500Y-3444460D01*
X14458500Y-3409460D02*
X14423500Y-3444460D01*
X14423500Y-3563460D02*
X14458500Y-3598460D01*
X14458500Y-3563460D02*
X14423500Y-3598460D01*
X14423500Y-3717460D02*
X14458500Y-3752460D01*
X14458500Y-3717460D02*
X14423500Y-3752460D01*
X14423500Y-3871460D02*
X14458500Y-3906460D01*
X14458500Y-3871460D02*
X14423500Y-3906460D01*
X14423500Y-4333460D02*
X14458500Y-4368460D01*
X14458500Y-4333460D02*
X14423500Y-4368460D01*
X14423500Y-4487460D02*
X14458500Y-4522460D01*
X14458500Y-4487460D02*
X14423500Y-4522460D01*
X14423500Y-4641460D02*
X14458500Y-4676460D01*
X14458500Y-4641460D02*
X14423500Y-4676460D01*
X14423500Y-4795460D02*
X14458500Y-4830460D01*
X14458500Y-4795460D02*
X14423500Y-4830460D01*
X14423500Y-4949460D02*
X14458500Y-4984460D01*
X14458500Y-4949460D02*
X14423500Y-4984460D01*
X14423500Y-5103460D02*
X14458500Y-5138460D01*
X14458500Y-5103460D02*
X14423500Y-5138460D01*
X14423500Y-5257460D02*
X14458500Y-5292460D01*
X14458500Y-5257460D02*
X14423500Y-5292460D01*
X14423500Y-5411460D02*
X14458500Y-5446460D01*
X14458500Y-5411460D02*
X14423500Y-5446460D01*
X14423500Y-5565460D02*
X14458500Y-5600460D01*
X14458500Y-5565460D02*
X14423500Y-5600460D01*
X14423500Y-5873460D02*
X14458500Y-5908460D01*
X14458500Y-5873460D02*
X14423500Y-5908460D01*
X14423500Y-6027460D02*
X14458500Y-6062460D01*
X14458500Y-6027460D02*
X14423500Y-6062460D01*
X14423500Y-6181460D02*
X14458500Y-6216460D01*
X14458500Y-6181460D02*
X14423500Y-6216460D01*
X14423500Y-6797460D02*
X14458500Y-6832460D01*
X14458500Y-6797460D02*
X14423500Y-6832460D01*
X14423500Y-6951460D02*
X14458500Y-6986460D01*
X14458500Y-6951460D02*
X14423500Y-6986460D01*
X14423500Y-7105460D02*
X14458500Y-7140460D01*
X14458500Y-7105460D02*
X14423500Y-7140460D01*
X14423500Y-7259460D02*
X14458500Y-7294460D01*
X14458500Y-7259460D02*
X14423500Y-7294460D01*
X14423500Y-7413460D02*
X14458500Y-7448460D01*
X14458500Y-7413460D02*
X14423500Y-7448460D01*
X14577500Y-2177460D02*
X14612500Y-2212460D01*
X14612500Y-2177460D02*
X14577500Y-2212460D01*
X14577500Y-2331460D02*
X14612500Y-2366460D01*
X14612500Y-2331460D02*
X14577500Y-2366460D01*
X14577500Y-2485460D02*
X14612500Y-2520460D01*
X14612500Y-2485460D02*
X14577500Y-2520460D01*
X14577500Y-2639460D02*
X14612500Y-2674460D01*
X14612500Y-2639460D02*
X14577500Y-2674460D01*
X14577500Y-2793460D02*
X14612500Y-2828460D01*
X14612500Y-2793460D02*
X14577500Y-2828460D01*
X14577500Y-3409460D02*
X14612500Y-3444460D01*
X14612500Y-3409460D02*
X14577500Y-3444460D01*
X14577500Y-3563460D02*
X14612500Y-3598460D01*
X14612500Y-3563460D02*
X14577500Y-3598460D01*
X14577500Y-3717460D02*
X14612500Y-3752460D01*
X14612500Y-3717460D02*
X14577500Y-3752460D01*
X14577500Y-3871460D02*
X14612500Y-3906460D01*
X14612500Y-3871460D02*
X14577500Y-3906460D01*
X14577500Y-4025460D02*
X14612500Y-4060460D01*
X14612500Y-4025460D02*
X14577500Y-4060460D01*
X14577500Y-4487460D02*
X14612500Y-4522460D01*
X14612500Y-4487460D02*
X14577500Y-4522460D01*
X14577500Y-4641460D02*
X14612500Y-4676460D01*
X14612500Y-4641460D02*
X14577500Y-4676460D01*
X14577500Y-4795460D02*
X14612500Y-4830460D01*
X14612500Y-4795460D02*
X14577500Y-4830460D01*
X14577500Y-4949460D02*
X14612500Y-4984460D01*
X14612500Y-4949460D02*
X14577500Y-4984460D01*
X14577500Y-5103460D02*
X14612500Y-5138460D01*
X14612500Y-5103460D02*
X14577500Y-5138460D01*
X14577500Y-5257460D02*
X14612500Y-5292460D01*
X14612500Y-5257460D02*
X14577500Y-5292460D01*
X14577500Y-5411460D02*
X14612500Y-5446460D01*
X14612500Y-5411460D02*
X14577500Y-5446460D01*
X14577500Y-5873460D02*
X14612500Y-5908460D01*
X14612500Y-5873460D02*
X14577500Y-5908460D01*
X14577500Y-6027460D02*
X14612500Y-6062460D01*
X14612500Y-6027460D02*
X14577500Y-6062460D01*
X14577500Y-6181460D02*
X14612500Y-6216460D01*
X14612500Y-6181460D02*
X14577500Y-6216460D01*
X14577500Y-6797460D02*
X14612500Y-6832460D01*
X14612500Y-6797460D02*
X14577500Y-6832460D01*
X14577500Y-6951460D02*
X14612500Y-6986460D01*
X14612500Y-6951460D02*
X14577500Y-6986460D01*
X14577500Y-7105460D02*
X14612500Y-7140460D01*
X14612500Y-7105460D02*
X14577500Y-7140460D01*
X14577500Y-7259460D02*
X14612500Y-7294460D01*
X14612500Y-7259460D02*
X14577500Y-7294460D01*
X14577500Y-7413460D02*
X14612500Y-7448460D01*
X14612500Y-7413460D02*
X14577500Y-7448460D01*
X14731500Y-2639460D02*
X14766500Y-2674460D01*
X14766500Y-2639460D02*
X14731500Y-2674460D01*
X14731500Y-2793460D02*
X14766500Y-2828460D01*
X14766500Y-2793460D02*
X14731500Y-2828460D01*
X14731500Y-3255460D02*
X14766500Y-3290460D01*
X14766500Y-3255460D02*
X14731500Y-3290460D01*
X14731500Y-3409460D02*
X14766500Y-3444460D01*
X14766500Y-3409460D02*
X14731500Y-3444460D01*
X14731500Y-3563460D02*
X14766500Y-3598460D01*
X14766500Y-3563460D02*
X14731500Y-3598460D01*
X14731500Y-3717460D02*
X14766500Y-3752460D01*
X14766500Y-3717460D02*
X14731500Y-3752460D01*
X14731500Y-3871460D02*
X14766500Y-3906460D01*
X14766500Y-3871460D02*
X14731500Y-3906460D01*
X14731500Y-4025460D02*
X14766500Y-4060460D01*
X14766500Y-4025460D02*
X14731500Y-4060460D01*
X14731500Y-4179460D02*
X14766500Y-4214460D01*
X14766500Y-4179460D02*
X14731500Y-4214460D01*
X14731500Y-4641460D02*
X14766500Y-4676460D01*
X14766500Y-4641460D02*
X14731500Y-4676460D01*
X14731500Y-5103460D02*
X14766500Y-5138460D01*
X14766500Y-5103460D02*
X14731500Y-5138460D01*
X14731500Y-5257460D02*
X14766500Y-5292460D01*
X14766500Y-5257460D02*
X14731500Y-5292460D01*
X14731500Y-5719460D02*
X14766500Y-5754460D01*
X14766500Y-5719460D02*
X14731500Y-5754460D01*
X14731500Y-5873460D02*
X14766500Y-5908460D01*
X14766500Y-5873460D02*
X14731500Y-5908460D01*
X14731500Y-6027460D02*
X14766500Y-6062460D01*
X14766500Y-6027460D02*
X14731500Y-6062460D01*
X14731500Y-6181460D02*
X14766500Y-6216460D01*
X14766500Y-6181460D02*
X14731500Y-6216460D01*
X14731500Y-6335460D02*
X14766500Y-6370460D01*
X14766500Y-6335460D02*
X14731500Y-6370460D01*
X14731500Y-6797460D02*
X14766500Y-6832460D01*
X14766500Y-6797460D02*
X14731500Y-6832460D01*
X14731500Y-6951460D02*
X14766500Y-6986460D01*
X14766500Y-6951460D02*
X14731500Y-6986460D01*
X14731500Y-7413460D02*
X14766500Y-7448460D01*
X14766500Y-7413460D02*
X14731500Y-7448460D01*
X14885500Y-2639460D02*
X14920500Y-2674460D01*
X14920500Y-2639460D02*
X14885500Y-2674460D01*
X14885500Y-2793460D02*
X14920500Y-2828460D01*
X14920500Y-2793460D02*
X14885500Y-2828460D01*
X14885500Y-3255460D02*
X14920500Y-3290460D01*
X14920500Y-3255460D02*
X14885500Y-3290460D01*
X14885500Y-3409460D02*
X14920500Y-3444460D01*
X14920500Y-3409460D02*
X14885500Y-3444460D01*
X14885500Y-3563460D02*
X14920500Y-3598460D01*
X14920500Y-3563460D02*
X14885500Y-3598460D01*
X14885500Y-3717460D02*
X14920500Y-3752460D01*
X14920500Y-3717460D02*
X14885500Y-3752460D01*
X14885500Y-3871460D02*
X14920500Y-3906460D01*
X14920500Y-3871460D02*
X14885500Y-3906460D01*
X14885500Y-4025460D02*
X14920500Y-4060460D01*
X14920500Y-4025460D02*
X14885500Y-4060460D01*
X14885500Y-4179460D02*
X14920500Y-4214460D01*
X14920500Y-4179460D02*
X14885500Y-4214460D01*
X14885500Y-5565460D02*
X14920500Y-5600460D01*
X14920500Y-5565460D02*
X14885500Y-5600460D01*
X14885500Y-5719460D02*
X14920500Y-5754460D01*
X14920500Y-5719460D02*
X14885500Y-5754460D01*
X14885500Y-5873460D02*
X14920500Y-5908460D01*
X14920500Y-5873460D02*
X14885500Y-5908460D01*
X14885500Y-6027460D02*
X14920500Y-6062460D01*
X14920500Y-6027460D02*
X14885500Y-6062460D01*
X14885500Y-6181460D02*
X14920500Y-6216460D01*
X14920500Y-6181460D02*
X14885500Y-6216460D01*
X14885500Y-6335460D02*
X14920500Y-6370460D01*
X14920500Y-6335460D02*
X14885500Y-6370460D01*
X14885500Y-6797460D02*
X14920500Y-6832460D01*
X14920500Y-6797460D02*
X14885500Y-6832460D01*
X14885500Y-6951460D02*
X14920500Y-6986460D01*
X14920500Y-6951460D02*
X14885500Y-6986460D01*
X14885500Y-7413460D02*
X14920500Y-7448460D01*
X14920500Y-7413460D02*
X14885500Y-7448460D01*
X15039500Y-2177460D02*
X15074500Y-2212460D01*
X15074500Y-2177460D02*
X15039500Y-2212460D01*
X15039500Y-2639460D02*
X15074500Y-2674460D01*
X15074500Y-2639460D02*
X15039500Y-2674460D01*
X15039500Y-2793460D02*
X15074500Y-2828460D01*
X15074500Y-2793460D02*
X15039500Y-2828460D01*
X15039500Y-3255460D02*
X15074500Y-3290460D01*
X15074500Y-3255460D02*
X15039500Y-3290460D01*
X15039500Y-3409460D02*
X15074500Y-3444460D01*
X15074500Y-3409460D02*
X15039500Y-3444460D01*
X15039500Y-3563460D02*
X15074500Y-3598460D01*
X15074500Y-3563460D02*
X15039500Y-3598460D01*
X15039500Y-3717460D02*
X15074500Y-3752460D01*
X15074500Y-3717460D02*
X15039500Y-3752460D01*
X15039500Y-3871460D02*
X15074500Y-3906460D01*
X15074500Y-3871460D02*
X15039500Y-3906460D01*
X15039500Y-4025460D02*
X15074500Y-4060460D01*
X15074500Y-4025460D02*
X15039500Y-4060460D01*
X15039500Y-4179460D02*
X15074500Y-4214460D01*
X15074500Y-4179460D02*
X15039500Y-4214460D01*
X15039500Y-5411460D02*
X15074500Y-5446460D01*
X15074500Y-5411460D02*
X15039500Y-5446460D01*
X15039500Y-5565460D02*
X15074500Y-5600460D01*
X15074500Y-5565460D02*
X15039500Y-5600460D01*
X15039500Y-5719460D02*
X15074500Y-5754460D01*
X15074500Y-5719460D02*
X15039500Y-5754460D01*
X15039500Y-5873460D02*
X15074500Y-5908460D01*
X15074500Y-5873460D02*
X15039500Y-5908460D01*
X15039500Y-6027460D02*
X15074500Y-6062460D01*
X15074500Y-6027460D02*
X15039500Y-6062460D01*
X15039500Y-6181460D02*
X15074500Y-6216460D01*
X15074500Y-6181460D02*
X15039500Y-6216460D01*
X15039500Y-6335460D02*
X15074500Y-6370460D01*
X15074500Y-6335460D02*
X15039500Y-6370460D01*
X15039500Y-6797460D02*
X15074500Y-6832460D01*
X15074500Y-6797460D02*
X15039500Y-6832460D01*
X15039500Y-6951460D02*
X15074500Y-6986460D01*
X15074500Y-6951460D02*
X15039500Y-6986460D01*
X15039500Y-7413460D02*
X15074500Y-7448460D01*
X15074500Y-7413460D02*
X15039500Y-7448460D01*
X10232500Y-7290000D02*
G75*
G02*
X10177500Y-7290000I-27500J0D01*
G01*
X10177500Y-7290000D02*
G75*
G02*
X10232500Y-7290000I27500J0D01*
G01*
X10232500Y-7415000D02*
G75*
G02*
X10177500Y-7415000I-27500J0D01*
G01*
X10177500Y-7415000D02*
G75*
G02*
X10232500Y-7415000I27500J0D01*
G01*
X10357500Y-7290000D02*
G75*
G02*
X10302500Y-7290000I-27500J0D01*
G01*
X10302500Y-7290000D02*
G75*
G02*
X10357500Y-7290000I27500J0D01*
G01*
X10357500Y-7415000D02*
G75*
G02*
X10302500Y-7415000I-27500J0D01*
G01*
X10302500Y-7415000D02*
G75*
G02*
X10357500Y-7415000I27500J0D01*
G01*
X10482500Y-7290000D02*
G75*
G02*
X10427500Y-7290000I-27500J0D01*
G01*
X10427500Y-7290000D02*
G75*
G02*
X10482500Y-7290000I27500J0D01*
G01*
X10482500Y-7415000D02*
G75*
G02*
X10427500Y-7415000I-27500J0D01*
G01*
X10427500Y-7415000D02*
G75*
G02*
X10482500Y-7415000I27500J0D01*
G01*
X10516500Y-3980000D02*
X10516500Y-4050000D01*
X10481500Y-4015000D02*
X10551500Y-4015000D01*
X10605500Y-2910000D02*
X10605500Y-2980000D01*
X10570500Y-2945000D02*
X10640500Y-2945000D01*
X10694500Y-3980000D02*
X10694500Y-4050000D01*
X10659500Y-4015000D02*
X10729500Y-4015000D01*
X10783500Y-2910000D02*
X10783500Y-2980000D01*
X10748500Y-2945000D02*
X10818500Y-2945000D01*
X10872500Y-3980000D02*
X10872500Y-4050000D01*
X10837500Y-4015000D02*
X10907500Y-4015000D01*
X10961500Y-2910000D02*
X10961500Y-2980000D01*
X10926500Y-2945000D02*
X10996500Y-2945000D01*
X11050500Y-3980000D02*
X11050500Y-4050000D01*
X11015500Y-4015000D02*
X11085500Y-4015000D01*
X11139500Y-2910000D02*
X11139500Y-2980000D01*
X11104500Y-2945000D02*
X11174500Y-2945000D01*
X11228500Y-3980000D02*
X11228500Y-4050000D01*
X11193500Y-4015000D02*
X11263500Y-4015000D01*
X11317500Y-2910000D02*
X11317500Y-2980000D01*
X11282500Y-2945000D02*
X11352500Y-2945000D01*
X11406500Y-3980000D02*
X11406500Y-4050000D01*
X11371500Y-4015000D02*
X11441500Y-4015000D01*
X11495500Y-2910000D02*
X11495500Y-2980000D01*
X11460500Y-2945000D02*
X11530500Y-2945000D01*
X11584500Y-3980000D02*
X11584500Y-4050000D01*
X11549500Y-4015000D02*
X11619500Y-4015000D01*
X11673500Y-2910000D02*
X11673500Y-2980000D01*
X11638500Y-2945000D02*
X11708500Y-2945000D01*
X11762500Y-3980000D02*
X11762500Y-4050000D01*
X11727500Y-4015000D02*
X11797500Y-4015000D01*
X11851500Y-2910000D02*
X11851500Y-2980000D01*
X11816500Y-2945000D02*
X11886500Y-2945000D01*
X10127431Y-2331431D02*
X10127431Y-2268569D01*
X10064569Y-2268569D01*
X10064569Y-2331431D01*
X10127431Y-2331431D01*
X10381431Y-2331431D02*
X10381431Y-2268569D01*
X10318569Y-2268569D01*
X10318569Y-2331431D01*
X10381431Y-2331431D01*
X10635431Y-2331431D02*
X10635431Y-2268569D01*
X10572569Y-2268569D01*
X10572569Y-2331431D01*
X10635431Y-2331431D01*
X12665000Y-4225000D02*
X12710000Y-4180000D01*
X12665000Y-4135000D01*
X12620000Y-4180000D01*
X12665000Y-4225000D01*
X12787500Y-4464000D02*
X12832500Y-4419000D01*
X12787500Y-4374000D01*
X12742500Y-4419000D01*
X12787500Y-4464000D01*
X12787500Y-4718000D02*
X12832500Y-4673000D01*
X12787500Y-4628000D01*
X12742500Y-4673000D01*
X12787500Y-4718000D01*
X12787500Y-4972000D02*
X12832500Y-4927000D01*
X12787500Y-4882000D01*
X12742500Y-4927000D01*
X12787500Y-4972000D01*
X12787500Y-5226000D02*
X12832500Y-5181000D01*
X12787500Y-5136000D01*
X12742500Y-5181000D01*
X12787500Y-5226000D01*
X12850000Y-4225000D02*
X12895000Y-4180000D01*
X12850000Y-4135000D01*
X12805000Y-4180000D01*
X12850000Y-4225000D01*
X14798000Y-6625000D02*
X14843000Y-6580000D01*
X14798000Y-6535000D01*
X14753000Y-6580000D01*
X14798000Y-6625000D01*
X14808000Y-3040000D02*
X14853000Y-2995000D01*
X14808000Y-2950000D01*
X14763000Y-2995000D01*
X14808000Y-3040000D01*
X15052000Y-6625000D02*
X15097000Y-6580000D01*
X15052000Y-6535000D01*
X15007000Y-6580000D01*
X15052000Y-6625000D01*
X15062000Y-3040000D02*
X15107000Y-2995000D01*
X15062000Y-2950000D01*
X15017000Y-2995000D01*
X15062000Y-3040000D01*
X10920000Y-7350000D02*
X11020000Y-7450000D01*
X11020000Y-7350000D02*
X10920000Y-7450000D01*
X11020000Y-7400000D02*
G75*
G02*
X10920000Y-7400000I-50000J0D01*
G01*
X10920000Y-7400000D02*
G75*
G02*
X11020000Y-7400000I50000J0D01*
G01*
X11174000Y-7350000D02*
X11274000Y-7450000D01*
X11274000Y-7350000D02*
X11174000Y-7450000D01*
X11274000Y-7400000D02*
G75*
G02*
X11174000Y-7400000I-50000J0D01*
G01*
X11174000Y-7400000D02*
G75*
G02*
X11274000Y-7400000I50000J0D01*
G01*
X11428000Y-7350000D02*
X11528000Y-7450000D01*
X11528000Y-7350000D02*
X11428000Y-7450000D01*
X11528000Y-7400000D02*
G75*
G02*
X11428000Y-7400000I-50000J0D01*
G01*
X11428000Y-7400000D02*
G75*
G02*
X11528000Y-7400000I50000J0D01*
G01*
X11682000Y-7350000D02*
X11782000Y-7450000D01*
X11782000Y-7350000D02*
X11682000Y-7450000D01*
X11782000Y-7400000D02*
G75*
G02*
X11682000Y-7400000I-50000J0D01*
G01*
X11682000Y-7400000D02*
G75*
G02*
X11782000Y-7400000I50000J0D01*
G01*
X13192000Y-3750000D02*
X13292000Y-3850000D01*
X13292000Y-3750000D02*
X13192000Y-3850000D01*
X13292000Y-3800000D02*
G75*
G02*
X13192000Y-3800000I-50000J0D01*
G01*
X13192000Y-3800000D02*
G75*
G02*
X13292000Y-3800000I50000J0D01*
G01*
X13192000Y-5850000D02*
X13292000Y-5950000D01*
X13292000Y-5850000D02*
X13192000Y-5950000D01*
X13292000Y-5900000D02*
G75*
G02*
X13192000Y-5900000I-50000J0D01*
G01*
X13192000Y-5900000D02*
G75*
G02*
X13292000Y-5900000I50000J0D01*
G01*
X13700000Y-3750000D02*
X13800000Y-3850000D01*
X13800000Y-3750000D02*
X13700000Y-3850000D01*
X13800000Y-3800000D02*
G75*
G02*
X13700000Y-3800000I-50000J0D01*
G01*
X13700000Y-3800000D02*
G75*
G02*
X13800000Y-3800000I50000J0D01*
G01*
X13700000Y-5850000D02*
X13800000Y-5950000D01*
X13800000Y-5850000D02*
X13700000Y-5950000D01*
X13800000Y-5900000D02*
G75*
G02*
X13700000Y-5900000I-50000J0D01*
G01*
X13700000Y-5900000D02*
G75*
G02*
X13800000Y-5900000I50000J0D01*
G01*
X14208000Y-3750000D02*
X14308000Y-3850000D01*
X14308000Y-3750000D02*
X14208000Y-3850000D01*
X14308000Y-3800000D02*
G75*
G02*
X14208000Y-3800000I-50000J0D01*
G01*
X14208000Y-3800000D02*
G75*
G02*
X14308000Y-3800000I50000J0D01*
G01*
X14208000Y-5850000D02*
X14308000Y-5950000D01*
X14308000Y-5850000D02*
X14208000Y-5950000D01*
X14308000Y-5900000D02*
G75*
G02*
X14208000Y-5900000I-50000J0D01*
G01*
X14208000Y-5900000D02*
G75*
G02*
X14308000Y-5900000I50000J0D01*
G01*
X14870000Y-4380000D02*
X14970000Y-4480000D01*
X14970000Y-4380000D02*
X14870000Y-4480000D01*
X14970000Y-4430000D02*
G75*
G02*
X14870000Y-4430000I-50000J0D01*
G01*
X14870000Y-4430000D02*
G75*
G02*
X14970000Y-4430000I50000J0D01*
G01*
X14870000Y-4634000D02*
X14970000Y-4734000D01*
X14970000Y-4634000D02*
X14870000Y-4734000D01*
X14970000Y-4684000D02*
G75*
G02*
X14870000Y-4684000I-50000J0D01*
G01*
X14870000Y-4684000D02*
G75*
G02*
X14970000Y-4684000I50000J0D01*
G01*
X14870000Y-4888000D02*
X14970000Y-4988000D01*
X14970000Y-4888000D02*
X14870000Y-4988000D01*
X14970000Y-4938000D02*
G75*
G02*
X14870000Y-4938000I-50000J0D01*
G01*
X14870000Y-4938000D02*
G75*
G02*
X14970000Y-4938000I50000J0D01*
G01*
X14870000Y-5142000D02*
X14970000Y-5242000D01*
X14970000Y-5142000D02*
X14870000Y-5242000D01*
X14970000Y-5192000D02*
G75*
G02*
X14870000Y-5192000I-50000J0D01*
G01*
X14870000Y-5192000D02*
G75*
G02*
X14970000Y-5192000I50000J0D01*
G01*
D11*
X9458277Y-7863984D02*
X9458277Y-7663984D01*
X9458277Y-7663984D02*
X9505896Y-7663984D01*
X9505896Y-7663984D02*
X9534467Y-7673508D01*
X9534467Y-7673508D02*
X9553515Y-7692555D01*
X9553515Y-7692555D02*
X9563039Y-7711603D01*
X9563039Y-7711603D02*
X9572563Y-7749698D01*
X9572563Y-7749698D02*
X9572563Y-7778269D01*
X9572563Y-7778269D02*
X9563039Y-7816365D01*
X9563039Y-7816365D02*
X9553515Y-7835412D01*
X9553515Y-7835412D02*
X9534467Y-7854460D01*
X9534467Y-7854460D02*
X9505896Y-7863984D01*
X9505896Y-7863984D02*
X9458277Y-7863984D01*
X9658277Y-7863984D02*
X9658277Y-7730650D01*
X9658277Y-7768746D02*
X9667801Y-7749698D01*
X9667801Y-7749698D02*
X9677324Y-7740174D01*
X9677324Y-7740174D02*
X9696372Y-7730650D01*
X9696372Y-7730650D02*
X9715420Y-7730650D01*
X9782086Y-7863984D02*
X9782086Y-7730650D01*
X9782086Y-7663984D02*
X9772563Y-7673508D01*
X9772563Y-7673508D02*
X9782086Y-7683031D01*
X9782086Y-7683031D02*
X9791610Y-7673508D01*
X9791610Y-7673508D02*
X9782086Y-7663984D01*
X9782086Y-7663984D02*
X9782086Y-7683031D01*
X9905896Y-7863984D02*
X9886848Y-7854460D01*
X9886848Y-7854460D02*
X9877324Y-7835412D01*
X9877324Y-7835412D02*
X9877324Y-7663984D01*
X10010658Y-7863984D02*
X9991610Y-7854460D01*
X9991610Y-7854460D02*
X9982086Y-7835412D01*
X9982086Y-7835412D02*
X9982086Y-7663984D01*
X10239229Y-7863984D02*
X10239229Y-7663984D01*
X10239229Y-7663984D02*
X10305896Y-7806841D01*
X10305896Y-7806841D02*
X10372563Y-7663984D01*
X10372563Y-7663984D02*
X10372563Y-7863984D01*
X10553515Y-7863984D02*
X10553515Y-7759222D01*
X10553515Y-7759222D02*
X10543991Y-7740174D01*
X10543991Y-7740174D02*
X10524944Y-7730650D01*
X10524944Y-7730650D02*
X10486848Y-7730650D01*
X10486848Y-7730650D02*
X10467801Y-7740174D01*
X10553515Y-7854460D02*
X10534467Y-7863984D01*
X10534467Y-7863984D02*
X10486848Y-7863984D01*
X10486848Y-7863984D02*
X10467801Y-7854460D01*
X10467801Y-7854460D02*
X10458277Y-7835412D01*
X10458277Y-7835412D02*
X10458277Y-7816365D01*
X10458277Y-7816365D02*
X10467801Y-7797317D01*
X10467801Y-7797317D02*
X10486848Y-7787793D01*
X10486848Y-7787793D02*
X10534467Y-7787793D01*
X10534467Y-7787793D02*
X10553515Y-7778269D01*
X10648753Y-7730650D02*
X10648753Y-7930650D01*
X10648753Y-7740174D02*
X10667801Y-7730650D01*
X10667801Y-7730650D02*
X10705896Y-7730650D01*
X10705896Y-7730650D02*
X10724944Y-7740174D01*
X10724944Y-7740174D02*
X10734467Y-7749698D01*
X10734467Y-7749698D02*
X10743991Y-7768746D01*
X10743991Y-7768746D02*
X10743991Y-7825888D01*
X10743991Y-7825888D02*
X10734467Y-7844936D01*
X10734467Y-7844936D02*
X10724944Y-7854460D01*
X10724944Y-7854460D02*
X10705896Y-7863984D01*
X10705896Y-7863984D02*
X10667801Y-7863984D01*
X10667801Y-7863984D02*
X10648753Y-7854460D01*
X10829705Y-7844936D02*
X10839229Y-7854460D01*
X10839229Y-7854460D02*
X10829705Y-7863984D01*
X10829705Y-7863984D02*
X10820182Y-7854460D01*
X10820182Y-7854460D02*
X10829705Y-7844936D01*
X10829705Y-7844936D02*
X10829705Y-7863984D01*
X10829705Y-7740174D02*
X10839229Y-7749698D01*
X10839229Y-7749698D02*
X10829705Y-7759222D01*
X10829705Y-7759222D02*
X10820182Y-7749698D01*
X10820182Y-7749698D02*
X10829705Y-7740174D01*
X10829705Y-7740174D02*
X10829705Y-7759222D01*
D12*
X9162500Y-8175000D02*
X9197500Y-8210000D01*
X9197500Y-8175000D02*
X9162500Y-8210000D01*
D11*
X9496372Y-8083984D02*
X9515420Y-8083984D01*
X9515420Y-8083984D02*
X9534467Y-8093508D01*
X9534467Y-8093508D02*
X9543991Y-8103031D01*
X9543991Y-8103031D02*
X9553515Y-8122079D01*
X9553515Y-8122079D02*
X9563039Y-8160174D01*
X9563039Y-8160174D02*
X9563039Y-8207793D01*
X9563039Y-8207793D02*
X9553515Y-8245888D01*
X9553515Y-8245888D02*
X9543991Y-8264936D01*
X9543991Y-8264936D02*
X9534467Y-8274460D01*
X9534467Y-8274460D02*
X9515420Y-8283984D01*
X9515420Y-8283984D02*
X9496372Y-8283984D01*
X9496372Y-8283984D02*
X9477324Y-8274460D01*
X9477324Y-8274460D02*
X9467801Y-8264936D01*
X9467801Y-8264936D02*
X9458277Y-8245888D01*
X9458277Y-8245888D02*
X9448753Y-8207793D01*
X9448753Y-8207793D02*
X9448753Y-8160174D01*
X9448753Y-8160174D02*
X9458277Y-8122079D01*
X9458277Y-8122079D02*
X9467801Y-8103031D01*
X9467801Y-8103031D02*
X9477324Y-8093508D01*
X9477324Y-8093508D02*
X9496372Y-8083984D01*
X9648753Y-8264936D02*
X9658277Y-8274460D01*
X9658277Y-8274460D02*
X9648753Y-8283984D01*
X9648753Y-8283984D02*
X9639229Y-8274460D01*
X9639229Y-8274460D02*
X9648753Y-8264936D01*
X9648753Y-8264936D02*
X9648753Y-8283984D01*
X9724944Y-8083984D02*
X9848753Y-8083984D01*
X9848753Y-8083984D02*
X9782086Y-8160174D01*
X9782086Y-8160174D02*
X9810658Y-8160174D01*
X9810658Y-8160174D02*
X9829705Y-8169698D01*
X9829705Y-8169698D02*
X9839229Y-8179222D01*
X9839229Y-8179222D02*
X9848753Y-8198269D01*
X9848753Y-8198269D02*
X9848753Y-8245888D01*
X9848753Y-8245888D02*
X9839229Y-8264936D01*
X9839229Y-8264936D02*
X9829705Y-8274460D01*
X9829705Y-8274460D02*
X9810658Y-8283984D01*
X9810658Y-8283984D02*
X9753515Y-8283984D01*
X9753515Y-8283984D02*
X9734467Y-8274460D01*
X9734467Y-8274460D02*
X9724944Y-8264936D01*
X10029705Y-8083984D02*
X9934467Y-8083984D01*
X9934467Y-8083984D02*
X9924944Y-8179222D01*
X9924944Y-8179222D02*
X9934467Y-8169698D01*
X9934467Y-8169698D02*
X9953515Y-8160174D01*
X9953515Y-8160174D02*
X10001134Y-8160174D01*
X10001134Y-8160174D02*
X10020182Y-8169698D01*
X10020182Y-8169698D02*
X10029705Y-8179222D01*
X10029705Y-8179222D02*
X10039229Y-8198269D01*
X10039229Y-8198269D02*
X10039229Y-8245888D01*
X10039229Y-8245888D02*
X10029705Y-8264936D01*
X10029705Y-8264936D02*
X10020182Y-8274460D01*
X10020182Y-8274460D02*
X10001134Y-8283984D01*
X10001134Y-8283984D02*
X9953515Y-8283984D01*
X9953515Y-8283984D02*
X9934467Y-8274460D01*
X9934467Y-8274460D02*
X9924944Y-8264936D01*
X10163039Y-8083984D02*
X10182086Y-8083984D01*
X10182086Y-8083984D02*
X10201134Y-8093508D01*
X10201134Y-8093508D02*
X10210658Y-8103031D01*
X10210658Y-8103031D02*
X10220182Y-8122079D01*
X10220182Y-8122079D02*
X10229705Y-8160174D01*
X10229705Y-8160174D02*
X10229705Y-8207793D01*
X10229705Y-8207793D02*
X10220182Y-8245888D01*
X10220182Y-8245888D02*
X10210658Y-8264936D01*
X10210658Y-8264936D02*
X10201134Y-8274460D01*
X10201134Y-8274460D02*
X10182086Y-8283984D01*
X10182086Y-8283984D02*
X10163039Y-8283984D01*
X10163039Y-8283984D02*
X10143991Y-8274460D01*
X10143991Y-8274460D02*
X10134467Y-8264936D01*
X10134467Y-8264936D02*
X10124944Y-8245888D01*
X10124944Y-8245888D02*
X10115420Y-8207793D01*
X10115420Y-8207793D02*
X10115420Y-8160174D01*
X10115420Y-8160174D02*
X10124944Y-8122079D01*
X10124944Y-8122079D02*
X10134467Y-8103031D01*
X10134467Y-8103031D02*
X10143991Y-8093508D01*
X10143991Y-8093508D02*
X10163039Y-8083984D01*
X10315420Y-8283984D02*
X10315420Y-8150650D01*
X10315420Y-8169698D02*
X10324944Y-8160174D01*
X10324944Y-8160174D02*
X10343991Y-8150650D01*
X10343991Y-8150650D02*
X10372563Y-8150650D01*
X10372563Y-8150650D02*
X10391610Y-8160174D01*
X10391610Y-8160174D02*
X10401134Y-8179222D01*
X10401134Y-8179222D02*
X10401134Y-8283984D01*
X10401134Y-8179222D02*
X10410658Y-8160174D01*
X10410658Y-8160174D02*
X10429705Y-8150650D01*
X10429705Y-8150650D02*
X10458277Y-8150650D01*
X10458277Y-8150650D02*
X10477325Y-8160174D01*
X10477325Y-8160174D02*
X10486848Y-8179222D01*
X10486848Y-8179222D02*
X10486848Y-8283984D01*
X10582086Y-8283984D02*
X10582086Y-8150650D01*
X10582086Y-8169698D02*
X10591610Y-8160174D01*
X10591610Y-8160174D02*
X10610658Y-8150650D01*
X10610658Y-8150650D02*
X10639229Y-8150650D01*
X10639229Y-8150650D02*
X10658277Y-8160174D01*
X10658277Y-8160174D02*
X10667801Y-8179222D01*
X10667801Y-8179222D02*
X10667801Y-8283984D01*
X10667801Y-8179222D02*
X10677325Y-8160174D01*
X10677325Y-8160174D02*
X10696372Y-8150650D01*
X10696372Y-8150650D02*
X10724944Y-8150650D01*
X10724944Y-8150650D02*
X10743991Y-8160174D01*
X10743991Y-8160174D02*
X10753515Y-8179222D01*
X10753515Y-8179222D02*
X10753515Y-8283984D01*
X11143991Y-8074460D02*
X10972563Y-8331603D01*
X11401134Y-8083984D02*
X11420182Y-8083984D01*
X11420182Y-8083984D02*
X11439229Y-8093508D01*
X11439229Y-8093508D02*
X11448753Y-8103031D01*
X11448753Y-8103031D02*
X11458277Y-8122079D01*
X11458277Y-8122079D02*
X11467801Y-8160174D01*
X11467801Y-8160174D02*
X11467801Y-8207793D01*
X11467801Y-8207793D02*
X11458277Y-8245888D01*
X11458277Y-8245888D02*
X11448753Y-8264936D01*
X11448753Y-8264936D02*
X11439229Y-8274460D01*
X11439229Y-8274460D02*
X11420182Y-8283984D01*
X11420182Y-8283984D02*
X11401134Y-8283984D01*
X11401134Y-8283984D02*
X11382086Y-8274460D01*
X11382086Y-8274460D02*
X11372563Y-8264936D01*
X11372563Y-8264936D02*
X11363039Y-8245888D01*
X11363039Y-8245888D02*
X11353515Y-8207793D01*
X11353515Y-8207793D02*
X11353515Y-8160174D01*
X11353515Y-8160174D02*
X11363039Y-8122079D01*
X11363039Y-8122079D02*
X11372563Y-8103031D01*
X11372563Y-8103031D02*
X11382086Y-8093508D01*
X11382086Y-8093508D02*
X11401134Y-8083984D01*
X11553515Y-8264936D02*
X11563039Y-8274460D01*
X11563039Y-8274460D02*
X11553515Y-8283984D01*
X11553515Y-8283984D02*
X11543991Y-8274460D01*
X11543991Y-8274460D02*
X11553515Y-8264936D01*
X11553515Y-8264936D02*
X11553515Y-8283984D01*
X11686848Y-8083984D02*
X11705896Y-8083984D01*
X11705896Y-8083984D02*
X11724944Y-8093508D01*
X11724944Y-8093508D02*
X11734467Y-8103031D01*
X11734467Y-8103031D02*
X11743991Y-8122079D01*
X11743991Y-8122079D02*
X11753515Y-8160174D01*
X11753515Y-8160174D02*
X11753515Y-8207793D01*
X11753515Y-8207793D02*
X11743991Y-8245888D01*
X11743991Y-8245888D02*
X11734467Y-8264936D01*
X11734467Y-8264936D02*
X11724944Y-8274460D01*
X11724944Y-8274460D02*
X11705896Y-8283984D01*
X11705896Y-8283984D02*
X11686848Y-8283984D01*
X11686848Y-8283984D02*
X11667801Y-8274460D01*
X11667801Y-8274460D02*
X11658277Y-8264936D01*
X11658277Y-8264936D02*
X11648753Y-8245888D01*
X11648753Y-8245888D02*
X11639229Y-8207793D01*
X11639229Y-8207793D02*
X11639229Y-8160174D01*
X11639229Y-8160174D02*
X11648753Y-8122079D01*
X11648753Y-8122079D02*
X11658277Y-8103031D01*
X11658277Y-8103031D02*
X11667801Y-8093508D01*
X11667801Y-8093508D02*
X11686848Y-8083984D01*
X11943991Y-8283984D02*
X11829706Y-8283984D01*
X11886848Y-8283984D02*
X11886848Y-8083984D01*
X11886848Y-8083984D02*
X11867801Y-8112555D01*
X11867801Y-8112555D02*
X11848753Y-8131603D01*
X11848753Y-8131603D02*
X11829706Y-8141127D01*
X12010658Y-8083984D02*
X12134467Y-8083984D01*
X12134467Y-8083984D02*
X12067801Y-8160174D01*
X12067801Y-8160174D02*
X12096372Y-8160174D01*
X12096372Y-8160174D02*
X12115420Y-8169698D01*
X12115420Y-8169698D02*
X12124944Y-8179222D01*
X12124944Y-8179222D02*
X12134467Y-8198269D01*
X12134467Y-8198269D02*
X12134467Y-8245888D01*
X12134467Y-8245888D02*
X12124944Y-8264936D01*
X12124944Y-8264936D02*
X12115420Y-8274460D01*
X12115420Y-8274460D02*
X12096372Y-8283984D01*
X12096372Y-8283984D02*
X12039229Y-8283984D01*
X12039229Y-8283984D02*
X12020182Y-8274460D01*
X12020182Y-8274460D02*
X12010658Y-8264936D01*
X12248753Y-8169698D02*
X12229706Y-8160174D01*
X12229706Y-8160174D02*
X12220182Y-8150650D01*
X12220182Y-8150650D02*
X12210658Y-8131603D01*
X12210658Y-8131603D02*
X12210658Y-8122079D01*
X12210658Y-8122079D02*
X12220182Y-8103031D01*
X12220182Y-8103031D02*
X12229706Y-8093508D01*
X12229706Y-8093508D02*
X12248753Y-8083984D01*
X12248753Y-8083984D02*
X12286848Y-8083984D01*
X12286848Y-8083984D02*
X12305896Y-8093508D01*
X12305896Y-8093508D02*
X12315420Y-8103031D01*
X12315420Y-8103031D02*
X12324944Y-8122079D01*
X12324944Y-8122079D02*
X12324944Y-8131603D01*
X12324944Y-8131603D02*
X12315420Y-8150650D01*
X12315420Y-8150650D02*
X12305896Y-8160174D01*
X12305896Y-8160174D02*
X12286848Y-8169698D01*
X12286848Y-8169698D02*
X12248753Y-8169698D01*
X12248753Y-8169698D02*
X12229706Y-8179222D01*
X12229706Y-8179222D02*
X12220182Y-8188746D01*
X12220182Y-8188746D02*
X12210658Y-8207793D01*
X12210658Y-8207793D02*
X12210658Y-8245888D01*
X12210658Y-8245888D02*
X12220182Y-8264936D01*
X12220182Y-8264936D02*
X12229706Y-8274460D01*
X12229706Y-8274460D02*
X12248753Y-8283984D01*
X12248753Y-8283984D02*
X12286848Y-8283984D01*
X12286848Y-8283984D02*
X12305896Y-8274460D01*
X12305896Y-8274460D02*
X12315420Y-8264936D01*
X12315420Y-8264936D02*
X12324944Y-8245888D01*
X12324944Y-8245888D02*
X12324944Y-8207793D01*
X12324944Y-8207793D02*
X12315420Y-8188746D01*
X12315420Y-8188746D02*
X12305896Y-8179222D01*
X12305896Y-8179222D02*
X12286848Y-8169698D01*
X12401134Y-8083984D02*
X12401134Y-8122079D01*
X12477325Y-8083984D02*
X12477325Y-8122079D01*
X12772563Y-8360174D02*
X12763039Y-8350650D01*
X12763039Y-8350650D02*
X12743991Y-8322079D01*
X12743991Y-8322079D02*
X12734468Y-8303031D01*
X12734468Y-8303031D02*
X12724944Y-8274460D01*
X12724944Y-8274460D02*
X12715420Y-8226841D01*
X12715420Y-8226841D02*
X12715420Y-8188746D01*
X12715420Y-8188746D02*
X12724944Y-8141127D01*
X12724944Y-8141127D02*
X12734468Y-8112555D01*
X12734468Y-8112555D02*
X12743991Y-8093508D01*
X12743991Y-8093508D02*
X12763039Y-8064936D01*
X12763039Y-8064936D02*
X12772563Y-8055412D01*
X12943991Y-8083984D02*
X12848753Y-8083984D01*
X12848753Y-8083984D02*
X12839229Y-8179222D01*
X12839229Y-8179222D02*
X12848753Y-8169698D01*
X12848753Y-8169698D02*
X12867801Y-8160174D01*
X12867801Y-8160174D02*
X12915420Y-8160174D01*
X12915420Y-8160174D02*
X12934468Y-8169698D01*
X12934468Y-8169698D02*
X12943991Y-8179222D01*
X12943991Y-8179222D02*
X12953515Y-8198269D01*
X12953515Y-8198269D02*
X12953515Y-8245888D01*
X12953515Y-8245888D02*
X12943991Y-8264936D01*
X12943991Y-8264936D02*
X12934468Y-8274460D01*
X12934468Y-8274460D02*
X12915420Y-8283984D01*
X12915420Y-8283984D02*
X12867801Y-8283984D01*
X12867801Y-8283984D02*
X12848753Y-8274460D01*
X12848753Y-8274460D02*
X12839229Y-8264936D01*
X13048753Y-8283984D02*
X13086848Y-8283984D01*
X13086848Y-8283984D02*
X13105896Y-8274460D01*
X13105896Y-8274460D02*
X13115420Y-8264936D01*
X13115420Y-8264936D02*
X13134468Y-8236365D01*
X13134468Y-8236365D02*
X13143991Y-8198269D01*
X13143991Y-8198269D02*
X13143991Y-8122079D01*
X13143991Y-8122079D02*
X13134468Y-8103031D01*
X13134468Y-8103031D02*
X13124944Y-8093508D01*
X13124944Y-8093508D02*
X13105896Y-8083984D01*
X13105896Y-8083984D02*
X13067801Y-8083984D01*
X13067801Y-8083984D02*
X13048753Y-8093508D01*
X13048753Y-8093508D02*
X13039229Y-8103031D01*
X13039229Y-8103031D02*
X13029706Y-8122079D01*
X13029706Y-8122079D02*
X13029706Y-8169698D01*
X13029706Y-8169698D02*
X13039229Y-8188746D01*
X13039229Y-8188746D02*
X13048753Y-8198269D01*
X13048753Y-8198269D02*
X13067801Y-8207793D01*
X13067801Y-8207793D02*
X13105896Y-8207793D01*
X13105896Y-8207793D02*
X13124944Y-8198269D01*
X13124944Y-8198269D02*
X13134468Y-8188746D01*
X13134468Y-8188746D02*
X13143991Y-8169698D01*
X13315420Y-8150650D02*
X13315420Y-8283984D01*
X13267801Y-8074460D02*
X13220182Y-8217317D01*
X13220182Y-8217317D02*
X13343991Y-8217317D01*
X13572563Y-8283984D02*
X13572563Y-8083984D01*
X13658277Y-8283984D02*
X13658277Y-8179222D01*
X13658277Y-8179222D02*
X13648753Y-8160174D01*
X13648753Y-8160174D02*
X13629706Y-8150650D01*
X13629706Y-8150650D02*
X13601134Y-8150650D01*
X13601134Y-8150650D02*
X13582087Y-8160174D01*
X13582087Y-8160174D02*
X13572563Y-8169698D01*
X13782087Y-8283984D02*
X13763039Y-8274460D01*
X13763039Y-8274460D02*
X13753515Y-8264936D01*
X13753515Y-8264936D02*
X13743991Y-8245888D01*
X13743991Y-8245888D02*
X13743991Y-8188746D01*
X13743991Y-8188746D02*
X13753515Y-8169698D01*
X13753515Y-8169698D02*
X13763039Y-8160174D01*
X13763039Y-8160174D02*
X13782087Y-8150650D01*
X13782087Y-8150650D02*
X13810658Y-8150650D01*
X13810658Y-8150650D02*
X13829706Y-8160174D01*
X13829706Y-8160174D02*
X13839230Y-8169698D01*
X13839230Y-8169698D02*
X13848753Y-8188746D01*
X13848753Y-8188746D02*
X13848753Y-8245888D01*
X13848753Y-8245888D02*
X13839230Y-8264936D01*
X13839230Y-8264936D02*
X13829706Y-8274460D01*
X13829706Y-8274460D02*
X13810658Y-8283984D01*
X13810658Y-8283984D02*
X13782087Y-8283984D01*
X13963039Y-8283984D02*
X13943991Y-8274460D01*
X13943991Y-8274460D02*
X13934468Y-8255412D01*
X13934468Y-8255412D02*
X13934468Y-8083984D01*
X14115420Y-8274460D02*
X14096372Y-8283984D01*
X14096372Y-8283984D02*
X14058277Y-8283984D01*
X14058277Y-8283984D02*
X14039230Y-8274460D01*
X14039230Y-8274460D02*
X14029706Y-8255412D01*
X14029706Y-8255412D02*
X14029706Y-8179222D01*
X14029706Y-8179222D02*
X14039230Y-8160174D01*
X14039230Y-8160174D02*
X14058277Y-8150650D01*
X14058277Y-8150650D02*
X14096372Y-8150650D01*
X14096372Y-8150650D02*
X14115420Y-8160174D01*
X14115420Y-8160174D02*
X14124944Y-8179222D01*
X14124944Y-8179222D02*
X14124944Y-8198269D01*
X14124944Y-8198269D02*
X14029706Y-8217317D01*
X14201134Y-8274460D02*
X14220182Y-8283984D01*
X14220182Y-8283984D02*
X14258277Y-8283984D01*
X14258277Y-8283984D02*
X14277325Y-8274460D01*
X14277325Y-8274460D02*
X14286849Y-8255412D01*
X14286849Y-8255412D02*
X14286849Y-8245888D01*
X14286849Y-8245888D02*
X14277325Y-8226841D01*
X14277325Y-8226841D02*
X14258277Y-8217317D01*
X14258277Y-8217317D02*
X14229706Y-8217317D01*
X14229706Y-8217317D02*
X14210658Y-8207793D01*
X14210658Y-8207793D02*
X14201134Y-8188746D01*
X14201134Y-8188746D02*
X14201134Y-8179222D01*
X14201134Y-8179222D02*
X14210658Y-8160174D01*
X14210658Y-8160174D02*
X14229706Y-8150650D01*
X14229706Y-8150650D02*
X14258277Y-8150650D01*
X14258277Y-8150650D02*
X14277325Y-8160174D01*
X14353515Y-8360174D02*
X14363039Y-8350650D01*
X14363039Y-8350650D02*
X14382087Y-8322079D01*
X14382087Y-8322079D02*
X14391611Y-8303031D01*
X14391611Y-8303031D02*
X14401134Y-8274460D01*
X14401134Y-8274460D02*
X14410658Y-8226841D01*
X14410658Y-8226841D02*
X14410658Y-8188746D01*
X14410658Y-8188746D02*
X14401134Y-8141127D01*
X14401134Y-8141127D02*
X14391611Y-8112555D01*
X14391611Y-8112555D02*
X14382087Y-8093508D01*
X14382087Y-8093508D02*
X14363039Y-8064936D01*
X14363039Y-8064936D02*
X14353515Y-8055412D01*
D12*
X9197500Y-8456500D02*
G75*
G02*
X9142500Y-8456500I-27500J0D01*
G01*
X9142500Y-8456500D02*
G75*
G02*
X9197500Y-8456500I27500J0D01*
G01*
D11*
X9496372Y-8347984D02*
X9515420Y-8347984D01*
X9515420Y-8347984D02*
X9534467Y-8357508D01*
X9534467Y-8357508D02*
X9543991Y-8367031D01*
X9543991Y-8367031D02*
X9553515Y-8386079D01*
X9553515Y-8386079D02*
X9563039Y-8424174D01*
X9563039Y-8424174D02*
X9563039Y-8471793D01*
X9563039Y-8471793D02*
X9553515Y-8509889D01*
X9553515Y-8509889D02*
X9543991Y-8528936D01*
X9543991Y-8528936D02*
X9534467Y-8538460D01*
X9534467Y-8538460D02*
X9515420Y-8547984D01*
X9515420Y-8547984D02*
X9496372Y-8547984D01*
X9496372Y-8547984D02*
X9477324Y-8538460D01*
X9477324Y-8538460D02*
X9467801Y-8528936D01*
X9467801Y-8528936D02*
X9458277Y-8509889D01*
X9458277Y-8509889D02*
X9448753Y-8471793D01*
X9448753Y-8471793D02*
X9448753Y-8424174D01*
X9448753Y-8424174D02*
X9458277Y-8386079D01*
X9458277Y-8386079D02*
X9467801Y-8367031D01*
X9467801Y-8367031D02*
X9477324Y-8357508D01*
X9477324Y-8357508D02*
X9496372Y-8347984D01*
X9648753Y-8528936D02*
X9658277Y-8538460D01*
X9658277Y-8538460D02*
X9648753Y-8547984D01*
X9648753Y-8547984D02*
X9639229Y-8538460D01*
X9639229Y-8538460D02*
X9648753Y-8528936D01*
X9648753Y-8528936D02*
X9648753Y-8547984D01*
X9839229Y-8347984D02*
X9743991Y-8347984D01*
X9743991Y-8347984D02*
X9734467Y-8443222D01*
X9734467Y-8443222D02*
X9743991Y-8433698D01*
X9743991Y-8433698D02*
X9763039Y-8424174D01*
X9763039Y-8424174D02*
X9810658Y-8424174D01*
X9810658Y-8424174D02*
X9829705Y-8433698D01*
X9829705Y-8433698D02*
X9839229Y-8443222D01*
X9839229Y-8443222D02*
X9848753Y-8462270D01*
X9848753Y-8462270D02*
X9848753Y-8509889D01*
X9848753Y-8509889D02*
X9839229Y-8528936D01*
X9839229Y-8528936D02*
X9829705Y-8538460D01*
X9829705Y-8538460D02*
X9810658Y-8547984D01*
X9810658Y-8547984D02*
X9763039Y-8547984D01*
X9763039Y-8547984D02*
X9743991Y-8538460D01*
X9743991Y-8538460D02*
X9734467Y-8528936D01*
X10029705Y-8347984D02*
X9934467Y-8347984D01*
X9934467Y-8347984D02*
X9924944Y-8443222D01*
X9924944Y-8443222D02*
X9934467Y-8433698D01*
X9934467Y-8433698D02*
X9953515Y-8424174D01*
X9953515Y-8424174D02*
X10001134Y-8424174D01*
X10001134Y-8424174D02*
X10020182Y-8433698D01*
X10020182Y-8433698D02*
X10029705Y-8443222D01*
X10029705Y-8443222D02*
X10039229Y-8462270D01*
X10039229Y-8462270D02*
X10039229Y-8509889D01*
X10039229Y-8509889D02*
X10029705Y-8528936D01*
X10029705Y-8528936D02*
X10020182Y-8538460D01*
X10020182Y-8538460D02*
X10001134Y-8547984D01*
X10001134Y-8547984D02*
X9953515Y-8547984D01*
X9953515Y-8547984D02*
X9934467Y-8538460D01*
X9934467Y-8538460D02*
X9924944Y-8528936D01*
X10163039Y-8347984D02*
X10182086Y-8347984D01*
X10182086Y-8347984D02*
X10201134Y-8357508D01*
X10201134Y-8357508D02*
X10210658Y-8367031D01*
X10210658Y-8367031D02*
X10220182Y-8386079D01*
X10220182Y-8386079D02*
X10229705Y-8424174D01*
X10229705Y-8424174D02*
X10229705Y-8471793D01*
X10229705Y-8471793D02*
X10220182Y-8509889D01*
X10220182Y-8509889D02*
X10210658Y-8528936D01*
X10210658Y-8528936D02*
X10201134Y-8538460D01*
X10201134Y-8538460D02*
X10182086Y-8547984D01*
X10182086Y-8547984D02*
X10163039Y-8547984D01*
X10163039Y-8547984D02*
X10143991Y-8538460D01*
X10143991Y-8538460D02*
X10134467Y-8528936D01*
X10134467Y-8528936D02*
X10124944Y-8509889D01*
X10124944Y-8509889D02*
X10115420Y-8471793D01*
X10115420Y-8471793D02*
X10115420Y-8424174D01*
X10115420Y-8424174D02*
X10124944Y-8386079D01*
X10124944Y-8386079D02*
X10134467Y-8367031D01*
X10134467Y-8367031D02*
X10143991Y-8357508D01*
X10143991Y-8357508D02*
X10163039Y-8347984D01*
X10315420Y-8547984D02*
X10315420Y-8414650D01*
X10315420Y-8433698D02*
X10324944Y-8424174D01*
X10324944Y-8424174D02*
X10343991Y-8414650D01*
X10343991Y-8414650D02*
X10372563Y-8414650D01*
X10372563Y-8414650D02*
X10391610Y-8424174D01*
X10391610Y-8424174D02*
X10401134Y-8443222D01*
X10401134Y-8443222D02*
X10401134Y-8547984D01*
X10401134Y-8443222D02*
X10410658Y-8424174D01*
X10410658Y-8424174D02*
X10429705Y-8414650D01*
X10429705Y-8414650D02*
X10458277Y-8414650D01*
X10458277Y-8414650D02*
X10477325Y-8424174D01*
X10477325Y-8424174D02*
X10486848Y-8443222D01*
X10486848Y-8443222D02*
X10486848Y-8547984D01*
X10582086Y-8547984D02*
X10582086Y-8414650D01*
X10582086Y-8433698D02*
X10591610Y-8424174D01*
X10591610Y-8424174D02*
X10610658Y-8414650D01*
X10610658Y-8414650D02*
X10639229Y-8414650D01*
X10639229Y-8414650D02*
X10658277Y-8424174D01*
X10658277Y-8424174D02*
X10667801Y-8443222D01*
X10667801Y-8443222D02*
X10667801Y-8547984D01*
X10667801Y-8443222D02*
X10677325Y-8424174D01*
X10677325Y-8424174D02*
X10696372Y-8414650D01*
X10696372Y-8414650D02*
X10724944Y-8414650D01*
X10724944Y-8414650D02*
X10743991Y-8424174D01*
X10743991Y-8424174D02*
X10753515Y-8443222D01*
X10753515Y-8443222D02*
X10753515Y-8547984D01*
X11143991Y-8338460D02*
X10972563Y-8595603D01*
X11401134Y-8347984D02*
X11420182Y-8347984D01*
X11420182Y-8347984D02*
X11439229Y-8357508D01*
X11439229Y-8357508D02*
X11448753Y-8367031D01*
X11448753Y-8367031D02*
X11458277Y-8386079D01*
X11458277Y-8386079D02*
X11467801Y-8424174D01*
X11467801Y-8424174D02*
X11467801Y-8471793D01*
X11467801Y-8471793D02*
X11458277Y-8509889D01*
X11458277Y-8509889D02*
X11448753Y-8528936D01*
X11448753Y-8528936D02*
X11439229Y-8538460D01*
X11439229Y-8538460D02*
X11420182Y-8547984D01*
X11420182Y-8547984D02*
X11401134Y-8547984D01*
X11401134Y-8547984D02*
X11382086Y-8538460D01*
X11382086Y-8538460D02*
X11372563Y-8528936D01*
X11372563Y-8528936D02*
X11363039Y-8509889D01*
X11363039Y-8509889D02*
X11353515Y-8471793D01*
X11353515Y-8471793D02*
X11353515Y-8424174D01*
X11353515Y-8424174D02*
X11363039Y-8386079D01*
X11363039Y-8386079D02*
X11372563Y-8367031D01*
X11372563Y-8367031D02*
X11382086Y-8357508D01*
X11382086Y-8357508D02*
X11401134Y-8347984D01*
X11553515Y-8528936D02*
X11563039Y-8538460D01*
X11563039Y-8538460D02*
X11553515Y-8547984D01*
X11553515Y-8547984D02*
X11543991Y-8538460D01*
X11543991Y-8538460D02*
X11553515Y-8528936D01*
X11553515Y-8528936D02*
X11553515Y-8547984D01*
X11686848Y-8347984D02*
X11705896Y-8347984D01*
X11705896Y-8347984D02*
X11724944Y-8357508D01*
X11724944Y-8357508D02*
X11734467Y-8367031D01*
X11734467Y-8367031D02*
X11743991Y-8386079D01*
X11743991Y-8386079D02*
X11753515Y-8424174D01*
X11753515Y-8424174D02*
X11753515Y-8471793D01*
X11753515Y-8471793D02*
X11743991Y-8509889D01*
X11743991Y-8509889D02*
X11734467Y-8528936D01*
X11734467Y-8528936D02*
X11724944Y-8538460D01*
X11724944Y-8538460D02*
X11705896Y-8547984D01*
X11705896Y-8547984D02*
X11686848Y-8547984D01*
X11686848Y-8547984D02*
X11667801Y-8538460D01*
X11667801Y-8538460D02*
X11658277Y-8528936D01*
X11658277Y-8528936D02*
X11648753Y-8509889D01*
X11648753Y-8509889D02*
X11639229Y-8471793D01*
X11639229Y-8471793D02*
X11639229Y-8424174D01*
X11639229Y-8424174D02*
X11648753Y-8386079D01*
X11648753Y-8386079D02*
X11658277Y-8367031D01*
X11658277Y-8367031D02*
X11667801Y-8357508D01*
X11667801Y-8357508D02*
X11686848Y-8347984D01*
X11829706Y-8367031D02*
X11839229Y-8357508D01*
X11839229Y-8357508D02*
X11858277Y-8347984D01*
X11858277Y-8347984D02*
X11905896Y-8347984D01*
X11905896Y-8347984D02*
X11924944Y-8357508D01*
X11924944Y-8357508D02*
X11934467Y-8367031D01*
X11934467Y-8367031D02*
X11943991Y-8386079D01*
X11943991Y-8386079D02*
X11943991Y-8405127D01*
X11943991Y-8405127D02*
X11934467Y-8433698D01*
X11934467Y-8433698D02*
X11820182Y-8547984D01*
X11820182Y-8547984D02*
X11943991Y-8547984D01*
X12134467Y-8547984D02*
X12020182Y-8547984D01*
X12077325Y-8547984D02*
X12077325Y-8347984D01*
X12077325Y-8347984D02*
X12058277Y-8376555D01*
X12058277Y-8376555D02*
X12039229Y-8395603D01*
X12039229Y-8395603D02*
X12020182Y-8405127D01*
X12201134Y-8347984D02*
X12334467Y-8347984D01*
X12334467Y-8347984D02*
X12248753Y-8547984D01*
X12401134Y-8347984D02*
X12401134Y-8386079D01*
X12477325Y-8347984D02*
X12477325Y-8386079D01*
X12772563Y-8624174D02*
X12763039Y-8614650D01*
X12763039Y-8614650D02*
X12743991Y-8586079D01*
X12743991Y-8586079D02*
X12734468Y-8567031D01*
X12734468Y-8567031D02*
X12724944Y-8538460D01*
X12724944Y-8538460D02*
X12715420Y-8490841D01*
X12715420Y-8490841D02*
X12715420Y-8452746D01*
X12715420Y-8452746D02*
X12724944Y-8405127D01*
X12724944Y-8405127D02*
X12734468Y-8376555D01*
X12734468Y-8376555D02*
X12743991Y-8357508D01*
X12743991Y-8357508D02*
X12763039Y-8328936D01*
X12763039Y-8328936D02*
X12772563Y-8319412D01*
X12934468Y-8347984D02*
X12896372Y-8347984D01*
X12896372Y-8347984D02*
X12877325Y-8357508D01*
X12877325Y-8357508D02*
X12867801Y-8367031D01*
X12867801Y-8367031D02*
X12848753Y-8395603D01*
X12848753Y-8395603D02*
X12839229Y-8433698D01*
X12839229Y-8433698D02*
X12839229Y-8509889D01*
X12839229Y-8509889D02*
X12848753Y-8528936D01*
X12848753Y-8528936D02*
X12858277Y-8538460D01*
X12858277Y-8538460D02*
X12877325Y-8547984D01*
X12877325Y-8547984D02*
X12915420Y-8547984D01*
X12915420Y-8547984D02*
X12934468Y-8538460D01*
X12934468Y-8538460D02*
X12943991Y-8528936D01*
X12943991Y-8528936D02*
X12953515Y-8509889D01*
X12953515Y-8509889D02*
X12953515Y-8462270D01*
X12953515Y-8462270D02*
X12943991Y-8443222D01*
X12943991Y-8443222D02*
X12934468Y-8433698D01*
X12934468Y-8433698D02*
X12915420Y-8424174D01*
X12915420Y-8424174D02*
X12877325Y-8424174D01*
X12877325Y-8424174D02*
X12858277Y-8433698D01*
X12858277Y-8433698D02*
X12848753Y-8443222D01*
X12848753Y-8443222D02*
X12839229Y-8462270D01*
X13191610Y-8547984D02*
X13191610Y-8347984D01*
X13277325Y-8547984D02*
X13277325Y-8443222D01*
X13277325Y-8443222D02*
X13267801Y-8424174D01*
X13267801Y-8424174D02*
X13248753Y-8414650D01*
X13248753Y-8414650D02*
X13220182Y-8414650D01*
X13220182Y-8414650D02*
X13201134Y-8424174D01*
X13201134Y-8424174D02*
X13191610Y-8433698D01*
X13401134Y-8547984D02*
X13382087Y-8538460D01*
X13382087Y-8538460D02*
X13372563Y-8528936D01*
X13372563Y-8528936D02*
X13363039Y-8509889D01*
X13363039Y-8509889D02*
X13363039Y-8452746D01*
X13363039Y-8452746D02*
X13372563Y-8433698D01*
X13372563Y-8433698D02*
X13382087Y-8424174D01*
X13382087Y-8424174D02*
X13401134Y-8414650D01*
X13401134Y-8414650D02*
X13429706Y-8414650D01*
X13429706Y-8414650D02*
X13448753Y-8424174D01*
X13448753Y-8424174D02*
X13458277Y-8433698D01*
X13458277Y-8433698D02*
X13467801Y-8452746D01*
X13467801Y-8452746D02*
X13467801Y-8509889D01*
X13467801Y-8509889D02*
X13458277Y-8528936D01*
X13458277Y-8528936D02*
X13448753Y-8538460D01*
X13448753Y-8538460D02*
X13429706Y-8547984D01*
X13429706Y-8547984D02*
X13401134Y-8547984D01*
X13582087Y-8547984D02*
X13563039Y-8538460D01*
X13563039Y-8538460D02*
X13553515Y-8519412D01*
X13553515Y-8519412D02*
X13553515Y-8347984D01*
X13734468Y-8538460D02*
X13715420Y-8547984D01*
X13715420Y-8547984D02*
X13677325Y-8547984D01*
X13677325Y-8547984D02*
X13658277Y-8538460D01*
X13658277Y-8538460D02*
X13648753Y-8519412D01*
X13648753Y-8519412D02*
X13648753Y-8443222D01*
X13648753Y-8443222D02*
X13658277Y-8424174D01*
X13658277Y-8424174D02*
X13677325Y-8414650D01*
X13677325Y-8414650D02*
X13715420Y-8414650D01*
X13715420Y-8414650D02*
X13734468Y-8424174D01*
X13734468Y-8424174D02*
X13743991Y-8443222D01*
X13743991Y-8443222D02*
X13743991Y-8462270D01*
X13743991Y-8462270D02*
X13648753Y-8481317D01*
X13820182Y-8538460D02*
X13839230Y-8547984D01*
X13839230Y-8547984D02*
X13877325Y-8547984D01*
X13877325Y-8547984D02*
X13896372Y-8538460D01*
X13896372Y-8538460D02*
X13905896Y-8519412D01*
X13905896Y-8519412D02*
X13905896Y-8509889D01*
X13905896Y-8509889D02*
X13896372Y-8490841D01*
X13896372Y-8490841D02*
X13877325Y-8481317D01*
X13877325Y-8481317D02*
X13848753Y-8481317D01*
X13848753Y-8481317D02*
X13829706Y-8471793D01*
X13829706Y-8471793D02*
X13820182Y-8452746D01*
X13820182Y-8452746D02*
X13820182Y-8443222D01*
X13820182Y-8443222D02*
X13829706Y-8424174D01*
X13829706Y-8424174D02*
X13848753Y-8414650D01*
X13848753Y-8414650D02*
X13877325Y-8414650D01*
X13877325Y-8414650D02*
X13896372Y-8424174D01*
X13972563Y-8624174D02*
X13982087Y-8614650D01*
X13982087Y-8614650D02*
X14001134Y-8586079D01*
X14001134Y-8586079D02*
X14010658Y-8567031D01*
X14010658Y-8567031D02*
X14020182Y-8538460D01*
X14020182Y-8538460D02*
X14029706Y-8490841D01*
X14029706Y-8490841D02*
X14029706Y-8452746D01*
X14029706Y-8452746D02*
X14020182Y-8405127D01*
X14020182Y-8405127D02*
X14010658Y-8376555D01*
X14010658Y-8376555D02*
X14001134Y-8357508D01*
X14001134Y-8357508D02*
X13982087Y-8328936D01*
X13982087Y-8328936D02*
X13972563Y-8319412D01*
D12*
X9162500Y-8685500D02*
X9162500Y-8755500D01*
X9127500Y-8720500D02*
X9197500Y-8720500D01*
D11*
X9496372Y-8611984D02*
X9515420Y-8611984D01*
X9515420Y-8611984D02*
X9534467Y-8621508D01*
X9534467Y-8621508D02*
X9543991Y-8631031D01*
X9543991Y-8631031D02*
X9553515Y-8650079D01*
X9553515Y-8650079D02*
X9563039Y-8688174D01*
X9563039Y-8688174D02*
X9563039Y-8735793D01*
X9563039Y-8735793D02*
X9553515Y-8773889D01*
X9553515Y-8773889D02*
X9543991Y-8792936D01*
X9543991Y-8792936D02*
X9534467Y-8802460D01*
X9534467Y-8802460D02*
X9515420Y-8811984D01*
X9515420Y-8811984D02*
X9496372Y-8811984D01*
X9496372Y-8811984D02*
X9477324Y-8802460D01*
X9477324Y-8802460D02*
X9467801Y-8792936D01*
X9467801Y-8792936D02*
X9458277Y-8773889D01*
X9458277Y-8773889D02*
X9448753Y-8735793D01*
X9448753Y-8735793D02*
X9448753Y-8688174D01*
X9448753Y-8688174D02*
X9458277Y-8650079D01*
X9458277Y-8650079D02*
X9467801Y-8631031D01*
X9467801Y-8631031D02*
X9477324Y-8621508D01*
X9477324Y-8621508D02*
X9496372Y-8611984D01*
X9648753Y-8792936D02*
X9658277Y-8802460D01*
X9658277Y-8802460D02*
X9648753Y-8811984D01*
X9648753Y-8811984D02*
X9639229Y-8802460D01*
X9639229Y-8802460D02*
X9648753Y-8792936D01*
X9648753Y-8792936D02*
X9648753Y-8811984D01*
X9724944Y-8611984D02*
X9858277Y-8611984D01*
X9858277Y-8611984D02*
X9772563Y-8811984D01*
X9972563Y-8611984D02*
X9991610Y-8611984D01*
X9991610Y-8611984D02*
X10010658Y-8621508D01*
X10010658Y-8621508D02*
X10020182Y-8631031D01*
X10020182Y-8631031D02*
X10029705Y-8650079D01*
X10029705Y-8650079D02*
X10039229Y-8688174D01*
X10039229Y-8688174D02*
X10039229Y-8735793D01*
X10039229Y-8735793D02*
X10029705Y-8773889D01*
X10029705Y-8773889D02*
X10020182Y-8792936D01*
X10020182Y-8792936D02*
X10010658Y-8802460D01*
X10010658Y-8802460D02*
X9991610Y-8811984D01*
X9991610Y-8811984D02*
X9972563Y-8811984D01*
X9972563Y-8811984D02*
X9953515Y-8802460D01*
X9953515Y-8802460D02*
X9943991Y-8792936D01*
X9943991Y-8792936D02*
X9934467Y-8773889D01*
X9934467Y-8773889D02*
X9924944Y-8735793D01*
X9924944Y-8735793D02*
X9924944Y-8688174D01*
X9924944Y-8688174D02*
X9934467Y-8650079D01*
X9934467Y-8650079D02*
X9943991Y-8631031D01*
X9943991Y-8631031D02*
X9953515Y-8621508D01*
X9953515Y-8621508D02*
X9972563Y-8611984D01*
X10163039Y-8611984D02*
X10182086Y-8611984D01*
X10182086Y-8611984D02*
X10201134Y-8621508D01*
X10201134Y-8621508D02*
X10210658Y-8631031D01*
X10210658Y-8631031D02*
X10220182Y-8650079D01*
X10220182Y-8650079D02*
X10229705Y-8688174D01*
X10229705Y-8688174D02*
X10229705Y-8735793D01*
X10229705Y-8735793D02*
X10220182Y-8773889D01*
X10220182Y-8773889D02*
X10210658Y-8792936D01*
X10210658Y-8792936D02*
X10201134Y-8802460D01*
X10201134Y-8802460D02*
X10182086Y-8811984D01*
X10182086Y-8811984D02*
X10163039Y-8811984D01*
X10163039Y-8811984D02*
X10143991Y-8802460D01*
X10143991Y-8802460D02*
X10134467Y-8792936D01*
X10134467Y-8792936D02*
X10124944Y-8773889D01*
X10124944Y-8773889D02*
X10115420Y-8735793D01*
X10115420Y-8735793D02*
X10115420Y-8688174D01*
X10115420Y-8688174D02*
X10124944Y-8650079D01*
X10124944Y-8650079D02*
X10134467Y-8631031D01*
X10134467Y-8631031D02*
X10143991Y-8621508D01*
X10143991Y-8621508D02*
X10163039Y-8611984D01*
X10315420Y-8811984D02*
X10315420Y-8678650D01*
X10315420Y-8697698D02*
X10324944Y-8688174D01*
X10324944Y-8688174D02*
X10343991Y-8678650D01*
X10343991Y-8678650D02*
X10372563Y-8678650D01*
X10372563Y-8678650D02*
X10391610Y-8688174D01*
X10391610Y-8688174D02*
X10401134Y-8707222D01*
X10401134Y-8707222D02*
X10401134Y-8811984D01*
X10401134Y-8707222D02*
X10410658Y-8688174D01*
X10410658Y-8688174D02*
X10429705Y-8678650D01*
X10429705Y-8678650D02*
X10458277Y-8678650D01*
X10458277Y-8678650D02*
X10477325Y-8688174D01*
X10477325Y-8688174D02*
X10486848Y-8707222D01*
X10486848Y-8707222D02*
X10486848Y-8811984D01*
X10582086Y-8811984D02*
X10582086Y-8678650D01*
X10582086Y-8697698D02*
X10591610Y-8688174D01*
X10591610Y-8688174D02*
X10610658Y-8678650D01*
X10610658Y-8678650D02*
X10639229Y-8678650D01*
X10639229Y-8678650D02*
X10658277Y-8688174D01*
X10658277Y-8688174D02*
X10667801Y-8707222D01*
X10667801Y-8707222D02*
X10667801Y-8811984D01*
X10667801Y-8707222D02*
X10677325Y-8688174D01*
X10677325Y-8688174D02*
X10696372Y-8678650D01*
X10696372Y-8678650D02*
X10724944Y-8678650D01*
X10724944Y-8678650D02*
X10743991Y-8688174D01*
X10743991Y-8688174D02*
X10753515Y-8707222D01*
X10753515Y-8707222D02*
X10753515Y-8811984D01*
X11143991Y-8602460D02*
X10972563Y-8859603D01*
X11401134Y-8611984D02*
X11420182Y-8611984D01*
X11420182Y-8611984D02*
X11439229Y-8621508D01*
X11439229Y-8621508D02*
X11448753Y-8631031D01*
X11448753Y-8631031D02*
X11458277Y-8650079D01*
X11458277Y-8650079D02*
X11467801Y-8688174D01*
X11467801Y-8688174D02*
X11467801Y-8735793D01*
X11467801Y-8735793D02*
X11458277Y-8773889D01*
X11458277Y-8773889D02*
X11448753Y-8792936D01*
X11448753Y-8792936D02*
X11439229Y-8802460D01*
X11439229Y-8802460D02*
X11420182Y-8811984D01*
X11420182Y-8811984D02*
X11401134Y-8811984D01*
X11401134Y-8811984D02*
X11382086Y-8802460D01*
X11382086Y-8802460D02*
X11372563Y-8792936D01*
X11372563Y-8792936D02*
X11363039Y-8773889D01*
X11363039Y-8773889D02*
X11353515Y-8735793D01*
X11353515Y-8735793D02*
X11353515Y-8688174D01*
X11353515Y-8688174D02*
X11363039Y-8650079D01*
X11363039Y-8650079D02*
X11372563Y-8631031D01*
X11372563Y-8631031D02*
X11382086Y-8621508D01*
X11382086Y-8621508D02*
X11401134Y-8611984D01*
X11553515Y-8792936D02*
X11563039Y-8802460D01*
X11563039Y-8802460D02*
X11553515Y-8811984D01*
X11553515Y-8811984D02*
X11543991Y-8802460D01*
X11543991Y-8802460D02*
X11553515Y-8792936D01*
X11553515Y-8792936D02*
X11553515Y-8811984D01*
X11686848Y-8611984D02*
X11705896Y-8611984D01*
X11705896Y-8611984D02*
X11724944Y-8621508D01*
X11724944Y-8621508D02*
X11734467Y-8631031D01*
X11734467Y-8631031D02*
X11743991Y-8650079D01*
X11743991Y-8650079D02*
X11753515Y-8688174D01*
X11753515Y-8688174D02*
X11753515Y-8735793D01*
X11753515Y-8735793D02*
X11743991Y-8773889D01*
X11743991Y-8773889D02*
X11734467Y-8792936D01*
X11734467Y-8792936D02*
X11724944Y-8802460D01*
X11724944Y-8802460D02*
X11705896Y-8811984D01*
X11705896Y-8811984D02*
X11686848Y-8811984D01*
X11686848Y-8811984D02*
X11667801Y-8802460D01*
X11667801Y-8802460D02*
X11658277Y-8792936D01*
X11658277Y-8792936D02*
X11648753Y-8773889D01*
X11648753Y-8773889D02*
X11639229Y-8735793D01*
X11639229Y-8735793D02*
X11639229Y-8688174D01*
X11639229Y-8688174D02*
X11648753Y-8650079D01*
X11648753Y-8650079D02*
X11658277Y-8631031D01*
X11658277Y-8631031D02*
X11667801Y-8621508D01*
X11667801Y-8621508D02*
X11686848Y-8611984D01*
X11829706Y-8631031D02*
X11839229Y-8621508D01*
X11839229Y-8621508D02*
X11858277Y-8611984D01*
X11858277Y-8611984D02*
X11905896Y-8611984D01*
X11905896Y-8611984D02*
X11924944Y-8621508D01*
X11924944Y-8621508D02*
X11934467Y-8631031D01*
X11934467Y-8631031D02*
X11943991Y-8650079D01*
X11943991Y-8650079D02*
X11943991Y-8669127D01*
X11943991Y-8669127D02*
X11934467Y-8697698D01*
X11934467Y-8697698D02*
X11820182Y-8811984D01*
X11820182Y-8811984D02*
X11943991Y-8811984D01*
X12010658Y-8611984D02*
X12143991Y-8611984D01*
X12143991Y-8611984D02*
X12058277Y-8811984D01*
X12305896Y-8611984D02*
X12267801Y-8611984D01*
X12267801Y-8611984D02*
X12248753Y-8621508D01*
X12248753Y-8621508D02*
X12239229Y-8631031D01*
X12239229Y-8631031D02*
X12220182Y-8659603D01*
X12220182Y-8659603D02*
X12210658Y-8697698D01*
X12210658Y-8697698D02*
X12210658Y-8773889D01*
X12210658Y-8773889D02*
X12220182Y-8792936D01*
X12220182Y-8792936D02*
X12229706Y-8802460D01*
X12229706Y-8802460D02*
X12248753Y-8811984D01*
X12248753Y-8811984D02*
X12286848Y-8811984D01*
X12286848Y-8811984D02*
X12305896Y-8802460D01*
X12305896Y-8802460D02*
X12315420Y-8792936D01*
X12315420Y-8792936D02*
X12324944Y-8773889D01*
X12324944Y-8773889D02*
X12324944Y-8726270D01*
X12324944Y-8726270D02*
X12315420Y-8707222D01*
X12315420Y-8707222D02*
X12305896Y-8697698D01*
X12305896Y-8697698D02*
X12286848Y-8688174D01*
X12286848Y-8688174D02*
X12248753Y-8688174D01*
X12248753Y-8688174D02*
X12229706Y-8697698D01*
X12229706Y-8697698D02*
X12220182Y-8707222D01*
X12220182Y-8707222D02*
X12210658Y-8726270D01*
X12401134Y-8611984D02*
X12401134Y-8650079D01*
X12477325Y-8611984D02*
X12477325Y-8650079D01*
X12772563Y-8888174D02*
X12763039Y-8878650D01*
X12763039Y-8878650D02*
X12743991Y-8850079D01*
X12743991Y-8850079D02*
X12734468Y-8831031D01*
X12734468Y-8831031D02*
X12724944Y-8802460D01*
X12724944Y-8802460D02*
X12715420Y-8754841D01*
X12715420Y-8754841D02*
X12715420Y-8716746D01*
X12715420Y-8716746D02*
X12724944Y-8669127D01*
X12724944Y-8669127D02*
X12734468Y-8640555D01*
X12734468Y-8640555D02*
X12743991Y-8621508D01*
X12743991Y-8621508D02*
X12763039Y-8592936D01*
X12763039Y-8592936D02*
X12772563Y-8583412D01*
X12953515Y-8811984D02*
X12839229Y-8811984D01*
X12896372Y-8811984D02*
X12896372Y-8611984D01*
X12896372Y-8611984D02*
X12877325Y-8640555D01*
X12877325Y-8640555D02*
X12858277Y-8659603D01*
X12858277Y-8659603D02*
X12839229Y-8669127D01*
X13124944Y-8611984D02*
X13086848Y-8611984D01*
X13086848Y-8611984D02*
X13067801Y-8621508D01*
X13067801Y-8621508D02*
X13058277Y-8631031D01*
X13058277Y-8631031D02*
X13039229Y-8659603D01*
X13039229Y-8659603D02*
X13029706Y-8697698D01*
X13029706Y-8697698D02*
X13029706Y-8773889D01*
X13029706Y-8773889D02*
X13039229Y-8792936D01*
X13039229Y-8792936D02*
X13048753Y-8802460D01*
X13048753Y-8802460D02*
X13067801Y-8811984D01*
X13067801Y-8811984D02*
X13105896Y-8811984D01*
X13105896Y-8811984D02*
X13124944Y-8802460D01*
X13124944Y-8802460D02*
X13134468Y-8792936D01*
X13134468Y-8792936D02*
X13143991Y-8773889D01*
X13143991Y-8773889D02*
X13143991Y-8726270D01*
X13143991Y-8726270D02*
X13134468Y-8707222D01*
X13134468Y-8707222D02*
X13124944Y-8697698D01*
X13124944Y-8697698D02*
X13105896Y-8688174D01*
X13105896Y-8688174D02*
X13067801Y-8688174D01*
X13067801Y-8688174D02*
X13048753Y-8697698D01*
X13048753Y-8697698D02*
X13039229Y-8707222D01*
X13039229Y-8707222D02*
X13029706Y-8726270D01*
X13382087Y-8811984D02*
X13382087Y-8611984D01*
X13467801Y-8811984D02*
X13467801Y-8707222D01*
X13467801Y-8707222D02*
X13458277Y-8688174D01*
X13458277Y-8688174D02*
X13439230Y-8678650D01*
X13439230Y-8678650D02*
X13410658Y-8678650D01*
X13410658Y-8678650D02*
X13391610Y-8688174D01*
X13391610Y-8688174D02*
X13382087Y-8697698D01*
X13591610Y-8811984D02*
X13572563Y-8802460D01*
X13572563Y-8802460D02*
X13563039Y-8792936D01*
X13563039Y-8792936D02*
X13553515Y-8773889D01*
X13553515Y-8773889D02*
X13553515Y-8716746D01*
X13553515Y-8716746D02*
X13563039Y-8697698D01*
X13563039Y-8697698D02*
X13572563Y-8688174D01*
X13572563Y-8688174D02*
X13591610Y-8678650D01*
X13591610Y-8678650D02*
X13620182Y-8678650D01*
X13620182Y-8678650D02*
X13639230Y-8688174D01*
X13639230Y-8688174D02*
X13648753Y-8697698D01*
X13648753Y-8697698D02*
X13658277Y-8716746D01*
X13658277Y-8716746D02*
X13658277Y-8773889D01*
X13658277Y-8773889D02*
X13648753Y-8792936D01*
X13648753Y-8792936D02*
X13639230Y-8802460D01*
X13639230Y-8802460D02*
X13620182Y-8811984D01*
X13620182Y-8811984D02*
X13591610Y-8811984D01*
X13772563Y-8811984D02*
X13753515Y-8802460D01*
X13753515Y-8802460D02*
X13743991Y-8783412D01*
X13743991Y-8783412D02*
X13743991Y-8611984D01*
X13924944Y-8802460D02*
X13905896Y-8811984D01*
X13905896Y-8811984D02*
X13867801Y-8811984D01*
X13867801Y-8811984D02*
X13848753Y-8802460D01*
X13848753Y-8802460D02*
X13839230Y-8783412D01*
X13839230Y-8783412D02*
X13839230Y-8707222D01*
X13839230Y-8707222D02*
X13848753Y-8688174D01*
X13848753Y-8688174D02*
X13867801Y-8678650D01*
X13867801Y-8678650D02*
X13905896Y-8678650D01*
X13905896Y-8678650D02*
X13924944Y-8688174D01*
X13924944Y-8688174D02*
X13934468Y-8707222D01*
X13934468Y-8707222D02*
X13934468Y-8726270D01*
X13934468Y-8726270D02*
X13839230Y-8745317D01*
X14010658Y-8802460D02*
X14029706Y-8811984D01*
X14029706Y-8811984D02*
X14067801Y-8811984D01*
X14067801Y-8811984D02*
X14086849Y-8802460D01*
X14086849Y-8802460D02*
X14096372Y-8783412D01*
X14096372Y-8783412D02*
X14096372Y-8773889D01*
X14096372Y-8773889D02*
X14086849Y-8754841D01*
X14086849Y-8754841D02*
X14067801Y-8745317D01*
X14067801Y-8745317D02*
X14039230Y-8745317D01*
X14039230Y-8745317D02*
X14020182Y-8735793D01*
X14020182Y-8735793D02*
X14010658Y-8716746D01*
X14010658Y-8716746D02*
X14010658Y-8707222D01*
X14010658Y-8707222D02*
X14020182Y-8688174D01*
X14020182Y-8688174D02*
X14039230Y-8678650D01*
X14039230Y-8678650D02*
X14067801Y-8678650D01*
X14067801Y-8678650D02*
X14086849Y-8688174D01*
X14163039Y-8888174D02*
X14172563Y-8878650D01*
X14172563Y-8878650D02*
X14191611Y-8850079D01*
X14191611Y-8850079D02*
X14201134Y-8831031D01*
X14201134Y-8831031D02*
X14210658Y-8802460D01*
X14210658Y-8802460D02*
X14220182Y-8754841D01*
X14220182Y-8754841D02*
X14220182Y-8716746D01*
X14220182Y-8716746D02*
X14210658Y-8669127D01*
X14210658Y-8669127D02*
X14201134Y-8640555D01*
X14201134Y-8640555D02*
X14191611Y-8621508D01*
X14191611Y-8621508D02*
X14172563Y-8592936D01*
X14172563Y-8592936D02*
X14163039Y-8583412D01*
D12*
X9184481Y-9015931D02*
X9184481Y-8953069D01*
X9121619Y-8953069D01*
X9121619Y-9015931D01*
X9184481Y-9015931D01*
D11*
X9496372Y-8875984D02*
X9515420Y-8875984D01*
X9515420Y-8875984D02*
X9534467Y-8885508D01*
X9534467Y-8885508D02*
X9543991Y-8895031D01*
X9543991Y-8895031D02*
X9553515Y-8914079D01*
X9553515Y-8914079D02*
X9563039Y-8952174D01*
X9563039Y-8952174D02*
X9563039Y-8999793D01*
X9563039Y-8999793D02*
X9553515Y-9037889D01*
X9553515Y-9037889D02*
X9543991Y-9056936D01*
X9543991Y-9056936D02*
X9534467Y-9066460D01*
X9534467Y-9066460D02*
X9515420Y-9075984D01*
X9515420Y-9075984D02*
X9496372Y-9075984D01*
X9496372Y-9075984D02*
X9477324Y-9066460D01*
X9477324Y-9066460D02*
X9467801Y-9056936D01*
X9467801Y-9056936D02*
X9458277Y-9037889D01*
X9458277Y-9037889D02*
X9448753Y-8999793D01*
X9448753Y-8999793D02*
X9448753Y-8952174D01*
X9448753Y-8952174D02*
X9458277Y-8914079D01*
X9458277Y-8914079D02*
X9467801Y-8895031D01*
X9467801Y-8895031D02*
X9477324Y-8885508D01*
X9477324Y-8885508D02*
X9496372Y-8875984D01*
X9648753Y-9056936D02*
X9658277Y-9066460D01*
X9658277Y-9066460D02*
X9648753Y-9075984D01*
X9648753Y-9075984D02*
X9639229Y-9066460D01*
X9639229Y-9066460D02*
X9648753Y-9056936D01*
X9648753Y-9056936D02*
X9648753Y-9075984D01*
X9772563Y-8961698D02*
X9753515Y-8952174D01*
X9753515Y-8952174D02*
X9743991Y-8942650D01*
X9743991Y-8942650D02*
X9734467Y-8923603D01*
X9734467Y-8923603D02*
X9734467Y-8914079D01*
X9734467Y-8914079D02*
X9743991Y-8895031D01*
X9743991Y-8895031D02*
X9753515Y-8885508D01*
X9753515Y-8885508D02*
X9772563Y-8875984D01*
X9772563Y-8875984D02*
X9810658Y-8875984D01*
X9810658Y-8875984D02*
X9829705Y-8885508D01*
X9829705Y-8885508D02*
X9839229Y-8895031D01*
X9839229Y-8895031D02*
X9848753Y-8914079D01*
X9848753Y-8914079D02*
X9848753Y-8923603D01*
X9848753Y-8923603D02*
X9839229Y-8942650D01*
X9839229Y-8942650D02*
X9829705Y-8952174D01*
X9829705Y-8952174D02*
X9810658Y-8961698D01*
X9810658Y-8961698D02*
X9772563Y-8961698D01*
X9772563Y-8961698D02*
X9753515Y-8971222D01*
X9753515Y-8971222D02*
X9743991Y-8980746D01*
X9743991Y-8980746D02*
X9734467Y-8999793D01*
X9734467Y-8999793D02*
X9734467Y-9037889D01*
X9734467Y-9037889D02*
X9743991Y-9056936D01*
X9743991Y-9056936D02*
X9753515Y-9066460D01*
X9753515Y-9066460D02*
X9772563Y-9075984D01*
X9772563Y-9075984D02*
X9810658Y-9075984D01*
X9810658Y-9075984D02*
X9829705Y-9066460D01*
X9829705Y-9066460D02*
X9839229Y-9056936D01*
X9839229Y-9056936D02*
X9848753Y-9037889D01*
X9848753Y-9037889D02*
X9848753Y-8999793D01*
X9848753Y-8999793D02*
X9839229Y-8980746D01*
X9839229Y-8980746D02*
X9829705Y-8971222D01*
X9829705Y-8971222D02*
X9810658Y-8961698D01*
X9963039Y-8961698D02*
X9943991Y-8952174D01*
X9943991Y-8952174D02*
X9934467Y-8942650D01*
X9934467Y-8942650D02*
X9924944Y-8923603D01*
X9924944Y-8923603D02*
X9924944Y-8914079D01*
X9924944Y-8914079D02*
X9934467Y-8895031D01*
X9934467Y-8895031D02*
X9943991Y-8885508D01*
X9943991Y-8885508D02*
X9963039Y-8875984D01*
X9963039Y-8875984D02*
X10001134Y-8875984D01*
X10001134Y-8875984D02*
X10020182Y-8885508D01*
X10020182Y-8885508D02*
X10029705Y-8895031D01*
X10029705Y-8895031D02*
X10039229Y-8914079D01*
X10039229Y-8914079D02*
X10039229Y-8923603D01*
X10039229Y-8923603D02*
X10029705Y-8942650D01*
X10029705Y-8942650D02*
X10020182Y-8952174D01*
X10020182Y-8952174D02*
X10001134Y-8961698D01*
X10001134Y-8961698D02*
X9963039Y-8961698D01*
X9963039Y-8961698D02*
X9943991Y-8971222D01*
X9943991Y-8971222D02*
X9934467Y-8980746D01*
X9934467Y-8980746D02*
X9924944Y-8999793D01*
X9924944Y-8999793D02*
X9924944Y-9037889D01*
X9924944Y-9037889D02*
X9934467Y-9056936D01*
X9934467Y-9056936D02*
X9943991Y-9066460D01*
X9943991Y-9066460D02*
X9963039Y-9075984D01*
X9963039Y-9075984D02*
X10001134Y-9075984D01*
X10001134Y-9075984D02*
X10020182Y-9066460D01*
X10020182Y-9066460D02*
X10029705Y-9056936D01*
X10029705Y-9056936D02*
X10039229Y-9037889D01*
X10039229Y-9037889D02*
X10039229Y-8999793D01*
X10039229Y-8999793D02*
X10029705Y-8980746D01*
X10029705Y-8980746D02*
X10020182Y-8971222D01*
X10020182Y-8971222D02*
X10001134Y-8961698D01*
X10134467Y-9075984D02*
X10172563Y-9075984D01*
X10172563Y-9075984D02*
X10191610Y-9066460D01*
X10191610Y-9066460D02*
X10201134Y-9056936D01*
X10201134Y-9056936D02*
X10220182Y-9028365D01*
X10220182Y-9028365D02*
X10229705Y-8990270D01*
X10229705Y-8990270D02*
X10229705Y-8914079D01*
X10229705Y-8914079D02*
X10220182Y-8895031D01*
X10220182Y-8895031D02*
X10210658Y-8885508D01*
X10210658Y-8885508D02*
X10191610Y-8875984D01*
X10191610Y-8875984D02*
X10153515Y-8875984D01*
X10153515Y-8875984D02*
X10134467Y-8885508D01*
X10134467Y-8885508D02*
X10124944Y-8895031D01*
X10124944Y-8895031D02*
X10115420Y-8914079D01*
X10115420Y-8914079D02*
X10115420Y-8961698D01*
X10115420Y-8961698D02*
X10124944Y-8980746D01*
X10124944Y-8980746D02*
X10134467Y-8990270D01*
X10134467Y-8990270D02*
X10153515Y-8999793D01*
X10153515Y-8999793D02*
X10191610Y-8999793D01*
X10191610Y-8999793D02*
X10210658Y-8990270D01*
X10210658Y-8990270D02*
X10220182Y-8980746D01*
X10220182Y-8980746D02*
X10229705Y-8961698D01*
X10315420Y-9075984D02*
X10315420Y-8942650D01*
X10315420Y-8961698D02*
X10324944Y-8952174D01*
X10324944Y-8952174D02*
X10343991Y-8942650D01*
X10343991Y-8942650D02*
X10372563Y-8942650D01*
X10372563Y-8942650D02*
X10391610Y-8952174D01*
X10391610Y-8952174D02*
X10401134Y-8971222D01*
X10401134Y-8971222D02*
X10401134Y-9075984D01*
X10401134Y-8971222D02*
X10410658Y-8952174D01*
X10410658Y-8952174D02*
X10429705Y-8942650D01*
X10429705Y-8942650D02*
X10458277Y-8942650D01*
X10458277Y-8942650D02*
X10477325Y-8952174D01*
X10477325Y-8952174D02*
X10486848Y-8971222D01*
X10486848Y-8971222D02*
X10486848Y-9075984D01*
X10582086Y-9075984D02*
X10582086Y-8942650D01*
X10582086Y-8961698D02*
X10591610Y-8952174D01*
X10591610Y-8952174D02*
X10610658Y-8942650D01*
X10610658Y-8942650D02*
X10639229Y-8942650D01*
X10639229Y-8942650D02*
X10658277Y-8952174D01*
X10658277Y-8952174D02*
X10667801Y-8971222D01*
X10667801Y-8971222D02*
X10667801Y-9075984D01*
X10667801Y-8971222D02*
X10677325Y-8952174D01*
X10677325Y-8952174D02*
X10696372Y-8942650D01*
X10696372Y-8942650D02*
X10724944Y-8942650D01*
X10724944Y-8942650D02*
X10743991Y-8952174D01*
X10743991Y-8952174D02*
X10753515Y-8971222D01*
X10753515Y-8971222D02*
X10753515Y-9075984D01*
X11143991Y-8866460D02*
X10972563Y-9123603D01*
X11401134Y-8875984D02*
X11420182Y-8875984D01*
X11420182Y-8875984D02*
X11439229Y-8885508D01*
X11439229Y-8885508D02*
X11448753Y-8895031D01*
X11448753Y-8895031D02*
X11458277Y-8914079D01*
X11458277Y-8914079D02*
X11467801Y-8952174D01*
X11467801Y-8952174D02*
X11467801Y-8999793D01*
X11467801Y-8999793D02*
X11458277Y-9037889D01*
X11458277Y-9037889D02*
X11448753Y-9056936D01*
X11448753Y-9056936D02*
X11439229Y-9066460D01*
X11439229Y-9066460D02*
X11420182Y-9075984D01*
X11420182Y-9075984D02*
X11401134Y-9075984D01*
X11401134Y-9075984D02*
X11382086Y-9066460D01*
X11382086Y-9066460D02*
X11372563Y-9056936D01*
X11372563Y-9056936D02*
X11363039Y-9037889D01*
X11363039Y-9037889D02*
X11353515Y-8999793D01*
X11353515Y-8999793D02*
X11353515Y-8952174D01*
X11353515Y-8952174D02*
X11363039Y-8914079D01*
X11363039Y-8914079D02*
X11372563Y-8895031D01*
X11372563Y-8895031D02*
X11382086Y-8885508D01*
X11382086Y-8885508D02*
X11401134Y-8875984D01*
X11553515Y-9056936D02*
X11563039Y-9066460D01*
X11563039Y-9066460D02*
X11553515Y-9075984D01*
X11553515Y-9075984D02*
X11543991Y-9066460D01*
X11543991Y-9066460D02*
X11553515Y-9056936D01*
X11553515Y-9056936D02*
X11553515Y-9075984D01*
X11686848Y-8875984D02*
X11705896Y-8875984D01*
X11705896Y-8875984D02*
X11724944Y-8885508D01*
X11724944Y-8885508D02*
X11734467Y-8895031D01*
X11734467Y-8895031D02*
X11743991Y-8914079D01*
X11743991Y-8914079D02*
X11753515Y-8952174D01*
X11753515Y-8952174D02*
X11753515Y-8999793D01*
X11753515Y-8999793D02*
X11743991Y-9037889D01*
X11743991Y-9037889D02*
X11734467Y-9056936D01*
X11734467Y-9056936D02*
X11724944Y-9066460D01*
X11724944Y-9066460D02*
X11705896Y-9075984D01*
X11705896Y-9075984D02*
X11686848Y-9075984D01*
X11686848Y-9075984D02*
X11667801Y-9066460D01*
X11667801Y-9066460D02*
X11658277Y-9056936D01*
X11658277Y-9056936D02*
X11648753Y-9037889D01*
X11648753Y-9037889D02*
X11639229Y-8999793D01*
X11639229Y-8999793D02*
X11639229Y-8952174D01*
X11639229Y-8952174D02*
X11648753Y-8914079D01*
X11648753Y-8914079D02*
X11658277Y-8895031D01*
X11658277Y-8895031D02*
X11667801Y-8885508D01*
X11667801Y-8885508D02*
X11686848Y-8875984D01*
X11820182Y-8875984D02*
X11943991Y-8875984D01*
X11943991Y-8875984D02*
X11877325Y-8952174D01*
X11877325Y-8952174D02*
X11905896Y-8952174D01*
X11905896Y-8952174D02*
X11924944Y-8961698D01*
X11924944Y-8961698D02*
X11934467Y-8971222D01*
X11934467Y-8971222D02*
X11943991Y-8990270D01*
X11943991Y-8990270D02*
X11943991Y-9037889D01*
X11943991Y-9037889D02*
X11934467Y-9056936D01*
X11934467Y-9056936D02*
X11924944Y-9066460D01*
X11924944Y-9066460D02*
X11905896Y-9075984D01*
X11905896Y-9075984D02*
X11848753Y-9075984D01*
X11848753Y-9075984D02*
X11829706Y-9066460D01*
X11829706Y-9066460D02*
X11820182Y-9056936D01*
X12124944Y-8875984D02*
X12029706Y-8875984D01*
X12029706Y-8875984D02*
X12020182Y-8971222D01*
X12020182Y-8971222D02*
X12029706Y-8961698D01*
X12029706Y-8961698D02*
X12048753Y-8952174D01*
X12048753Y-8952174D02*
X12096372Y-8952174D01*
X12096372Y-8952174D02*
X12115420Y-8961698D01*
X12115420Y-8961698D02*
X12124944Y-8971222D01*
X12124944Y-8971222D02*
X12134467Y-8990270D01*
X12134467Y-8990270D02*
X12134467Y-9037889D01*
X12134467Y-9037889D02*
X12124944Y-9056936D01*
X12124944Y-9056936D02*
X12115420Y-9066460D01*
X12115420Y-9066460D02*
X12096372Y-9075984D01*
X12096372Y-9075984D02*
X12048753Y-9075984D01*
X12048753Y-9075984D02*
X12029706Y-9066460D01*
X12029706Y-9066460D02*
X12020182Y-9056936D01*
X12258277Y-8875984D02*
X12277325Y-8875984D01*
X12277325Y-8875984D02*
X12296372Y-8885508D01*
X12296372Y-8885508D02*
X12305896Y-8895031D01*
X12305896Y-8895031D02*
X12315420Y-8914079D01*
X12315420Y-8914079D02*
X12324944Y-8952174D01*
X12324944Y-8952174D02*
X12324944Y-8999793D01*
X12324944Y-8999793D02*
X12315420Y-9037889D01*
X12315420Y-9037889D02*
X12305896Y-9056936D01*
X12305896Y-9056936D02*
X12296372Y-9066460D01*
X12296372Y-9066460D02*
X12277325Y-9075984D01*
X12277325Y-9075984D02*
X12258277Y-9075984D01*
X12258277Y-9075984D02*
X12239229Y-9066460D01*
X12239229Y-9066460D02*
X12229706Y-9056936D01*
X12229706Y-9056936D02*
X12220182Y-9037889D01*
X12220182Y-9037889D02*
X12210658Y-8999793D01*
X12210658Y-8999793D02*
X12210658Y-8952174D01*
X12210658Y-8952174D02*
X12220182Y-8914079D01*
X12220182Y-8914079D02*
X12229706Y-8895031D01*
X12229706Y-8895031D02*
X12239229Y-8885508D01*
X12239229Y-8885508D02*
X12258277Y-8875984D01*
X12401134Y-8875984D02*
X12401134Y-8914079D01*
X12477325Y-8875984D02*
X12477325Y-8914079D01*
X12772563Y-9152174D02*
X12763039Y-9142650D01*
X12763039Y-9142650D02*
X12743991Y-9114079D01*
X12743991Y-9114079D02*
X12734468Y-9095031D01*
X12734468Y-9095031D02*
X12724944Y-9066460D01*
X12724944Y-9066460D02*
X12715420Y-9018841D01*
X12715420Y-9018841D02*
X12715420Y-8980746D01*
X12715420Y-8980746D02*
X12724944Y-8933127D01*
X12724944Y-8933127D02*
X12734468Y-8904555D01*
X12734468Y-8904555D02*
X12743991Y-8885508D01*
X12743991Y-8885508D02*
X12763039Y-8856936D01*
X12763039Y-8856936D02*
X12772563Y-8847412D01*
X12829706Y-8875984D02*
X12953515Y-8875984D01*
X12953515Y-8875984D02*
X12886848Y-8952174D01*
X12886848Y-8952174D02*
X12915420Y-8952174D01*
X12915420Y-8952174D02*
X12934468Y-8961698D01*
X12934468Y-8961698D02*
X12943991Y-8971222D01*
X12943991Y-8971222D02*
X12953515Y-8990270D01*
X12953515Y-8990270D02*
X12953515Y-9037889D01*
X12953515Y-9037889D02*
X12943991Y-9056936D01*
X12943991Y-9056936D02*
X12934468Y-9066460D01*
X12934468Y-9066460D02*
X12915420Y-9075984D01*
X12915420Y-9075984D02*
X12858277Y-9075984D01*
X12858277Y-9075984D02*
X12839229Y-9066460D01*
X12839229Y-9066460D02*
X12829706Y-9056936D01*
X13191610Y-9075984D02*
X13191610Y-8875984D01*
X13277325Y-9075984D02*
X13277325Y-8971222D01*
X13277325Y-8971222D02*
X13267801Y-8952174D01*
X13267801Y-8952174D02*
X13248753Y-8942650D01*
X13248753Y-8942650D02*
X13220182Y-8942650D01*
X13220182Y-8942650D02*
X13201134Y-8952174D01*
X13201134Y-8952174D02*
X13191610Y-8961698D01*
X13401134Y-9075984D02*
X13382087Y-9066460D01*
X13382087Y-9066460D02*
X13372563Y-9056936D01*
X13372563Y-9056936D02*
X13363039Y-9037889D01*
X13363039Y-9037889D02*
X13363039Y-8980746D01*
X13363039Y-8980746D02*
X13372563Y-8961698D01*
X13372563Y-8961698D02*
X13382087Y-8952174D01*
X13382087Y-8952174D02*
X13401134Y-8942650D01*
X13401134Y-8942650D02*
X13429706Y-8942650D01*
X13429706Y-8942650D02*
X13448753Y-8952174D01*
X13448753Y-8952174D02*
X13458277Y-8961698D01*
X13458277Y-8961698D02*
X13467801Y-8980746D01*
X13467801Y-8980746D02*
X13467801Y-9037889D01*
X13467801Y-9037889D02*
X13458277Y-9056936D01*
X13458277Y-9056936D02*
X13448753Y-9066460D01*
X13448753Y-9066460D02*
X13429706Y-9075984D01*
X13429706Y-9075984D02*
X13401134Y-9075984D01*
X13582087Y-9075984D02*
X13563039Y-9066460D01*
X13563039Y-9066460D02*
X13553515Y-9047412D01*
X13553515Y-9047412D02*
X13553515Y-8875984D01*
X13734468Y-9066460D02*
X13715420Y-9075984D01*
X13715420Y-9075984D02*
X13677325Y-9075984D01*
X13677325Y-9075984D02*
X13658277Y-9066460D01*
X13658277Y-9066460D02*
X13648753Y-9047412D01*
X13648753Y-9047412D02*
X13648753Y-8971222D01*
X13648753Y-8971222D02*
X13658277Y-8952174D01*
X13658277Y-8952174D02*
X13677325Y-8942650D01*
X13677325Y-8942650D02*
X13715420Y-8942650D01*
X13715420Y-8942650D02*
X13734468Y-8952174D01*
X13734468Y-8952174D02*
X13743991Y-8971222D01*
X13743991Y-8971222D02*
X13743991Y-8990270D01*
X13743991Y-8990270D02*
X13648753Y-9009317D01*
X13820182Y-9066460D02*
X13839230Y-9075984D01*
X13839230Y-9075984D02*
X13877325Y-9075984D01*
X13877325Y-9075984D02*
X13896372Y-9066460D01*
X13896372Y-9066460D02*
X13905896Y-9047412D01*
X13905896Y-9047412D02*
X13905896Y-9037889D01*
X13905896Y-9037889D02*
X13896372Y-9018841D01*
X13896372Y-9018841D02*
X13877325Y-9009317D01*
X13877325Y-9009317D02*
X13848753Y-9009317D01*
X13848753Y-9009317D02*
X13829706Y-8999793D01*
X13829706Y-8999793D02*
X13820182Y-8980746D01*
X13820182Y-8980746D02*
X13820182Y-8971222D01*
X13820182Y-8971222D02*
X13829706Y-8952174D01*
X13829706Y-8952174D02*
X13848753Y-8942650D01*
X13848753Y-8942650D02*
X13877325Y-8942650D01*
X13877325Y-8942650D02*
X13896372Y-8952174D01*
X13972563Y-9152174D02*
X13982087Y-9142650D01*
X13982087Y-9142650D02*
X14001134Y-9114079D01*
X14001134Y-9114079D02*
X14010658Y-9095031D01*
X14010658Y-9095031D02*
X14020182Y-9066460D01*
X14020182Y-9066460D02*
X14029706Y-9018841D01*
X14029706Y-9018841D02*
X14029706Y-8980746D01*
X14029706Y-8980746D02*
X14020182Y-8933127D01*
X14020182Y-8933127D02*
X14010658Y-8904555D01*
X14010658Y-8904555D02*
X14001134Y-8885508D01*
X14001134Y-8885508D02*
X13982087Y-8856936D01*
X13982087Y-8856936D02*
X13972563Y-8847412D01*
D12*
X9152500Y-9293500D02*
X9197500Y-9248500D01*
X9152500Y-9203500D01*
X9107500Y-9248500D01*
X9152500Y-9293500D01*
D11*
X9496372Y-9139984D02*
X9515420Y-9139984D01*
X9515420Y-9139984D02*
X9534467Y-9149508D01*
X9534467Y-9149508D02*
X9543991Y-9159031D01*
X9543991Y-9159031D02*
X9553515Y-9178079D01*
X9553515Y-9178079D02*
X9563039Y-9216174D01*
X9563039Y-9216174D02*
X9563039Y-9263793D01*
X9563039Y-9263793D02*
X9553515Y-9301889D01*
X9553515Y-9301889D02*
X9543991Y-9320936D01*
X9543991Y-9320936D02*
X9534467Y-9330460D01*
X9534467Y-9330460D02*
X9515420Y-9339984D01*
X9515420Y-9339984D02*
X9496372Y-9339984D01*
X9496372Y-9339984D02*
X9477324Y-9330460D01*
X9477324Y-9330460D02*
X9467801Y-9320936D01*
X9467801Y-9320936D02*
X9458277Y-9301889D01*
X9458277Y-9301889D02*
X9448753Y-9263793D01*
X9448753Y-9263793D02*
X9448753Y-9216174D01*
X9448753Y-9216174D02*
X9458277Y-9178079D01*
X9458277Y-9178079D02*
X9467801Y-9159031D01*
X9467801Y-9159031D02*
X9477324Y-9149508D01*
X9477324Y-9149508D02*
X9496372Y-9139984D01*
X9648753Y-9320936D02*
X9658277Y-9330460D01*
X9658277Y-9330460D02*
X9648753Y-9339984D01*
X9648753Y-9339984D02*
X9639229Y-9330460D01*
X9639229Y-9330460D02*
X9648753Y-9320936D01*
X9648753Y-9320936D02*
X9648753Y-9339984D01*
X9753515Y-9339984D02*
X9791610Y-9339984D01*
X9791610Y-9339984D02*
X9810658Y-9330460D01*
X9810658Y-9330460D02*
X9820182Y-9320936D01*
X9820182Y-9320936D02*
X9839229Y-9292365D01*
X9839229Y-9292365D02*
X9848753Y-9254270D01*
X9848753Y-9254270D02*
X9848753Y-9178079D01*
X9848753Y-9178079D02*
X9839229Y-9159031D01*
X9839229Y-9159031D02*
X9829705Y-9149508D01*
X9829705Y-9149508D02*
X9810658Y-9139984D01*
X9810658Y-9139984D02*
X9772563Y-9139984D01*
X9772563Y-9139984D02*
X9753515Y-9149508D01*
X9753515Y-9149508D02*
X9743991Y-9159031D01*
X9743991Y-9159031D02*
X9734467Y-9178079D01*
X9734467Y-9178079D02*
X9734467Y-9225698D01*
X9734467Y-9225698D02*
X9743991Y-9244746D01*
X9743991Y-9244746D02*
X9753515Y-9254270D01*
X9753515Y-9254270D02*
X9772563Y-9263793D01*
X9772563Y-9263793D02*
X9810658Y-9263793D01*
X9810658Y-9263793D02*
X9829705Y-9254270D01*
X9829705Y-9254270D02*
X9839229Y-9244746D01*
X9839229Y-9244746D02*
X9848753Y-9225698D01*
X9972563Y-9139984D02*
X9991610Y-9139984D01*
X9991610Y-9139984D02*
X10010658Y-9149508D01*
X10010658Y-9149508D02*
X10020182Y-9159031D01*
X10020182Y-9159031D02*
X10029705Y-9178079D01*
X10029705Y-9178079D02*
X10039229Y-9216174D01*
X10039229Y-9216174D02*
X10039229Y-9263793D01*
X10039229Y-9263793D02*
X10029705Y-9301889D01*
X10029705Y-9301889D02*
X10020182Y-9320936D01*
X10020182Y-9320936D02*
X10010658Y-9330460D01*
X10010658Y-9330460D02*
X9991610Y-9339984D01*
X9991610Y-9339984D02*
X9972563Y-9339984D01*
X9972563Y-9339984D02*
X9953515Y-9330460D01*
X9953515Y-9330460D02*
X9943991Y-9320936D01*
X9943991Y-9320936D02*
X9934467Y-9301889D01*
X9934467Y-9301889D02*
X9924944Y-9263793D01*
X9924944Y-9263793D02*
X9924944Y-9216174D01*
X9924944Y-9216174D02*
X9934467Y-9178079D01*
X9934467Y-9178079D02*
X9943991Y-9159031D01*
X9943991Y-9159031D02*
X9953515Y-9149508D01*
X9953515Y-9149508D02*
X9972563Y-9139984D01*
X10163039Y-9139984D02*
X10182086Y-9139984D01*
X10182086Y-9139984D02*
X10201134Y-9149508D01*
X10201134Y-9149508D02*
X10210658Y-9159031D01*
X10210658Y-9159031D02*
X10220182Y-9178079D01*
X10220182Y-9178079D02*
X10229705Y-9216174D01*
X10229705Y-9216174D02*
X10229705Y-9263793D01*
X10229705Y-9263793D02*
X10220182Y-9301889D01*
X10220182Y-9301889D02*
X10210658Y-9320936D01*
X10210658Y-9320936D02*
X10201134Y-9330460D01*
X10201134Y-9330460D02*
X10182086Y-9339984D01*
X10182086Y-9339984D02*
X10163039Y-9339984D01*
X10163039Y-9339984D02*
X10143991Y-9330460D01*
X10143991Y-9330460D02*
X10134467Y-9320936D01*
X10134467Y-9320936D02*
X10124944Y-9301889D01*
X10124944Y-9301889D02*
X10115420Y-9263793D01*
X10115420Y-9263793D02*
X10115420Y-9216174D01*
X10115420Y-9216174D02*
X10124944Y-9178079D01*
X10124944Y-9178079D02*
X10134467Y-9159031D01*
X10134467Y-9159031D02*
X10143991Y-9149508D01*
X10143991Y-9149508D02*
X10163039Y-9139984D01*
X10315420Y-9339984D02*
X10315420Y-9206650D01*
X10315420Y-9225698D02*
X10324944Y-9216174D01*
X10324944Y-9216174D02*
X10343991Y-9206650D01*
X10343991Y-9206650D02*
X10372563Y-9206650D01*
X10372563Y-9206650D02*
X10391610Y-9216174D01*
X10391610Y-9216174D02*
X10401134Y-9235222D01*
X10401134Y-9235222D02*
X10401134Y-9339984D01*
X10401134Y-9235222D02*
X10410658Y-9216174D01*
X10410658Y-9216174D02*
X10429705Y-9206650D01*
X10429705Y-9206650D02*
X10458277Y-9206650D01*
X10458277Y-9206650D02*
X10477325Y-9216174D01*
X10477325Y-9216174D02*
X10486848Y-9235222D01*
X10486848Y-9235222D02*
X10486848Y-9339984D01*
X10582086Y-9339984D02*
X10582086Y-9206650D01*
X10582086Y-9225698D02*
X10591610Y-9216174D01*
X10591610Y-9216174D02*
X10610658Y-9206650D01*
X10610658Y-9206650D02*
X10639229Y-9206650D01*
X10639229Y-9206650D02*
X10658277Y-9216174D01*
X10658277Y-9216174D02*
X10667801Y-9235222D01*
X10667801Y-9235222D02*
X10667801Y-9339984D01*
X10667801Y-9235222D02*
X10677325Y-9216174D01*
X10677325Y-9216174D02*
X10696372Y-9206650D01*
X10696372Y-9206650D02*
X10724944Y-9206650D01*
X10724944Y-9206650D02*
X10743991Y-9216174D01*
X10743991Y-9216174D02*
X10753515Y-9235222D01*
X10753515Y-9235222D02*
X10753515Y-9339984D01*
X11143991Y-9130460D02*
X10972563Y-9387603D01*
X11401134Y-9139984D02*
X11420182Y-9139984D01*
X11420182Y-9139984D02*
X11439229Y-9149508D01*
X11439229Y-9149508D02*
X11448753Y-9159031D01*
X11448753Y-9159031D02*
X11458277Y-9178079D01*
X11458277Y-9178079D02*
X11467801Y-9216174D01*
X11467801Y-9216174D02*
X11467801Y-9263793D01*
X11467801Y-9263793D02*
X11458277Y-9301889D01*
X11458277Y-9301889D02*
X11448753Y-9320936D01*
X11448753Y-9320936D02*
X11439229Y-9330460D01*
X11439229Y-9330460D02*
X11420182Y-9339984D01*
X11420182Y-9339984D02*
X11401134Y-9339984D01*
X11401134Y-9339984D02*
X11382086Y-9330460D01*
X11382086Y-9330460D02*
X11372563Y-9320936D01*
X11372563Y-9320936D02*
X11363039Y-9301889D01*
X11363039Y-9301889D02*
X11353515Y-9263793D01*
X11353515Y-9263793D02*
X11353515Y-9216174D01*
X11353515Y-9216174D02*
X11363039Y-9178079D01*
X11363039Y-9178079D02*
X11372563Y-9159031D01*
X11372563Y-9159031D02*
X11382086Y-9149508D01*
X11382086Y-9149508D02*
X11401134Y-9139984D01*
X11553515Y-9320936D02*
X11563039Y-9330460D01*
X11563039Y-9330460D02*
X11553515Y-9339984D01*
X11553515Y-9339984D02*
X11543991Y-9330460D01*
X11543991Y-9330460D02*
X11553515Y-9320936D01*
X11553515Y-9320936D02*
X11553515Y-9339984D01*
X11686848Y-9139984D02*
X11705896Y-9139984D01*
X11705896Y-9139984D02*
X11724944Y-9149508D01*
X11724944Y-9149508D02*
X11734467Y-9159031D01*
X11734467Y-9159031D02*
X11743991Y-9178079D01*
X11743991Y-9178079D02*
X11753515Y-9216174D01*
X11753515Y-9216174D02*
X11753515Y-9263793D01*
X11753515Y-9263793D02*
X11743991Y-9301889D01*
X11743991Y-9301889D02*
X11734467Y-9320936D01*
X11734467Y-9320936D02*
X11724944Y-9330460D01*
X11724944Y-9330460D02*
X11705896Y-9339984D01*
X11705896Y-9339984D02*
X11686848Y-9339984D01*
X11686848Y-9339984D02*
X11667801Y-9330460D01*
X11667801Y-9330460D02*
X11658277Y-9320936D01*
X11658277Y-9320936D02*
X11648753Y-9301889D01*
X11648753Y-9301889D02*
X11639229Y-9263793D01*
X11639229Y-9263793D02*
X11639229Y-9216174D01*
X11639229Y-9216174D02*
X11648753Y-9178079D01*
X11648753Y-9178079D02*
X11658277Y-9159031D01*
X11658277Y-9159031D02*
X11667801Y-9149508D01*
X11667801Y-9149508D02*
X11686848Y-9139984D01*
X11820182Y-9139984D02*
X11943991Y-9139984D01*
X11943991Y-9139984D02*
X11877325Y-9216174D01*
X11877325Y-9216174D02*
X11905896Y-9216174D01*
X11905896Y-9216174D02*
X11924944Y-9225698D01*
X11924944Y-9225698D02*
X11934467Y-9235222D01*
X11934467Y-9235222D02*
X11943991Y-9254270D01*
X11943991Y-9254270D02*
X11943991Y-9301889D01*
X11943991Y-9301889D02*
X11934467Y-9320936D01*
X11934467Y-9320936D02*
X11924944Y-9330460D01*
X11924944Y-9330460D02*
X11905896Y-9339984D01*
X11905896Y-9339984D02*
X11848753Y-9339984D01*
X11848753Y-9339984D02*
X11829706Y-9330460D01*
X11829706Y-9330460D02*
X11820182Y-9320936D01*
X12124944Y-9139984D02*
X12029706Y-9139984D01*
X12029706Y-9139984D02*
X12020182Y-9235222D01*
X12020182Y-9235222D02*
X12029706Y-9225698D01*
X12029706Y-9225698D02*
X12048753Y-9216174D01*
X12048753Y-9216174D02*
X12096372Y-9216174D01*
X12096372Y-9216174D02*
X12115420Y-9225698D01*
X12115420Y-9225698D02*
X12124944Y-9235222D01*
X12124944Y-9235222D02*
X12134467Y-9254270D01*
X12134467Y-9254270D02*
X12134467Y-9301889D01*
X12134467Y-9301889D02*
X12124944Y-9320936D01*
X12124944Y-9320936D02*
X12115420Y-9330460D01*
X12115420Y-9330460D02*
X12096372Y-9339984D01*
X12096372Y-9339984D02*
X12048753Y-9339984D01*
X12048753Y-9339984D02*
X12029706Y-9330460D01*
X12029706Y-9330460D02*
X12020182Y-9320936D01*
X12305896Y-9206650D02*
X12305896Y-9339984D01*
X12258277Y-9130460D02*
X12210658Y-9273317D01*
X12210658Y-9273317D02*
X12334467Y-9273317D01*
X12401134Y-9139984D02*
X12401134Y-9178079D01*
X12477325Y-9139984D02*
X12477325Y-9178079D01*
X12772563Y-9416174D02*
X12763039Y-9406650D01*
X12763039Y-9406650D02*
X12743991Y-9378079D01*
X12743991Y-9378079D02*
X12734468Y-9359031D01*
X12734468Y-9359031D02*
X12724944Y-9330460D01*
X12724944Y-9330460D02*
X12715420Y-9282841D01*
X12715420Y-9282841D02*
X12715420Y-9244746D01*
X12715420Y-9244746D02*
X12724944Y-9197127D01*
X12724944Y-9197127D02*
X12734468Y-9168555D01*
X12734468Y-9168555D02*
X12743991Y-9149508D01*
X12743991Y-9149508D02*
X12763039Y-9120936D01*
X12763039Y-9120936D02*
X12772563Y-9111412D01*
X12953515Y-9339984D02*
X12839229Y-9339984D01*
X12896372Y-9339984D02*
X12896372Y-9139984D01*
X12896372Y-9139984D02*
X12877325Y-9168555D01*
X12877325Y-9168555D02*
X12858277Y-9187603D01*
X12858277Y-9187603D02*
X12839229Y-9197127D01*
X13077325Y-9139984D02*
X13096372Y-9139984D01*
X13096372Y-9139984D02*
X13115420Y-9149508D01*
X13115420Y-9149508D02*
X13124944Y-9159031D01*
X13124944Y-9159031D02*
X13134468Y-9178079D01*
X13134468Y-9178079D02*
X13143991Y-9216174D01*
X13143991Y-9216174D02*
X13143991Y-9263793D01*
X13143991Y-9263793D02*
X13134468Y-9301889D01*
X13134468Y-9301889D02*
X13124944Y-9320936D01*
X13124944Y-9320936D02*
X13115420Y-9330460D01*
X13115420Y-9330460D02*
X13096372Y-9339984D01*
X13096372Y-9339984D02*
X13077325Y-9339984D01*
X13077325Y-9339984D02*
X13058277Y-9330460D01*
X13058277Y-9330460D02*
X13048753Y-9320936D01*
X13048753Y-9320936D02*
X13039229Y-9301889D01*
X13039229Y-9301889D02*
X13029706Y-9263793D01*
X13029706Y-9263793D02*
X13029706Y-9216174D01*
X13029706Y-9216174D02*
X13039229Y-9178079D01*
X13039229Y-9178079D02*
X13048753Y-9159031D01*
X13048753Y-9159031D02*
X13058277Y-9149508D01*
X13058277Y-9149508D02*
X13077325Y-9139984D01*
X13382087Y-9339984D02*
X13382087Y-9139984D01*
X13467801Y-9339984D02*
X13467801Y-9235222D01*
X13467801Y-9235222D02*
X13458277Y-9216174D01*
X13458277Y-9216174D02*
X13439230Y-9206650D01*
X13439230Y-9206650D02*
X13410658Y-9206650D01*
X13410658Y-9206650D02*
X13391610Y-9216174D01*
X13391610Y-9216174D02*
X13382087Y-9225698D01*
X13591610Y-9339984D02*
X13572563Y-9330460D01*
X13572563Y-9330460D02*
X13563039Y-9320936D01*
X13563039Y-9320936D02*
X13553515Y-9301889D01*
X13553515Y-9301889D02*
X13553515Y-9244746D01*
X13553515Y-9244746D02*
X13563039Y-9225698D01*
X13563039Y-9225698D02*
X13572563Y-9216174D01*
X13572563Y-9216174D02*
X13591610Y-9206650D01*
X13591610Y-9206650D02*
X13620182Y-9206650D01*
X13620182Y-9206650D02*
X13639230Y-9216174D01*
X13639230Y-9216174D02*
X13648753Y-9225698D01*
X13648753Y-9225698D02*
X13658277Y-9244746D01*
X13658277Y-9244746D02*
X13658277Y-9301889D01*
X13658277Y-9301889D02*
X13648753Y-9320936D01*
X13648753Y-9320936D02*
X13639230Y-9330460D01*
X13639230Y-9330460D02*
X13620182Y-9339984D01*
X13620182Y-9339984D02*
X13591610Y-9339984D01*
X13772563Y-9339984D02*
X13753515Y-9330460D01*
X13753515Y-9330460D02*
X13743991Y-9311412D01*
X13743991Y-9311412D02*
X13743991Y-9139984D01*
X13924944Y-9330460D02*
X13905896Y-9339984D01*
X13905896Y-9339984D02*
X13867801Y-9339984D01*
X13867801Y-9339984D02*
X13848753Y-9330460D01*
X13848753Y-9330460D02*
X13839230Y-9311412D01*
X13839230Y-9311412D02*
X13839230Y-9235222D01*
X13839230Y-9235222D02*
X13848753Y-9216174D01*
X13848753Y-9216174D02*
X13867801Y-9206650D01*
X13867801Y-9206650D02*
X13905896Y-9206650D01*
X13905896Y-9206650D02*
X13924944Y-9216174D01*
X13924944Y-9216174D02*
X13934468Y-9235222D01*
X13934468Y-9235222D02*
X13934468Y-9254270D01*
X13934468Y-9254270D02*
X13839230Y-9273317D01*
X14010658Y-9330460D02*
X14029706Y-9339984D01*
X14029706Y-9339984D02*
X14067801Y-9339984D01*
X14067801Y-9339984D02*
X14086849Y-9330460D01*
X14086849Y-9330460D02*
X14096372Y-9311412D01*
X14096372Y-9311412D02*
X14096372Y-9301889D01*
X14096372Y-9301889D02*
X14086849Y-9282841D01*
X14086849Y-9282841D02*
X14067801Y-9273317D01*
X14067801Y-9273317D02*
X14039230Y-9273317D01*
X14039230Y-9273317D02*
X14020182Y-9263793D01*
X14020182Y-9263793D02*
X14010658Y-9244746D01*
X14010658Y-9244746D02*
X14010658Y-9235222D01*
X14010658Y-9235222D02*
X14020182Y-9216174D01*
X14020182Y-9216174D02*
X14039230Y-9206650D01*
X14039230Y-9206650D02*
X14067801Y-9206650D01*
X14067801Y-9206650D02*
X14086849Y-9216174D01*
X14163039Y-9416174D02*
X14172563Y-9406650D01*
X14172563Y-9406650D02*
X14191611Y-9378079D01*
X14191611Y-9378079D02*
X14201134Y-9359031D01*
X14201134Y-9359031D02*
X14210658Y-9330460D01*
X14210658Y-9330460D02*
X14220182Y-9282841D01*
X14220182Y-9282841D02*
X14220182Y-9244746D01*
X14220182Y-9244746D02*
X14210658Y-9197127D01*
X14210658Y-9197127D02*
X14201134Y-9168555D01*
X14201134Y-9168555D02*
X14191611Y-9149508D01*
X14191611Y-9149508D02*
X14172563Y-9120936D01*
X14172563Y-9120936D02*
X14163039Y-9111412D01*
D12*
X9097500Y-9462500D02*
X9197500Y-9562500D01*
X9197500Y-9462500D02*
X9097500Y-9562500D01*
X9197500Y-9512500D02*
G75*
G02*
X9097500Y-9512500I-50000J0D01*
G01*
X9097500Y-9512500D02*
G75*
G02*
X9197500Y-9512500I50000J0D01*
G01*
D11*
X9563039Y-9603984D02*
X9448753Y-9603984D01*
X9505896Y-9603984D02*
X9505896Y-9403984D01*
X9505896Y-9403984D02*
X9486848Y-9432555D01*
X9486848Y-9432555D02*
X9467801Y-9451603D01*
X9467801Y-9451603D02*
X9448753Y-9461127D01*
X9648753Y-9584936D02*
X9658277Y-9594460D01*
X9658277Y-9594460D02*
X9648753Y-9603984D01*
X9648753Y-9603984D02*
X9639229Y-9594460D01*
X9639229Y-9594460D02*
X9648753Y-9584936D01*
X9648753Y-9584936D02*
X9648753Y-9603984D01*
X9782086Y-9403984D02*
X9801134Y-9403984D01*
X9801134Y-9403984D02*
X9820182Y-9413508D01*
X9820182Y-9413508D02*
X9829705Y-9423031D01*
X9829705Y-9423031D02*
X9839229Y-9442079D01*
X9839229Y-9442079D02*
X9848753Y-9480174D01*
X9848753Y-9480174D02*
X9848753Y-9527793D01*
X9848753Y-9527793D02*
X9839229Y-9565889D01*
X9839229Y-9565889D02*
X9829705Y-9584936D01*
X9829705Y-9584936D02*
X9820182Y-9594460D01*
X9820182Y-9594460D02*
X9801134Y-9603984D01*
X9801134Y-9603984D02*
X9782086Y-9603984D01*
X9782086Y-9603984D02*
X9763039Y-9594460D01*
X9763039Y-9594460D02*
X9753515Y-9584936D01*
X9753515Y-9584936D02*
X9743991Y-9565889D01*
X9743991Y-9565889D02*
X9734467Y-9527793D01*
X9734467Y-9527793D02*
X9734467Y-9480174D01*
X9734467Y-9480174D02*
X9743991Y-9442079D01*
X9743991Y-9442079D02*
X9753515Y-9423031D01*
X9753515Y-9423031D02*
X9763039Y-9413508D01*
X9763039Y-9413508D02*
X9782086Y-9403984D01*
X9972563Y-9403984D02*
X9991610Y-9403984D01*
X9991610Y-9403984D02*
X10010658Y-9413508D01*
X10010658Y-9413508D02*
X10020182Y-9423031D01*
X10020182Y-9423031D02*
X10029705Y-9442079D01*
X10029705Y-9442079D02*
X10039229Y-9480174D01*
X10039229Y-9480174D02*
X10039229Y-9527793D01*
X10039229Y-9527793D02*
X10029705Y-9565889D01*
X10029705Y-9565889D02*
X10020182Y-9584936D01*
X10020182Y-9584936D02*
X10010658Y-9594460D01*
X10010658Y-9594460D02*
X9991610Y-9603984D01*
X9991610Y-9603984D02*
X9972563Y-9603984D01*
X9972563Y-9603984D02*
X9953515Y-9594460D01*
X9953515Y-9594460D02*
X9943991Y-9584936D01*
X9943991Y-9584936D02*
X9934467Y-9565889D01*
X9934467Y-9565889D02*
X9924944Y-9527793D01*
X9924944Y-9527793D02*
X9924944Y-9480174D01*
X9924944Y-9480174D02*
X9934467Y-9442079D01*
X9934467Y-9442079D02*
X9943991Y-9423031D01*
X9943991Y-9423031D02*
X9953515Y-9413508D01*
X9953515Y-9413508D02*
X9972563Y-9403984D01*
X10163039Y-9403984D02*
X10182086Y-9403984D01*
X10182086Y-9403984D02*
X10201134Y-9413508D01*
X10201134Y-9413508D02*
X10210658Y-9423031D01*
X10210658Y-9423031D02*
X10220182Y-9442079D01*
X10220182Y-9442079D02*
X10229705Y-9480174D01*
X10229705Y-9480174D02*
X10229705Y-9527793D01*
X10229705Y-9527793D02*
X10220182Y-9565889D01*
X10220182Y-9565889D02*
X10210658Y-9584936D01*
X10210658Y-9584936D02*
X10201134Y-9594460D01*
X10201134Y-9594460D02*
X10182086Y-9603984D01*
X10182086Y-9603984D02*
X10163039Y-9603984D01*
X10163039Y-9603984D02*
X10143991Y-9594460D01*
X10143991Y-9594460D02*
X10134467Y-9584936D01*
X10134467Y-9584936D02*
X10124944Y-9565889D01*
X10124944Y-9565889D02*
X10115420Y-9527793D01*
X10115420Y-9527793D02*
X10115420Y-9480174D01*
X10115420Y-9480174D02*
X10124944Y-9442079D01*
X10124944Y-9442079D02*
X10134467Y-9423031D01*
X10134467Y-9423031D02*
X10143991Y-9413508D01*
X10143991Y-9413508D02*
X10163039Y-9403984D01*
X10315420Y-9603984D02*
X10315420Y-9470650D01*
X10315420Y-9489698D02*
X10324944Y-9480174D01*
X10324944Y-9480174D02*
X10343991Y-9470650D01*
X10343991Y-9470650D02*
X10372563Y-9470650D01*
X10372563Y-9470650D02*
X10391610Y-9480174D01*
X10391610Y-9480174D02*
X10401134Y-9499222D01*
X10401134Y-9499222D02*
X10401134Y-9603984D01*
X10401134Y-9499222D02*
X10410658Y-9480174D01*
X10410658Y-9480174D02*
X10429705Y-9470650D01*
X10429705Y-9470650D02*
X10458277Y-9470650D01*
X10458277Y-9470650D02*
X10477325Y-9480174D01*
X10477325Y-9480174D02*
X10486848Y-9499222D01*
X10486848Y-9499222D02*
X10486848Y-9603984D01*
X10582086Y-9603984D02*
X10582086Y-9470650D01*
X10582086Y-9489698D02*
X10591610Y-9480174D01*
X10591610Y-9480174D02*
X10610658Y-9470650D01*
X10610658Y-9470650D02*
X10639229Y-9470650D01*
X10639229Y-9470650D02*
X10658277Y-9480174D01*
X10658277Y-9480174D02*
X10667801Y-9499222D01*
X10667801Y-9499222D02*
X10667801Y-9603984D01*
X10667801Y-9499222D02*
X10677325Y-9480174D01*
X10677325Y-9480174D02*
X10696372Y-9470650D01*
X10696372Y-9470650D02*
X10724944Y-9470650D01*
X10724944Y-9470650D02*
X10743991Y-9480174D01*
X10743991Y-9480174D02*
X10753515Y-9499222D01*
X10753515Y-9499222D02*
X10753515Y-9603984D01*
X11143991Y-9394460D02*
X10972563Y-9651603D01*
X11401134Y-9403984D02*
X11420182Y-9403984D01*
X11420182Y-9403984D02*
X11439229Y-9413508D01*
X11439229Y-9413508D02*
X11448753Y-9423031D01*
X11448753Y-9423031D02*
X11458277Y-9442079D01*
X11458277Y-9442079D02*
X11467801Y-9480174D01*
X11467801Y-9480174D02*
X11467801Y-9527793D01*
X11467801Y-9527793D02*
X11458277Y-9565889D01*
X11458277Y-9565889D02*
X11448753Y-9584936D01*
X11448753Y-9584936D02*
X11439229Y-9594460D01*
X11439229Y-9594460D02*
X11420182Y-9603984D01*
X11420182Y-9603984D02*
X11401134Y-9603984D01*
X11401134Y-9603984D02*
X11382086Y-9594460D01*
X11382086Y-9594460D02*
X11372563Y-9584936D01*
X11372563Y-9584936D02*
X11363039Y-9565889D01*
X11363039Y-9565889D02*
X11353515Y-9527793D01*
X11353515Y-9527793D02*
X11353515Y-9480174D01*
X11353515Y-9480174D02*
X11363039Y-9442079D01*
X11363039Y-9442079D02*
X11372563Y-9423031D01*
X11372563Y-9423031D02*
X11382086Y-9413508D01*
X11382086Y-9413508D02*
X11401134Y-9403984D01*
X11553515Y-9584936D02*
X11563039Y-9594460D01*
X11563039Y-9594460D02*
X11553515Y-9603984D01*
X11553515Y-9603984D02*
X11543991Y-9594460D01*
X11543991Y-9594460D02*
X11553515Y-9584936D01*
X11553515Y-9584936D02*
X11553515Y-9603984D01*
X11686848Y-9403984D02*
X11705896Y-9403984D01*
X11705896Y-9403984D02*
X11724944Y-9413508D01*
X11724944Y-9413508D02*
X11734467Y-9423031D01*
X11734467Y-9423031D02*
X11743991Y-9442079D01*
X11743991Y-9442079D02*
X11753515Y-9480174D01*
X11753515Y-9480174D02*
X11753515Y-9527793D01*
X11753515Y-9527793D02*
X11743991Y-9565889D01*
X11743991Y-9565889D02*
X11734467Y-9584936D01*
X11734467Y-9584936D02*
X11724944Y-9594460D01*
X11724944Y-9594460D02*
X11705896Y-9603984D01*
X11705896Y-9603984D02*
X11686848Y-9603984D01*
X11686848Y-9603984D02*
X11667801Y-9594460D01*
X11667801Y-9594460D02*
X11658277Y-9584936D01*
X11658277Y-9584936D02*
X11648753Y-9565889D01*
X11648753Y-9565889D02*
X11639229Y-9527793D01*
X11639229Y-9527793D02*
X11639229Y-9480174D01*
X11639229Y-9480174D02*
X11648753Y-9442079D01*
X11648753Y-9442079D02*
X11658277Y-9423031D01*
X11658277Y-9423031D02*
X11667801Y-9413508D01*
X11667801Y-9413508D02*
X11686848Y-9403984D01*
X11820182Y-9403984D02*
X11943991Y-9403984D01*
X11943991Y-9403984D02*
X11877325Y-9480174D01*
X11877325Y-9480174D02*
X11905896Y-9480174D01*
X11905896Y-9480174D02*
X11924944Y-9489698D01*
X11924944Y-9489698D02*
X11934467Y-9499222D01*
X11934467Y-9499222D02*
X11943991Y-9518270D01*
X11943991Y-9518270D02*
X11943991Y-9565889D01*
X11943991Y-9565889D02*
X11934467Y-9584936D01*
X11934467Y-9584936D02*
X11924944Y-9594460D01*
X11924944Y-9594460D02*
X11905896Y-9603984D01*
X11905896Y-9603984D02*
X11848753Y-9603984D01*
X11848753Y-9603984D02*
X11829706Y-9594460D01*
X11829706Y-9594460D02*
X11820182Y-9584936D01*
X12039229Y-9603984D02*
X12077325Y-9603984D01*
X12077325Y-9603984D02*
X12096372Y-9594460D01*
X12096372Y-9594460D02*
X12105896Y-9584936D01*
X12105896Y-9584936D02*
X12124944Y-9556365D01*
X12124944Y-9556365D02*
X12134467Y-9518270D01*
X12134467Y-9518270D02*
X12134467Y-9442079D01*
X12134467Y-9442079D02*
X12124944Y-9423031D01*
X12124944Y-9423031D02*
X12115420Y-9413508D01*
X12115420Y-9413508D02*
X12096372Y-9403984D01*
X12096372Y-9403984D02*
X12058277Y-9403984D01*
X12058277Y-9403984D02*
X12039229Y-9413508D01*
X12039229Y-9413508D02*
X12029706Y-9423031D01*
X12029706Y-9423031D02*
X12020182Y-9442079D01*
X12020182Y-9442079D02*
X12020182Y-9489698D01*
X12020182Y-9489698D02*
X12029706Y-9508746D01*
X12029706Y-9508746D02*
X12039229Y-9518270D01*
X12039229Y-9518270D02*
X12058277Y-9527793D01*
X12058277Y-9527793D02*
X12096372Y-9527793D01*
X12096372Y-9527793D02*
X12115420Y-9518270D01*
X12115420Y-9518270D02*
X12124944Y-9508746D01*
X12124944Y-9508746D02*
X12134467Y-9489698D01*
X12305896Y-9470650D02*
X12305896Y-9603984D01*
X12258277Y-9394460D02*
X12210658Y-9537317D01*
X12210658Y-9537317D02*
X12334467Y-9537317D01*
X12401134Y-9403984D02*
X12401134Y-9442079D01*
X12477325Y-9403984D02*
X12477325Y-9442079D01*
X12772563Y-9680174D02*
X12763039Y-9670650D01*
X12763039Y-9670650D02*
X12743991Y-9642079D01*
X12743991Y-9642079D02*
X12734468Y-9623031D01*
X12734468Y-9623031D02*
X12724944Y-9594460D01*
X12724944Y-9594460D02*
X12715420Y-9546841D01*
X12715420Y-9546841D02*
X12715420Y-9508746D01*
X12715420Y-9508746D02*
X12724944Y-9461127D01*
X12724944Y-9461127D02*
X12734468Y-9432555D01*
X12734468Y-9432555D02*
X12743991Y-9413508D01*
X12743991Y-9413508D02*
X12763039Y-9384936D01*
X12763039Y-9384936D02*
X12772563Y-9375412D01*
X12953515Y-9603984D02*
X12839229Y-9603984D01*
X12896372Y-9603984D02*
X12896372Y-9403984D01*
X12896372Y-9403984D02*
X12877325Y-9432555D01*
X12877325Y-9432555D02*
X12858277Y-9451603D01*
X12858277Y-9451603D02*
X12839229Y-9461127D01*
X13124944Y-9470650D02*
X13124944Y-9603984D01*
X13077325Y-9394460D02*
X13029706Y-9537317D01*
X13029706Y-9537317D02*
X13153515Y-9537317D01*
X13382087Y-9603984D02*
X13382087Y-9403984D01*
X13467801Y-9603984D02*
X13467801Y-9499222D01*
X13467801Y-9499222D02*
X13458277Y-9480174D01*
X13458277Y-9480174D02*
X13439230Y-9470650D01*
X13439230Y-9470650D02*
X13410658Y-9470650D01*
X13410658Y-9470650D02*
X13391610Y-9480174D01*
X13391610Y-9480174D02*
X13382087Y-9489698D01*
X13591610Y-9603984D02*
X13572563Y-9594460D01*
X13572563Y-9594460D02*
X13563039Y-9584936D01*
X13563039Y-9584936D02*
X13553515Y-9565889D01*
X13553515Y-9565889D02*
X13553515Y-9508746D01*
X13553515Y-9508746D02*
X13563039Y-9489698D01*
X13563039Y-9489698D02*
X13572563Y-9480174D01*
X13572563Y-9480174D02*
X13591610Y-9470650D01*
X13591610Y-9470650D02*
X13620182Y-9470650D01*
X13620182Y-9470650D02*
X13639230Y-9480174D01*
X13639230Y-9480174D02*
X13648753Y-9489698D01*
X13648753Y-9489698D02*
X13658277Y-9508746D01*
X13658277Y-9508746D02*
X13658277Y-9565889D01*
X13658277Y-9565889D02*
X13648753Y-9584936D01*
X13648753Y-9584936D02*
X13639230Y-9594460D01*
X13639230Y-9594460D02*
X13620182Y-9603984D01*
X13620182Y-9603984D02*
X13591610Y-9603984D01*
X13772563Y-9603984D02*
X13753515Y-9594460D01*
X13753515Y-9594460D02*
X13743991Y-9575412D01*
X13743991Y-9575412D02*
X13743991Y-9403984D01*
X13924944Y-9594460D02*
X13905896Y-9603984D01*
X13905896Y-9603984D02*
X13867801Y-9603984D01*
X13867801Y-9603984D02*
X13848753Y-9594460D01*
X13848753Y-9594460D02*
X13839230Y-9575412D01*
X13839230Y-9575412D02*
X13839230Y-9499222D01*
X13839230Y-9499222D02*
X13848753Y-9480174D01*
X13848753Y-9480174D02*
X13867801Y-9470650D01*
X13867801Y-9470650D02*
X13905896Y-9470650D01*
X13905896Y-9470650D02*
X13924944Y-9480174D01*
X13924944Y-9480174D02*
X13934468Y-9499222D01*
X13934468Y-9499222D02*
X13934468Y-9518270D01*
X13934468Y-9518270D02*
X13839230Y-9537317D01*
X14010658Y-9594460D02*
X14029706Y-9603984D01*
X14029706Y-9603984D02*
X14067801Y-9603984D01*
X14067801Y-9603984D02*
X14086849Y-9594460D01*
X14086849Y-9594460D02*
X14096372Y-9575412D01*
X14096372Y-9575412D02*
X14096372Y-9565889D01*
X14096372Y-9565889D02*
X14086849Y-9546841D01*
X14086849Y-9546841D02*
X14067801Y-9537317D01*
X14067801Y-9537317D02*
X14039230Y-9537317D01*
X14039230Y-9537317D02*
X14020182Y-9527793D01*
X14020182Y-9527793D02*
X14010658Y-9508746D01*
X14010658Y-9508746D02*
X14010658Y-9499222D01*
X14010658Y-9499222D02*
X14020182Y-9480174D01*
X14020182Y-9480174D02*
X14039230Y-9470650D01*
X14039230Y-9470650D02*
X14067801Y-9470650D01*
X14067801Y-9470650D02*
X14086849Y-9480174D01*
X14163039Y-9680174D02*
X14172563Y-9670650D01*
X14172563Y-9670650D02*
X14191611Y-9642079D01*
X14191611Y-9642079D02*
X14201134Y-9623031D01*
X14201134Y-9623031D02*
X14210658Y-9594460D01*
X14210658Y-9594460D02*
X14220182Y-9546841D01*
X14220182Y-9546841D02*
X14220182Y-9508746D01*
X14220182Y-9508746D02*
X14210658Y-9461127D01*
X14210658Y-9461127D02*
X14201134Y-9432555D01*
X14201134Y-9432555D02*
X14191611Y-9413508D01*
X14191611Y-9413508D02*
X14172563Y-9384936D01*
X14172563Y-9384936D02*
X14163039Y-9375412D01*
M02*
