%TF.GenerationSoftware,KiCad,Pcbnew,8.0.8*%
%TF.CreationDate,2025-02-01T16:26:25+01:00*%
%TF.ProjectId,Trackball,54726163-6b62-4616-9c6c-2e6b69636164,rev?*%
%TF.SameCoordinates,Original*%
%TF.FileFunction,Profile,NP*%
%FSLAX46Y46*%
G04 Gerber Fmt 4.6, Leading zero omitted, Abs format (unit mm)*
G04 Created by KiCad (PCBNEW 8.0.8) date 2025-02-01 16:26:25*
%MOMM*%
%LPD*%
G01*
G04 APERTURE LIST*
%TA.AperFunction,Profile*%
%ADD10C,0.100000*%
%TD*%
%TA.AperFunction,Profile*%
%ADD11C,0.050000*%
%TD*%
G04 APERTURE END LIST*
D10*
X83050000Y-91100000D02*
X96550000Y-91100000D01*
X83050000Y-91100000D02*
G75*
G02*
X79550000Y-87600000I0J3500000D01*
G01*
X109550000Y-91100000D02*
X123050000Y-91100000D01*
X126550000Y-87600000D02*
G75*
G02*
X123050000Y-91100000I-3500000J0D01*
G01*
X77050000Y-69650000D02*
X79550000Y-87600000D01*
X129050000Y-69650000D02*
X126550000Y-87600000D01*
X129050000Y-69650000D02*
X129050000Y-39500000D01*
X77050000Y-39500000D02*
X79550000Y-21550000D01*
X123050000Y-18050000D02*
G75*
G02*
X126549999Y-21550000I1J-3499998D01*
G01*
X109550000Y-18050000D02*
X123050000Y-18050000D01*
X129050000Y-39500000D02*
X126550000Y-21550000D01*
X79550000Y-21550000D02*
G75*
G02*
X83050000Y-18050000I3500000J0D01*
G01*
X96550000Y-48050000D02*
X109550000Y-48050000D01*
X109550000Y-48050000D02*
X109550000Y-18050000D01*
X96550000Y-48050000D02*
X96550000Y-18050000D01*
D11*
X103050000Y-27970000D02*
X103050000Y-33070000D01*
D10*
X83050000Y-18050000D02*
X96550000Y-18050000D01*
D11*
X98590000Y-50070000D02*
X107600000Y-50070000D01*
X107600000Y-68770000D01*
X98590000Y-68770000D01*
X98590000Y-50070000D01*
D10*
X77050000Y-69650000D02*
X77050000Y-39500000D01*
M02*
