%TF.GenerationSoftware,KiCad,Pcbnew,8.0.7*%
%TF.CreationDate,2025-01-15T16:08:07+01:00*%
%TF.ProjectId,Trackball,54726163-6b62-4616-9c6c-2e6b69636164,rev?*%
%TF.SameCoordinates,Original*%
%TF.FileFunction,Legend,Bot*%
%TF.FilePolarity,Positive*%
%FSLAX46Y46*%
G04 Gerber Fmt 4.6, Leading zero omitted, Abs format (unit mm)*
G04 Created by KiCad (PCBNEW 8.0.7) date 2025-01-15 16:08:07*
%MOMM*%
%LPD*%
G01*
G04 APERTURE LIST*
G04 Aperture macros list*
%AMRoundRect*
0 Rectangle with rounded corners*
0 $1 Rounding radius*
0 $2 $3 $4 $5 $6 $7 $8 $9 X,Y pos of 4 corners*
0 Add a 4 corners polygon primitive as box body*
4,1,4,$2,$3,$4,$5,$6,$7,$8,$9,$2,$3,0*
0 Add four circle primitives for the rounded corners*
1,1,$1+$1,$2,$3*
1,1,$1+$1,$4,$5*
1,1,$1+$1,$6,$7*
1,1,$1+$1,$8,$9*
0 Add four rect primitives between the rounded corners*
20,1,$1+$1,$2,$3,$4,$5,0*
20,1,$1+$1,$4,$5,$6,$7,0*
20,1,$1+$1,$6,$7,$8,$9,0*
20,1,$1+$1,$8,$9,$2,$3,0*%
G04 Aperture macros list end*
%ADD10C,0.125000*%
%ADD11C,0.250000*%
%ADD12C,0.150000*%
%ADD13C,0.120000*%
%ADD14C,1.700000*%
%ADD15O,1.700000X1.700000*%
%ADD16C,3.200000*%
%ADD17R,1.200000X1.200000*%
%ADD18C,1.200000*%
%ADD19RoundRect,0.250000X0.600000X0.600000X-0.600000X0.600000X-0.600000X-0.600000X0.600000X-0.600000X0*%
%ADD20R,1.800000X1.800000*%
%ADD21C,1.800000*%
%ADD22C,1.900000*%
%ADD23C,1.600000*%
%ADD24C,3.050000*%
%ADD25C,5.050000*%
%ADD26RoundRect,0.250000X-1.000000X1.025000X-1.000000X-1.025000X1.000000X-1.025000X1.000000X1.025000X0*%
%ADD27C,1.500000*%
%ADD28R,0.950000X0.950000*%
%ADD29C,0.950000*%
%ADD30O,2.000000X1.600000*%
%ADD31C,1.651000*%
%ADD32R,1.000000X2.800000*%
%ADD33C,1.000000*%
G04 APERTURE END LIST*
D10*
X119731283Y-74831833D02*
X120112236Y-74831833D01*
X119921759Y-75022309D02*
X119921759Y-74641357D01*
X120302712Y-74522309D02*
X120612236Y-74522309D01*
X120612236Y-74522309D02*
X120445569Y-74712785D01*
X120445569Y-74712785D02*
X120516998Y-74712785D01*
X120516998Y-74712785D02*
X120564617Y-74736595D01*
X120564617Y-74736595D02*
X120588426Y-74760404D01*
X120588426Y-74760404D02*
X120612236Y-74808023D01*
X120612236Y-74808023D02*
X120612236Y-74927071D01*
X120612236Y-74927071D02*
X120588426Y-74974690D01*
X120588426Y-74974690D02*
X120564617Y-74998500D01*
X120564617Y-74998500D02*
X120516998Y-75022309D01*
X120516998Y-75022309D02*
X120374141Y-75022309D01*
X120374141Y-75022309D02*
X120326522Y-74998500D01*
X120326522Y-74998500D02*
X120302712Y-74974690D01*
X120826521Y-74974690D02*
X120850331Y-74998500D01*
X120850331Y-74998500D02*
X120826521Y-75022309D01*
X120826521Y-75022309D02*
X120802712Y-74998500D01*
X120802712Y-74998500D02*
X120826521Y-74974690D01*
X120826521Y-74974690D02*
X120826521Y-75022309D01*
X121016997Y-74522309D02*
X121326521Y-74522309D01*
X121326521Y-74522309D02*
X121159854Y-74712785D01*
X121159854Y-74712785D02*
X121231283Y-74712785D01*
X121231283Y-74712785D02*
X121278902Y-74736595D01*
X121278902Y-74736595D02*
X121302711Y-74760404D01*
X121302711Y-74760404D02*
X121326521Y-74808023D01*
X121326521Y-74808023D02*
X121326521Y-74927071D01*
X121326521Y-74927071D02*
X121302711Y-74974690D01*
X121302711Y-74974690D02*
X121278902Y-74998500D01*
X121278902Y-74998500D02*
X121231283Y-75022309D01*
X121231283Y-75022309D02*
X121088426Y-75022309D01*
X121088426Y-75022309D02*
X121040807Y-74998500D01*
X121040807Y-74998500D02*
X121016997Y-74974690D01*
X121469378Y-74522309D02*
X121636044Y-75022309D01*
X121636044Y-75022309D02*
X121802711Y-74522309D01*
X106686119Y-46486811D02*
X106662309Y-46534430D01*
X106662309Y-46534430D02*
X106662309Y-46605859D01*
X106662309Y-46605859D02*
X106686119Y-46677287D01*
X106686119Y-46677287D02*
X106733738Y-46724906D01*
X106733738Y-46724906D02*
X106781357Y-46748716D01*
X106781357Y-46748716D02*
X106876595Y-46772525D01*
X106876595Y-46772525D02*
X106948023Y-46772525D01*
X106948023Y-46772525D02*
X107043261Y-46748716D01*
X107043261Y-46748716D02*
X107090880Y-46724906D01*
X107090880Y-46724906D02*
X107138500Y-46677287D01*
X107138500Y-46677287D02*
X107162309Y-46605859D01*
X107162309Y-46605859D02*
X107162309Y-46558240D01*
X107162309Y-46558240D02*
X107138500Y-46486811D01*
X107138500Y-46486811D02*
X107114690Y-46463002D01*
X107114690Y-46463002D02*
X106948023Y-46463002D01*
X106948023Y-46463002D02*
X106948023Y-46558240D01*
X107162309Y-46248716D02*
X106662309Y-46248716D01*
X106662309Y-46248716D02*
X106662309Y-46058240D01*
X106662309Y-46058240D02*
X106686119Y-46010621D01*
X106686119Y-46010621D02*
X106709928Y-45986811D01*
X106709928Y-45986811D02*
X106757547Y-45963002D01*
X106757547Y-45963002D02*
X106828976Y-45963002D01*
X106828976Y-45963002D02*
X106876595Y-45986811D01*
X106876595Y-45986811D02*
X106900404Y-46010621D01*
X106900404Y-46010621D02*
X106924214Y-46058240D01*
X106924214Y-46058240D02*
X106924214Y-46248716D01*
X107162309Y-45748716D02*
X106662309Y-45748716D01*
X106662309Y-45415383D02*
X106662309Y-45320145D01*
X106662309Y-45320145D02*
X106686119Y-45272526D01*
X106686119Y-45272526D02*
X106733738Y-45224907D01*
X106733738Y-45224907D02*
X106828976Y-45201097D01*
X106828976Y-45201097D02*
X106995642Y-45201097D01*
X106995642Y-45201097D02*
X107090880Y-45224907D01*
X107090880Y-45224907D02*
X107138500Y-45272526D01*
X107138500Y-45272526D02*
X107162309Y-45320145D01*
X107162309Y-45320145D02*
X107162309Y-45415383D01*
X107162309Y-45415383D02*
X107138500Y-45463002D01*
X107138500Y-45463002D02*
X107090880Y-45510621D01*
X107090880Y-45510621D02*
X106995642Y-45534430D01*
X106995642Y-45534430D02*
X106828976Y-45534430D01*
X106828976Y-45534430D02*
X106733738Y-45510621D01*
X106733738Y-45510621D02*
X106686119Y-45463002D01*
X106686119Y-45463002D02*
X106662309Y-45415383D01*
X106828976Y-44772525D02*
X107162309Y-44772525D01*
X106638500Y-44891573D02*
X106995642Y-45010620D01*
X106995642Y-45010620D02*
X106995642Y-44701097D01*
X106709928Y-44534430D02*
X106686119Y-44510621D01*
X106686119Y-44510621D02*
X106662309Y-44463002D01*
X106662309Y-44463002D02*
X106662309Y-44343954D01*
X106662309Y-44343954D02*
X106686119Y-44296335D01*
X106686119Y-44296335D02*
X106709928Y-44272526D01*
X106709928Y-44272526D02*
X106757547Y-44248716D01*
X106757547Y-44248716D02*
X106805166Y-44248716D01*
X106805166Y-44248716D02*
X106876595Y-44272526D01*
X106876595Y-44272526D02*
X107162309Y-44558240D01*
X107162309Y-44558240D02*
X107162309Y-44248716D01*
X106971833Y-44034431D02*
X106971833Y-43653479D01*
X107138500Y-43439192D02*
X107162309Y-43367764D01*
X107162309Y-43367764D02*
X107162309Y-43248716D01*
X107162309Y-43248716D02*
X107138500Y-43201097D01*
X107138500Y-43201097D02*
X107114690Y-43177288D01*
X107114690Y-43177288D02*
X107067071Y-43153478D01*
X107067071Y-43153478D02*
X107019452Y-43153478D01*
X107019452Y-43153478D02*
X106971833Y-43177288D01*
X106971833Y-43177288D02*
X106948023Y-43201097D01*
X106948023Y-43201097D02*
X106924214Y-43248716D01*
X106924214Y-43248716D02*
X106900404Y-43343954D01*
X106900404Y-43343954D02*
X106876595Y-43391573D01*
X106876595Y-43391573D02*
X106852785Y-43415383D01*
X106852785Y-43415383D02*
X106805166Y-43439192D01*
X106805166Y-43439192D02*
X106757547Y-43439192D01*
X106757547Y-43439192D02*
X106709928Y-43415383D01*
X106709928Y-43415383D02*
X106686119Y-43391573D01*
X106686119Y-43391573D02*
X106662309Y-43343954D01*
X106662309Y-43343954D02*
X106662309Y-43224907D01*
X106662309Y-43224907D02*
X106686119Y-43153478D01*
X107114690Y-42653479D02*
X107138500Y-42677288D01*
X107138500Y-42677288D02*
X107162309Y-42748717D01*
X107162309Y-42748717D02*
X107162309Y-42796336D01*
X107162309Y-42796336D02*
X107138500Y-42867764D01*
X107138500Y-42867764D02*
X107090880Y-42915383D01*
X107090880Y-42915383D02*
X107043261Y-42939193D01*
X107043261Y-42939193D02*
X106948023Y-42963002D01*
X106948023Y-42963002D02*
X106876595Y-42963002D01*
X106876595Y-42963002D02*
X106781357Y-42939193D01*
X106781357Y-42939193D02*
X106733738Y-42915383D01*
X106733738Y-42915383D02*
X106686119Y-42867764D01*
X106686119Y-42867764D02*
X106662309Y-42796336D01*
X106662309Y-42796336D02*
X106662309Y-42748717D01*
X106662309Y-42748717D02*
X106686119Y-42677288D01*
X106686119Y-42677288D02*
X106709928Y-42653479D01*
X107162309Y-42201098D02*
X107162309Y-42439193D01*
X107162309Y-42439193D02*
X106662309Y-42439193D01*
X107162309Y-42034431D02*
X106662309Y-42034431D01*
X107162309Y-41748717D02*
X106876595Y-41963002D01*
X106662309Y-41748717D02*
X106948023Y-42034431D01*
X106828976Y-41534431D02*
X106971833Y-41153479D01*
X106971833Y-41153479D02*
X107114690Y-41534431D01*
X116793188Y-67846119D02*
X116745569Y-67822309D01*
X116745569Y-67822309D02*
X116674140Y-67822309D01*
X116674140Y-67822309D02*
X116602712Y-67846119D01*
X116602712Y-67846119D02*
X116555093Y-67893738D01*
X116555093Y-67893738D02*
X116531283Y-67941357D01*
X116531283Y-67941357D02*
X116507474Y-68036595D01*
X116507474Y-68036595D02*
X116507474Y-68108023D01*
X116507474Y-68108023D02*
X116531283Y-68203261D01*
X116531283Y-68203261D02*
X116555093Y-68250880D01*
X116555093Y-68250880D02*
X116602712Y-68298500D01*
X116602712Y-68298500D02*
X116674140Y-68322309D01*
X116674140Y-68322309D02*
X116721759Y-68322309D01*
X116721759Y-68322309D02*
X116793188Y-68298500D01*
X116793188Y-68298500D02*
X116816997Y-68274690D01*
X116816997Y-68274690D02*
X116816997Y-68108023D01*
X116816997Y-68108023D02*
X116721759Y-68108023D01*
X117031283Y-68322309D02*
X117031283Y-67822309D01*
X117031283Y-67822309D02*
X117221759Y-67822309D01*
X117221759Y-67822309D02*
X117269378Y-67846119D01*
X117269378Y-67846119D02*
X117293188Y-67869928D01*
X117293188Y-67869928D02*
X117316997Y-67917547D01*
X117316997Y-67917547D02*
X117316997Y-67988976D01*
X117316997Y-67988976D02*
X117293188Y-68036595D01*
X117293188Y-68036595D02*
X117269378Y-68060404D01*
X117269378Y-68060404D02*
X117221759Y-68084214D01*
X117221759Y-68084214D02*
X117031283Y-68084214D01*
X117531283Y-68322309D02*
X117531283Y-67822309D01*
X117864616Y-67822309D02*
X117959854Y-67822309D01*
X117959854Y-67822309D02*
X118007473Y-67846119D01*
X118007473Y-67846119D02*
X118055092Y-67893738D01*
X118055092Y-67893738D02*
X118078902Y-67988976D01*
X118078902Y-67988976D02*
X118078902Y-68155642D01*
X118078902Y-68155642D02*
X118055092Y-68250880D01*
X118055092Y-68250880D02*
X118007473Y-68298500D01*
X118007473Y-68298500D02*
X117959854Y-68322309D01*
X117959854Y-68322309D02*
X117864616Y-68322309D01*
X117864616Y-68322309D02*
X117816997Y-68298500D01*
X117816997Y-68298500D02*
X117769378Y-68250880D01*
X117769378Y-68250880D02*
X117745569Y-68155642D01*
X117745569Y-68155642D02*
X117745569Y-67988976D01*
X117745569Y-67988976D02*
X117769378Y-67893738D01*
X117769378Y-67893738D02*
X117816997Y-67846119D01*
X117816997Y-67846119D02*
X117864616Y-67822309D01*
X118555093Y-68322309D02*
X118269379Y-68322309D01*
X118412236Y-68322309D02*
X118412236Y-67822309D01*
X118412236Y-67822309D02*
X118364617Y-67893738D01*
X118364617Y-67893738D02*
X118316998Y-67941357D01*
X118316998Y-67941357D02*
X118269379Y-67965166D01*
X118840807Y-68036595D02*
X118793188Y-68012785D01*
X118793188Y-68012785D02*
X118769378Y-67988976D01*
X118769378Y-67988976D02*
X118745569Y-67941357D01*
X118745569Y-67941357D02*
X118745569Y-67917547D01*
X118745569Y-67917547D02*
X118769378Y-67869928D01*
X118769378Y-67869928D02*
X118793188Y-67846119D01*
X118793188Y-67846119D02*
X118840807Y-67822309D01*
X118840807Y-67822309D02*
X118936045Y-67822309D01*
X118936045Y-67822309D02*
X118983664Y-67846119D01*
X118983664Y-67846119D02*
X119007473Y-67869928D01*
X119007473Y-67869928D02*
X119031283Y-67917547D01*
X119031283Y-67917547D02*
X119031283Y-67941357D01*
X119031283Y-67941357D02*
X119007473Y-67988976D01*
X119007473Y-67988976D02*
X118983664Y-68012785D01*
X118983664Y-68012785D02*
X118936045Y-68036595D01*
X118936045Y-68036595D02*
X118840807Y-68036595D01*
X118840807Y-68036595D02*
X118793188Y-68060404D01*
X118793188Y-68060404D02*
X118769378Y-68084214D01*
X118769378Y-68084214D02*
X118745569Y-68131833D01*
X118745569Y-68131833D02*
X118745569Y-68227071D01*
X118745569Y-68227071D02*
X118769378Y-68274690D01*
X118769378Y-68274690D02*
X118793188Y-68298500D01*
X118793188Y-68298500D02*
X118840807Y-68322309D01*
X118840807Y-68322309D02*
X118936045Y-68322309D01*
X118936045Y-68322309D02*
X118983664Y-68298500D01*
X118983664Y-68298500D02*
X119007473Y-68274690D01*
X119007473Y-68274690D02*
X119031283Y-68227071D01*
X119031283Y-68227071D02*
X119031283Y-68131833D01*
X119031283Y-68131833D02*
X119007473Y-68084214D01*
X119007473Y-68084214D02*
X118983664Y-68060404D01*
X118983664Y-68060404D02*
X118936045Y-68036595D01*
X119245568Y-67988976D02*
X119626521Y-68131833D01*
X119626521Y-68131833D02*
X119245568Y-68274690D01*
X105448976Y-62482236D02*
X105591833Y-62101283D01*
X105591833Y-62101283D02*
X105734690Y-62482236D01*
X105306119Y-62982236D02*
X105282309Y-62934617D01*
X105282309Y-62934617D02*
X105282309Y-62863188D01*
X105282309Y-62863188D02*
X105306119Y-62791760D01*
X105306119Y-62791760D02*
X105353738Y-62744141D01*
X105353738Y-62744141D02*
X105401357Y-62720331D01*
X105401357Y-62720331D02*
X105496595Y-62696522D01*
X105496595Y-62696522D02*
X105568023Y-62696522D01*
X105568023Y-62696522D02*
X105663261Y-62720331D01*
X105663261Y-62720331D02*
X105710880Y-62744141D01*
X105710880Y-62744141D02*
X105758500Y-62791760D01*
X105758500Y-62791760D02*
X105782309Y-62863188D01*
X105782309Y-62863188D02*
X105782309Y-62910807D01*
X105782309Y-62910807D02*
X105758500Y-62982236D01*
X105758500Y-62982236D02*
X105734690Y-63006045D01*
X105734690Y-63006045D02*
X105568023Y-63006045D01*
X105568023Y-63006045D02*
X105568023Y-62910807D01*
X105782309Y-63220331D02*
X105282309Y-63220331D01*
X105282309Y-63220331D02*
X105282309Y-63410807D01*
X105282309Y-63410807D02*
X105306119Y-63458426D01*
X105306119Y-63458426D02*
X105329928Y-63482236D01*
X105329928Y-63482236D02*
X105377547Y-63506045D01*
X105377547Y-63506045D02*
X105448976Y-63506045D01*
X105448976Y-63506045D02*
X105496595Y-63482236D01*
X105496595Y-63482236D02*
X105520404Y-63458426D01*
X105520404Y-63458426D02*
X105544214Y-63410807D01*
X105544214Y-63410807D02*
X105544214Y-63220331D01*
X105782309Y-63720331D02*
X105282309Y-63720331D01*
X105282309Y-64053664D02*
X105282309Y-64148902D01*
X105282309Y-64148902D02*
X105306119Y-64196521D01*
X105306119Y-64196521D02*
X105353738Y-64244140D01*
X105353738Y-64244140D02*
X105448976Y-64267950D01*
X105448976Y-64267950D02*
X105615642Y-64267950D01*
X105615642Y-64267950D02*
X105710880Y-64244140D01*
X105710880Y-64244140D02*
X105758500Y-64196521D01*
X105758500Y-64196521D02*
X105782309Y-64148902D01*
X105782309Y-64148902D02*
X105782309Y-64053664D01*
X105782309Y-64053664D02*
X105758500Y-64006045D01*
X105758500Y-64006045D02*
X105710880Y-63958426D01*
X105710880Y-63958426D02*
X105615642Y-63934617D01*
X105615642Y-63934617D02*
X105448976Y-63934617D01*
X105448976Y-63934617D02*
X105353738Y-63958426D01*
X105353738Y-63958426D02*
X105306119Y-64006045D01*
X105306119Y-64006045D02*
X105282309Y-64053664D01*
X105282309Y-64577474D02*
X105282309Y-64625093D01*
X105282309Y-64625093D02*
X105306119Y-64672712D01*
X105306119Y-64672712D02*
X105329928Y-64696522D01*
X105329928Y-64696522D02*
X105377547Y-64720331D01*
X105377547Y-64720331D02*
X105472785Y-64744141D01*
X105472785Y-64744141D02*
X105591833Y-64744141D01*
X105591833Y-64744141D02*
X105687071Y-64720331D01*
X105687071Y-64720331D02*
X105734690Y-64696522D01*
X105734690Y-64696522D02*
X105758500Y-64672712D01*
X105758500Y-64672712D02*
X105782309Y-64625093D01*
X105782309Y-64625093D02*
X105782309Y-64577474D01*
X105782309Y-64577474D02*
X105758500Y-64529855D01*
X105758500Y-64529855D02*
X105734690Y-64506046D01*
X105734690Y-64506046D02*
X105687071Y-64482236D01*
X105687071Y-64482236D02*
X105591833Y-64458427D01*
X105591833Y-64458427D02*
X105472785Y-64458427D01*
X105472785Y-64458427D02*
X105377547Y-64482236D01*
X105377547Y-64482236D02*
X105329928Y-64506046D01*
X105329928Y-64506046D02*
X105306119Y-64529855D01*
X105306119Y-64529855D02*
X105282309Y-64577474D01*
X105282309Y-64910807D02*
X105282309Y-65244140D01*
X105282309Y-65244140D02*
X105782309Y-65029855D01*
X111996119Y-46056811D02*
X111972309Y-46104430D01*
X111972309Y-46104430D02*
X111972309Y-46175859D01*
X111972309Y-46175859D02*
X111996119Y-46247287D01*
X111996119Y-46247287D02*
X112043738Y-46294906D01*
X112043738Y-46294906D02*
X112091357Y-46318716D01*
X112091357Y-46318716D02*
X112186595Y-46342525D01*
X112186595Y-46342525D02*
X112258023Y-46342525D01*
X112258023Y-46342525D02*
X112353261Y-46318716D01*
X112353261Y-46318716D02*
X112400880Y-46294906D01*
X112400880Y-46294906D02*
X112448500Y-46247287D01*
X112448500Y-46247287D02*
X112472309Y-46175859D01*
X112472309Y-46175859D02*
X112472309Y-46128240D01*
X112472309Y-46128240D02*
X112448500Y-46056811D01*
X112448500Y-46056811D02*
X112424690Y-46033002D01*
X112424690Y-46033002D02*
X112258023Y-46033002D01*
X112258023Y-46033002D02*
X112258023Y-46128240D01*
X112472309Y-45818716D02*
X111972309Y-45818716D01*
X111972309Y-45818716D02*
X111972309Y-45628240D01*
X111972309Y-45628240D02*
X111996119Y-45580621D01*
X111996119Y-45580621D02*
X112019928Y-45556811D01*
X112019928Y-45556811D02*
X112067547Y-45533002D01*
X112067547Y-45533002D02*
X112138976Y-45533002D01*
X112138976Y-45533002D02*
X112186595Y-45556811D01*
X112186595Y-45556811D02*
X112210404Y-45580621D01*
X112210404Y-45580621D02*
X112234214Y-45628240D01*
X112234214Y-45628240D02*
X112234214Y-45818716D01*
X112472309Y-45318716D02*
X111972309Y-45318716D01*
X111972309Y-44985383D02*
X111972309Y-44890145D01*
X111972309Y-44890145D02*
X111996119Y-44842526D01*
X111996119Y-44842526D02*
X112043738Y-44794907D01*
X112043738Y-44794907D02*
X112138976Y-44771097D01*
X112138976Y-44771097D02*
X112305642Y-44771097D01*
X112305642Y-44771097D02*
X112400880Y-44794907D01*
X112400880Y-44794907D02*
X112448500Y-44842526D01*
X112448500Y-44842526D02*
X112472309Y-44890145D01*
X112472309Y-44890145D02*
X112472309Y-44985383D01*
X112472309Y-44985383D02*
X112448500Y-45033002D01*
X112448500Y-45033002D02*
X112400880Y-45080621D01*
X112400880Y-45080621D02*
X112305642Y-45104430D01*
X112305642Y-45104430D02*
X112138976Y-45104430D01*
X112138976Y-45104430D02*
X112043738Y-45080621D01*
X112043738Y-45080621D02*
X111996119Y-45033002D01*
X111996119Y-45033002D02*
X111972309Y-44985383D01*
X111972309Y-44604430D02*
X111972309Y-44294906D01*
X111972309Y-44294906D02*
X112162785Y-44461573D01*
X112162785Y-44461573D02*
X112162785Y-44390144D01*
X112162785Y-44390144D02*
X112186595Y-44342525D01*
X112186595Y-44342525D02*
X112210404Y-44318716D01*
X112210404Y-44318716D02*
X112258023Y-44294906D01*
X112258023Y-44294906D02*
X112377071Y-44294906D01*
X112377071Y-44294906D02*
X112424690Y-44318716D01*
X112424690Y-44318716D02*
X112448500Y-44342525D01*
X112448500Y-44342525D02*
X112472309Y-44390144D01*
X112472309Y-44390144D02*
X112472309Y-44533001D01*
X112472309Y-44533001D02*
X112448500Y-44580620D01*
X112448500Y-44580620D02*
X112424690Y-44604430D01*
X112472309Y-44056811D02*
X112472309Y-43961573D01*
X112472309Y-43961573D02*
X112448500Y-43913954D01*
X112448500Y-43913954D02*
X112424690Y-43890145D01*
X112424690Y-43890145D02*
X112353261Y-43842526D01*
X112353261Y-43842526D02*
X112258023Y-43818716D01*
X112258023Y-43818716D02*
X112067547Y-43818716D01*
X112067547Y-43818716D02*
X112019928Y-43842526D01*
X112019928Y-43842526D02*
X111996119Y-43866335D01*
X111996119Y-43866335D02*
X111972309Y-43913954D01*
X111972309Y-43913954D02*
X111972309Y-44009192D01*
X111972309Y-44009192D02*
X111996119Y-44056811D01*
X111996119Y-44056811D02*
X112019928Y-44080621D01*
X112019928Y-44080621D02*
X112067547Y-44104430D01*
X112067547Y-44104430D02*
X112186595Y-44104430D01*
X112186595Y-44104430D02*
X112234214Y-44080621D01*
X112234214Y-44080621D02*
X112258023Y-44056811D01*
X112258023Y-44056811D02*
X112281833Y-44009192D01*
X112281833Y-44009192D02*
X112281833Y-43913954D01*
X112281833Y-43913954D02*
X112258023Y-43866335D01*
X112258023Y-43866335D02*
X112234214Y-43842526D01*
X112234214Y-43842526D02*
X112186595Y-43818716D01*
X112281833Y-43604431D02*
X112281833Y-43223479D01*
X112472309Y-42985383D02*
X111972309Y-42985383D01*
X111972309Y-42985383D02*
X112472309Y-42699669D01*
X112472309Y-42699669D02*
X111972309Y-42699669D01*
X112424690Y-42175859D02*
X112448500Y-42199668D01*
X112448500Y-42199668D02*
X112472309Y-42271097D01*
X112472309Y-42271097D02*
X112472309Y-42318716D01*
X112472309Y-42318716D02*
X112448500Y-42390144D01*
X112448500Y-42390144D02*
X112400880Y-42437763D01*
X112400880Y-42437763D02*
X112353261Y-42461573D01*
X112353261Y-42461573D02*
X112258023Y-42485382D01*
X112258023Y-42485382D02*
X112186595Y-42485382D01*
X112186595Y-42485382D02*
X112091357Y-42461573D01*
X112091357Y-42461573D02*
X112043738Y-42437763D01*
X112043738Y-42437763D02*
X111996119Y-42390144D01*
X111996119Y-42390144D02*
X111972309Y-42318716D01*
X111972309Y-42318716D02*
X111972309Y-42271097D01*
X111972309Y-42271097D02*
X111996119Y-42199668D01*
X111996119Y-42199668D02*
X112019928Y-42175859D01*
X112448500Y-41985382D02*
X112472309Y-41913954D01*
X112472309Y-41913954D02*
X112472309Y-41794906D01*
X112472309Y-41794906D02*
X112448500Y-41747287D01*
X112448500Y-41747287D02*
X112424690Y-41723478D01*
X112424690Y-41723478D02*
X112377071Y-41699668D01*
X112377071Y-41699668D02*
X112329452Y-41699668D01*
X112329452Y-41699668D02*
X112281833Y-41723478D01*
X112281833Y-41723478D02*
X112258023Y-41747287D01*
X112258023Y-41747287D02*
X112234214Y-41794906D01*
X112234214Y-41794906D02*
X112210404Y-41890144D01*
X112210404Y-41890144D02*
X112186595Y-41937763D01*
X112186595Y-41937763D02*
X112162785Y-41961573D01*
X112162785Y-41961573D02*
X112115166Y-41985382D01*
X112115166Y-41985382D02*
X112067547Y-41985382D01*
X112067547Y-41985382D02*
X112019928Y-41961573D01*
X112019928Y-41961573D02*
X111996119Y-41937763D01*
X111996119Y-41937763D02*
X111972309Y-41890144D01*
X111972309Y-41890144D02*
X111972309Y-41771097D01*
X111972309Y-41771097D02*
X111996119Y-41699668D01*
X112138976Y-41485383D02*
X112281833Y-41104431D01*
X112281833Y-41104431D02*
X112424690Y-41485383D01*
X125142236Y-67988976D02*
X124761283Y-68131833D01*
X124761283Y-68131833D02*
X125142236Y-68274690D01*
X125642236Y-67846119D02*
X125594617Y-67822309D01*
X125594617Y-67822309D02*
X125523188Y-67822309D01*
X125523188Y-67822309D02*
X125451760Y-67846119D01*
X125451760Y-67846119D02*
X125404141Y-67893738D01*
X125404141Y-67893738D02*
X125380331Y-67941357D01*
X125380331Y-67941357D02*
X125356522Y-68036595D01*
X125356522Y-68036595D02*
X125356522Y-68108023D01*
X125356522Y-68108023D02*
X125380331Y-68203261D01*
X125380331Y-68203261D02*
X125404141Y-68250880D01*
X125404141Y-68250880D02*
X125451760Y-68298500D01*
X125451760Y-68298500D02*
X125523188Y-68322309D01*
X125523188Y-68322309D02*
X125570807Y-68322309D01*
X125570807Y-68322309D02*
X125642236Y-68298500D01*
X125642236Y-68298500D02*
X125666045Y-68274690D01*
X125666045Y-68274690D02*
X125666045Y-68108023D01*
X125666045Y-68108023D02*
X125570807Y-68108023D01*
X125880331Y-68322309D02*
X125880331Y-67822309D01*
X125880331Y-67822309D02*
X126070807Y-67822309D01*
X126070807Y-67822309D02*
X126118426Y-67846119D01*
X126118426Y-67846119D02*
X126142236Y-67869928D01*
X126142236Y-67869928D02*
X126166045Y-67917547D01*
X126166045Y-67917547D02*
X126166045Y-67988976D01*
X126166045Y-67988976D02*
X126142236Y-68036595D01*
X126142236Y-68036595D02*
X126118426Y-68060404D01*
X126118426Y-68060404D02*
X126070807Y-68084214D01*
X126070807Y-68084214D02*
X125880331Y-68084214D01*
X126380331Y-68322309D02*
X126380331Y-67822309D01*
X126713664Y-67822309D02*
X126808902Y-67822309D01*
X126808902Y-67822309D02*
X126856521Y-67846119D01*
X126856521Y-67846119D02*
X126904140Y-67893738D01*
X126904140Y-67893738D02*
X126927950Y-67988976D01*
X126927950Y-67988976D02*
X126927950Y-68155642D01*
X126927950Y-68155642D02*
X126904140Y-68250880D01*
X126904140Y-68250880D02*
X126856521Y-68298500D01*
X126856521Y-68298500D02*
X126808902Y-68322309D01*
X126808902Y-68322309D02*
X126713664Y-68322309D01*
X126713664Y-68322309D02*
X126666045Y-68298500D01*
X126666045Y-68298500D02*
X126618426Y-68250880D01*
X126618426Y-68250880D02*
X126594617Y-68155642D01*
X126594617Y-68155642D02*
X126594617Y-67988976D01*
X126594617Y-67988976D02*
X126618426Y-67893738D01*
X126618426Y-67893738D02*
X126666045Y-67846119D01*
X126666045Y-67846119D02*
X126713664Y-67822309D01*
X127404141Y-68322309D02*
X127118427Y-68322309D01*
X127261284Y-68322309D02*
X127261284Y-67822309D01*
X127261284Y-67822309D02*
X127213665Y-67893738D01*
X127213665Y-67893738D02*
X127166046Y-67941357D01*
X127166046Y-67941357D02*
X127118427Y-67965166D01*
X127713664Y-67822309D02*
X127761283Y-67822309D01*
X127761283Y-67822309D02*
X127808902Y-67846119D01*
X127808902Y-67846119D02*
X127832712Y-67869928D01*
X127832712Y-67869928D02*
X127856521Y-67917547D01*
X127856521Y-67917547D02*
X127880331Y-68012785D01*
X127880331Y-68012785D02*
X127880331Y-68131833D01*
X127880331Y-68131833D02*
X127856521Y-68227071D01*
X127856521Y-68227071D02*
X127832712Y-68274690D01*
X127832712Y-68274690D02*
X127808902Y-68298500D01*
X127808902Y-68298500D02*
X127761283Y-68322309D01*
X127761283Y-68322309D02*
X127713664Y-68322309D01*
X127713664Y-68322309D02*
X127666045Y-68298500D01*
X127666045Y-68298500D02*
X127642236Y-68274690D01*
X127642236Y-68274690D02*
X127618426Y-68227071D01*
X127618426Y-68227071D02*
X127594617Y-68131833D01*
X127594617Y-68131833D02*
X127594617Y-68012785D01*
X127594617Y-68012785D02*
X127618426Y-67917547D01*
X127618426Y-67917547D02*
X127642236Y-67869928D01*
X127642236Y-67869928D02*
X127666045Y-67846119D01*
X127666045Y-67846119D02*
X127713664Y-67822309D01*
X108001023Y-28217764D02*
X107858166Y-28598716D01*
X107858166Y-28598716D02*
X107715309Y-28217764D01*
X107667690Y-27979668D02*
X108001023Y-27979668D01*
X107905785Y-27979668D02*
X107953404Y-27955858D01*
X107953404Y-27955858D02*
X107977214Y-27932049D01*
X107977214Y-27932049D02*
X108001023Y-27884430D01*
X108001023Y-27884430D02*
X108001023Y-27836811D01*
X107691500Y-27693953D02*
X107667690Y-27646334D01*
X107667690Y-27646334D02*
X107667690Y-27551096D01*
X107667690Y-27551096D02*
X107691500Y-27503477D01*
X107691500Y-27503477D02*
X107739119Y-27479668D01*
X107739119Y-27479668D02*
X107762928Y-27479668D01*
X107762928Y-27479668D02*
X107810547Y-27503477D01*
X107810547Y-27503477D02*
X107834357Y-27551096D01*
X107834357Y-27551096D02*
X107834357Y-27622525D01*
X107834357Y-27622525D02*
X107858166Y-27670144D01*
X107858166Y-27670144D02*
X107905785Y-27693953D01*
X107905785Y-27693953D02*
X107929595Y-27693953D01*
X107929595Y-27693953D02*
X107977214Y-27670144D01*
X107977214Y-27670144D02*
X108001023Y-27622525D01*
X108001023Y-27622525D02*
X108001023Y-27551096D01*
X108001023Y-27551096D02*
X107977214Y-27503477D01*
X108001023Y-27336810D02*
X108001023Y-27146334D01*
X108167690Y-27265382D02*
X107739119Y-27265382D01*
X107739119Y-27265382D02*
X107691500Y-27241572D01*
X107691500Y-27241572D02*
X107667690Y-27193953D01*
X107667690Y-27193953D02*
X107667690Y-27146334D01*
X107858166Y-26979668D02*
X107858166Y-26598716D01*
X108143880Y-26098715D02*
X108167690Y-26146334D01*
X108167690Y-26146334D02*
X108167690Y-26217763D01*
X108167690Y-26217763D02*
X108143880Y-26289191D01*
X108143880Y-26289191D02*
X108096261Y-26336810D01*
X108096261Y-26336810D02*
X108048642Y-26360620D01*
X108048642Y-26360620D02*
X107953404Y-26384429D01*
X107953404Y-26384429D02*
X107881976Y-26384429D01*
X107881976Y-26384429D02*
X107786738Y-26360620D01*
X107786738Y-26360620D02*
X107739119Y-26336810D01*
X107739119Y-26336810D02*
X107691500Y-26289191D01*
X107691500Y-26289191D02*
X107667690Y-26217763D01*
X107667690Y-26217763D02*
X107667690Y-26170144D01*
X107667690Y-26170144D02*
X107691500Y-26098715D01*
X107691500Y-26098715D02*
X107715309Y-26074906D01*
X107715309Y-26074906D02*
X107881976Y-26074906D01*
X107881976Y-26074906D02*
X107881976Y-26170144D01*
X107667690Y-25860620D02*
X108167690Y-25860620D01*
X108167690Y-25860620D02*
X108167690Y-25670144D01*
X108167690Y-25670144D02*
X108143880Y-25622525D01*
X108143880Y-25622525D02*
X108120071Y-25598715D01*
X108120071Y-25598715D02*
X108072452Y-25574906D01*
X108072452Y-25574906D02*
X108001023Y-25574906D01*
X108001023Y-25574906D02*
X107953404Y-25598715D01*
X107953404Y-25598715D02*
X107929595Y-25622525D01*
X107929595Y-25622525D02*
X107905785Y-25670144D01*
X107905785Y-25670144D02*
X107905785Y-25860620D01*
X107667690Y-25360620D02*
X108167690Y-25360620D01*
X108167690Y-25027287D02*
X108167690Y-24932049D01*
X108167690Y-24932049D02*
X108143880Y-24884430D01*
X108143880Y-24884430D02*
X108096261Y-24836811D01*
X108096261Y-24836811D02*
X108001023Y-24813001D01*
X108001023Y-24813001D02*
X107834357Y-24813001D01*
X107834357Y-24813001D02*
X107739119Y-24836811D01*
X107739119Y-24836811D02*
X107691500Y-24884430D01*
X107691500Y-24884430D02*
X107667690Y-24932049D01*
X107667690Y-24932049D02*
X107667690Y-25027287D01*
X107667690Y-25027287D02*
X107691500Y-25074906D01*
X107691500Y-25074906D02*
X107739119Y-25122525D01*
X107739119Y-25122525D02*
X107834357Y-25146334D01*
X107834357Y-25146334D02*
X108001023Y-25146334D01*
X108001023Y-25146334D02*
X108096261Y-25122525D01*
X108096261Y-25122525D02*
X108143880Y-25074906D01*
X108143880Y-25074906D02*
X108167690Y-25027287D01*
X107667690Y-24336810D02*
X107667690Y-24622524D01*
X107667690Y-24479667D02*
X108167690Y-24479667D01*
X108167690Y-24479667D02*
X108096261Y-24527286D01*
X108096261Y-24527286D02*
X108048642Y-24574905D01*
X108048642Y-24574905D02*
X108024833Y-24622524D01*
X121691283Y-44402309D02*
X121691283Y-43902309D01*
X121691283Y-43902309D02*
X121810331Y-43902309D01*
X121810331Y-43902309D02*
X121881759Y-43926119D01*
X121881759Y-43926119D02*
X121929378Y-43973738D01*
X121929378Y-43973738D02*
X121953188Y-44021357D01*
X121953188Y-44021357D02*
X121976997Y-44116595D01*
X121976997Y-44116595D02*
X121976997Y-44188023D01*
X121976997Y-44188023D02*
X121953188Y-44283261D01*
X121953188Y-44283261D02*
X121929378Y-44330880D01*
X121929378Y-44330880D02*
X121881759Y-44378500D01*
X121881759Y-44378500D02*
X121810331Y-44402309D01*
X121810331Y-44402309D02*
X121691283Y-44402309D01*
X122191283Y-44402309D02*
X122191283Y-43902309D01*
X122715092Y-44402309D02*
X122548426Y-44164214D01*
X122429378Y-44402309D02*
X122429378Y-43902309D01*
X122429378Y-43902309D02*
X122619854Y-43902309D01*
X122619854Y-43902309D02*
X122667473Y-43926119D01*
X122667473Y-43926119D02*
X122691283Y-43949928D01*
X122691283Y-43949928D02*
X122715092Y-43997547D01*
X122715092Y-43997547D02*
X122715092Y-44068976D01*
X122715092Y-44068976D02*
X122691283Y-44116595D01*
X122691283Y-44116595D02*
X122667473Y-44140404D01*
X122667473Y-44140404D02*
X122619854Y-44164214D01*
X122619854Y-44164214D02*
X122429378Y-44164214D01*
X122929378Y-44211833D02*
X123310331Y-44211833D01*
X123810331Y-43926119D02*
X123762712Y-43902309D01*
X123762712Y-43902309D02*
X123691283Y-43902309D01*
X123691283Y-43902309D02*
X123619855Y-43926119D01*
X123619855Y-43926119D02*
X123572236Y-43973738D01*
X123572236Y-43973738D02*
X123548426Y-44021357D01*
X123548426Y-44021357D02*
X123524617Y-44116595D01*
X123524617Y-44116595D02*
X123524617Y-44188023D01*
X123524617Y-44188023D02*
X123548426Y-44283261D01*
X123548426Y-44283261D02*
X123572236Y-44330880D01*
X123572236Y-44330880D02*
X123619855Y-44378500D01*
X123619855Y-44378500D02*
X123691283Y-44402309D01*
X123691283Y-44402309D02*
X123738902Y-44402309D01*
X123738902Y-44402309D02*
X123810331Y-44378500D01*
X123810331Y-44378500D02*
X123834140Y-44354690D01*
X123834140Y-44354690D02*
X123834140Y-44188023D01*
X123834140Y-44188023D02*
X123738902Y-44188023D01*
X124048426Y-44402309D02*
X124048426Y-43902309D01*
X124048426Y-43902309D02*
X124238902Y-43902309D01*
X124238902Y-43902309D02*
X124286521Y-43926119D01*
X124286521Y-43926119D02*
X124310331Y-43949928D01*
X124310331Y-43949928D02*
X124334140Y-43997547D01*
X124334140Y-43997547D02*
X124334140Y-44068976D01*
X124334140Y-44068976D02*
X124310331Y-44116595D01*
X124310331Y-44116595D02*
X124286521Y-44140404D01*
X124286521Y-44140404D02*
X124238902Y-44164214D01*
X124238902Y-44164214D02*
X124048426Y-44164214D01*
X124548426Y-44402309D02*
X124548426Y-43902309D01*
X124881759Y-43902309D02*
X124976997Y-43902309D01*
X124976997Y-43902309D02*
X125024616Y-43926119D01*
X125024616Y-43926119D02*
X125072235Y-43973738D01*
X125072235Y-43973738D02*
X125096045Y-44068976D01*
X125096045Y-44068976D02*
X125096045Y-44235642D01*
X125096045Y-44235642D02*
X125072235Y-44330880D01*
X125072235Y-44330880D02*
X125024616Y-44378500D01*
X125024616Y-44378500D02*
X124976997Y-44402309D01*
X124976997Y-44402309D02*
X124881759Y-44402309D01*
X124881759Y-44402309D02*
X124834140Y-44378500D01*
X124834140Y-44378500D02*
X124786521Y-44330880D01*
X124786521Y-44330880D02*
X124762712Y-44235642D01*
X124762712Y-44235642D02*
X124762712Y-44068976D01*
X124762712Y-44068976D02*
X124786521Y-43973738D01*
X124786521Y-43973738D02*
X124834140Y-43926119D01*
X124834140Y-43926119D02*
X124881759Y-43902309D01*
X125262712Y-43902309D02*
X125572236Y-43902309D01*
X125572236Y-43902309D02*
X125405569Y-44092785D01*
X125405569Y-44092785D02*
X125476998Y-44092785D01*
X125476998Y-44092785D02*
X125524617Y-44116595D01*
X125524617Y-44116595D02*
X125548426Y-44140404D01*
X125548426Y-44140404D02*
X125572236Y-44188023D01*
X125572236Y-44188023D02*
X125572236Y-44307071D01*
X125572236Y-44307071D02*
X125548426Y-44354690D01*
X125548426Y-44354690D02*
X125524617Y-44378500D01*
X125524617Y-44378500D02*
X125476998Y-44402309D01*
X125476998Y-44402309D02*
X125334141Y-44402309D01*
X125334141Y-44402309D02*
X125286522Y-44378500D01*
X125286522Y-44378500D02*
X125262712Y-44354690D01*
X125738902Y-43902309D02*
X126072235Y-43902309D01*
X126072235Y-43902309D02*
X125857950Y-44402309D01*
X126262711Y-44068976D02*
X126643664Y-44211833D01*
X126643664Y-44211833D02*
X126262711Y-44354690D01*
X125142236Y-65338976D02*
X124761283Y-65481833D01*
X124761283Y-65481833D02*
X125142236Y-65624690D01*
X125642236Y-65196119D02*
X125594617Y-65172309D01*
X125594617Y-65172309D02*
X125523188Y-65172309D01*
X125523188Y-65172309D02*
X125451760Y-65196119D01*
X125451760Y-65196119D02*
X125404141Y-65243738D01*
X125404141Y-65243738D02*
X125380331Y-65291357D01*
X125380331Y-65291357D02*
X125356522Y-65386595D01*
X125356522Y-65386595D02*
X125356522Y-65458023D01*
X125356522Y-65458023D02*
X125380331Y-65553261D01*
X125380331Y-65553261D02*
X125404141Y-65600880D01*
X125404141Y-65600880D02*
X125451760Y-65648500D01*
X125451760Y-65648500D02*
X125523188Y-65672309D01*
X125523188Y-65672309D02*
X125570807Y-65672309D01*
X125570807Y-65672309D02*
X125642236Y-65648500D01*
X125642236Y-65648500D02*
X125666045Y-65624690D01*
X125666045Y-65624690D02*
X125666045Y-65458023D01*
X125666045Y-65458023D02*
X125570807Y-65458023D01*
X125880331Y-65672309D02*
X125880331Y-65172309D01*
X125880331Y-65172309D02*
X126070807Y-65172309D01*
X126070807Y-65172309D02*
X126118426Y-65196119D01*
X126118426Y-65196119D02*
X126142236Y-65219928D01*
X126142236Y-65219928D02*
X126166045Y-65267547D01*
X126166045Y-65267547D02*
X126166045Y-65338976D01*
X126166045Y-65338976D02*
X126142236Y-65386595D01*
X126142236Y-65386595D02*
X126118426Y-65410404D01*
X126118426Y-65410404D02*
X126070807Y-65434214D01*
X126070807Y-65434214D02*
X125880331Y-65434214D01*
X126380331Y-65672309D02*
X126380331Y-65172309D01*
X126713664Y-65172309D02*
X126808902Y-65172309D01*
X126808902Y-65172309D02*
X126856521Y-65196119D01*
X126856521Y-65196119D02*
X126904140Y-65243738D01*
X126904140Y-65243738D02*
X126927950Y-65338976D01*
X126927950Y-65338976D02*
X126927950Y-65505642D01*
X126927950Y-65505642D02*
X126904140Y-65600880D01*
X126904140Y-65600880D02*
X126856521Y-65648500D01*
X126856521Y-65648500D02*
X126808902Y-65672309D01*
X126808902Y-65672309D02*
X126713664Y-65672309D01*
X126713664Y-65672309D02*
X126666045Y-65648500D01*
X126666045Y-65648500D02*
X126618426Y-65600880D01*
X126618426Y-65600880D02*
X126594617Y-65505642D01*
X126594617Y-65505642D02*
X126594617Y-65338976D01*
X126594617Y-65338976D02*
X126618426Y-65243738D01*
X126618426Y-65243738D02*
X126666045Y-65196119D01*
X126666045Y-65196119D02*
X126713664Y-65172309D01*
X127356522Y-65338976D02*
X127356522Y-65672309D01*
X127237474Y-65148500D02*
X127118427Y-65505642D01*
X127118427Y-65505642D02*
X127427950Y-65505642D01*
X127856521Y-65172309D02*
X127618426Y-65172309D01*
X127618426Y-65172309D02*
X127594617Y-65410404D01*
X127594617Y-65410404D02*
X127618426Y-65386595D01*
X127618426Y-65386595D02*
X127666045Y-65362785D01*
X127666045Y-65362785D02*
X127785093Y-65362785D01*
X127785093Y-65362785D02*
X127832712Y-65386595D01*
X127832712Y-65386595D02*
X127856521Y-65410404D01*
X127856521Y-65410404D02*
X127880331Y-65458023D01*
X127880331Y-65458023D02*
X127880331Y-65577071D01*
X127880331Y-65577071D02*
X127856521Y-65624690D01*
X127856521Y-65624690D02*
X127832712Y-65648500D01*
X127832712Y-65648500D02*
X127785093Y-65672309D01*
X127785093Y-65672309D02*
X127666045Y-65672309D01*
X127666045Y-65672309D02*
X127618426Y-65648500D01*
X127618426Y-65648500D02*
X127594617Y-65624690D01*
X135357764Y-74318976D02*
X135738716Y-74461833D01*
X135738716Y-74461833D02*
X135357764Y-74604690D01*
X134857763Y-74176119D02*
X134905382Y-74152309D01*
X134905382Y-74152309D02*
X134976811Y-74152309D01*
X134976811Y-74152309D02*
X135048239Y-74176119D01*
X135048239Y-74176119D02*
X135095858Y-74223738D01*
X135095858Y-74223738D02*
X135119668Y-74271357D01*
X135119668Y-74271357D02*
X135143477Y-74366595D01*
X135143477Y-74366595D02*
X135143477Y-74438023D01*
X135143477Y-74438023D02*
X135119668Y-74533261D01*
X135119668Y-74533261D02*
X135095858Y-74580880D01*
X135095858Y-74580880D02*
X135048239Y-74628500D01*
X135048239Y-74628500D02*
X134976811Y-74652309D01*
X134976811Y-74652309D02*
X134929192Y-74652309D01*
X134929192Y-74652309D02*
X134857763Y-74628500D01*
X134857763Y-74628500D02*
X134833954Y-74604690D01*
X134833954Y-74604690D02*
X134833954Y-74438023D01*
X134833954Y-74438023D02*
X134929192Y-74438023D01*
X134619668Y-74652309D02*
X134619668Y-74152309D01*
X134619668Y-74152309D02*
X134429192Y-74152309D01*
X134429192Y-74152309D02*
X134381573Y-74176119D01*
X134381573Y-74176119D02*
X134357763Y-74199928D01*
X134357763Y-74199928D02*
X134333954Y-74247547D01*
X134333954Y-74247547D02*
X134333954Y-74318976D01*
X134333954Y-74318976D02*
X134357763Y-74366595D01*
X134357763Y-74366595D02*
X134381573Y-74390404D01*
X134381573Y-74390404D02*
X134429192Y-74414214D01*
X134429192Y-74414214D02*
X134619668Y-74414214D01*
X134119668Y-74652309D02*
X134119668Y-74152309D01*
X133786335Y-74152309D02*
X133691097Y-74152309D01*
X133691097Y-74152309D02*
X133643478Y-74176119D01*
X133643478Y-74176119D02*
X133595859Y-74223738D01*
X133595859Y-74223738D02*
X133572049Y-74318976D01*
X133572049Y-74318976D02*
X133572049Y-74485642D01*
X133572049Y-74485642D02*
X133595859Y-74580880D01*
X133595859Y-74580880D02*
X133643478Y-74628500D01*
X133643478Y-74628500D02*
X133691097Y-74652309D01*
X133691097Y-74652309D02*
X133786335Y-74652309D01*
X133786335Y-74652309D02*
X133833954Y-74628500D01*
X133833954Y-74628500D02*
X133881573Y-74580880D01*
X133881573Y-74580880D02*
X133905382Y-74485642D01*
X133905382Y-74485642D02*
X133905382Y-74318976D01*
X133905382Y-74318976D02*
X133881573Y-74223738D01*
X133881573Y-74223738D02*
X133833954Y-74176119D01*
X133833954Y-74176119D02*
X133786335Y-74152309D01*
X133143477Y-74318976D02*
X133143477Y-74652309D01*
X133262525Y-74128500D02*
X133381572Y-74485642D01*
X133381572Y-74485642D02*
X133072049Y-74485642D01*
X132667287Y-74152309D02*
X132762525Y-74152309D01*
X132762525Y-74152309D02*
X132810144Y-74176119D01*
X132810144Y-74176119D02*
X132833954Y-74199928D01*
X132833954Y-74199928D02*
X132881573Y-74271357D01*
X132881573Y-74271357D02*
X132905382Y-74366595D01*
X132905382Y-74366595D02*
X132905382Y-74557071D01*
X132905382Y-74557071D02*
X132881573Y-74604690D01*
X132881573Y-74604690D02*
X132857763Y-74628500D01*
X132857763Y-74628500D02*
X132810144Y-74652309D01*
X132810144Y-74652309D02*
X132714906Y-74652309D01*
X132714906Y-74652309D02*
X132667287Y-74628500D01*
X132667287Y-74628500D02*
X132643478Y-74604690D01*
X132643478Y-74604690D02*
X132619668Y-74557071D01*
X132619668Y-74557071D02*
X132619668Y-74438023D01*
X132619668Y-74438023D02*
X132643478Y-74390404D01*
X132643478Y-74390404D02*
X132667287Y-74366595D01*
X132667287Y-74366595D02*
X132714906Y-74342785D01*
X132714906Y-74342785D02*
X132810144Y-74342785D01*
X132810144Y-74342785D02*
X132857763Y-74366595D01*
X132857763Y-74366595D02*
X132881573Y-74390404D01*
X132881573Y-74390404D02*
X132905382Y-74438023D01*
X106293880Y-26813188D02*
X106317690Y-26765569D01*
X106317690Y-26765569D02*
X106317690Y-26694140D01*
X106317690Y-26694140D02*
X106293880Y-26622712D01*
X106293880Y-26622712D02*
X106246261Y-26575093D01*
X106246261Y-26575093D02*
X106198642Y-26551283D01*
X106198642Y-26551283D02*
X106103404Y-26527474D01*
X106103404Y-26527474D02*
X106031976Y-26527474D01*
X106031976Y-26527474D02*
X105936738Y-26551283D01*
X105936738Y-26551283D02*
X105889119Y-26575093D01*
X105889119Y-26575093D02*
X105841500Y-26622712D01*
X105841500Y-26622712D02*
X105817690Y-26694140D01*
X105817690Y-26694140D02*
X105817690Y-26741759D01*
X105817690Y-26741759D02*
X105841500Y-26813188D01*
X105841500Y-26813188D02*
X105865309Y-26836997D01*
X105865309Y-26836997D02*
X106031976Y-26836997D01*
X106031976Y-26836997D02*
X106031976Y-26741759D01*
X105817690Y-27051283D02*
X106317690Y-27051283D01*
X106317690Y-27051283D02*
X105817690Y-27336997D01*
X105817690Y-27336997D02*
X106317690Y-27336997D01*
X105817690Y-27575093D02*
X106317690Y-27575093D01*
X106317690Y-27575093D02*
X106317690Y-27694141D01*
X106317690Y-27694141D02*
X106293880Y-27765569D01*
X106293880Y-27765569D02*
X106246261Y-27813188D01*
X106246261Y-27813188D02*
X106198642Y-27836998D01*
X106198642Y-27836998D02*
X106103404Y-27860807D01*
X106103404Y-27860807D02*
X106031976Y-27860807D01*
X106031976Y-27860807D02*
X105936738Y-27836998D01*
X105936738Y-27836998D02*
X105889119Y-27813188D01*
X105889119Y-27813188D02*
X105841500Y-27765569D01*
X105841500Y-27765569D02*
X105817690Y-27694141D01*
X105817690Y-27694141D02*
X105817690Y-27575093D01*
X106151023Y-28075093D02*
X106008166Y-28456046D01*
X106008166Y-28456046D02*
X105865309Y-28075093D01*
X136658976Y-40662236D02*
X136801833Y-40281283D01*
X136801833Y-40281283D02*
X136944690Y-40662236D01*
X136516119Y-41162236D02*
X136492309Y-41114617D01*
X136492309Y-41114617D02*
X136492309Y-41043188D01*
X136492309Y-41043188D02*
X136516119Y-40971760D01*
X136516119Y-40971760D02*
X136563738Y-40924141D01*
X136563738Y-40924141D02*
X136611357Y-40900331D01*
X136611357Y-40900331D02*
X136706595Y-40876522D01*
X136706595Y-40876522D02*
X136778023Y-40876522D01*
X136778023Y-40876522D02*
X136873261Y-40900331D01*
X136873261Y-40900331D02*
X136920880Y-40924141D01*
X136920880Y-40924141D02*
X136968500Y-40971760D01*
X136968500Y-40971760D02*
X136992309Y-41043188D01*
X136992309Y-41043188D02*
X136992309Y-41090807D01*
X136992309Y-41090807D02*
X136968500Y-41162236D01*
X136968500Y-41162236D02*
X136944690Y-41186045D01*
X136944690Y-41186045D02*
X136778023Y-41186045D01*
X136778023Y-41186045D02*
X136778023Y-41090807D01*
X136992309Y-41400331D02*
X136492309Y-41400331D01*
X136492309Y-41400331D02*
X136492309Y-41590807D01*
X136492309Y-41590807D02*
X136516119Y-41638426D01*
X136516119Y-41638426D02*
X136539928Y-41662236D01*
X136539928Y-41662236D02*
X136587547Y-41686045D01*
X136587547Y-41686045D02*
X136658976Y-41686045D01*
X136658976Y-41686045D02*
X136706595Y-41662236D01*
X136706595Y-41662236D02*
X136730404Y-41638426D01*
X136730404Y-41638426D02*
X136754214Y-41590807D01*
X136754214Y-41590807D02*
X136754214Y-41400331D01*
X136992309Y-41900331D02*
X136492309Y-41900331D01*
X136492309Y-42233664D02*
X136492309Y-42328902D01*
X136492309Y-42328902D02*
X136516119Y-42376521D01*
X136516119Y-42376521D02*
X136563738Y-42424140D01*
X136563738Y-42424140D02*
X136658976Y-42447950D01*
X136658976Y-42447950D02*
X136825642Y-42447950D01*
X136825642Y-42447950D02*
X136920880Y-42424140D01*
X136920880Y-42424140D02*
X136968500Y-42376521D01*
X136968500Y-42376521D02*
X136992309Y-42328902D01*
X136992309Y-42328902D02*
X136992309Y-42233664D01*
X136992309Y-42233664D02*
X136968500Y-42186045D01*
X136968500Y-42186045D02*
X136920880Y-42138426D01*
X136920880Y-42138426D02*
X136825642Y-42114617D01*
X136825642Y-42114617D02*
X136658976Y-42114617D01*
X136658976Y-42114617D02*
X136563738Y-42138426D01*
X136563738Y-42138426D02*
X136516119Y-42186045D01*
X136516119Y-42186045D02*
X136492309Y-42233664D01*
X136992309Y-42924141D02*
X136992309Y-42638427D01*
X136992309Y-42781284D02*
X136492309Y-42781284D01*
X136492309Y-42781284D02*
X136563738Y-42733665D01*
X136563738Y-42733665D02*
X136611357Y-42686046D01*
X136611357Y-42686046D02*
X136635166Y-42638427D01*
X136658976Y-43352712D02*
X136992309Y-43352712D01*
X136468500Y-43233664D02*
X136825642Y-43114617D01*
X136825642Y-43114617D02*
X136825642Y-43424140D01*
X116793188Y-65196119D02*
X116745569Y-65172309D01*
X116745569Y-65172309D02*
X116674140Y-65172309D01*
X116674140Y-65172309D02*
X116602712Y-65196119D01*
X116602712Y-65196119D02*
X116555093Y-65243738D01*
X116555093Y-65243738D02*
X116531283Y-65291357D01*
X116531283Y-65291357D02*
X116507474Y-65386595D01*
X116507474Y-65386595D02*
X116507474Y-65458023D01*
X116507474Y-65458023D02*
X116531283Y-65553261D01*
X116531283Y-65553261D02*
X116555093Y-65600880D01*
X116555093Y-65600880D02*
X116602712Y-65648500D01*
X116602712Y-65648500D02*
X116674140Y-65672309D01*
X116674140Y-65672309D02*
X116721759Y-65672309D01*
X116721759Y-65672309D02*
X116793188Y-65648500D01*
X116793188Y-65648500D02*
X116816997Y-65624690D01*
X116816997Y-65624690D02*
X116816997Y-65458023D01*
X116816997Y-65458023D02*
X116721759Y-65458023D01*
X117031283Y-65672309D02*
X117031283Y-65172309D01*
X117031283Y-65172309D02*
X117221759Y-65172309D01*
X117221759Y-65172309D02*
X117269378Y-65196119D01*
X117269378Y-65196119D02*
X117293188Y-65219928D01*
X117293188Y-65219928D02*
X117316997Y-65267547D01*
X117316997Y-65267547D02*
X117316997Y-65338976D01*
X117316997Y-65338976D02*
X117293188Y-65386595D01*
X117293188Y-65386595D02*
X117269378Y-65410404D01*
X117269378Y-65410404D02*
X117221759Y-65434214D01*
X117221759Y-65434214D02*
X117031283Y-65434214D01*
X117531283Y-65672309D02*
X117531283Y-65172309D01*
X117864616Y-65172309D02*
X117959854Y-65172309D01*
X117959854Y-65172309D02*
X118007473Y-65196119D01*
X118007473Y-65196119D02*
X118055092Y-65243738D01*
X118055092Y-65243738D02*
X118078902Y-65338976D01*
X118078902Y-65338976D02*
X118078902Y-65505642D01*
X118078902Y-65505642D02*
X118055092Y-65600880D01*
X118055092Y-65600880D02*
X118007473Y-65648500D01*
X118007473Y-65648500D02*
X117959854Y-65672309D01*
X117959854Y-65672309D02*
X117864616Y-65672309D01*
X117864616Y-65672309D02*
X117816997Y-65648500D01*
X117816997Y-65648500D02*
X117769378Y-65600880D01*
X117769378Y-65600880D02*
X117745569Y-65505642D01*
X117745569Y-65505642D02*
X117745569Y-65338976D01*
X117745569Y-65338976D02*
X117769378Y-65243738D01*
X117769378Y-65243738D02*
X117816997Y-65196119D01*
X117816997Y-65196119D02*
X117864616Y-65172309D01*
X118388426Y-65172309D02*
X118436045Y-65172309D01*
X118436045Y-65172309D02*
X118483664Y-65196119D01*
X118483664Y-65196119D02*
X118507474Y-65219928D01*
X118507474Y-65219928D02*
X118531283Y-65267547D01*
X118531283Y-65267547D02*
X118555093Y-65362785D01*
X118555093Y-65362785D02*
X118555093Y-65481833D01*
X118555093Y-65481833D02*
X118531283Y-65577071D01*
X118531283Y-65577071D02*
X118507474Y-65624690D01*
X118507474Y-65624690D02*
X118483664Y-65648500D01*
X118483664Y-65648500D02*
X118436045Y-65672309D01*
X118436045Y-65672309D02*
X118388426Y-65672309D01*
X118388426Y-65672309D02*
X118340807Y-65648500D01*
X118340807Y-65648500D02*
X118316998Y-65624690D01*
X118316998Y-65624690D02*
X118293188Y-65577071D01*
X118293188Y-65577071D02*
X118269379Y-65481833D01*
X118269379Y-65481833D02*
X118269379Y-65362785D01*
X118269379Y-65362785D02*
X118293188Y-65267547D01*
X118293188Y-65267547D02*
X118316998Y-65219928D01*
X118316998Y-65219928D02*
X118340807Y-65196119D01*
X118340807Y-65196119D02*
X118388426Y-65172309D01*
X118793188Y-65672309D02*
X118888426Y-65672309D01*
X118888426Y-65672309D02*
X118936045Y-65648500D01*
X118936045Y-65648500D02*
X118959854Y-65624690D01*
X118959854Y-65624690D02*
X119007473Y-65553261D01*
X119007473Y-65553261D02*
X119031283Y-65458023D01*
X119031283Y-65458023D02*
X119031283Y-65267547D01*
X119031283Y-65267547D02*
X119007473Y-65219928D01*
X119007473Y-65219928D02*
X118983664Y-65196119D01*
X118983664Y-65196119D02*
X118936045Y-65172309D01*
X118936045Y-65172309D02*
X118840807Y-65172309D01*
X118840807Y-65172309D02*
X118793188Y-65196119D01*
X118793188Y-65196119D02*
X118769378Y-65219928D01*
X118769378Y-65219928D02*
X118745569Y-65267547D01*
X118745569Y-65267547D02*
X118745569Y-65386595D01*
X118745569Y-65386595D02*
X118769378Y-65434214D01*
X118769378Y-65434214D02*
X118793188Y-65458023D01*
X118793188Y-65458023D02*
X118840807Y-65481833D01*
X118840807Y-65481833D02*
X118936045Y-65481833D01*
X118936045Y-65481833D02*
X118983664Y-65458023D01*
X118983664Y-65458023D02*
X119007473Y-65434214D01*
X119007473Y-65434214D02*
X119031283Y-65386595D01*
X119245568Y-65338976D02*
X119626521Y-65481833D01*
X119626521Y-65481833D02*
X119245568Y-65624690D01*
X116793188Y-70366119D02*
X116745569Y-70342309D01*
X116745569Y-70342309D02*
X116674140Y-70342309D01*
X116674140Y-70342309D02*
X116602712Y-70366119D01*
X116602712Y-70366119D02*
X116555093Y-70413738D01*
X116555093Y-70413738D02*
X116531283Y-70461357D01*
X116531283Y-70461357D02*
X116507474Y-70556595D01*
X116507474Y-70556595D02*
X116507474Y-70628023D01*
X116507474Y-70628023D02*
X116531283Y-70723261D01*
X116531283Y-70723261D02*
X116555093Y-70770880D01*
X116555093Y-70770880D02*
X116602712Y-70818500D01*
X116602712Y-70818500D02*
X116674140Y-70842309D01*
X116674140Y-70842309D02*
X116721759Y-70842309D01*
X116721759Y-70842309D02*
X116793188Y-70818500D01*
X116793188Y-70818500D02*
X116816997Y-70794690D01*
X116816997Y-70794690D02*
X116816997Y-70628023D01*
X116816997Y-70628023D02*
X116721759Y-70628023D01*
X117031283Y-70842309D02*
X117031283Y-70342309D01*
X117031283Y-70342309D02*
X117221759Y-70342309D01*
X117221759Y-70342309D02*
X117269378Y-70366119D01*
X117269378Y-70366119D02*
X117293188Y-70389928D01*
X117293188Y-70389928D02*
X117316997Y-70437547D01*
X117316997Y-70437547D02*
X117316997Y-70508976D01*
X117316997Y-70508976D02*
X117293188Y-70556595D01*
X117293188Y-70556595D02*
X117269378Y-70580404D01*
X117269378Y-70580404D02*
X117221759Y-70604214D01*
X117221759Y-70604214D02*
X117031283Y-70604214D01*
X117531283Y-70842309D02*
X117531283Y-70342309D01*
X117864616Y-70342309D02*
X117959854Y-70342309D01*
X117959854Y-70342309D02*
X118007473Y-70366119D01*
X118007473Y-70366119D02*
X118055092Y-70413738D01*
X118055092Y-70413738D02*
X118078902Y-70508976D01*
X118078902Y-70508976D02*
X118078902Y-70675642D01*
X118078902Y-70675642D02*
X118055092Y-70770880D01*
X118055092Y-70770880D02*
X118007473Y-70818500D01*
X118007473Y-70818500D02*
X117959854Y-70842309D01*
X117959854Y-70842309D02*
X117864616Y-70842309D01*
X117864616Y-70842309D02*
X117816997Y-70818500D01*
X117816997Y-70818500D02*
X117769378Y-70770880D01*
X117769378Y-70770880D02*
X117745569Y-70675642D01*
X117745569Y-70675642D02*
X117745569Y-70508976D01*
X117745569Y-70508976D02*
X117769378Y-70413738D01*
X117769378Y-70413738D02*
X117816997Y-70366119D01*
X117816997Y-70366119D02*
X117864616Y-70342309D01*
X118388426Y-70342309D02*
X118436045Y-70342309D01*
X118436045Y-70342309D02*
X118483664Y-70366119D01*
X118483664Y-70366119D02*
X118507474Y-70389928D01*
X118507474Y-70389928D02*
X118531283Y-70437547D01*
X118531283Y-70437547D02*
X118555093Y-70532785D01*
X118555093Y-70532785D02*
X118555093Y-70651833D01*
X118555093Y-70651833D02*
X118531283Y-70747071D01*
X118531283Y-70747071D02*
X118507474Y-70794690D01*
X118507474Y-70794690D02*
X118483664Y-70818500D01*
X118483664Y-70818500D02*
X118436045Y-70842309D01*
X118436045Y-70842309D02*
X118388426Y-70842309D01*
X118388426Y-70842309D02*
X118340807Y-70818500D01*
X118340807Y-70818500D02*
X118316998Y-70794690D01*
X118316998Y-70794690D02*
X118293188Y-70747071D01*
X118293188Y-70747071D02*
X118269379Y-70651833D01*
X118269379Y-70651833D02*
X118269379Y-70532785D01*
X118269379Y-70532785D02*
X118293188Y-70437547D01*
X118293188Y-70437547D02*
X118316998Y-70389928D01*
X118316998Y-70389928D02*
X118340807Y-70366119D01*
X118340807Y-70366119D02*
X118388426Y-70342309D01*
X118840807Y-70556595D02*
X118793188Y-70532785D01*
X118793188Y-70532785D02*
X118769378Y-70508976D01*
X118769378Y-70508976D02*
X118745569Y-70461357D01*
X118745569Y-70461357D02*
X118745569Y-70437547D01*
X118745569Y-70437547D02*
X118769378Y-70389928D01*
X118769378Y-70389928D02*
X118793188Y-70366119D01*
X118793188Y-70366119D02*
X118840807Y-70342309D01*
X118840807Y-70342309D02*
X118936045Y-70342309D01*
X118936045Y-70342309D02*
X118983664Y-70366119D01*
X118983664Y-70366119D02*
X119007473Y-70389928D01*
X119007473Y-70389928D02*
X119031283Y-70437547D01*
X119031283Y-70437547D02*
X119031283Y-70461357D01*
X119031283Y-70461357D02*
X119007473Y-70508976D01*
X119007473Y-70508976D02*
X118983664Y-70532785D01*
X118983664Y-70532785D02*
X118936045Y-70556595D01*
X118936045Y-70556595D02*
X118840807Y-70556595D01*
X118840807Y-70556595D02*
X118793188Y-70580404D01*
X118793188Y-70580404D02*
X118769378Y-70604214D01*
X118769378Y-70604214D02*
X118745569Y-70651833D01*
X118745569Y-70651833D02*
X118745569Y-70747071D01*
X118745569Y-70747071D02*
X118769378Y-70794690D01*
X118769378Y-70794690D02*
X118793188Y-70818500D01*
X118793188Y-70818500D02*
X118840807Y-70842309D01*
X118840807Y-70842309D02*
X118936045Y-70842309D01*
X118936045Y-70842309D02*
X118983664Y-70818500D01*
X118983664Y-70818500D02*
X119007473Y-70794690D01*
X119007473Y-70794690D02*
X119031283Y-70747071D01*
X119031283Y-70747071D02*
X119031283Y-70651833D01*
X119031283Y-70651833D02*
X119007473Y-70604214D01*
X119007473Y-70604214D02*
X118983664Y-70580404D01*
X118983664Y-70580404D02*
X118936045Y-70556595D01*
X119245568Y-70508976D02*
X119626521Y-70651833D01*
X119626521Y-70651833D02*
X119245568Y-70794690D01*
D11*
X100372047Y-38504473D02*
X100086333Y-37742568D01*
X100086333Y-37742568D02*
X99800619Y-38504473D01*
X100657761Y-39504472D02*
X100705380Y-39409234D01*
X100705380Y-39409234D02*
X100705380Y-39266377D01*
X100705380Y-39266377D02*
X100657761Y-39123520D01*
X100657761Y-39123520D02*
X100562523Y-39028282D01*
X100562523Y-39028282D02*
X100467285Y-38980663D01*
X100467285Y-38980663D02*
X100276809Y-38933044D01*
X100276809Y-38933044D02*
X100133952Y-38933044D01*
X100133952Y-38933044D02*
X99943476Y-38980663D01*
X99943476Y-38980663D02*
X99848238Y-39028282D01*
X99848238Y-39028282D02*
X99753000Y-39123520D01*
X99753000Y-39123520D02*
X99705380Y-39266377D01*
X99705380Y-39266377D02*
X99705380Y-39361615D01*
X99705380Y-39361615D02*
X99753000Y-39504472D01*
X99753000Y-39504472D02*
X99800619Y-39552091D01*
X99800619Y-39552091D02*
X100133952Y-39552091D01*
X100133952Y-39552091D02*
X100133952Y-39361615D01*
X99705380Y-39980663D02*
X100705380Y-39980663D01*
X100705380Y-39980663D02*
X100705380Y-40361615D01*
X100705380Y-40361615D02*
X100657761Y-40456853D01*
X100657761Y-40456853D02*
X100610142Y-40504472D01*
X100610142Y-40504472D02*
X100514904Y-40552091D01*
X100514904Y-40552091D02*
X100372047Y-40552091D01*
X100372047Y-40552091D02*
X100276809Y-40504472D01*
X100276809Y-40504472D02*
X100229190Y-40456853D01*
X100229190Y-40456853D02*
X100181571Y-40361615D01*
X100181571Y-40361615D02*
X100181571Y-39980663D01*
X99705380Y-40980663D02*
X100705380Y-40980663D01*
X100705380Y-41647329D02*
X100705380Y-41837805D01*
X100705380Y-41837805D02*
X100657761Y-41933043D01*
X100657761Y-41933043D02*
X100562523Y-42028281D01*
X100562523Y-42028281D02*
X100372047Y-42075900D01*
X100372047Y-42075900D02*
X100038714Y-42075900D01*
X100038714Y-42075900D02*
X99848238Y-42028281D01*
X99848238Y-42028281D02*
X99753000Y-41933043D01*
X99753000Y-41933043D02*
X99705380Y-41837805D01*
X99705380Y-41837805D02*
X99705380Y-41647329D01*
X99705380Y-41647329D02*
X99753000Y-41552091D01*
X99753000Y-41552091D02*
X99848238Y-41456853D01*
X99848238Y-41456853D02*
X100038714Y-41409234D01*
X100038714Y-41409234D02*
X100372047Y-41409234D01*
X100372047Y-41409234D02*
X100562523Y-41456853D01*
X100562523Y-41456853D02*
X100657761Y-41552091D01*
X100657761Y-41552091D02*
X100705380Y-41647329D01*
X100705380Y-42694948D02*
X100705380Y-42790186D01*
X100705380Y-42790186D02*
X100657761Y-42885424D01*
X100657761Y-42885424D02*
X100610142Y-42933043D01*
X100610142Y-42933043D02*
X100514904Y-42980662D01*
X100514904Y-42980662D02*
X100324428Y-43028281D01*
X100324428Y-43028281D02*
X100086333Y-43028281D01*
X100086333Y-43028281D02*
X99895857Y-42980662D01*
X99895857Y-42980662D02*
X99800619Y-42933043D01*
X99800619Y-42933043D02*
X99753000Y-42885424D01*
X99753000Y-42885424D02*
X99705380Y-42790186D01*
X99705380Y-42790186D02*
X99705380Y-42694948D01*
X99705380Y-42694948D02*
X99753000Y-42599710D01*
X99753000Y-42599710D02*
X99800619Y-42552091D01*
X99800619Y-42552091D02*
X99895857Y-42504472D01*
X99895857Y-42504472D02*
X100086333Y-42456853D01*
X100086333Y-42456853D02*
X100324428Y-42456853D01*
X100324428Y-42456853D02*
X100514904Y-42504472D01*
X100514904Y-42504472D02*
X100610142Y-42552091D01*
X100610142Y-42552091D02*
X100657761Y-42599710D01*
X100657761Y-42599710D02*
X100705380Y-42694948D01*
D10*
X100798976Y-65082236D02*
X100941833Y-64701283D01*
X100941833Y-64701283D02*
X101084690Y-65082236D01*
X100656119Y-65582236D02*
X100632309Y-65534617D01*
X100632309Y-65534617D02*
X100632309Y-65463188D01*
X100632309Y-65463188D02*
X100656119Y-65391760D01*
X100656119Y-65391760D02*
X100703738Y-65344141D01*
X100703738Y-65344141D02*
X100751357Y-65320331D01*
X100751357Y-65320331D02*
X100846595Y-65296522D01*
X100846595Y-65296522D02*
X100918023Y-65296522D01*
X100918023Y-65296522D02*
X101013261Y-65320331D01*
X101013261Y-65320331D02*
X101060880Y-65344141D01*
X101060880Y-65344141D02*
X101108500Y-65391760D01*
X101108500Y-65391760D02*
X101132309Y-65463188D01*
X101132309Y-65463188D02*
X101132309Y-65510807D01*
X101132309Y-65510807D02*
X101108500Y-65582236D01*
X101108500Y-65582236D02*
X101084690Y-65606045D01*
X101084690Y-65606045D02*
X100918023Y-65606045D01*
X100918023Y-65606045D02*
X100918023Y-65510807D01*
X101132309Y-65820331D02*
X100632309Y-65820331D01*
X100632309Y-65820331D02*
X100632309Y-66010807D01*
X100632309Y-66010807D02*
X100656119Y-66058426D01*
X100656119Y-66058426D02*
X100679928Y-66082236D01*
X100679928Y-66082236D02*
X100727547Y-66106045D01*
X100727547Y-66106045D02*
X100798976Y-66106045D01*
X100798976Y-66106045D02*
X100846595Y-66082236D01*
X100846595Y-66082236D02*
X100870404Y-66058426D01*
X100870404Y-66058426D02*
X100894214Y-66010807D01*
X100894214Y-66010807D02*
X100894214Y-65820331D01*
X101132309Y-66320331D02*
X100632309Y-66320331D01*
X100632309Y-66653664D02*
X100632309Y-66748902D01*
X100632309Y-66748902D02*
X100656119Y-66796521D01*
X100656119Y-66796521D02*
X100703738Y-66844140D01*
X100703738Y-66844140D02*
X100798976Y-66867950D01*
X100798976Y-66867950D02*
X100965642Y-66867950D01*
X100965642Y-66867950D02*
X101060880Y-66844140D01*
X101060880Y-66844140D02*
X101108500Y-66796521D01*
X101108500Y-66796521D02*
X101132309Y-66748902D01*
X101132309Y-66748902D02*
X101132309Y-66653664D01*
X101132309Y-66653664D02*
X101108500Y-66606045D01*
X101108500Y-66606045D02*
X101060880Y-66558426D01*
X101060880Y-66558426D02*
X100965642Y-66534617D01*
X100965642Y-66534617D02*
X100798976Y-66534617D01*
X100798976Y-66534617D02*
X100703738Y-66558426D01*
X100703738Y-66558426D02*
X100656119Y-66606045D01*
X100656119Y-66606045D02*
X100632309Y-66653664D01*
X100632309Y-67177474D02*
X100632309Y-67225093D01*
X100632309Y-67225093D02*
X100656119Y-67272712D01*
X100656119Y-67272712D02*
X100679928Y-67296522D01*
X100679928Y-67296522D02*
X100727547Y-67320331D01*
X100727547Y-67320331D02*
X100822785Y-67344141D01*
X100822785Y-67344141D02*
X100941833Y-67344141D01*
X100941833Y-67344141D02*
X101037071Y-67320331D01*
X101037071Y-67320331D02*
X101084690Y-67296522D01*
X101084690Y-67296522D02*
X101108500Y-67272712D01*
X101108500Y-67272712D02*
X101132309Y-67225093D01*
X101132309Y-67225093D02*
X101132309Y-67177474D01*
X101132309Y-67177474D02*
X101108500Y-67129855D01*
X101108500Y-67129855D02*
X101084690Y-67106046D01*
X101084690Y-67106046D02*
X101037071Y-67082236D01*
X101037071Y-67082236D02*
X100941833Y-67058427D01*
X100941833Y-67058427D02*
X100822785Y-67058427D01*
X100822785Y-67058427D02*
X100727547Y-67082236D01*
X100727547Y-67082236D02*
X100679928Y-67106046D01*
X100679928Y-67106046D02*
X100656119Y-67129855D01*
X100656119Y-67129855D02*
X100632309Y-67177474D01*
X100632309Y-67796521D02*
X100632309Y-67558426D01*
X100632309Y-67558426D02*
X100870404Y-67534617D01*
X100870404Y-67534617D02*
X100846595Y-67558426D01*
X100846595Y-67558426D02*
X100822785Y-67606045D01*
X100822785Y-67606045D02*
X100822785Y-67725093D01*
X100822785Y-67725093D02*
X100846595Y-67772712D01*
X100846595Y-67772712D02*
X100870404Y-67796521D01*
X100870404Y-67796521D02*
X100918023Y-67820331D01*
X100918023Y-67820331D02*
X101037071Y-67820331D01*
X101037071Y-67820331D02*
X101084690Y-67796521D01*
X101084690Y-67796521D02*
X101108500Y-67772712D01*
X101108500Y-67772712D02*
X101132309Y-67725093D01*
X101132309Y-67725093D02*
X101132309Y-67606045D01*
X101132309Y-67606045D02*
X101108500Y-67558426D01*
X101108500Y-67558426D02*
X101084690Y-67534617D01*
D12*
G36*
X116474110Y-51645491D02*
G01*
X116389760Y-51354986D01*
X116296996Y-51055365D01*
X116195816Y-50746627D01*
X116086222Y-50428773D01*
X116019818Y-50243049D01*
X115057013Y-47596434D01*
X113622330Y-47596434D01*
X113622330Y-53130000D01*
X114654012Y-53130000D01*
X114654012Y-50326580D01*
X114650990Y-50005737D01*
X114643386Y-49704713D01*
X114631154Y-49384755D01*
X114614294Y-49045864D01*
X114605652Y-48894829D01*
X114642288Y-48894829D01*
X114729306Y-49178807D01*
X114807885Y-49425324D01*
X114904972Y-49716217D01*
X115005722Y-50002714D01*
X116153175Y-53130000D01*
X116812630Y-53130000D01*
X117960083Y-50002714D01*
X118060833Y-49716217D01*
X118157920Y-49425324D01*
X118246946Y-49145422D01*
X118323517Y-48894829D01*
X118361618Y-48894829D01*
X118342204Y-49224594D01*
X118327558Y-49544541D01*
X118317681Y-49854671D01*
X118312571Y-50154984D01*
X118311793Y-50322184D01*
X118311793Y-53130000D01*
X119343475Y-53130000D01*
X119343475Y-47596434D01*
X117917585Y-47596434D01*
X116954780Y-50231325D01*
X116850324Y-50523894D01*
X116748534Y-50825860D01*
X116649408Y-51137223D01*
X116552947Y-51457982D01*
X116499023Y-51645491D01*
X116474110Y-51645491D01*
G37*
G36*
X111135176Y-49006077D02*
G01*
X111427768Y-49026765D01*
X111730425Y-49070683D01*
X111793301Y-49082988D01*
X112078206Y-49153353D01*
X112367899Y-49252400D01*
X112367899Y-49941165D01*
X112303490Y-49923992D01*
X112014498Y-49854749D01*
X111726029Y-49800481D01*
X111428541Y-49765310D01*
X111131053Y-49753586D01*
X111014091Y-49757708D01*
X110719260Y-49819532D01*
X110698440Y-49827775D01*
X110445219Y-49995387D01*
X110292812Y-50247445D01*
X110245917Y-50543468D01*
X110245917Y-50709064D01*
X110331280Y-50687174D01*
X110626936Y-50631395D01*
X110795372Y-50610856D01*
X111101744Y-50597690D01*
X111145467Y-50598050D01*
X111458065Y-50623746D01*
X111743614Y-50690013D01*
X111997930Y-50793869D01*
X112243335Y-50956727D01*
X112408027Y-51125466D01*
X112568667Y-51386106D01*
X112655495Y-51655750D01*
X112684438Y-51957634D01*
X112668233Y-52184199D01*
X112586252Y-52482267D01*
X112501210Y-52648437D01*
X112313677Y-52882337D01*
X112174504Y-52995613D01*
X111900418Y-53135861D01*
X111681830Y-53195968D01*
X111380181Y-53223789D01*
X111291824Y-53221615D01*
X110999162Y-53178360D01*
X110955336Y-53166796D01*
X110676762Y-53053796D01*
X110667726Y-53048748D01*
X110418841Y-52882337D01*
X110225401Y-52705017D01*
X110209281Y-52705017D01*
X110169713Y-53130000D01*
X109308025Y-53130000D01*
X109314716Y-52922031D01*
X109324145Y-52620020D01*
X109325862Y-52546450D01*
X109330263Y-52239155D01*
X109331472Y-51932721D01*
X109331472Y-51435931D01*
X110245917Y-51435931D01*
X110245917Y-52057285D01*
X110399790Y-52202365D01*
X110604954Y-52335722D01*
X110855547Y-52435373D01*
X111142777Y-52473475D01*
X111374319Y-52439769D01*
X111567759Y-52340118D01*
X111698185Y-52171591D01*
X111746545Y-51931256D01*
X111716664Y-51730671D01*
X111534054Y-51491618D01*
X111520531Y-51482783D01*
X111244666Y-51375492D01*
X110952267Y-51348004D01*
X110869130Y-51349336D01*
X110575645Y-51375847D01*
X110541122Y-51380858D01*
X110245917Y-51435931D01*
X109331472Y-51435931D01*
X109331472Y-50415973D01*
X109354012Y-50141887D01*
X109434054Y-49856168D01*
X109542727Y-49643671D01*
X109741800Y-49409204D01*
X109992777Y-49230362D01*
X110266434Y-49111716D01*
X110410669Y-49069461D01*
X110709047Y-49018522D01*
X111019678Y-49003272D01*
X111135176Y-49006077D01*
G37*
G36*
X105363014Y-51538513D02*
G01*
X105432669Y-51250219D01*
X105468527Y-51198527D01*
X105698358Y-51012862D01*
X105752826Y-50986036D01*
X106034649Y-50883965D01*
X106157292Y-50852679D01*
X106446147Y-50788451D01*
X106627704Y-50751563D01*
X106927636Y-50679821D01*
X107214688Y-50596488D01*
X107251988Y-50584501D01*
X107531891Y-50469096D01*
X107776622Y-50316322D01*
X107990765Y-50108091D01*
X108137124Y-49881081D01*
X108237142Y-49584326D01*
X108269960Y-49270569D01*
X108270481Y-49221625D01*
X108249049Y-48909964D01*
X108177459Y-48608144D01*
X108118073Y-48461053D01*
X107962678Y-48198988D01*
X107765768Y-47979559D01*
X107701884Y-47924696D01*
X107453964Y-47759523D01*
X107171823Y-47635864D01*
X107084926Y-47608157D01*
X106783460Y-47539842D01*
X106479423Y-47507693D01*
X106290648Y-47502644D01*
X105987044Y-47512515D01*
X105682747Y-47542126D01*
X105405512Y-47586175D01*
X105113778Y-47648310D01*
X104828700Y-47729128D01*
X104637613Y-47798667D01*
X104637613Y-48628115D01*
X104928655Y-48536055D01*
X105236676Y-48457745D01*
X105461200Y-48414159D01*
X105772564Y-48370513D01*
X106068449Y-48349117D01*
X106199790Y-48346748D01*
X106515500Y-48368566D01*
X106819404Y-48450612D01*
X106969155Y-48531395D01*
X107171388Y-48760373D01*
X107238536Y-49058223D01*
X107238799Y-49080942D01*
X107179786Y-49373106D01*
X107149406Y-49426789D01*
X106934425Y-49635297D01*
X106906140Y-49652470D01*
X106636591Y-49769284D01*
X106551500Y-49794619D01*
X106263669Y-49863696D01*
X106125052Y-49892805D01*
X105820912Y-49962408D01*
X105529115Y-50040427D01*
X105448011Y-50064263D01*
X105160486Y-50171682D01*
X104889285Y-50323174D01*
X104873551Y-50333907D01*
X104649337Y-50533210D01*
X104477878Y-50785268D01*
X104372691Y-51080113D01*
X104333622Y-51390342D01*
X104331332Y-51496015D01*
X104354413Y-51813241D01*
X104431510Y-52118763D01*
X104495464Y-52266845D01*
X104664443Y-52529912D01*
X104886718Y-52749782D01*
X104960013Y-52804668D01*
X105226113Y-52959420D01*
X105510812Y-53070497D01*
X105694207Y-53121207D01*
X106001118Y-53179610D01*
X106296957Y-53211667D01*
X106608824Y-53223689D01*
X106640893Y-53223789D01*
X106948464Y-53213918D01*
X107252572Y-53184307D01*
X107526029Y-53140258D01*
X107830958Y-53067924D01*
X108115253Y-52967702D01*
X108248499Y-52904319D01*
X108248499Y-52098318D01*
X107945836Y-52197992D01*
X107648944Y-52274997D01*
X107454221Y-52313740D01*
X107159665Y-52353925D01*
X106858513Y-52375564D01*
X106654082Y-52379685D01*
X106358930Y-52364229D01*
X106185136Y-52340118D01*
X105889623Y-52259392D01*
X105770411Y-52205296D01*
X105534656Y-52022297D01*
X105474389Y-51944445D01*
X105371824Y-51668382D01*
X105363014Y-51538513D01*
G37*
G36*
X101795015Y-49005379D02*
G01*
X102093585Y-49045931D01*
X102383740Y-49138094D01*
X102483653Y-49183518D01*
X102744756Y-49345726D01*
X102962595Y-49542561D01*
X103082946Y-49686175D01*
X103239429Y-49934570D01*
X103367062Y-50222533D01*
X103385162Y-50274356D01*
X103463842Y-50578417D01*
X103504714Y-50882785D01*
X103516538Y-51179476D01*
X103515954Y-51248255D01*
X103498875Y-51541752D01*
X103452164Y-51837133D01*
X103367062Y-52124696D01*
X103317810Y-52242970D01*
X103165979Y-52517330D01*
X102964061Y-52759239D01*
X102881443Y-52832426D01*
X102618897Y-53002327D01*
X102333914Y-53113879D01*
X102142581Y-53161965D01*
X101844246Y-53208333D01*
X101532309Y-53223789D01*
X101323848Y-53219484D01*
X101018025Y-53196884D01*
X100720446Y-53154912D01*
X100435668Y-53097741D01*
X100138660Y-53009832D01*
X100138660Y-52285896D01*
X100178376Y-52297088D01*
X100474058Y-52370439D01*
X100765875Y-52425115D01*
X101050287Y-52459826D01*
X101359385Y-52473475D01*
X101548773Y-52464819D01*
X101841521Y-52411926D01*
X101975301Y-52366445D01*
X102231332Y-52217020D01*
X102338568Y-52115640D01*
X102500976Y-51868241D01*
X102579115Y-51645911D01*
X102624075Y-51348004D01*
X100046336Y-51348004D01*
X100044118Y-51302115D01*
X100034612Y-51003621D01*
X100044465Y-50721176D01*
X100059663Y-50597690D01*
X100984228Y-50597690D01*
X102578646Y-50597690D01*
X102572853Y-50554436D01*
X102495115Y-50270893D01*
X102487066Y-50251813D01*
X102325122Y-50002714D01*
X102318398Y-49995527D01*
X102073063Y-49820997D01*
X102035763Y-49805198D01*
X101737473Y-49753586D01*
X101702715Y-49754179D01*
X101409211Y-49820997D01*
X101174738Y-50002714D01*
X101168920Y-50009897D01*
X101032588Y-50270893D01*
X101023946Y-50299662D01*
X100984228Y-50597690D01*
X100059663Y-50597690D01*
X100083270Y-50405875D01*
X100159176Y-50099434D01*
X100200535Y-49982920D01*
X100330841Y-49712468D01*
X100507955Y-49473684D01*
X100536131Y-49443785D01*
X100768614Y-49252024D01*
X101038450Y-49117578D01*
X101096380Y-49097150D01*
X101401099Y-49025151D01*
X101708164Y-49003272D01*
X101795015Y-49005379D01*
G37*
D10*
X105096119Y-46936811D02*
X105072309Y-46984430D01*
X105072309Y-46984430D02*
X105072309Y-47055859D01*
X105072309Y-47055859D02*
X105096119Y-47127287D01*
X105096119Y-47127287D02*
X105143738Y-47174906D01*
X105143738Y-47174906D02*
X105191357Y-47198716D01*
X105191357Y-47198716D02*
X105286595Y-47222525D01*
X105286595Y-47222525D02*
X105358023Y-47222525D01*
X105358023Y-47222525D02*
X105453261Y-47198716D01*
X105453261Y-47198716D02*
X105500880Y-47174906D01*
X105500880Y-47174906D02*
X105548500Y-47127287D01*
X105548500Y-47127287D02*
X105572309Y-47055859D01*
X105572309Y-47055859D02*
X105572309Y-47008240D01*
X105572309Y-47008240D02*
X105548500Y-46936811D01*
X105548500Y-46936811D02*
X105524690Y-46913002D01*
X105524690Y-46913002D02*
X105358023Y-46913002D01*
X105358023Y-46913002D02*
X105358023Y-47008240D01*
X105572309Y-46698716D02*
X105072309Y-46698716D01*
X105072309Y-46698716D02*
X105072309Y-46508240D01*
X105072309Y-46508240D02*
X105096119Y-46460621D01*
X105096119Y-46460621D02*
X105119928Y-46436811D01*
X105119928Y-46436811D02*
X105167547Y-46413002D01*
X105167547Y-46413002D02*
X105238976Y-46413002D01*
X105238976Y-46413002D02*
X105286595Y-46436811D01*
X105286595Y-46436811D02*
X105310404Y-46460621D01*
X105310404Y-46460621D02*
X105334214Y-46508240D01*
X105334214Y-46508240D02*
X105334214Y-46698716D01*
X105572309Y-46198716D02*
X105072309Y-46198716D01*
X105072309Y-45865383D02*
X105072309Y-45770145D01*
X105072309Y-45770145D02*
X105096119Y-45722526D01*
X105096119Y-45722526D02*
X105143738Y-45674907D01*
X105143738Y-45674907D02*
X105238976Y-45651097D01*
X105238976Y-45651097D02*
X105405642Y-45651097D01*
X105405642Y-45651097D02*
X105500880Y-45674907D01*
X105500880Y-45674907D02*
X105548500Y-45722526D01*
X105548500Y-45722526D02*
X105572309Y-45770145D01*
X105572309Y-45770145D02*
X105572309Y-45865383D01*
X105572309Y-45865383D02*
X105548500Y-45913002D01*
X105548500Y-45913002D02*
X105500880Y-45960621D01*
X105500880Y-45960621D02*
X105405642Y-45984430D01*
X105405642Y-45984430D02*
X105238976Y-45984430D01*
X105238976Y-45984430D02*
X105143738Y-45960621D01*
X105143738Y-45960621D02*
X105096119Y-45913002D01*
X105096119Y-45913002D02*
X105072309Y-45865383D01*
X105072309Y-45341573D02*
X105072309Y-45293954D01*
X105072309Y-45293954D02*
X105096119Y-45246335D01*
X105096119Y-45246335D02*
X105119928Y-45222525D01*
X105119928Y-45222525D02*
X105167547Y-45198716D01*
X105167547Y-45198716D02*
X105262785Y-45174906D01*
X105262785Y-45174906D02*
X105381833Y-45174906D01*
X105381833Y-45174906D02*
X105477071Y-45198716D01*
X105477071Y-45198716D02*
X105524690Y-45222525D01*
X105524690Y-45222525D02*
X105548500Y-45246335D01*
X105548500Y-45246335D02*
X105572309Y-45293954D01*
X105572309Y-45293954D02*
X105572309Y-45341573D01*
X105572309Y-45341573D02*
X105548500Y-45389192D01*
X105548500Y-45389192D02*
X105524690Y-45413001D01*
X105524690Y-45413001D02*
X105477071Y-45436811D01*
X105477071Y-45436811D02*
X105381833Y-45460620D01*
X105381833Y-45460620D02*
X105262785Y-45460620D01*
X105262785Y-45460620D02*
X105167547Y-45436811D01*
X105167547Y-45436811D02*
X105119928Y-45413001D01*
X105119928Y-45413001D02*
X105096119Y-45389192D01*
X105096119Y-45389192D02*
X105072309Y-45341573D01*
X105119928Y-44984430D02*
X105096119Y-44960621D01*
X105096119Y-44960621D02*
X105072309Y-44913002D01*
X105072309Y-44913002D02*
X105072309Y-44793954D01*
X105072309Y-44793954D02*
X105096119Y-44746335D01*
X105096119Y-44746335D02*
X105119928Y-44722526D01*
X105119928Y-44722526D02*
X105167547Y-44698716D01*
X105167547Y-44698716D02*
X105215166Y-44698716D01*
X105215166Y-44698716D02*
X105286595Y-44722526D01*
X105286595Y-44722526D02*
X105572309Y-45008240D01*
X105572309Y-45008240D02*
X105572309Y-44698716D01*
X105381833Y-44484431D02*
X105381833Y-44103479D01*
X105572309Y-43865383D02*
X105072309Y-43865383D01*
X105072309Y-43865383D02*
X105429452Y-43698716D01*
X105429452Y-43698716D02*
X105072309Y-43532050D01*
X105072309Y-43532050D02*
X105572309Y-43532050D01*
X105572309Y-43222525D02*
X105548500Y-43270144D01*
X105548500Y-43270144D02*
X105524690Y-43293954D01*
X105524690Y-43293954D02*
X105477071Y-43317763D01*
X105477071Y-43317763D02*
X105334214Y-43317763D01*
X105334214Y-43317763D02*
X105286595Y-43293954D01*
X105286595Y-43293954D02*
X105262785Y-43270144D01*
X105262785Y-43270144D02*
X105238976Y-43222525D01*
X105238976Y-43222525D02*
X105238976Y-43151097D01*
X105238976Y-43151097D02*
X105262785Y-43103478D01*
X105262785Y-43103478D02*
X105286595Y-43079668D01*
X105286595Y-43079668D02*
X105334214Y-43055859D01*
X105334214Y-43055859D02*
X105477071Y-43055859D01*
X105477071Y-43055859D02*
X105524690Y-43079668D01*
X105524690Y-43079668D02*
X105548500Y-43103478D01*
X105548500Y-43103478D02*
X105572309Y-43151097D01*
X105572309Y-43151097D02*
X105572309Y-43222525D01*
X105238976Y-42913001D02*
X105238976Y-42722525D01*
X105072309Y-42841573D02*
X105500880Y-42841573D01*
X105500880Y-42841573D02*
X105548500Y-42817763D01*
X105548500Y-42817763D02*
X105572309Y-42770144D01*
X105572309Y-42770144D02*
X105572309Y-42722525D01*
X105572309Y-42555859D02*
X105238976Y-42555859D01*
X105072309Y-42555859D02*
X105096119Y-42579668D01*
X105096119Y-42579668D02*
X105119928Y-42555859D01*
X105119928Y-42555859D02*
X105096119Y-42532049D01*
X105096119Y-42532049D02*
X105072309Y-42555859D01*
X105072309Y-42555859D02*
X105119928Y-42555859D01*
X105572309Y-42246335D02*
X105548500Y-42293954D01*
X105548500Y-42293954D02*
X105524690Y-42317764D01*
X105524690Y-42317764D02*
X105477071Y-42341573D01*
X105477071Y-42341573D02*
X105334214Y-42341573D01*
X105334214Y-42341573D02*
X105286595Y-42317764D01*
X105286595Y-42317764D02*
X105262785Y-42293954D01*
X105262785Y-42293954D02*
X105238976Y-42246335D01*
X105238976Y-42246335D02*
X105238976Y-42174907D01*
X105238976Y-42174907D02*
X105262785Y-42127288D01*
X105262785Y-42127288D02*
X105286595Y-42103478D01*
X105286595Y-42103478D02*
X105334214Y-42079669D01*
X105334214Y-42079669D02*
X105477071Y-42079669D01*
X105477071Y-42079669D02*
X105524690Y-42103478D01*
X105524690Y-42103478D02*
X105548500Y-42127288D01*
X105548500Y-42127288D02*
X105572309Y-42174907D01*
X105572309Y-42174907D02*
X105572309Y-42246335D01*
X105238976Y-41865383D02*
X105572309Y-41865383D01*
X105286595Y-41865383D02*
X105262785Y-41841573D01*
X105262785Y-41841573D02*
X105238976Y-41793954D01*
X105238976Y-41793954D02*
X105238976Y-41722526D01*
X105238976Y-41722526D02*
X105262785Y-41674907D01*
X105262785Y-41674907D02*
X105310404Y-41651097D01*
X105310404Y-41651097D02*
X105572309Y-41651097D01*
X105238976Y-41413002D02*
X105381833Y-41032050D01*
X105381833Y-41032050D02*
X105524690Y-41413002D01*
X123143188Y-74566119D02*
X123095569Y-74542309D01*
X123095569Y-74542309D02*
X123024140Y-74542309D01*
X123024140Y-74542309D02*
X122952712Y-74566119D01*
X122952712Y-74566119D02*
X122905093Y-74613738D01*
X122905093Y-74613738D02*
X122881283Y-74661357D01*
X122881283Y-74661357D02*
X122857474Y-74756595D01*
X122857474Y-74756595D02*
X122857474Y-74828023D01*
X122857474Y-74828023D02*
X122881283Y-74923261D01*
X122881283Y-74923261D02*
X122905093Y-74970880D01*
X122905093Y-74970880D02*
X122952712Y-75018500D01*
X122952712Y-75018500D02*
X123024140Y-75042309D01*
X123024140Y-75042309D02*
X123071759Y-75042309D01*
X123071759Y-75042309D02*
X123143188Y-75018500D01*
X123143188Y-75018500D02*
X123166997Y-74994690D01*
X123166997Y-74994690D02*
X123166997Y-74828023D01*
X123166997Y-74828023D02*
X123071759Y-74828023D01*
X123381283Y-75042309D02*
X123381283Y-74542309D01*
X123381283Y-74542309D02*
X123666997Y-75042309D01*
X123666997Y-75042309D02*
X123666997Y-74542309D01*
X123905093Y-75042309D02*
X123905093Y-74542309D01*
X123905093Y-74542309D02*
X124024141Y-74542309D01*
X124024141Y-74542309D02*
X124095569Y-74566119D01*
X124095569Y-74566119D02*
X124143188Y-74613738D01*
X124143188Y-74613738D02*
X124166998Y-74661357D01*
X124166998Y-74661357D02*
X124190807Y-74756595D01*
X124190807Y-74756595D02*
X124190807Y-74828023D01*
X124190807Y-74828023D02*
X124166998Y-74923261D01*
X124166998Y-74923261D02*
X124143188Y-74970880D01*
X124143188Y-74970880D02*
X124095569Y-75018500D01*
X124095569Y-75018500D02*
X124024141Y-75042309D01*
X124024141Y-75042309D02*
X123905093Y-75042309D01*
X107048976Y-62482236D02*
X107191833Y-62101283D01*
X107191833Y-62101283D02*
X107334690Y-62482236D01*
X106906119Y-62982236D02*
X106882309Y-62934617D01*
X106882309Y-62934617D02*
X106882309Y-62863188D01*
X106882309Y-62863188D02*
X106906119Y-62791760D01*
X106906119Y-62791760D02*
X106953738Y-62744141D01*
X106953738Y-62744141D02*
X107001357Y-62720331D01*
X107001357Y-62720331D02*
X107096595Y-62696522D01*
X107096595Y-62696522D02*
X107168023Y-62696522D01*
X107168023Y-62696522D02*
X107263261Y-62720331D01*
X107263261Y-62720331D02*
X107310880Y-62744141D01*
X107310880Y-62744141D02*
X107358500Y-62791760D01*
X107358500Y-62791760D02*
X107382309Y-62863188D01*
X107382309Y-62863188D02*
X107382309Y-62910807D01*
X107382309Y-62910807D02*
X107358500Y-62982236D01*
X107358500Y-62982236D02*
X107334690Y-63006045D01*
X107334690Y-63006045D02*
X107168023Y-63006045D01*
X107168023Y-63006045D02*
X107168023Y-62910807D01*
X107382309Y-63220331D02*
X106882309Y-63220331D01*
X106882309Y-63220331D02*
X106882309Y-63410807D01*
X106882309Y-63410807D02*
X106906119Y-63458426D01*
X106906119Y-63458426D02*
X106929928Y-63482236D01*
X106929928Y-63482236D02*
X106977547Y-63506045D01*
X106977547Y-63506045D02*
X107048976Y-63506045D01*
X107048976Y-63506045D02*
X107096595Y-63482236D01*
X107096595Y-63482236D02*
X107120404Y-63458426D01*
X107120404Y-63458426D02*
X107144214Y-63410807D01*
X107144214Y-63410807D02*
X107144214Y-63220331D01*
X107382309Y-63720331D02*
X106882309Y-63720331D01*
X106882309Y-64053664D02*
X106882309Y-64148902D01*
X106882309Y-64148902D02*
X106906119Y-64196521D01*
X106906119Y-64196521D02*
X106953738Y-64244140D01*
X106953738Y-64244140D02*
X107048976Y-64267950D01*
X107048976Y-64267950D02*
X107215642Y-64267950D01*
X107215642Y-64267950D02*
X107310880Y-64244140D01*
X107310880Y-64244140D02*
X107358500Y-64196521D01*
X107358500Y-64196521D02*
X107382309Y-64148902D01*
X107382309Y-64148902D02*
X107382309Y-64053664D01*
X107382309Y-64053664D02*
X107358500Y-64006045D01*
X107358500Y-64006045D02*
X107310880Y-63958426D01*
X107310880Y-63958426D02*
X107215642Y-63934617D01*
X107215642Y-63934617D02*
X107048976Y-63934617D01*
X107048976Y-63934617D02*
X106953738Y-63958426D01*
X106953738Y-63958426D02*
X106906119Y-64006045D01*
X106906119Y-64006045D02*
X106882309Y-64053664D01*
X107382309Y-64744141D02*
X107382309Y-64458427D01*
X107382309Y-64601284D02*
X106882309Y-64601284D01*
X106882309Y-64601284D02*
X106953738Y-64553665D01*
X106953738Y-64553665D02*
X107001357Y-64506046D01*
X107001357Y-64506046D02*
X107025166Y-64458427D01*
X106882309Y-64910807D02*
X106882309Y-65244140D01*
X106882309Y-65244140D02*
X107382309Y-65029855D01*
X107901023Y-56917764D02*
X107758166Y-57298716D01*
X107758166Y-57298716D02*
X107615309Y-56917764D01*
X108043880Y-56417763D02*
X108067690Y-56465382D01*
X108067690Y-56465382D02*
X108067690Y-56536811D01*
X108067690Y-56536811D02*
X108043880Y-56608239D01*
X108043880Y-56608239D02*
X107996261Y-56655858D01*
X107996261Y-56655858D02*
X107948642Y-56679668D01*
X107948642Y-56679668D02*
X107853404Y-56703477D01*
X107853404Y-56703477D02*
X107781976Y-56703477D01*
X107781976Y-56703477D02*
X107686738Y-56679668D01*
X107686738Y-56679668D02*
X107639119Y-56655858D01*
X107639119Y-56655858D02*
X107591500Y-56608239D01*
X107591500Y-56608239D02*
X107567690Y-56536811D01*
X107567690Y-56536811D02*
X107567690Y-56489192D01*
X107567690Y-56489192D02*
X107591500Y-56417763D01*
X107591500Y-56417763D02*
X107615309Y-56393954D01*
X107615309Y-56393954D02*
X107781976Y-56393954D01*
X107781976Y-56393954D02*
X107781976Y-56489192D01*
X107567690Y-56179668D02*
X108067690Y-56179668D01*
X108067690Y-56179668D02*
X108067690Y-55989192D01*
X108067690Y-55989192D02*
X108043880Y-55941573D01*
X108043880Y-55941573D02*
X108020071Y-55917763D01*
X108020071Y-55917763D02*
X107972452Y-55893954D01*
X107972452Y-55893954D02*
X107901023Y-55893954D01*
X107901023Y-55893954D02*
X107853404Y-55917763D01*
X107853404Y-55917763D02*
X107829595Y-55941573D01*
X107829595Y-55941573D02*
X107805785Y-55989192D01*
X107805785Y-55989192D02*
X107805785Y-56179668D01*
X107567690Y-55679668D02*
X108067690Y-55679668D01*
X108067690Y-55346335D02*
X108067690Y-55251097D01*
X108067690Y-55251097D02*
X108043880Y-55203478D01*
X108043880Y-55203478D02*
X107996261Y-55155859D01*
X107996261Y-55155859D02*
X107901023Y-55132049D01*
X107901023Y-55132049D02*
X107734357Y-55132049D01*
X107734357Y-55132049D02*
X107639119Y-55155859D01*
X107639119Y-55155859D02*
X107591500Y-55203478D01*
X107591500Y-55203478D02*
X107567690Y-55251097D01*
X107567690Y-55251097D02*
X107567690Y-55346335D01*
X107567690Y-55346335D02*
X107591500Y-55393954D01*
X107591500Y-55393954D02*
X107639119Y-55441573D01*
X107639119Y-55441573D02*
X107734357Y-55465382D01*
X107734357Y-55465382D02*
X107901023Y-55465382D01*
X107901023Y-55465382D02*
X107996261Y-55441573D01*
X107996261Y-55441573D02*
X108043880Y-55393954D01*
X108043880Y-55393954D02*
X108067690Y-55346335D01*
X107567690Y-54655858D02*
X107567690Y-54941572D01*
X107567690Y-54798715D02*
X108067690Y-54798715D01*
X108067690Y-54798715D02*
X107996261Y-54846334D01*
X107996261Y-54846334D02*
X107948642Y-54893953D01*
X107948642Y-54893953D02*
X107924833Y-54941572D01*
X108067690Y-54227287D02*
X108067690Y-54322525D01*
X108067690Y-54322525D02*
X108043880Y-54370144D01*
X108043880Y-54370144D02*
X108020071Y-54393954D01*
X108020071Y-54393954D02*
X107948642Y-54441573D01*
X107948642Y-54441573D02*
X107853404Y-54465382D01*
X107853404Y-54465382D02*
X107662928Y-54465382D01*
X107662928Y-54465382D02*
X107615309Y-54441573D01*
X107615309Y-54441573D02*
X107591500Y-54417763D01*
X107591500Y-54417763D02*
X107567690Y-54370144D01*
X107567690Y-54370144D02*
X107567690Y-54274906D01*
X107567690Y-54274906D02*
X107591500Y-54227287D01*
X107591500Y-54227287D02*
X107615309Y-54203478D01*
X107615309Y-54203478D02*
X107662928Y-54179668D01*
X107662928Y-54179668D02*
X107781976Y-54179668D01*
X107781976Y-54179668D02*
X107829595Y-54203478D01*
X107829595Y-54203478D02*
X107853404Y-54227287D01*
X107853404Y-54227287D02*
X107877214Y-54274906D01*
X107877214Y-54274906D02*
X107877214Y-54370144D01*
X107877214Y-54370144D02*
X107853404Y-54417763D01*
X107853404Y-54417763D02*
X107829595Y-54441573D01*
X107829595Y-54441573D02*
X107781976Y-54465382D01*
X110256119Y-46236811D02*
X110232309Y-46284430D01*
X110232309Y-46284430D02*
X110232309Y-46355859D01*
X110232309Y-46355859D02*
X110256119Y-46427287D01*
X110256119Y-46427287D02*
X110303738Y-46474906D01*
X110303738Y-46474906D02*
X110351357Y-46498716D01*
X110351357Y-46498716D02*
X110446595Y-46522525D01*
X110446595Y-46522525D02*
X110518023Y-46522525D01*
X110518023Y-46522525D02*
X110613261Y-46498716D01*
X110613261Y-46498716D02*
X110660880Y-46474906D01*
X110660880Y-46474906D02*
X110708500Y-46427287D01*
X110708500Y-46427287D02*
X110732309Y-46355859D01*
X110732309Y-46355859D02*
X110732309Y-46308240D01*
X110732309Y-46308240D02*
X110708500Y-46236811D01*
X110708500Y-46236811D02*
X110684690Y-46213002D01*
X110684690Y-46213002D02*
X110518023Y-46213002D01*
X110518023Y-46213002D02*
X110518023Y-46308240D01*
X110732309Y-45998716D02*
X110232309Y-45998716D01*
X110232309Y-45998716D02*
X110232309Y-45808240D01*
X110232309Y-45808240D02*
X110256119Y-45760621D01*
X110256119Y-45760621D02*
X110279928Y-45736811D01*
X110279928Y-45736811D02*
X110327547Y-45713002D01*
X110327547Y-45713002D02*
X110398976Y-45713002D01*
X110398976Y-45713002D02*
X110446595Y-45736811D01*
X110446595Y-45736811D02*
X110470404Y-45760621D01*
X110470404Y-45760621D02*
X110494214Y-45808240D01*
X110494214Y-45808240D02*
X110494214Y-45998716D01*
X110732309Y-45498716D02*
X110232309Y-45498716D01*
X110232309Y-45165383D02*
X110232309Y-45070145D01*
X110232309Y-45070145D02*
X110256119Y-45022526D01*
X110256119Y-45022526D02*
X110303738Y-44974907D01*
X110303738Y-44974907D02*
X110398976Y-44951097D01*
X110398976Y-44951097D02*
X110565642Y-44951097D01*
X110565642Y-44951097D02*
X110660880Y-44974907D01*
X110660880Y-44974907D02*
X110708500Y-45022526D01*
X110708500Y-45022526D02*
X110732309Y-45070145D01*
X110732309Y-45070145D02*
X110732309Y-45165383D01*
X110732309Y-45165383D02*
X110708500Y-45213002D01*
X110708500Y-45213002D02*
X110660880Y-45260621D01*
X110660880Y-45260621D02*
X110565642Y-45284430D01*
X110565642Y-45284430D02*
X110398976Y-45284430D01*
X110398976Y-45284430D02*
X110303738Y-45260621D01*
X110303738Y-45260621D02*
X110256119Y-45213002D01*
X110256119Y-45213002D02*
X110232309Y-45165383D01*
X110398976Y-44522525D02*
X110732309Y-44522525D01*
X110208500Y-44641573D02*
X110565642Y-44760620D01*
X110565642Y-44760620D02*
X110565642Y-44451097D01*
X110232309Y-44165383D02*
X110232309Y-44117764D01*
X110232309Y-44117764D02*
X110256119Y-44070145D01*
X110256119Y-44070145D02*
X110279928Y-44046335D01*
X110279928Y-44046335D02*
X110327547Y-44022526D01*
X110327547Y-44022526D02*
X110422785Y-43998716D01*
X110422785Y-43998716D02*
X110541833Y-43998716D01*
X110541833Y-43998716D02*
X110637071Y-44022526D01*
X110637071Y-44022526D02*
X110684690Y-44046335D01*
X110684690Y-44046335D02*
X110708500Y-44070145D01*
X110708500Y-44070145D02*
X110732309Y-44117764D01*
X110732309Y-44117764D02*
X110732309Y-44165383D01*
X110732309Y-44165383D02*
X110708500Y-44213002D01*
X110708500Y-44213002D02*
X110684690Y-44236811D01*
X110684690Y-44236811D02*
X110637071Y-44260621D01*
X110637071Y-44260621D02*
X110541833Y-44284430D01*
X110541833Y-44284430D02*
X110422785Y-44284430D01*
X110422785Y-44284430D02*
X110327547Y-44260621D01*
X110327547Y-44260621D02*
X110279928Y-44236811D01*
X110279928Y-44236811D02*
X110256119Y-44213002D01*
X110256119Y-44213002D02*
X110232309Y-44165383D01*
X110541833Y-43784431D02*
X110541833Y-43403479D01*
X110732309Y-43165383D02*
X110232309Y-43165383D01*
X110232309Y-43165383D02*
X110589452Y-42998716D01*
X110589452Y-42998716D02*
X110232309Y-42832050D01*
X110232309Y-42832050D02*
X110732309Y-42832050D01*
X110732309Y-42593954D02*
X110232309Y-42593954D01*
X110708500Y-42379668D02*
X110732309Y-42308240D01*
X110732309Y-42308240D02*
X110732309Y-42189192D01*
X110732309Y-42189192D02*
X110708500Y-42141573D01*
X110708500Y-42141573D02*
X110684690Y-42117764D01*
X110684690Y-42117764D02*
X110637071Y-42093954D01*
X110637071Y-42093954D02*
X110589452Y-42093954D01*
X110589452Y-42093954D02*
X110541833Y-42117764D01*
X110541833Y-42117764D02*
X110518023Y-42141573D01*
X110518023Y-42141573D02*
X110494214Y-42189192D01*
X110494214Y-42189192D02*
X110470404Y-42284430D01*
X110470404Y-42284430D02*
X110446595Y-42332049D01*
X110446595Y-42332049D02*
X110422785Y-42355859D01*
X110422785Y-42355859D02*
X110375166Y-42379668D01*
X110375166Y-42379668D02*
X110327547Y-42379668D01*
X110327547Y-42379668D02*
X110279928Y-42355859D01*
X110279928Y-42355859D02*
X110256119Y-42332049D01*
X110256119Y-42332049D02*
X110232309Y-42284430D01*
X110232309Y-42284430D02*
X110232309Y-42165383D01*
X110232309Y-42165383D02*
X110256119Y-42093954D01*
X110232309Y-41784431D02*
X110232309Y-41689193D01*
X110232309Y-41689193D02*
X110256119Y-41641574D01*
X110256119Y-41641574D02*
X110303738Y-41593955D01*
X110303738Y-41593955D02*
X110398976Y-41570145D01*
X110398976Y-41570145D02*
X110565642Y-41570145D01*
X110565642Y-41570145D02*
X110660880Y-41593955D01*
X110660880Y-41593955D02*
X110708500Y-41641574D01*
X110708500Y-41641574D02*
X110732309Y-41689193D01*
X110732309Y-41689193D02*
X110732309Y-41784431D01*
X110732309Y-41784431D02*
X110708500Y-41832050D01*
X110708500Y-41832050D02*
X110660880Y-41879669D01*
X110660880Y-41879669D02*
X110565642Y-41903478D01*
X110565642Y-41903478D02*
X110398976Y-41903478D01*
X110398976Y-41903478D02*
X110303738Y-41879669D01*
X110303738Y-41879669D02*
X110256119Y-41832050D01*
X110256119Y-41832050D02*
X110232309Y-41784431D01*
X110398976Y-41355859D02*
X110541833Y-40974907D01*
X110541833Y-40974907D02*
X110684690Y-41355859D01*
X98198976Y-65032236D02*
X98341833Y-64651283D01*
X98341833Y-64651283D02*
X98484690Y-65032236D01*
X98056119Y-65532236D02*
X98032309Y-65484617D01*
X98032309Y-65484617D02*
X98032309Y-65413188D01*
X98032309Y-65413188D02*
X98056119Y-65341760D01*
X98056119Y-65341760D02*
X98103738Y-65294141D01*
X98103738Y-65294141D02*
X98151357Y-65270331D01*
X98151357Y-65270331D02*
X98246595Y-65246522D01*
X98246595Y-65246522D02*
X98318023Y-65246522D01*
X98318023Y-65246522D02*
X98413261Y-65270331D01*
X98413261Y-65270331D02*
X98460880Y-65294141D01*
X98460880Y-65294141D02*
X98508500Y-65341760D01*
X98508500Y-65341760D02*
X98532309Y-65413188D01*
X98532309Y-65413188D02*
X98532309Y-65460807D01*
X98532309Y-65460807D02*
X98508500Y-65532236D01*
X98508500Y-65532236D02*
X98484690Y-65556045D01*
X98484690Y-65556045D02*
X98318023Y-65556045D01*
X98318023Y-65556045D02*
X98318023Y-65460807D01*
X98532309Y-65770331D02*
X98032309Y-65770331D01*
X98032309Y-65770331D02*
X98032309Y-65960807D01*
X98032309Y-65960807D02*
X98056119Y-66008426D01*
X98056119Y-66008426D02*
X98079928Y-66032236D01*
X98079928Y-66032236D02*
X98127547Y-66056045D01*
X98127547Y-66056045D02*
X98198976Y-66056045D01*
X98198976Y-66056045D02*
X98246595Y-66032236D01*
X98246595Y-66032236D02*
X98270404Y-66008426D01*
X98270404Y-66008426D02*
X98294214Y-65960807D01*
X98294214Y-65960807D02*
X98294214Y-65770331D01*
X98532309Y-66270331D02*
X98032309Y-66270331D01*
X98032309Y-66603664D02*
X98032309Y-66698902D01*
X98032309Y-66698902D02*
X98056119Y-66746521D01*
X98056119Y-66746521D02*
X98103738Y-66794140D01*
X98103738Y-66794140D02*
X98198976Y-66817950D01*
X98198976Y-66817950D02*
X98365642Y-66817950D01*
X98365642Y-66817950D02*
X98460880Y-66794140D01*
X98460880Y-66794140D02*
X98508500Y-66746521D01*
X98508500Y-66746521D02*
X98532309Y-66698902D01*
X98532309Y-66698902D02*
X98532309Y-66603664D01*
X98532309Y-66603664D02*
X98508500Y-66556045D01*
X98508500Y-66556045D02*
X98460880Y-66508426D01*
X98460880Y-66508426D02*
X98365642Y-66484617D01*
X98365642Y-66484617D02*
X98198976Y-66484617D01*
X98198976Y-66484617D02*
X98103738Y-66508426D01*
X98103738Y-66508426D02*
X98056119Y-66556045D01*
X98056119Y-66556045D02*
X98032309Y-66603664D01*
X98032309Y-67127474D02*
X98032309Y-67175093D01*
X98032309Y-67175093D02*
X98056119Y-67222712D01*
X98056119Y-67222712D02*
X98079928Y-67246522D01*
X98079928Y-67246522D02*
X98127547Y-67270331D01*
X98127547Y-67270331D02*
X98222785Y-67294141D01*
X98222785Y-67294141D02*
X98341833Y-67294141D01*
X98341833Y-67294141D02*
X98437071Y-67270331D01*
X98437071Y-67270331D02*
X98484690Y-67246522D01*
X98484690Y-67246522D02*
X98508500Y-67222712D01*
X98508500Y-67222712D02*
X98532309Y-67175093D01*
X98532309Y-67175093D02*
X98532309Y-67127474D01*
X98532309Y-67127474D02*
X98508500Y-67079855D01*
X98508500Y-67079855D02*
X98484690Y-67056046D01*
X98484690Y-67056046D02*
X98437071Y-67032236D01*
X98437071Y-67032236D02*
X98341833Y-67008427D01*
X98341833Y-67008427D02*
X98222785Y-67008427D01*
X98222785Y-67008427D02*
X98127547Y-67032236D01*
X98127547Y-67032236D02*
X98079928Y-67056046D01*
X98079928Y-67056046D02*
X98056119Y-67079855D01*
X98056119Y-67079855D02*
X98032309Y-67127474D01*
X98198976Y-67722712D02*
X98532309Y-67722712D01*
X98008500Y-67603664D02*
X98365642Y-67484617D01*
X98365642Y-67484617D02*
X98365642Y-67794140D01*
X105201023Y-56867764D02*
X105058166Y-57248716D01*
X105058166Y-57248716D02*
X104915309Y-56867764D01*
X105343880Y-56367763D02*
X105367690Y-56415382D01*
X105367690Y-56415382D02*
X105367690Y-56486811D01*
X105367690Y-56486811D02*
X105343880Y-56558239D01*
X105343880Y-56558239D02*
X105296261Y-56605858D01*
X105296261Y-56605858D02*
X105248642Y-56629668D01*
X105248642Y-56629668D02*
X105153404Y-56653477D01*
X105153404Y-56653477D02*
X105081976Y-56653477D01*
X105081976Y-56653477D02*
X104986738Y-56629668D01*
X104986738Y-56629668D02*
X104939119Y-56605858D01*
X104939119Y-56605858D02*
X104891500Y-56558239D01*
X104891500Y-56558239D02*
X104867690Y-56486811D01*
X104867690Y-56486811D02*
X104867690Y-56439192D01*
X104867690Y-56439192D02*
X104891500Y-56367763D01*
X104891500Y-56367763D02*
X104915309Y-56343954D01*
X104915309Y-56343954D02*
X105081976Y-56343954D01*
X105081976Y-56343954D02*
X105081976Y-56439192D01*
X104867690Y-56129668D02*
X105367690Y-56129668D01*
X105367690Y-56129668D02*
X105367690Y-55939192D01*
X105367690Y-55939192D02*
X105343880Y-55891573D01*
X105343880Y-55891573D02*
X105320071Y-55867763D01*
X105320071Y-55867763D02*
X105272452Y-55843954D01*
X105272452Y-55843954D02*
X105201023Y-55843954D01*
X105201023Y-55843954D02*
X105153404Y-55867763D01*
X105153404Y-55867763D02*
X105129595Y-55891573D01*
X105129595Y-55891573D02*
X105105785Y-55939192D01*
X105105785Y-55939192D02*
X105105785Y-56129668D01*
X104867690Y-55629668D02*
X105367690Y-55629668D01*
X105367690Y-55296335D02*
X105367690Y-55201097D01*
X105367690Y-55201097D02*
X105343880Y-55153478D01*
X105343880Y-55153478D02*
X105296261Y-55105859D01*
X105296261Y-55105859D02*
X105201023Y-55082049D01*
X105201023Y-55082049D02*
X105034357Y-55082049D01*
X105034357Y-55082049D02*
X104939119Y-55105859D01*
X104939119Y-55105859D02*
X104891500Y-55153478D01*
X104891500Y-55153478D02*
X104867690Y-55201097D01*
X104867690Y-55201097D02*
X104867690Y-55296335D01*
X104867690Y-55296335D02*
X104891500Y-55343954D01*
X104891500Y-55343954D02*
X104939119Y-55391573D01*
X104939119Y-55391573D02*
X105034357Y-55415382D01*
X105034357Y-55415382D02*
X105201023Y-55415382D01*
X105201023Y-55415382D02*
X105296261Y-55391573D01*
X105296261Y-55391573D02*
X105343880Y-55343954D01*
X105343880Y-55343954D02*
X105367690Y-55296335D01*
X104867690Y-54605858D02*
X104867690Y-54891572D01*
X104867690Y-54748715D02*
X105367690Y-54748715D01*
X105367690Y-54748715D02*
X105296261Y-54796334D01*
X105296261Y-54796334D02*
X105248642Y-54843953D01*
X105248642Y-54843953D02*
X105224833Y-54891572D01*
X105367690Y-54153478D02*
X105367690Y-54391573D01*
X105367690Y-54391573D02*
X105129595Y-54415382D01*
X105129595Y-54415382D02*
X105153404Y-54391573D01*
X105153404Y-54391573D02*
X105177214Y-54343954D01*
X105177214Y-54343954D02*
X105177214Y-54224906D01*
X105177214Y-54224906D02*
X105153404Y-54177287D01*
X105153404Y-54177287D02*
X105129595Y-54153478D01*
X105129595Y-54153478D02*
X105081976Y-54129668D01*
X105081976Y-54129668D02*
X104962928Y-54129668D01*
X104962928Y-54129668D02*
X104915309Y-54153478D01*
X104915309Y-54153478D02*
X104891500Y-54177287D01*
X104891500Y-54177287D02*
X104867690Y-54224906D01*
X104867690Y-54224906D02*
X104867690Y-54343954D01*
X104867690Y-54343954D02*
X104891500Y-54391573D01*
X104891500Y-54391573D02*
X104915309Y-54415382D01*
X120191283Y-42002309D02*
X120191283Y-41502309D01*
X120191283Y-41502309D02*
X120381759Y-41502309D01*
X120381759Y-41502309D02*
X120429378Y-41526119D01*
X120429378Y-41526119D02*
X120453188Y-41549928D01*
X120453188Y-41549928D02*
X120476997Y-41597547D01*
X120476997Y-41597547D02*
X120476997Y-41668976D01*
X120476997Y-41668976D02*
X120453188Y-41716595D01*
X120453188Y-41716595D02*
X120429378Y-41740404D01*
X120429378Y-41740404D02*
X120381759Y-41764214D01*
X120381759Y-41764214D02*
X120191283Y-41764214D01*
X120905569Y-41668976D02*
X120905569Y-42002309D01*
X120691283Y-41668976D02*
X120691283Y-41930880D01*
X120691283Y-41930880D02*
X120715093Y-41978500D01*
X120715093Y-41978500D02*
X120762712Y-42002309D01*
X120762712Y-42002309D02*
X120834140Y-42002309D01*
X120834140Y-42002309D02*
X120881759Y-41978500D01*
X120881759Y-41978500D02*
X120905569Y-41954690D01*
X121119855Y-41978500D02*
X121167474Y-42002309D01*
X121167474Y-42002309D02*
X121262712Y-42002309D01*
X121262712Y-42002309D02*
X121310331Y-41978500D01*
X121310331Y-41978500D02*
X121334140Y-41930880D01*
X121334140Y-41930880D02*
X121334140Y-41907071D01*
X121334140Y-41907071D02*
X121310331Y-41859452D01*
X121310331Y-41859452D02*
X121262712Y-41835642D01*
X121262712Y-41835642D02*
X121191283Y-41835642D01*
X121191283Y-41835642D02*
X121143664Y-41811833D01*
X121143664Y-41811833D02*
X121119855Y-41764214D01*
X121119855Y-41764214D02*
X121119855Y-41740404D01*
X121119855Y-41740404D02*
X121143664Y-41692785D01*
X121143664Y-41692785D02*
X121191283Y-41668976D01*
X121191283Y-41668976D02*
X121262712Y-41668976D01*
X121262712Y-41668976D02*
X121310331Y-41692785D01*
X121548426Y-42002309D02*
X121548426Y-41502309D01*
X121762712Y-42002309D02*
X121762712Y-41740404D01*
X121762712Y-41740404D02*
X121738902Y-41692785D01*
X121738902Y-41692785D02*
X121691283Y-41668976D01*
X121691283Y-41668976D02*
X121619855Y-41668976D01*
X121619855Y-41668976D02*
X121572236Y-41692785D01*
X121572236Y-41692785D02*
X121548426Y-41716595D01*
X121881760Y-42049928D02*
X122262712Y-42049928D01*
X122643664Y-41526119D02*
X122596045Y-41502309D01*
X122596045Y-41502309D02*
X122524616Y-41502309D01*
X122524616Y-41502309D02*
X122453188Y-41526119D01*
X122453188Y-41526119D02*
X122405569Y-41573738D01*
X122405569Y-41573738D02*
X122381759Y-41621357D01*
X122381759Y-41621357D02*
X122357950Y-41716595D01*
X122357950Y-41716595D02*
X122357950Y-41788023D01*
X122357950Y-41788023D02*
X122381759Y-41883261D01*
X122381759Y-41883261D02*
X122405569Y-41930880D01*
X122405569Y-41930880D02*
X122453188Y-41978500D01*
X122453188Y-41978500D02*
X122524616Y-42002309D01*
X122524616Y-42002309D02*
X122572235Y-42002309D01*
X122572235Y-42002309D02*
X122643664Y-41978500D01*
X122643664Y-41978500D02*
X122667473Y-41954690D01*
X122667473Y-41954690D02*
X122667473Y-41788023D01*
X122667473Y-41788023D02*
X122572235Y-41788023D01*
X122881759Y-42002309D02*
X122881759Y-41502309D01*
X122881759Y-41502309D02*
X123072235Y-41502309D01*
X123072235Y-41502309D02*
X123119854Y-41526119D01*
X123119854Y-41526119D02*
X123143664Y-41549928D01*
X123143664Y-41549928D02*
X123167473Y-41597547D01*
X123167473Y-41597547D02*
X123167473Y-41668976D01*
X123167473Y-41668976D02*
X123143664Y-41716595D01*
X123143664Y-41716595D02*
X123119854Y-41740404D01*
X123119854Y-41740404D02*
X123072235Y-41764214D01*
X123072235Y-41764214D02*
X122881759Y-41764214D01*
X123381759Y-42002309D02*
X123381759Y-41502309D01*
X123715092Y-41502309D02*
X123810330Y-41502309D01*
X123810330Y-41502309D02*
X123857949Y-41526119D01*
X123857949Y-41526119D02*
X123905568Y-41573738D01*
X123905568Y-41573738D02*
X123929378Y-41668976D01*
X123929378Y-41668976D02*
X123929378Y-41835642D01*
X123929378Y-41835642D02*
X123905568Y-41930880D01*
X123905568Y-41930880D02*
X123857949Y-41978500D01*
X123857949Y-41978500D02*
X123810330Y-42002309D01*
X123810330Y-42002309D02*
X123715092Y-42002309D01*
X123715092Y-42002309D02*
X123667473Y-41978500D01*
X123667473Y-41978500D02*
X123619854Y-41930880D01*
X123619854Y-41930880D02*
X123596045Y-41835642D01*
X123596045Y-41835642D02*
X123596045Y-41668976D01*
X123596045Y-41668976D02*
X123619854Y-41573738D01*
X123619854Y-41573738D02*
X123667473Y-41526119D01*
X123667473Y-41526119D02*
X123715092Y-41502309D01*
X124119855Y-41549928D02*
X124143664Y-41526119D01*
X124143664Y-41526119D02*
X124191283Y-41502309D01*
X124191283Y-41502309D02*
X124310331Y-41502309D01*
X124310331Y-41502309D02*
X124357950Y-41526119D01*
X124357950Y-41526119D02*
X124381759Y-41549928D01*
X124381759Y-41549928D02*
X124405569Y-41597547D01*
X124405569Y-41597547D02*
X124405569Y-41645166D01*
X124405569Y-41645166D02*
X124381759Y-41716595D01*
X124381759Y-41716595D02*
X124096045Y-42002309D01*
X124096045Y-42002309D02*
X124405569Y-42002309D01*
X124857949Y-41502309D02*
X124619854Y-41502309D01*
X124619854Y-41502309D02*
X124596045Y-41740404D01*
X124596045Y-41740404D02*
X124619854Y-41716595D01*
X124619854Y-41716595D02*
X124667473Y-41692785D01*
X124667473Y-41692785D02*
X124786521Y-41692785D01*
X124786521Y-41692785D02*
X124834140Y-41716595D01*
X124834140Y-41716595D02*
X124857949Y-41740404D01*
X124857949Y-41740404D02*
X124881759Y-41788023D01*
X124881759Y-41788023D02*
X124881759Y-41907071D01*
X124881759Y-41907071D02*
X124857949Y-41954690D01*
X124857949Y-41954690D02*
X124834140Y-41978500D01*
X124834140Y-41978500D02*
X124786521Y-42002309D01*
X124786521Y-42002309D02*
X124667473Y-42002309D01*
X124667473Y-42002309D02*
X124619854Y-41978500D01*
X124619854Y-41978500D02*
X124596045Y-41954690D01*
X125096044Y-41668976D02*
X125476997Y-41811833D01*
X125476997Y-41811833D02*
X125096044Y-41954690D01*
X108426119Y-46346811D02*
X108402309Y-46394430D01*
X108402309Y-46394430D02*
X108402309Y-46465859D01*
X108402309Y-46465859D02*
X108426119Y-46537287D01*
X108426119Y-46537287D02*
X108473738Y-46584906D01*
X108473738Y-46584906D02*
X108521357Y-46608716D01*
X108521357Y-46608716D02*
X108616595Y-46632525D01*
X108616595Y-46632525D02*
X108688023Y-46632525D01*
X108688023Y-46632525D02*
X108783261Y-46608716D01*
X108783261Y-46608716D02*
X108830880Y-46584906D01*
X108830880Y-46584906D02*
X108878500Y-46537287D01*
X108878500Y-46537287D02*
X108902309Y-46465859D01*
X108902309Y-46465859D02*
X108902309Y-46418240D01*
X108902309Y-46418240D02*
X108878500Y-46346811D01*
X108878500Y-46346811D02*
X108854690Y-46323002D01*
X108854690Y-46323002D02*
X108688023Y-46323002D01*
X108688023Y-46323002D02*
X108688023Y-46418240D01*
X108902309Y-46108716D02*
X108402309Y-46108716D01*
X108402309Y-46108716D02*
X108402309Y-45918240D01*
X108402309Y-45918240D02*
X108426119Y-45870621D01*
X108426119Y-45870621D02*
X108449928Y-45846811D01*
X108449928Y-45846811D02*
X108497547Y-45823002D01*
X108497547Y-45823002D02*
X108568976Y-45823002D01*
X108568976Y-45823002D02*
X108616595Y-45846811D01*
X108616595Y-45846811D02*
X108640404Y-45870621D01*
X108640404Y-45870621D02*
X108664214Y-45918240D01*
X108664214Y-45918240D02*
X108664214Y-46108716D01*
X108902309Y-45608716D02*
X108402309Y-45608716D01*
X108402309Y-45275383D02*
X108402309Y-45180145D01*
X108402309Y-45180145D02*
X108426119Y-45132526D01*
X108426119Y-45132526D02*
X108473738Y-45084907D01*
X108473738Y-45084907D02*
X108568976Y-45061097D01*
X108568976Y-45061097D02*
X108735642Y-45061097D01*
X108735642Y-45061097D02*
X108830880Y-45084907D01*
X108830880Y-45084907D02*
X108878500Y-45132526D01*
X108878500Y-45132526D02*
X108902309Y-45180145D01*
X108902309Y-45180145D02*
X108902309Y-45275383D01*
X108902309Y-45275383D02*
X108878500Y-45323002D01*
X108878500Y-45323002D02*
X108830880Y-45370621D01*
X108830880Y-45370621D02*
X108735642Y-45394430D01*
X108735642Y-45394430D02*
X108568976Y-45394430D01*
X108568976Y-45394430D02*
X108473738Y-45370621D01*
X108473738Y-45370621D02*
X108426119Y-45323002D01*
X108426119Y-45323002D02*
X108402309Y-45275383D01*
X108568976Y-44632525D02*
X108902309Y-44632525D01*
X108378500Y-44751573D02*
X108735642Y-44870620D01*
X108735642Y-44870620D02*
X108735642Y-44561097D01*
X108902309Y-44108716D02*
X108902309Y-44394430D01*
X108902309Y-44251573D02*
X108402309Y-44251573D01*
X108402309Y-44251573D02*
X108473738Y-44299192D01*
X108473738Y-44299192D02*
X108521357Y-44346811D01*
X108521357Y-44346811D02*
X108545166Y-44394430D01*
X108711833Y-43894431D02*
X108711833Y-43513479D01*
X108902309Y-43275383D02*
X108402309Y-43275383D01*
X108402309Y-43275383D02*
X108759452Y-43108716D01*
X108759452Y-43108716D02*
X108402309Y-42942050D01*
X108402309Y-42942050D02*
X108902309Y-42942050D01*
X108402309Y-42608716D02*
X108402309Y-42513478D01*
X108402309Y-42513478D02*
X108426119Y-42465859D01*
X108426119Y-42465859D02*
X108473738Y-42418240D01*
X108473738Y-42418240D02*
X108568976Y-42394430D01*
X108568976Y-42394430D02*
X108735642Y-42394430D01*
X108735642Y-42394430D02*
X108830880Y-42418240D01*
X108830880Y-42418240D02*
X108878500Y-42465859D01*
X108878500Y-42465859D02*
X108902309Y-42513478D01*
X108902309Y-42513478D02*
X108902309Y-42608716D01*
X108902309Y-42608716D02*
X108878500Y-42656335D01*
X108878500Y-42656335D02*
X108830880Y-42703954D01*
X108830880Y-42703954D02*
X108735642Y-42727763D01*
X108735642Y-42727763D02*
X108568976Y-42727763D01*
X108568976Y-42727763D02*
X108473738Y-42703954D01*
X108473738Y-42703954D02*
X108426119Y-42656335D01*
X108426119Y-42656335D02*
X108402309Y-42608716D01*
X108878500Y-42203953D02*
X108902309Y-42132525D01*
X108902309Y-42132525D02*
X108902309Y-42013477D01*
X108902309Y-42013477D02*
X108878500Y-41965858D01*
X108878500Y-41965858D02*
X108854690Y-41942049D01*
X108854690Y-41942049D02*
X108807071Y-41918239D01*
X108807071Y-41918239D02*
X108759452Y-41918239D01*
X108759452Y-41918239D02*
X108711833Y-41942049D01*
X108711833Y-41942049D02*
X108688023Y-41965858D01*
X108688023Y-41965858D02*
X108664214Y-42013477D01*
X108664214Y-42013477D02*
X108640404Y-42108715D01*
X108640404Y-42108715D02*
X108616595Y-42156334D01*
X108616595Y-42156334D02*
X108592785Y-42180144D01*
X108592785Y-42180144D02*
X108545166Y-42203953D01*
X108545166Y-42203953D02*
X108497547Y-42203953D01*
X108497547Y-42203953D02*
X108449928Y-42180144D01*
X108449928Y-42180144D02*
X108426119Y-42156334D01*
X108426119Y-42156334D02*
X108402309Y-42108715D01*
X108402309Y-42108715D02*
X108402309Y-41989668D01*
X108402309Y-41989668D02*
X108426119Y-41918239D01*
X108902309Y-41703954D02*
X108402309Y-41703954D01*
X108568976Y-41465859D02*
X108711833Y-41084907D01*
X108711833Y-41084907D02*
X108854690Y-41465859D01*
X116072309Y-42640621D02*
X116072309Y-42878716D01*
X116072309Y-42878716D02*
X115572309Y-42878716D01*
X115810404Y-42473954D02*
X115810404Y-42307287D01*
X116072309Y-42235859D02*
X116072309Y-42473954D01*
X116072309Y-42473954D02*
X115572309Y-42473954D01*
X115572309Y-42473954D02*
X115572309Y-42235859D01*
X116072309Y-42021573D02*
X115572309Y-42021573D01*
X115572309Y-42021573D02*
X115572309Y-41902525D01*
X115572309Y-41902525D02*
X115596119Y-41831097D01*
X115596119Y-41831097D02*
X115643738Y-41783478D01*
X115643738Y-41783478D02*
X115691357Y-41759668D01*
X115691357Y-41759668D02*
X115786595Y-41735859D01*
X115786595Y-41735859D02*
X115858023Y-41735859D01*
X115858023Y-41735859D02*
X115953261Y-41759668D01*
X115953261Y-41759668D02*
X116000880Y-41783478D01*
X116000880Y-41783478D02*
X116048500Y-41831097D01*
X116048500Y-41831097D02*
X116072309Y-41902525D01*
X116072309Y-41902525D02*
X116072309Y-42021573D01*
X115738976Y-41521573D02*
X115881833Y-41140621D01*
X115881833Y-41140621D02*
X116024690Y-41521573D01*
X113068166Y-26041283D02*
X113068166Y-26422236D01*
X112877690Y-26231759D02*
X113258642Y-26231759D01*
X112877690Y-26922236D02*
X112877690Y-26636522D01*
X112877690Y-26779379D02*
X113377690Y-26779379D01*
X113377690Y-26779379D02*
X113306261Y-26731760D01*
X113306261Y-26731760D02*
X113258642Y-26684141D01*
X113258642Y-26684141D02*
X113234833Y-26636522D01*
X112925309Y-27136521D02*
X112901500Y-27160331D01*
X112901500Y-27160331D02*
X112877690Y-27136521D01*
X112877690Y-27136521D02*
X112901500Y-27112712D01*
X112901500Y-27112712D02*
X112925309Y-27136521D01*
X112925309Y-27136521D02*
X112877690Y-27136521D01*
X113163404Y-27446045D02*
X113187214Y-27398426D01*
X113187214Y-27398426D02*
X113211023Y-27374616D01*
X113211023Y-27374616D02*
X113258642Y-27350807D01*
X113258642Y-27350807D02*
X113282452Y-27350807D01*
X113282452Y-27350807D02*
X113330071Y-27374616D01*
X113330071Y-27374616D02*
X113353880Y-27398426D01*
X113353880Y-27398426D02*
X113377690Y-27446045D01*
X113377690Y-27446045D02*
X113377690Y-27541283D01*
X113377690Y-27541283D02*
X113353880Y-27588902D01*
X113353880Y-27588902D02*
X113330071Y-27612711D01*
X113330071Y-27612711D02*
X113282452Y-27636521D01*
X113282452Y-27636521D02*
X113258642Y-27636521D01*
X113258642Y-27636521D02*
X113211023Y-27612711D01*
X113211023Y-27612711D02*
X113187214Y-27588902D01*
X113187214Y-27588902D02*
X113163404Y-27541283D01*
X113163404Y-27541283D02*
X113163404Y-27446045D01*
X113163404Y-27446045D02*
X113139595Y-27398426D01*
X113139595Y-27398426D02*
X113115785Y-27374616D01*
X113115785Y-27374616D02*
X113068166Y-27350807D01*
X113068166Y-27350807D02*
X112972928Y-27350807D01*
X112972928Y-27350807D02*
X112925309Y-27374616D01*
X112925309Y-27374616D02*
X112901500Y-27398426D01*
X112901500Y-27398426D02*
X112877690Y-27446045D01*
X112877690Y-27446045D02*
X112877690Y-27541283D01*
X112877690Y-27541283D02*
X112901500Y-27588902D01*
X112901500Y-27588902D02*
X112925309Y-27612711D01*
X112925309Y-27612711D02*
X112972928Y-27636521D01*
X112972928Y-27636521D02*
X113068166Y-27636521D01*
X113068166Y-27636521D02*
X113115785Y-27612711D01*
X113115785Y-27612711D02*
X113139595Y-27588902D01*
X113139595Y-27588902D02*
X113163404Y-27541283D01*
X113377690Y-27779378D02*
X112877690Y-27946044D01*
X112877690Y-27946044D02*
X113377690Y-28112711D01*
X113211023Y-28279377D02*
X113068166Y-28660330D01*
X113068166Y-28660330D02*
X112925309Y-28279377D01*
X103348976Y-64432236D02*
X103491833Y-64051283D01*
X103491833Y-64051283D02*
X103634690Y-64432236D01*
X103206119Y-64932236D02*
X103182309Y-64884617D01*
X103182309Y-64884617D02*
X103182309Y-64813188D01*
X103182309Y-64813188D02*
X103206119Y-64741760D01*
X103206119Y-64741760D02*
X103253738Y-64694141D01*
X103253738Y-64694141D02*
X103301357Y-64670331D01*
X103301357Y-64670331D02*
X103396595Y-64646522D01*
X103396595Y-64646522D02*
X103468023Y-64646522D01*
X103468023Y-64646522D02*
X103563261Y-64670331D01*
X103563261Y-64670331D02*
X103610880Y-64694141D01*
X103610880Y-64694141D02*
X103658500Y-64741760D01*
X103658500Y-64741760D02*
X103682309Y-64813188D01*
X103682309Y-64813188D02*
X103682309Y-64860807D01*
X103682309Y-64860807D02*
X103658500Y-64932236D01*
X103658500Y-64932236D02*
X103634690Y-64956045D01*
X103634690Y-64956045D02*
X103468023Y-64956045D01*
X103468023Y-64956045D02*
X103468023Y-64860807D01*
X103682309Y-65170331D02*
X103182309Y-65170331D01*
X103182309Y-65170331D02*
X103182309Y-65360807D01*
X103182309Y-65360807D02*
X103206119Y-65408426D01*
X103206119Y-65408426D02*
X103229928Y-65432236D01*
X103229928Y-65432236D02*
X103277547Y-65456045D01*
X103277547Y-65456045D02*
X103348976Y-65456045D01*
X103348976Y-65456045D02*
X103396595Y-65432236D01*
X103396595Y-65432236D02*
X103420404Y-65408426D01*
X103420404Y-65408426D02*
X103444214Y-65360807D01*
X103444214Y-65360807D02*
X103444214Y-65170331D01*
X103682309Y-65670331D02*
X103182309Y-65670331D01*
X103182309Y-66003664D02*
X103182309Y-66098902D01*
X103182309Y-66098902D02*
X103206119Y-66146521D01*
X103206119Y-66146521D02*
X103253738Y-66194140D01*
X103253738Y-66194140D02*
X103348976Y-66217950D01*
X103348976Y-66217950D02*
X103515642Y-66217950D01*
X103515642Y-66217950D02*
X103610880Y-66194140D01*
X103610880Y-66194140D02*
X103658500Y-66146521D01*
X103658500Y-66146521D02*
X103682309Y-66098902D01*
X103682309Y-66098902D02*
X103682309Y-66003664D01*
X103682309Y-66003664D02*
X103658500Y-65956045D01*
X103658500Y-65956045D02*
X103610880Y-65908426D01*
X103610880Y-65908426D02*
X103515642Y-65884617D01*
X103515642Y-65884617D02*
X103348976Y-65884617D01*
X103348976Y-65884617D02*
X103253738Y-65908426D01*
X103253738Y-65908426D02*
X103206119Y-65956045D01*
X103206119Y-65956045D02*
X103182309Y-66003664D01*
X103182309Y-66527474D02*
X103182309Y-66575093D01*
X103182309Y-66575093D02*
X103206119Y-66622712D01*
X103206119Y-66622712D02*
X103229928Y-66646522D01*
X103229928Y-66646522D02*
X103277547Y-66670331D01*
X103277547Y-66670331D02*
X103372785Y-66694141D01*
X103372785Y-66694141D02*
X103491833Y-66694141D01*
X103491833Y-66694141D02*
X103587071Y-66670331D01*
X103587071Y-66670331D02*
X103634690Y-66646522D01*
X103634690Y-66646522D02*
X103658500Y-66622712D01*
X103658500Y-66622712D02*
X103682309Y-66575093D01*
X103682309Y-66575093D02*
X103682309Y-66527474D01*
X103682309Y-66527474D02*
X103658500Y-66479855D01*
X103658500Y-66479855D02*
X103634690Y-66456046D01*
X103634690Y-66456046D02*
X103587071Y-66432236D01*
X103587071Y-66432236D02*
X103491833Y-66408427D01*
X103491833Y-66408427D02*
X103372785Y-66408427D01*
X103372785Y-66408427D02*
X103277547Y-66432236D01*
X103277547Y-66432236D02*
X103229928Y-66456046D01*
X103229928Y-66456046D02*
X103206119Y-66479855D01*
X103206119Y-66479855D02*
X103182309Y-66527474D01*
X103182309Y-67122712D02*
X103182309Y-67027474D01*
X103182309Y-67027474D02*
X103206119Y-66979855D01*
X103206119Y-66979855D02*
X103229928Y-66956045D01*
X103229928Y-66956045D02*
X103301357Y-66908426D01*
X103301357Y-66908426D02*
X103396595Y-66884617D01*
X103396595Y-66884617D02*
X103587071Y-66884617D01*
X103587071Y-66884617D02*
X103634690Y-66908426D01*
X103634690Y-66908426D02*
X103658500Y-66932236D01*
X103658500Y-66932236D02*
X103682309Y-66979855D01*
X103682309Y-66979855D02*
X103682309Y-67075093D01*
X103682309Y-67075093D02*
X103658500Y-67122712D01*
X103658500Y-67122712D02*
X103634690Y-67146521D01*
X103634690Y-67146521D02*
X103587071Y-67170331D01*
X103587071Y-67170331D02*
X103468023Y-67170331D01*
X103468023Y-67170331D02*
X103420404Y-67146521D01*
X103420404Y-67146521D02*
X103396595Y-67122712D01*
X103396595Y-67122712D02*
X103372785Y-67075093D01*
X103372785Y-67075093D02*
X103372785Y-66979855D01*
X103372785Y-66979855D02*
X103396595Y-66932236D01*
X103396595Y-66932236D02*
X103420404Y-66908426D01*
X103420404Y-66908426D02*
X103468023Y-66884617D01*
X121671283Y-46942309D02*
X121671283Y-46442309D01*
X121671283Y-46442309D02*
X121790331Y-46442309D01*
X121790331Y-46442309D02*
X121861759Y-46466119D01*
X121861759Y-46466119D02*
X121909378Y-46513738D01*
X121909378Y-46513738D02*
X121933188Y-46561357D01*
X121933188Y-46561357D02*
X121956997Y-46656595D01*
X121956997Y-46656595D02*
X121956997Y-46728023D01*
X121956997Y-46728023D02*
X121933188Y-46823261D01*
X121933188Y-46823261D02*
X121909378Y-46870880D01*
X121909378Y-46870880D02*
X121861759Y-46918500D01*
X121861759Y-46918500D02*
X121790331Y-46942309D01*
X121790331Y-46942309D02*
X121671283Y-46942309D01*
X122171283Y-46942309D02*
X122171283Y-46442309D01*
X122695092Y-46942309D02*
X122528426Y-46704214D01*
X122409378Y-46942309D02*
X122409378Y-46442309D01*
X122409378Y-46442309D02*
X122599854Y-46442309D01*
X122599854Y-46442309D02*
X122647473Y-46466119D01*
X122647473Y-46466119D02*
X122671283Y-46489928D01*
X122671283Y-46489928D02*
X122695092Y-46537547D01*
X122695092Y-46537547D02*
X122695092Y-46608976D01*
X122695092Y-46608976D02*
X122671283Y-46656595D01*
X122671283Y-46656595D02*
X122647473Y-46680404D01*
X122647473Y-46680404D02*
X122599854Y-46704214D01*
X122599854Y-46704214D02*
X122409378Y-46704214D01*
X122909378Y-46751833D02*
X123290331Y-46751833D01*
X123790331Y-46466119D02*
X123742712Y-46442309D01*
X123742712Y-46442309D02*
X123671283Y-46442309D01*
X123671283Y-46442309D02*
X123599855Y-46466119D01*
X123599855Y-46466119D02*
X123552236Y-46513738D01*
X123552236Y-46513738D02*
X123528426Y-46561357D01*
X123528426Y-46561357D02*
X123504617Y-46656595D01*
X123504617Y-46656595D02*
X123504617Y-46728023D01*
X123504617Y-46728023D02*
X123528426Y-46823261D01*
X123528426Y-46823261D02*
X123552236Y-46870880D01*
X123552236Y-46870880D02*
X123599855Y-46918500D01*
X123599855Y-46918500D02*
X123671283Y-46942309D01*
X123671283Y-46942309D02*
X123718902Y-46942309D01*
X123718902Y-46942309D02*
X123790331Y-46918500D01*
X123790331Y-46918500D02*
X123814140Y-46894690D01*
X123814140Y-46894690D02*
X123814140Y-46728023D01*
X123814140Y-46728023D02*
X123718902Y-46728023D01*
X124028426Y-46942309D02*
X124028426Y-46442309D01*
X124028426Y-46442309D02*
X124218902Y-46442309D01*
X124218902Y-46442309D02*
X124266521Y-46466119D01*
X124266521Y-46466119D02*
X124290331Y-46489928D01*
X124290331Y-46489928D02*
X124314140Y-46537547D01*
X124314140Y-46537547D02*
X124314140Y-46608976D01*
X124314140Y-46608976D02*
X124290331Y-46656595D01*
X124290331Y-46656595D02*
X124266521Y-46680404D01*
X124266521Y-46680404D02*
X124218902Y-46704214D01*
X124218902Y-46704214D02*
X124028426Y-46704214D01*
X124528426Y-46942309D02*
X124528426Y-46442309D01*
X124861759Y-46442309D02*
X124956997Y-46442309D01*
X124956997Y-46442309D02*
X125004616Y-46466119D01*
X125004616Y-46466119D02*
X125052235Y-46513738D01*
X125052235Y-46513738D02*
X125076045Y-46608976D01*
X125076045Y-46608976D02*
X125076045Y-46775642D01*
X125076045Y-46775642D02*
X125052235Y-46870880D01*
X125052235Y-46870880D02*
X125004616Y-46918500D01*
X125004616Y-46918500D02*
X124956997Y-46942309D01*
X124956997Y-46942309D02*
X124861759Y-46942309D01*
X124861759Y-46942309D02*
X124814140Y-46918500D01*
X124814140Y-46918500D02*
X124766521Y-46870880D01*
X124766521Y-46870880D02*
X124742712Y-46775642D01*
X124742712Y-46775642D02*
X124742712Y-46608976D01*
X124742712Y-46608976D02*
X124766521Y-46513738D01*
X124766521Y-46513738D02*
X124814140Y-46466119D01*
X124814140Y-46466119D02*
X124861759Y-46442309D01*
X125266522Y-46489928D02*
X125290331Y-46466119D01*
X125290331Y-46466119D02*
X125337950Y-46442309D01*
X125337950Y-46442309D02*
X125456998Y-46442309D01*
X125456998Y-46442309D02*
X125504617Y-46466119D01*
X125504617Y-46466119D02*
X125528426Y-46489928D01*
X125528426Y-46489928D02*
X125552236Y-46537547D01*
X125552236Y-46537547D02*
X125552236Y-46585166D01*
X125552236Y-46585166D02*
X125528426Y-46656595D01*
X125528426Y-46656595D02*
X125242712Y-46942309D01*
X125242712Y-46942309D02*
X125552236Y-46942309D01*
X126028426Y-46942309D02*
X125742712Y-46942309D01*
X125885569Y-46942309D02*
X125885569Y-46442309D01*
X125885569Y-46442309D02*
X125837950Y-46513738D01*
X125837950Y-46513738D02*
X125790331Y-46561357D01*
X125790331Y-46561357D02*
X125742712Y-46585166D01*
X126242711Y-46608976D02*
X126623664Y-46751833D01*
X126623664Y-46751833D02*
X126242711Y-46894690D01*
X111358166Y-26021283D02*
X111358166Y-26402236D01*
X111167690Y-26211759D02*
X111548642Y-26211759D01*
X111667690Y-26592712D02*
X111667690Y-26902236D01*
X111667690Y-26902236D02*
X111477214Y-26735569D01*
X111477214Y-26735569D02*
X111477214Y-26806998D01*
X111477214Y-26806998D02*
X111453404Y-26854617D01*
X111453404Y-26854617D02*
X111429595Y-26878426D01*
X111429595Y-26878426D02*
X111381976Y-26902236D01*
X111381976Y-26902236D02*
X111262928Y-26902236D01*
X111262928Y-26902236D02*
X111215309Y-26878426D01*
X111215309Y-26878426D02*
X111191500Y-26854617D01*
X111191500Y-26854617D02*
X111167690Y-26806998D01*
X111167690Y-26806998D02*
X111167690Y-26664141D01*
X111167690Y-26664141D02*
X111191500Y-26616522D01*
X111191500Y-26616522D02*
X111215309Y-26592712D01*
X111215309Y-27116521D02*
X111191500Y-27140331D01*
X111191500Y-27140331D02*
X111167690Y-27116521D01*
X111167690Y-27116521D02*
X111191500Y-27092712D01*
X111191500Y-27092712D02*
X111215309Y-27116521D01*
X111215309Y-27116521D02*
X111167690Y-27116521D01*
X111667690Y-27306997D02*
X111667690Y-27616521D01*
X111667690Y-27616521D02*
X111477214Y-27449854D01*
X111477214Y-27449854D02*
X111477214Y-27521283D01*
X111477214Y-27521283D02*
X111453404Y-27568902D01*
X111453404Y-27568902D02*
X111429595Y-27592711D01*
X111429595Y-27592711D02*
X111381976Y-27616521D01*
X111381976Y-27616521D02*
X111262928Y-27616521D01*
X111262928Y-27616521D02*
X111215309Y-27592711D01*
X111215309Y-27592711D02*
X111191500Y-27568902D01*
X111191500Y-27568902D02*
X111167690Y-27521283D01*
X111167690Y-27521283D02*
X111167690Y-27378426D01*
X111167690Y-27378426D02*
X111191500Y-27330807D01*
X111191500Y-27330807D02*
X111215309Y-27306997D01*
X111667690Y-27759378D02*
X111167690Y-27926044D01*
X111167690Y-27926044D02*
X111667690Y-28092711D01*
X111501023Y-28259377D02*
X111358166Y-28640330D01*
X111358166Y-28640330D02*
X111215309Y-28259377D01*
X125142236Y-70508976D02*
X124761283Y-70651833D01*
X124761283Y-70651833D02*
X125142236Y-70794690D01*
X125642236Y-70366119D02*
X125594617Y-70342309D01*
X125594617Y-70342309D02*
X125523188Y-70342309D01*
X125523188Y-70342309D02*
X125451760Y-70366119D01*
X125451760Y-70366119D02*
X125404141Y-70413738D01*
X125404141Y-70413738D02*
X125380331Y-70461357D01*
X125380331Y-70461357D02*
X125356522Y-70556595D01*
X125356522Y-70556595D02*
X125356522Y-70628023D01*
X125356522Y-70628023D02*
X125380331Y-70723261D01*
X125380331Y-70723261D02*
X125404141Y-70770880D01*
X125404141Y-70770880D02*
X125451760Y-70818500D01*
X125451760Y-70818500D02*
X125523188Y-70842309D01*
X125523188Y-70842309D02*
X125570807Y-70842309D01*
X125570807Y-70842309D02*
X125642236Y-70818500D01*
X125642236Y-70818500D02*
X125666045Y-70794690D01*
X125666045Y-70794690D02*
X125666045Y-70628023D01*
X125666045Y-70628023D02*
X125570807Y-70628023D01*
X125880331Y-70842309D02*
X125880331Y-70342309D01*
X125880331Y-70342309D02*
X126070807Y-70342309D01*
X126070807Y-70342309D02*
X126118426Y-70366119D01*
X126118426Y-70366119D02*
X126142236Y-70389928D01*
X126142236Y-70389928D02*
X126166045Y-70437547D01*
X126166045Y-70437547D02*
X126166045Y-70508976D01*
X126166045Y-70508976D02*
X126142236Y-70556595D01*
X126142236Y-70556595D02*
X126118426Y-70580404D01*
X126118426Y-70580404D02*
X126070807Y-70604214D01*
X126070807Y-70604214D02*
X125880331Y-70604214D01*
X126380331Y-70842309D02*
X126380331Y-70342309D01*
X126713664Y-70342309D02*
X126808902Y-70342309D01*
X126808902Y-70342309D02*
X126856521Y-70366119D01*
X126856521Y-70366119D02*
X126904140Y-70413738D01*
X126904140Y-70413738D02*
X126927950Y-70508976D01*
X126927950Y-70508976D02*
X126927950Y-70675642D01*
X126927950Y-70675642D02*
X126904140Y-70770880D01*
X126904140Y-70770880D02*
X126856521Y-70818500D01*
X126856521Y-70818500D02*
X126808902Y-70842309D01*
X126808902Y-70842309D02*
X126713664Y-70842309D01*
X126713664Y-70842309D02*
X126666045Y-70818500D01*
X126666045Y-70818500D02*
X126618426Y-70770880D01*
X126618426Y-70770880D02*
X126594617Y-70675642D01*
X126594617Y-70675642D02*
X126594617Y-70508976D01*
X126594617Y-70508976D02*
X126618426Y-70413738D01*
X126618426Y-70413738D02*
X126666045Y-70366119D01*
X126666045Y-70366119D02*
X126713664Y-70342309D01*
X127404141Y-70842309D02*
X127118427Y-70842309D01*
X127261284Y-70842309D02*
X127261284Y-70342309D01*
X127261284Y-70342309D02*
X127213665Y-70413738D01*
X127213665Y-70413738D02*
X127166046Y-70461357D01*
X127166046Y-70461357D02*
X127118427Y-70485166D01*
X127570807Y-70342309D02*
X127880331Y-70342309D01*
X127880331Y-70342309D02*
X127713664Y-70532785D01*
X127713664Y-70532785D02*
X127785093Y-70532785D01*
X127785093Y-70532785D02*
X127832712Y-70556595D01*
X127832712Y-70556595D02*
X127856521Y-70580404D01*
X127856521Y-70580404D02*
X127880331Y-70628023D01*
X127880331Y-70628023D02*
X127880331Y-70747071D01*
X127880331Y-70747071D02*
X127856521Y-70794690D01*
X127856521Y-70794690D02*
X127832712Y-70818500D01*
X127832712Y-70818500D02*
X127785093Y-70842309D01*
X127785093Y-70842309D02*
X127642236Y-70842309D01*
X127642236Y-70842309D02*
X127594617Y-70818500D01*
X127594617Y-70818500D02*
X127570807Y-70794690D01*
D13*
X134854000Y-33560000D02*
X134913000Y-33250000D01*
X134854000Y-37646000D02*
X134854000Y-33560000D01*
X134913000Y-33250000D02*
X135083000Y-32976000D01*
X135083000Y-32976000D02*
X135341000Y-32783000D01*
X135341000Y-32783000D02*
X135639000Y-32701000D01*
X135639000Y-32701000D02*
X136197000Y-32547000D01*
X135796000Y-37283000D02*
X135796000Y-37646000D01*
X135796000Y-37646000D02*
X134854000Y-37646000D01*
X136197000Y-32547000D02*
X136650000Y-32209000D01*
X136650000Y-32209000D02*
X136949000Y-31730000D01*
X136949000Y-31730000D02*
X137054000Y-31168000D01*
X137054000Y-28521000D02*
X138075000Y-27500000D01*
X137054000Y-31168000D02*
X137054000Y-28521000D01*
X139109000Y-37281000D02*
X138682000Y-37366000D01*
X139392000Y-37092000D02*
X139109000Y-37281000D01*
X139581000Y-36809000D02*
X139392000Y-37092000D01*
X139646000Y-33682000D02*
X139646000Y-36482000D01*
X139646000Y-36482000D02*
X139581000Y-36809000D01*
X139733000Y-33244000D02*
X139646000Y-33682000D01*
X139977000Y-32877000D02*
X139733000Y-33244000D01*
X140344000Y-32633000D02*
X139977000Y-32877000D01*
X140782000Y-32546000D02*
X140344000Y-32633000D01*
X140909000Y-27584000D02*
X141846000Y-28521000D01*
X141004000Y-32546000D02*
X140782000Y-32546000D01*
X141537000Y-32013000D02*
X141004000Y-32546000D01*
X141766000Y-31671000D02*
X141537000Y-32013000D01*
X141846000Y-28521000D02*
X141846000Y-31268000D01*
X141846000Y-31268000D02*
X141766000Y-31671000D01*
X134854000Y-69560000D02*
X134913000Y-69250000D01*
X134854000Y-73646000D02*
X134854000Y-69560000D01*
X134913000Y-69250000D02*
X135083000Y-68976000D01*
X135083000Y-68976000D02*
X135341000Y-68783000D01*
X135341000Y-68783000D02*
X135639000Y-68701000D01*
X135639000Y-68701000D02*
X136197000Y-68547000D01*
X135796000Y-73283000D02*
X135796000Y-73646000D01*
X135796000Y-73646000D02*
X134854000Y-73646000D01*
X136197000Y-68547000D02*
X136650000Y-68209000D01*
X136650000Y-68209000D02*
X136949000Y-67730000D01*
X136949000Y-67730000D02*
X137054000Y-67168000D01*
X137054000Y-64521000D02*
X138075000Y-63500000D01*
X137054000Y-67168000D02*
X137054000Y-64521000D01*
X139109000Y-73281000D02*
X138682000Y-73366000D01*
X139392000Y-73092000D02*
X139109000Y-73281000D01*
X139581000Y-72809000D02*
X139392000Y-73092000D01*
X139646000Y-69682000D02*
X139646000Y-72482000D01*
X139646000Y-72482000D02*
X139581000Y-72809000D01*
X139733000Y-69244000D02*
X139646000Y-69682000D01*
X139977000Y-68877000D02*
X139733000Y-69244000D01*
X140344000Y-68633000D02*
X139977000Y-68877000D01*
X140782000Y-68546000D02*
X140344000Y-68633000D01*
X140909000Y-63584000D02*
X141846000Y-64521000D01*
X141004000Y-68546000D02*
X140782000Y-68546000D01*
X141537000Y-68013000D02*
X141004000Y-68546000D01*
X141766000Y-67671000D02*
X141537000Y-68013000D01*
X141846000Y-64521000D02*
X141846000Y-67268000D01*
X141846000Y-67268000D02*
X141766000Y-67671000D01*
X94840000Y-29440000D02*
X94840000Y-35860000D01*
X94840000Y-35860000D02*
X95250000Y-35860000D01*
X95250000Y-29440000D02*
X94840000Y-29440000D01*
X96850000Y-35860000D02*
X99250000Y-35860000D01*
X99250000Y-29440000D02*
X96850000Y-29440000D01*
X100980000Y-35860000D02*
X101260000Y-35860000D01*
X101260000Y-29440000D02*
X100850000Y-29440000D01*
X101260000Y-35860000D02*
X101260000Y-29440000D01*
X101650000Y-62750000D02*
G75*
G02*
X100250000Y-62750000I-700000J0D01*
G01*
X100250000Y-62750000D02*
G75*
G02*
X101650000Y-62750000I700000J0D01*
G01*
X99166667Y-62750000D02*
G75*
G02*
X97766667Y-62750000I-700000J0D01*
G01*
X97766667Y-62750000D02*
G75*
G02*
X99166667Y-62750000I700000J0D01*
G01*
X108450000Y-58600000D02*
G75*
G02*
X107050000Y-58600000I-700000J0D01*
G01*
X107050000Y-58600000D02*
G75*
G02*
X108450000Y-58600000I700000J0D01*
G01*
X108450000Y-61000000D02*
G75*
G02*
X107050000Y-61000000I-700000J0D01*
G01*
X107050000Y-61000000D02*
G75*
G02*
X108450000Y-61000000I700000J0D01*
G01*
X105750000Y-58600000D02*
G75*
G02*
X104350000Y-58600000I-700000J0D01*
G01*
X104350000Y-58600000D02*
G75*
G02*
X105750000Y-58600000I700000J0D01*
G01*
X104133333Y-62750000D02*
G75*
G02*
X102733333Y-62750000I-700000J0D01*
G01*
X102733333Y-62750000D02*
G75*
G02*
X104133333Y-62750000I700000J0D01*
G01*
X105700000Y-61000000D02*
G75*
G02*
X104300000Y-61000000I-700000J0D01*
G01*
X104300000Y-61000000D02*
G75*
G02*
X105700000Y-61000000I700000J0D01*
G01*
%LPC*%
D14*
X109700000Y-74000000D03*
D15*
X112240000Y-74000000D03*
X114780000Y-74000000D03*
X117320000Y-74000000D03*
D16*
X148500000Y-72000000D03*
X148500000Y-24000000D03*
D17*
X118515000Y-29450000D03*
D18*
X116735000Y-29450000D03*
X114955000Y-29450000D03*
X113175000Y-29450000D03*
X111395000Y-29450000D03*
X109615000Y-29450000D03*
X107835000Y-29450000D03*
X106055000Y-29450000D03*
X105165000Y-40150000D03*
X106945000Y-40150000D03*
X108725000Y-40150000D03*
X110505000Y-40150000D03*
X112285000Y-40150000D03*
X114065000Y-40150000D03*
X115845000Y-40150000D03*
X117625000Y-40150000D03*
D16*
X95500000Y-72000000D03*
X95500000Y-24000000D03*
D14*
X142580000Y-59000000D03*
X137500000Y-59000000D03*
X132420000Y-59000000D03*
D19*
X123400000Y-73140000D03*
D14*
X120860000Y-73140000D03*
X123400000Y-70600000D03*
X120860000Y-70600000D03*
X123400000Y-68060000D03*
X120860000Y-68060000D03*
X123400000Y-65520000D03*
X120860000Y-65520000D03*
D20*
X150520000Y-65800000D03*
D21*
X147980000Y-65800000D03*
D22*
X133500000Y-24500000D03*
D23*
X128350000Y-25000000D03*
D24*
X139400000Y-30000000D03*
D25*
X133500000Y-30000000D03*
D24*
X137300000Y-35000000D03*
D22*
X133500000Y-35500000D03*
D26*
X139500000Y-26500000D03*
X137300000Y-38500000D03*
D27*
X127875000Y-54300000D03*
D23*
X127875000Y-44190000D03*
X127875000Y-46730000D03*
X127875000Y-49270000D03*
X127875000Y-51810000D03*
X126650000Y-41800000D03*
X128500000Y-41800000D03*
D28*
X102050000Y-72900000D03*
D29*
X103300000Y-72900000D03*
X104550000Y-72900000D03*
X102050000Y-74150000D03*
X103300000Y-74150000D03*
X104550000Y-74150000D03*
D20*
X150620000Y-29950000D03*
D21*
X148080000Y-29950000D03*
D14*
X142580000Y-38000000D03*
X137500000Y-38000000D03*
X132420000Y-38000000D03*
D30*
X149200000Y-51920000D03*
X149200000Y-49380000D03*
X149200000Y-46840000D03*
X149200000Y-44300000D03*
D22*
X133500000Y-60500000D03*
D23*
X128350000Y-61000000D03*
D24*
X139400000Y-66000000D03*
D25*
X133500000Y-66000000D03*
D24*
X137300000Y-71000000D03*
D22*
X133500000Y-71500000D03*
D26*
X139500000Y-62500000D03*
X137300000Y-74500000D03*
D31*
X106040000Y-23000000D03*
X103500000Y-23000000D03*
X100960000Y-23000000D03*
D32*
X96050000Y-29750000D03*
X96050000Y-35550000D03*
X100050000Y-29750000D03*
X100050000Y-35550000D03*
D33*
X100950000Y-62750000D03*
X98466667Y-62750000D03*
X107750000Y-58600000D03*
X107750000Y-61000000D03*
X105050000Y-58600000D03*
X103433333Y-62750000D03*
X105000000Y-61000000D03*
%LPD*%
M02*
