M48
; DRILL file {KiCad 8.0.7} date 2025-01-13T13:49:24+0100
; FORMAT={-:-/ absolute / inch / decimal}
; #@! TF.CreationDate,2025-01-13T13:49:24+01:00
; #@! TF.GenerationSoftware,Kicad,Pcbnew,8.0.7
; #@! TF.FileFunction,Plated,1,2,PTH
FMAT,2
INCH
; #@! TA.AperFunction,Plated,PTH,ViaDrill
T1C0.0138
; #@! TA.AperFunction,Plated,PTH,ComponentDrill
T2C0.0217
; #@! TA.AperFunction,Plated,PTH,ComponentDrill
T3C0.0276
; #@! TA.AperFunction,Plated,PTH,ComponentDrill
T4C0.0350
; #@! TA.AperFunction,Plated,PTH,ComponentDrill
T5C0.0354
; #@! TA.AperFunction,Plated,PTH,ComponentDrill
T6C0.0394
%
G90
G05
T1
X3.6846Y-0.8642
X3.6846Y-1.046
X3.6846Y-1.1067
X3.6846Y-1.1673
X3.6846Y-1.2279
X3.6846Y-1.4705
X3.6846Y-1.8342
X3.6846Y-2.0768
X3.6846Y-2.1374
X3.6846Y-2.198
X3.6846Y-2.2586
X3.6846Y-2.3193
X3.6846Y-2.3799
X3.6846Y-2.4405
X3.6846Y-2.5012
X3.6846Y-2.6831
X3.6846Y-2.7437
X3.6846Y-2.9256
X3.7453Y-1.046
X3.7453Y-1.2886
X3.7453Y-1.8342
X3.7453Y-2.7437
X3.7453Y-2.9256
X3.7543Y-2.1185
X3.8059Y-0.8642
X3.8059Y-1.046
X3.8059Y-1.2886
X3.8059Y-1.8342
X3.8059Y-2.0768
X3.8059Y-2.1374
X3.8059Y-2.198
X3.8059Y-2.4405
X3.8059Y-2.5012
X3.8059Y-2.9256
X3.8146Y-1.5466
X3.8334Y-2.6925
X3.8652Y-1.9713
X3.8665Y-0.8642
X3.8665Y-0.9248
X3.8665Y-1.5917
X3.8665Y-1.6523
X3.8665Y-2.0768
X3.8665Y-2.1374
X3.8665Y-2.198
X3.8665Y-2.4405
X3.8665Y-2.5012
X3.8665Y-2.8649
X3.8665Y-2.9256
X3.9003Y-2.0051
X3.9184Y-1.7485
X3.9272Y-0.8642
X3.9272Y-1.046
X3.9272Y-1.2886
X3.9272Y-1.5917
X3.9272Y-1.6523
X3.9272Y-2.1374
X3.9272Y-2.198
X3.9272Y-2.4405
X3.9272Y-2.5012
X3.9272Y-2.9256
X3.9878Y-0.9854
X3.9878Y-1.046
X3.9878Y-1.1067
X3.9878Y-1.1673
X3.9878Y-1.2279
X3.9878Y-1.2886
X3.9878Y-1.3492
X3.9878Y-1.4098
X3.9878Y-1.4705
X3.9878Y-1.5917
X3.9878Y-1.6523
X3.9878Y-2.198
X3.9878Y-2.4405
X3.9878Y-2.5012
X4.0484Y-2.0768
X4.0484Y-2.2586
X4.0484Y-2.3193
X4.0484Y-2.3799
X4.0484Y-2.4405
X4.0484Y-2.5012
X4.0498Y-1.5466
X4.0591Y-1.6161
X4.1091Y-1.046
X4.1091Y-1.1067
X4.1091Y-1.8342
X4.1091Y-2.0768
X4.1091Y-2.1374
X4.1105Y-1.7767
X4.1476Y-1.75
X4.1697Y-1.046
X4.1697Y-1.1067
X4.1697Y-2.9256
X4.2303Y-0.8642
X4.2303Y-1.1067
X4.2303Y-1.713
X4.2303Y-1.7736
X4.2303Y-2.0768
X4.2303Y-2.1374
X4.2303Y-2.198
X4.2303Y-2.2586
X4.2303Y-2.3193
X4.2303Y-2.3799
X4.2303Y-2.4405
X4.2303Y-2.5012
X4.2303Y-2.6831
X4.2303Y-2.7437
X4.2303Y-2.9256
X4.2389Y-2.005
X4.2759Y-1.9805
X4.2841Y-1.8611
X4.2909Y-0.9854
X4.2909Y-1.6523
X4.2909Y-1.713
X4.2909Y-1.7736
X4.2909Y-2.0768
X4.2909Y-2.1374
X4.2909Y-2.198
X4.2909Y-2.2586
X4.2909Y-2.3193
X4.2909Y-2.3799
X4.2909Y-2.4405
X4.2909Y-2.5012
X4.2909Y-2.8043
X4.3516Y-0.9854
X4.3516Y-1.046
X4.3937Y-1.8858
X4.4122Y-0.8642
X4.4122Y-0.9854
X4.4122Y-1.046
X4.4122Y-1.1067
X4.4122Y-2.6224
X4.4122Y-2.6831
X4.4122Y-2.7437
X4.4291Y-1.8524
X4.4728Y-1.6523
X4.4728Y-1.713
X4.4728Y-2.2586
X4.4728Y-2.3799
X4.4728Y-2.4405
X4.4728Y-2.6224
X4.4728Y-2.6831
X4.4728Y-2.7437
X4.4728Y-2.8043
X4.5335Y-1.046
X4.5335Y-1.9555
X4.5335Y-2.2586
X4.5335Y-2.3799
X4.5335Y-2.4405
X4.5335Y-2.6224
X4.5335Y-2.6831
X4.5335Y-2.7437
X4.5335Y-2.8043
X4.5941Y-0.8642
X4.5941Y-0.9248
X4.5941Y-2.2586
X4.5941Y-2.3799
X4.5941Y-2.4405
X4.5941Y-2.6224
X4.5941Y-2.6831
X4.5941Y-2.7437
X4.5941Y-2.8043
X4.6547Y-0.8642
X4.6547Y-1.8342
X4.6547Y-1.8949
X4.6547Y-2.198
X4.6547Y-2.2586
X4.6547Y-2.3799
X4.6547Y-2.4405
X4.6547Y-2.6224
X4.6547Y-2.6831
X4.6547Y-2.7437
X4.6547Y-2.8043
X4.7154Y-0.8642
X4.7154Y-1.046
X4.7154Y-1.1067
X4.7154Y-2.1374
X4.7154Y-2.198
X4.7154Y-2.2586
X4.7154Y-2.3799
X4.7154Y-2.4405
X4.7154Y-2.6224
X4.7154Y-2.6831
X4.7154Y-2.7437
X4.7154Y-2.8043
X4.7154Y-2.8649
X4.7154Y-2.9256
X4.776Y-0.8642
X4.776Y-0.9248
X4.776Y-1.8949
X4.776Y-2.0768
X4.776Y-2.1374
X4.776Y-2.198
X4.776Y-2.2586
X4.776Y-2.3799
X4.776Y-2.4405
X4.776Y-2.6224
X4.776Y-2.6831
X4.776Y-2.7437
X4.776Y-2.8043
X4.776Y-2.8649
X4.776Y-2.9256
X4.8323Y-1.4322
X4.8366Y-0.8642
X4.8366Y-0.9248
X4.8366Y-0.9854
X4.8366Y-1.046
X4.8366Y-1.1067
X4.8366Y-1.1673
X4.8366Y-1.2279
X4.8366Y-1.2886
X4.8366Y-1.3492
X4.8366Y-1.6523
X4.8366Y-2.0161
X4.8366Y-2.0768
X4.8366Y-2.1374
X4.8366Y-2.198
X4.8366Y-2.2586
X4.8366Y-2.3799
X4.8366Y-2.6224
X4.8366Y-2.6831
X4.8366Y-2.7437
X4.8366Y-2.8043
X4.8366Y-2.8649
X4.8366Y-2.9256
X4.8972Y-0.8642
X4.8972Y-0.9248
X4.8972Y-0.9854
X4.8972Y-1.046
X4.8972Y-1.1067
X4.8972Y-1.1673
X4.8972Y-1.2279
X4.8972Y-1.2886
X4.8972Y-1.4705
X4.8972Y-1.6523
X4.8972Y-1.713
X4.8972Y-1.9555
X4.8972Y-2.0161
X4.8972Y-2.0768
X4.8972Y-2.1374
X4.8972Y-2.198
X4.8972Y-2.2586
X4.8972Y-2.5012
X4.8972Y-2.6224
X4.8972Y-2.6831
X4.8972Y-2.7437
X4.8972Y-2.8043
X4.8972Y-2.8649
X4.8972Y-2.9256
X4.9478Y-1.9134
X4.9579Y-0.8642
X4.9579Y-0.9248
X4.9579Y-0.9854
X4.9579Y-1.046
X4.9579Y-1.1067
X4.9579Y-1.1673
X4.9579Y-1.2279
X4.9579Y-1.2886
X4.9579Y-1.4098
X4.9579Y-1.4705
X4.9579Y-2.0161
X4.9579Y-2.0768
X4.9579Y-2.1374
X4.9579Y-2.198
X4.9579Y-2.4405
X4.9579Y-2.5012
X4.9579Y-2.6224
X4.9579Y-2.6831
X4.9579Y-2.7437
X4.9579Y-2.8043
X4.9579Y-2.8649
X4.9579Y-2.9256
X5.0185Y-0.8642
X5.0185Y-0.9248
X5.0185Y-1.046
X5.0185Y-1.1067
X5.0185Y-1.1673
X5.0185Y-1.2279
X5.0185Y-1.2886
X5.0185Y-1.4098
X5.0185Y-1.4705
X5.0185Y-2.198
X5.0185Y-2.5618
X5.0185Y-2.6224
X5.0185Y-2.6831
X5.0185Y-2.7437
X5.0185Y-2.8043
X5.0185Y-2.8649
X5.0185Y-2.9256
X5.0791Y-0.8642
X5.0791Y-0.9248
X5.0791Y-1.046
X5.0791Y-1.1067
X5.0791Y-1.1673
X5.0791Y-1.2279
X5.0791Y-1.2886
X5.0791Y-1.4098
X5.0791Y-1.4705
X5.0791Y-2.198
X5.0791Y-2.3193
X5.0791Y-2.5012
X5.0791Y-2.5618
X5.0791Y-2.6224
X5.0791Y-2.6831
X5.0791Y-2.7437
X5.0791Y-2.8043
X5.0791Y-2.8649
X5.0791Y-2.9256
X5.1398Y-0.8642
X5.1398Y-0.9248
X5.1398Y-0.9854
X5.1398Y-1.046
X5.1398Y-1.1067
X5.1398Y-1.2886
X5.1398Y-1.4098
X5.1398Y-1.4705
X5.1398Y-1.6523
X5.1398Y-1.713
X5.1398Y-1.7736
X5.1398Y-1.8342
X5.1398Y-1.8949
X5.1398Y-1.9555
X5.1398Y-2.0161
X5.1398Y-2.0768
X5.1398Y-2.1374
X5.1398Y-2.198
X5.1398Y-2.3193
X5.1398Y-2.3799
X5.1398Y-2.4405
X5.1398Y-2.5012
X5.1398Y-2.6831
X5.1398Y-2.7437
X5.1398Y-2.8043
X5.1398Y-2.8649
X5.1398Y-2.9256
X5.2004Y-0.8642
X5.2004Y-0.9248
X5.2004Y-1.046
X5.2004Y-1.6523
X5.2004Y-1.713
X5.2004Y-1.7736
X5.2004Y-1.8342
X5.2004Y-1.8949
X5.2004Y-1.9555
X5.2004Y-2.0161
X5.2004Y-2.0768
X5.2004Y-2.1374
X5.2004Y-2.198
X5.2004Y-2.4405
X5.2004Y-2.7437
X5.2004Y-2.8649
X5.2004Y-2.9256
X5.261Y-0.8642
X5.261Y-1.046
X5.261Y-1.6523
X5.261Y-1.713
X5.261Y-1.7736
X5.261Y-1.8342
X5.261Y-1.8949
X5.261Y-1.9555
X5.261Y-2.0161
X5.261Y-2.0768
X5.261Y-2.1374
X5.261Y-2.198
X5.261Y-2.7437
X5.261Y-2.9256
X5.3217Y-0.8642
X5.3217Y-0.9248
X5.3217Y-0.9854
X5.3217Y-1.046
X5.3217Y-1.4098
X5.3217Y-1.4705
X5.3217Y-1.6523
X5.3217Y-1.713
X5.3217Y-1.7736
X5.3217Y-1.8342
X5.3217Y-1.8949
X5.3217Y-1.9555
X5.3217Y-2.0161
X5.3217Y-2.0768
X5.3217Y-2.1374
X5.3217Y-2.198
X5.3217Y-2.3193
X5.3217Y-2.3799
X5.3217Y-2.4405
X5.3217Y-2.7437
X5.3217Y-2.8043
X5.3217Y-2.8649
X5.3217Y-2.9256
X5.3701Y-1.5984
X5.3823Y-0.8642
X5.3823Y-0.9248
X5.3823Y-0.9854
X5.3823Y-1.046
X5.3823Y-1.1067
X5.3823Y-1.1673
X5.3823Y-1.2279
X5.3823Y-1.6523
X5.3823Y-1.713
X5.3823Y-1.7736
X5.3823Y-1.8342
X5.3823Y-1.8949
X5.3823Y-1.9555
X5.3823Y-2.0161
X5.3823Y-2.0768
X5.3823Y-2.1374
X5.3823Y-2.198
X5.3823Y-2.3799
X5.3823Y-2.4405
X5.3823Y-2.5012
X5.3823Y-2.5618
X5.3823Y-2.6224
X5.3823Y-2.6831
X5.4429Y-0.8642
X5.4429Y-0.9248
X5.4429Y-1.5917
X5.4429Y-1.6523
X5.4429Y-1.713
X5.4429Y-1.7736
X5.4429Y-1.8342
X5.4429Y-1.8949
X5.4429Y-1.9555
X5.4429Y-2.0161
X5.4429Y-2.0768
X5.4429Y-2.1374
X5.4429Y-2.198
X5.4429Y-2.3799
X5.4429Y-2.6831
X5.5035Y-0.8642
X5.5035Y-0.9248
X5.5035Y-1.3492
X5.5035Y-1.4098
X5.5035Y-1.4705
X5.5035Y-1.5917
X5.5035Y-1.6523
X5.5035Y-1.713
X5.5035Y-1.7736
X5.5035Y-1.8342
X5.5035Y-1.8949
X5.5035Y-1.9555
X5.5035Y-2.0161
X5.5035Y-2.0768
X5.5035Y-2.1374
X5.5035Y-2.198
X5.5035Y-2.3193
X5.5035Y-2.3799
X5.5035Y-2.6831
X5.5035Y-2.7437
X5.5035Y-2.8043
X5.5035Y-2.8649
X5.5035Y-2.9256
X5.5642Y-0.8642
X5.5642Y-0.9248
X5.5642Y-0.9854
X5.5642Y-1.046
X5.5642Y-1.1067
X5.5642Y-1.3492
X5.5642Y-1.4098
X5.5642Y-1.5917
X5.5642Y-2.3799
X5.5642Y-2.4405
X5.5642Y-2.5012
X5.5642Y-2.6831
X5.5642Y-2.7437
X5.5642Y-2.8043
X5.5642Y-2.8649
X5.5642Y-2.9256
X5.6248Y-0.8642
X5.6248Y-0.9248
X5.6248Y-0.9854
X5.6248Y-1.046
X5.6248Y-1.1067
X5.6248Y-1.1673
X5.6248Y-1.2279
X5.6248Y-1.3492
X5.6248Y-1.4098
X5.6248Y-2.3799
X5.6248Y-2.4405
X5.6248Y-2.5012
X5.6248Y-2.5618
X5.6248Y-2.6224
X5.6248Y-2.6831
X5.6248Y-2.7437
X5.6248Y-2.8043
X5.6248Y-2.8649
X5.6248Y-2.9256
X5.6854Y-0.8642
X5.6854Y-0.9248
X5.6854Y-0.9854
X5.6854Y-1.046
X5.6854Y-1.1067
X5.6854Y-1.3492
X5.6854Y-1.4098
X5.6854Y-1.4705
X5.6854Y-1.5311
X5.6854Y-1.713
X5.6854Y-1.7736
X5.6854Y-1.8342
X5.6854Y-1.8949
X5.6854Y-1.9555
X5.6854Y-2.0161
X5.6854Y-2.0768
X5.6854Y-2.1374
X5.6854Y-2.198
X5.6854Y-2.3193
X5.6854Y-2.3799
X5.6854Y-2.4405
X5.6854Y-2.6831
X5.6854Y-2.7437
X5.6854Y-2.8043
X5.6854Y-2.8649
X5.6854Y-2.9256
X5.7461Y-0.8642
X5.7461Y-0.9248
X5.7461Y-0.9854
X5.7461Y-1.046
X5.7461Y-1.1067
X5.7461Y-1.3492
X5.7461Y-1.4098
X5.7461Y-1.4705
X5.7461Y-1.5311
X5.7461Y-1.5917
X5.7461Y-1.7736
X5.7461Y-1.8342
X5.7461Y-1.8949
X5.7461Y-1.9555
X5.7461Y-2.0161
X5.7461Y-2.0768
X5.7461Y-2.1374
X5.7461Y-2.3193
X5.7461Y-2.3799
X5.7461Y-2.4405
X5.7461Y-2.6831
X5.7461Y-2.7437
X5.7461Y-2.8043
X5.7461Y-2.8649
X5.7461Y-2.9256
X5.8067Y-1.046
X5.8067Y-1.1067
X5.8067Y-1.2886
X5.8067Y-1.3492
X5.8067Y-1.4098
X5.8067Y-1.4705
X5.8067Y-1.5311
X5.8067Y-1.5917
X5.8067Y-1.6523
X5.8067Y-1.8342
X5.8067Y-2.0161
X5.8067Y-2.0768
X5.8067Y-2.2586
X5.8067Y-2.3193
X5.8067Y-2.3799
X5.8067Y-2.4405
X5.8067Y-2.5012
X5.8067Y-2.6831
X5.8067Y-2.7437
X5.8067Y-2.9256
X5.8673Y-1.046
X5.8673Y-1.1067
X5.8673Y-1.2886
X5.8673Y-1.3492
X5.8673Y-1.4098
X5.8673Y-1.4705
X5.8673Y-1.5311
X5.8673Y-1.5917
X5.8673Y-1.6523
X5.8673Y-2.198
X5.8673Y-2.2586
X5.8673Y-2.3193
X5.8673Y-2.3799
X5.8673Y-2.4405
X5.8673Y-2.5012
X5.8673Y-2.6831
X5.8673Y-2.7437
X5.8673Y-2.9256
X5.928Y-0.8642
X5.928Y-1.046
X5.928Y-1.1067
X5.928Y-1.2886
X5.928Y-1.3492
X5.928Y-1.4098
X5.928Y-1.4705
X5.928Y-1.5311
X5.928Y-1.5917
X5.928Y-1.6523
X5.928Y-2.1374
X5.928Y-2.198
X5.928Y-2.2586
X5.928Y-2.3193
X5.928Y-2.3799
X5.928Y-2.4405
X5.928Y-2.5012
X5.928Y-2.6831
X5.928Y-2.7437
X5.928Y-2.9256
T2
X4.0177Y-2.8701
X4.0177Y-2.9193
X4.0669Y-2.8701
X4.0669Y-2.9193
X4.1161Y-2.8701
X4.1161Y-2.9193
T3
X4.1404Y-1.5807
X4.1754Y-1.1594
X4.2104Y-1.5807
X4.2455Y-1.1594
X4.2805Y-1.5807
X4.3156Y-1.1594
X4.3506Y-1.5807
X4.3856Y-1.1594
X4.4207Y-1.5807
X4.4557Y-1.1594
X4.4907Y-1.5807
X4.5258Y-1.1594
X4.5608Y-1.5807
X4.5959Y-1.1594
X4.6309Y-1.5807
X4.6659Y-1.1594
T4
X3.9748Y-0.9055
X4.0748Y-0.9055
X4.1748Y-0.9055
T5
X4.9862Y-1.6457
X5.0344Y-1.7398
X5.0344Y-1.8398
X5.0344Y-1.9398
X5.0344Y-2.0398
X5.0591Y-1.6457
X5.826Y-2.5906
X5.8299Y-1.1791
X5.926Y-2.5906
X5.9299Y-1.1791
T6
X4.3189Y-2.9134
X4.4189Y-2.9134
X4.5189Y-2.9134
X4.6189Y-2.9134
X5.2134Y-1.4961
X5.2134Y-2.3228
X5.4134Y-1.4961
X5.4134Y-2.3228
X5.6134Y-1.4961
X5.6134Y-2.3228
X5.874Y-1.7441
X5.874Y-1.8441
X5.874Y-1.9441
X5.874Y-2.0441
M30
