%TF.GenerationSoftware,KiCad,Pcbnew,8.0.7*%
%TF.CreationDate,2025-01-13T13:49:23+01:00*%
%TF.ProjectId,Trackball,54726163-6b62-4616-9c6c-2e6b69636164,rev?*%
%TF.SameCoordinates,Original*%
%TF.FileFunction,Legend,Top*%
%TF.FilePolarity,Positive*%
%FSLAX46Y46*%
G04 Gerber Fmt 4.6, Leading zero omitted, Abs format (unit mm)*
G04 Created by KiCad (PCBNEW 8.0.7) date 2025-01-13 13:49:23*
%MOMM*%
%LPD*%
G01*
G04 APERTURE LIST*
G04 Aperture macros list*
%AMRoundRect*
0 Rectangle with rounded corners*
0 $1 Rounding radius*
0 $2 $3 $4 $5 $6 $7 $8 $9 X,Y pos of 4 corners*
0 Add a 4 corners polygon primitive as box body*
4,1,4,$2,$3,$4,$5,$6,$7,$8,$9,$2,$3,0*
0 Add four circle primitives for the rounded corners*
1,1,$1+$1,$2,$3*
1,1,$1+$1,$4,$5*
1,1,$1+$1,$6,$7*
1,1,$1+$1,$8,$9*
0 Add four rect primitives between the rounded corners*
20,1,$1+$1,$2,$3,$4,$5,0*
20,1,$1+$1,$4,$5,$6,$7,0*
20,1,$1+$1,$6,$7,$8,$9,0*
20,1,$1+$1,$8,$9,$2,$3,0*%
G04 Aperture macros list end*
%ADD10C,0.150000*%
%ADD11C,0.200000*%
%ADD12C,0.120000*%
%ADD13C,0.127000*%
%ADD14C,0.400000*%
%ADD15O,2.000000X1.600000*%
%ADD16RoundRect,0.243750X0.456250X-0.243750X0.456250X0.243750X-0.456250X0.243750X-0.456250X-0.243750X0*%
%ADD17R,1.800000X1.800000*%
%ADD18C,1.800000*%
%ADD19RoundRect,0.243750X-0.456250X0.243750X-0.456250X-0.243750X0.456250X-0.243750X0.456250X0.243750X0*%
%ADD20C,1.700000*%
%ADD21O,1.700000X1.700000*%
%ADD22C,3.200000*%
%ADD23R,0.650000X1.060000*%
%ADD24R,1.000000X1.000000*%
%ADD25R,0.900000X1.500000*%
%ADD26R,1.500000X0.900000*%
%ADD27RoundRect,0.250000X-0.250000X-0.475000X0.250000X-0.475000X0.250000X0.475000X-0.250000X0.475000X0*%
%ADD28C,1.900000*%
%ADD29C,3.050000*%
%ADD30C,5.050000*%
%ADD31C,1.600000*%
%ADD32R,1.000000X2.800000*%
%ADD33C,1.500000*%
%ADD34RoundRect,0.250000X0.475000X-0.250000X0.475000X0.250000X-0.475000X0.250000X-0.475000X-0.250000X0*%
%ADD35R,0.950000X0.950000*%
%ADD36C,0.950000*%
%ADD37RoundRect,0.250000X0.262500X0.450000X-0.262500X0.450000X-0.262500X-0.450000X0.262500X-0.450000X0*%
%ADD38RoundRect,0.250000X0.450000X-0.262500X0.450000X0.262500X-0.450000X0.262500X-0.450000X-0.262500X0*%
%ADD39RoundRect,0.250000X0.250000X0.475000X-0.250000X0.475000X-0.250000X-0.475000X0.250000X-0.475000X0*%
%ADD40RoundRect,0.150000X-0.150000X0.512500X-0.150000X-0.512500X0.150000X-0.512500X0.150000X0.512500X0*%
%ADD41RoundRect,0.250000X-0.450000X0.262500X-0.450000X-0.262500X0.450000X-0.262500X0.450000X0.262500X0*%
%ADD42RoundRect,0.250000X-0.475000X0.250000X-0.475000X-0.250000X0.475000X-0.250000X0.475000X0.250000X0*%
%ADD43C,1.651000*%
%ADD44C,1.200000*%
%ADD45R,1.200000X1.200000*%
G04 APERTURE END LIST*
D10*
X104428571Y-59928961D02*
X104619047Y-60462295D01*
X104619047Y-60462295D02*
X104809524Y-59928961D01*
X105533333Y-60462295D02*
X105076190Y-60462295D01*
X105304762Y-60462295D02*
X105304762Y-59662295D01*
X105304762Y-59662295D02*
X105228571Y-59776580D01*
X105228571Y-59776580D02*
X105152381Y-59852771D01*
X105152381Y-59852771D02*
X105076190Y-59890866D01*
X159985009Y-50419047D02*
X160032628Y-50276190D01*
X160032628Y-50276190D02*
X160080247Y-50228571D01*
X160080247Y-50228571D02*
X160175485Y-50180952D01*
X160175485Y-50180952D02*
X160318342Y-50180952D01*
X160318342Y-50180952D02*
X160413580Y-50228571D01*
X160413580Y-50228571D02*
X160461200Y-50276190D01*
X160461200Y-50276190D02*
X160508819Y-50371428D01*
X160508819Y-50371428D02*
X160508819Y-50752380D01*
X160508819Y-50752380D02*
X159508819Y-50752380D01*
X159508819Y-50752380D02*
X159508819Y-50419047D01*
X159508819Y-50419047D02*
X159556438Y-50323809D01*
X159556438Y-50323809D02*
X159604057Y-50276190D01*
X159604057Y-50276190D02*
X159699295Y-50228571D01*
X159699295Y-50228571D02*
X159794533Y-50228571D01*
X159794533Y-50228571D02*
X159889771Y-50276190D01*
X159889771Y-50276190D02*
X159937390Y-50323809D01*
X159937390Y-50323809D02*
X159985009Y-50419047D01*
X159985009Y-50419047D02*
X159985009Y-50752380D01*
X160508819Y-49752380D02*
X159842152Y-49752380D01*
X160032628Y-49752380D02*
X159937390Y-49704761D01*
X159937390Y-49704761D02*
X159889771Y-49657142D01*
X159889771Y-49657142D02*
X159842152Y-49561904D01*
X159842152Y-49561904D02*
X159842152Y-49466666D01*
X160508819Y-48704761D02*
X159508819Y-48704761D01*
X160461200Y-48704761D02*
X160508819Y-48799999D01*
X160508819Y-48799999D02*
X160508819Y-48990475D01*
X160508819Y-48990475D02*
X160461200Y-49085713D01*
X160461200Y-49085713D02*
X160413580Y-49133332D01*
X160413580Y-49133332D02*
X160318342Y-49180951D01*
X160318342Y-49180951D02*
X160032628Y-49180951D01*
X160032628Y-49180951D02*
X159937390Y-49133332D01*
X159937390Y-49133332D02*
X159889771Y-49085713D01*
X159889771Y-49085713D02*
X159842152Y-48990475D01*
X159842152Y-48990475D02*
X159842152Y-48799999D01*
X159842152Y-48799999D02*
X159889771Y-48704761D01*
X160508819Y-47704761D02*
X160508819Y-48276189D01*
X160508819Y-47990475D02*
X159508819Y-47990475D01*
X159508819Y-47990475D02*
X159651676Y-48085713D01*
X159651676Y-48085713D02*
X159746914Y-48180951D01*
X159746914Y-48180951D02*
X159794533Y-48276189D01*
X159508819Y-47085713D02*
X159508819Y-46990475D01*
X159508819Y-46990475D02*
X159556438Y-46895237D01*
X159556438Y-46895237D02*
X159604057Y-46847618D01*
X159604057Y-46847618D02*
X159699295Y-46799999D01*
X159699295Y-46799999D02*
X159889771Y-46752380D01*
X159889771Y-46752380D02*
X160127866Y-46752380D01*
X160127866Y-46752380D02*
X160318342Y-46799999D01*
X160318342Y-46799999D02*
X160413580Y-46847618D01*
X160413580Y-46847618D02*
X160461200Y-46895237D01*
X160461200Y-46895237D02*
X160508819Y-46990475D01*
X160508819Y-46990475D02*
X160508819Y-47085713D01*
X160508819Y-47085713D02*
X160461200Y-47180951D01*
X160461200Y-47180951D02*
X160413580Y-47228570D01*
X160413580Y-47228570D02*
X160318342Y-47276189D01*
X160318342Y-47276189D02*
X160127866Y-47323808D01*
X160127866Y-47323808D02*
X159889771Y-47323808D01*
X159889771Y-47323808D02*
X159699295Y-47276189D01*
X159699295Y-47276189D02*
X159604057Y-47228570D01*
X159604057Y-47228570D02*
X159556438Y-47180951D01*
X159556438Y-47180951D02*
X159508819Y-47085713D01*
X160508819Y-45799999D02*
X160508819Y-46371427D01*
X160508819Y-46085713D02*
X159508819Y-46085713D01*
X159508819Y-46085713D02*
X159651676Y-46180951D01*
X159651676Y-46180951D02*
X159746914Y-46276189D01*
X159746914Y-46276189D02*
X159794533Y-46371427D01*
X89419104Y-62261905D02*
X89419104Y-61785715D01*
X89704819Y-62357143D02*
X88704819Y-62023810D01*
X88704819Y-62023810D02*
X89704819Y-61690477D01*
X89038152Y-61357143D02*
X89704819Y-61357143D01*
X89133390Y-61357143D02*
X89085771Y-61309524D01*
X89085771Y-61309524D02*
X89038152Y-61214286D01*
X89038152Y-61214286D02*
X89038152Y-61071429D01*
X89038152Y-61071429D02*
X89085771Y-60976191D01*
X89085771Y-60976191D02*
X89181009Y-60928572D01*
X89181009Y-60928572D02*
X89704819Y-60928572D01*
X89038152Y-60595238D02*
X89038152Y-60214286D01*
X88704819Y-60452381D02*
X89561961Y-60452381D01*
X89561961Y-60452381D02*
X89657200Y-60404762D01*
X89657200Y-60404762D02*
X89704819Y-60309524D01*
X89704819Y-60309524D02*
X89704819Y-60214286D01*
X89657200Y-59500000D02*
X89704819Y-59595238D01*
X89704819Y-59595238D02*
X89704819Y-59785714D01*
X89704819Y-59785714D02*
X89657200Y-59880952D01*
X89657200Y-59880952D02*
X89561961Y-59928571D01*
X89561961Y-59928571D02*
X89181009Y-59928571D01*
X89181009Y-59928571D02*
X89085771Y-59880952D01*
X89085771Y-59880952D02*
X89038152Y-59785714D01*
X89038152Y-59785714D02*
X89038152Y-59595238D01*
X89038152Y-59595238D02*
X89085771Y-59500000D01*
X89085771Y-59500000D02*
X89181009Y-59452381D01*
X89181009Y-59452381D02*
X89276247Y-59452381D01*
X89276247Y-59452381D02*
X89371485Y-59928571D01*
X89038152Y-59023809D02*
X89704819Y-59023809D01*
X89133390Y-59023809D02*
X89085771Y-58976190D01*
X89085771Y-58976190D02*
X89038152Y-58880952D01*
X89038152Y-58880952D02*
X89038152Y-58738095D01*
X89038152Y-58738095D02*
X89085771Y-58642857D01*
X89085771Y-58642857D02*
X89181009Y-58595238D01*
X89181009Y-58595238D02*
X89704819Y-58595238D01*
X89038152Y-58119047D02*
X89704819Y-58119047D01*
X89133390Y-58119047D02*
X89085771Y-58071428D01*
X89085771Y-58071428D02*
X89038152Y-57976190D01*
X89038152Y-57976190D02*
X89038152Y-57833333D01*
X89038152Y-57833333D02*
X89085771Y-57738095D01*
X89085771Y-57738095D02*
X89181009Y-57690476D01*
X89181009Y-57690476D02*
X89704819Y-57690476D01*
X89704819Y-56785714D02*
X89181009Y-56785714D01*
X89181009Y-56785714D02*
X89085771Y-56833333D01*
X89085771Y-56833333D02*
X89038152Y-56928571D01*
X89038152Y-56928571D02*
X89038152Y-57119047D01*
X89038152Y-57119047D02*
X89085771Y-57214285D01*
X89657200Y-56785714D02*
X89704819Y-56880952D01*
X89704819Y-56880952D02*
X89704819Y-57119047D01*
X89704819Y-57119047D02*
X89657200Y-57214285D01*
X89657200Y-57214285D02*
X89561961Y-57261904D01*
X89561961Y-57261904D02*
X89466723Y-57261904D01*
X89466723Y-57261904D02*
X89371485Y-57214285D01*
X89371485Y-57214285D02*
X89323866Y-57119047D01*
X89323866Y-57119047D02*
X89323866Y-56880952D01*
X89323866Y-56880952D02*
X89276247Y-56785714D01*
X89419104Y-55595237D02*
X89419104Y-55119047D01*
X89704819Y-55690475D02*
X88704819Y-55357142D01*
X88704819Y-55357142D02*
X89704819Y-55023809D01*
X89704819Y-54690475D02*
X89038152Y-54690475D01*
X89228628Y-54690475D02*
X89133390Y-54642856D01*
X89133390Y-54642856D02*
X89085771Y-54595237D01*
X89085771Y-54595237D02*
X89038152Y-54499999D01*
X89038152Y-54499999D02*
X89038152Y-54404761D01*
X89657200Y-53690475D02*
X89704819Y-53785713D01*
X89704819Y-53785713D02*
X89704819Y-53976189D01*
X89704819Y-53976189D02*
X89657200Y-54071427D01*
X89657200Y-54071427D02*
X89561961Y-54119046D01*
X89561961Y-54119046D02*
X89181009Y-54119046D01*
X89181009Y-54119046D02*
X89085771Y-54071427D01*
X89085771Y-54071427D02*
X89038152Y-53976189D01*
X89038152Y-53976189D02*
X89038152Y-53785713D01*
X89038152Y-53785713D02*
X89085771Y-53690475D01*
X89085771Y-53690475D02*
X89181009Y-53642856D01*
X89181009Y-53642856D02*
X89276247Y-53642856D01*
X89276247Y-53642856D02*
X89371485Y-54119046D01*
X89704819Y-52785713D02*
X89181009Y-52785713D01*
X89181009Y-52785713D02*
X89085771Y-52833332D01*
X89085771Y-52833332D02*
X89038152Y-52928570D01*
X89038152Y-52928570D02*
X89038152Y-53119046D01*
X89038152Y-53119046D02*
X89085771Y-53214284D01*
X89657200Y-52785713D02*
X89704819Y-52880951D01*
X89704819Y-52880951D02*
X89704819Y-53119046D01*
X89704819Y-53119046D02*
X89657200Y-53214284D01*
X89657200Y-53214284D02*
X89561961Y-53261903D01*
X89561961Y-53261903D02*
X89466723Y-53261903D01*
X89466723Y-53261903D02*
X89371485Y-53214284D01*
X89371485Y-53214284D02*
X89323866Y-53119046D01*
X89323866Y-53119046D02*
X89323866Y-52880951D01*
X89323866Y-52880951D02*
X89276247Y-52785713D01*
D11*
X144083332Y-48621600D02*
X144197618Y-48659695D01*
X144197618Y-48659695D02*
X144388094Y-48659695D01*
X144388094Y-48659695D02*
X144464285Y-48621600D01*
X144464285Y-48621600D02*
X144502380Y-48583504D01*
X144502380Y-48583504D02*
X144540475Y-48507314D01*
X144540475Y-48507314D02*
X144540475Y-48431123D01*
X144540475Y-48431123D02*
X144502380Y-48354933D01*
X144502380Y-48354933D02*
X144464285Y-48316838D01*
X144464285Y-48316838D02*
X144388094Y-48278742D01*
X144388094Y-48278742D02*
X144235713Y-48240647D01*
X144235713Y-48240647D02*
X144159523Y-48202552D01*
X144159523Y-48202552D02*
X144121428Y-48164457D01*
X144121428Y-48164457D02*
X144083332Y-48088266D01*
X144083332Y-48088266D02*
X144083332Y-48012076D01*
X144083332Y-48012076D02*
X144121428Y-47935885D01*
X144121428Y-47935885D02*
X144159523Y-47897790D01*
X144159523Y-47897790D02*
X144235713Y-47859695D01*
X144235713Y-47859695D02*
X144426190Y-47859695D01*
X144426190Y-47859695D02*
X144540475Y-47897790D01*
X144807142Y-47859695D02*
X144997618Y-48659695D01*
X144997618Y-48659695D02*
X145149999Y-48088266D01*
X145149999Y-48088266D02*
X145302380Y-48659695D01*
X145302380Y-48659695D02*
X145492857Y-47859695D01*
X145721428Y-47859695D02*
X146216666Y-47859695D01*
X146216666Y-47859695D02*
X145950000Y-48164457D01*
X145950000Y-48164457D02*
X146064285Y-48164457D01*
X146064285Y-48164457D02*
X146140476Y-48202552D01*
X146140476Y-48202552D02*
X146178571Y-48240647D01*
X146178571Y-48240647D02*
X146216666Y-48316838D01*
X146216666Y-48316838D02*
X146216666Y-48507314D01*
X146216666Y-48507314D02*
X146178571Y-48583504D01*
X146178571Y-48583504D02*
X146140476Y-48621600D01*
X146140476Y-48621600D02*
X146064285Y-48659695D01*
X146064285Y-48659695D02*
X145835714Y-48659695D01*
X145835714Y-48659695D02*
X145759523Y-48621600D01*
X145759523Y-48621600D02*
X145721428Y-48583504D01*
D12*
X150783000Y-34838000D02*
X150795000Y-35092000D01*
X167420000Y-34838000D02*
X150783000Y-34838000D01*
X167395000Y-38178000D02*
X167420000Y-34838000D01*
X150795000Y-38178000D02*
X150795000Y-35092000D01*
X147989000Y-52999000D02*
X150402000Y-52999000D01*
X150402000Y-43220000D02*
X150402000Y-52999000D01*
X147989000Y-43220000D02*
X150402000Y-43220000D01*
X147989000Y-52999000D02*
X147989000Y-43220000D01*
X150795000Y-61278000D02*
X150795000Y-38178000D01*
X167395000Y-61278000D02*
X150795000Y-61278000D01*
X167395000Y-38178000D02*
X167395000Y-61278000D01*
X174800000Y-61700000D02*
X147500000Y-61700000D01*
X174800000Y-34300000D02*
X174800000Y-61700000D01*
X147500000Y-34300000D02*
X174800000Y-34300000D01*
X147500000Y-61700000D02*
X147500000Y-34300000D01*
X146110000Y-65108578D02*
X146110000Y-64591422D01*
X144690000Y-65108578D02*
X144690000Y-64591422D01*
X150810000Y-67036000D02*
X150810000Y-66880000D01*
X150810000Y-64720000D02*
X150810000Y-64564000D01*
X150810000Y-67035516D02*
G75*
G02*
X147578603Y-66880061I-1560000J1235516D01*
G01*
X150290961Y-66880000D02*
G75*
G02*
X148209090Y-66880049I-1040961J1080000D01*
G01*
X148209090Y-64719951D02*
G75*
G02*
X150290961Y-64720000I1040910J-1080049D01*
G01*
X147578603Y-64719939D02*
G75*
G02*
X150810000Y-64564484I1671397J-1080061D01*
G01*
X144440000Y-30591422D02*
X144440000Y-31108578D01*
X145860000Y-30591422D02*
X145860000Y-31108578D01*
X150910000Y-31186000D02*
X150910000Y-31030000D01*
X150910000Y-28870000D02*
X150910000Y-28714000D01*
X150910000Y-31185516D02*
G75*
G02*
X147678603Y-31030061I-1560000J1235516D01*
G01*
X150390961Y-31030000D02*
G75*
G02*
X148309090Y-31030049I-1040961J1080000D01*
G01*
X148309090Y-28869951D02*
G75*
G02*
X150390961Y-28870000I1040910J-1080049D01*
G01*
X147678603Y-28869939D02*
G75*
G02*
X150910000Y-28714484I1671397J-1080061D01*
G01*
X130980000Y-55980000D02*
X131980000Y-55980000D01*
X144020000Y-55980000D02*
X143020000Y-55980000D01*
X130980000Y-62020000D02*
X130980000Y-61020000D01*
X144020000Y-55980000D02*
X144020000Y-56980000D01*
X144020000Y-62020000D02*
X143020000Y-62020000D01*
X144020000Y-62020000D02*
X144020000Y-61020000D01*
X130980000Y-55980000D02*
X130980000Y-56980000D01*
X140000000Y-58100000D02*
X140000000Y-59900000D01*
X138900000Y-58100000D02*
X138900000Y-59900000D01*
X130980000Y-62020000D02*
X131980000Y-62020000D01*
X140000000Y-59900000D02*
G75*
G02*
X138900000Y-59900000I-550000J0D01*
G01*
X138900000Y-58100000D02*
G75*
G02*
X140000000Y-58100000I550000J0D01*
G01*
X130980000Y-34980000D02*
X131980000Y-34980000D01*
X144020000Y-34980000D02*
X143020000Y-34980000D01*
X130980000Y-41020000D02*
X130980000Y-40020000D01*
X144020000Y-34980000D02*
X144020000Y-35980000D01*
X144020000Y-41020000D02*
X143020000Y-41020000D01*
X144020000Y-41020000D02*
X144020000Y-40020000D01*
X130980000Y-34980000D02*
X130980000Y-35980000D01*
X140000000Y-37100000D02*
X140000000Y-38900000D01*
X138900000Y-37100000D02*
X138900000Y-38900000D01*
X130980000Y-41020000D02*
X131980000Y-41020000D01*
X140000000Y-38900000D02*
G75*
G02*
X138900000Y-38900000I-550000J0D01*
G01*
X138900000Y-37100000D02*
G75*
G02*
X140000000Y-37100000I550000J0D01*
G01*
X93340000Y-43100000D02*
X93340000Y-44900000D01*
X96560000Y-44900000D02*
X96560000Y-42450000D01*
X111750000Y-66500000D02*
X111750000Y-65500000D01*
X111750000Y-48500000D02*
X111750000Y-49500000D01*
X111000000Y-66500000D02*
X111750000Y-66500000D01*
X111000000Y-48500000D02*
X111750000Y-48500000D01*
X92250000Y-48500000D02*
X92250000Y-66500000D01*
X86250000Y-66500000D02*
X93000000Y-66500000D01*
X86250000Y-66500000D02*
X86250000Y-48500000D01*
X86250000Y-48500000D02*
X93000000Y-48500000D01*
X117538748Y-26565000D02*
X118061252Y-26565000D01*
X117538748Y-28035000D02*
X118061252Y-28035000D01*
X141100000Y-37600000D02*
X141100000Y-22400000D01*
X141100000Y-22400000D02*
X125900000Y-22400000D01*
X125900000Y-37600000D02*
X141100000Y-37600000D01*
X125900000Y-22400000D02*
X125900000Y-37600000D01*
X94840000Y-29440000D02*
X94840000Y-35860000D01*
X94840000Y-35860000D02*
X95250000Y-35860000D01*
X95250000Y-29440000D02*
X94840000Y-29440000D01*
X96850000Y-35860000D02*
X99250000Y-35860000D01*
X99250000Y-29440000D02*
X96850000Y-29440000D01*
X100850000Y-35860000D02*
X101260000Y-35860000D01*
X101260000Y-29440000D02*
X100980000Y-29440000D01*
X101260000Y-35860000D02*
X101260000Y-29440000D01*
D11*
X125000000Y-41500000D02*
X125000000Y-43500000D01*
X125000000Y-53500000D02*
X125000000Y-55500000D01*
X125000000Y-55500000D02*
X140400000Y-55500000D01*
X125600000Y-41500000D02*
X125000000Y-41500000D01*
X140400000Y-41500000D02*
X129500000Y-41500000D01*
D12*
X97265000Y-44311252D02*
X97265000Y-43788748D01*
X98735000Y-44311252D02*
X98735000Y-43788748D01*
X100150000Y-71825000D02*
X100150000Y-75225000D01*
X100900000Y-71075000D02*
X101750000Y-71075000D01*
X100900000Y-75975000D02*
X105700000Y-75975000D01*
X101150000Y-71825000D02*
X101150000Y-74825000D01*
X101400000Y-71575000D02*
X102400000Y-71575000D01*
X101400000Y-75075000D02*
X102675000Y-75075000D01*
X102350000Y-71075000D02*
X105700000Y-71075000D01*
X102400000Y-71575000D02*
X102400000Y-71975000D01*
X102400000Y-71975000D02*
X104200000Y-71975000D01*
X102675000Y-75075000D02*
X102675000Y-75475000D01*
X102675000Y-75475000D02*
X103925000Y-75475000D01*
X103925000Y-75075000D02*
X105200000Y-75075000D01*
X103925000Y-75475000D02*
X103925000Y-75075000D01*
X104200000Y-71575000D02*
X105200000Y-71575000D01*
X104200000Y-71975000D02*
X104200000Y-71575000D01*
X105450000Y-71825000D02*
X105450000Y-74825000D01*
X106450000Y-71825000D02*
X106450000Y-75225000D01*
X100150000Y-71825000D02*
G75*
G02*
X100900000Y-71075000I750000J0D01*
G01*
X100900000Y-75975000D02*
G75*
G02*
X100150000Y-75225000I0J750000D01*
G01*
X101150000Y-71825000D02*
G75*
G02*
X101400000Y-71575000I249999J1D01*
G01*
X101400000Y-75075000D02*
G75*
G02*
X101150000Y-74825000I-1J249999D01*
G01*
X105200000Y-71575000D02*
G75*
G02*
X105450000Y-71825000I0J-250000D01*
G01*
X105450000Y-74825000D02*
G75*
G02*
X105200000Y-75075000I-250000J0D01*
G01*
X105700000Y-71075000D02*
G75*
G02*
X106450000Y-71825000I0J-750000D01*
G01*
X106450000Y-75225000D02*
G75*
G02*
X105700000Y-75975000I-750000J0D01*
G01*
X102050000Y-71070000D02*
X101710000Y-70600000D01*
X102390000Y-70600000D01*
X102050000Y-71070000D01*
G36*
X102050000Y-71070000D02*
G01*
X101710000Y-70600000D01*
X102390000Y-70600000D01*
X102050000Y-71070000D01*
G37*
X104065000Y-69511252D02*
X104065000Y-68988748D01*
X105535000Y-69511252D02*
X105535000Y-68988748D01*
X113277064Y-44115000D02*
X112822936Y-44115000D01*
X113277064Y-45585000D02*
X112822936Y-45585000D01*
X99815000Y-69477064D02*
X99815000Y-69022936D01*
X101285000Y-69477064D02*
X101285000Y-69022936D01*
X109761252Y-22265000D02*
X109238748Y-22265000D01*
X109761252Y-23735000D02*
X109238748Y-23735000D01*
X115522500Y-24100000D02*
X115522500Y-23300000D01*
X115522500Y-24100000D02*
X115522500Y-24900000D01*
X112402500Y-24100000D02*
X112402500Y-23300000D01*
X112402500Y-24100000D02*
X112402500Y-24900000D01*
X115802500Y-23040000D02*
X115472500Y-22800000D01*
X115802500Y-22560000D01*
X115802500Y-23040000D01*
G36*
X115802500Y-23040000D02*
G01*
X115472500Y-22800000D01*
X115802500Y-22560000D01*
X115802500Y-23040000D01*
G37*
X114685000Y-47622936D02*
X114685000Y-48077064D01*
X113215000Y-47622936D02*
X113215000Y-48077064D01*
X122511252Y-43765000D02*
X121988748Y-43765000D01*
X122511252Y-45235000D02*
X121988748Y-45235000D01*
X117538748Y-25935000D02*
X118061252Y-25935000D01*
X117538748Y-24465000D02*
X118061252Y-24465000D01*
X93265000Y-39761252D02*
X93265000Y-39238748D01*
X94735000Y-39761252D02*
X94735000Y-39238748D01*
X92915000Y-34338748D02*
X92915000Y-34861252D01*
X94385000Y-34338748D02*
X94385000Y-34861252D01*
X103385000Y-68988748D02*
X103385000Y-69511252D01*
X101915000Y-68988748D02*
X101915000Y-69511252D01*
X121988748Y-45765000D02*
X122511252Y-45765000D01*
X121988748Y-47235000D02*
X122511252Y-47235000D01*
X117127064Y-41715000D02*
X116672936Y-41715000D01*
X117127064Y-43185000D02*
X116672936Y-43185000D01*
X117185000Y-48148752D02*
X117185000Y-47626248D01*
X115715000Y-48148752D02*
X115715000Y-47626248D01*
X141100000Y-73600000D02*
X141100000Y-58400000D01*
X141100000Y-58400000D02*
X125900000Y-58400000D01*
X125900000Y-73600000D02*
X141100000Y-73600000D01*
X125900000Y-58400000D02*
X125900000Y-73600000D01*
D13*
X99400000Y-25146000D02*
X99400000Y-20654000D01*
X99754000Y-20490000D02*
X107346000Y-20490000D01*
X107346000Y-25510000D02*
X99854000Y-25510000D01*
X107600000Y-20854000D02*
X107600000Y-25346000D01*
X99400000Y-20654000D02*
G75*
G02*
X99754000Y-20490000I258954J-94900D01*
G01*
X99854000Y-25510000D02*
G75*
G02*
X99400000Y-25146000I-45000J409000D01*
G01*
X107346000Y-20490000D02*
G75*
G02*
X107600001Y-20854001I-54900J-308931D01*
G01*
X107600000Y-25346000D02*
G75*
G02*
X107346000Y-25510000I-209000J45000D01*
G01*
X105870000Y-23000000D02*
G75*
G02*
X101130000Y-23000000I-2370000J0D01*
G01*
X101130000Y-23000000D02*
G75*
G02*
X105870000Y-23000000I2370000J0D01*
G01*
D14*
X118715000Y-28225000D02*
G75*
G02*
X118315000Y-28225000I-200000J0D01*
G01*
X118315000Y-28225000D02*
G75*
G02*
X118715000Y-28225000I200000J0D01*
G01*
%LPC*%
D15*
X149200000Y-44300000D03*
X149200000Y-46840000D03*
X149200000Y-51920000D03*
X149200000Y-49380000D03*
D16*
X145400000Y-65787500D03*
X145400000Y-63912500D03*
D17*
X150520000Y-65800000D03*
D18*
X147980000Y-65800000D03*
D19*
X145150000Y-29912500D03*
X145150000Y-31787500D03*
D17*
X150620000Y-29950000D03*
D18*
X148080000Y-29950000D03*
D20*
X142580000Y-59000000D03*
X137500000Y-59000000D03*
X132420000Y-59000000D03*
X142580000Y-38000000D03*
X137500000Y-38000000D03*
X132420000Y-38000000D03*
X109700000Y-74000000D03*
D21*
X112240000Y-74000000D03*
X114780000Y-74000000D03*
X117320000Y-74000000D03*
D22*
X148500000Y-72000000D03*
D23*
X95900000Y-42900000D03*
X94950000Y-42900000D03*
X94000000Y-42900000D03*
X94000000Y-45100000D03*
X95900000Y-45100000D03*
D22*
X148500000Y-24000000D03*
X95500000Y-72000000D03*
X95500000Y-24000000D03*
D24*
X100590000Y-57360000D03*
X99090000Y-57360000D03*
X97590000Y-57360000D03*
X100590000Y-58860000D03*
X99090000Y-58860000D03*
X97590000Y-58860000D03*
X97590000Y-58860000D03*
X100590000Y-60360000D03*
X99090000Y-60360000D03*
X99090000Y-60360000D03*
X97590000Y-60360000D03*
D25*
X93740000Y-48750000D03*
X95010000Y-48750000D03*
X96280000Y-48750000D03*
X97550000Y-48750000D03*
X98820000Y-48750000D03*
X100090000Y-48750000D03*
X101360000Y-48750000D03*
X102630000Y-48750000D03*
X103900000Y-48750000D03*
X105170000Y-48750000D03*
X106440000Y-48750000D03*
X107710000Y-48750000D03*
X108980000Y-48750000D03*
X110250000Y-48750000D03*
D26*
X111500000Y-50515000D03*
X111500000Y-51785000D03*
X111500000Y-53055000D03*
X111500000Y-54325000D03*
X111500000Y-55595000D03*
X111500000Y-56865000D03*
X111500000Y-58135000D03*
X111500000Y-59405000D03*
X111500000Y-60675000D03*
X111500000Y-61945000D03*
X111500000Y-63215000D03*
X111500000Y-64485000D03*
D25*
X110250000Y-66250000D03*
X108980000Y-66250000D03*
X107710000Y-66250000D03*
X106440000Y-66250000D03*
X105170000Y-66250000D03*
X103900000Y-66250000D03*
X102630000Y-66250000D03*
X101360000Y-66250000D03*
X100090000Y-66250000D03*
X98820000Y-66250000D03*
X97550000Y-66250000D03*
X96280000Y-66250000D03*
X95010000Y-66250000D03*
X93740000Y-66250000D03*
D27*
X116850000Y-27300000D03*
X118750000Y-27300000D03*
D28*
X133500000Y-35500000D03*
D29*
X137300000Y-35000000D03*
D30*
X133500000Y-30000000D03*
D29*
X139400000Y-30000000D03*
D31*
X128350000Y-25000000D03*
D28*
X133500000Y-24500000D03*
D32*
X96050000Y-35550000D03*
X96050000Y-29750000D03*
X100050000Y-35550000D03*
X100050000Y-29750000D03*
D33*
X127875000Y-54300000D03*
D31*
X127875000Y-44190000D03*
X127875000Y-46730000D03*
X127875000Y-49270000D03*
X127875000Y-51810000D03*
X126650000Y-41800000D03*
X128500000Y-41800000D03*
D34*
X98000000Y-45000000D03*
X98000000Y-43100000D03*
D35*
X102050000Y-72900000D03*
D36*
X103300000Y-72900000D03*
X104550000Y-72900000D03*
X102050000Y-74150000D03*
X103300000Y-74150000D03*
X104550000Y-74150000D03*
D34*
X104800000Y-70200000D03*
X104800000Y-68300000D03*
D37*
X113962500Y-44850000D03*
X112137500Y-44850000D03*
D38*
X100550000Y-70162500D03*
X100550000Y-68337500D03*
D39*
X110450000Y-23000000D03*
X108550000Y-23000000D03*
D40*
X114912500Y-22962500D03*
X113962500Y-22962500D03*
X113012500Y-22962500D03*
X113012500Y-25237500D03*
X114912500Y-25237500D03*
D41*
X113950000Y-46937500D03*
X113950000Y-48762500D03*
D39*
X123200000Y-44500000D03*
X121300000Y-44500000D03*
D27*
X116850000Y-25200000D03*
X118750000Y-25200000D03*
D34*
X94000000Y-40450000D03*
X94000000Y-38550000D03*
D42*
X93650000Y-33650000D03*
X93650000Y-35550000D03*
X102650000Y-68300000D03*
X102650000Y-70200000D03*
D27*
X121300000Y-46500000D03*
X123200000Y-46500000D03*
D37*
X117812500Y-42450000D03*
X115987500Y-42450000D03*
D34*
X116450000Y-48837500D03*
X116450000Y-46937500D03*
D28*
X133500000Y-71500000D03*
D29*
X137300000Y-71000000D03*
D30*
X133500000Y-66000000D03*
D29*
X139400000Y-66000000D03*
D31*
X128350000Y-61000000D03*
D28*
X133500000Y-60500000D03*
D43*
X106040000Y-23000000D03*
X103500000Y-23000000D03*
X100960000Y-23000000D03*
D44*
X117625000Y-40150000D03*
X115845000Y-40150000D03*
X114065000Y-40150000D03*
X112285000Y-40150000D03*
X110505000Y-40150000D03*
X108725000Y-40150000D03*
X106945000Y-40150000D03*
X105165000Y-40150000D03*
X106055000Y-29450000D03*
X107835000Y-29450000D03*
X109615000Y-29450000D03*
X111395000Y-29450000D03*
X113175000Y-29450000D03*
X114955000Y-29450000D03*
X116735000Y-29450000D03*
D45*
X118515000Y-29450000D03*
%LPD*%
M02*
