%TF.GenerationSoftware,KiCad,Pcbnew,8.0.7*%
%TF.CreationDate,2025-01-13T13:49:23+01:00*%
%TF.ProjectId,Trackball,54726163-6b62-4616-9c6c-2e6b69636164,rev?*%
%TF.SameCoordinates,Original*%
%TF.FileFunction,Legend,Bot*%
%TF.FilePolarity,Positive*%
%FSLAX46Y46*%
G04 Gerber Fmt 4.6, Leading zero omitted, Abs format (unit mm)*
G04 Created by KiCad (PCBNEW 8.0.7) date 2025-01-13 13:49:23*
%MOMM*%
%LPD*%
G01*
G04 APERTURE LIST*
G04 Aperture macros list*
%AMRoundRect*
0 Rectangle with rounded corners*
0 $1 Rounding radius*
0 $2 $3 $4 $5 $6 $7 $8 $9 X,Y pos of 4 corners*
0 Add a 4 corners polygon primitive as box body*
4,1,4,$2,$3,$4,$5,$6,$7,$8,$9,$2,$3,0*
0 Add four circle primitives for the rounded corners*
1,1,$1+$1,$2,$3*
1,1,$1+$1,$4,$5*
1,1,$1+$1,$6,$7*
1,1,$1+$1,$8,$9*
0 Add four rect primitives between the rounded corners*
20,1,$1+$1,$2,$3,$4,$5,0*
20,1,$1+$1,$4,$5,$6,$7,0*
20,1,$1+$1,$6,$7,$8,$9,0*
20,1,$1+$1,$8,$9,$2,$3,0*%
G04 Aperture macros list end*
%ADD10C,0.120000*%
%ADD11O,2.000000X1.600000*%
%ADD12R,1.800000X1.800000*%
%ADD13C,1.800000*%
%ADD14C,1.700000*%
%ADD15O,1.700000X1.700000*%
%ADD16C,3.200000*%
%ADD17RoundRect,0.250000X-1.000000X1.025000X-1.000000X-1.025000X1.000000X-1.025000X1.000000X1.025000X0*%
%ADD18C,1.900000*%
%ADD19C,3.050000*%
%ADD20C,5.050000*%
%ADD21C,1.600000*%
%ADD22R,1.000000X2.800000*%
%ADD23C,1.500000*%
%ADD24R,0.950000X0.950000*%
%ADD25C,0.950000*%
%ADD26C,1.651000*%
%ADD27C,1.200000*%
%ADD28R,1.200000X1.200000*%
G04 APERTURE END LIST*
D10*
X141846000Y-31268000D02*
X141766000Y-31671000D01*
X141846000Y-28521000D02*
X141846000Y-31268000D01*
X141766000Y-31671000D02*
X141537000Y-32013000D01*
X141537000Y-32013000D02*
X141004000Y-32546000D01*
X141004000Y-32546000D02*
X140782000Y-32546000D01*
X140909000Y-27584000D02*
X141846000Y-28521000D01*
X140782000Y-32546000D02*
X140344000Y-32633000D01*
X140344000Y-32633000D02*
X139977000Y-32877000D01*
X139977000Y-32877000D02*
X139733000Y-33244000D01*
X139733000Y-33244000D02*
X139646000Y-33682000D01*
X139646000Y-36482000D02*
X139581000Y-36809000D01*
X139646000Y-33682000D02*
X139646000Y-36482000D01*
X139581000Y-36809000D02*
X139392000Y-37092000D01*
X139392000Y-37092000D02*
X139109000Y-37281000D01*
X139109000Y-37281000D02*
X138682000Y-37366000D01*
X137054000Y-31168000D02*
X137054000Y-28521000D01*
X137054000Y-28521000D02*
X138075000Y-27500000D01*
X136949000Y-31730000D02*
X137054000Y-31168000D01*
X136650000Y-32209000D02*
X136949000Y-31730000D01*
X136197000Y-32547000D02*
X136650000Y-32209000D01*
X135796000Y-37646000D02*
X134854000Y-37646000D01*
X135796000Y-37283000D02*
X135796000Y-37646000D01*
X135639000Y-32701000D02*
X136197000Y-32547000D01*
X135341000Y-32783000D02*
X135639000Y-32701000D01*
X135083000Y-32976000D02*
X135341000Y-32783000D01*
X134913000Y-33250000D02*
X135083000Y-32976000D01*
X134854000Y-37646000D02*
X134854000Y-33560000D01*
X134854000Y-33560000D02*
X134913000Y-33250000D01*
X95250000Y-29440000D02*
X94840000Y-29440000D01*
X99250000Y-29440000D02*
X96850000Y-29440000D01*
X101260000Y-29440000D02*
X100850000Y-29440000D01*
X101260000Y-35860000D02*
X101260000Y-29440000D01*
X94840000Y-29440000D02*
X94840000Y-35860000D01*
X94840000Y-35860000D02*
X95250000Y-35860000D01*
X96850000Y-35860000D02*
X99250000Y-35860000D01*
X100980000Y-35860000D02*
X101260000Y-35860000D01*
X141846000Y-67268000D02*
X141766000Y-67671000D01*
X141846000Y-64521000D02*
X141846000Y-67268000D01*
X141766000Y-67671000D02*
X141537000Y-68013000D01*
X141537000Y-68013000D02*
X141004000Y-68546000D01*
X141004000Y-68546000D02*
X140782000Y-68546000D01*
X140909000Y-63584000D02*
X141846000Y-64521000D01*
X140782000Y-68546000D02*
X140344000Y-68633000D01*
X140344000Y-68633000D02*
X139977000Y-68877000D01*
X139977000Y-68877000D02*
X139733000Y-69244000D01*
X139733000Y-69244000D02*
X139646000Y-69682000D01*
X139646000Y-72482000D02*
X139581000Y-72809000D01*
X139646000Y-69682000D02*
X139646000Y-72482000D01*
X139581000Y-72809000D02*
X139392000Y-73092000D01*
X139392000Y-73092000D02*
X139109000Y-73281000D01*
X139109000Y-73281000D02*
X138682000Y-73366000D01*
X137054000Y-67168000D02*
X137054000Y-64521000D01*
X137054000Y-64521000D02*
X138075000Y-63500000D01*
X136949000Y-67730000D02*
X137054000Y-67168000D01*
X136650000Y-68209000D02*
X136949000Y-67730000D01*
X136197000Y-68547000D02*
X136650000Y-68209000D01*
X135796000Y-73646000D02*
X134854000Y-73646000D01*
X135796000Y-73283000D02*
X135796000Y-73646000D01*
X135639000Y-68701000D02*
X136197000Y-68547000D01*
X135341000Y-68783000D02*
X135639000Y-68701000D01*
X135083000Y-68976000D02*
X135341000Y-68783000D01*
X134913000Y-69250000D02*
X135083000Y-68976000D01*
X134854000Y-73646000D02*
X134854000Y-69560000D01*
X134854000Y-69560000D02*
X134913000Y-69250000D01*
%LPC*%
D11*
X149200000Y-44300000D03*
X149200000Y-46840000D03*
X149200000Y-51920000D03*
X149200000Y-49380000D03*
D12*
X150520000Y-65800000D03*
D13*
X147980000Y-65800000D03*
D12*
X150620000Y-29950000D03*
D13*
X148080000Y-29950000D03*
D14*
X142580000Y-59000000D03*
X137500000Y-59000000D03*
X132420000Y-59000000D03*
X142580000Y-38000000D03*
X137500000Y-38000000D03*
X132420000Y-38000000D03*
X109700000Y-74000000D03*
D15*
X112240000Y-74000000D03*
X114780000Y-74000000D03*
X117320000Y-74000000D03*
D16*
X148500000Y-72000000D03*
X148500000Y-24000000D03*
X95500000Y-72000000D03*
X95500000Y-24000000D03*
D17*
X137300000Y-38500000D03*
X139500000Y-26500000D03*
D18*
X133500000Y-35500000D03*
D19*
X137300000Y-35000000D03*
D20*
X133500000Y-30000000D03*
D19*
X139400000Y-30000000D03*
D21*
X128350000Y-25000000D03*
D18*
X133500000Y-24500000D03*
D22*
X96050000Y-29750000D03*
X96050000Y-35550000D03*
X100050000Y-29750000D03*
X100050000Y-35550000D03*
D23*
X127875000Y-54300000D03*
D21*
X127875000Y-44190000D03*
X127875000Y-46730000D03*
X127875000Y-49270000D03*
X127875000Y-51810000D03*
X126650000Y-41800000D03*
X128500000Y-41800000D03*
D24*
X102050000Y-72900000D03*
D25*
X103300000Y-72900000D03*
X104550000Y-72900000D03*
X102050000Y-74150000D03*
X103300000Y-74150000D03*
X104550000Y-74150000D03*
D17*
X137300000Y-74500000D03*
X139500000Y-62500000D03*
D18*
X133500000Y-71500000D03*
D19*
X137300000Y-71000000D03*
D20*
X133500000Y-66000000D03*
D19*
X139400000Y-66000000D03*
D21*
X128350000Y-61000000D03*
D18*
X133500000Y-60500000D03*
D26*
X106040000Y-23000000D03*
X103500000Y-23000000D03*
X100960000Y-23000000D03*
D27*
X117625000Y-40150000D03*
X115845000Y-40150000D03*
X114065000Y-40150000D03*
X112285000Y-40150000D03*
X110505000Y-40150000D03*
X108725000Y-40150000D03*
X106945000Y-40150000D03*
X105165000Y-40150000D03*
X106055000Y-29450000D03*
X107835000Y-29450000D03*
X109615000Y-29450000D03*
X111395000Y-29450000D03*
X113175000Y-29450000D03*
X114955000Y-29450000D03*
X116735000Y-29450000D03*
D28*
X118515000Y-29450000D03*
%LPD*%
M02*
