%TF.GenerationSoftware,KiCad,Pcbnew,8.0.8*%
%TF.CreationDate,2025-02-01T16:26:25+01:00*%
%TF.ProjectId,Trackball,54726163-6b62-4616-9c6c-2e6b69636164,rev?*%
%TF.SameCoordinates,Original*%
%TF.FileFunction,Soldermask,Top*%
%TF.FilePolarity,Negative*%
%FSLAX46Y46*%
G04 Gerber Fmt 4.6, Leading zero omitted, Abs format (unit mm)*
G04 Created by KiCad (PCBNEW 8.0.8) date 2025-02-01 16:26:25*
%MOMM*%
%LPD*%
G01*
G04 APERTURE LIST*
G04 Aperture macros list*
%AMRoundRect*
0 Rectangle with rounded corners*
0 $1 Rounding radius*
0 $2 $3 $4 $5 $6 $7 $8 $9 X,Y pos of 4 corners*
0 Add a 4 corners polygon primitive as box body*
4,1,4,$2,$3,$4,$5,$6,$7,$8,$9,$2,$3,0*
0 Add four circle primitives for the rounded corners*
1,1,$1+$1,$2,$3*
1,1,$1+$1,$4,$5*
1,1,$1+$1,$6,$7*
1,1,$1+$1,$8,$9*
0 Add four rect primitives between the rounded corners*
20,1,$1+$1,$2,$3,$4,$5,0*
20,1,$1+$1,$4,$5,$6,$7,0*
20,1,$1+$1,$6,$7,$8,$9,0*
20,1,$1+$1,$8,$9,$2,$3,0*%
G04 Aperture macros list end*
%ADD10C,1.700000*%
%ADD11RoundRect,0.625000X0.875000X-0.625000X0.875000X0.625000X-0.875000X0.625000X-0.875000X-0.625000X0*%
%ADD12O,1.700000X1.400000*%
%ADD13O,1.700000X1.700000*%
%ADD14C,3.200000*%
%ADD15R,1.060000X0.650000*%
%ADD16R,2.000000X1.200000*%
%ADD17O,2.000000X1.200000*%
%ADD18RoundRect,0.250000X-0.600000X-0.600000X0.600000X-0.600000X0.600000X0.600000X-0.600000X0.600000X0*%
%ADD19R,1.800000X1.800000*%
%ADD20C,1.800000*%
%ADD21R,1.500000X0.900000*%
%ADD22R,0.900000X1.500000*%
%ADD23R,0.900000X0.900000*%
%ADD24RoundRect,0.250000X0.250000X0.475000X-0.250000X0.475000X-0.250000X-0.475000X0.250000X-0.475000X0*%
%ADD25R,1.500000X1.500000*%
%ADD26RoundRect,0.250000X-0.250000X-0.475000X0.250000X-0.475000X0.250000X0.475000X-0.250000X0.475000X0*%
%ADD27R,0.950000X0.950000*%
%ADD28C,0.950000*%
%ADD29RoundRect,0.250000X-0.262500X-0.450000X0.262500X-0.450000X0.262500X0.450000X-0.262500X0.450000X0*%
%ADD30RoundRect,0.250000X0.475000X-0.250000X0.475000X0.250000X-0.475000X0.250000X-0.475000X-0.250000X0*%
%ADD31RoundRect,0.250000X0.262500X0.450000X-0.262500X0.450000X-0.262500X-0.450000X0.262500X-0.450000X0*%
%ADD32RoundRect,0.250000X0.450000X-0.262500X0.450000X0.262500X-0.450000X0.262500X-0.450000X-0.262500X0*%
%ADD33RoundRect,0.150000X-0.512500X-0.150000X0.512500X-0.150000X0.512500X0.150000X-0.512500X0.150000X0*%
%ADD34RoundRect,0.243750X0.243750X0.456250X-0.243750X0.456250X-0.243750X-0.456250X0.243750X-0.456250X0*%
%ADD35O,2.000000X1.600000*%
%ADD36RoundRect,0.243750X-0.243750X-0.456250X0.243750X-0.456250X0.243750X0.456250X-0.243750X0.456250X0*%
G04 APERTURE END LIST*
D10*
X123050000Y-26990000D03*
X123050000Y-32070000D03*
X123050000Y-37150000D03*
X113050000Y-27340000D03*
X113050000Y-32420000D03*
X113050000Y-37500000D03*
D11*
X91050000Y-34970000D03*
X91050000Y-25970000D03*
D12*
X93050000Y-32970000D03*
X93050000Y-30470000D03*
X93050000Y-27970000D03*
D10*
X125050000Y-80840000D03*
D13*
X125050000Y-78300000D03*
X125050000Y-75760000D03*
X125050000Y-73220000D03*
D14*
X123050000Y-21550000D03*
D15*
X119550000Y-67750000D03*
X119550000Y-66800000D03*
X119550000Y-65850000D03*
X117350000Y-65850000D03*
X117350000Y-67750000D03*
D14*
X83050000Y-21550000D03*
D16*
X97700000Y-53735000D03*
D17*
X97700000Y-55515000D03*
X97700000Y-57295000D03*
X97700000Y-59075000D03*
X97700000Y-60855000D03*
X97700000Y-62635000D03*
X97700000Y-64415000D03*
X97700000Y-66195000D03*
X108400000Y-67085000D03*
X108400000Y-65305000D03*
X108400000Y-63525000D03*
X108400000Y-61745000D03*
X108400000Y-59965000D03*
X108400000Y-58185000D03*
X108400000Y-56405000D03*
X108400000Y-54625000D03*
D14*
X123050000Y-87650000D03*
X83050000Y-87650000D03*
D18*
X118550000Y-47720000D03*
D10*
X121090000Y-47720000D03*
X118550000Y-50260000D03*
X121090000Y-50260000D03*
X118550000Y-52800000D03*
X121090000Y-52800000D03*
X118550000Y-55340000D03*
X121090000Y-55340000D03*
D19*
X112300000Y-19560000D03*
D20*
X112300000Y-22100000D03*
D21*
X111800000Y-89860000D03*
X111800000Y-88590000D03*
X111800000Y-87320000D03*
X111800000Y-86050000D03*
X111800000Y-84780000D03*
X111800000Y-83510000D03*
X111800000Y-82240000D03*
X111800000Y-80970000D03*
X111800000Y-79700000D03*
X111800000Y-78430000D03*
X111800000Y-77160000D03*
X111800000Y-75890000D03*
X111800000Y-74620000D03*
X111800000Y-73350000D03*
D22*
X110035000Y-72100000D03*
X108765000Y-72100000D03*
X107495000Y-72100000D03*
X106225000Y-72100000D03*
X104955000Y-72100000D03*
X103685000Y-72100000D03*
X102415000Y-72100000D03*
X101145000Y-72100000D03*
X99875000Y-72100000D03*
X98605000Y-72100000D03*
X97335000Y-72100000D03*
X96065000Y-72100000D03*
D21*
X94300000Y-73350000D03*
X94300000Y-74620000D03*
X94300000Y-75890000D03*
X94300000Y-77160000D03*
X94300000Y-78430000D03*
X94300000Y-79700000D03*
X94300000Y-80970000D03*
X94300000Y-82240000D03*
X94300000Y-83510000D03*
X94300000Y-84780000D03*
X94300000Y-86050000D03*
X94300000Y-87320000D03*
X94300000Y-88590000D03*
X94300000Y-89860000D03*
D23*
X105950000Y-83540000D03*
X105950000Y-82140000D03*
X105950000Y-80740000D03*
X105950000Y-80740000D03*
X104550000Y-83540000D03*
X104550000Y-83540000D03*
X104550000Y-82140000D03*
X104550000Y-80740000D03*
X103150000Y-83540000D03*
X103150000Y-82140000D03*
X103150000Y-80740000D03*
D24*
X93250000Y-54550000D03*
X91350000Y-54550000D03*
D25*
X86950000Y-68050000D03*
X79150000Y-68050000D03*
X86900000Y-63700000D03*
X79100000Y-63700000D03*
D26*
X117600000Y-72050000D03*
X119500000Y-72050000D03*
D27*
X82750000Y-80950000D03*
D28*
X82750000Y-79700000D03*
X82750000Y-78450000D03*
X84000000Y-80950000D03*
X84000000Y-79700000D03*
X84000000Y-78450000D03*
D29*
X88887500Y-86300000D03*
X90712500Y-86300000D03*
D30*
X117800000Y-89000000D03*
X117800000Y-87100000D03*
D31*
X113462500Y-61800000D03*
X111637500Y-61800000D03*
D19*
X93850000Y-19680000D03*
D20*
X93850000Y-22220000D03*
D32*
X115300000Y-88962500D03*
X115300000Y-87137500D03*
D24*
X119500000Y-69800000D03*
X117600000Y-69800000D03*
D29*
X91387500Y-67300000D03*
X93212500Y-67300000D03*
D33*
X91162500Y-58850000D03*
X91162500Y-59800000D03*
X91162500Y-60750000D03*
X93437500Y-60750000D03*
X93437500Y-58850000D03*
D31*
X93212500Y-62800000D03*
X91387500Y-62800000D03*
D24*
X93250000Y-56750000D03*
X91350000Y-56750000D03*
X119450000Y-63800000D03*
X117550000Y-63800000D03*
X93250000Y-65050000D03*
X91350000Y-65050000D03*
D34*
X117737500Y-22250000D03*
X115862500Y-22250000D03*
D10*
X83050000Y-26990000D03*
X83050000Y-32070000D03*
X83050000Y-37150000D03*
D31*
X93212500Y-52300000D03*
X91387500Y-52300000D03*
D35*
X125800000Y-60220000D03*
X125800000Y-62760000D03*
X125800000Y-65300000D03*
X125800000Y-67840000D03*
D36*
X88512500Y-22150000D03*
X90387500Y-22150000D03*
D31*
X90712500Y-88550000D03*
X88887500Y-88550000D03*
M02*
