M48
; DRILL file {KiCad 8.0.7} date 2025-01-14T08:36:23+0100
; FORMAT={-:-/ absolute / inch / decimal}
; #@! TF.CreationDate,2025-01-14T08:36:23+01:00
; #@! TF.GenerationSoftware,Kicad,Pcbnew,8.0.7
; #@! TF.FileFunction,Plated,1,2,PTH
FMAT,2
INCH
; #@! TA.AperFunction,Plated,PTH,ViaDrill
T1C0.0138
; #@! TA.AperFunction,Plated,PTH,ComponentDrill
T2C0.0217
; #@! TA.AperFunction,Plated,PTH,ComponentDrill
T3C0.0276
; #@! TA.AperFunction,Plated,PTH,ComponentDrill
T4C0.0350
; #@! TA.AperFunction,Plated,PTH,ComponentDrill
T5C0.0354
; #@! TA.AperFunction,Plated,PTH,ComponentDrill
T6C0.0394
%
G90
G05
T1
X3.6767Y-1.4544
X3.6814Y-2.0051
X3.6846Y-0.8592
X3.6846Y-1.0411
X3.6846Y-1.1018
X3.6846Y-1.1624
X3.6846Y-1.223
X3.6846Y-1.2836
X3.6846Y-2.6781
X3.6846Y-2.7388
X3.6846Y-2.9207
X3.7453Y-0.8592
X3.7453Y-1.0411
X3.7453Y-1.2836
X3.7453Y-2.7388
X3.7453Y-2.9207
X3.8059Y-0.8592
X3.8059Y-1.0411
X3.8059Y-1.6474
X3.8059Y-2.9207
X3.8166Y-1.5466
X3.8346Y-2.6905
X3.8421Y-2.2583
X3.8421Y-2.3173
X3.8421Y-2.3764
X3.8633Y-1.8612
X3.8665Y-0.8592
X3.8665Y-0.9199
X3.8665Y-0.9805
X3.8665Y-2.0718
X3.8665Y-2.1325
X3.8665Y-2.1931
X3.8665Y-2.4356
X3.8665Y-2.4962
X3.8665Y-2.86
X3.8665Y-2.9207
X3.9012Y-2.2583
X3.9012Y-2.3173
X3.9012Y-2.3764
X3.9075Y-1.8612
X3.9218Y-1.7754
X3.9272Y-0.8592
X3.9272Y-1.2836
X3.9272Y-2.0718
X3.9272Y-2.1325
X3.9272Y-2.1931
X3.9272Y-2.4356
X3.9272Y-2.4962
X3.9272Y-2.5569
X3.9272Y-2.9207
X3.9398Y-1.9811
X3.9602Y-2.2583
X3.9602Y-2.3173
X3.9602Y-2.3764
X3.9878Y-1.1018
X3.9878Y-1.1624
X3.9878Y-1.223
X3.9878Y-1.2836
X3.9878Y-1.3443
X3.9878Y-1.4049
X3.9878Y-1.4655
X3.9878Y-1.5262
X3.9878Y-1.5868
X3.9878Y-1.6474
X3.9878Y-2.0718
X3.9878Y-2.1325
X3.9878Y-2.1931
X3.9878Y-2.4356
X3.9878Y-2.4962
X3.9878Y-2.5569
X3.9921Y-1.9791
X4.0484Y-1.0411
X4.0484Y-1.1018
X4.0484Y-1.1624
X4.0484Y-1.223
X4.0484Y-1.2836
X4.0484Y-1.3443
X4.0484Y-1.4049
X4.0484Y-1.4655
X4.0484Y-1.5262
X4.0484Y-1.5868
X4.0484Y-2.0718
X4.0484Y-2.1325
X4.0484Y-2.1931
X4.0484Y-2.2537
X4.0484Y-2.3144
X4.0484Y-2.375
X4.0484Y-2.4356
X4.0484Y-2.4962
X4.0484Y-2.5569
X4.1091Y-1.0411
X4.1091Y-1.1018
X4.1091Y-1.1624
X4.1091Y-2.0718
X4.1091Y-2.1325
X4.1091Y-2.1931
X4.1091Y-2.2537
X4.1091Y-2.3144
X4.1091Y-2.4356
X4.1091Y-2.4962
X4.1091Y-2.5569
X4.1201Y-1.8473
X4.1697Y-2.0718
X4.1697Y-2.1325
X4.1697Y-2.1931
X4.1697Y-2.2537
X4.1697Y-2.3144
X4.1697Y-2.4356
X4.1697Y-2.4962
X4.1811Y-2.811
X4.2303Y-0.8592
X4.2303Y-0.9805
X4.2303Y-1.1018
X4.2303Y-2.0718
X4.2303Y-2.1325
X4.2303Y-2.1931
X4.2303Y-2.2537
X4.2303Y-2.3144
X4.2303Y-2.375
X4.2303Y-2.4356
X4.2303Y-2.7994
X4.2303Y-2.86
X4.2627Y-1.9871
X4.2909Y-2.0718
X4.2909Y-2.1325
X4.2909Y-2.1931
X4.2909Y-2.2537
X4.2909Y-2.3144
X4.2909Y-2.375
X4.2909Y-2.4356
X4.2909Y-2.7994
X4.2909Y-2.86
X4.3276Y-2.5472
X4.3294Y-2.5158
X4.3319Y-2.4844
X4.3516Y-0.9805
X4.3516Y-1.0411
X4.3516Y-2.86
X4.3744Y-1.7657
X4.4122Y-0.8592
X4.4122Y-0.9199
X4.4122Y-0.9805
X4.4122Y-1.9506
X4.4122Y-2.6175
X4.4122Y-2.6781
X4.4122Y-2.7388
X4.4458Y-1.8817
X4.4585Y-2.5663
X4.4728Y-1.6474
X4.4728Y-1.7081
X4.4728Y-2.6781
X4.4728Y-2.7388
X4.4764Y-2.437
X4.4778Y-2.2388
X4.492Y-2.5488
X4.5Y-2.4138
X4.5143Y-2.5266
X4.5327Y-1.8161
X4.5335Y-1.7687
X4.5335Y-1.9506
X4.5335Y-2.6781
X4.5335Y-2.7388
X4.5335Y-2.86
X4.5366Y-2.5043
X4.5748Y-2.5035
X4.5941Y-0.8592
X4.5941Y-0.9199
X4.5941Y-2.2537
X4.5941Y-2.7388
X4.5941Y-2.86
X4.6142Y-2.5039
X4.6547Y-0.8592
X4.6547Y-0.9199
X4.6547Y-1.8293
X4.6547Y-1.8899
X4.6547Y-2.2537
X4.6547Y-2.7388
X4.6547Y-2.86
X4.7154Y-0.8592
X4.7154Y-0.9199
X4.7154Y-0.9805
X4.7154Y-1.0411
X4.7154Y-2.0112
X4.7154Y-2.2537
X4.776Y-0.8592
X4.776Y-0.9199
X4.776Y-1.8899
X4.776Y-1.9506
X4.776Y-2.0112
X4.776Y-2.2537
X4.8366Y-0.8592
X4.8366Y-0.9199
X4.8366Y-0.9805
X4.8366Y-1.0411
X4.8366Y-1.1018
X4.8366Y-1.1624
X4.8366Y-1.223
X4.8366Y-1.2836
X4.8366Y-1.3443
X4.8366Y-1.4049
X4.8366Y-1.4655
X4.8366Y-2.1325
X4.8366Y-2.2537
X4.8972Y-0.8592
X4.8972Y-0.9199
X4.8972Y-0.9805
X4.8972Y-1.0411
X4.8972Y-1.1018
X4.8972Y-1.1624
X4.8972Y-1.223
X4.8972Y-1.2836
X4.8972Y-1.3443
X4.8972Y-1.4049
X4.8972Y-1.7081
X4.8972Y-1.8899
X4.8972Y-1.9506
X4.8972Y-2.0718
X4.8972Y-2.1931
X4.8972Y-2.2537
X4.9579Y-0.8592
X4.9579Y-0.9199
X4.9579Y-0.9805
X4.9579Y-1.0411
X4.9579Y-1.1018
X4.9579Y-1.1624
X4.9579Y-1.223
X4.9579Y-1.2836
X4.9579Y-1.3443
X4.9579Y-1.5262
X4.9579Y-1.7081
X4.9579Y-1.8899
X4.9579Y-2.0112
X4.9579Y-2.1325
X4.9579Y-2.1931
X4.9579Y-2.2537
X4.9579Y-2.4962
X4.9579Y-2.86
X4.9579Y-2.9207
X5.0185Y-0.8592
X5.0185Y-0.9199
X5.0185Y-1.0411
X5.0185Y-1.1018
X5.0185Y-1.1624
X5.0185Y-1.223
X5.0185Y-1.2836
X5.0185Y-1.4655
X5.0185Y-1.5262
X5.0185Y-2.1931
X5.0185Y-2.4962
X5.0185Y-2.86
X5.0185Y-2.9207
X5.0791Y-0.8592
X5.0791Y-0.9199
X5.0791Y-1.0411
X5.0791Y-1.1018
X5.0791Y-1.1624
X5.0791Y-1.223
X5.0791Y-1.2836
X5.0791Y-1.4049
X5.0791Y-1.4655
X5.0791Y-1.5262
X5.0791Y-2.4962
X5.0791Y-2.5569
X5.0791Y-2.6175
X5.0791Y-2.6781
X5.0791Y-2.7388
X5.0791Y-2.7994
X5.0791Y-2.86
X5.0791Y-2.9207
X5.1398Y-0.8592
X5.1398Y-0.9199
X5.1398Y-0.9805
X5.1398Y-1.0411
X5.1398Y-1.1018
X5.1398Y-1.2836
X5.1398Y-1.4049
X5.1398Y-1.4655
X5.1398Y-1.5262
X5.1398Y-2.0718
X5.1398Y-2.1325
X5.1398Y-2.3144
X5.1398Y-2.375
X5.1398Y-2.4962
X5.1398Y-2.6781
X5.1398Y-2.7388
X5.1398Y-2.7994
X5.1398Y-2.86
X5.1398Y-2.9207
X5.2004Y-0.8592
X5.2004Y-0.9199
X5.2004Y-1.0411
X5.2004Y-1.6474
X5.2004Y-1.7081
X5.2004Y-1.7687
X5.2004Y-1.8293
X5.2004Y-1.8899
X5.2004Y-1.9506
X5.2004Y-2.0112
X5.2004Y-2.0718
X5.2004Y-2.1325
X5.2004Y-2.7388
X5.2004Y-2.86
X5.261Y-0.8592
X5.261Y-1.0411
X5.261Y-1.6474
X5.261Y-1.7081
X5.261Y-1.7687
X5.261Y-1.8293
X5.261Y-1.8899
X5.261Y-1.9506
X5.261Y-2.0112
X5.261Y-2.0718
X5.261Y-2.1325
X5.261Y-2.7388
X5.3217Y-0.8592
X5.3217Y-0.9199
X5.3217Y-0.9805
X5.3217Y-1.0411
X5.3217Y-1.4049
X5.3217Y-1.4655
X5.3217Y-1.5262
X5.3217Y-1.6474
X5.3217Y-1.7081
X5.3217Y-1.7687
X5.3217Y-1.8293
X5.3217Y-1.8899
X5.3217Y-1.9506
X5.3217Y-2.0112
X5.3217Y-2.0718
X5.3217Y-2.1325
X5.3217Y-2.3144
X5.3217Y-2.375
X5.3823Y-0.8592
X5.3823Y-0.9199
X5.3823Y-0.9805
X5.3823Y-1.0411
X5.3823Y-1.1018
X5.3823Y-1.1624
X5.3823Y-1.223
X5.3823Y-1.7687
X5.3823Y-1.8293
X5.3823Y-1.8899
X5.3823Y-1.9506
X5.3823Y-2.0112
X5.3823Y-2.0718
X5.3823Y-2.1325
X5.4429Y-0.8592
X5.4429Y-0.9199
X5.4429Y-1.5868
X5.4429Y-1.6474
X5.4429Y-1.7081
X5.4429Y-1.7687
X5.4429Y-1.8293
X5.4429Y-1.8899
X5.4429Y-1.9506
X5.4429Y-2.0112
X5.4429Y-2.0718
X5.4429Y-2.1325
X5.4429Y-2.375
X5.4429Y-2.6781
X5.5035Y-0.9199
X5.5035Y-1.3443
X5.5035Y-1.4049
X5.5035Y-1.4655
X5.5035Y-1.5262
X5.5035Y-1.5868
X5.5035Y-1.6474
X5.5035Y-1.7081
X5.5035Y-1.7687
X5.5035Y-1.8293
X5.5035Y-1.8899
X5.5035Y-1.9506
X5.5035Y-2.0112
X5.5035Y-2.0718
X5.5035Y-2.1325
X5.5035Y-2.3144
X5.5035Y-2.375
X5.5035Y-2.7388
X5.5035Y-2.7994
X5.5035Y-2.86
X5.5035Y-2.9207
X5.5642Y-0.9805
X5.5642Y-1.0411
X5.5642Y-1.1018
X5.5642Y-1.3443
X5.5642Y-1.4049
X5.5642Y-1.5868
X5.5642Y-2.375
X5.5642Y-2.4962
X5.5642Y-2.6781
X5.5642Y-2.7388
X5.5642Y-2.7994
X5.5642Y-2.86
X5.5642Y-2.9207
X5.6248Y-0.8592
X5.6248Y-1.0411
X5.6248Y-1.1018
X5.6248Y-1.1624
X5.6248Y-1.223
X5.6248Y-1.3443
X5.6248Y-1.4049
X5.6248Y-1.5868
X5.6248Y-2.4962
X5.6248Y-2.5569
X5.6248Y-2.6175
X5.6248Y-2.6781
X5.6248Y-2.7388
X5.6248Y-2.7994
X5.6248Y-2.86
X5.6248Y-2.9207
X5.639Y-0.9591
X5.6854Y-0.8592
X5.6854Y-0.9199
X5.6854Y-1.1018
X5.6854Y-1.3443
X5.6854Y-1.4049
X5.6854Y-1.4655
X5.6854Y-1.5262
X5.6854Y-1.5868
X5.6854Y-1.6474
X5.6854Y-1.7081
X5.6854Y-1.7687
X5.6854Y-2.0112
X5.6854Y-2.0718
X5.6854Y-2.3144
X5.6854Y-2.375
X5.6854Y-2.6781
X5.6854Y-2.7388
X5.6854Y-2.7994
X5.6854Y-2.86
X5.6854Y-2.9207
X5.7461Y-0.8592
X5.7461Y-0.9199
X5.7461Y-0.9805
X5.7461Y-1.9506
X5.7461Y-2.1931
X5.7461Y-2.3144
X5.7461Y-2.375
X5.7461Y-2.4356
X5.7461Y-2.6781
X5.7461Y-2.7388
X5.7461Y-2.7994
X5.7461Y-2.86
X5.7461Y-2.9207
X5.8067Y-0.8592
X5.8067Y-1.0411
X5.8067Y-1.1018
X5.8067Y-1.2836
X5.8067Y-1.3443
X5.8067Y-1.4049
X5.8067Y-1.4655
X5.8067Y-1.5262
X5.8067Y-1.5868
X5.8067Y-1.6474
X5.8067Y-1.7081
X5.8067Y-1.7687
X5.8067Y-1.8293
X5.8067Y-2.1325
X5.8067Y-2.3144
X5.8067Y-2.375
X5.8067Y-2.4356
X5.8067Y-2.4962
X5.8067Y-2.6781
X5.8067Y-2.7388
X5.8067Y-2.9207
X5.8673Y-0.8592
X5.8673Y-1.0411
X5.8673Y-1.1018
X5.8673Y-1.2836
X5.8673Y-1.3443
X5.8673Y-1.4049
X5.8673Y-1.4655
X5.8673Y-1.5262
X5.8673Y-1.5868
X5.8673Y-1.6474
X5.8673Y-2.2537
X5.8673Y-2.3144
X5.8673Y-2.375
X5.8673Y-2.4356
X5.8673Y-2.4962
X5.8673Y-2.6781
X5.8673Y-2.7388
X5.8673Y-2.9207
X5.928Y-1.0411
X5.928Y-1.1018
X5.928Y-1.2836
X5.928Y-1.3443
X5.928Y-1.4049
X5.928Y-1.4655
X5.928Y-1.5262
X5.928Y-1.5868
X5.928Y-1.6474
X5.928Y-2.1931
X5.928Y-2.2537
X5.928Y-2.3144
X5.928Y-2.375
X5.928Y-2.4356
X5.928Y-2.4962
X5.928Y-2.6781
X5.928Y-2.7388
T2
X4.0177Y-2.8701
X4.0177Y-2.9193
X4.0669Y-2.8701
X4.0669Y-2.9193
X4.1161Y-2.8701
X4.1161Y-2.9193
T3
X4.1404Y-1.5807
X4.1754Y-1.1594
X4.2104Y-1.5807
X4.2455Y-1.1594
X4.2805Y-1.5807
X4.3156Y-1.1594
X4.3506Y-1.5807
X4.3856Y-1.1594
X4.4207Y-1.5807
X4.4557Y-1.1594
X4.4907Y-1.5807
X4.5258Y-1.1594
X4.5608Y-1.5807
X4.5959Y-1.1594
X4.6309Y-1.5807
X4.6659Y-1.1594
T4
X3.9748Y-0.9055
X4.0748Y-0.9055
X4.1748Y-0.9055
T5
X4.9862Y-1.6457
X5.0344Y-1.7398
X5.0344Y-1.8398
X5.0344Y-1.9398
X5.0344Y-2.0398
X5.0591Y-1.6457
X5.826Y-2.5906
X5.8299Y-1.1791
X5.926Y-2.5906
X5.9299Y-1.1791
T6
X4.3189Y-2.9134
X4.4189Y-2.9134
X4.5189Y-2.9134
X4.6189Y-2.9134
X4.7583Y-2.5795
X4.7583Y-2.6795
X4.7583Y-2.7795
X4.7583Y-2.8795
X4.8583Y-2.5795
X4.8583Y-2.6795
X4.8583Y-2.7795
X4.8583Y-2.8795
X5.2134Y-1.4961
X5.2134Y-2.3228
X5.4134Y-1.4961
X5.4134Y-2.3228
X5.6134Y-1.4961
X5.6134Y-2.3228
X5.874Y-1.7441
X5.874Y-1.8441
X5.874Y-1.9441
X5.874Y-2.0441
M30
