%TF.GenerationSoftware,KiCad,Pcbnew,8.0.7*%
%TF.CreationDate,2025-01-14T08:36:20+01:00*%
%TF.ProjectId,Trackball,54726163-6b62-4616-9c6c-2e6b69636164,rev?*%
%TF.SameCoordinates,Original*%
%TF.FileFunction,Copper,L2,Bot*%
%TF.FilePolarity,Positive*%
%FSLAX46Y46*%
G04 Gerber Fmt 4.6, Leading zero omitted, Abs format (unit mm)*
G04 Created by KiCad (PCBNEW 8.0.7) date 2025-01-14 08:36:20*
%MOMM*%
%LPD*%
G01*
G04 APERTURE LIST*
G04 Aperture macros list*
%AMRoundRect*
0 Rectangle with rounded corners*
0 $1 Rounding radius*
0 $2 $3 $4 $5 $6 $7 $8 $9 X,Y pos of 4 corners*
0 Add a 4 corners polygon primitive as box body*
4,1,4,$2,$3,$4,$5,$6,$7,$8,$9,$2,$3,0*
0 Add four circle primitives for the rounded corners*
1,1,$1+$1,$2,$3*
1,1,$1+$1,$4,$5*
1,1,$1+$1,$6,$7*
1,1,$1+$1,$8,$9*
0 Add four rect primitives between the rounded corners*
20,1,$1+$1,$2,$3,$4,$5,0*
20,1,$1+$1,$4,$5,$6,$7,0*
20,1,$1+$1,$6,$7,$8,$9,0*
20,1,$1+$1,$8,$9,$2,$3,0*%
G04 Aperture macros list end*
%TA.AperFunction,ComponentPad*%
%ADD10C,1.700000*%
%TD*%
%TA.AperFunction,ComponentPad*%
%ADD11O,1.700000X1.700000*%
%TD*%
%TA.AperFunction,ComponentPad*%
%ADD12R,1.200000X1.200000*%
%TD*%
%TA.AperFunction,ComponentPad*%
%ADD13C,1.200000*%
%TD*%
%TA.AperFunction,ComponentPad*%
%ADD14RoundRect,0.250000X0.600000X0.600000X-0.600000X0.600000X-0.600000X-0.600000X0.600000X-0.600000X0*%
%TD*%
%TA.AperFunction,ComponentPad*%
%ADD15R,1.800000X1.800000*%
%TD*%
%TA.AperFunction,ComponentPad*%
%ADD16C,1.800000*%
%TD*%
%TA.AperFunction,SMDPad,CuDef*%
%ADD17RoundRect,0.250000X-1.000000X1.025000X-1.000000X-1.025000X1.000000X-1.025000X1.000000X1.025000X0*%
%TD*%
%TA.AperFunction,ComponentPad*%
%ADD18C,1.600000*%
%TD*%
%TA.AperFunction,ComponentPad*%
%ADD19R,0.950000X0.950000*%
%TD*%
%TA.AperFunction,ComponentPad*%
%ADD20C,0.950000*%
%TD*%
%TA.AperFunction,ComponentPad*%
%ADD21O,2.000000X1.600000*%
%TD*%
%TA.AperFunction,ComponentPad*%
%ADD22C,1.651000*%
%TD*%
%TA.AperFunction,SMDPad,CuDef*%
%ADD23R,1.000000X2.800000*%
%TD*%
%TA.AperFunction,ViaPad*%
%ADD24C,0.600000*%
%TD*%
%TA.AperFunction,Conductor*%
%ADD25C,0.400000*%
%TD*%
G04 APERTURE END LIST*
D10*
X109700000Y-74000000D03*
D11*
X112240000Y-74000000D03*
X114780000Y-74000000D03*
X117320000Y-74000000D03*
D12*
X118515000Y-29450000D03*
D13*
X116735000Y-29450000D03*
X114955000Y-29450000D03*
X113175000Y-29450000D03*
X111395000Y-29450000D03*
X109615000Y-29450000D03*
X107835000Y-29450000D03*
X106055000Y-29450000D03*
X105165000Y-40150000D03*
X106945000Y-40150000D03*
X108725000Y-40150000D03*
X110505000Y-40150000D03*
X112285000Y-40150000D03*
X114065000Y-40150000D03*
X115845000Y-40150000D03*
X117625000Y-40150000D03*
D10*
X142580000Y-59000000D03*
X137500000Y-59000000D03*
X132420000Y-59000000D03*
D14*
X123400000Y-73140000D03*
D10*
X120860000Y-73140000D03*
X123400000Y-70600000D03*
X120860000Y-70600000D03*
X123400000Y-68060000D03*
X120860000Y-68060000D03*
X123400000Y-65520000D03*
X120860000Y-65520000D03*
D15*
X150520000Y-65800000D03*
D16*
X147980000Y-65800000D03*
D17*
X139500000Y-26500000D03*
X137300000Y-38500000D03*
D18*
X127875000Y-44190000D03*
X127875000Y-46730000D03*
X127875000Y-49270000D03*
X127875000Y-51810000D03*
X126650000Y-41800000D03*
X128500000Y-41800000D03*
D19*
X102050000Y-72900000D03*
D20*
X103300000Y-72900000D03*
X104550000Y-72900000D03*
X102050000Y-74150000D03*
X103300000Y-74150000D03*
X104550000Y-74150000D03*
D15*
X150620000Y-29950000D03*
D16*
X148080000Y-29950000D03*
D10*
X142580000Y-38000000D03*
X137500000Y-38000000D03*
X132420000Y-38000000D03*
D21*
X149200000Y-51920000D03*
X149200000Y-49380000D03*
X149200000Y-46840000D03*
X149200000Y-44300000D03*
D17*
X139500000Y-62500000D03*
X137300000Y-74500000D03*
D22*
X106040000Y-23000000D03*
X103500000Y-23000000D03*
X100960000Y-23000000D03*
D23*
X96050000Y-29750000D03*
X96050000Y-35550000D03*
X100050000Y-29750000D03*
X100050000Y-35550000D03*
D24*
X122850000Y-31064523D03*
X139790000Y-51084523D03*
X130550000Y-54164523D03*
X122850000Y-57244523D03*
X93590000Y-27984523D03*
X124390000Y-21824523D03*
X144410000Y-35684523D03*
X132090000Y-48004523D03*
X125930000Y-43384523D03*
X124390000Y-24904523D03*
X129010000Y-72644523D03*
X149030000Y-38764523D03*
X132090000Y-21824523D03*
X118230000Y-48004523D03*
X125930000Y-54164523D03*
X99750000Y-54164523D03*
X129010000Y-31064523D03*
X145950000Y-21824523D03*
X95130000Y-32604523D03*
X121310000Y-23364523D03*
X138250000Y-68024523D03*
X102830000Y-64944523D03*
X130550000Y-71104523D03*
X147490000Y-27984523D03*
X107450000Y-54164523D03*
X102830000Y-38764523D03*
X105910000Y-57244523D03*
X112070000Y-49544523D03*
X99750000Y-63404523D03*
X112070000Y-23364523D03*
X136710000Y-46464523D03*
X127470000Y-26444523D03*
X93590000Y-68024523D03*
X98210000Y-74184523D03*
X124390000Y-27984523D03*
X149030000Y-61864523D03*
X107450000Y-72644523D03*
X125930000Y-48004523D03*
X139790000Y-60324523D03*
X112070000Y-68024523D03*
X127470000Y-37224523D03*
X107450000Y-58784523D03*
X149030000Y-26444523D03*
X102830000Y-35684523D03*
X139790000Y-72644523D03*
X101290000Y-41844523D03*
X93590000Y-32604523D03*
X139790000Y-54164523D03*
X141330000Y-27984523D03*
X125930000Y-21824523D03*
X149030000Y-37224523D03*
X125930000Y-32604523D03*
X101290000Y-64944523D03*
X149030000Y-32604523D03*
X142870000Y-63404523D03*
X118230000Y-46464523D03*
X149030000Y-27984523D03*
X129010000Y-68024523D03*
X144410000Y-52624523D03*
X136710000Y-21824523D03*
X127470000Y-32604523D03*
X125930000Y-27984523D03*
X96670000Y-26444523D03*
X145950000Y-23364523D03*
X102830000Y-27984523D03*
X102830000Y-63404523D03*
X149030000Y-21824523D03*
X95130000Y-21824523D03*
X118230000Y-57244523D03*
X144410000Y-23364523D03*
X96670000Y-74184523D03*
X118230000Y-72644523D03*
X93590000Y-69564523D03*
X139790000Y-52624523D03*
X141330000Y-74184523D03*
X150570000Y-68024523D03*
X136710000Y-54164523D03*
X129010000Y-37224523D03*
X147490000Y-60324523D03*
X139790000Y-58784523D03*
X122850000Y-29524523D03*
X124390000Y-49544523D03*
X102830000Y-58784523D03*
X144410000Y-43384523D03*
X129010000Y-63404523D03*
X101290000Y-34144523D03*
X136710000Y-48004523D03*
X99750000Y-32604523D03*
X108990000Y-55704523D03*
X116690000Y-57244523D03*
X141330000Y-71104523D03*
X144410000Y-72644523D03*
X105910000Y-61864523D03*
X125930000Y-72644523D03*
X135170000Y-38764523D03*
X102830000Y-57244523D03*
X139790000Y-43384523D03*
X142870000Y-27984523D03*
X104370000Y-52624523D03*
X102830000Y-29524523D03*
X124390000Y-32604523D03*
X104370000Y-58784523D03*
X150570000Y-69564523D03*
X147490000Y-35684523D03*
X98210000Y-54164523D03*
X115150000Y-49544523D03*
X129010000Y-26444523D03*
X145950000Y-61864523D03*
X135170000Y-44924523D03*
X125930000Y-55704523D03*
X122850000Y-27984523D03*
X138250000Y-40304523D03*
X112070000Y-66484523D03*
X93590000Y-29524523D03*
X124390000Y-31064523D03*
X104370000Y-27984523D03*
X125930000Y-51084523D03*
X121310000Y-48004523D03*
X132090000Y-49544523D03*
X102830000Y-60324523D03*
X99750000Y-52624523D03*
X98210000Y-55704523D03*
X119770000Y-24904523D03*
X125930000Y-57244523D03*
X124390000Y-43384523D03*
X98210000Y-24904523D03*
X142870000Y-66484523D03*
X139790000Y-41844523D03*
X122850000Y-26444523D03*
X101290000Y-37224523D03*
X127470000Y-31064523D03*
X112070000Y-24904523D03*
X141330000Y-35684523D03*
X93590000Y-26444523D03*
X130550000Y-27984523D03*
X149030000Y-58784523D03*
X144410000Y-60324523D03*
X108990000Y-54164523D03*
X102830000Y-32604523D03*
X130550000Y-52624523D03*
X124390000Y-35684523D03*
X107450000Y-55704523D03*
X99750000Y-74184523D03*
X95130000Y-26444523D03*
X139790000Y-48004523D03*
X144410000Y-68024523D03*
X132090000Y-72644523D03*
X101290000Y-35684523D03*
X144410000Y-58784523D03*
X98210000Y-21824523D03*
X149030000Y-40304523D03*
X141330000Y-26444523D03*
X135170000Y-35684523D03*
X130550000Y-74184523D03*
X105910000Y-55704523D03*
X136710000Y-26444523D03*
X115150000Y-44924523D03*
X100590000Y-58860000D03*
X144410000Y-38764523D03*
X141330000Y-68024523D03*
X135170000Y-41844523D03*
X149030000Y-57244523D03*
X115150000Y-69564523D03*
X124390000Y-52624523D03*
X121310000Y-51084523D03*
X130550000Y-60324523D03*
X135170000Y-37224523D03*
X144410000Y-37224523D03*
X98210000Y-72644523D03*
X136710000Y-29524523D03*
X129010000Y-32604523D03*
X147490000Y-34144523D03*
X149030000Y-41844523D03*
X150570000Y-34144523D03*
X142870000Y-35684523D03*
X105910000Y-52624523D03*
X101290000Y-55704523D03*
X121310000Y-49544523D03*
X102830000Y-55704523D03*
X130550000Y-63404523D03*
X104370000Y-55704523D03*
X127470000Y-55704523D03*
X142870000Y-21824523D03*
X133630000Y-49544523D03*
X135170000Y-46464523D03*
X102830000Y-52624523D03*
X100590000Y-60360000D03*
X130550000Y-32604523D03*
X108990000Y-72644523D03*
X105910000Y-63404523D03*
X104370000Y-29524523D03*
X147490000Y-63404523D03*
X135170000Y-60324523D03*
X129010000Y-21824523D03*
X101290000Y-29524523D03*
X129010000Y-35684523D03*
X130550000Y-35684523D03*
X129010000Y-64944523D03*
X122850000Y-32604523D03*
X147490000Y-46464523D03*
X125930000Y-74184523D03*
X150570000Y-26444523D03*
X129010000Y-38764523D03*
X135170000Y-21824523D03*
X107450000Y-52624523D03*
X138250000Y-49544523D03*
X147490000Y-21824523D03*
X150570000Y-32604523D03*
X107450000Y-71104523D03*
X121310000Y-57244523D03*
X122850000Y-54164523D03*
X110530000Y-72644523D03*
X138250000Y-43384523D03*
X108990000Y-61864523D03*
X95130000Y-74184523D03*
X101400000Y-50270000D03*
X141330000Y-40304523D03*
X101290000Y-52624523D03*
X124390000Y-57244523D03*
X124390000Y-34144523D03*
X107450000Y-27984523D03*
X145950000Y-68024523D03*
X138250000Y-21824523D03*
X116690000Y-72644523D03*
X93590000Y-21824523D03*
X99090000Y-58860000D03*
X133630000Y-51084523D03*
X129010000Y-29524523D03*
X129010000Y-66484523D03*
X150570000Y-58784523D03*
X135170000Y-54164523D03*
X125930000Y-34144523D03*
X112070000Y-69564523D03*
X104370000Y-61864523D03*
X97590000Y-57360000D03*
X132090000Y-43384523D03*
X101290000Y-61864523D03*
X135170000Y-24904523D03*
X127470000Y-72644523D03*
X130550000Y-58784523D03*
X112070000Y-21824523D03*
X108990000Y-58784523D03*
X150570000Y-41844523D03*
X125930000Y-26444523D03*
X107450000Y-21824523D03*
X116690000Y-23364523D03*
X149030000Y-69564523D03*
X107450000Y-57244523D03*
X122850000Y-23364523D03*
X113610000Y-41844523D03*
X122850000Y-35684523D03*
X132090000Y-41844523D03*
X96670000Y-41844523D03*
X132090000Y-44924523D03*
X150570000Y-40304523D03*
X150570000Y-37224523D03*
X132090000Y-26444523D03*
X149030000Y-68024523D03*
X142870000Y-71104523D03*
X136710000Y-52624523D03*
X142870000Y-26444523D03*
X115150000Y-68024523D03*
X144410000Y-69564523D03*
X101290000Y-54164523D03*
X139790000Y-23364523D03*
X139790000Y-35684523D03*
X138250000Y-60324523D03*
X135170000Y-52624523D03*
X99750000Y-61864523D03*
X141330000Y-34144523D03*
X125930000Y-63404523D03*
X108990000Y-60324523D03*
X130550000Y-68024523D03*
X98210000Y-52624523D03*
X141330000Y-60324523D03*
X104370000Y-63404523D03*
X104370000Y-26444523D03*
X124390000Y-48004523D03*
X136710000Y-49544523D03*
X149030000Y-63404523D03*
X136710000Y-24904523D03*
X129010000Y-71104523D03*
X144410000Y-74184523D03*
X149030000Y-74184523D03*
X102830000Y-54164523D03*
X142870000Y-29524523D03*
X141330000Y-24904523D03*
X105910000Y-54164523D03*
X99090000Y-60360000D03*
X116690000Y-69564523D03*
X136710000Y-51084523D03*
X127470000Y-29524523D03*
X130550000Y-37224523D03*
X122850000Y-37224523D03*
X101290000Y-31064523D03*
X101290000Y-27984523D03*
X124390000Y-55704523D03*
X138250000Y-23364523D03*
X119770000Y-57244523D03*
X139790000Y-38764523D03*
X119770000Y-23364523D03*
X144410000Y-51084523D03*
X108990000Y-71104523D03*
X135170000Y-23364523D03*
X138250000Y-41844523D03*
X150570000Y-27984523D03*
X138250000Y-54164523D03*
X144410000Y-21824523D03*
X102830000Y-40304523D03*
X141330000Y-63404523D03*
X129010000Y-23364523D03*
X142870000Y-31064523D03*
X141330000Y-72644523D03*
X139790000Y-46464523D03*
X149030000Y-35684523D03*
X101290000Y-38764523D03*
X99090000Y-57360000D03*
X101290000Y-63404523D03*
X139790000Y-69564523D03*
X113610000Y-68024523D03*
X135170000Y-43384523D03*
X139790000Y-74184523D03*
X132090000Y-52624523D03*
X125930000Y-38764523D03*
X145950000Y-60324523D03*
X119770000Y-51084523D03*
X110530000Y-26444523D03*
X119770000Y-21824523D03*
X150570000Y-57244523D03*
X130550000Y-72644523D03*
X150570000Y-35684523D03*
X116690000Y-21824523D03*
X138250000Y-51084523D03*
X125930000Y-24904523D03*
X138250000Y-44924523D03*
X127470000Y-27984523D03*
X136710000Y-31064523D03*
X136710000Y-23364523D03*
X145950000Y-49544523D03*
X125930000Y-31064523D03*
X142870000Y-68024523D03*
X139790000Y-37224523D03*
X133630000Y-21824523D03*
X107450000Y-60324523D03*
X144410000Y-71104523D03*
X132090000Y-46464523D03*
X133630000Y-52624523D03*
X127470000Y-63404523D03*
X139790000Y-71104523D03*
X135170000Y-48004523D03*
X98210000Y-23364523D03*
X113610000Y-69564523D03*
X102830000Y-26444523D03*
X147490000Y-74184523D03*
X147490000Y-41844523D03*
X93590000Y-74184523D03*
X99750000Y-21824523D03*
X141330000Y-69564523D03*
X142870000Y-64944523D03*
X133630000Y-48004523D03*
X102830000Y-31064523D03*
X144410000Y-34144523D03*
X98210000Y-63404523D03*
X100070000Y-50320000D03*
X133630000Y-43384523D03*
X147490000Y-43384523D03*
X135170000Y-49544523D03*
X135170000Y-58784523D03*
X130550000Y-26444523D03*
X139790000Y-40304523D03*
X132090000Y-54164523D03*
X144410000Y-41844523D03*
X147490000Y-69564523D03*
X125930000Y-29524523D03*
X149030000Y-60324523D03*
X133630000Y-41844523D03*
X136710000Y-27984523D03*
X132090000Y-23364523D03*
X107450000Y-24904523D03*
X133630000Y-26444523D03*
X130550000Y-23364523D03*
X144410000Y-27984523D03*
X130550000Y-38764523D03*
X150570000Y-38764523D03*
X108990000Y-57244523D03*
X104370000Y-54164523D03*
X127470000Y-74184523D03*
X98210000Y-61864523D03*
X142870000Y-69564523D03*
X142870000Y-34144523D03*
X144410000Y-40304523D03*
X130550000Y-21824523D03*
X147490000Y-54164523D03*
X104370000Y-57244523D03*
X150570000Y-63404523D03*
X99750000Y-55704523D03*
X101290000Y-40304523D03*
X132090000Y-69564523D03*
X130550000Y-69564523D03*
X105910000Y-58784523D03*
X147490000Y-26444523D03*
X95130000Y-69564523D03*
X100590000Y-57360000D03*
X129010000Y-74184523D03*
X108990000Y-52624523D03*
X101290000Y-32604523D03*
X139790000Y-34144523D03*
X147490000Y-37224523D03*
X122850000Y-34144523D03*
X135170000Y-26444523D03*
X138250000Y-46464523D03*
X145950000Y-71104523D03*
X97590000Y-60360000D03*
X102830000Y-61864523D03*
X133630000Y-69564523D03*
X145950000Y-69564523D03*
X127470000Y-21824523D03*
X149030000Y-34144523D03*
X102830000Y-34144523D03*
X139790000Y-44924523D03*
X97590000Y-58860000D03*
X145950000Y-74184523D03*
X147490000Y-40304523D03*
X150570000Y-61864523D03*
X124390000Y-23364523D03*
X93590000Y-31064523D03*
X147490000Y-61864523D03*
X115150000Y-72644523D03*
X147490000Y-58784523D03*
X133630000Y-46464523D03*
X138250000Y-52624523D03*
X136710000Y-44924523D03*
X107450000Y-61864523D03*
X122850000Y-21824523D03*
X124390000Y-29524523D03*
X145950000Y-24904523D03*
X96670000Y-21824523D03*
X121310000Y-21824523D03*
X127470000Y-23364523D03*
X113610000Y-43384523D03*
X145950000Y-72644523D03*
X145950000Y-58784523D03*
X122850000Y-24904523D03*
X147490000Y-38764523D03*
X147490000Y-44924523D03*
X133630000Y-54164523D03*
X119770000Y-26444523D03*
X144410000Y-44924523D03*
X130550000Y-24904523D03*
X118230000Y-69564523D03*
X124390000Y-26444523D03*
X118230000Y-21824523D03*
X142870000Y-74184523D03*
X132090000Y-51084523D03*
X129010000Y-69564523D03*
X99750000Y-64944523D03*
X127470000Y-38764523D03*
X133630000Y-44924523D03*
X129010000Y-27984523D03*
X150570000Y-55704523D03*
X125930000Y-23364523D03*
X138250000Y-48004523D03*
X147490000Y-68024523D03*
X139790000Y-49544523D03*
X147490000Y-32604523D03*
X150570000Y-60324523D03*
X102830000Y-37224523D03*
X110530000Y-24904523D03*
X135170000Y-51084523D03*
X142870000Y-72644523D03*
X145950000Y-55704523D03*
X118230000Y-23364523D03*
X104370000Y-64944523D03*
X142870000Y-40304523D03*
X96941700Y-39283700D03*
X143230000Y-24360000D03*
X106200000Y-71400000D03*
X99613100Y-45094300D03*
X104650000Y-46920374D03*
X111110000Y-44850000D03*
X108271400Y-50472500D03*
X97400000Y-68337500D03*
X93508400Y-50928800D03*
X93388400Y-36941000D03*
X109965640Y-63901300D03*
X114097915Y-64740563D03*
X98126700Y-47273500D03*
X99250100Y-47273500D03*
X112922200Y-47794800D03*
X115130000Y-46130000D03*
X113735000Y-56865000D03*
X117200000Y-63600000D03*
X114300001Y-61310103D03*
X116199059Y-63589009D03*
X114663602Y-64174876D03*
X110029269Y-63103832D03*
X109920000Y-64700000D03*
X113245426Y-65185000D03*
X115229289Y-63609189D03*
X113700000Y-61900000D03*
D25*
X100960000Y-23000000D02*
X100960000Y-24691472D01*
X98875200Y-45351000D02*
X98875200Y-39283700D01*
X99950100Y-46425900D02*
X98875200Y-45351000D01*
X97600000Y-38008500D02*
X98875200Y-39283700D01*
X95908400Y-52064334D02*
X99950100Y-48022634D01*
X98875200Y-39283700D02*
X96941700Y-39283700D01*
X97600000Y-28051472D02*
X97600000Y-38008500D01*
X100960000Y-24691472D02*
X97600000Y-28051472D01*
X102873528Y-70825000D02*
X95908400Y-63859872D01*
X95908400Y-63859872D02*
X95908400Y-52064334D01*
X107400000Y-74000000D02*
X104225000Y-70825000D01*
X104225000Y-70825000D02*
X102873528Y-70825000D01*
X99950100Y-48022634D02*
X99950100Y-46425900D01*
X109700000Y-74000000D02*
X107400000Y-74000000D01*
X103122056Y-70225000D02*
X96508400Y-63611344D01*
X99475200Y-39035172D02*
X99475200Y-43034800D01*
X98200000Y-28300000D02*
X98200000Y-37759972D01*
X146248300Y-46648300D02*
X148980000Y-49380000D01*
X101293102Y-47528160D02*
X101293102Y-46920374D01*
X98200000Y-37759972D02*
X99475200Y-39035172D01*
X146248300Y-27378300D02*
X146248300Y-46648300D01*
X99613100Y-43172700D02*
X99475200Y-43034800D01*
X104650000Y-46920374D02*
X101293102Y-46920374D01*
X148980000Y-49380000D02*
X149200000Y-49380000D01*
X99613100Y-45094300D02*
X99613100Y-43172700D01*
X143230000Y-24360000D02*
X146248300Y-27378300D01*
X96508400Y-52312862D02*
X101293102Y-47528160D01*
X106200000Y-71400000D02*
X105025000Y-70225000D01*
X99613100Y-45094300D02*
X100159300Y-45640500D01*
X96508400Y-55407568D02*
X96508400Y-52312862D01*
X101293102Y-46920374D02*
X100086264Y-45713536D01*
X103500000Y-23000000D02*
X98200000Y-28300000D01*
X105025000Y-70225000D02*
X103122056Y-70225000D01*
X96508400Y-63611344D02*
X96508400Y-55407568D01*
X110505000Y-40150000D02*
X110505000Y-44245000D01*
X110505000Y-45455000D02*
X110505000Y-48238900D01*
X110505000Y-44245000D02*
X111110000Y-44850000D01*
X110505000Y-48238900D02*
X108271400Y-50472500D01*
X111110000Y-44850000D02*
X110505000Y-45455000D01*
X94108400Y-51318750D02*
X94208400Y-51218750D01*
X97488972Y-68337500D02*
X102050000Y-72898528D01*
X97400000Y-68337500D02*
X97488972Y-68337500D01*
X94208400Y-51218750D02*
X94208400Y-50638850D01*
X94208400Y-50638850D02*
X94000000Y-50430450D01*
X102050000Y-72898528D02*
X102050000Y-72900000D01*
X96050000Y-29750000D02*
X96050000Y-35550000D01*
X97400000Y-68337500D02*
X97400000Y-68248528D01*
X94108400Y-64956928D02*
X94108400Y-51318750D01*
X97400000Y-68248528D02*
X94108400Y-64956928D01*
X94000000Y-50430450D02*
X94000000Y-37600000D01*
X94000000Y-37600000D02*
X96050000Y-35550000D01*
X93508400Y-65496500D02*
X101175000Y-73163100D01*
X101175000Y-73163100D02*
X101175000Y-73775000D01*
X93388400Y-36941000D02*
X93388400Y-50808800D01*
X93508400Y-50928800D02*
X93508400Y-65496500D01*
X101175000Y-73775000D02*
X101550000Y-74150000D01*
X93388400Y-50808800D02*
X93508400Y-50928800D01*
X101550000Y-74150000D02*
X102050000Y-74150000D01*
X109965640Y-63901300D02*
X110064340Y-64000000D01*
X113357352Y-64000000D02*
X114097915Y-64740563D01*
X110064340Y-64000000D02*
X113357352Y-64000000D01*
X102925000Y-72025000D02*
X102025000Y-72025000D01*
X103300000Y-72900000D02*
X103300000Y-72400000D01*
X102025000Y-72025000D02*
X98100000Y-68100000D01*
X97637500Y-67637500D02*
X94708400Y-64708400D01*
X94708400Y-64708400D02*
X94708400Y-51567278D01*
X94708400Y-51567278D02*
X98126700Y-48148978D01*
X98100000Y-68100000D02*
X98100000Y-68047550D01*
X98126700Y-48148978D02*
X98126700Y-47273500D01*
X97689950Y-67637500D02*
X97637500Y-67637500D01*
X103300000Y-72400000D02*
X102925000Y-72025000D01*
X98100000Y-68047550D02*
X97689950Y-67637500D01*
X103173528Y-71425000D02*
X102625000Y-71425000D01*
X95308400Y-51815806D02*
X99250100Y-47874106D01*
X104550000Y-72801472D02*
X103173528Y-71425000D01*
X104550000Y-72900000D02*
X104550000Y-72801472D01*
X99250100Y-47874106D02*
X99250100Y-47273500D01*
X95308400Y-64108400D02*
X95308400Y-51815806D01*
X102625000Y-71425000D02*
X95308400Y-64108400D01*
X137162300Y-59337700D02*
X137162300Y-67144600D01*
X137162300Y-67144600D02*
X135112500Y-69194400D01*
X137500000Y-59000000D02*
X137162300Y-59337700D01*
X135112500Y-69194400D02*
X135112500Y-72312500D01*
X135112500Y-72312500D02*
X137300000Y-74500000D01*
X115130000Y-46130000D02*
X114587000Y-46130000D01*
X114587000Y-46130000D02*
X112922200Y-47794800D01*
X115000000Y-58130000D02*
X113735000Y-56865000D01*
X115000000Y-61400000D02*
X115000000Y-58130000D01*
X117200000Y-63600000D02*
X115000000Y-61400000D01*
X137500000Y-38300000D02*
X137500000Y-38000000D01*
X137300000Y-38500000D02*
X137500000Y-38300000D01*
X114300001Y-61310103D02*
X114400000Y-61410102D01*
X114400000Y-61410102D02*
X114400000Y-61789950D01*
X114400000Y-61789950D02*
X116199059Y-63589009D01*
X113592558Y-63103832D02*
X114663602Y-64174876D01*
X110029269Y-63103832D02*
X113592558Y-63103832D01*
X109920000Y-64700000D02*
X110020000Y-64600000D01*
X110020000Y-64600000D02*
X112660426Y-64600000D01*
X112660426Y-64600000D02*
X113245426Y-65185000D01*
X113700000Y-62079900D02*
X113700000Y-61900000D01*
X115229289Y-63609189D02*
X113700000Y-62079900D01*
%TA.AperFunction,Conductor*%
G36*
X104003663Y-73297821D02*
G01*
X104006476Y-73301693D01*
X104040668Y-73351229D01*
X104040673Y-73351235D01*
X104153169Y-73450898D01*
X104184188Y-73503637D01*
X104178282Y-73564537D01*
X104153169Y-73599102D01*
X104043293Y-73696444D01*
X103987199Y-73720880D01*
X103966559Y-73720719D01*
X103943959Y-73718172D01*
X103572607Y-74089523D01*
X103533134Y-73994225D01*
X103455775Y-73916866D01*
X103360476Y-73877392D01*
X103731826Y-73506041D01*
X103728757Y-73478806D01*
X103741029Y-73418864D01*
X103761483Y-73393619D01*
X103809332Y-73351229D01*
X103843524Y-73301692D01*
X103892141Y-73264543D01*
X103953308Y-73263064D01*
X104003663Y-73297821D01*
G37*
%TD.AperFunction*%
%TA.AperFunction,Conductor*%
G36*
X106791490Y-29974358D02*
G01*
X106881717Y-29818082D01*
X106903698Y-29750432D01*
X106939662Y-29700932D01*
X106997853Y-29682025D01*
X107056044Y-29700932D01*
X107091297Y-29748327D01*
X107109211Y-29799522D01*
X107109211Y-29799523D01*
X107205181Y-29952258D01*
X107205184Y-29952262D01*
X107332738Y-30079816D01*
X107332740Y-30079817D01*
X107332741Y-30079818D01*
X107431184Y-30141674D01*
X107470396Y-30188643D01*
X107474512Y-30249690D01*
X107441960Y-30301497D01*
X107385173Y-30324276D01*
X107378513Y-30324500D01*
X106672471Y-30324500D01*
X106614280Y-30305593D01*
X106578316Y-30256093D01*
X106573776Y-30217733D01*
X106576462Y-30183595D01*
X106173469Y-29780602D01*
X106190095Y-29776148D01*
X106269905Y-29730070D01*
X106335070Y-29664905D01*
X106381148Y-29585095D01*
X106385602Y-29568469D01*
X106791490Y-29974358D01*
G37*
%TD.AperFunction*%
%TA.AperFunction,Conductor*%
G36*
X149002594Y-20525635D02*
G01*
X149305741Y-20541523D01*
X149316037Y-20542605D01*
X149613316Y-20589689D01*
X149623428Y-20591838D01*
X149914170Y-20669742D01*
X149924013Y-20672940D01*
X150204990Y-20780798D01*
X150214456Y-20785012D01*
X150482640Y-20921658D01*
X150491600Y-20926832D01*
X150744019Y-21090755D01*
X150752391Y-21096838D01*
X150986291Y-21286246D01*
X150993992Y-21293179D01*
X151206820Y-21506007D01*
X151213753Y-21513708D01*
X151403157Y-21747602D01*
X151409248Y-21755986D01*
X151573163Y-22008392D01*
X151578345Y-22017366D01*
X151714987Y-22285543D01*
X151719201Y-22295009D01*
X151827056Y-22575979D01*
X151830259Y-22585835D01*
X151908158Y-22876559D01*
X151910312Y-22886695D01*
X151957393Y-23183957D01*
X151958476Y-23194262D01*
X151974364Y-23497404D01*
X151974500Y-23502586D01*
X151974500Y-28867312D01*
X151955593Y-28925503D01*
X151906093Y-28961467D01*
X151844907Y-28961467D01*
X151795407Y-28925503D01*
X151784936Y-28907301D01*
X151771787Y-28877523D01*
X151692477Y-28798213D01*
X151589872Y-28752909D01*
X151564797Y-28750000D01*
X150770001Y-28750000D01*
X150770000Y-28750001D01*
X150770000Y-29524318D01*
X150679244Y-29500000D01*
X150560756Y-29500000D01*
X150470000Y-29524318D01*
X150470000Y-28750001D01*
X150469999Y-28750000D01*
X149675210Y-28750000D01*
X149675207Y-28750001D01*
X149650125Y-28752909D01*
X149547522Y-28798213D01*
X149468213Y-28877522D01*
X149422909Y-28980127D01*
X149420000Y-29005202D01*
X149420000Y-29799999D01*
X149420001Y-29800000D01*
X150194318Y-29800000D01*
X150170000Y-29890756D01*
X150170000Y-30009244D01*
X150194318Y-30100000D01*
X149420002Y-30100000D01*
X149420001Y-30100001D01*
X149420001Y-30894791D01*
X149422909Y-30919874D01*
X149468213Y-31022477D01*
X149547522Y-31101786D01*
X149650127Y-31147090D01*
X149675203Y-31149999D01*
X150469998Y-31149999D01*
X150470000Y-31149998D01*
X150470000Y-30375681D01*
X150560756Y-30400000D01*
X150679244Y-30400000D01*
X150770000Y-30375681D01*
X150770000Y-31149998D01*
X150770001Y-31149999D01*
X151564790Y-31149999D01*
X151564791Y-31149998D01*
X151589874Y-31147090D01*
X151692477Y-31101786D01*
X151771787Y-31022476D01*
X151784935Y-30992699D01*
X151825735Y-30947103D01*
X151885544Y-30934197D01*
X151941516Y-30958910D01*
X151972272Y-31011803D01*
X151974500Y-31032686D01*
X151974500Y-72497413D01*
X151974364Y-72502595D01*
X151958476Y-72805737D01*
X151957393Y-72816042D01*
X151910312Y-73113304D01*
X151908158Y-73123440D01*
X151830259Y-73414164D01*
X151827056Y-73424020D01*
X151719201Y-73704990D01*
X151714987Y-73714456D01*
X151578345Y-73982633D01*
X151573163Y-73991607D01*
X151409248Y-74244013D01*
X151403157Y-74252397D01*
X151213753Y-74486291D01*
X151206820Y-74493992D01*
X150993992Y-74706820D01*
X150986291Y-74713753D01*
X150752397Y-74903157D01*
X150744013Y-74909248D01*
X150491607Y-75073163D01*
X150482633Y-75078345D01*
X150214456Y-75214987D01*
X150204990Y-75219201D01*
X149924020Y-75327056D01*
X149914164Y-75330259D01*
X149623440Y-75408158D01*
X149613304Y-75410312D01*
X149316042Y-75457393D01*
X149305737Y-75458476D01*
X149026212Y-75473126D01*
X149002593Y-75474364D01*
X148997414Y-75474500D01*
X138849500Y-75474500D01*
X138791309Y-75455593D01*
X138755345Y-75406093D01*
X138750500Y-75375500D01*
X138750500Y-73420727D01*
X138750499Y-73420725D01*
X138750353Y-73419171D01*
X138747646Y-73390301D01*
X138702793Y-73262118D01*
X138696499Y-73253590D01*
X138622154Y-73152855D01*
X138622152Y-73152853D01*
X138622150Y-73152850D01*
X138622146Y-73152847D01*
X138622144Y-73152845D01*
X138512883Y-73072207D01*
X138384703Y-73027355D01*
X138384694Y-73027353D01*
X138354274Y-73024500D01*
X138354266Y-73024500D01*
X136431901Y-73024500D01*
X136373710Y-73005593D01*
X136361897Y-72995504D01*
X135541996Y-72175603D01*
X135514219Y-72121086D01*
X135513000Y-72105599D01*
X135513000Y-71823114D01*
X135531907Y-71764923D01*
X135581407Y-71728959D01*
X135642593Y-71728959D01*
X135692093Y-71764923D01*
X135703466Y-71785233D01*
X135704185Y-71786971D01*
X135799044Y-71951269D01*
X135820558Y-71988532D01*
X135821685Y-71990001D01*
X135962238Y-72173174D01*
X135962240Y-72173176D01*
X135962244Y-72173181D01*
X136126819Y-72337756D01*
X136126823Y-72337759D01*
X136126825Y-72337761D01*
X136158139Y-72361789D01*
X136311468Y-72479442D01*
X136513031Y-72595815D01*
X136728060Y-72684882D01*
X136952874Y-72745121D01*
X137183628Y-72775500D01*
X137183629Y-72775500D01*
X137416371Y-72775500D01*
X137416372Y-72775500D01*
X137647126Y-72745121D01*
X137871940Y-72684882D01*
X138086969Y-72595815D01*
X138288532Y-72479442D01*
X138473181Y-72337756D01*
X138637756Y-72173181D01*
X138779442Y-71988532D01*
X138842848Y-71878710D01*
X146649500Y-71878710D01*
X146649500Y-72121289D01*
X146681161Y-72361781D01*
X146681161Y-72361786D01*
X146682083Y-72365227D01*
X146743869Y-72595814D01*
X146743944Y-72596092D01*
X146743948Y-72596105D01*
X146836772Y-72820204D01*
X146836774Y-72820208D01*
X146836776Y-72820212D01*
X146956370Y-73027355D01*
X146958066Y-73030292D01*
X147105729Y-73222731D01*
X147105731Y-73222733D01*
X147105735Y-73222738D01*
X147277262Y-73394265D01*
X147277266Y-73394268D01*
X147277268Y-73394270D01*
X147459466Y-73534075D01*
X147469711Y-73541936D01*
X147679788Y-73663224D01*
X147903900Y-73756054D01*
X148138211Y-73818838D01*
X148378712Y-73850500D01*
X148378713Y-73850500D01*
X148621287Y-73850500D01*
X148621288Y-73850500D01*
X148861789Y-73818838D01*
X149096100Y-73756054D01*
X149320212Y-73663224D01*
X149530289Y-73541936D01*
X149722738Y-73394265D01*
X149894265Y-73222738D01*
X150041936Y-73030289D01*
X150163224Y-72820212D01*
X150256054Y-72596100D01*
X150318838Y-72361789D01*
X150350500Y-72121288D01*
X150350500Y-71878712D01*
X150318838Y-71638211D01*
X150256054Y-71403900D01*
X150165984Y-71186452D01*
X150163227Y-71179795D01*
X150163226Y-71179794D01*
X150163224Y-71179788D01*
X150041936Y-70969711D01*
X149991588Y-70904096D01*
X149894270Y-70777268D01*
X149894268Y-70777266D01*
X149894265Y-70777262D01*
X149722738Y-70605735D01*
X149722733Y-70605731D01*
X149722731Y-70605729D01*
X149530292Y-70458066D01*
X149530289Y-70458064D01*
X149320212Y-70336776D01*
X149320208Y-70336774D01*
X149320204Y-70336772D01*
X149096105Y-70243948D01*
X149096104Y-70243947D01*
X149096100Y-70243946D01*
X148861789Y-70181162D01*
X148861786Y-70181161D01*
X148861784Y-70181161D01*
X148621289Y-70149500D01*
X148621288Y-70149500D01*
X148378712Y-70149500D01*
X148378710Y-70149500D01*
X148138218Y-70181161D01*
X148138213Y-70181161D01*
X147903907Y-70243944D01*
X147903894Y-70243948D01*
X147679795Y-70336772D01*
X147469707Y-70458066D01*
X147277268Y-70605729D01*
X147105729Y-70777268D01*
X146958066Y-70969707D01*
X146836772Y-71179795D01*
X146743948Y-71403894D01*
X146743944Y-71403907D01*
X146681161Y-71638213D01*
X146681161Y-71638218D01*
X146649500Y-71878710D01*
X138842848Y-71878710D01*
X138895815Y-71786969D01*
X138984882Y-71571940D01*
X139045121Y-71347126D01*
X139075500Y-71116372D01*
X139075500Y-70883628D01*
X139045121Y-70652874D01*
X138984882Y-70428060D01*
X138895815Y-70213031D01*
X138779442Y-70011468D01*
X138658298Y-69853590D01*
X138637761Y-69826825D01*
X138637759Y-69826823D01*
X138637756Y-69826819D01*
X138473181Y-69662244D01*
X138473176Y-69662240D01*
X138473174Y-69662238D01*
X138288529Y-69520556D01*
X138086970Y-69404185D01*
X138086965Y-69404183D01*
X137871945Y-69315120D01*
X137871944Y-69315119D01*
X137871940Y-69315118D01*
X137647126Y-69254879D01*
X137647123Y-69254878D01*
X137647121Y-69254878D01*
X137416373Y-69224500D01*
X137416372Y-69224500D01*
X137183628Y-69224500D01*
X137183626Y-69224500D01*
X136952881Y-69254878D01*
X136952876Y-69254878D01*
X136728067Y-69315116D01*
X136728054Y-69315120D01*
X136513034Y-69404183D01*
X136513029Y-69404185D01*
X136311470Y-69520556D01*
X136126825Y-69662238D01*
X135962238Y-69826825D01*
X135820556Y-70011470D01*
X135704185Y-70213029D01*
X135704183Y-70213032D01*
X135703463Y-70214773D01*
X135703137Y-70215153D01*
X135702749Y-70215942D01*
X135702548Y-70215843D01*
X135663726Y-70261297D01*
X135604231Y-70275580D01*
X135547703Y-70252164D01*
X135515735Y-70199994D01*
X135513000Y-70176885D01*
X135513000Y-69401300D01*
X135531907Y-69343109D01*
X135541990Y-69331302D01*
X137482780Y-67390513D01*
X137535507Y-67299188D01*
X137562800Y-67197327D01*
X137562800Y-67091873D01*
X137562800Y-66701918D01*
X137581707Y-66643727D01*
X137631207Y-66607763D01*
X137692393Y-66607763D01*
X137741893Y-66643727D01*
X137753264Y-66664033D01*
X137804183Y-66786965D01*
X137804185Y-66786970D01*
X137920556Y-66988529D01*
X137920558Y-66988532D01*
X137948309Y-67024698D01*
X138062238Y-67173174D01*
X138062240Y-67173176D01*
X138062244Y-67173181D01*
X138226819Y-67337756D01*
X138226823Y-67337759D01*
X138226825Y-67337761D01*
X138295567Y-67390508D01*
X138411468Y-67479442D01*
X138613031Y-67595815D01*
X138828060Y-67684882D01*
X139052874Y-67745121D01*
X139283628Y-67775500D01*
X139283629Y-67775500D01*
X139516371Y-67775500D01*
X139516372Y-67775500D01*
X139747126Y-67745121D01*
X139971940Y-67684882D01*
X140186969Y-67595815D01*
X140388532Y-67479442D01*
X140573181Y-67337756D01*
X140737756Y-67173181D01*
X140879442Y-66988532D01*
X140995815Y-66786969D01*
X141084882Y-66571940D01*
X141145121Y-66347126D01*
X141175500Y-66116372D01*
X141175500Y-65883628D01*
X141164490Y-65800000D01*
X146874785Y-65800000D01*
X146893603Y-66003083D01*
X146937079Y-66155885D01*
X146949419Y-66199252D01*
X146982859Y-66266410D01*
X147040327Y-66381821D01*
X147163236Y-66544579D01*
X147313959Y-66681981D01*
X147487363Y-66789348D01*
X147677544Y-66863024D01*
X147878024Y-66900500D01*
X148081976Y-66900500D01*
X148282456Y-66863024D01*
X148472637Y-66789348D01*
X148646041Y-66681981D01*
X148796764Y-66544579D01*
X148919673Y-66381821D01*
X149010582Y-66199250D01*
X149066397Y-66003083D01*
X149085215Y-65800000D01*
X149066397Y-65596917D01*
X149010582Y-65400750D01*
X148919673Y-65218179D01*
X148796764Y-65055421D01*
X148646041Y-64918019D01*
X148544588Y-64855202D01*
X149320000Y-64855202D01*
X149320000Y-65649999D01*
X149320001Y-65650000D01*
X150094318Y-65650000D01*
X150070000Y-65740756D01*
X150070000Y-65859244D01*
X150094318Y-65950000D01*
X149320002Y-65950000D01*
X149320001Y-65950001D01*
X149320001Y-66744791D01*
X149322909Y-66769874D01*
X149368213Y-66872477D01*
X149447522Y-66951786D01*
X149550127Y-66997090D01*
X149575203Y-66999999D01*
X150369998Y-66999999D01*
X150370000Y-66999998D01*
X150370000Y-66225681D01*
X150460756Y-66250000D01*
X150579244Y-66250000D01*
X150670000Y-66225681D01*
X150670000Y-66999998D01*
X150670001Y-66999999D01*
X151464790Y-66999999D01*
X151464791Y-66999998D01*
X151489874Y-66997090D01*
X151592477Y-66951786D01*
X151671786Y-66872477D01*
X151717090Y-66769872D01*
X151719999Y-66744797D01*
X151720000Y-66744795D01*
X151720000Y-65950001D01*
X151719999Y-65950000D01*
X150945682Y-65950000D01*
X150970000Y-65859244D01*
X150970000Y-65740756D01*
X150945682Y-65650000D01*
X151719998Y-65650000D01*
X151719999Y-65649999D01*
X151719999Y-64855210D01*
X151719998Y-64855208D01*
X151717090Y-64830125D01*
X151671786Y-64727522D01*
X151592477Y-64648213D01*
X151489872Y-64602909D01*
X151464797Y-64600000D01*
X150670001Y-64600000D01*
X150670000Y-64600001D01*
X150670000Y-65374318D01*
X150579244Y-65350000D01*
X150460756Y-65350000D01*
X150370000Y-65374318D01*
X150370000Y-64600001D01*
X150369999Y-64600000D01*
X149575210Y-64600000D01*
X149575207Y-64600001D01*
X149550125Y-64602909D01*
X149447522Y-64648213D01*
X149368213Y-64727522D01*
X149322909Y-64830127D01*
X149320000Y-64855202D01*
X148544588Y-64855202D01*
X148472637Y-64810652D01*
X148282456Y-64736976D01*
X148282455Y-64736975D01*
X148282453Y-64736975D01*
X148081976Y-64699500D01*
X147878024Y-64699500D01*
X147677546Y-64736975D01*
X147617371Y-64760287D01*
X147487363Y-64810652D01*
X147313959Y-64918019D01*
X147163237Y-65055420D01*
X147040328Y-65218177D01*
X147040323Y-65218186D01*
X146949419Y-65400747D01*
X146949418Y-65400750D01*
X146893603Y-65596917D01*
X146874785Y-65800000D01*
X141164490Y-65800000D01*
X141145121Y-65652874D01*
X141084882Y-65428060D01*
X140995815Y-65213031D01*
X140988589Y-65200516D01*
X140892837Y-65034669D01*
X140879442Y-65011468D01*
X140798051Y-64905397D01*
X140737761Y-64826825D01*
X140737759Y-64826823D01*
X140737756Y-64826819D01*
X140573181Y-64662244D01*
X140573176Y-64662240D01*
X140573174Y-64662238D01*
X140420083Y-64544768D01*
X140388532Y-64520558D01*
X140388529Y-64520556D01*
X140186970Y-64404185D01*
X140186965Y-64404183D01*
X139971945Y-64315120D01*
X139971944Y-64315119D01*
X139971940Y-64315118D01*
X139802162Y-64269626D01*
X139750850Y-64236303D01*
X139728923Y-64179181D01*
X139744759Y-64120081D01*
X139792308Y-64081576D01*
X139827787Y-64075000D01*
X140543058Y-64075000D01*
X140543064Y-64074999D01*
X140631443Y-64064386D01*
X140772095Y-64008919D01*
X140892564Y-63917564D01*
X140983919Y-63797095D01*
X141039386Y-63656443D01*
X141049999Y-63568064D01*
X141050000Y-63568058D01*
X141050000Y-62650001D01*
X141049999Y-62650000D01*
X137950001Y-62650000D01*
X137950000Y-62650001D01*
X137950000Y-63568064D01*
X137960613Y-63656443D01*
X138016080Y-63797095D01*
X138107435Y-63917564D01*
X138227904Y-64008919D01*
X138368556Y-64064386D01*
X138456935Y-64074999D01*
X138456942Y-64075000D01*
X138972213Y-64075000D01*
X139030404Y-64093907D01*
X139066368Y-64143407D01*
X139066368Y-64204593D01*
X139030404Y-64254093D01*
X138997838Y-64269625D01*
X138859549Y-64306680D01*
X138828067Y-64315116D01*
X138828054Y-64315120D01*
X138613034Y-64404183D01*
X138613029Y-64404185D01*
X138411470Y-64520556D01*
X138226825Y-64662238D01*
X138062238Y-64826825D01*
X137920556Y-65011470D01*
X137804185Y-65213029D01*
X137804183Y-65213034D01*
X137753264Y-65335966D01*
X137713528Y-65382492D01*
X137654033Y-65396776D01*
X137597505Y-65373362D01*
X137565536Y-65321193D01*
X137562800Y-65298081D01*
X137562800Y-61431935D01*
X137950000Y-61431935D01*
X137950000Y-62349999D01*
X137950001Y-62350000D01*
X139349999Y-62350000D01*
X139350000Y-62349999D01*
X139350000Y-60925001D01*
X139650000Y-60925001D01*
X139650000Y-62349999D01*
X139650001Y-62350000D01*
X141049999Y-62350000D01*
X141050000Y-62349999D01*
X141050000Y-61431941D01*
X141049999Y-61431935D01*
X141039386Y-61343556D01*
X140983919Y-61202904D01*
X140892564Y-61082435D01*
X140772095Y-60991080D01*
X140631443Y-60935613D01*
X140543064Y-60925000D01*
X139650001Y-60925000D01*
X139650000Y-60925001D01*
X139350000Y-60925001D01*
X139349999Y-60925000D01*
X138456935Y-60925000D01*
X138368556Y-60935613D01*
X138227904Y-60991080D01*
X138107435Y-61082435D01*
X138016080Y-61202904D01*
X137960613Y-61343556D01*
X137950000Y-61431935D01*
X137562800Y-61431935D01*
X137562800Y-60139125D01*
X137581707Y-60080934D01*
X137631207Y-60044970D01*
X137652096Y-60040602D01*
X137670182Y-60038821D01*
X137705928Y-60035301D01*
X137705934Y-60035300D01*
X137710727Y-60033846D01*
X137903954Y-59975232D01*
X138086450Y-59877685D01*
X138246410Y-59746410D01*
X138377685Y-59586450D01*
X138475232Y-59403954D01*
X138535300Y-59205934D01*
X138535301Y-59205929D01*
X138555583Y-59000003D01*
X138555583Y-59000000D01*
X141425073Y-59000000D01*
X141444738Y-59212216D01*
X141503064Y-59417210D01*
X141598059Y-59607987D01*
X141598068Y-59608002D01*
X141667681Y-59700183D01*
X142136328Y-59231536D01*
X142179901Y-59307007D01*
X142272993Y-59400099D01*
X142348460Y-59443670D01*
X141876927Y-59915204D01*
X141884003Y-59921653D01*
X141884005Y-59921654D01*
X142065202Y-60033846D01*
X142065204Y-60033847D01*
X142263941Y-60110838D01*
X142473437Y-60150000D01*
X142686563Y-60150000D01*
X142896058Y-60110838D01*
X143094793Y-60033847D01*
X143276001Y-59921649D01*
X143283071Y-59915204D01*
X142811538Y-59443671D01*
X142887007Y-59400099D01*
X142980099Y-59307007D01*
X143023671Y-59231538D01*
X143492316Y-59700183D01*
X143561937Y-59607992D01*
X143561942Y-59607983D01*
X143656935Y-59417210D01*
X143715261Y-59212216D01*
X143734926Y-59000000D01*
X143715261Y-58787783D01*
X143656935Y-58582789D01*
X143561940Y-58392012D01*
X143561935Y-58392003D01*
X143492316Y-58299815D01*
X143023670Y-58768460D01*
X142980099Y-58692993D01*
X142887007Y-58599901D01*
X142811536Y-58556328D01*
X143283071Y-58084794D01*
X143275996Y-58078346D01*
X143094797Y-57966153D01*
X143094795Y-57966152D01*
X142896058Y-57889161D01*
X142686563Y-57850000D01*
X142473437Y-57850000D01*
X142263941Y-57889161D01*
X142065204Y-57966152D01*
X142065202Y-57966153D01*
X141884002Y-58078347D01*
X141876927Y-58084794D01*
X142348461Y-58556328D01*
X142272993Y-58599901D01*
X142179901Y-58692993D01*
X142136328Y-58768461D01*
X141667682Y-58299815D01*
X141598062Y-58392007D01*
X141598057Y-58392016D01*
X141503064Y-58582789D01*
X141444738Y-58787783D01*
X141425073Y-59000000D01*
X138555583Y-59000000D01*
X138555583Y-58999996D01*
X138535301Y-58794070D01*
X138535300Y-58794065D01*
X138476401Y-58599901D01*
X138475232Y-58596046D01*
X138377685Y-58413550D01*
X138360009Y-58392012D01*
X138246414Y-58253595D01*
X138246410Y-58253590D01*
X138246404Y-58253585D01*
X138086452Y-58122316D01*
X137903954Y-58024768D01*
X137705934Y-57964699D01*
X137705929Y-57964698D01*
X137500003Y-57944417D01*
X137499997Y-57944417D01*
X137294070Y-57964698D01*
X137294065Y-57964699D01*
X137096045Y-58024768D01*
X136913547Y-58122316D01*
X136753595Y-58253585D01*
X136753585Y-58253595D01*
X136622316Y-58413547D01*
X136524768Y-58596045D01*
X136464699Y-58794065D01*
X136464698Y-58794070D01*
X136444417Y-58999996D01*
X136444417Y-59000003D01*
X136464698Y-59205929D01*
X136464699Y-59205934D01*
X136524768Y-59403954D01*
X136622316Y-59586452D01*
X136739328Y-59729031D01*
X136761628Y-59786008D01*
X136761800Y-59791836D01*
X136761800Y-66937699D01*
X136742893Y-66995890D01*
X136732804Y-67007703D01*
X134792016Y-68948491D01*
X134739293Y-69039811D01*
X134739292Y-69039811D01*
X134739293Y-69039812D01*
X134712000Y-69141673D01*
X134712000Y-70822057D01*
X134693093Y-70880248D01*
X134643593Y-70916212D01*
X134582407Y-70916212D01*
X134532907Y-70880248D01*
X134528591Y-70873788D01*
X134526764Y-70870808D01*
X134526762Y-70870806D01*
X134526760Y-70870801D01*
X134415690Y-70717927D01*
X134282073Y-70584310D01*
X134129199Y-70473240D01*
X134129198Y-70473239D01*
X134129196Y-70473238D01*
X133960832Y-70387453D01*
X133781113Y-70329058D01*
X133594484Y-70299500D01*
X133594481Y-70299500D01*
X133405519Y-70299500D01*
X133405516Y-70299500D01*
X133218886Y-70329058D01*
X133039167Y-70387453D01*
X132870803Y-70473238D01*
X132717928Y-70584309D01*
X132584309Y-70717928D01*
X132473238Y-70870803D01*
X132387453Y-71039167D01*
X132329058Y-71218886D01*
X132299500Y-71405515D01*
X132299500Y-71594484D01*
X132329058Y-71781113D01*
X132387453Y-71960832D01*
X132471720Y-72126217D01*
X132473240Y-72129199D01*
X132584310Y-72282073D01*
X132717927Y-72415690D01*
X132870801Y-72526760D01*
X133039168Y-72612547D01*
X133218882Y-72670940D01*
X133218883Y-72670940D01*
X133218886Y-72670941D01*
X133405516Y-72700500D01*
X133405519Y-72700500D01*
X133594484Y-72700500D01*
X133781113Y-72670941D01*
X133781114Y-72670940D01*
X133781118Y-72670940D01*
X133960832Y-72612547D01*
X134129199Y-72526760D01*
X134282073Y-72415690D01*
X134415690Y-72282073D01*
X134526760Y-72129199D01*
X134526766Y-72129187D01*
X134528587Y-72126217D01*
X134575112Y-72086479D01*
X134636108Y-72081677D01*
X134688278Y-72113644D01*
X134711695Y-72170172D01*
X134712000Y-72177942D01*
X134712000Y-72259773D01*
X134712000Y-72365227D01*
X134719600Y-72393590D01*
X134739294Y-72467092D01*
X134792016Y-72558408D01*
X134792018Y-72558410D01*
X134792020Y-72558413D01*
X135820505Y-73586898D01*
X135848281Y-73641413D01*
X135849500Y-73656900D01*
X135849500Y-75375500D01*
X135830593Y-75433691D01*
X135781093Y-75469655D01*
X135750500Y-75474500D01*
X95002586Y-75474500D01*
X94997406Y-75474364D01*
X94971844Y-75473024D01*
X94694262Y-75458476D01*
X94683957Y-75457393D01*
X94386695Y-75410312D01*
X94376559Y-75408158D01*
X94085835Y-75330259D01*
X94075979Y-75327056D01*
X93795009Y-75219201D01*
X93785543Y-75214987D01*
X93517366Y-75078345D01*
X93508392Y-75073163D01*
X93450088Y-75035300D01*
X93255984Y-74909246D01*
X93247602Y-74903157D01*
X93216144Y-74877683D01*
X93054036Y-74746410D01*
X93013708Y-74713753D01*
X93006007Y-74706820D01*
X92793179Y-74493992D01*
X92786246Y-74486291D01*
X92773445Y-74470483D01*
X92596838Y-74252391D01*
X92590751Y-74244013D01*
X92570102Y-74212216D01*
X92426832Y-73991600D01*
X92421658Y-73982640D01*
X92285012Y-73714456D01*
X92280798Y-73704990D01*
X92278410Y-73698769D01*
X92172940Y-73424013D01*
X92169740Y-73414164D01*
X92091838Y-73123428D01*
X92089689Y-73113316D01*
X92042605Y-72816037D01*
X92041523Y-72805736D01*
X92039938Y-72775500D01*
X92025636Y-72502594D01*
X92025500Y-72497413D01*
X92025500Y-71878710D01*
X93649500Y-71878710D01*
X93649500Y-72121289D01*
X93681161Y-72361781D01*
X93681161Y-72361786D01*
X93682083Y-72365227D01*
X93743869Y-72595814D01*
X93743944Y-72596092D01*
X93743948Y-72596105D01*
X93836772Y-72820204D01*
X93836774Y-72820208D01*
X93836776Y-72820212D01*
X93956370Y-73027355D01*
X93958066Y-73030292D01*
X94105729Y-73222731D01*
X94105731Y-73222733D01*
X94105735Y-73222738D01*
X94277262Y-73394265D01*
X94277266Y-73394268D01*
X94277268Y-73394270D01*
X94459466Y-73534075D01*
X94469711Y-73541936D01*
X94679788Y-73663224D01*
X94903900Y-73756054D01*
X95138211Y-73818838D01*
X95378712Y-73850500D01*
X95378713Y-73850500D01*
X95621287Y-73850500D01*
X95621288Y-73850500D01*
X95861789Y-73818838D01*
X96096100Y-73756054D01*
X96320212Y-73663224D01*
X96530289Y-73541936D01*
X96722738Y-73394265D01*
X96894265Y-73222738D01*
X97041936Y-73030289D01*
X97163224Y-72820212D01*
X97256054Y-72596100D01*
X97318838Y-72361789D01*
X97350500Y-72121288D01*
X97350500Y-71878712D01*
X97318838Y-71638211D01*
X97256054Y-71403900D01*
X97165984Y-71186452D01*
X97163227Y-71179795D01*
X97163226Y-71179794D01*
X97163224Y-71179788D01*
X97041936Y-70969711D01*
X96991588Y-70904096D01*
X96894270Y-70777268D01*
X96894268Y-70777266D01*
X96894265Y-70777262D01*
X96722738Y-70605735D01*
X96722733Y-70605731D01*
X96722731Y-70605729D01*
X96530292Y-70458066D01*
X96530289Y-70458064D01*
X96320212Y-70336776D01*
X96320208Y-70336774D01*
X96320204Y-70336772D01*
X96096105Y-70243948D01*
X96096104Y-70243947D01*
X96096100Y-70243946D01*
X95861789Y-70181162D01*
X95861786Y-70181161D01*
X95861784Y-70181161D01*
X95621289Y-70149500D01*
X95621288Y-70149500D01*
X95378712Y-70149500D01*
X95378710Y-70149500D01*
X95138218Y-70181161D01*
X95138213Y-70181161D01*
X94903907Y-70243944D01*
X94903894Y-70243948D01*
X94679795Y-70336772D01*
X94469707Y-70458066D01*
X94277268Y-70605729D01*
X94105729Y-70777268D01*
X93958066Y-70969707D01*
X93836772Y-71179795D01*
X93743948Y-71403894D01*
X93743944Y-71403907D01*
X93681161Y-71638213D01*
X93681161Y-71638218D01*
X93649500Y-71878710D01*
X92025500Y-71878710D01*
X92025500Y-66599000D01*
X92044407Y-66540809D01*
X92093907Y-66504845D01*
X92124500Y-66500000D01*
X92199999Y-66500000D01*
X92200000Y-66500000D01*
X92200000Y-48500000D01*
X92199999Y-48500000D01*
X92124500Y-48500000D01*
X92066309Y-48481093D01*
X92030345Y-48431593D01*
X92025500Y-48401000D01*
X92025500Y-36940997D01*
X92882753Y-36940997D01*
X92882753Y-36941002D01*
X92903234Y-37083456D01*
X92963023Y-37214373D01*
X92963716Y-37215173D01*
X92964060Y-37215989D01*
X92966853Y-37220334D01*
X92966101Y-37220816D01*
X92987536Y-37271531D01*
X92987900Y-37280008D01*
X92987900Y-50861528D01*
X92999380Y-50904374D01*
X93001674Y-50921804D01*
X93001745Y-50921794D01*
X93023234Y-51071256D01*
X93083023Y-51202173D01*
X93083716Y-51202973D01*
X93084060Y-51203789D01*
X93086853Y-51208134D01*
X93086101Y-51208616D01*
X93107536Y-51259331D01*
X93107900Y-51267808D01*
X93107900Y-65443773D01*
X93107900Y-65549227D01*
X93112701Y-65567144D01*
X93135194Y-65651092D01*
X93187916Y-65742408D01*
X93187918Y-65742410D01*
X93187920Y-65742413D01*
X96989925Y-69544417D01*
X100745504Y-73299996D01*
X100773281Y-73354513D01*
X100774500Y-73370000D01*
X100774500Y-73722273D01*
X100774500Y-73827727D01*
X100787283Y-73875433D01*
X100801794Y-73929592D01*
X100854516Y-74020908D01*
X100854518Y-74020910D01*
X100854520Y-74020913D01*
X101304087Y-74470480D01*
X101304089Y-74470481D01*
X101304091Y-74470483D01*
X101395408Y-74523205D01*
X101395409Y-74523205D01*
X101395412Y-74523207D01*
X101472385Y-74543831D01*
X101523698Y-74577153D01*
X101528233Y-74583214D01*
X101540668Y-74601229D01*
X101540671Y-74601231D01*
X101540674Y-74601235D01*
X101663449Y-74710005D01*
X101663452Y-74710007D01*
X101663454Y-74710008D01*
X101808705Y-74786242D01*
X101967979Y-74825500D01*
X101967982Y-74825500D01*
X102132018Y-74825500D01*
X102132021Y-74825500D01*
X102291295Y-74786242D01*
X102436546Y-74710008D01*
X102556709Y-74603552D01*
X102612800Y-74579118D01*
X102633443Y-74579279D01*
X102656041Y-74581825D01*
X103027392Y-74210476D01*
X103066866Y-74305775D01*
X103144225Y-74383134D01*
X103239523Y-74422607D01*
X102868172Y-74793957D01*
X102961612Y-74852669D01*
X103126448Y-74910348D01*
X103126460Y-74910351D01*
X103299996Y-74929904D01*
X103300004Y-74929904D01*
X103473539Y-74910351D01*
X103473551Y-74910348D01*
X103638388Y-74852668D01*
X103638389Y-74852668D01*
X103731826Y-74793958D01*
X103360475Y-74422608D01*
X103455775Y-74383134D01*
X103533134Y-74305775D01*
X103572608Y-74210475D01*
X103943958Y-74581825D01*
X103966555Y-74579279D01*
X104026497Y-74591550D01*
X104043291Y-74603553D01*
X104048302Y-74607992D01*
X104163454Y-74710008D01*
X104308705Y-74786242D01*
X104467979Y-74825500D01*
X104467982Y-74825500D01*
X104632018Y-74825500D01*
X104632021Y-74825500D01*
X104791295Y-74786242D01*
X104936546Y-74710008D01*
X105059332Y-74601229D01*
X105152518Y-74466226D01*
X105210688Y-74312845D01*
X105230461Y-74150000D01*
X105226239Y-74115232D01*
X105211546Y-73994225D01*
X105210688Y-73987155D01*
X105152518Y-73833774D01*
X105059332Y-73698771D01*
X105059331Y-73698770D01*
X105059331Y-73698769D01*
X104946830Y-73599103D01*
X104915811Y-73546363D01*
X104921716Y-73485463D01*
X104946830Y-73450897D01*
X105059331Y-73351230D01*
X105059331Y-73351229D01*
X105059332Y-73351229D01*
X105152518Y-73216226D01*
X105210688Y-73062845D01*
X105230461Y-72900000D01*
X105210688Y-72737155D01*
X105154238Y-72588311D01*
X105151282Y-72527198D01*
X105184812Y-72476019D01*
X105242021Y-72454322D01*
X105301058Y-72470395D01*
X105316809Y-72483202D01*
X107154087Y-74320480D01*
X107154089Y-74320481D01*
X107154090Y-74320482D01*
X107154091Y-74320483D01*
X107245408Y-74373205D01*
X107245406Y-74373205D01*
X107245410Y-74373206D01*
X107245412Y-74373207D01*
X107347273Y-74400500D01*
X108663584Y-74400500D01*
X108721775Y-74419407D01*
X108750892Y-74452829D01*
X108770937Y-74490329D01*
X108822316Y-74586452D01*
X108923713Y-74710005D01*
X108953590Y-74746410D01*
X108953595Y-74746414D01*
X109113547Y-74877683D01*
X109113548Y-74877683D01*
X109113550Y-74877685D01*
X109296046Y-74975232D01*
X109433997Y-75017078D01*
X109494065Y-75035300D01*
X109494070Y-75035301D01*
X109699997Y-75055583D01*
X109700000Y-75055583D01*
X109700003Y-75055583D01*
X109905929Y-75035301D01*
X109905934Y-75035300D01*
X109910724Y-75033847D01*
X110103954Y-74975232D01*
X110286450Y-74877685D01*
X110446410Y-74746410D01*
X110577685Y-74586450D01*
X110675232Y-74403954D01*
X110735300Y-74205934D01*
X110735301Y-74205929D01*
X110755583Y-74000003D01*
X110755583Y-73999996D01*
X111184417Y-73999996D01*
X111184417Y-74000003D01*
X111204698Y-74205929D01*
X111204699Y-74205934D01*
X111264768Y-74403954D01*
X111362316Y-74586452D01*
X111463713Y-74710005D01*
X111493590Y-74746410D01*
X111493595Y-74746414D01*
X111653547Y-74877683D01*
X111653548Y-74877683D01*
X111653550Y-74877685D01*
X111836046Y-74975232D01*
X111973997Y-75017078D01*
X112034065Y-75035300D01*
X112034070Y-75035301D01*
X112239997Y-75055583D01*
X112240000Y-75055583D01*
X112240003Y-75055583D01*
X112445929Y-75035301D01*
X112445934Y-75035300D01*
X112450724Y-75033847D01*
X112643954Y-74975232D01*
X112826450Y-74877685D01*
X112986410Y-74746410D01*
X113117685Y-74586450D01*
X113215232Y-74403954D01*
X113275300Y-74205934D01*
X113275301Y-74205929D01*
X113295583Y-74000003D01*
X113295583Y-73999996D01*
X113724417Y-73999996D01*
X113724417Y-74000003D01*
X113744698Y-74205929D01*
X113744699Y-74205934D01*
X113804768Y-74403954D01*
X113902316Y-74586452D01*
X114003713Y-74710005D01*
X114033590Y-74746410D01*
X114033595Y-74746414D01*
X114193547Y-74877683D01*
X114193548Y-74877683D01*
X114193550Y-74877685D01*
X114376046Y-74975232D01*
X114513997Y-75017078D01*
X114574065Y-75035300D01*
X114574070Y-75035301D01*
X114779997Y-75055583D01*
X114780000Y-75055583D01*
X114780003Y-75055583D01*
X114985929Y-75035301D01*
X114985934Y-75035300D01*
X114990724Y-75033847D01*
X115183954Y-74975232D01*
X115366450Y-74877685D01*
X115526410Y-74746410D01*
X115657685Y-74586450D01*
X115755232Y-74403954D01*
X115815300Y-74205934D01*
X115815301Y-74205929D01*
X115835583Y-74000003D01*
X115835583Y-73999996D01*
X115820810Y-73850000D01*
X116178973Y-73850000D01*
X116842555Y-73850000D01*
X116820000Y-73934174D01*
X116820000Y-74065826D01*
X116842555Y-74150000D01*
X116178973Y-74150000D01*
X116184738Y-74212216D01*
X116243064Y-74417210D01*
X116338057Y-74607983D01*
X116338062Y-74607992D01*
X116466496Y-74778064D01*
X116466506Y-74778075D01*
X116623995Y-74921647D01*
X116623994Y-74921647D01*
X116805206Y-75033847D01*
X117003941Y-75110838D01*
X117169999Y-75141880D01*
X117170000Y-75141880D01*
X117170000Y-74477445D01*
X117254174Y-74500000D01*
X117385826Y-74500000D01*
X117470000Y-74477445D01*
X117470000Y-75141880D01*
X117636058Y-75110838D01*
X117834793Y-75033847D01*
X118016004Y-74921647D01*
X118173493Y-74778075D01*
X118173503Y-74778064D01*
X118301937Y-74607992D01*
X118301942Y-74607983D01*
X118396935Y-74417210D01*
X118455261Y-74212216D01*
X118461027Y-74150000D01*
X117797445Y-74150000D01*
X117820000Y-74065826D01*
X117820000Y-73934174D01*
X117797445Y-73850000D01*
X118461026Y-73850000D01*
X118455261Y-73787783D01*
X118396935Y-73582789D01*
X118301942Y-73392016D01*
X118301937Y-73392007D01*
X118173503Y-73221935D01*
X118173493Y-73221924D01*
X118083623Y-73139996D01*
X119804417Y-73139996D01*
X119804417Y-73140003D01*
X119824698Y-73345929D01*
X119824699Y-73345934D01*
X119884768Y-73543954D01*
X119982316Y-73726452D01*
X120101307Y-73871443D01*
X120113590Y-73886410D01*
X120113595Y-73886414D01*
X120273547Y-74017683D01*
X120273548Y-74017683D01*
X120273550Y-74017685D01*
X120456046Y-74115232D01*
X120570883Y-74150067D01*
X120654065Y-74175300D01*
X120654070Y-74175301D01*
X120859997Y-74195583D01*
X120860000Y-74195583D01*
X120860003Y-74195583D01*
X121065929Y-74175301D01*
X121065934Y-74175300D01*
X121263954Y-74115232D01*
X121446450Y-74017685D01*
X121606410Y-73886410D01*
X121737685Y-73726450D01*
X121835232Y-73543954D01*
X121895300Y-73345934D01*
X121895301Y-73345929D01*
X121915583Y-73140003D01*
X121915583Y-73139996D01*
X121895301Y-72934070D01*
X121895300Y-72934065D01*
X121860763Y-72820212D01*
X121835232Y-72736046D01*
X121737685Y-72553550D01*
X121729176Y-72543182D01*
X121691222Y-72496935D01*
X122250000Y-72496935D01*
X122250000Y-72989999D01*
X122250001Y-72990000D01*
X122922555Y-72990000D01*
X122900000Y-73074174D01*
X122900000Y-73205826D01*
X122922555Y-73290000D01*
X122250001Y-73290000D01*
X122250000Y-73290001D01*
X122250000Y-73783064D01*
X122260613Y-73871443D01*
X122316080Y-74012095D01*
X122407435Y-74132564D01*
X122527904Y-74223919D01*
X122668556Y-74279386D01*
X122756935Y-74289999D01*
X122756942Y-74290000D01*
X123249999Y-74290000D01*
X123250000Y-74289999D01*
X123250000Y-73617445D01*
X123334174Y-73640000D01*
X123465826Y-73640000D01*
X123550000Y-73617445D01*
X123550000Y-74289999D01*
X123550001Y-74290000D01*
X124043058Y-74290000D01*
X124043064Y-74289999D01*
X124131443Y-74279386D01*
X124272095Y-74223919D01*
X124392564Y-74132564D01*
X124483919Y-74012095D01*
X124539386Y-73871443D01*
X124549999Y-73783064D01*
X124550000Y-73783058D01*
X124550000Y-73290001D01*
X124549999Y-73290000D01*
X123877445Y-73290000D01*
X123900000Y-73205826D01*
X123900000Y-73074174D01*
X123877445Y-72990000D01*
X124549999Y-72990000D01*
X124550000Y-72989999D01*
X124550000Y-72496941D01*
X124549999Y-72496935D01*
X124539386Y-72408556D01*
X124483919Y-72267904D01*
X124392564Y-72147435D01*
X124272095Y-72056080D01*
X124131443Y-72000613D01*
X124043064Y-71990000D01*
X123550001Y-71990000D01*
X123550000Y-71990001D01*
X123550000Y-72662554D01*
X123465826Y-72640000D01*
X123334174Y-72640000D01*
X123250000Y-72662554D01*
X123250000Y-71990001D01*
X123249999Y-71990000D01*
X122756935Y-71990000D01*
X122668556Y-72000613D01*
X122527904Y-72056080D01*
X122407435Y-72147435D01*
X122316080Y-72267904D01*
X122260613Y-72408556D01*
X122250000Y-72496935D01*
X121691222Y-72496935D01*
X121606414Y-72393595D01*
X121606410Y-72393590D01*
X121606404Y-72393585D01*
X121446452Y-72262316D01*
X121263954Y-72164768D01*
X121065934Y-72104699D01*
X121065929Y-72104698D01*
X120860003Y-72084417D01*
X120859997Y-72084417D01*
X120654070Y-72104698D01*
X120654065Y-72104699D01*
X120456045Y-72164768D01*
X120273547Y-72262316D01*
X120113595Y-72393585D01*
X120113585Y-72393595D01*
X119982316Y-72553547D01*
X119884768Y-72736045D01*
X119824699Y-72934065D01*
X119824698Y-72934070D01*
X119804417Y-73139996D01*
X118083623Y-73139996D01*
X118016004Y-73078352D01*
X118016005Y-73078352D01*
X117834793Y-72966152D01*
X117636061Y-72889162D01*
X117636055Y-72889160D01*
X117470000Y-72858118D01*
X117470000Y-73522554D01*
X117385826Y-73500000D01*
X117254174Y-73500000D01*
X117170000Y-73522554D01*
X117170000Y-72858119D01*
X117169999Y-72858118D01*
X117003944Y-72889160D01*
X117003938Y-72889162D01*
X116805206Y-72966152D01*
X116623995Y-73078352D01*
X116466506Y-73221924D01*
X116466496Y-73221935D01*
X116338062Y-73392007D01*
X116338057Y-73392016D01*
X116243064Y-73582789D01*
X116184738Y-73787783D01*
X116178973Y-73850000D01*
X115820810Y-73850000D01*
X115815301Y-73794070D01*
X115815300Y-73794065D01*
X115793522Y-73722273D01*
X115755232Y-73596046D01*
X115657685Y-73413550D01*
X115641862Y-73394270D01*
X115526414Y-73253595D01*
X115526410Y-73253590D01*
X115468209Y-73205826D01*
X115366452Y-73122316D01*
X115183954Y-73024768D01*
X114985934Y-72964699D01*
X114985929Y-72964698D01*
X114780003Y-72944417D01*
X114779997Y-72944417D01*
X114574070Y-72964698D01*
X114574065Y-72964699D01*
X114376045Y-73024768D01*
X114193547Y-73122316D01*
X114033595Y-73253585D01*
X114033585Y-73253595D01*
X113902316Y-73413547D01*
X113804768Y-73596045D01*
X113744699Y-73794065D01*
X113744698Y-73794070D01*
X113724417Y-73999996D01*
X113295583Y-73999996D01*
X113275301Y-73794070D01*
X113275300Y-73794065D01*
X113253522Y-73722273D01*
X113215232Y-73596046D01*
X113117685Y-73413550D01*
X113101862Y-73394270D01*
X112986414Y-73253595D01*
X112986410Y-73253590D01*
X112928209Y-73205826D01*
X112826452Y-73122316D01*
X112643954Y-73024768D01*
X112445934Y-72964699D01*
X112445929Y-72964698D01*
X112240003Y-72944417D01*
X112239997Y-72944417D01*
X112034070Y-72964698D01*
X112034065Y-72964699D01*
X111836045Y-73024768D01*
X111653547Y-73122316D01*
X111493595Y-73253585D01*
X111493585Y-73253595D01*
X111362316Y-73413547D01*
X111264768Y-73596045D01*
X111204699Y-73794065D01*
X111204698Y-73794070D01*
X111184417Y-73999996D01*
X110755583Y-73999996D01*
X110735301Y-73794070D01*
X110735300Y-73794065D01*
X110713522Y-73722273D01*
X110675232Y-73596046D01*
X110577685Y-73413550D01*
X110561862Y-73394270D01*
X110446414Y-73253595D01*
X110446410Y-73253590D01*
X110388209Y-73205826D01*
X110286452Y-73122316D01*
X110103954Y-73024768D01*
X109905934Y-72964699D01*
X109905929Y-72964698D01*
X109700003Y-72944417D01*
X109699997Y-72944417D01*
X109494070Y-72964698D01*
X109494065Y-72964699D01*
X109296045Y-73024768D01*
X109113547Y-73122316D01*
X108953595Y-73253585D01*
X108953585Y-73253595D01*
X108822316Y-73413547D01*
X108802352Y-73450897D01*
X108751325Y-73546363D01*
X108750894Y-73547169D01*
X108706788Y-73589575D01*
X108663584Y-73599500D01*
X107606901Y-73599500D01*
X107548710Y-73580593D01*
X107536897Y-73570504D01*
X106032611Y-72066218D01*
X106004834Y-72011701D01*
X106014405Y-71951269D01*
X106057670Y-71908004D01*
X106118102Y-71898433D01*
X106125949Y-71900199D01*
X106128037Y-71900499D01*
X106128039Y-71900500D01*
X106128041Y-71900500D01*
X106271959Y-71900500D01*
X106271961Y-71900500D01*
X106410053Y-71859953D01*
X106531128Y-71782143D01*
X106625377Y-71673373D01*
X106685165Y-71542457D01*
X106695447Y-71470946D01*
X106705647Y-71400002D01*
X106705647Y-71399997D01*
X106685165Y-71257543D01*
X106652698Y-71186452D01*
X106625377Y-71126627D01*
X106531128Y-71017857D01*
X106531127Y-71017856D01*
X106531126Y-71017855D01*
X106410057Y-70940049D01*
X106410054Y-70940048D01*
X106410053Y-70940047D01*
X106328878Y-70916212D01*
X106287615Y-70904096D01*
X106245503Y-70879110D01*
X105966389Y-70599996D01*
X119804417Y-70599996D01*
X119804417Y-70600003D01*
X119824698Y-70805929D01*
X119824699Y-70805934D01*
X119884768Y-71003954D01*
X119982316Y-71186452D01*
X120040659Y-71257543D01*
X120113590Y-71346410D01*
X120142838Y-71370413D01*
X120273547Y-71477683D01*
X120273548Y-71477683D01*
X120273550Y-71477685D01*
X120456046Y-71575232D01*
X120593997Y-71617078D01*
X120654065Y-71635300D01*
X120654070Y-71635301D01*
X120859997Y-71655583D01*
X120860000Y-71655583D01*
X120860003Y-71655583D01*
X121065929Y-71635301D01*
X121065934Y-71635300D01*
X121101537Y-71624500D01*
X121263954Y-71575232D01*
X121446450Y-71477685D01*
X121606410Y-71346410D01*
X121737685Y-71186450D01*
X121835232Y-71003954D01*
X121895300Y-70805934D01*
X121895301Y-70805929D01*
X121915583Y-70600003D01*
X121915583Y-70599996D01*
X122344417Y-70599996D01*
X122344417Y-70600003D01*
X122364698Y-70805929D01*
X122364699Y-70805934D01*
X122424768Y-71003954D01*
X122522316Y-71186452D01*
X122580659Y-71257543D01*
X122653590Y-71346410D01*
X122682838Y-71370413D01*
X122813547Y-71477683D01*
X122813548Y-71477683D01*
X122813550Y-71477685D01*
X122996046Y-71575232D01*
X123133997Y-71617078D01*
X123194065Y-71635300D01*
X123194070Y-71635301D01*
X123399997Y-71655583D01*
X123400000Y-71655583D01*
X123400003Y-71655583D01*
X123605929Y-71635301D01*
X123605934Y-71635300D01*
X123641537Y-71624500D01*
X123803954Y-71575232D01*
X123986450Y-71477685D01*
X124146410Y-71346410D01*
X124277685Y-71186450D01*
X124375232Y-71003954D01*
X124435300Y-70805934D01*
X124435301Y-70805929D01*
X124455583Y-70600003D01*
X124455583Y-70599996D01*
X124435301Y-70394070D01*
X124435300Y-70394065D01*
X124392255Y-70252164D01*
X124375232Y-70196046D01*
X124277685Y-70013550D01*
X124275976Y-70011468D01*
X124146414Y-69853595D01*
X124146410Y-69853590D01*
X124075632Y-69795504D01*
X123986452Y-69722316D01*
X123803954Y-69624768D01*
X123605934Y-69564699D01*
X123605929Y-69564698D01*
X123400003Y-69544417D01*
X123399997Y-69544417D01*
X123194070Y-69564698D01*
X123194065Y-69564699D01*
X122996045Y-69624768D01*
X122813547Y-69722316D01*
X122653595Y-69853585D01*
X122653585Y-69853595D01*
X122522316Y-70013547D01*
X122424768Y-70196045D01*
X122364699Y-70394065D01*
X122364698Y-70394070D01*
X122344417Y-70599996D01*
X121915583Y-70599996D01*
X121895301Y-70394070D01*
X121895300Y-70394065D01*
X121852255Y-70252164D01*
X121835232Y-70196046D01*
X121737685Y-70013550D01*
X121735976Y-70011468D01*
X121606414Y-69853595D01*
X121606410Y-69853590D01*
X121535632Y-69795504D01*
X121446452Y-69722316D01*
X121263954Y-69624768D01*
X121065934Y-69564699D01*
X121065929Y-69564698D01*
X120860003Y-69544417D01*
X120859997Y-69544417D01*
X120654070Y-69564698D01*
X120654065Y-69564699D01*
X120456045Y-69624768D01*
X120273547Y-69722316D01*
X120113595Y-69853585D01*
X120113585Y-69853595D01*
X119982316Y-70013547D01*
X119884768Y-70196045D01*
X119824699Y-70394065D01*
X119824698Y-70394070D01*
X119804417Y-70599996D01*
X105966389Y-70599996D01*
X105760458Y-70394065D01*
X105270913Y-69904520D01*
X105270910Y-69904518D01*
X105270909Y-69904517D01*
X105270908Y-69904516D01*
X105179591Y-69851794D01*
X105179593Y-69851794D01*
X105140070Y-69841204D01*
X105077727Y-69824500D01*
X105077725Y-69824500D01*
X103328957Y-69824500D01*
X103270766Y-69805593D01*
X103258953Y-69795504D01*
X101523445Y-68059996D01*
X119804417Y-68059996D01*
X119804417Y-68060003D01*
X119824698Y-68265929D01*
X119824699Y-68265934D01*
X119884768Y-68463954D01*
X119982316Y-68646452D01*
X120059578Y-68740596D01*
X120113590Y-68806410D01*
X120113595Y-68806414D01*
X120273547Y-68937683D01*
X120273548Y-68937683D01*
X120273550Y-68937685D01*
X120456046Y-69035232D01*
X120593997Y-69077078D01*
X120654065Y-69095300D01*
X120654070Y-69095301D01*
X120859997Y-69115583D01*
X120860000Y-69115583D01*
X120860003Y-69115583D01*
X121065929Y-69095301D01*
X121065934Y-69095300D01*
X121263954Y-69035232D01*
X121446450Y-68937685D01*
X121606410Y-68806410D01*
X121737685Y-68646450D01*
X121835232Y-68463954D01*
X121895300Y-68265934D01*
X121895301Y-68265929D01*
X121915583Y-68060003D01*
X121915583Y-68059996D01*
X122344417Y-68059996D01*
X122344417Y-68060003D01*
X122364698Y-68265929D01*
X122364699Y-68265934D01*
X122424768Y-68463954D01*
X122522316Y-68646452D01*
X122599578Y-68740596D01*
X122653590Y-68806410D01*
X122653595Y-68806414D01*
X122813547Y-68937683D01*
X122813548Y-68937683D01*
X122813550Y-68937685D01*
X122996046Y-69035232D01*
X123133997Y-69077078D01*
X123194065Y-69095300D01*
X123194070Y-69095301D01*
X123399997Y-69115583D01*
X123400000Y-69115583D01*
X123400003Y-69115583D01*
X123605929Y-69095301D01*
X123605934Y-69095300D01*
X123803954Y-69035232D01*
X123986450Y-68937685D01*
X124146410Y-68806410D01*
X124277685Y-68646450D01*
X124375232Y-68463954D01*
X124435300Y-68265934D01*
X124435301Y-68265929D01*
X124455583Y-68060003D01*
X124455583Y-68059996D01*
X124435301Y-67854070D01*
X124435300Y-67854065D01*
X124417078Y-67793997D01*
X124375232Y-67656046D01*
X124277685Y-67473550D01*
X124209535Y-67390509D01*
X124170413Y-67342838D01*
X124146410Y-67313590D01*
X124080162Y-67259222D01*
X123986452Y-67182316D01*
X123803954Y-67084768D01*
X123605934Y-67024699D01*
X123605929Y-67024698D01*
X123400003Y-67004417D01*
X123399997Y-67004417D01*
X123194070Y-67024698D01*
X123194065Y-67024699D01*
X122996045Y-67084768D01*
X122813547Y-67182316D01*
X122653595Y-67313585D01*
X122653585Y-67313595D01*
X122522316Y-67473547D01*
X122424768Y-67656045D01*
X122364699Y-67854065D01*
X122364698Y-67854070D01*
X122344417Y-68059996D01*
X121915583Y-68059996D01*
X121895301Y-67854070D01*
X121895300Y-67854065D01*
X121877078Y-67793997D01*
X121835232Y-67656046D01*
X121737685Y-67473550D01*
X121669535Y-67390509D01*
X121630413Y-67342838D01*
X121606410Y-67313590D01*
X121540162Y-67259222D01*
X121446452Y-67182316D01*
X121263954Y-67084768D01*
X121065934Y-67024699D01*
X121065929Y-67024698D01*
X120860003Y-67004417D01*
X120859997Y-67004417D01*
X120654070Y-67024698D01*
X120654065Y-67024699D01*
X120456045Y-67084768D01*
X120273547Y-67182316D01*
X120113595Y-67313585D01*
X120113585Y-67313595D01*
X119982316Y-67473547D01*
X119884768Y-67656045D01*
X119824699Y-67854065D01*
X119824698Y-67854070D01*
X119804417Y-68059996D01*
X101523445Y-68059996D01*
X98163446Y-64699997D01*
X109414353Y-64699997D01*
X109414353Y-64700002D01*
X109434834Y-64842456D01*
X109469343Y-64918019D01*
X109494623Y-64973373D01*
X109588870Y-65082141D01*
X109588873Y-65082144D01*
X109641626Y-65116046D01*
X109709947Y-65159953D01*
X109804609Y-65187748D01*
X109848035Y-65200499D01*
X109848036Y-65200499D01*
X109848039Y-65200500D01*
X109848041Y-65200500D01*
X109991959Y-65200500D01*
X109991961Y-65200500D01*
X110130053Y-65159953D01*
X110251128Y-65082143D01*
X110292264Y-65034668D01*
X110344660Y-65003073D01*
X110367083Y-65000500D01*
X112453525Y-65000500D01*
X112511716Y-65019407D01*
X112523529Y-65029496D01*
X112726680Y-65232647D01*
X112754457Y-65287164D01*
X112754668Y-65288562D01*
X112760260Y-65327456D01*
X112811617Y-65439910D01*
X112820049Y-65458373D01*
X112885889Y-65534357D01*
X112914299Y-65567144D01*
X113035368Y-65644950D01*
X113035373Y-65644953D01*
X113141829Y-65676211D01*
X113173461Y-65685499D01*
X113173462Y-65685499D01*
X113173465Y-65685500D01*
X113173467Y-65685500D01*
X113317385Y-65685500D01*
X113317387Y-65685500D01*
X113455479Y-65644953D01*
X113576554Y-65567143D01*
X113617407Y-65519996D01*
X119804417Y-65519996D01*
X119804417Y-65520003D01*
X119824698Y-65725929D01*
X119824699Y-65725934D01*
X119884768Y-65923954D01*
X119982316Y-66106452D01*
X120058475Y-66199252D01*
X120113590Y-66266410D01*
X120113595Y-66266414D01*
X120273547Y-66397683D01*
X120273548Y-66397683D01*
X120273550Y-66397685D01*
X120456046Y-66495232D01*
X120593997Y-66537078D01*
X120654065Y-66555300D01*
X120654070Y-66555301D01*
X120859997Y-66575583D01*
X120860000Y-66575583D01*
X120860003Y-66575583D01*
X121065929Y-66555301D01*
X121065934Y-66555300D01*
X121263954Y-66495232D01*
X121446450Y-66397685D01*
X121606410Y-66266410D01*
X121737685Y-66106450D01*
X121835232Y-65923954D01*
X121895300Y-65725934D01*
X121895301Y-65725929D01*
X121915583Y-65520003D01*
X121915583Y-65519996D01*
X122344417Y-65519996D01*
X122344417Y-65520003D01*
X122364698Y-65725929D01*
X122364699Y-65725934D01*
X122424768Y-65923954D01*
X122522316Y-66106452D01*
X122598475Y-66199252D01*
X122653590Y-66266410D01*
X122653595Y-66266414D01*
X122813547Y-66397683D01*
X122813548Y-66397683D01*
X122813550Y-66397685D01*
X122996046Y-66495232D01*
X123133997Y-66537078D01*
X123194065Y-66555300D01*
X123194070Y-66555301D01*
X123399997Y-66575583D01*
X123400000Y-66575583D01*
X123400003Y-66575583D01*
X123605929Y-66555301D01*
X123605934Y-66555300D01*
X123803954Y-66495232D01*
X123986450Y-66397685D01*
X124146410Y-66266410D01*
X124277685Y-66106450D01*
X124375232Y-65923954D01*
X124399451Y-65844114D01*
X130724500Y-65844114D01*
X130724500Y-66155885D01*
X130759403Y-66465642D01*
X130759405Y-66465652D01*
X130828772Y-66769569D01*
X130931731Y-67063809D01*
X130931732Y-67063811D01*
X131066988Y-67344675D01*
X131224789Y-67595814D01*
X131232844Y-67608633D01*
X131427209Y-67852359D01*
X131647641Y-68072791D01*
X131891367Y-68267156D01*
X131973487Y-68318755D01*
X132155324Y-68433011D01*
X132295756Y-68500639D01*
X132436189Y-68568268D01*
X132730432Y-68671228D01*
X133034354Y-68740596D01*
X133117887Y-68750008D01*
X133344114Y-68775499D01*
X133344130Y-68775499D01*
X133344131Y-68775500D01*
X133344132Y-68775500D01*
X133655868Y-68775500D01*
X133655869Y-68775500D01*
X133655870Y-68775499D01*
X133655885Y-68775499D01*
X133854267Y-68753145D01*
X133965646Y-68740596D01*
X134269568Y-68671228D01*
X134563811Y-68568268D01*
X134844677Y-68433010D01*
X135108633Y-68267156D01*
X135352359Y-68072791D01*
X135572791Y-67852359D01*
X135767156Y-67608633D01*
X135933010Y-67344677D01*
X136068268Y-67063811D01*
X136171228Y-66769568D01*
X136240596Y-66465646D01*
X136253951Y-66347118D01*
X136275499Y-66155885D01*
X136275500Y-66155868D01*
X136275500Y-65844131D01*
X136275499Y-65844114D01*
X136247645Y-65596917D01*
X136240596Y-65534354D01*
X136171228Y-65230432D01*
X136068268Y-64936189D01*
X135983558Y-64760287D01*
X135933011Y-64655324D01*
X135825800Y-64484699D01*
X135767156Y-64391367D01*
X135572791Y-64147641D01*
X135352359Y-63927209D01*
X135108633Y-63732844D01*
X135010123Y-63670946D01*
X134844675Y-63566988D01*
X134563811Y-63431732D01*
X134563809Y-63431731D01*
X134269569Y-63328772D01*
X133965652Y-63259405D01*
X133965642Y-63259403D01*
X133655885Y-63224500D01*
X133655869Y-63224500D01*
X133344131Y-63224500D01*
X133344114Y-63224500D01*
X133034357Y-63259403D01*
X133034347Y-63259405D01*
X132730430Y-63328772D01*
X132436190Y-63431731D01*
X132436188Y-63431732D01*
X132155324Y-63566988D01*
X131891366Y-63732844D01*
X131647642Y-63927208D01*
X131427208Y-64147642D01*
X131232844Y-64391366D01*
X131066988Y-64655324D01*
X130931732Y-64936188D01*
X130931731Y-64936190D01*
X130828772Y-65230430D01*
X130759405Y-65534347D01*
X130759403Y-65534357D01*
X130724500Y-65844114D01*
X124399451Y-65844114D01*
X124435300Y-65725934D01*
X124435301Y-65725929D01*
X124455583Y-65520003D01*
X124455583Y-65519996D01*
X124435301Y-65314070D01*
X124435300Y-65314065D01*
X124409930Y-65230432D01*
X124375232Y-65116046D01*
X124277685Y-64933550D01*
X124264939Y-64918019D01*
X124146414Y-64773595D01*
X124146410Y-64773590D01*
X124130200Y-64760287D01*
X123986452Y-64642316D01*
X123803954Y-64544768D01*
X123605934Y-64484699D01*
X123605929Y-64484698D01*
X123400003Y-64464417D01*
X123399997Y-64464417D01*
X123194070Y-64484698D01*
X123194065Y-64484699D01*
X122996045Y-64544768D01*
X122813547Y-64642316D01*
X122653595Y-64773585D01*
X122653585Y-64773595D01*
X122522316Y-64933547D01*
X122424768Y-65116045D01*
X122364699Y-65314065D01*
X122364698Y-65314070D01*
X122344417Y-65519996D01*
X121915583Y-65519996D01*
X121895301Y-65314070D01*
X121895300Y-65314065D01*
X121869930Y-65230432D01*
X121835232Y-65116046D01*
X121737685Y-64933550D01*
X121724939Y-64918019D01*
X121606414Y-64773595D01*
X121606410Y-64773590D01*
X121590200Y-64760287D01*
X121446452Y-64642316D01*
X121263954Y-64544768D01*
X121065934Y-64484699D01*
X121065929Y-64484698D01*
X120860003Y-64464417D01*
X120859997Y-64464417D01*
X120654070Y-64484698D01*
X120654065Y-64484699D01*
X120456045Y-64544768D01*
X120273547Y-64642316D01*
X120113595Y-64773585D01*
X120113585Y-64773595D01*
X119982316Y-64933547D01*
X119884768Y-65116045D01*
X119824699Y-65314065D01*
X119824698Y-65314070D01*
X119804417Y-65519996D01*
X113617407Y-65519996D01*
X113670803Y-65458373D01*
X113730591Y-65327457D01*
X113738678Y-65271207D01*
X113765673Y-65216302D01*
X113819787Y-65187748D01*
X113880350Y-65196455D01*
X113886174Y-65199744D01*
X113887857Y-65200512D01*
X113887862Y-65200516D01*
X113989741Y-65230430D01*
X114025950Y-65241062D01*
X114025951Y-65241062D01*
X114025954Y-65241063D01*
X114025956Y-65241063D01*
X114169874Y-65241063D01*
X114169876Y-65241063D01*
X114307968Y-65200516D01*
X114429043Y-65122706D01*
X114523292Y-65013936D01*
X114583080Y-64883020D01*
X114585627Y-64865298D01*
X114600727Y-64760287D01*
X114627723Y-64705379D01*
X114681837Y-64676826D01*
X114698719Y-64675376D01*
X114735561Y-64675376D01*
X114735563Y-64675376D01*
X114873655Y-64634829D01*
X114994730Y-64557019D01*
X115088979Y-64448249D01*
X115148767Y-64317333D01*
X115155626Y-64269627D01*
X115166414Y-64194600D01*
X115193410Y-64139692D01*
X115247524Y-64111139D01*
X115264406Y-64109689D01*
X115301248Y-64109689D01*
X115301250Y-64109689D01*
X115439342Y-64069142D01*
X115560417Y-63991332D01*
X115648098Y-63890141D01*
X115700492Y-63858546D01*
X115761453Y-63863781D01*
X115797735Y-63890142D01*
X115829854Y-63927209D01*
X115867931Y-63971152D01*
X115989006Y-64048962D01*
X116095462Y-64080220D01*
X116127094Y-64089508D01*
X116127095Y-64089508D01*
X116127098Y-64089509D01*
X116127100Y-64089509D01*
X116271018Y-64089509D01*
X116271020Y-64089509D01*
X116409112Y-64048962D01*
X116530187Y-63971152D01*
X116620008Y-63867491D01*
X116672402Y-63835896D01*
X116733363Y-63841131D01*
X116767689Y-63870012D01*
X116769987Y-63868022D01*
X116774622Y-63873371D01*
X116774623Y-63873373D01*
X116868872Y-63982143D01*
X116868873Y-63982144D01*
X116989942Y-64059950D01*
X116989947Y-64059953D01*
X117090603Y-64089508D01*
X117128035Y-64100499D01*
X117128036Y-64100499D01*
X117128039Y-64100500D01*
X117128041Y-64100500D01*
X117271959Y-64100500D01*
X117271961Y-64100500D01*
X117410053Y-64059953D01*
X117531128Y-63982143D01*
X117625377Y-63873373D01*
X117685165Y-63742457D01*
X117705647Y-63600000D01*
X117705575Y-63599500D01*
X117685165Y-63457543D01*
X117673377Y-63431731D01*
X117625377Y-63326627D01*
X117531128Y-63217857D01*
X117531127Y-63217856D01*
X117531126Y-63217855D01*
X117410057Y-63140049D01*
X117410054Y-63140048D01*
X117410053Y-63140047D01*
X117356354Y-63124280D01*
X117287615Y-63104096D01*
X117245503Y-63079110D01*
X115429496Y-61263103D01*
X115401719Y-61208586D01*
X115400500Y-61193099D01*
X115400500Y-60896532D01*
X127299500Y-60896532D01*
X127299500Y-61103467D01*
X127339869Y-61306418D01*
X127419058Y-61497597D01*
X127505273Y-61626628D01*
X127534023Y-61669655D01*
X127680345Y-61815977D01*
X127852402Y-61930941D01*
X128043580Y-62010130D01*
X128246535Y-62050500D01*
X128246536Y-62050500D01*
X128453464Y-62050500D01*
X128453465Y-62050500D01*
X128656420Y-62010130D01*
X128847598Y-61930941D01*
X129019655Y-61815977D01*
X129165977Y-61669655D01*
X129280941Y-61497598D01*
X129360130Y-61306420D01*
X129400500Y-61103465D01*
X129400500Y-60896535D01*
X129360130Y-60693580D01*
X129280941Y-60502402D01*
X129165977Y-60330345D01*
X129019655Y-60184023D01*
X128952460Y-60139125D01*
X128847597Y-60069058D01*
X128656418Y-59989869D01*
X128453467Y-59949500D01*
X128453465Y-59949500D01*
X128246535Y-59949500D01*
X128246532Y-59949500D01*
X128043581Y-59989869D01*
X127852402Y-60069058D01*
X127680348Y-60184020D01*
X127534020Y-60330348D01*
X127419058Y-60502402D01*
X127339869Y-60693581D01*
X127299500Y-60896532D01*
X115400500Y-60896532D01*
X115400500Y-58999996D01*
X131364417Y-58999996D01*
X131364417Y-59000003D01*
X131384698Y-59205929D01*
X131384699Y-59205934D01*
X131444768Y-59403954D01*
X131542316Y-59586452D01*
X131673585Y-59746404D01*
X131673590Y-59746410D01*
X131673595Y-59746414D01*
X131833547Y-59877683D01*
X131833548Y-59877683D01*
X131833550Y-59877685D01*
X132016046Y-59975232D01*
X132153997Y-60017078D01*
X132214065Y-60035300D01*
X132214071Y-60035301D01*
X132260809Y-60039904D01*
X132316866Y-60064423D01*
X132347806Y-60117209D01*
X132345261Y-60169019D01*
X132329059Y-60218884D01*
X132299500Y-60405515D01*
X132299500Y-60594484D01*
X132329058Y-60781113D01*
X132387453Y-60960832D01*
X132460126Y-61103463D01*
X132473240Y-61129199D01*
X132584310Y-61282073D01*
X132717927Y-61415690D01*
X132870801Y-61526760D01*
X133039168Y-61612547D01*
X133218882Y-61670940D01*
X133218883Y-61670940D01*
X133218886Y-61670941D01*
X133405516Y-61700500D01*
X133405519Y-61700500D01*
X133594484Y-61700500D01*
X133781113Y-61670941D01*
X133781114Y-61670940D01*
X133781118Y-61670940D01*
X133960832Y-61612547D01*
X134129199Y-61526760D01*
X134282073Y-61415690D01*
X134415690Y-61282073D01*
X134526760Y-61129199D01*
X134612547Y-60960832D01*
X134670940Y-60781118D01*
X134676793Y-60744165D01*
X134700500Y-60594484D01*
X134700500Y-60405515D01*
X134670941Y-60218886D01*
X134670940Y-60218882D01*
X134612547Y-60039168D01*
X134526760Y-59870801D01*
X134415690Y-59717927D01*
X134282073Y-59584310D01*
X134129199Y-59473240D01*
X134129198Y-59473239D01*
X134129196Y-59473238D01*
X133960832Y-59387453D01*
X133781113Y-59329058D01*
X133594484Y-59299500D01*
X133594481Y-59299500D01*
X133555315Y-59299500D01*
X133497124Y-59280593D01*
X133461160Y-59231093D01*
X133456792Y-59190797D01*
X133475583Y-59000004D01*
X133475583Y-58999996D01*
X133455301Y-58794070D01*
X133455300Y-58794065D01*
X133396401Y-58599901D01*
X133395232Y-58596046D01*
X133297685Y-58413550D01*
X133280009Y-58392012D01*
X133166414Y-58253595D01*
X133166410Y-58253590D01*
X133166404Y-58253585D01*
X133006452Y-58122316D01*
X132823954Y-58024768D01*
X132625934Y-57964699D01*
X132625929Y-57964698D01*
X132420003Y-57944417D01*
X132419997Y-57944417D01*
X132214070Y-57964698D01*
X132214065Y-57964699D01*
X132016045Y-58024768D01*
X131833547Y-58122316D01*
X131673595Y-58253585D01*
X131673585Y-58253595D01*
X131542316Y-58413547D01*
X131444768Y-58596045D01*
X131384699Y-58794065D01*
X131384698Y-58794070D01*
X131364417Y-58999996D01*
X115400500Y-58999996D01*
X115400500Y-58077274D01*
X115400500Y-58077273D01*
X115373207Y-57975412D01*
X115373205Y-57975409D01*
X115373205Y-57975407D01*
X115320483Y-57884091D01*
X115320482Y-57884090D01*
X115320481Y-57884089D01*
X115320480Y-57884087D01*
X114253744Y-56817351D01*
X114225967Y-56762834D01*
X114225779Y-56761594D01*
X114220165Y-56722543D01*
X114160377Y-56591627D01*
X114066128Y-56482857D01*
X114066127Y-56482856D01*
X114066126Y-56482855D01*
X113945057Y-56405049D01*
X113945054Y-56405047D01*
X113945053Y-56405047D01*
X113945050Y-56405046D01*
X113806964Y-56364500D01*
X113806961Y-56364500D01*
X113663039Y-56364500D01*
X113663035Y-56364500D01*
X113524949Y-56405046D01*
X113524942Y-56405049D01*
X113403873Y-56482855D01*
X113309622Y-56591628D01*
X113249834Y-56722543D01*
X113229353Y-56864997D01*
X113229353Y-56865002D01*
X113249834Y-57007456D01*
X113309622Y-57138371D01*
X113309623Y-57138373D01*
X113403872Y-57247143D01*
X113403873Y-57247144D01*
X113524942Y-57324950D01*
X113524947Y-57324953D01*
X113647383Y-57360903D01*
X113689496Y-57385889D01*
X114570504Y-58266897D01*
X114598281Y-58321414D01*
X114599500Y-58336901D01*
X114599500Y-60744165D01*
X114580593Y-60802356D01*
X114531093Y-60838320D01*
X114472609Y-60839155D01*
X114371965Y-60809603D01*
X114371962Y-60809603D01*
X114228040Y-60809603D01*
X114228036Y-60809603D01*
X114089950Y-60850149D01*
X114089943Y-60850152D01*
X113968874Y-60927958D01*
X113874623Y-61036731D01*
X113814835Y-61167646D01*
X113793709Y-61314589D01*
X113766713Y-61369496D01*
X113712599Y-61398050D01*
X113695717Y-61399500D01*
X113628035Y-61399500D01*
X113489949Y-61440046D01*
X113489942Y-61440049D01*
X113368873Y-61517855D01*
X113274622Y-61626628D01*
X113214834Y-61757543D01*
X113194353Y-61899997D01*
X113194353Y-61900002D01*
X113214834Y-62042456D01*
X113218508Y-62050500D01*
X113274623Y-62173373D01*
X113319035Y-62224627D01*
X113329947Y-62239952D01*
X113379516Y-62325808D01*
X113379518Y-62325810D01*
X113379520Y-62325813D01*
X113588037Y-62534330D01*
X113615813Y-62588845D01*
X113606242Y-62649277D01*
X113562977Y-62692542D01*
X113518032Y-62703332D01*
X110360901Y-62703332D01*
X110307379Y-62687616D01*
X110239322Y-62643879D01*
X110239319Y-62643878D01*
X110101233Y-62603332D01*
X110101230Y-62603332D01*
X109957308Y-62603332D01*
X109957304Y-62603332D01*
X109819218Y-62643878D01*
X109819211Y-62643881D01*
X109698142Y-62721687D01*
X109603891Y-62830460D01*
X109544103Y-62961375D01*
X109523622Y-63103829D01*
X109523622Y-63103834D01*
X109544103Y-63246288D01*
X109580794Y-63326628D01*
X109603892Y-63377205D01*
X109624526Y-63401019D01*
X109648344Y-63457377D01*
X109634486Y-63516972D01*
X109624527Y-63530680D01*
X109540262Y-63627928D01*
X109480474Y-63758843D01*
X109459993Y-63901297D01*
X109459993Y-63901302D01*
X109480474Y-64043756D01*
X109540263Y-64174673D01*
X109570425Y-64209482D01*
X109594243Y-64265841D01*
X109580385Y-64325436D01*
X109570426Y-64339143D01*
X109494623Y-64426626D01*
X109434834Y-64557543D01*
X109414353Y-64699997D01*
X98163446Y-64699997D01*
X96937896Y-63474447D01*
X96910119Y-63419930D01*
X96908900Y-63404443D01*
X96908900Y-54201456D01*
X126874500Y-54201456D01*
X126874500Y-54398543D01*
X126912949Y-54591834D01*
X126912949Y-54591836D01*
X126988367Y-54773913D01*
X126988368Y-54773914D01*
X127097861Y-54937782D01*
X127237218Y-55077139D01*
X127401086Y-55186632D01*
X127583165Y-55262051D01*
X127776459Y-55300500D01*
X127776460Y-55300500D01*
X127973540Y-55300500D01*
X127973541Y-55300500D01*
X128166835Y-55262051D01*
X128348914Y-55186632D01*
X128512782Y-55077139D01*
X128652139Y-54937782D01*
X128761632Y-54773914D01*
X128837051Y-54591835D01*
X128875500Y-54398541D01*
X128875500Y-54201459D01*
X128837051Y-54008165D01*
X128761632Y-53826086D01*
X128652139Y-53662218D01*
X128512782Y-53522861D01*
X128348914Y-53413368D01*
X128348915Y-53413368D01*
X128348913Y-53413367D01*
X128166835Y-53337949D01*
X127973543Y-53299500D01*
X127973541Y-53299500D01*
X127776459Y-53299500D01*
X127776456Y-53299500D01*
X127583165Y-53337949D01*
X127583163Y-53337949D01*
X127401086Y-53413367D01*
X127237218Y-53522861D01*
X127237214Y-53522864D01*
X127097864Y-53662214D01*
X127097861Y-53662218D01*
X126988367Y-53826086D01*
X126912949Y-54008163D01*
X126912949Y-54008165D01*
X126874500Y-54201456D01*
X96908900Y-54201456D01*
X96908900Y-52519762D01*
X96927807Y-52461571D01*
X96937890Y-52449764D01*
X97577658Y-51809996D01*
X126869659Y-51809996D01*
X126869659Y-51810003D01*
X126888974Y-52006126D01*
X126888975Y-52006129D01*
X126946187Y-52194730D01*
X126946188Y-52194732D01*
X126963440Y-52227007D01*
X127039090Y-52368538D01*
X127039092Y-52368540D01*
X127039093Y-52368542D01*
X127164112Y-52520878D01*
X127164121Y-52520887D01*
X127305113Y-52636596D01*
X127316462Y-52645910D01*
X127490273Y-52738814D01*
X127678868Y-52796024D01*
X127678870Y-52796024D01*
X127678873Y-52796025D01*
X127874997Y-52815341D01*
X127875000Y-52815341D01*
X127875003Y-52815341D01*
X128071126Y-52796025D01*
X128071127Y-52796024D01*
X128071132Y-52796024D01*
X128259727Y-52738814D01*
X128433538Y-52645910D01*
X128585883Y-52520883D01*
X128710910Y-52368538D01*
X128803814Y-52194727D01*
X128861024Y-52006132D01*
X128875991Y-51854174D01*
X128880341Y-51810003D01*
X128880341Y-51809996D01*
X128861025Y-51613873D01*
X128861024Y-51613870D01*
X128861024Y-51613868D01*
X128803814Y-51425273D01*
X128710910Y-51251462D01*
X128710906Y-51251457D01*
X128585887Y-51099121D01*
X128585878Y-51099112D01*
X128433542Y-50974093D01*
X128433540Y-50974092D01*
X128433538Y-50974090D01*
X128355635Y-50932450D01*
X128259732Y-50881188D01*
X128259730Y-50881187D01*
X128071129Y-50823975D01*
X128071126Y-50823974D01*
X127875003Y-50804659D01*
X127874997Y-50804659D01*
X127678873Y-50823974D01*
X127678870Y-50823975D01*
X127490269Y-50881187D01*
X127490267Y-50881188D01*
X127316467Y-50974087D01*
X127316457Y-50974093D01*
X127164121Y-51099112D01*
X127164112Y-51099121D01*
X127039093Y-51251457D01*
X127039087Y-51251467D01*
X126946188Y-51425267D01*
X126946187Y-51425269D01*
X126888975Y-51613870D01*
X126888974Y-51613873D01*
X126869659Y-51809996D01*
X97577658Y-51809996D01*
X101613582Y-47774073D01*
X101645079Y-47719518D01*
X101666309Y-47682747D01*
X101693602Y-47580887D01*
X101693602Y-47419874D01*
X101712509Y-47361683D01*
X101762009Y-47325719D01*
X101792602Y-47320874D01*
X104318368Y-47320874D01*
X104371889Y-47336589D01*
X104439947Y-47380327D01*
X104508583Y-47400480D01*
X104578035Y-47420873D01*
X104578036Y-47420873D01*
X104578039Y-47420874D01*
X104578041Y-47420874D01*
X104721959Y-47420874D01*
X104721961Y-47420874D01*
X104860053Y-47380327D01*
X104981128Y-47302517D01*
X105075377Y-47193747D01*
X105135165Y-47062831D01*
X105153035Y-46938541D01*
X105155647Y-46920376D01*
X105155647Y-46920371D01*
X105135165Y-46777917D01*
X105105640Y-46713268D01*
X105075377Y-46647001D01*
X104981128Y-46538231D01*
X104981127Y-46538230D01*
X104981126Y-46538229D01*
X104860057Y-46460423D01*
X104860054Y-46460421D01*
X104860053Y-46460421D01*
X104848014Y-46456886D01*
X104721964Y-46419874D01*
X104721961Y-46419874D01*
X104578039Y-46419874D01*
X104578035Y-46419874D01*
X104439949Y-46460420D01*
X104439946Y-46460421D01*
X104410868Y-46479108D01*
X104371889Y-46504158D01*
X104318368Y-46519874D01*
X101500002Y-46519874D01*
X101441811Y-46500967D01*
X101429998Y-46490878D01*
X100588551Y-45649430D01*
X100560774Y-45594913D01*
X100560402Y-45592345D01*
X100559800Y-45587778D01*
X100559800Y-45587773D01*
X100532506Y-45485912D01*
X100479780Y-45394587D01*
X100317336Y-45232143D01*
X100131844Y-45046650D01*
X100104067Y-44992134D01*
X100103879Y-44990894D01*
X100098265Y-44951843D01*
X100091845Y-44937785D01*
X100038478Y-44820928D01*
X100038477Y-44820926D01*
X100037779Y-44820121D01*
X100037432Y-44819301D01*
X100034649Y-44814970D01*
X100035398Y-44814488D01*
X100013963Y-44763761D01*
X100013600Y-44755292D01*
X100013600Y-43119974D01*
X100013600Y-43119973D01*
X99986307Y-43018113D01*
X99986307Y-43018112D01*
X99986307Y-43018111D01*
X99933583Y-42926791D01*
X99933582Y-42926790D01*
X99933581Y-42926789D01*
X99933580Y-42926787D01*
X99904695Y-42897902D01*
X99876919Y-42843385D01*
X99875700Y-42827899D01*
X99875700Y-38982447D01*
X99875699Y-38982441D01*
X99870549Y-38963220D01*
X99848407Y-38880584D01*
X99848405Y-38880581D01*
X99848405Y-38880579D01*
X99795683Y-38789263D01*
X99795682Y-38789262D01*
X99795681Y-38789261D01*
X99795680Y-38789259D01*
X98629496Y-37623075D01*
X98601719Y-37568558D01*
X98600500Y-37553071D01*
X98600500Y-35700001D01*
X99250001Y-35700001D01*
X99250001Y-36994791D01*
X99252909Y-37019874D01*
X99298213Y-37122477D01*
X99377522Y-37201786D01*
X99480127Y-37247090D01*
X99505203Y-37249999D01*
X99899998Y-37249999D01*
X99900000Y-37249998D01*
X99900000Y-35700001D01*
X100200000Y-35700001D01*
X100200000Y-37249998D01*
X100200001Y-37249999D01*
X100594790Y-37249999D01*
X100594791Y-37249998D01*
X100619874Y-37247090D01*
X100722477Y-37201786D01*
X100801786Y-37122477D01*
X100847090Y-37019872D01*
X100849999Y-36994797D01*
X100850000Y-36994795D01*
X100850000Y-35700001D01*
X100849999Y-35700000D01*
X100200001Y-35700000D01*
X100200000Y-35700001D01*
X99900000Y-35700001D01*
X99899999Y-35700000D01*
X99250002Y-35700000D01*
X99250001Y-35700001D01*
X98600500Y-35700001D01*
X98600500Y-34105202D01*
X99250000Y-34105202D01*
X99250000Y-35399999D01*
X99250001Y-35400000D01*
X99899999Y-35400000D01*
X99900000Y-35399999D01*
X99900000Y-33850001D01*
X100200000Y-33850001D01*
X100200000Y-35399999D01*
X100200001Y-35400000D01*
X100849998Y-35400000D01*
X100849999Y-35399999D01*
X100849999Y-34105210D01*
X100849998Y-34105208D01*
X100847090Y-34080125D01*
X100801786Y-33977522D01*
X100722477Y-33898213D01*
X100619872Y-33852909D01*
X100594797Y-33850000D01*
X100200001Y-33850000D01*
X100200000Y-33850001D01*
X99900000Y-33850001D01*
X99899999Y-33850000D01*
X99505210Y-33850000D01*
X99505207Y-33850001D01*
X99480125Y-33852909D01*
X99377522Y-33898213D01*
X99298213Y-33977522D01*
X99252909Y-34080127D01*
X99250000Y-34105202D01*
X98600500Y-34105202D01*
X98600500Y-29900001D01*
X99250001Y-29900001D01*
X99250001Y-31194791D01*
X99252909Y-31219874D01*
X99298213Y-31322477D01*
X99377522Y-31401786D01*
X99480127Y-31447090D01*
X99505203Y-31449999D01*
X99899998Y-31449999D01*
X99900000Y-31449998D01*
X99900000Y-29900001D01*
X100200000Y-29900001D01*
X100200000Y-31449998D01*
X100200001Y-31449999D01*
X100594790Y-31449999D01*
X100594791Y-31449998D01*
X100619874Y-31447090D01*
X100722477Y-31401786D01*
X100801786Y-31322477D01*
X100847090Y-31219872D01*
X100849999Y-31194797D01*
X100850000Y-31194795D01*
X100850000Y-30514284D01*
X103769500Y-30514284D01*
X103769500Y-39185715D01*
X103791572Y-39253650D01*
X103813407Y-39283702D01*
X103833560Y-39311440D01*
X103891349Y-39353427D01*
X103959284Y-39375500D01*
X103984438Y-39375500D01*
X104568415Y-39375500D01*
X104626606Y-39394407D01*
X104662570Y-39443907D01*
X104662570Y-39505093D01*
X104638420Y-39544501D01*
X104573228Y-39609694D01*
X104535181Y-39647741D01*
X104439211Y-39800476D01*
X104439211Y-39800477D01*
X104379633Y-39970738D01*
X104379632Y-39970742D01*
X104359435Y-40150000D01*
X104379632Y-40329257D01*
X104379633Y-40329261D01*
X104439211Y-40499522D01*
X104439211Y-40499523D01*
X104535181Y-40652258D01*
X104535184Y-40652262D01*
X104662738Y-40779816D01*
X104662740Y-40779817D01*
X104662741Y-40779818D01*
X104808155Y-40871188D01*
X104815478Y-40875789D01*
X104880302Y-40898472D01*
X104985738Y-40935366D01*
X104985742Y-40935367D01*
X104985745Y-40935368D01*
X105165000Y-40955565D01*
X105344255Y-40935368D01*
X105514522Y-40875789D01*
X105667262Y-40779816D01*
X105794816Y-40652262D01*
X105890789Y-40499522D01*
X105950368Y-40329255D01*
X105956622Y-40273742D01*
X105981926Y-40218036D01*
X106035141Y-40187840D01*
X106095942Y-40194691D01*
X106141104Y-40235971D01*
X106153377Y-40273741D01*
X106157764Y-40312682D01*
X106159632Y-40329257D01*
X106159633Y-40329261D01*
X106219211Y-40499522D01*
X106219211Y-40499523D01*
X106315181Y-40652258D01*
X106315184Y-40652262D01*
X106442738Y-40779816D01*
X106442740Y-40779817D01*
X106442741Y-40779818D01*
X106588155Y-40871188D01*
X106595478Y-40875789D01*
X106660302Y-40898472D01*
X106765738Y-40935366D01*
X106765742Y-40935367D01*
X106765745Y-40935368D01*
X106945000Y-40955565D01*
X107124255Y-40935368D01*
X107294522Y-40875789D01*
X107447262Y-40779816D01*
X107574816Y-40652262D01*
X107670789Y-40499522D01*
X107730368Y-40329255D01*
X107736622Y-40273742D01*
X107761926Y-40218036D01*
X107815141Y-40187840D01*
X107875942Y-40194691D01*
X107921104Y-40235971D01*
X107933377Y-40273741D01*
X107937764Y-40312682D01*
X107939632Y-40329257D01*
X107939633Y-40329261D01*
X107999211Y-40499522D01*
X107999211Y-40499523D01*
X108095181Y-40652258D01*
X108095184Y-40652262D01*
X108222738Y-40779816D01*
X108222740Y-40779817D01*
X108222741Y-40779818D01*
X108368155Y-40871188D01*
X108375478Y-40875789D01*
X108440302Y-40898472D01*
X108545738Y-40935366D01*
X108545742Y-40935367D01*
X108545745Y-40935368D01*
X108725000Y-40955565D01*
X108904255Y-40935368D01*
X109074522Y-40875789D01*
X109227262Y-40779816D01*
X109354816Y-40652262D01*
X109450789Y-40499522D01*
X109510368Y-40329255D01*
X109516622Y-40273742D01*
X109541926Y-40218036D01*
X109595141Y-40187840D01*
X109655942Y-40194691D01*
X109701104Y-40235971D01*
X109713377Y-40273741D01*
X109717764Y-40312682D01*
X109719632Y-40329257D01*
X109719633Y-40329261D01*
X109779211Y-40499522D01*
X109779211Y-40499523D01*
X109875181Y-40652258D01*
X109875184Y-40652262D01*
X110002738Y-40779816D01*
X110002740Y-40779817D01*
X110002741Y-40779818D01*
X110002744Y-40779820D01*
X110045335Y-40806581D01*
X110057100Y-40813974D01*
X110058170Y-40814646D01*
X110097383Y-40861614D01*
X110104500Y-40898472D01*
X110104500Y-44192273D01*
X110104500Y-44297727D01*
X110112909Y-44329110D01*
X110131794Y-44399592D01*
X110184516Y-44490908D01*
X110184520Y-44490913D01*
X110473603Y-44779997D01*
X110501380Y-44834513D01*
X110491809Y-44894945D01*
X110473603Y-44920003D01*
X110184520Y-45209086D01*
X110184516Y-45209091D01*
X110131795Y-45300406D01*
X110131793Y-45300410D01*
X110131793Y-45300412D01*
X110129237Y-45309953D01*
X110119171Y-45347520D01*
X110104500Y-45402273D01*
X110104500Y-48031999D01*
X110085593Y-48090190D01*
X110075504Y-48102003D01*
X108225896Y-49951610D01*
X108183784Y-49976596D01*
X108061347Y-50012547D01*
X108061342Y-50012549D01*
X107940273Y-50090355D01*
X107846022Y-50199128D01*
X107786234Y-50330043D01*
X107765753Y-50472497D01*
X107765753Y-50472502D01*
X107786234Y-50614956D01*
X107786235Y-50614958D01*
X107846023Y-50745873D01*
X107913699Y-50823976D01*
X107940273Y-50854644D01*
X108059679Y-50931381D01*
X108061347Y-50932453D01*
X108152297Y-50959158D01*
X108199435Y-50972999D01*
X108199436Y-50972999D01*
X108199439Y-50973000D01*
X108199441Y-50973000D01*
X108343359Y-50973000D01*
X108343361Y-50973000D01*
X108481453Y-50932453D01*
X108602528Y-50854643D01*
X108696777Y-50745873D01*
X108756565Y-50614957D01*
X108762156Y-50576062D01*
X108789149Y-50521157D01*
X108790076Y-50520215D01*
X110040292Y-49270000D01*
X126770287Y-49270000D01*
X126789097Y-49472989D01*
X126844887Y-49669070D01*
X126935750Y-49851548D01*
X126935759Y-49851563D01*
X126998379Y-49934486D01*
X127467930Y-49464935D01*
X127514910Y-49546306D01*
X127598694Y-49630090D01*
X127680062Y-49677068D01*
X127207320Y-50149809D01*
X127209263Y-50151580D01*
X127209270Y-50151586D01*
X127382581Y-50258895D01*
X127382586Y-50258898D01*
X127572683Y-50332541D01*
X127773070Y-50370000D01*
X127976930Y-50370000D01*
X128177316Y-50332541D01*
X128367413Y-50258898D01*
X128367418Y-50258895D01*
X128540731Y-50151584D01*
X128542676Y-50149809D01*
X128069935Y-49677068D01*
X128151306Y-49630090D01*
X128235090Y-49546306D01*
X128282068Y-49464935D01*
X128751619Y-49934486D01*
X128814239Y-49851564D01*
X128814249Y-49851548D01*
X128905112Y-49669070D01*
X128960902Y-49472989D01*
X128979712Y-49270000D01*
X128960902Y-49067010D01*
X128905112Y-48870929D01*
X128814249Y-48688451D01*
X128814244Y-48688442D01*
X128751618Y-48605513D01*
X128282068Y-49075062D01*
X128235090Y-48993694D01*
X128151306Y-48909910D01*
X128069934Y-48862930D01*
X128542677Y-48390188D01*
X128540736Y-48388419D01*
X128540733Y-48388417D01*
X128367418Y-48281104D01*
X128367413Y-48281101D01*
X128177316Y-48207458D01*
X127976930Y-48170000D01*
X127773070Y-48170000D01*
X127572683Y-48207458D01*
X127382588Y-48281101D01*
X127209263Y-48388419D01*
X127207321Y-48390189D01*
X127680063Y-48862931D01*
X127598694Y-48909910D01*
X127514910Y-48993694D01*
X127467931Y-49075063D01*
X126998379Y-48605511D01*
X126935759Y-48688436D01*
X126935750Y-48688451D01*
X126844887Y-48870929D01*
X126789097Y-49067010D01*
X126770287Y-49270000D01*
X110040292Y-49270000D01*
X110825480Y-48484813D01*
X110873869Y-48401000D01*
X110878169Y-48393553D01*
X110878179Y-48393534D01*
X110878206Y-48393488D01*
X110878207Y-48393487D01*
X110905500Y-48291627D01*
X110905500Y-47794797D01*
X112416553Y-47794797D01*
X112416553Y-47794802D01*
X112437034Y-47937256D01*
X112496822Y-48068170D01*
X112496823Y-48068173D01*
X112501012Y-48073007D01*
X112591073Y-48176944D01*
X112638554Y-48207458D01*
X112712147Y-48254753D01*
X112818603Y-48286011D01*
X112850235Y-48295299D01*
X112850236Y-48295299D01*
X112850239Y-48295300D01*
X112850241Y-48295300D01*
X112994159Y-48295300D01*
X112994161Y-48295300D01*
X113132253Y-48254753D01*
X113253328Y-48176943D01*
X113347577Y-48068173D01*
X113407365Y-47937257D01*
X113412956Y-47898362D01*
X113439949Y-47843457D01*
X113440877Y-47842514D01*
X114553396Y-46729996D01*
X126869659Y-46729996D01*
X126869659Y-46730003D01*
X126888974Y-46926126D01*
X126888975Y-46926129D01*
X126946187Y-47114730D01*
X126946188Y-47114732D01*
X126963179Y-47146519D01*
X127039090Y-47288538D01*
X127039092Y-47288540D01*
X127039093Y-47288542D01*
X127164112Y-47440878D01*
X127164121Y-47440887D01*
X127300529Y-47552834D01*
X127316462Y-47565910D01*
X127403641Y-47612508D01*
X127478166Y-47652343D01*
X127490273Y-47658814D01*
X127678868Y-47716024D01*
X127678870Y-47716024D01*
X127678873Y-47716025D01*
X127874997Y-47735341D01*
X127875000Y-47735341D01*
X127875003Y-47735341D01*
X128071126Y-47716025D01*
X128071127Y-47716024D01*
X128071132Y-47716024D01*
X128259727Y-47658814D01*
X128433538Y-47565910D01*
X128585883Y-47440883D01*
X128710910Y-47288538D01*
X128803814Y-47114727D01*
X128861024Y-46926132D01*
X128861592Y-46920374D01*
X128880341Y-46730003D01*
X128880341Y-46729996D01*
X128861025Y-46533873D01*
X128861024Y-46533870D01*
X128861024Y-46533868D01*
X128803814Y-46345273D01*
X128710910Y-46171462D01*
X128710906Y-46171457D01*
X128585887Y-46019121D01*
X128585878Y-46019112D01*
X128433542Y-45894093D01*
X128433540Y-45894092D01*
X128433538Y-45894090D01*
X128363450Y-45856627D01*
X128259732Y-45801188D01*
X128259730Y-45801187D01*
X128071129Y-45743975D01*
X128071126Y-45743974D01*
X127875003Y-45724659D01*
X127874997Y-45724659D01*
X127678873Y-45743974D01*
X127678870Y-45743975D01*
X127490269Y-45801187D01*
X127490267Y-45801188D01*
X127316467Y-45894087D01*
X127316457Y-45894093D01*
X127164121Y-46019112D01*
X127164112Y-46019121D01*
X127039093Y-46171457D01*
X127039087Y-46171467D01*
X126946188Y-46345267D01*
X126946187Y-46345269D01*
X126888975Y-46533870D01*
X126888974Y-46533873D01*
X126869659Y-46729996D01*
X114553396Y-46729996D01*
X114723896Y-46559496D01*
X114778413Y-46531719D01*
X114793900Y-46530500D01*
X114798368Y-46530500D01*
X114851889Y-46546215D01*
X114919947Y-46589953D01*
X115013128Y-46617313D01*
X115058035Y-46630499D01*
X115058036Y-46630499D01*
X115058039Y-46630500D01*
X115058041Y-46630500D01*
X115201959Y-46630500D01*
X115201961Y-46630500D01*
X115340053Y-46589953D01*
X115461128Y-46512143D01*
X115555377Y-46403373D01*
X115615165Y-46272457D01*
X115629686Y-46171462D01*
X115635647Y-46130002D01*
X115635647Y-46129997D01*
X115615165Y-45987543D01*
X115572486Y-45894090D01*
X115555377Y-45856627D01*
X115461128Y-45747857D01*
X115461127Y-45747856D01*
X115461126Y-45747855D01*
X115340057Y-45670049D01*
X115340054Y-45670047D01*
X115340053Y-45670047D01*
X115340050Y-45670046D01*
X115201964Y-45629500D01*
X115201961Y-45629500D01*
X115058039Y-45629500D01*
X115058035Y-45629500D01*
X114919949Y-45670046D01*
X114919946Y-45670047D01*
X114890868Y-45688734D01*
X114851889Y-45713784D01*
X114798368Y-45729500D01*
X114645806Y-45729500D01*
X114645790Y-45729499D01*
X114639727Y-45729499D01*
X114534273Y-45729499D01*
X114534270Y-45729499D01*
X114432413Y-45756792D01*
X114432409Y-45756794D01*
X114341087Y-45809519D01*
X114266519Y-45884086D01*
X114266520Y-45884087D01*
X114266518Y-45884089D01*
X112876696Y-47273910D01*
X112834584Y-47298896D01*
X112712147Y-47334847D01*
X112712142Y-47334849D01*
X112591073Y-47412655D01*
X112496822Y-47521428D01*
X112437034Y-47652343D01*
X112416553Y-47794797D01*
X110905500Y-47794797D01*
X110905500Y-45661901D01*
X110924407Y-45603710D01*
X110934496Y-45591898D01*
X111155503Y-45370890D01*
X111197614Y-45345903D01*
X111320053Y-45309953D01*
X111441128Y-45232143D01*
X111535377Y-45123373D01*
X111595165Y-44992457D01*
X111615647Y-44850000D01*
X111613420Y-44834513D01*
X111595165Y-44707543D01*
X111535377Y-44576627D01*
X111441128Y-44467857D01*
X111441127Y-44467856D01*
X111441126Y-44467855D01*
X111320057Y-44390049D01*
X111320054Y-44390048D01*
X111320053Y-44390047D01*
X111266354Y-44374280D01*
X111197615Y-44354096D01*
X111155503Y-44329110D01*
X111016389Y-44189996D01*
X126869659Y-44189996D01*
X126869659Y-44190003D01*
X126888974Y-44386126D01*
X126888975Y-44386129D01*
X126946187Y-44574730D01*
X126946188Y-44574732D01*
X127017178Y-44707543D01*
X127039090Y-44748538D01*
X127039092Y-44748540D01*
X127039093Y-44748542D01*
X127164112Y-44900878D01*
X127164121Y-44900887D01*
X127313346Y-45023353D01*
X127316462Y-45025910D01*
X127490273Y-45118814D01*
X127678868Y-45176024D01*
X127678870Y-45176024D01*
X127678873Y-45176025D01*
X127874997Y-45195341D01*
X127875000Y-45195341D01*
X127875003Y-45195341D01*
X128071126Y-45176025D01*
X128071127Y-45176024D01*
X128071132Y-45176024D01*
X128259727Y-45118814D01*
X128433538Y-45025910D01*
X128585883Y-44900883D01*
X128710910Y-44748538D01*
X128803814Y-44574727D01*
X128861024Y-44386132D01*
X128864180Y-44354096D01*
X128880341Y-44190003D01*
X128880341Y-44189996D01*
X128861025Y-43993873D01*
X128861024Y-43993870D01*
X128861024Y-43993868D01*
X128803814Y-43805273D01*
X128710910Y-43631462D01*
X128710906Y-43631457D01*
X128585887Y-43479121D01*
X128585878Y-43479112D01*
X128433542Y-43354093D01*
X128433540Y-43354092D01*
X128433538Y-43354090D01*
X128392618Y-43332218D01*
X128259732Y-43261188D01*
X128259730Y-43261187D01*
X128071129Y-43203975D01*
X128071126Y-43203974D01*
X127875003Y-43184659D01*
X127874997Y-43184659D01*
X127678873Y-43203974D01*
X127678870Y-43203975D01*
X127490269Y-43261187D01*
X127490267Y-43261188D01*
X127316467Y-43354087D01*
X127316457Y-43354093D01*
X127164121Y-43479112D01*
X127164112Y-43479121D01*
X127039093Y-43631457D01*
X127039087Y-43631467D01*
X126946188Y-43805267D01*
X126946187Y-43805269D01*
X126888975Y-43993870D01*
X126888974Y-43993873D01*
X126869659Y-44189996D01*
X111016389Y-44189996D01*
X110934496Y-44108103D01*
X110906719Y-44053586D01*
X110905500Y-44038099D01*
X110905500Y-41799996D01*
X125644659Y-41799996D01*
X125644659Y-41800003D01*
X125663974Y-41996126D01*
X125663975Y-41996129D01*
X125721187Y-42184730D01*
X125721188Y-42184732D01*
X125739683Y-42219333D01*
X125814090Y-42358538D01*
X125814092Y-42358540D01*
X125814093Y-42358542D01*
X125939112Y-42510878D01*
X125939121Y-42510887D01*
X126091457Y-42635906D01*
X126091462Y-42635910D01*
X126265273Y-42728814D01*
X126453868Y-42786024D01*
X126453870Y-42786024D01*
X126453873Y-42786025D01*
X126649997Y-42805341D01*
X126650000Y-42805341D01*
X126650003Y-42805341D01*
X126846126Y-42786025D01*
X126846127Y-42786024D01*
X126846132Y-42786024D01*
X127034727Y-42728814D01*
X127208538Y-42635910D01*
X127360883Y-42510883D01*
X127436073Y-42419263D01*
X127487602Y-42386277D01*
X127548682Y-42389878D01*
X127591604Y-42422409D01*
X127623379Y-42464486D01*
X128092930Y-41994935D01*
X128139910Y-42076306D01*
X128223694Y-42160090D01*
X128305062Y-42207068D01*
X127832320Y-42679809D01*
X127834263Y-42681580D01*
X127834270Y-42681586D01*
X128007581Y-42788895D01*
X128007586Y-42788898D01*
X128197683Y-42862541D01*
X128398070Y-42900000D01*
X128601930Y-42900000D01*
X128802316Y-42862541D01*
X128992413Y-42788898D01*
X128992418Y-42788895D01*
X129165731Y-42681584D01*
X129167676Y-42679809D01*
X128694935Y-42207068D01*
X128776306Y-42160090D01*
X128860090Y-42076306D01*
X128907068Y-41994935D01*
X129376619Y-42464486D01*
X129439239Y-42381564D01*
X129439249Y-42381548D01*
X129530112Y-42199070D01*
X129585902Y-42002989D01*
X129604712Y-41800000D01*
X129590668Y-41648442D01*
X140874500Y-41648442D01*
X140874500Y-55351557D01*
X140906360Y-55449609D01*
X140906363Y-55449616D01*
X140966968Y-55533032D01*
X141050384Y-55593637D01*
X141050389Y-55593638D01*
X141050390Y-55593639D01*
X141148442Y-55625499D01*
X141148444Y-55625499D01*
X141148446Y-55625500D01*
X141148447Y-55625500D01*
X143051553Y-55625500D01*
X143051554Y-55625500D01*
X143149616Y-55593637D01*
X143233032Y-55533032D01*
X143293637Y-55449616D01*
X143325500Y-55351554D01*
X143325500Y-55300000D01*
X143325500Y-55291715D01*
X143325500Y-51769999D01*
X147910045Y-51769999D01*
X147910046Y-51770000D01*
X148722555Y-51770000D01*
X148700000Y-51854174D01*
X148700000Y-51985826D01*
X148722555Y-52070000D01*
X147910045Y-52070000D01*
X147927084Y-52177579D01*
X147980588Y-52342248D01*
X148059195Y-52496524D01*
X148059197Y-52496528D01*
X148160962Y-52636596D01*
X148283403Y-52759037D01*
X148423471Y-52860802D01*
X148423475Y-52860804D01*
X148577751Y-52939411D01*
X148742420Y-52992915D01*
X148913425Y-53020000D01*
X149049999Y-53020000D01*
X149050000Y-53019999D01*
X149050000Y-52397445D01*
X149134174Y-52420000D01*
X149265826Y-52420000D01*
X149350000Y-52397445D01*
X149350000Y-53019999D01*
X149350001Y-53020000D01*
X149486575Y-53020000D01*
X149657579Y-52992915D01*
X149822248Y-52939411D01*
X149976524Y-52860804D01*
X149976528Y-52860802D01*
X150116596Y-52759037D01*
X150239037Y-52636596D01*
X150340802Y-52496528D01*
X150340804Y-52496524D01*
X150419411Y-52342248D01*
X150472915Y-52177579D01*
X150489954Y-52070000D01*
X149677445Y-52070000D01*
X149700000Y-51985826D01*
X149700000Y-51854174D01*
X149677445Y-51770000D01*
X150489954Y-51770000D01*
X150489954Y-51769999D01*
X150472915Y-51662420D01*
X150419411Y-51497751D01*
X150340804Y-51343475D01*
X150340802Y-51343471D01*
X150239037Y-51203403D01*
X150116596Y-51080962D01*
X149976528Y-50979197D01*
X149976524Y-50979195D01*
X149822248Y-50900588D01*
X149657579Y-50847084D01*
X149486575Y-50820000D01*
X149350001Y-50820000D01*
X149350000Y-50820001D01*
X149350000Y-51442554D01*
X149265826Y-51420000D01*
X149134174Y-51420000D01*
X149050000Y-51442554D01*
X149050000Y-50820001D01*
X149049999Y-50820000D01*
X148913425Y-50820000D01*
X148742420Y-50847084D01*
X148577751Y-50900588D01*
X148423475Y-50979195D01*
X148423471Y-50979197D01*
X148283403Y-51080962D01*
X148160962Y-51203403D01*
X148059197Y-51343471D01*
X148059195Y-51343475D01*
X147980588Y-51497751D01*
X147927084Y-51662420D01*
X147910045Y-51769999D01*
X143325500Y-51769999D01*
X143325500Y-41689438D01*
X143325500Y-41648446D01*
X143314689Y-41615175D01*
X143293639Y-41550390D01*
X143293638Y-41550389D01*
X143293637Y-41550384D01*
X143233032Y-41466968D01*
X143149616Y-41406363D01*
X143149609Y-41406360D01*
X143051557Y-41374500D01*
X143051554Y-41374500D01*
X143010562Y-41374500D01*
X141208285Y-41374500D01*
X141200000Y-41374500D01*
X141148446Y-41374500D01*
X141148442Y-41374500D01*
X141050390Y-41406360D01*
X141050383Y-41406363D01*
X140966971Y-41466965D01*
X140966965Y-41466971D01*
X140906363Y-41550383D01*
X140906360Y-41550390D01*
X140874500Y-41648442D01*
X129590668Y-41648442D01*
X129585902Y-41597010D01*
X129530112Y-41400929D01*
X129439249Y-41218451D01*
X129439244Y-41218442D01*
X129376618Y-41135513D01*
X128907068Y-41605062D01*
X128860090Y-41523694D01*
X128776306Y-41439910D01*
X128694934Y-41392930D01*
X129167677Y-40920188D01*
X129165736Y-40918419D01*
X129165733Y-40918417D01*
X128992418Y-40811104D01*
X128992413Y-40811101D01*
X128802316Y-40737458D01*
X128601930Y-40700000D01*
X128398070Y-40700000D01*
X128197683Y-40737458D01*
X128007588Y-40811101D01*
X127834263Y-40918419D01*
X127832321Y-40920189D01*
X128305063Y-41392931D01*
X128223694Y-41439910D01*
X128139910Y-41523694D01*
X128092931Y-41605063D01*
X127623379Y-41135511D01*
X127591604Y-41177590D01*
X127541448Y-41212634D01*
X127480273Y-41211503D01*
X127436072Y-41180735D01*
X127360887Y-41089121D01*
X127360878Y-41089112D01*
X127208542Y-40964093D01*
X127208540Y-40964092D01*
X127208538Y-40964090D01*
X127126405Y-40920189D01*
X127034732Y-40871188D01*
X127034730Y-40871187D01*
X127003172Y-40861614D01*
X126846132Y-40813976D01*
X126846129Y-40813975D01*
X126846126Y-40813974D01*
X126650003Y-40794659D01*
X126649997Y-40794659D01*
X126453873Y-40813974D01*
X126453870Y-40813975D01*
X126265269Y-40871187D01*
X126265267Y-40871188D01*
X126091467Y-40964087D01*
X126091457Y-40964093D01*
X125939121Y-41089112D01*
X125939112Y-41089121D01*
X125814093Y-41241457D01*
X125814087Y-41241467D01*
X125721188Y-41415267D01*
X125721187Y-41415269D01*
X125663975Y-41603870D01*
X125663974Y-41603873D01*
X125644659Y-41799996D01*
X110905500Y-41799996D01*
X110905500Y-40898472D01*
X110924407Y-40840281D01*
X110951830Y-40814646D01*
X110952898Y-40813975D01*
X111007262Y-40779816D01*
X111134816Y-40652262D01*
X111230789Y-40499522D01*
X111290368Y-40329255D01*
X111296622Y-40273742D01*
X111321926Y-40218036D01*
X111375141Y-40187840D01*
X111435942Y-40194691D01*
X111481104Y-40235971D01*
X111493377Y-40273741D01*
X111497764Y-40312682D01*
X111499632Y-40329257D01*
X111499633Y-40329261D01*
X111559211Y-40499522D01*
X111559211Y-40499523D01*
X111655181Y-40652258D01*
X111655184Y-40652262D01*
X111782738Y-40779816D01*
X111782740Y-40779817D01*
X111782741Y-40779818D01*
X111928155Y-40871188D01*
X111935478Y-40875789D01*
X112000302Y-40898472D01*
X112105738Y-40935366D01*
X112105742Y-40935367D01*
X112105745Y-40935368D01*
X112285000Y-40955565D01*
X112464255Y-40935368D01*
X112634522Y-40875789D01*
X112787262Y-40779816D01*
X112914816Y-40652262D01*
X113010789Y-40499522D01*
X113070368Y-40329255D01*
X113076622Y-40273742D01*
X113101926Y-40218036D01*
X113155141Y-40187840D01*
X113215942Y-40194691D01*
X113261104Y-40235971D01*
X113273377Y-40273741D01*
X113277764Y-40312682D01*
X113279632Y-40329257D01*
X113279633Y-40329261D01*
X113339211Y-40499522D01*
X113339211Y-40499523D01*
X113435181Y-40652258D01*
X113435184Y-40652262D01*
X113562738Y-40779816D01*
X113562740Y-40779817D01*
X113562741Y-40779818D01*
X113708155Y-40871188D01*
X113715478Y-40875789D01*
X113780302Y-40898472D01*
X113885738Y-40935366D01*
X113885742Y-40935367D01*
X113885745Y-40935368D01*
X114065000Y-40955565D01*
X114244255Y-40935368D01*
X114414522Y-40875789D01*
X114567262Y-40779816D01*
X114694816Y-40652262D01*
X114790789Y-40499522D01*
X114850368Y-40329255D01*
X114856622Y-40273742D01*
X114881926Y-40218036D01*
X114935141Y-40187840D01*
X114995942Y-40194691D01*
X115041104Y-40235971D01*
X115053377Y-40273741D01*
X115057764Y-40312682D01*
X115059632Y-40329257D01*
X115059633Y-40329261D01*
X115119211Y-40499522D01*
X115119211Y-40499523D01*
X115215181Y-40652258D01*
X115215184Y-40652262D01*
X115342738Y-40779816D01*
X115342740Y-40779817D01*
X115342741Y-40779818D01*
X115488155Y-40871188D01*
X115495478Y-40875789D01*
X115560302Y-40898472D01*
X115665738Y-40935366D01*
X115665742Y-40935367D01*
X115665745Y-40935368D01*
X115845000Y-40955565D01*
X116024255Y-40935368D01*
X116194522Y-40875789D01*
X116347262Y-40779816D01*
X116474816Y-40652262D01*
X116570789Y-40499522D01*
X116630368Y-40329255D01*
X116636622Y-40273742D01*
X116661926Y-40218036D01*
X116715141Y-40187840D01*
X116775942Y-40194691D01*
X116821104Y-40235971D01*
X116833377Y-40273741D01*
X116837764Y-40312682D01*
X116839632Y-40329257D01*
X116839633Y-40329261D01*
X116899211Y-40499522D01*
X116899211Y-40499523D01*
X116995181Y-40652258D01*
X116995184Y-40652262D01*
X117122738Y-40779816D01*
X117122740Y-40779817D01*
X117122741Y-40779818D01*
X117268155Y-40871188D01*
X117275478Y-40875789D01*
X117340302Y-40898472D01*
X117445738Y-40935366D01*
X117445742Y-40935367D01*
X117445745Y-40935368D01*
X117625000Y-40955565D01*
X117804255Y-40935368D01*
X117974522Y-40875789D01*
X118127262Y-40779816D01*
X118254816Y-40652262D01*
X118350789Y-40499522D01*
X118410368Y-40329255D01*
X118430565Y-40150000D01*
X118410368Y-39970745D01*
X118395338Y-39927793D01*
X118386014Y-39901145D01*
X118350789Y-39800478D01*
X118315083Y-39743653D01*
X118254818Y-39647741D01*
X118254817Y-39647740D01*
X118254816Y-39647738D01*
X118151579Y-39544501D01*
X118123804Y-39489987D01*
X118133375Y-39429555D01*
X118176640Y-39386290D01*
X118221585Y-39375500D01*
X121280714Y-39375500D01*
X121280716Y-39375500D01*
X121348651Y-39353427D01*
X121406440Y-39311440D01*
X121448427Y-39253651D01*
X121470500Y-39185716D01*
X121470500Y-39150000D01*
X121470500Y-39141715D01*
X121470500Y-37999996D01*
X131364417Y-37999996D01*
X131364417Y-38000003D01*
X131384698Y-38205929D01*
X131384699Y-38205934D01*
X131444768Y-38403954D01*
X131542316Y-38586452D01*
X131673585Y-38746404D01*
X131673590Y-38746410D01*
X131673595Y-38746414D01*
X131833547Y-38877683D01*
X131833548Y-38877683D01*
X131833550Y-38877685D01*
X132016046Y-38975232D01*
X132153997Y-39017078D01*
X132214065Y-39035300D01*
X132214070Y-39035301D01*
X132419997Y-39055583D01*
X132420000Y-39055583D01*
X132420003Y-39055583D01*
X132625929Y-39035301D01*
X132625934Y-39035300D01*
X132630727Y-39033846D01*
X132823954Y-38975232D01*
X133006450Y-38877685D01*
X133166410Y-38746410D01*
X133297685Y-38586450D01*
X133395232Y-38403954D01*
X133455300Y-38205934D01*
X133455301Y-38205929D01*
X133475583Y-38000003D01*
X133475583Y-37999996D01*
X133455301Y-37794070D01*
X133455300Y-37794065D01*
X133396401Y-37599901D01*
X133395232Y-37596046D01*
X133297685Y-37413550D01*
X133280009Y-37392012D01*
X133166414Y-37253595D01*
X133166410Y-37253590D01*
X133120593Y-37215989D01*
X133006452Y-37122316D01*
X132823954Y-37024768D01*
X132625934Y-36964699D01*
X132625929Y-36964698D01*
X132420003Y-36944417D01*
X132419997Y-36944417D01*
X132214070Y-36964698D01*
X132214065Y-36964699D01*
X132016045Y-37024768D01*
X131833547Y-37122316D01*
X131673595Y-37253585D01*
X131673585Y-37253595D01*
X131542316Y-37413547D01*
X131444768Y-37596045D01*
X131384699Y-37794065D01*
X131384698Y-37794070D01*
X131364417Y-37999996D01*
X121470500Y-37999996D01*
X121470500Y-35405515D01*
X132299500Y-35405515D01*
X132299500Y-35594484D01*
X132329058Y-35781113D01*
X132330961Y-35786969D01*
X132387453Y-35960832D01*
X132473240Y-36129199D01*
X132584310Y-36282073D01*
X132717927Y-36415690D01*
X132870801Y-36526760D01*
X133039168Y-36612547D01*
X133218882Y-36670940D01*
X133218883Y-36670940D01*
X133218886Y-36670941D01*
X133405516Y-36700500D01*
X133405519Y-36700500D01*
X133594484Y-36700500D01*
X133781113Y-36670941D01*
X133781114Y-36670940D01*
X133781118Y-36670940D01*
X133960832Y-36612547D01*
X134129199Y-36526760D01*
X134282073Y-36415690D01*
X134415690Y-36282073D01*
X134526760Y-36129199D01*
X134612547Y-35960832D01*
X134670940Y-35781118D01*
X134670941Y-35781113D01*
X134700500Y-35594484D01*
X134700500Y-35405515D01*
X134670941Y-35218886D01*
X134670940Y-35218882D01*
X134612547Y-35039168D01*
X134533295Y-34883626D01*
X135524500Y-34883626D01*
X135524500Y-35116373D01*
X135554878Y-35347118D01*
X135554878Y-35347123D01*
X135615116Y-35571932D01*
X135615120Y-35571945D01*
X135704183Y-35786965D01*
X135704185Y-35786970D01*
X135820556Y-35988529D01*
X135962238Y-36173174D01*
X135962240Y-36173176D01*
X135962244Y-36173181D01*
X136126819Y-36337756D01*
X136126823Y-36337759D01*
X136126825Y-36337761D01*
X136205397Y-36398051D01*
X136311468Y-36479442D01*
X136513031Y-36595815D01*
X136728060Y-36684882D01*
X136952874Y-36745121D01*
X137183628Y-36775500D01*
X137183629Y-36775500D01*
X137250371Y-36775500D01*
X137308562Y-36794407D01*
X137344526Y-36843907D01*
X137344526Y-36905093D01*
X137308562Y-36954593D01*
X137279109Y-36969237D01*
X137110982Y-37020237D01*
X137082244Y-37024500D01*
X136245725Y-37024500D01*
X136215305Y-37027353D01*
X136215296Y-37027355D01*
X136087116Y-37072207D01*
X135977855Y-37152845D01*
X135977845Y-37152855D01*
X135897207Y-37262116D01*
X135852355Y-37390296D01*
X135852353Y-37390305D01*
X135849500Y-37420725D01*
X135849500Y-39579274D01*
X135852353Y-39609694D01*
X135852355Y-39609703D01*
X135897207Y-39737883D01*
X135977845Y-39847144D01*
X135977847Y-39847146D01*
X135977850Y-39847150D01*
X135977853Y-39847152D01*
X135977855Y-39847154D01*
X136087116Y-39927792D01*
X136087117Y-39927792D01*
X136087118Y-39927793D01*
X136215301Y-39972646D01*
X136245725Y-39975499D01*
X136245727Y-39975500D01*
X136245734Y-39975500D01*
X138354273Y-39975500D01*
X138354273Y-39975499D01*
X138384699Y-39972646D01*
X138512882Y-39927793D01*
X138622150Y-39847150D01*
X138702793Y-39737882D01*
X138747646Y-39609699D01*
X138750499Y-39579273D01*
X138750500Y-39579273D01*
X138750500Y-38000000D01*
X141425073Y-38000000D01*
X141444738Y-38212216D01*
X141503064Y-38417210D01*
X141598059Y-38607987D01*
X141598068Y-38608002D01*
X141667681Y-38700183D01*
X142136328Y-38231536D01*
X142179901Y-38307007D01*
X142272993Y-38400099D01*
X142348460Y-38443670D01*
X141876927Y-38915204D01*
X141884003Y-38921653D01*
X141884005Y-38921654D01*
X142065202Y-39033846D01*
X142065204Y-39033847D01*
X142263941Y-39110838D01*
X142473437Y-39150000D01*
X142686563Y-39150000D01*
X142896058Y-39110838D01*
X143094793Y-39033847D01*
X143276001Y-38921649D01*
X143283071Y-38915204D01*
X142811538Y-38443671D01*
X142887007Y-38400099D01*
X142980099Y-38307007D01*
X143023671Y-38231538D01*
X143492316Y-38700183D01*
X143561937Y-38607992D01*
X143561942Y-38607983D01*
X143656935Y-38417210D01*
X143715261Y-38212216D01*
X143734926Y-38000000D01*
X143715261Y-37787783D01*
X143656935Y-37582789D01*
X143561940Y-37392012D01*
X143561935Y-37392003D01*
X143492316Y-37299815D01*
X143023670Y-37768460D01*
X142980099Y-37692993D01*
X142887007Y-37599901D01*
X142811536Y-37556328D01*
X143283071Y-37084794D01*
X143275996Y-37078346D01*
X143094797Y-36966153D01*
X143094795Y-36966152D01*
X142896058Y-36889161D01*
X142686563Y-36850000D01*
X142473437Y-36850000D01*
X142263941Y-36889161D01*
X142065204Y-36966152D01*
X142065202Y-36966153D01*
X141884002Y-37078347D01*
X141876927Y-37084794D01*
X142348461Y-37556328D01*
X142272993Y-37599901D01*
X142179901Y-37692993D01*
X142136328Y-37768461D01*
X141667682Y-37299815D01*
X141598062Y-37392007D01*
X141598057Y-37392016D01*
X141503064Y-37582789D01*
X141444738Y-37787783D01*
X141425073Y-38000000D01*
X138750500Y-38000000D01*
X138750500Y-37420727D01*
X138750499Y-37420725D01*
X138749826Y-37413547D01*
X138747646Y-37390301D01*
X138702793Y-37262118D01*
X138696499Y-37253590D01*
X138622154Y-37152855D01*
X138622152Y-37152853D01*
X138622150Y-37152850D01*
X138622146Y-37152847D01*
X138622144Y-37152845D01*
X138512883Y-37072207D01*
X138384703Y-37027355D01*
X138384694Y-37027353D01*
X138354274Y-37024500D01*
X138354266Y-37024500D01*
X137917756Y-37024500D01*
X137889018Y-37020237D01*
X137705934Y-36964699D01*
X137705929Y-36964698D01*
X137574620Y-36951766D01*
X137518563Y-36927246D01*
X137487624Y-36874460D01*
X137493621Y-36813569D01*
X137534264Y-36767832D01*
X137571401Y-36755090D01*
X137647126Y-36745121D01*
X137871940Y-36684882D01*
X138086969Y-36595815D01*
X138288532Y-36479442D01*
X138473181Y-36337756D01*
X138637756Y-36173181D01*
X138779442Y-35988532D01*
X138895815Y-35786969D01*
X138984882Y-35571940D01*
X139045121Y-35347126D01*
X139075500Y-35116372D01*
X139075500Y-34883628D01*
X139045121Y-34652874D01*
X138984882Y-34428060D01*
X138895815Y-34213031D01*
X138779442Y-34011468D01*
X138698051Y-33905397D01*
X138637761Y-33826825D01*
X138637759Y-33826823D01*
X138637756Y-33826819D01*
X138473181Y-33662244D01*
X138473176Y-33662240D01*
X138473174Y-33662238D01*
X138288529Y-33520556D01*
X138086970Y-33404185D01*
X138086965Y-33404183D01*
X137871945Y-33315120D01*
X137871944Y-33315119D01*
X137871940Y-33315118D01*
X137647126Y-33254879D01*
X137647123Y-33254878D01*
X137647121Y-33254878D01*
X137416373Y-33224500D01*
X137416372Y-33224500D01*
X137183628Y-33224500D01*
X137183626Y-33224500D01*
X136952881Y-33254878D01*
X136952876Y-33254878D01*
X136728067Y-33315116D01*
X136728054Y-33315120D01*
X136513034Y-33404183D01*
X136513029Y-33404185D01*
X136311470Y-33520556D01*
X136126825Y-33662238D01*
X135962238Y-33826825D01*
X135820556Y-34011470D01*
X135704185Y-34213029D01*
X135704183Y-34213034D01*
X135615120Y-34428054D01*
X135615116Y-34428067D01*
X135554878Y-34652876D01*
X135554878Y-34652881D01*
X135524500Y-34883626D01*
X134533295Y-34883626D01*
X134526760Y-34870801D01*
X134415690Y-34717927D01*
X134282073Y-34584310D01*
X134129199Y-34473240D01*
X134129198Y-34473239D01*
X134129196Y-34473238D01*
X133960832Y-34387453D01*
X133781113Y-34329058D01*
X133594484Y-34299500D01*
X133594481Y-34299500D01*
X133405519Y-34299500D01*
X133405516Y-34299500D01*
X133218886Y-34329058D01*
X133039167Y-34387453D01*
X132870803Y-34473238D01*
X132717928Y-34584309D01*
X132584309Y-34717928D01*
X132473238Y-34870803D01*
X132387453Y-35039167D01*
X132329058Y-35218886D01*
X132299500Y-35405515D01*
X121470500Y-35405515D01*
X121470500Y-30539438D01*
X121470500Y-30514284D01*
X121448427Y-30446349D01*
X121406440Y-30388560D01*
X121352339Y-30349252D01*
X121348650Y-30346572D01*
X121302788Y-30331671D01*
X121280716Y-30324500D01*
X121255562Y-30324500D01*
X119357940Y-30324500D01*
X119299749Y-30305593D01*
X119263785Y-30256093D01*
X119263785Y-30194907D01*
X119275625Y-30170498D01*
X119292390Y-30145407D01*
X119303867Y-30128231D01*
X119315500Y-30069748D01*
X119315500Y-29844114D01*
X130724500Y-29844114D01*
X130724500Y-30155885D01*
X130759403Y-30465642D01*
X130759405Y-30465652D01*
X130828772Y-30769569D01*
X130931731Y-31063809D01*
X130931732Y-31063811D01*
X131066988Y-31344675D01*
X131224789Y-31595814D01*
X131232844Y-31608633D01*
X131427209Y-31852359D01*
X131647641Y-32072791D01*
X131891367Y-32267156D01*
X132023345Y-32350083D01*
X132155324Y-32433011D01*
X132295756Y-32500639D01*
X132436189Y-32568268D01*
X132730432Y-32671228D01*
X133034354Y-32740596D01*
X133117887Y-32750008D01*
X133344114Y-32775499D01*
X133344130Y-32775499D01*
X133344131Y-32775500D01*
X133344132Y-32775500D01*
X133655868Y-32775500D01*
X133655869Y-32775500D01*
X133655870Y-32775499D01*
X133655885Y-32775499D01*
X133854267Y-32753145D01*
X133965646Y-32740596D01*
X134269568Y-32671228D01*
X134563811Y-32568268D01*
X134844677Y-32433010D01*
X135108633Y-32267156D01*
X135352359Y-32072791D01*
X135572791Y-31852359D01*
X135767156Y-31608633D01*
X135933010Y-31344677D01*
X136068268Y-31063811D01*
X136171228Y-30769568D01*
X136240596Y-30465646D01*
X136256525Y-30324276D01*
X136275499Y-30155885D01*
X136275500Y-30155868D01*
X136275500Y-29883626D01*
X137624500Y-29883626D01*
X137624500Y-30116373D01*
X137654878Y-30347118D01*
X137654878Y-30347123D01*
X137715116Y-30571932D01*
X137715120Y-30571945D01*
X137804183Y-30786965D01*
X137804185Y-30786970D01*
X137920556Y-30988529D01*
X137920558Y-30988532D01*
X137946604Y-31022476D01*
X138062238Y-31173174D01*
X138062240Y-31173176D01*
X138062244Y-31173181D01*
X138226819Y-31337756D01*
X138226823Y-31337759D01*
X138226825Y-31337761D01*
X138243427Y-31350500D01*
X138411468Y-31479442D01*
X138613031Y-31595815D01*
X138828060Y-31684882D01*
X139052874Y-31745121D01*
X139283628Y-31775500D01*
X139283629Y-31775500D01*
X139516371Y-31775500D01*
X139516372Y-31775500D01*
X139747126Y-31745121D01*
X139971940Y-31684882D01*
X140186969Y-31595815D01*
X140388532Y-31479442D01*
X140573181Y-31337756D01*
X140737756Y-31173181D01*
X140879442Y-30988532D01*
X140995815Y-30786969D01*
X141084882Y-30571940D01*
X141145121Y-30347126D01*
X141175500Y-30116372D01*
X141175500Y-29883628D01*
X141145121Y-29652874D01*
X141084882Y-29428060D01*
X140995815Y-29213031D01*
X140879442Y-29011468D01*
X140776662Y-28877522D01*
X140737761Y-28826825D01*
X140737759Y-28826823D01*
X140737756Y-28826819D01*
X140573181Y-28662244D01*
X140573176Y-28662240D01*
X140573174Y-28662238D01*
X140448439Y-28566526D01*
X140388532Y-28520558D01*
X140364876Y-28506900D01*
X140186970Y-28404185D01*
X140186965Y-28404183D01*
X139971945Y-28315120D01*
X139971944Y-28315119D01*
X139971940Y-28315118D01*
X139802162Y-28269626D01*
X139750850Y-28236303D01*
X139728923Y-28179181D01*
X139744759Y-28120081D01*
X139792308Y-28081576D01*
X139827787Y-28075000D01*
X140543058Y-28075000D01*
X140543064Y-28074999D01*
X140631443Y-28064386D01*
X140772095Y-28008919D01*
X140892564Y-27917564D01*
X140983919Y-27797095D01*
X141039386Y-27656443D01*
X141049999Y-27568064D01*
X141050000Y-27568058D01*
X141050000Y-26650001D01*
X141049999Y-26650000D01*
X137950001Y-26650000D01*
X137950000Y-26650001D01*
X137950000Y-27568064D01*
X137960613Y-27656443D01*
X138016080Y-27797095D01*
X138107435Y-27917564D01*
X138227904Y-28008919D01*
X138368556Y-28064386D01*
X138456935Y-28074999D01*
X138456942Y-28075000D01*
X138972213Y-28075000D01*
X139030404Y-28093907D01*
X139066368Y-28143407D01*
X139066368Y-28204593D01*
X139030404Y-28254093D01*
X138997838Y-28269625D01*
X138865037Y-28305210D01*
X138828067Y-28315116D01*
X138828054Y-28315120D01*
X138613034Y-28404183D01*
X138613029Y-28404185D01*
X138411470Y-28520556D01*
X138226825Y-28662238D01*
X138062238Y-28826825D01*
X137920556Y-29011470D01*
X137804185Y-29213029D01*
X137804183Y-29213034D01*
X137715120Y-29428054D01*
X137715116Y-29428067D01*
X137654878Y-29652876D01*
X137654878Y-29652881D01*
X137624500Y-29883626D01*
X136275500Y-29883626D01*
X136275500Y-29844131D01*
X136275499Y-29844114D01*
X136247993Y-29600000D01*
X136240596Y-29534354D01*
X136171228Y-29230432D01*
X136068268Y-28936189D01*
X135989089Y-28771772D01*
X135933011Y-28655324D01*
X135839750Y-28506900D01*
X135767156Y-28391367D01*
X135572791Y-28147641D01*
X135352359Y-27927209D01*
X135108633Y-27732844D01*
X134844675Y-27566988D01*
X134563811Y-27431732D01*
X134563809Y-27431731D01*
X134269569Y-27328772D01*
X133965652Y-27259405D01*
X133965642Y-27259403D01*
X133655885Y-27224500D01*
X133655869Y-27224500D01*
X133344131Y-27224500D01*
X133344114Y-27224500D01*
X133034357Y-27259403D01*
X133034347Y-27259405D01*
X132730430Y-27328772D01*
X132436190Y-27431731D01*
X132436188Y-27431732D01*
X132155324Y-27566988D01*
X131891366Y-27732844D01*
X131647642Y-27927208D01*
X131427208Y-28147642D01*
X131232844Y-28391366D01*
X131066988Y-28655324D01*
X130931732Y-28936188D01*
X130931731Y-28936190D01*
X130828772Y-29230430D01*
X130759405Y-29534347D01*
X130759403Y-29534357D01*
X130724500Y-29844114D01*
X119315500Y-29844114D01*
X119315500Y-28830252D01*
X119303867Y-28771769D01*
X119259552Y-28705448D01*
X119259548Y-28705445D01*
X119193233Y-28661134D01*
X119193231Y-28661133D01*
X119193228Y-28661132D01*
X119193227Y-28661132D01*
X119134758Y-28649501D01*
X119134748Y-28649500D01*
X117895252Y-28649500D01*
X117895251Y-28649500D01*
X117895241Y-28649501D01*
X117836772Y-28661132D01*
X117836766Y-28661134D01*
X117770451Y-28705445D01*
X117770445Y-28705451D01*
X117726134Y-28771766D01*
X117726132Y-28771772D01*
X117714501Y-28830241D01*
X117714500Y-28830253D01*
X117714500Y-29242869D01*
X117695593Y-29301060D01*
X117646093Y-29337024D01*
X117584907Y-29337024D01*
X117535407Y-29301060D01*
X117522056Y-29275567D01*
X117485091Y-29169930D01*
X117460789Y-29100478D01*
X117449131Y-29081925D01*
X117364818Y-28947741D01*
X117364817Y-28947740D01*
X117364816Y-28947738D01*
X117237262Y-28820184D01*
X117237259Y-28820182D01*
X117237258Y-28820181D01*
X117084523Y-28724211D01*
X116914261Y-28664633D01*
X116914257Y-28664632D01*
X116735000Y-28644435D01*
X116555742Y-28664632D01*
X116555738Y-28664633D01*
X116385477Y-28724211D01*
X116385476Y-28724211D01*
X116232741Y-28820181D01*
X116105181Y-28947741D01*
X116009211Y-29100476D01*
X116009211Y-29100477D01*
X115949633Y-29270738D01*
X115949632Y-29270742D01*
X115946831Y-29295603D01*
X115944657Y-29314905D01*
X115943378Y-29326255D01*
X115918074Y-29381963D01*
X115864858Y-29412159D01*
X115804058Y-29405308D01*
X115758896Y-29364028D01*
X115746622Y-29326255D01*
X115740368Y-29270745D01*
X115680789Y-29100478D01*
X115669131Y-29081925D01*
X115584818Y-28947741D01*
X115584817Y-28947740D01*
X115584816Y-28947738D01*
X115457262Y-28820184D01*
X115457259Y-28820182D01*
X115457258Y-28820181D01*
X115304523Y-28724211D01*
X115134261Y-28664633D01*
X115134257Y-28664632D01*
X114955000Y-28644435D01*
X114775742Y-28664632D01*
X114775738Y-28664633D01*
X114605477Y-28724211D01*
X114605476Y-28724211D01*
X114452741Y-28820181D01*
X114325181Y-28947741D01*
X114229211Y-29100476D01*
X114229211Y-29100477D01*
X114169633Y-29270738D01*
X114169632Y-29270742D01*
X114166831Y-29295603D01*
X114164657Y-29314905D01*
X114163378Y-29326255D01*
X114138074Y-29381963D01*
X114084858Y-29412159D01*
X114024058Y-29405308D01*
X113978896Y-29364028D01*
X113966622Y-29326255D01*
X113960368Y-29270745D01*
X113900789Y-29100478D01*
X113889131Y-29081925D01*
X113804818Y-28947741D01*
X113804817Y-28947740D01*
X113804816Y-28947738D01*
X113677262Y-28820184D01*
X113677259Y-28820182D01*
X113677258Y-28820181D01*
X113524523Y-28724211D01*
X113354261Y-28664633D01*
X113354257Y-28664632D01*
X113175000Y-28644435D01*
X112995742Y-28664632D01*
X112995738Y-28664633D01*
X112825477Y-28724211D01*
X112825476Y-28724211D01*
X112672741Y-28820181D01*
X112545181Y-28947741D01*
X112449211Y-29100476D01*
X112449211Y-29100477D01*
X112389633Y-29270738D01*
X112389632Y-29270742D01*
X112386831Y-29295603D01*
X112384657Y-29314905D01*
X112383378Y-29326255D01*
X112358074Y-29381963D01*
X112304858Y-29412159D01*
X112244058Y-29405308D01*
X112198896Y-29364028D01*
X112186622Y-29326255D01*
X112180368Y-29270745D01*
X112120789Y-29100478D01*
X112109131Y-29081925D01*
X112024818Y-28947741D01*
X112024817Y-28947740D01*
X112024816Y-28947738D01*
X111897262Y-28820184D01*
X111897259Y-28820182D01*
X111897258Y-28820181D01*
X111744523Y-28724211D01*
X111574261Y-28664633D01*
X111574257Y-28664632D01*
X111395000Y-28644435D01*
X111215742Y-28664632D01*
X111215738Y-28664633D01*
X111045477Y-28724211D01*
X111045476Y-28724211D01*
X110892741Y-28820181D01*
X110765181Y-28947741D01*
X110669211Y-29100476D01*
X110669211Y-29100477D01*
X110609633Y-29270738D01*
X110609632Y-29270742D01*
X110606831Y-29295603D01*
X110604657Y-29314905D01*
X110603378Y-29326255D01*
X110578074Y-29381963D01*
X110524858Y-29412159D01*
X110464058Y-29405308D01*
X110418896Y-29364028D01*
X110406622Y-29326255D01*
X110400368Y-29270745D01*
X110340789Y-29100478D01*
X110329131Y-29081925D01*
X110244818Y-28947741D01*
X110244817Y-28947740D01*
X110244816Y-28947738D01*
X110117262Y-28820184D01*
X110117259Y-28820182D01*
X110117258Y-28820181D01*
X109964523Y-28724211D01*
X109794261Y-28664633D01*
X109794257Y-28664632D01*
X109615000Y-28644435D01*
X109435742Y-28664632D01*
X109435738Y-28664633D01*
X109265477Y-28724211D01*
X109265476Y-28724211D01*
X109112741Y-28820181D01*
X108985181Y-28947741D01*
X108889211Y-29100476D01*
X108889211Y-29100477D01*
X108829633Y-29270738D01*
X108829632Y-29270742D01*
X108826831Y-29295603D01*
X108824657Y-29314905D01*
X108823378Y-29326255D01*
X108798074Y-29381963D01*
X108744858Y-29412159D01*
X108684058Y-29405308D01*
X108638896Y-29364028D01*
X108626622Y-29326255D01*
X108620368Y-29270745D01*
X108560789Y-29100478D01*
X108549131Y-29081925D01*
X108464818Y-28947741D01*
X108464817Y-28947740D01*
X108464816Y-28947738D01*
X108337262Y-28820184D01*
X108337259Y-28820182D01*
X108337258Y-28820181D01*
X108184523Y-28724211D01*
X108014261Y-28664633D01*
X108014257Y-28664632D01*
X107835000Y-28644435D01*
X107655742Y-28664632D01*
X107655738Y-28664633D01*
X107485477Y-28724211D01*
X107485476Y-28724211D01*
X107332741Y-28820181D01*
X107205181Y-28947741D01*
X107109211Y-29100476D01*
X107109211Y-29100477D01*
X107091297Y-29151672D01*
X107054231Y-29200353D01*
X106995631Y-29217949D01*
X106937879Y-29197740D01*
X106903699Y-29149567D01*
X106881720Y-29081925D01*
X106881717Y-29081918D01*
X106791490Y-28925640D01*
X106385602Y-29331528D01*
X106381148Y-29314905D01*
X106335070Y-29235095D01*
X106269905Y-29169930D01*
X106190095Y-29123852D01*
X106173468Y-29119396D01*
X106576461Y-28716404D01*
X106507475Y-28666282D01*
X106507468Y-28666278D01*
X106334653Y-28589337D01*
X106334645Y-28589335D01*
X106149591Y-28550000D01*
X105960409Y-28550000D01*
X105775354Y-28589335D01*
X105775350Y-28589336D01*
X105602525Y-28666282D01*
X105602517Y-28666287D01*
X105533536Y-28716403D01*
X105936530Y-29119397D01*
X105919905Y-29123852D01*
X105840095Y-29169930D01*
X105774930Y-29235095D01*
X105728852Y-29314905D01*
X105724397Y-29331530D01*
X105318507Y-28925640D01*
X105228280Y-29081921D01*
X105169819Y-29261843D01*
X105150043Y-29450000D01*
X105169819Y-29638156D01*
X105228279Y-29818075D01*
X105318508Y-29974357D01*
X105724396Y-29568468D01*
X105728852Y-29585095D01*
X105774930Y-29664905D01*
X105840095Y-29730070D01*
X105919905Y-29776148D01*
X105936528Y-29780602D01*
X105533536Y-30183594D01*
X105536223Y-30217732D01*
X105521940Y-30277227D01*
X105475414Y-30316964D01*
X105437528Y-30324500D01*
X103959284Y-30324500D01*
X103891349Y-30346572D01*
X103833560Y-30388559D01*
X103833559Y-30388560D01*
X103791572Y-30446349D01*
X103769500Y-30514284D01*
X100850000Y-30514284D01*
X100850000Y-29900001D01*
X100849999Y-29900000D01*
X100200001Y-29900000D01*
X100200000Y-29900001D01*
X99900000Y-29900001D01*
X99899999Y-29900000D01*
X99250002Y-29900000D01*
X99250001Y-29900001D01*
X98600500Y-29900001D01*
X98600500Y-28506900D01*
X98619407Y-28448709D01*
X98629490Y-28436902D01*
X98761190Y-28305202D01*
X99250000Y-28305202D01*
X99250000Y-29599999D01*
X99250001Y-29600000D01*
X99899999Y-29600000D01*
X99900000Y-29599999D01*
X99900000Y-28050001D01*
X100200000Y-28050001D01*
X100200000Y-29599999D01*
X100200001Y-29600000D01*
X100849998Y-29600000D01*
X100849999Y-29599999D01*
X100849999Y-28305210D01*
X100849998Y-28305208D01*
X100847090Y-28280125D01*
X100801786Y-28177522D01*
X100722477Y-28098213D01*
X100619872Y-28052909D01*
X100594797Y-28050000D01*
X100200001Y-28050000D01*
X100200000Y-28050001D01*
X99900000Y-28050001D01*
X99899999Y-28050000D01*
X99505210Y-28050000D01*
X99505207Y-28050001D01*
X99480125Y-28052909D01*
X99377522Y-28098213D01*
X99298213Y-28177522D01*
X99252909Y-28280127D01*
X99250000Y-28305202D01*
X98761190Y-28305202D01*
X102169859Y-24896532D01*
X127299500Y-24896532D01*
X127299500Y-25103467D01*
X127339869Y-25306418D01*
X127419058Y-25497597D01*
X127419059Y-25497598D01*
X127534023Y-25669655D01*
X127680345Y-25815977D01*
X127852402Y-25930941D01*
X128043580Y-26010130D01*
X128246535Y-26050500D01*
X128246536Y-26050500D01*
X128453464Y-26050500D01*
X128453465Y-26050500D01*
X128656420Y-26010130D01*
X128847598Y-25930941D01*
X129019655Y-25815977D01*
X129165977Y-25669655D01*
X129280941Y-25497598D01*
X129360130Y-25306420D01*
X129400500Y-25103465D01*
X129400500Y-24896535D01*
X129360130Y-24693580D01*
X129280941Y-24502402D01*
X129216204Y-24405515D01*
X132299500Y-24405515D01*
X132299500Y-24594484D01*
X132329058Y-24781113D01*
X132387453Y-24960832D01*
X132460126Y-25103463D01*
X132473240Y-25129199D01*
X132584310Y-25282073D01*
X132717927Y-25415690D01*
X132870801Y-25526760D01*
X133039168Y-25612547D01*
X133218882Y-25670940D01*
X133218883Y-25670940D01*
X133218886Y-25670941D01*
X133405516Y-25700500D01*
X133405519Y-25700500D01*
X133594484Y-25700500D01*
X133781113Y-25670941D01*
X133781114Y-25670940D01*
X133781118Y-25670940D01*
X133960832Y-25612547D01*
X134129199Y-25526760D01*
X134259714Y-25431935D01*
X137950000Y-25431935D01*
X137950000Y-26349999D01*
X137950001Y-26350000D01*
X139349999Y-26350000D01*
X139350000Y-26349999D01*
X139350000Y-24925001D01*
X139650000Y-24925001D01*
X139650000Y-26349999D01*
X139650001Y-26350000D01*
X141049999Y-26350000D01*
X141050000Y-26349999D01*
X141050000Y-25431941D01*
X141049999Y-25431935D01*
X141039386Y-25343556D01*
X140983919Y-25202904D01*
X140892564Y-25082435D01*
X140772095Y-24991080D01*
X140631443Y-24935613D01*
X140543064Y-24925000D01*
X139650001Y-24925000D01*
X139650000Y-24925001D01*
X139350000Y-24925001D01*
X139349999Y-24925000D01*
X138456935Y-24925000D01*
X138368556Y-24935613D01*
X138227904Y-24991080D01*
X138107435Y-25082435D01*
X138016080Y-25202904D01*
X137960613Y-25343556D01*
X137950000Y-25431935D01*
X134259714Y-25431935D01*
X134282073Y-25415690D01*
X134415690Y-25282073D01*
X134526760Y-25129199D01*
X134612547Y-24960832D01*
X134670940Y-24781118D01*
X134677113Y-24742143D01*
X134700500Y-24594484D01*
X134700500Y-24405515D01*
X134693291Y-24359997D01*
X142724353Y-24359997D01*
X142724353Y-24360002D01*
X142744834Y-24502456D01*
X142777100Y-24573107D01*
X142804623Y-24633373D01*
X142898872Y-24742143D01*
X142898873Y-24742144D01*
X142959518Y-24781118D01*
X143019947Y-24819953D01*
X143142383Y-24855903D01*
X143184496Y-24880889D01*
X145818804Y-27515197D01*
X145846581Y-27569714D01*
X145847800Y-27585201D01*
X145847800Y-46595573D01*
X145847800Y-46701027D01*
X145858634Y-46741460D01*
X145875094Y-46802892D01*
X145927816Y-46894208D01*
X145927817Y-46894209D01*
X145927818Y-46894210D01*
X145927820Y-46894213D01*
X146975684Y-47942077D01*
X148015725Y-48982118D01*
X148043502Y-49036635D01*
X148038009Y-49083105D01*
X148039360Y-49083515D01*
X148037949Y-49088165D01*
X147999500Y-49281456D01*
X147999500Y-49478543D01*
X148037949Y-49671834D01*
X148037949Y-49671836D01*
X148113367Y-49853913D01*
X148113368Y-49853914D01*
X148222861Y-50017782D01*
X148362218Y-50157139D01*
X148526086Y-50266632D01*
X148708165Y-50342051D01*
X148901459Y-50380500D01*
X148901460Y-50380500D01*
X149498540Y-50380500D01*
X149498541Y-50380500D01*
X149691835Y-50342051D01*
X149873914Y-50266632D01*
X150037782Y-50157139D01*
X150177139Y-50017782D01*
X150286632Y-49853914D01*
X150362051Y-49671835D01*
X150400500Y-49478541D01*
X150400500Y-49281459D01*
X150362051Y-49088165D01*
X150286632Y-48906086D01*
X150177139Y-48742218D01*
X150037782Y-48602861D01*
X149883841Y-48500001D01*
X149873913Y-48493367D01*
X149691835Y-48417949D01*
X149498543Y-48379500D01*
X149498541Y-48379500D01*
X148901459Y-48379500D01*
X148901456Y-48379500D01*
X148708164Y-48417949D01*
X148681719Y-48428902D01*
X148620722Y-48433700D01*
X148573833Y-48407440D01*
X146907849Y-46741456D01*
X147999500Y-46741456D01*
X147999500Y-46938543D01*
X148023117Y-47057270D01*
X148037791Y-47131043D01*
X148037949Y-47131834D01*
X148037949Y-47131836D01*
X148113367Y-47313913D01*
X148145286Y-47361683D01*
X148222861Y-47477782D01*
X148362218Y-47617139D01*
X148526086Y-47726632D01*
X148708165Y-47802051D01*
X148901459Y-47840500D01*
X148901460Y-47840500D01*
X149498540Y-47840500D01*
X149498541Y-47840500D01*
X149691835Y-47802051D01*
X149873914Y-47726632D01*
X150037782Y-47617139D01*
X150177139Y-47477782D01*
X150286632Y-47313914D01*
X150362051Y-47131835D01*
X150400500Y-46938541D01*
X150400500Y-46741459D01*
X150362051Y-46548165D01*
X150286632Y-46366086D01*
X150177139Y-46202218D01*
X150037782Y-46062861D01*
X149873914Y-45953368D01*
X149873915Y-45953368D01*
X149873913Y-45953367D01*
X149691835Y-45877949D01*
X149498543Y-45839500D01*
X149498541Y-45839500D01*
X148901459Y-45839500D01*
X148901456Y-45839500D01*
X148708165Y-45877949D01*
X148708163Y-45877949D01*
X148526086Y-45953367D01*
X148362218Y-46062861D01*
X148362214Y-46062864D01*
X148222864Y-46202214D01*
X148222861Y-46202218D01*
X148113367Y-46366086D01*
X148037949Y-46548163D01*
X148037949Y-46548165D01*
X147999500Y-46741456D01*
X146907849Y-46741456D01*
X146677796Y-46511403D01*
X146650019Y-46456886D01*
X146648800Y-46441399D01*
X146648800Y-44201456D01*
X147999500Y-44201456D01*
X147999500Y-44398543D01*
X148037949Y-44591834D01*
X148037949Y-44591836D01*
X148113367Y-44773913D01*
X148144780Y-44820926D01*
X148222861Y-44937782D01*
X148362218Y-45077139D01*
X148526086Y-45186632D01*
X148708165Y-45262051D01*
X148901459Y-45300500D01*
X148901460Y-45300500D01*
X149498540Y-45300500D01*
X149498541Y-45300500D01*
X149691835Y-45262051D01*
X149873914Y-45186632D01*
X150037782Y-45077139D01*
X150177139Y-44937782D01*
X150286632Y-44773914D01*
X150362051Y-44591835D01*
X150400500Y-44398541D01*
X150400500Y-44201459D01*
X150362051Y-44008165D01*
X150286632Y-43826086D01*
X150177139Y-43662218D01*
X150037782Y-43522861D01*
X149873914Y-43413368D01*
X149873915Y-43413368D01*
X149873913Y-43413367D01*
X149691835Y-43337949D01*
X149498543Y-43299500D01*
X149498541Y-43299500D01*
X148901459Y-43299500D01*
X148901456Y-43299500D01*
X148708165Y-43337949D01*
X148708163Y-43337949D01*
X148526086Y-43413367D01*
X148362218Y-43522861D01*
X148362214Y-43522864D01*
X148222864Y-43662214D01*
X148222861Y-43662218D01*
X148113367Y-43826086D01*
X148037949Y-44008163D01*
X148037949Y-44008165D01*
X147999500Y-44201456D01*
X146648800Y-44201456D01*
X146648800Y-29950000D01*
X146974785Y-29950000D01*
X146993603Y-30153083D01*
X147049418Y-30349250D01*
X147140327Y-30531821D01*
X147263236Y-30694579D01*
X147413959Y-30831981D01*
X147587363Y-30939348D01*
X147777544Y-31013024D01*
X147978024Y-31050500D01*
X148181976Y-31050500D01*
X148382456Y-31013024D01*
X148572637Y-30939348D01*
X148746041Y-30831981D01*
X148896764Y-30694579D01*
X149019673Y-30531821D01*
X149110582Y-30349250D01*
X149166397Y-30153083D01*
X149185215Y-29950000D01*
X149166397Y-29746917D01*
X149110582Y-29550750D01*
X149019673Y-29368179D01*
X148896764Y-29205421D01*
X148746041Y-29068019D01*
X148572637Y-28960652D01*
X148382456Y-28886976D01*
X148382455Y-28886975D01*
X148382453Y-28886975D01*
X148181976Y-28849500D01*
X147978024Y-28849500D01*
X147777546Y-28886975D01*
X147725079Y-28907301D01*
X147587363Y-28960652D01*
X147505289Y-29011470D01*
X147413959Y-29068019D01*
X147263237Y-29205420D01*
X147140328Y-29368177D01*
X147140323Y-29368186D01*
X147056777Y-29535971D01*
X147049418Y-29550750D01*
X146993603Y-29746917D01*
X146974785Y-29950000D01*
X146648800Y-29950000D01*
X146648800Y-27325574D01*
X146648800Y-27325573D01*
X146621507Y-27223713D01*
X146621507Y-27223712D01*
X146621507Y-27223711D01*
X146568783Y-27132391D01*
X146568782Y-27132390D01*
X146568781Y-27132389D01*
X146568780Y-27132387D01*
X143748744Y-24312351D01*
X143720967Y-24257834D01*
X143720779Y-24256594D01*
X143715165Y-24217543D01*
X143699855Y-24184020D01*
X143655378Y-24086629D01*
X143655377Y-24086628D01*
X143655377Y-24086627D01*
X143561128Y-23977857D01*
X143561127Y-23977856D01*
X143561126Y-23977855D01*
X143440057Y-23900049D01*
X143440054Y-23900047D01*
X143440053Y-23900047D01*
X143440050Y-23900046D01*
X143367394Y-23878712D01*
X146649500Y-23878712D01*
X146649500Y-24121288D01*
X146680926Y-24360000D01*
X146681161Y-24361781D01*
X146681161Y-24361786D01*
X146743944Y-24596092D01*
X146743948Y-24596105D01*
X146836772Y-24820204D01*
X146836774Y-24820208D01*
X146836776Y-24820212D01*
X146897276Y-24925001D01*
X146958066Y-25030292D01*
X147105729Y-25222731D01*
X147105731Y-25222733D01*
X147105735Y-25222738D01*
X147277262Y-25394265D01*
X147277266Y-25394268D01*
X147277268Y-25394270D01*
X147469707Y-25541933D01*
X147469711Y-25541936D01*
X147679788Y-25663224D01*
X147679794Y-25663226D01*
X147679795Y-25663227D01*
X147716406Y-25678391D01*
X147903900Y-25756054D01*
X148138211Y-25818838D01*
X148378712Y-25850500D01*
X148378713Y-25850500D01*
X148621287Y-25850500D01*
X148621288Y-25850500D01*
X148861789Y-25818838D01*
X149096100Y-25756054D01*
X149320212Y-25663224D01*
X149530289Y-25541936D01*
X149722738Y-25394265D01*
X149894265Y-25222738D01*
X150041936Y-25030289D01*
X150163224Y-24820212D01*
X150256054Y-24596100D01*
X150318838Y-24361789D01*
X150350500Y-24121288D01*
X150350500Y-23878712D01*
X150318838Y-23638211D01*
X150256054Y-23403900D01*
X150172065Y-23201131D01*
X150163227Y-23179795D01*
X150163226Y-23179794D01*
X150163224Y-23179788D01*
X150041936Y-22969711D01*
X149894265Y-22777262D01*
X149722738Y-22605735D01*
X149722733Y-22605731D01*
X149722731Y-22605729D01*
X149530292Y-22458066D01*
X149530289Y-22458064D01*
X149320212Y-22336776D01*
X149320208Y-22336774D01*
X149320204Y-22336772D01*
X149096105Y-22243948D01*
X149096104Y-22243947D01*
X149096100Y-22243946D01*
X148861789Y-22181162D01*
X148861786Y-22181161D01*
X148861784Y-22181161D01*
X148621289Y-22149500D01*
X148621288Y-22149500D01*
X148378712Y-22149500D01*
X148378710Y-22149500D01*
X148138218Y-22181161D01*
X148138213Y-22181161D01*
X147903907Y-22243944D01*
X147903894Y-22243948D01*
X147679795Y-22336772D01*
X147469707Y-22458066D01*
X147277268Y-22605729D01*
X147105729Y-22777268D01*
X146958066Y-22969707D01*
X146836772Y-23179795D01*
X146743948Y-23403894D01*
X146743944Y-23403907D01*
X146681161Y-23638213D01*
X146681161Y-23638218D01*
X146649500Y-23878712D01*
X143367394Y-23878712D01*
X143301964Y-23859500D01*
X143301961Y-23859500D01*
X143158039Y-23859500D01*
X143158035Y-23859500D01*
X143019949Y-23900046D01*
X143019942Y-23900049D01*
X142898873Y-23977855D01*
X142804622Y-24086628D01*
X142744834Y-24217543D01*
X142724353Y-24359997D01*
X134693291Y-24359997D01*
X134670941Y-24218886D01*
X134670504Y-24217540D01*
X134612547Y-24039168D01*
X134526760Y-23870801D01*
X134415690Y-23717927D01*
X134282073Y-23584310D01*
X134129199Y-23473240D01*
X134129198Y-23473239D01*
X134129196Y-23473238D01*
X133960832Y-23387453D01*
X133781113Y-23329058D01*
X133594484Y-23299500D01*
X133594481Y-23299500D01*
X133405519Y-23299500D01*
X133405516Y-23299500D01*
X133218886Y-23329058D01*
X133039167Y-23387453D01*
X132870803Y-23473238D01*
X132717928Y-23584309D01*
X132584309Y-23717928D01*
X132473238Y-23870803D01*
X132387453Y-24039167D01*
X132329058Y-24218886D01*
X132299500Y-24405515D01*
X129216204Y-24405515D01*
X129165977Y-24330345D01*
X129019655Y-24184023D01*
X129019651Y-24184020D01*
X128847597Y-24069058D01*
X128656418Y-23989869D01*
X128453467Y-23949500D01*
X128453465Y-23949500D01*
X128246535Y-23949500D01*
X128246532Y-23949500D01*
X128043581Y-23989869D01*
X127852402Y-24069058D01*
X127680348Y-24184020D01*
X127534020Y-24330348D01*
X127419058Y-24502402D01*
X127339869Y-24693581D01*
X127299500Y-24896532D01*
X102169859Y-24896532D01*
X103069984Y-23996407D01*
X103124499Y-23968632D01*
X103168724Y-23971676D01*
X103298868Y-24011154D01*
X103298873Y-24011155D01*
X103499997Y-24030964D01*
X103500000Y-24030964D01*
X103500003Y-24030964D01*
X103701126Y-24011155D01*
X103701131Y-24011154D01*
X103749739Y-23996409D01*
X103894533Y-23952487D01*
X104072773Y-23857215D01*
X104229002Y-23729002D01*
X104357215Y-23572773D01*
X104452487Y-23394533D01*
X104511154Y-23201131D01*
X104511155Y-23201126D01*
X104530964Y-23000003D01*
X104530964Y-22999996D01*
X105009036Y-22999996D01*
X105009036Y-23000003D01*
X105028844Y-23201126D01*
X105028845Y-23201131D01*
X105087513Y-23394533D01*
X105182786Y-23572775D01*
X105236494Y-23638218D01*
X105310998Y-23729002D01*
X105467224Y-23857212D01*
X105467224Y-23857213D01*
X105467225Y-23857213D01*
X105467227Y-23857215D01*
X105645467Y-23952487D01*
X105768701Y-23989869D01*
X105838868Y-24011154D01*
X105838873Y-24011155D01*
X106039997Y-24030964D01*
X106040000Y-24030964D01*
X106040003Y-24030964D01*
X106241126Y-24011155D01*
X106241131Y-24011154D01*
X106289739Y-23996409D01*
X106434533Y-23952487D01*
X106612773Y-23857215D01*
X106769002Y-23729002D01*
X106897215Y-23572773D01*
X106992487Y-23394533D01*
X107051154Y-23201131D01*
X107051155Y-23201126D01*
X107070964Y-23000003D01*
X107070964Y-22999996D01*
X107051155Y-22798873D01*
X107051154Y-22798868D01*
X106992566Y-22605729D01*
X106992487Y-22605467D01*
X106897215Y-22427227D01*
X106769002Y-22270998D01*
X106612775Y-22142786D01*
X106434533Y-22047513D01*
X106241131Y-21988845D01*
X106241126Y-21988844D01*
X106040003Y-21969036D01*
X106039997Y-21969036D01*
X105838873Y-21988844D01*
X105838868Y-21988845D01*
X105645466Y-22047513D01*
X105467224Y-22142786D01*
X105467224Y-22142787D01*
X105311003Y-22270993D01*
X105310993Y-22271003D01*
X105182787Y-22427224D01*
X105182786Y-22427224D01*
X105087513Y-22605466D01*
X105028845Y-22798868D01*
X105028844Y-22798873D01*
X105009036Y-22999996D01*
X104530964Y-22999996D01*
X104511155Y-22798873D01*
X104511154Y-22798868D01*
X104452566Y-22605729D01*
X104452487Y-22605467D01*
X104357215Y-22427227D01*
X104229002Y-22270998D01*
X104072775Y-22142786D01*
X103894533Y-22047513D01*
X103701131Y-21988845D01*
X103701126Y-21988844D01*
X103500003Y-21969036D01*
X103499997Y-21969036D01*
X103298873Y-21988844D01*
X103298868Y-21988845D01*
X103105466Y-22047513D01*
X102927224Y-22142786D01*
X102927224Y-22142787D01*
X102771003Y-22270993D01*
X102770993Y-22271003D01*
X102642787Y-22427224D01*
X102642786Y-22427224D01*
X102547513Y-22605466D01*
X102488845Y-22798868D01*
X102488844Y-22798873D01*
X102469036Y-22999996D01*
X102469036Y-23000003D01*
X102488844Y-23201121D01*
X102488847Y-23201136D01*
X102528323Y-23331274D01*
X102527122Y-23392447D01*
X102503590Y-23430015D01*
X101529504Y-24404102D01*
X101474987Y-24431879D01*
X101414555Y-24422308D01*
X101371290Y-24379043D01*
X101360500Y-24334098D01*
X101360500Y-24008635D01*
X101379407Y-23950444D01*
X101412832Y-23921325D01*
X101532770Y-23857217D01*
X101532771Y-23857215D01*
X101532773Y-23857215D01*
X101689002Y-23729002D01*
X101817215Y-23572773D01*
X101912487Y-23394533D01*
X101971154Y-23201131D01*
X101971155Y-23201126D01*
X101990964Y-23000003D01*
X101990964Y-22999996D01*
X101971155Y-22798873D01*
X101971154Y-22798868D01*
X101912566Y-22605729D01*
X101912487Y-22605467D01*
X101817215Y-22427227D01*
X101689002Y-22270998D01*
X101532775Y-22142786D01*
X101354533Y-22047513D01*
X101161131Y-21988845D01*
X101161126Y-21988844D01*
X100960003Y-21969036D01*
X100959997Y-21969036D01*
X100758873Y-21988844D01*
X100758868Y-21988845D01*
X100565466Y-22047513D01*
X100387224Y-22142786D01*
X100387224Y-22142787D01*
X100231003Y-22270993D01*
X100230993Y-22271003D01*
X100102787Y-22427224D01*
X100102786Y-22427224D01*
X100007513Y-22605466D01*
X99948845Y-22798868D01*
X99948844Y-22798873D01*
X99929036Y-22999996D01*
X99929036Y-23000003D01*
X99948844Y-23201126D01*
X99948845Y-23201131D01*
X100007513Y-23394533D01*
X100102786Y-23572775D01*
X100156494Y-23638218D01*
X100230998Y-23729002D01*
X100231003Y-23729006D01*
X100387229Y-23857217D01*
X100507168Y-23921325D01*
X100549575Y-23965430D01*
X100559500Y-24008635D01*
X100559500Y-24484571D01*
X100540593Y-24542762D01*
X100530504Y-24554575D01*
X97279516Y-27805563D01*
X97226793Y-27896883D01*
X97226792Y-27896883D01*
X97226793Y-27896884D01*
X97226793Y-27896885D01*
X97199500Y-27998745D01*
X97199500Y-37955773D01*
X97199500Y-38061227D01*
X97223570Y-38151059D01*
X97226794Y-38163092D01*
X97279516Y-38254408D01*
X97279520Y-38254413D01*
X97739303Y-38714197D01*
X97767080Y-38768713D01*
X97757509Y-38829145D01*
X97714244Y-38872410D01*
X97669299Y-38883200D01*
X97273332Y-38883200D01*
X97219810Y-38867484D01*
X97151753Y-38823747D01*
X97151750Y-38823746D01*
X97013664Y-38783200D01*
X97013661Y-38783200D01*
X96869739Y-38783200D01*
X96869735Y-38783200D01*
X96731649Y-38823746D01*
X96731642Y-38823749D01*
X96610573Y-38901555D01*
X96516322Y-39010328D01*
X96456534Y-39141243D01*
X96436053Y-39283697D01*
X96436053Y-39283702D01*
X96456534Y-39426156D01*
X96492584Y-39505093D01*
X96516323Y-39557073D01*
X96561927Y-39609703D01*
X96610573Y-39665844D01*
X96731642Y-39743650D01*
X96731647Y-39743653D01*
X96838103Y-39774911D01*
X96869735Y-39784199D01*
X96869736Y-39784199D01*
X96869739Y-39784200D01*
X96869741Y-39784200D01*
X97013659Y-39784200D01*
X97013661Y-39784200D01*
X97151753Y-39743653D01*
X97219810Y-39699915D01*
X97273332Y-39684200D01*
X98375700Y-39684200D01*
X98433891Y-39703107D01*
X98469855Y-39752607D01*
X98474700Y-39783200D01*
X98474700Y-45298273D01*
X98474700Y-45403727D01*
X98496721Y-45485911D01*
X98501994Y-45505592D01*
X98554716Y-45596908D01*
X98554718Y-45596910D01*
X98554720Y-45596913D01*
X99520605Y-46562798D01*
X99548381Y-46617313D01*
X99549600Y-46632800D01*
X99549600Y-46707562D01*
X99530693Y-46765753D01*
X99481193Y-46801717D01*
X99422709Y-46802552D01*
X99322064Y-46773000D01*
X99322061Y-46773000D01*
X99178139Y-46773000D01*
X99178135Y-46773000D01*
X99040049Y-46813546D01*
X99040042Y-46813549D01*
X98918973Y-46891355D01*
X98824722Y-47000128D01*
X98778453Y-47101442D01*
X98737081Y-47146519D01*
X98677114Y-47158670D01*
X98621458Y-47133252D01*
X98598347Y-47101442D01*
X98552077Y-47000128D01*
X98552077Y-47000127D01*
X98457828Y-46891357D01*
X98457827Y-46891356D01*
X98457826Y-46891355D01*
X98336757Y-46813549D01*
X98336754Y-46813547D01*
X98336753Y-46813547D01*
X98336750Y-46813546D01*
X98198664Y-46773000D01*
X98198661Y-46773000D01*
X98054739Y-46773000D01*
X98054735Y-46773000D01*
X97916649Y-46813546D01*
X97916642Y-46813549D01*
X97795573Y-46891355D01*
X97701322Y-47000128D01*
X97641534Y-47131043D01*
X97621053Y-47273497D01*
X97621053Y-47273502D01*
X97641534Y-47415956D01*
X97701323Y-47546873D01*
X97702016Y-47547673D01*
X97702360Y-47548489D01*
X97705153Y-47552834D01*
X97704401Y-47553316D01*
X97725836Y-47604031D01*
X97726200Y-47612508D01*
X97726200Y-47942077D01*
X97707293Y-48000268D01*
X97697204Y-48012081D01*
X94777904Y-50931381D01*
X94723387Y-50959158D01*
X94662955Y-50949587D01*
X94619690Y-50906322D01*
X94608900Y-50861377D01*
X94608900Y-50586124D01*
X94608900Y-50586123D01*
X94592583Y-50525227D01*
X94581607Y-50484262D01*
X94581604Y-50484256D01*
X94528883Y-50392941D01*
X94528879Y-50392936D01*
X94429496Y-50293552D01*
X94401719Y-50239036D01*
X94400500Y-50223549D01*
X94400500Y-37806901D01*
X94419407Y-37748710D01*
X94429496Y-37736897D01*
X94776097Y-37390296D01*
X95193174Y-36973218D01*
X95247689Y-36945443D01*
X95308121Y-36955014D01*
X95351386Y-36998279D01*
X95360273Y-37023908D01*
X95361132Y-37028227D01*
X95361134Y-37028233D01*
X95405445Y-37094548D01*
X95405448Y-37094552D01*
X95471769Y-37138867D01*
X95516231Y-37147711D01*
X95530241Y-37150498D01*
X95530246Y-37150498D01*
X95530252Y-37150500D01*
X95530253Y-37150500D01*
X96569747Y-37150500D01*
X96569748Y-37150500D01*
X96628231Y-37138867D01*
X96694552Y-37094552D01*
X96738867Y-37028231D01*
X96750500Y-36969748D01*
X96750500Y-34130252D01*
X96738867Y-34071769D01*
X96694552Y-34005448D01*
X96694548Y-34005445D01*
X96628233Y-33961134D01*
X96628231Y-33961133D01*
X96628228Y-33961132D01*
X96628227Y-33961132D01*
X96569758Y-33949501D01*
X96569748Y-33949500D01*
X96569747Y-33949500D01*
X96549500Y-33949500D01*
X96491309Y-33930593D01*
X96455345Y-33881093D01*
X96450500Y-33850500D01*
X96450500Y-31449500D01*
X96469407Y-31391309D01*
X96518907Y-31355345D01*
X96549500Y-31350500D01*
X96569747Y-31350500D01*
X96569748Y-31350500D01*
X96628231Y-31338867D01*
X96694552Y-31294552D01*
X96738867Y-31228231D01*
X96750500Y-31169748D01*
X96750500Y-28330252D01*
X96738867Y-28271769D01*
X96694552Y-28205448D01*
X96694548Y-28205445D01*
X96628233Y-28161134D01*
X96628231Y-28161133D01*
X96628228Y-28161132D01*
X96628227Y-28161132D01*
X96569758Y-28149501D01*
X96569748Y-28149500D01*
X95530252Y-28149500D01*
X95530251Y-28149500D01*
X95530241Y-28149501D01*
X95471772Y-28161132D01*
X95471766Y-28161134D01*
X95405451Y-28205445D01*
X95405445Y-28205451D01*
X95361134Y-28271766D01*
X95361132Y-28271772D01*
X95349501Y-28330241D01*
X95349500Y-28330253D01*
X95349500Y-31169746D01*
X95349501Y-31169758D01*
X95361132Y-31228227D01*
X95361133Y-31228231D01*
X95405448Y-31294552D01*
X95471769Y-31338867D01*
X95516231Y-31347711D01*
X95530241Y-31350498D01*
X95530246Y-31350498D01*
X95530252Y-31350500D01*
X95550500Y-31350500D01*
X95608691Y-31369407D01*
X95644655Y-31418907D01*
X95649500Y-31449500D01*
X95649500Y-33850500D01*
X95630593Y-33908691D01*
X95581093Y-33944655D01*
X95550500Y-33949500D01*
X95530252Y-33949500D01*
X95530251Y-33949500D01*
X95530241Y-33949501D01*
X95471772Y-33961132D01*
X95471766Y-33961134D01*
X95405451Y-34005445D01*
X95405445Y-34005451D01*
X95361134Y-34071766D01*
X95361132Y-34071772D01*
X95349501Y-34130241D01*
X95349500Y-34130253D01*
X95349500Y-35643099D01*
X95330593Y-35701290D01*
X95320504Y-35713103D01*
X94058856Y-36974750D01*
X94004339Y-37002527D01*
X93943907Y-36992956D01*
X93900642Y-36949691D01*
X93890860Y-36918834D01*
X93873565Y-36798544D01*
X93859540Y-36767832D01*
X93813777Y-36667627D01*
X93719528Y-36558857D01*
X93719527Y-36558856D01*
X93719526Y-36558855D01*
X93598457Y-36481049D01*
X93598454Y-36481047D01*
X93598453Y-36481047D01*
X93598450Y-36481046D01*
X93460364Y-36440500D01*
X93460361Y-36440500D01*
X93316439Y-36440500D01*
X93316435Y-36440500D01*
X93178349Y-36481046D01*
X93178342Y-36481049D01*
X93057273Y-36558855D01*
X92963022Y-36667628D01*
X92903234Y-36798543D01*
X92882753Y-36940997D01*
X92025500Y-36940997D01*
X92025500Y-23878712D01*
X93649500Y-23878712D01*
X93649500Y-24121288D01*
X93680926Y-24360000D01*
X93681161Y-24361781D01*
X93681161Y-24361786D01*
X93743944Y-24596092D01*
X93743948Y-24596105D01*
X93836772Y-24820204D01*
X93836774Y-24820208D01*
X93836776Y-24820212D01*
X93897276Y-24925001D01*
X93958066Y-25030292D01*
X94105729Y-25222731D01*
X94105731Y-25222733D01*
X94105735Y-25222738D01*
X94277262Y-25394265D01*
X94277266Y-25394268D01*
X94277268Y-25394270D01*
X94469707Y-25541933D01*
X94469711Y-25541936D01*
X94679788Y-25663224D01*
X94679794Y-25663226D01*
X94679795Y-25663227D01*
X94716406Y-25678391D01*
X94903900Y-25756054D01*
X95138211Y-25818838D01*
X95378712Y-25850500D01*
X95378713Y-25850500D01*
X95621287Y-25850500D01*
X95621288Y-25850500D01*
X95861789Y-25818838D01*
X96096100Y-25756054D01*
X96320212Y-25663224D01*
X96530289Y-25541936D01*
X96722738Y-25394265D01*
X96894265Y-25222738D01*
X97041936Y-25030289D01*
X97163224Y-24820212D01*
X97256054Y-24596100D01*
X97318838Y-24361789D01*
X97350500Y-24121288D01*
X97350500Y-23878712D01*
X97318838Y-23638211D01*
X97256054Y-23403900D01*
X97172065Y-23201131D01*
X97163227Y-23179795D01*
X97163226Y-23179794D01*
X97163224Y-23179788D01*
X97041936Y-22969711D01*
X96894265Y-22777262D01*
X96722738Y-22605735D01*
X96722733Y-22605731D01*
X96722731Y-22605729D01*
X96530292Y-22458066D01*
X96530289Y-22458064D01*
X96320212Y-22336776D01*
X96320208Y-22336774D01*
X96320204Y-22336772D01*
X96096105Y-22243948D01*
X96096104Y-22243947D01*
X96096100Y-22243946D01*
X95861789Y-22181162D01*
X95861786Y-22181161D01*
X95861784Y-22181161D01*
X95621289Y-22149500D01*
X95621288Y-22149500D01*
X95378712Y-22149500D01*
X95378710Y-22149500D01*
X95138218Y-22181161D01*
X95138213Y-22181161D01*
X94903907Y-22243944D01*
X94903894Y-22243948D01*
X94679795Y-22336772D01*
X94469707Y-22458066D01*
X94277268Y-22605729D01*
X94105729Y-22777268D01*
X93958066Y-22969707D01*
X93836772Y-23179795D01*
X93743948Y-23403894D01*
X93743944Y-23403907D01*
X93681161Y-23638213D01*
X93681161Y-23638218D01*
X93649500Y-23878712D01*
X92025500Y-23878712D01*
X92025500Y-23502586D01*
X92025636Y-23497405D01*
X92030536Y-23403907D01*
X92041523Y-23194256D01*
X92042606Y-23183957D01*
X92089690Y-22886680D01*
X92091837Y-22876574D01*
X92169743Y-22585823D01*
X92172938Y-22575991D01*
X92280800Y-22295002D01*
X92285012Y-22285543D01*
X92421662Y-22017350D01*
X92426826Y-22008407D01*
X92590761Y-21755971D01*
X92596831Y-21747616D01*
X92786254Y-21513698D01*
X92793169Y-21506017D01*
X93006017Y-21293169D01*
X93013698Y-21286254D01*
X93247616Y-21096831D01*
X93255971Y-21090761D01*
X93508407Y-20926826D01*
X93517350Y-20921662D01*
X93785550Y-20785008D01*
X93795002Y-20780800D01*
X94075991Y-20672938D01*
X94085823Y-20669743D01*
X94376574Y-20591837D01*
X94386680Y-20589690D01*
X94683964Y-20542605D01*
X94694256Y-20541523D01*
X94997405Y-20525635D01*
X95002586Y-20525500D01*
X95008285Y-20525500D01*
X148991715Y-20525500D01*
X148997414Y-20525500D01*
X149002594Y-20525635D01*
G37*
%TD.AperFunction*%
M02*
