M48
; DRILL file {KiCad 8.0.8} date 2025-02-01T16:26:27+0100
; FORMAT={-:-/ absolute / inch / decimal}
; #@! TF.CreationDate,2025-02-01T16:26:27+01:00
; #@! TF.GenerationSoftware,Kicad,Pcbnew,8.0.8
; #@! TF.FileFunction,Plated,1,2,PTH
FMAT,2
INCH
; #@! TA.AperFunction,Plated,PTH,ComponentDrill
T1C0.0217
; #@! TA.AperFunction,Plated,PTH,ComponentDrill
T2C0.0276
; #@! TA.AperFunction,Plated,PTH,ComponentDrill
T3C0.0354
; #@! TA.AperFunction,Plated,PTH,ComponentDrill
T4C0.0394
; #@! TA.AperFunction,Plated,PTH,ComponentDrill
T5C0.0709
%
G90
G05
T1
X3.2579Y-3.0886
X3.2579Y-3.1378
X3.2579Y-3.187
X3.3071Y-3.0886
X3.3071Y-3.1378
X3.3071Y-3.187
T2
X3.8465Y-2.1156
X3.8465Y-2.1856
X3.8465Y-2.2557
X3.8465Y-2.3258
X3.8465Y-2.3959
X3.8465Y-2.4659
X3.8465Y-2.536
X3.8465Y-2.6061
X4.2677Y-2.1506
X4.2677Y-2.2207
X4.2677Y-2.2907
X4.2677Y-2.3608
X4.2677Y-2.4309
X4.2677Y-2.501
X4.2677Y-2.5711
X4.2677Y-2.6411
T3
X3.6949Y-0.7748
X3.6949Y-0.8748
X4.4213Y-0.7701
X4.4213Y-0.8701
T4
X3.2697Y-1.0626
X3.2697Y-1.2626
X3.2697Y-1.4626
X4.4508Y-1.0764
X4.4508Y-1.2764
X4.4508Y-1.4764
X4.6673Y-1.8787
X4.6673Y-1.9787
X4.6673Y-2.0787
X4.6673Y-2.1787
X4.7673Y-1.8787
X4.7673Y-1.9787
X4.7673Y-2.0787
X4.7673Y-2.1787
X4.8445Y-1.0626
X4.8445Y-1.2626
X4.8445Y-1.4626
X4.9232Y-2.8827
X4.9232Y-2.9827
X4.9232Y-3.0827
X4.9232Y-3.1827
X4.9528Y-2.3709
X4.9528Y-2.4709
X4.9528Y-2.5709
X4.9528Y-2.6709
T2
G00X3.6575Y-1.1012
M15
G01X3.6693Y-1.1012
M16
G05
G00X3.6575Y-1.1996
M15
G01X3.6693Y-1.1996
M16
G05
G00X3.6575Y-1.298
M15
G01X3.6693Y-1.298
M16
G05
T5
G00X3.5797Y-1.0224
M15
G01X3.5896Y-1.0224
M16
G05
G00X3.5797Y-1.3768
M15
G01X3.5896Y-1.3768
M16
G05
M30
