%TF.GenerationSoftware,KiCad,Pcbnew,8.0.8*%
%TF.CreationDate,2025-02-01T16:26:28+01:00*%
%TF.ProjectId,Trackball,54726163-6b62-4616-9c6c-2e6b69636164,rev?*%
%TF.SameCoordinates,Original*%
%TF.FileFunction,Drillmap*%
%TF.FilePolarity,Positive*%
%FSLAX45Y45*%
G04 Gerber Fmt 4.5, Leading zero omitted, Abs format (unit mm)*
G04 Created by KiCad (PCBNEW 8.0.8) date 2025-02-01 16:26:28*
%MOMM*%
%LPD*%
G01*
G04 APERTURE LIST*
%ADD10C,0.100000*%
%ADD11C,0.050000*%
%ADD12C,0.200000*%
%ADD13C,0.320000*%
G04 APERTURE END LIST*
D10*
X8305000Y-9110000D02*
X9655000Y-9110000D01*
X8305000Y-9110000D02*
G75*
G02*
X7955000Y-8760000I0J350000D01*
G01*
X10955000Y-9110000D02*
X12305000Y-9110000D01*
X12655000Y-8760000D02*
G75*
G02*
X12305000Y-9110000I-350000J0D01*
G01*
X7705000Y-6965000D02*
X7955000Y-8760000D01*
X12905000Y-6965000D02*
X12655000Y-8760000D01*
X12905000Y-6965000D02*
X12905000Y-3950000D01*
X7705000Y-3950000D02*
X7955000Y-2155000D01*
X12305000Y-1805000D02*
G75*
G02*
X12655000Y-2155000I0J-350000D01*
G01*
X10955000Y-1805000D02*
X12305000Y-1805000D01*
X12905000Y-3950000D02*
X12655000Y-2155000D01*
X7955000Y-2155000D02*
G75*
G02*
X8305000Y-1805000I350000J0D01*
G01*
X9655000Y-4805000D02*
X10955000Y-4805000D01*
X10955000Y-4805000D02*
X10955000Y-1805000D01*
X9655000Y-4805000D02*
X9655000Y-1805000D01*
D11*
X10305000Y-2797000D02*
X10305000Y-3307000D01*
D10*
X8305000Y-1805000D02*
X9655000Y-1805000D01*
D11*
X9859000Y-5007000D02*
X10760000Y-5007000D01*
X10760000Y-6877000D01*
X9859000Y-6877000D01*
X9859000Y-5007000D01*
D10*
X7705000Y-6965000D02*
X7705000Y-3950000D01*
D12*
D13*
X8145000Y-1995000D02*
X8465000Y-2315000D01*
X8465000Y-1995000D02*
X8145000Y-2315000D01*
X8145000Y-8605000D02*
X8465000Y-8925000D01*
X8465000Y-8605000D02*
X8145000Y-8925000D01*
X12145000Y-1995000D02*
X12465000Y-2315000D01*
X12465000Y-1995000D02*
X12145000Y-2315000D01*
X12145000Y-8605000D02*
X12465000Y-8925000D01*
X12465000Y-8605000D02*
X12145000Y-8925000D01*
D12*
X7960777Y-9426484D02*
X7960777Y-9226484D01*
X7960777Y-9226484D02*
X8008396Y-9226484D01*
X8008396Y-9226484D02*
X8036967Y-9236008D01*
X8036967Y-9236008D02*
X8056015Y-9255055D01*
X8056015Y-9255055D02*
X8065539Y-9274103D01*
X8065539Y-9274103D02*
X8075062Y-9312198D01*
X8075062Y-9312198D02*
X8075062Y-9340770D01*
X8075062Y-9340770D02*
X8065539Y-9378865D01*
X8065539Y-9378865D02*
X8056015Y-9397912D01*
X8056015Y-9397912D02*
X8036967Y-9416960D01*
X8036967Y-9416960D02*
X8008396Y-9426484D01*
X8008396Y-9426484D02*
X7960777Y-9426484D01*
X8160777Y-9426484D02*
X8160777Y-9293150D01*
X8160777Y-9331246D02*
X8170301Y-9312198D01*
X8170301Y-9312198D02*
X8179824Y-9302674D01*
X8179824Y-9302674D02*
X8198872Y-9293150D01*
X8198872Y-9293150D02*
X8217920Y-9293150D01*
X8284586Y-9426484D02*
X8284586Y-9293150D01*
X8284586Y-9226484D02*
X8275062Y-9236008D01*
X8275062Y-9236008D02*
X8284586Y-9245531D01*
X8284586Y-9245531D02*
X8294110Y-9236008D01*
X8294110Y-9236008D02*
X8284586Y-9226484D01*
X8284586Y-9226484D02*
X8284586Y-9245531D01*
X8408396Y-9426484D02*
X8389348Y-9416960D01*
X8389348Y-9416960D02*
X8379824Y-9397912D01*
X8379824Y-9397912D02*
X8379824Y-9226484D01*
X8513158Y-9426484D02*
X8494110Y-9416960D01*
X8494110Y-9416960D02*
X8484586Y-9397912D01*
X8484586Y-9397912D02*
X8484586Y-9226484D01*
X8741729Y-9426484D02*
X8741729Y-9226484D01*
X8741729Y-9226484D02*
X8808396Y-9369341D01*
X8808396Y-9369341D02*
X8875063Y-9226484D01*
X8875063Y-9226484D02*
X8875063Y-9426484D01*
X9056015Y-9426484D02*
X9056015Y-9321722D01*
X9056015Y-9321722D02*
X9046491Y-9302674D01*
X9046491Y-9302674D02*
X9027444Y-9293150D01*
X9027444Y-9293150D02*
X8989348Y-9293150D01*
X8989348Y-9293150D02*
X8970301Y-9302674D01*
X9056015Y-9416960D02*
X9036967Y-9426484D01*
X9036967Y-9426484D02*
X8989348Y-9426484D01*
X8989348Y-9426484D02*
X8970301Y-9416960D01*
X8970301Y-9416960D02*
X8960777Y-9397912D01*
X8960777Y-9397912D02*
X8960777Y-9378865D01*
X8960777Y-9378865D02*
X8970301Y-9359817D01*
X8970301Y-9359817D02*
X8989348Y-9350293D01*
X8989348Y-9350293D02*
X9036967Y-9350293D01*
X9036967Y-9350293D02*
X9056015Y-9340770D01*
X9151253Y-9293150D02*
X9151253Y-9493150D01*
X9151253Y-9302674D02*
X9170301Y-9293150D01*
X9170301Y-9293150D02*
X9208396Y-9293150D01*
X9208396Y-9293150D02*
X9227444Y-9302674D01*
X9227444Y-9302674D02*
X9236967Y-9312198D01*
X9236967Y-9312198D02*
X9246491Y-9331246D01*
X9246491Y-9331246D02*
X9246491Y-9388389D01*
X9246491Y-9388389D02*
X9236967Y-9407436D01*
X9236967Y-9407436D02*
X9227444Y-9416960D01*
X9227444Y-9416960D02*
X9208396Y-9426484D01*
X9208396Y-9426484D02*
X9170301Y-9426484D01*
X9170301Y-9426484D02*
X9151253Y-9416960D01*
X9332205Y-9407436D02*
X9341729Y-9416960D01*
X9341729Y-9416960D02*
X9332205Y-9426484D01*
X9332205Y-9426484D02*
X9322682Y-9416960D01*
X9322682Y-9416960D02*
X9332205Y-9407436D01*
X9332205Y-9407436D02*
X9332205Y-9426484D01*
X9332205Y-9302674D02*
X9341729Y-9312198D01*
X9341729Y-9312198D02*
X9332205Y-9321722D01*
X9332205Y-9321722D02*
X9322682Y-9312198D01*
X9322682Y-9312198D02*
X9332205Y-9302674D01*
X9332205Y-9302674D02*
X9332205Y-9321722D01*
X7500000Y-9655000D02*
X7700000Y-9855000D01*
X7700000Y-9655000D02*
X7500000Y-9855000D01*
X7941729Y-9646484D02*
X8065539Y-9646484D01*
X8065539Y-9646484D02*
X7998872Y-9722674D01*
X7998872Y-9722674D02*
X8027443Y-9722674D01*
X8027443Y-9722674D02*
X8046491Y-9732198D01*
X8046491Y-9732198D02*
X8056015Y-9741722D01*
X8056015Y-9741722D02*
X8065539Y-9760770D01*
X8065539Y-9760770D02*
X8065539Y-9808389D01*
X8065539Y-9808389D02*
X8056015Y-9827436D01*
X8056015Y-9827436D02*
X8046491Y-9836960D01*
X8046491Y-9836960D02*
X8027443Y-9846484D01*
X8027443Y-9846484D02*
X7970301Y-9846484D01*
X7970301Y-9846484D02*
X7951253Y-9836960D01*
X7951253Y-9836960D02*
X7941729Y-9827436D01*
X8151253Y-9827436D02*
X8160777Y-9836960D01*
X8160777Y-9836960D02*
X8151253Y-9846484D01*
X8151253Y-9846484D02*
X8141729Y-9836960D01*
X8141729Y-9836960D02*
X8151253Y-9827436D01*
X8151253Y-9827436D02*
X8151253Y-9846484D01*
X8236967Y-9665531D02*
X8246491Y-9656008D01*
X8246491Y-9656008D02*
X8265539Y-9646484D01*
X8265539Y-9646484D02*
X8313158Y-9646484D01*
X8313158Y-9646484D02*
X8332205Y-9656008D01*
X8332205Y-9656008D02*
X8341729Y-9665531D01*
X8341729Y-9665531D02*
X8351253Y-9684579D01*
X8351253Y-9684579D02*
X8351253Y-9703627D01*
X8351253Y-9703627D02*
X8341729Y-9732198D01*
X8341729Y-9732198D02*
X8227443Y-9846484D01*
X8227443Y-9846484D02*
X8351253Y-9846484D01*
X8475063Y-9646484D02*
X8494110Y-9646484D01*
X8494110Y-9646484D02*
X8513158Y-9656008D01*
X8513158Y-9656008D02*
X8522682Y-9665531D01*
X8522682Y-9665531D02*
X8532205Y-9684579D01*
X8532205Y-9684579D02*
X8541729Y-9722674D01*
X8541729Y-9722674D02*
X8541729Y-9770293D01*
X8541729Y-9770293D02*
X8532205Y-9808389D01*
X8532205Y-9808389D02*
X8522682Y-9827436D01*
X8522682Y-9827436D02*
X8513158Y-9836960D01*
X8513158Y-9836960D02*
X8494110Y-9846484D01*
X8494110Y-9846484D02*
X8475063Y-9846484D01*
X8475063Y-9846484D02*
X8456015Y-9836960D01*
X8456015Y-9836960D02*
X8446491Y-9827436D01*
X8446491Y-9827436D02*
X8436967Y-9808389D01*
X8436967Y-9808389D02*
X8427444Y-9770293D01*
X8427444Y-9770293D02*
X8427444Y-9722674D01*
X8427444Y-9722674D02*
X8436967Y-9684579D01*
X8436967Y-9684579D02*
X8446491Y-9665531D01*
X8446491Y-9665531D02*
X8456015Y-9656008D01*
X8456015Y-9656008D02*
X8475063Y-9646484D01*
X8665539Y-9646484D02*
X8684586Y-9646484D01*
X8684586Y-9646484D02*
X8703634Y-9656008D01*
X8703634Y-9656008D02*
X8713158Y-9665531D01*
X8713158Y-9665531D02*
X8722682Y-9684579D01*
X8722682Y-9684579D02*
X8732205Y-9722674D01*
X8732205Y-9722674D02*
X8732205Y-9770293D01*
X8732205Y-9770293D02*
X8722682Y-9808389D01*
X8722682Y-9808389D02*
X8713158Y-9827436D01*
X8713158Y-9827436D02*
X8703634Y-9836960D01*
X8703634Y-9836960D02*
X8684586Y-9846484D01*
X8684586Y-9846484D02*
X8665539Y-9846484D01*
X8665539Y-9846484D02*
X8646491Y-9836960D01*
X8646491Y-9836960D02*
X8636967Y-9827436D01*
X8636967Y-9827436D02*
X8627444Y-9808389D01*
X8627444Y-9808389D02*
X8617920Y-9770293D01*
X8617920Y-9770293D02*
X8617920Y-9722674D01*
X8617920Y-9722674D02*
X8627444Y-9684579D01*
X8627444Y-9684579D02*
X8636967Y-9665531D01*
X8636967Y-9665531D02*
X8646491Y-9656008D01*
X8646491Y-9656008D02*
X8665539Y-9646484D01*
X8817920Y-9846484D02*
X8817920Y-9713150D01*
X8817920Y-9732198D02*
X8827444Y-9722674D01*
X8827444Y-9722674D02*
X8846491Y-9713150D01*
X8846491Y-9713150D02*
X8875063Y-9713150D01*
X8875063Y-9713150D02*
X8894110Y-9722674D01*
X8894110Y-9722674D02*
X8903634Y-9741722D01*
X8903634Y-9741722D02*
X8903634Y-9846484D01*
X8903634Y-9741722D02*
X8913158Y-9722674D01*
X8913158Y-9722674D02*
X8932205Y-9713150D01*
X8932205Y-9713150D02*
X8960777Y-9713150D01*
X8960777Y-9713150D02*
X8979825Y-9722674D01*
X8979825Y-9722674D02*
X8989348Y-9741722D01*
X8989348Y-9741722D02*
X8989348Y-9846484D01*
X9084586Y-9846484D02*
X9084586Y-9713150D01*
X9084586Y-9732198D02*
X9094110Y-9722674D01*
X9094110Y-9722674D02*
X9113158Y-9713150D01*
X9113158Y-9713150D02*
X9141729Y-9713150D01*
X9141729Y-9713150D02*
X9160777Y-9722674D01*
X9160777Y-9722674D02*
X9170301Y-9741722D01*
X9170301Y-9741722D02*
X9170301Y-9846484D01*
X9170301Y-9741722D02*
X9179825Y-9722674D01*
X9179825Y-9722674D02*
X9198872Y-9713150D01*
X9198872Y-9713150D02*
X9227444Y-9713150D01*
X9227444Y-9713150D02*
X9246491Y-9722674D01*
X9246491Y-9722674D02*
X9256015Y-9741722D01*
X9256015Y-9741722D02*
X9256015Y-9846484D01*
X9646491Y-9636960D02*
X9475063Y-9894103D01*
X9903634Y-9646484D02*
X9922682Y-9646484D01*
X9922682Y-9646484D02*
X9941729Y-9656008D01*
X9941729Y-9656008D02*
X9951253Y-9665531D01*
X9951253Y-9665531D02*
X9960777Y-9684579D01*
X9960777Y-9684579D02*
X9970301Y-9722674D01*
X9970301Y-9722674D02*
X9970301Y-9770293D01*
X9970301Y-9770293D02*
X9960777Y-9808389D01*
X9960777Y-9808389D02*
X9951253Y-9827436D01*
X9951253Y-9827436D02*
X9941729Y-9836960D01*
X9941729Y-9836960D02*
X9922682Y-9846484D01*
X9922682Y-9846484D02*
X9903634Y-9846484D01*
X9903634Y-9846484D02*
X9884587Y-9836960D01*
X9884587Y-9836960D02*
X9875063Y-9827436D01*
X9875063Y-9827436D02*
X9865539Y-9808389D01*
X9865539Y-9808389D02*
X9856015Y-9770293D01*
X9856015Y-9770293D02*
X9856015Y-9722674D01*
X9856015Y-9722674D02*
X9865539Y-9684579D01*
X9865539Y-9684579D02*
X9875063Y-9665531D01*
X9875063Y-9665531D02*
X9884587Y-9656008D01*
X9884587Y-9656008D02*
X9903634Y-9646484D01*
X10056015Y-9827436D02*
X10065539Y-9836960D01*
X10065539Y-9836960D02*
X10056015Y-9846484D01*
X10056015Y-9846484D02*
X10046491Y-9836960D01*
X10046491Y-9836960D02*
X10056015Y-9827436D01*
X10056015Y-9827436D02*
X10056015Y-9846484D01*
X10256015Y-9846484D02*
X10141729Y-9846484D01*
X10198872Y-9846484D02*
X10198872Y-9646484D01*
X10198872Y-9646484D02*
X10179825Y-9675055D01*
X10179825Y-9675055D02*
X10160777Y-9694103D01*
X10160777Y-9694103D02*
X10141729Y-9703627D01*
X10332206Y-9665531D02*
X10341729Y-9656008D01*
X10341729Y-9656008D02*
X10360777Y-9646484D01*
X10360777Y-9646484D02*
X10408396Y-9646484D01*
X10408396Y-9646484D02*
X10427444Y-9656008D01*
X10427444Y-9656008D02*
X10436968Y-9665531D01*
X10436968Y-9665531D02*
X10446491Y-9684579D01*
X10446491Y-9684579D02*
X10446491Y-9703627D01*
X10446491Y-9703627D02*
X10436968Y-9732198D01*
X10436968Y-9732198D02*
X10322682Y-9846484D01*
X10322682Y-9846484D02*
X10446491Y-9846484D01*
X10617920Y-9646484D02*
X10579825Y-9646484D01*
X10579825Y-9646484D02*
X10560777Y-9656008D01*
X10560777Y-9656008D02*
X10551253Y-9665531D01*
X10551253Y-9665531D02*
X10532206Y-9694103D01*
X10532206Y-9694103D02*
X10522682Y-9732198D01*
X10522682Y-9732198D02*
X10522682Y-9808389D01*
X10522682Y-9808389D02*
X10532206Y-9827436D01*
X10532206Y-9827436D02*
X10541729Y-9836960D01*
X10541729Y-9836960D02*
X10560777Y-9846484D01*
X10560777Y-9846484D02*
X10598872Y-9846484D01*
X10598872Y-9846484D02*
X10617920Y-9836960D01*
X10617920Y-9836960D02*
X10627444Y-9827436D01*
X10627444Y-9827436D02*
X10636968Y-9808389D01*
X10636968Y-9808389D02*
X10636968Y-9760770D01*
X10636968Y-9760770D02*
X10627444Y-9741722D01*
X10627444Y-9741722D02*
X10617920Y-9732198D01*
X10617920Y-9732198D02*
X10598872Y-9722674D01*
X10598872Y-9722674D02*
X10560777Y-9722674D01*
X10560777Y-9722674D02*
X10541729Y-9732198D01*
X10541729Y-9732198D02*
X10532206Y-9741722D01*
X10532206Y-9741722D02*
X10522682Y-9760770D01*
X10760777Y-9646484D02*
X10779825Y-9646484D01*
X10779825Y-9646484D02*
X10798872Y-9656008D01*
X10798872Y-9656008D02*
X10808396Y-9665531D01*
X10808396Y-9665531D02*
X10817920Y-9684579D01*
X10817920Y-9684579D02*
X10827444Y-9722674D01*
X10827444Y-9722674D02*
X10827444Y-9770293D01*
X10827444Y-9770293D02*
X10817920Y-9808389D01*
X10817920Y-9808389D02*
X10808396Y-9827436D01*
X10808396Y-9827436D02*
X10798872Y-9836960D01*
X10798872Y-9836960D02*
X10779825Y-9846484D01*
X10779825Y-9846484D02*
X10760777Y-9846484D01*
X10760777Y-9846484D02*
X10741729Y-9836960D01*
X10741729Y-9836960D02*
X10732206Y-9827436D01*
X10732206Y-9827436D02*
X10722682Y-9808389D01*
X10722682Y-9808389D02*
X10713158Y-9770293D01*
X10713158Y-9770293D02*
X10713158Y-9722674D01*
X10713158Y-9722674D02*
X10722682Y-9684579D01*
X10722682Y-9684579D02*
X10732206Y-9665531D01*
X10732206Y-9665531D02*
X10741729Y-9656008D01*
X10741729Y-9656008D02*
X10760777Y-9646484D01*
X10903634Y-9646484D02*
X10903634Y-9684579D01*
X10979825Y-9646484D02*
X10979825Y-9684579D01*
X11275063Y-9922674D02*
X11265539Y-9913150D01*
X11265539Y-9913150D02*
X11246491Y-9884579D01*
X11246491Y-9884579D02*
X11236968Y-9865531D01*
X11236968Y-9865531D02*
X11227444Y-9836960D01*
X11227444Y-9836960D02*
X11217920Y-9789341D01*
X11217920Y-9789341D02*
X11217920Y-9751246D01*
X11217920Y-9751246D02*
X11227444Y-9703627D01*
X11227444Y-9703627D02*
X11236968Y-9675055D01*
X11236968Y-9675055D02*
X11246491Y-9656008D01*
X11246491Y-9656008D02*
X11265539Y-9627436D01*
X11265539Y-9627436D02*
X11275063Y-9617912D01*
X11436968Y-9713150D02*
X11436968Y-9846484D01*
X11389348Y-9636960D02*
X11341729Y-9779817D01*
X11341729Y-9779817D02*
X11465539Y-9779817D01*
X11694110Y-9846484D02*
X11694110Y-9646484D01*
X11779825Y-9846484D02*
X11779825Y-9741722D01*
X11779825Y-9741722D02*
X11770301Y-9722674D01*
X11770301Y-9722674D02*
X11751253Y-9713150D01*
X11751253Y-9713150D02*
X11722682Y-9713150D01*
X11722682Y-9713150D02*
X11703634Y-9722674D01*
X11703634Y-9722674D02*
X11694110Y-9732198D01*
X11903634Y-9846484D02*
X11884587Y-9836960D01*
X11884587Y-9836960D02*
X11875063Y-9827436D01*
X11875063Y-9827436D02*
X11865539Y-9808389D01*
X11865539Y-9808389D02*
X11865539Y-9751246D01*
X11865539Y-9751246D02*
X11875063Y-9732198D01*
X11875063Y-9732198D02*
X11884587Y-9722674D01*
X11884587Y-9722674D02*
X11903634Y-9713150D01*
X11903634Y-9713150D02*
X11932206Y-9713150D01*
X11932206Y-9713150D02*
X11951253Y-9722674D01*
X11951253Y-9722674D02*
X11960777Y-9732198D01*
X11960777Y-9732198D02*
X11970301Y-9751246D01*
X11970301Y-9751246D02*
X11970301Y-9808389D01*
X11970301Y-9808389D02*
X11960777Y-9827436D01*
X11960777Y-9827436D02*
X11951253Y-9836960D01*
X11951253Y-9836960D02*
X11932206Y-9846484D01*
X11932206Y-9846484D02*
X11903634Y-9846484D01*
X12084587Y-9846484D02*
X12065539Y-9836960D01*
X12065539Y-9836960D02*
X12056015Y-9817912D01*
X12056015Y-9817912D02*
X12056015Y-9646484D01*
X12236968Y-9836960D02*
X12217920Y-9846484D01*
X12217920Y-9846484D02*
X12179825Y-9846484D01*
X12179825Y-9846484D02*
X12160777Y-9836960D01*
X12160777Y-9836960D02*
X12151253Y-9817912D01*
X12151253Y-9817912D02*
X12151253Y-9741722D01*
X12151253Y-9741722D02*
X12160777Y-9722674D01*
X12160777Y-9722674D02*
X12179825Y-9713150D01*
X12179825Y-9713150D02*
X12217920Y-9713150D01*
X12217920Y-9713150D02*
X12236968Y-9722674D01*
X12236968Y-9722674D02*
X12246491Y-9741722D01*
X12246491Y-9741722D02*
X12246491Y-9760770D01*
X12246491Y-9760770D02*
X12151253Y-9779817D01*
X12322682Y-9836960D02*
X12341730Y-9846484D01*
X12341730Y-9846484D02*
X12379825Y-9846484D01*
X12379825Y-9846484D02*
X12398872Y-9836960D01*
X12398872Y-9836960D02*
X12408396Y-9817912D01*
X12408396Y-9817912D02*
X12408396Y-9808389D01*
X12408396Y-9808389D02*
X12398872Y-9789341D01*
X12398872Y-9789341D02*
X12379825Y-9779817D01*
X12379825Y-9779817D02*
X12351253Y-9779817D01*
X12351253Y-9779817D02*
X12332206Y-9770293D01*
X12332206Y-9770293D02*
X12322682Y-9751246D01*
X12322682Y-9751246D02*
X12322682Y-9741722D01*
X12322682Y-9741722D02*
X12332206Y-9722674D01*
X12332206Y-9722674D02*
X12351253Y-9713150D01*
X12351253Y-9713150D02*
X12379825Y-9713150D01*
X12379825Y-9713150D02*
X12398872Y-9722674D01*
X12475063Y-9922674D02*
X12484587Y-9913150D01*
X12484587Y-9913150D02*
X12503634Y-9884579D01*
X12503634Y-9884579D02*
X12513158Y-9865531D01*
X12513158Y-9865531D02*
X12522682Y-9836960D01*
X12522682Y-9836960D02*
X12532206Y-9789341D01*
X12532206Y-9789341D02*
X12532206Y-9751246D01*
X12532206Y-9751246D02*
X12522682Y-9703627D01*
X12522682Y-9703627D02*
X12513158Y-9675055D01*
X12513158Y-9675055D02*
X12503634Y-9656008D01*
X12503634Y-9656008D02*
X12484587Y-9627436D01*
X12484587Y-9627436D02*
X12475063Y-9617912D01*
X12836968Y-9922674D02*
X12827444Y-9913150D01*
X12827444Y-9913150D02*
X12808396Y-9884579D01*
X12808396Y-9884579D02*
X12798872Y-9865531D01*
X12798872Y-9865531D02*
X12789349Y-9836960D01*
X12789349Y-9836960D02*
X12779825Y-9789341D01*
X12779825Y-9789341D02*
X12779825Y-9751246D01*
X12779825Y-9751246D02*
X12789349Y-9703627D01*
X12789349Y-9703627D02*
X12798872Y-9675055D01*
X12798872Y-9675055D02*
X12808396Y-9656008D01*
X12808396Y-9656008D02*
X12827444Y-9627436D01*
X12827444Y-9627436D02*
X12836968Y-9617912D01*
X12913158Y-9713150D02*
X12913158Y-9846484D01*
X12913158Y-9732198D02*
X12922682Y-9722674D01*
X12922682Y-9722674D02*
X12941730Y-9713150D01*
X12941730Y-9713150D02*
X12970301Y-9713150D01*
X12970301Y-9713150D02*
X12989349Y-9722674D01*
X12989349Y-9722674D02*
X12998872Y-9741722D01*
X12998872Y-9741722D02*
X12998872Y-9846484D01*
X13122682Y-9846484D02*
X13103634Y-9836960D01*
X13103634Y-9836960D02*
X13094111Y-9827436D01*
X13094111Y-9827436D02*
X13084587Y-9808389D01*
X13084587Y-9808389D02*
X13084587Y-9751246D01*
X13084587Y-9751246D02*
X13094111Y-9732198D01*
X13094111Y-9732198D02*
X13103634Y-9722674D01*
X13103634Y-9722674D02*
X13122682Y-9713150D01*
X13122682Y-9713150D02*
X13151253Y-9713150D01*
X13151253Y-9713150D02*
X13170301Y-9722674D01*
X13170301Y-9722674D02*
X13179825Y-9732198D01*
X13179825Y-9732198D02*
X13189349Y-9751246D01*
X13189349Y-9751246D02*
X13189349Y-9808389D01*
X13189349Y-9808389D02*
X13179825Y-9827436D01*
X13179825Y-9827436D02*
X13170301Y-9836960D01*
X13170301Y-9836960D02*
X13151253Y-9846484D01*
X13151253Y-9846484D02*
X13122682Y-9846484D01*
X13246492Y-9713150D02*
X13322682Y-9713150D01*
X13275063Y-9646484D02*
X13275063Y-9817912D01*
X13275063Y-9817912D02*
X13284587Y-9836960D01*
X13284587Y-9836960D02*
X13303634Y-9846484D01*
X13303634Y-9846484D02*
X13322682Y-9846484D01*
X13541730Y-9713150D02*
X13541730Y-9913150D01*
X13541730Y-9722674D02*
X13560777Y-9713150D01*
X13560777Y-9713150D02*
X13598873Y-9713150D01*
X13598873Y-9713150D02*
X13617920Y-9722674D01*
X13617920Y-9722674D02*
X13627444Y-9732198D01*
X13627444Y-9732198D02*
X13636968Y-9751246D01*
X13636968Y-9751246D02*
X13636968Y-9808389D01*
X13636968Y-9808389D02*
X13627444Y-9827436D01*
X13627444Y-9827436D02*
X13617920Y-9836960D01*
X13617920Y-9836960D02*
X13598873Y-9846484D01*
X13598873Y-9846484D02*
X13560777Y-9846484D01*
X13560777Y-9846484D02*
X13541730Y-9836960D01*
X13751253Y-9846484D02*
X13732206Y-9836960D01*
X13732206Y-9836960D02*
X13722682Y-9817912D01*
X13722682Y-9817912D02*
X13722682Y-9646484D01*
X13913158Y-9846484D02*
X13913158Y-9741722D01*
X13913158Y-9741722D02*
X13903634Y-9722674D01*
X13903634Y-9722674D02*
X13884587Y-9713150D01*
X13884587Y-9713150D02*
X13846492Y-9713150D01*
X13846492Y-9713150D02*
X13827444Y-9722674D01*
X13913158Y-9836960D02*
X13894111Y-9846484D01*
X13894111Y-9846484D02*
X13846492Y-9846484D01*
X13846492Y-9846484D02*
X13827444Y-9836960D01*
X13827444Y-9836960D02*
X13817920Y-9817912D01*
X13817920Y-9817912D02*
X13817920Y-9798865D01*
X13817920Y-9798865D02*
X13827444Y-9779817D01*
X13827444Y-9779817D02*
X13846492Y-9770293D01*
X13846492Y-9770293D02*
X13894111Y-9770293D01*
X13894111Y-9770293D02*
X13913158Y-9760770D01*
X13979825Y-9713150D02*
X14056015Y-9713150D01*
X14008396Y-9646484D02*
X14008396Y-9817912D01*
X14008396Y-9817912D02*
X14017920Y-9836960D01*
X14017920Y-9836960D02*
X14036968Y-9846484D01*
X14036968Y-9846484D02*
X14056015Y-9846484D01*
X14198873Y-9836960D02*
X14179825Y-9846484D01*
X14179825Y-9846484D02*
X14141730Y-9846484D01*
X14141730Y-9846484D02*
X14122682Y-9836960D01*
X14122682Y-9836960D02*
X14113158Y-9817912D01*
X14113158Y-9817912D02*
X14113158Y-9741722D01*
X14113158Y-9741722D02*
X14122682Y-9722674D01*
X14122682Y-9722674D02*
X14141730Y-9713150D01*
X14141730Y-9713150D02*
X14179825Y-9713150D01*
X14179825Y-9713150D02*
X14198873Y-9722674D01*
X14198873Y-9722674D02*
X14208396Y-9741722D01*
X14208396Y-9741722D02*
X14208396Y-9760770D01*
X14208396Y-9760770D02*
X14113158Y-9779817D01*
X14379825Y-9846484D02*
X14379825Y-9646484D01*
X14379825Y-9836960D02*
X14360777Y-9846484D01*
X14360777Y-9846484D02*
X14322682Y-9846484D01*
X14322682Y-9846484D02*
X14303634Y-9836960D01*
X14303634Y-9836960D02*
X14294111Y-9827436D01*
X14294111Y-9827436D02*
X14284587Y-9808389D01*
X14284587Y-9808389D02*
X14284587Y-9751246D01*
X14284587Y-9751246D02*
X14294111Y-9732198D01*
X14294111Y-9732198D02*
X14303634Y-9722674D01*
X14303634Y-9722674D02*
X14322682Y-9713150D01*
X14322682Y-9713150D02*
X14360777Y-9713150D01*
X14360777Y-9713150D02*
X14379825Y-9722674D01*
X14456015Y-9922674D02*
X14465539Y-9913150D01*
X14465539Y-9913150D02*
X14484587Y-9884579D01*
X14484587Y-9884579D02*
X14494111Y-9865531D01*
X14494111Y-9865531D02*
X14503634Y-9836960D01*
X14503634Y-9836960D02*
X14513158Y-9789341D01*
X14513158Y-9789341D02*
X14513158Y-9751246D01*
X14513158Y-9751246D02*
X14503634Y-9703627D01*
X14503634Y-9703627D02*
X14494111Y-9675055D01*
X14494111Y-9675055D02*
X14484587Y-9656008D01*
X14484587Y-9656008D02*
X14465539Y-9627436D01*
X14465539Y-9627436D02*
X14456015Y-9617912D01*
M02*
