%TF.GenerationSoftware,KiCad,Pcbnew,8.0.7*%
%TF.CreationDate,2025-01-14T08:36:20+01:00*%
%TF.ProjectId,Trackball,54726163-6b62-4616-9c6c-2e6b69636164,rev?*%
%TF.SameCoordinates,Original*%
%TF.FileFunction,Legend,Bot*%
%TF.FilePolarity,Positive*%
%FSLAX46Y46*%
G04 Gerber Fmt 4.6, Leading zero omitted, Abs format (unit mm)*
G04 Created by KiCad (PCBNEW 8.0.7) date 2025-01-14 08:36:20*
%MOMM*%
%LPD*%
G01*
G04 APERTURE LIST*
G04 Aperture macros list*
%AMRoundRect*
0 Rectangle with rounded corners*
0 $1 Rounding radius*
0 $2 $3 $4 $5 $6 $7 $8 $9 X,Y pos of 4 corners*
0 Add a 4 corners polygon primitive as box body*
4,1,4,$2,$3,$4,$5,$6,$7,$8,$9,$2,$3,0*
0 Add four circle primitives for the rounded corners*
1,1,$1+$1,$2,$3*
1,1,$1+$1,$4,$5*
1,1,$1+$1,$6,$7*
1,1,$1+$1,$8,$9*
0 Add four rect primitives between the rounded corners*
20,1,$1+$1,$2,$3,$4,$5,0*
20,1,$1+$1,$4,$5,$6,$7,0*
20,1,$1+$1,$6,$7,$8,$9,0*
20,1,$1+$1,$8,$9,$2,$3,0*%
G04 Aperture macros list end*
%ADD10C,0.125000*%
%ADD11C,0.250000*%
%ADD12C,0.150000*%
%ADD13C,0.120000*%
%ADD14C,1.700000*%
%ADD15O,1.700000X1.700000*%
%ADD16C,3.200000*%
%ADD17R,1.200000X1.200000*%
%ADD18C,1.200000*%
%ADD19RoundRect,0.250000X0.600000X0.600000X-0.600000X0.600000X-0.600000X-0.600000X0.600000X-0.600000X0*%
%ADD20R,1.800000X1.800000*%
%ADD21C,1.800000*%
%ADD22C,1.900000*%
%ADD23C,1.600000*%
%ADD24C,3.050000*%
%ADD25C,5.050000*%
%ADD26RoundRect,0.250000X-1.000000X1.025000X-1.000000X-1.025000X1.000000X-1.025000X1.000000X1.025000X0*%
%ADD27C,1.500000*%
%ADD28R,0.950000X0.950000*%
%ADD29C,0.950000*%
%ADD30O,2.000000X1.600000*%
%ADD31C,1.651000*%
%ADD32R,1.000000X2.800000*%
G04 APERTURE END LIST*
D10*
X119731283Y-74831833D02*
X120112236Y-74831833D01*
X119921759Y-75022309D02*
X119921759Y-74641357D01*
X120302712Y-74522309D02*
X120612236Y-74522309D01*
X120612236Y-74522309D02*
X120445569Y-74712785D01*
X120445569Y-74712785D02*
X120516998Y-74712785D01*
X120516998Y-74712785D02*
X120564617Y-74736595D01*
X120564617Y-74736595D02*
X120588426Y-74760404D01*
X120588426Y-74760404D02*
X120612236Y-74808023D01*
X120612236Y-74808023D02*
X120612236Y-74927071D01*
X120612236Y-74927071D02*
X120588426Y-74974690D01*
X120588426Y-74974690D02*
X120564617Y-74998500D01*
X120564617Y-74998500D02*
X120516998Y-75022309D01*
X120516998Y-75022309D02*
X120374141Y-75022309D01*
X120374141Y-75022309D02*
X120326522Y-74998500D01*
X120326522Y-74998500D02*
X120302712Y-74974690D01*
X120826521Y-74974690D02*
X120850331Y-74998500D01*
X120850331Y-74998500D02*
X120826521Y-75022309D01*
X120826521Y-75022309D02*
X120802712Y-74998500D01*
X120802712Y-74998500D02*
X120826521Y-74974690D01*
X120826521Y-74974690D02*
X120826521Y-75022309D01*
X121016997Y-74522309D02*
X121326521Y-74522309D01*
X121326521Y-74522309D02*
X121159854Y-74712785D01*
X121159854Y-74712785D02*
X121231283Y-74712785D01*
X121231283Y-74712785D02*
X121278902Y-74736595D01*
X121278902Y-74736595D02*
X121302711Y-74760404D01*
X121302711Y-74760404D02*
X121326521Y-74808023D01*
X121326521Y-74808023D02*
X121326521Y-74927071D01*
X121326521Y-74927071D02*
X121302711Y-74974690D01*
X121302711Y-74974690D02*
X121278902Y-74998500D01*
X121278902Y-74998500D02*
X121231283Y-75022309D01*
X121231283Y-75022309D02*
X121088426Y-75022309D01*
X121088426Y-75022309D02*
X121040807Y-74998500D01*
X121040807Y-74998500D02*
X121016997Y-74974690D01*
X121469378Y-74522309D02*
X121636044Y-75022309D01*
X121636044Y-75022309D02*
X121802711Y-74522309D01*
X106686119Y-46486811D02*
X106662309Y-46534430D01*
X106662309Y-46534430D02*
X106662309Y-46605859D01*
X106662309Y-46605859D02*
X106686119Y-46677287D01*
X106686119Y-46677287D02*
X106733738Y-46724906D01*
X106733738Y-46724906D02*
X106781357Y-46748716D01*
X106781357Y-46748716D02*
X106876595Y-46772525D01*
X106876595Y-46772525D02*
X106948023Y-46772525D01*
X106948023Y-46772525D02*
X107043261Y-46748716D01*
X107043261Y-46748716D02*
X107090880Y-46724906D01*
X107090880Y-46724906D02*
X107138500Y-46677287D01*
X107138500Y-46677287D02*
X107162309Y-46605859D01*
X107162309Y-46605859D02*
X107162309Y-46558240D01*
X107162309Y-46558240D02*
X107138500Y-46486811D01*
X107138500Y-46486811D02*
X107114690Y-46463002D01*
X107114690Y-46463002D02*
X106948023Y-46463002D01*
X106948023Y-46463002D02*
X106948023Y-46558240D01*
X107162309Y-46248716D02*
X106662309Y-46248716D01*
X106662309Y-46248716D02*
X106662309Y-46058240D01*
X106662309Y-46058240D02*
X106686119Y-46010621D01*
X106686119Y-46010621D02*
X106709928Y-45986811D01*
X106709928Y-45986811D02*
X106757547Y-45963002D01*
X106757547Y-45963002D02*
X106828976Y-45963002D01*
X106828976Y-45963002D02*
X106876595Y-45986811D01*
X106876595Y-45986811D02*
X106900404Y-46010621D01*
X106900404Y-46010621D02*
X106924214Y-46058240D01*
X106924214Y-46058240D02*
X106924214Y-46248716D01*
X107162309Y-45748716D02*
X106662309Y-45748716D01*
X106662309Y-45415383D02*
X106662309Y-45320145D01*
X106662309Y-45320145D02*
X106686119Y-45272526D01*
X106686119Y-45272526D02*
X106733738Y-45224907D01*
X106733738Y-45224907D02*
X106828976Y-45201097D01*
X106828976Y-45201097D02*
X106995642Y-45201097D01*
X106995642Y-45201097D02*
X107090880Y-45224907D01*
X107090880Y-45224907D02*
X107138500Y-45272526D01*
X107138500Y-45272526D02*
X107162309Y-45320145D01*
X107162309Y-45320145D02*
X107162309Y-45415383D01*
X107162309Y-45415383D02*
X107138500Y-45463002D01*
X107138500Y-45463002D02*
X107090880Y-45510621D01*
X107090880Y-45510621D02*
X106995642Y-45534430D01*
X106995642Y-45534430D02*
X106828976Y-45534430D01*
X106828976Y-45534430D02*
X106733738Y-45510621D01*
X106733738Y-45510621D02*
X106686119Y-45463002D01*
X106686119Y-45463002D02*
X106662309Y-45415383D01*
X106828976Y-44772525D02*
X107162309Y-44772525D01*
X106638500Y-44891573D02*
X106995642Y-45010620D01*
X106995642Y-45010620D02*
X106995642Y-44701097D01*
X106709928Y-44534430D02*
X106686119Y-44510621D01*
X106686119Y-44510621D02*
X106662309Y-44463002D01*
X106662309Y-44463002D02*
X106662309Y-44343954D01*
X106662309Y-44343954D02*
X106686119Y-44296335D01*
X106686119Y-44296335D02*
X106709928Y-44272526D01*
X106709928Y-44272526D02*
X106757547Y-44248716D01*
X106757547Y-44248716D02*
X106805166Y-44248716D01*
X106805166Y-44248716D02*
X106876595Y-44272526D01*
X106876595Y-44272526D02*
X107162309Y-44558240D01*
X107162309Y-44558240D02*
X107162309Y-44248716D01*
X106971833Y-44034431D02*
X106971833Y-43653479D01*
X107138500Y-43439192D02*
X107162309Y-43367764D01*
X107162309Y-43367764D02*
X107162309Y-43248716D01*
X107162309Y-43248716D02*
X107138500Y-43201097D01*
X107138500Y-43201097D02*
X107114690Y-43177288D01*
X107114690Y-43177288D02*
X107067071Y-43153478D01*
X107067071Y-43153478D02*
X107019452Y-43153478D01*
X107019452Y-43153478D02*
X106971833Y-43177288D01*
X106971833Y-43177288D02*
X106948023Y-43201097D01*
X106948023Y-43201097D02*
X106924214Y-43248716D01*
X106924214Y-43248716D02*
X106900404Y-43343954D01*
X106900404Y-43343954D02*
X106876595Y-43391573D01*
X106876595Y-43391573D02*
X106852785Y-43415383D01*
X106852785Y-43415383D02*
X106805166Y-43439192D01*
X106805166Y-43439192D02*
X106757547Y-43439192D01*
X106757547Y-43439192D02*
X106709928Y-43415383D01*
X106709928Y-43415383D02*
X106686119Y-43391573D01*
X106686119Y-43391573D02*
X106662309Y-43343954D01*
X106662309Y-43343954D02*
X106662309Y-43224907D01*
X106662309Y-43224907D02*
X106686119Y-43153478D01*
X107114690Y-42653479D02*
X107138500Y-42677288D01*
X107138500Y-42677288D02*
X107162309Y-42748717D01*
X107162309Y-42748717D02*
X107162309Y-42796336D01*
X107162309Y-42796336D02*
X107138500Y-42867764D01*
X107138500Y-42867764D02*
X107090880Y-42915383D01*
X107090880Y-42915383D02*
X107043261Y-42939193D01*
X107043261Y-42939193D02*
X106948023Y-42963002D01*
X106948023Y-42963002D02*
X106876595Y-42963002D01*
X106876595Y-42963002D02*
X106781357Y-42939193D01*
X106781357Y-42939193D02*
X106733738Y-42915383D01*
X106733738Y-42915383D02*
X106686119Y-42867764D01*
X106686119Y-42867764D02*
X106662309Y-42796336D01*
X106662309Y-42796336D02*
X106662309Y-42748717D01*
X106662309Y-42748717D02*
X106686119Y-42677288D01*
X106686119Y-42677288D02*
X106709928Y-42653479D01*
X107162309Y-42201098D02*
X107162309Y-42439193D01*
X107162309Y-42439193D02*
X106662309Y-42439193D01*
X107162309Y-42034431D02*
X106662309Y-42034431D01*
X107162309Y-41748717D02*
X106876595Y-41963002D01*
X106662309Y-41748717D02*
X106948023Y-42034431D01*
X106828976Y-41534431D02*
X106971833Y-41153479D01*
X106971833Y-41153479D02*
X107114690Y-41534431D01*
X116793188Y-67846119D02*
X116745569Y-67822309D01*
X116745569Y-67822309D02*
X116674140Y-67822309D01*
X116674140Y-67822309D02*
X116602712Y-67846119D01*
X116602712Y-67846119D02*
X116555093Y-67893738D01*
X116555093Y-67893738D02*
X116531283Y-67941357D01*
X116531283Y-67941357D02*
X116507474Y-68036595D01*
X116507474Y-68036595D02*
X116507474Y-68108023D01*
X116507474Y-68108023D02*
X116531283Y-68203261D01*
X116531283Y-68203261D02*
X116555093Y-68250880D01*
X116555093Y-68250880D02*
X116602712Y-68298500D01*
X116602712Y-68298500D02*
X116674140Y-68322309D01*
X116674140Y-68322309D02*
X116721759Y-68322309D01*
X116721759Y-68322309D02*
X116793188Y-68298500D01*
X116793188Y-68298500D02*
X116816997Y-68274690D01*
X116816997Y-68274690D02*
X116816997Y-68108023D01*
X116816997Y-68108023D02*
X116721759Y-68108023D01*
X117031283Y-68322309D02*
X117031283Y-67822309D01*
X117031283Y-67822309D02*
X117221759Y-67822309D01*
X117221759Y-67822309D02*
X117269378Y-67846119D01*
X117269378Y-67846119D02*
X117293188Y-67869928D01*
X117293188Y-67869928D02*
X117316997Y-67917547D01*
X117316997Y-67917547D02*
X117316997Y-67988976D01*
X117316997Y-67988976D02*
X117293188Y-68036595D01*
X117293188Y-68036595D02*
X117269378Y-68060404D01*
X117269378Y-68060404D02*
X117221759Y-68084214D01*
X117221759Y-68084214D02*
X117031283Y-68084214D01*
X117531283Y-68322309D02*
X117531283Y-67822309D01*
X117864616Y-67822309D02*
X117959854Y-67822309D01*
X117959854Y-67822309D02*
X118007473Y-67846119D01*
X118007473Y-67846119D02*
X118055092Y-67893738D01*
X118055092Y-67893738D02*
X118078902Y-67988976D01*
X118078902Y-67988976D02*
X118078902Y-68155642D01*
X118078902Y-68155642D02*
X118055092Y-68250880D01*
X118055092Y-68250880D02*
X118007473Y-68298500D01*
X118007473Y-68298500D02*
X117959854Y-68322309D01*
X117959854Y-68322309D02*
X117864616Y-68322309D01*
X117864616Y-68322309D02*
X117816997Y-68298500D01*
X117816997Y-68298500D02*
X117769378Y-68250880D01*
X117769378Y-68250880D02*
X117745569Y-68155642D01*
X117745569Y-68155642D02*
X117745569Y-67988976D01*
X117745569Y-67988976D02*
X117769378Y-67893738D01*
X117769378Y-67893738D02*
X117816997Y-67846119D01*
X117816997Y-67846119D02*
X117864616Y-67822309D01*
X118555093Y-68322309D02*
X118269379Y-68322309D01*
X118412236Y-68322309D02*
X118412236Y-67822309D01*
X118412236Y-67822309D02*
X118364617Y-67893738D01*
X118364617Y-67893738D02*
X118316998Y-67941357D01*
X118316998Y-67941357D02*
X118269379Y-67965166D01*
X118840807Y-68036595D02*
X118793188Y-68012785D01*
X118793188Y-68012785D02*
X118769378Y-67988976D01*
X118769378Y-67988976D02*
X118745569Y-67941357D01*
X118745569Y-67941357D02*
X118745569Y-67917547D01*
X118745569Y-67917547D02*
X118769378Y-67869928D01*
X118769378Y-67869928D02*
X118793188Y-67846119D01*
X118793188Y-67846119D02*
X118840807Y-67822309D01*
X118840807Y-67822309D02*
X118936045Y-67822309D01*
X118936045Y-67822309D02*
X118983664Y-67846119D01*
X118983664Y-67846119D02*
X119007473Y-67869928D01*
X119007473Y-67869928D02*
X119031283Y-67917547D01*
X119031283Y-67917547D02*
X119031283Y-67941357D01*
X119031283Y-67941357D02*
X119007473Y-67988976D01*
X119007473Y-67988976D02*
X118983664Y-68012785D01*
X118983664Y-68012785D02*
X118936045Y-68036595D01*
X118936045Y-68036595D02*
X118840807Y-68036595D01*
X118840807Y-68036595D02*
X118793188Y-68060404D01*
X118793188Y-68060404D02*
X118769378Y-68084214D01*
X118769378Y-68084214D02*
X118745569Y-68131833D01*
X118745569Y-68131833D02*
X118745569Y-68227071D01*
X118745569Y-68227071D02*
X118769378Y-68274690D01*
X118769378Y-68274690D02*
X118793188Y-68298500D01*
X118793188Y-68298500D02*
X118840807Y-68322309D01*
X118840807Y-68322309D02*
X118936045Y-68322309D01*
X118936045Y-68322309D02*
X118983664Y-68298500D01*
X118983664Y-68298500D02*
X119007473Y-68274690D01*
X119007473Y-68274690D02*
X119031283Y-68227071D01*
X119031283Y-68227071D02*
X119031283Y-68131833D01*
X119031283Y-68131833D02*
X119007473Y-68084214D01*
X119007473Y-68084214D02*
X118983664Y-68060404D01*
X118983664Y-68060404D02*
X118936045Y-68036595D01*
X119245568Y-67988976D02*
X119626521Y-68131833D01*
X119626521Y-68131833D02*
X119245568Y-68274690D01*
X111996119Y-46056811D02*
X111972309Y-46104430D01*
X111972309Y-46104430D02*
X111972309Y-46175859D01*
X111972309Y-46175859D02*
X111996119Y-46247287D01*
X111996119Y-46247287D02*
X112043738Y-46294906D01*
X112043738Y-46294906D02*
X112091357Y-46318716D01*
X112091357Y-46318716D02*
X112186595Y-46342525D01*
X112186595Y-46342525D02*
X112258023Y-46342525D01*
X112258023Y-46342525D02*
X112353261Y-46318716D01*
X112353261Y-46318716D02*
X112400880Y-46294906D01*
X112400880Y-46294906D02*
X112448500Y-46247287D01*
X112448500Y-46247287D02*
X112472309Y-46175859D01*
X112472309Y-46175859D02*
X112472309Y-46128240D01*
X112472309Y-46128240D02*
X112448500Y-46056811D01*
X112448500Y-46056811D02*
X112424690Y-46033002D01*
X112424690Y-46033002D02*
X112258023Y-46033002D01*
X112258023Y-46033002D02*
X112258023Y-46128240D01*
X112472309Y-45818716D02*
X111972309Y-45818716D01*
X111972309Y-45818716D02*
X111972309Y-45628240D01*
X111972309Y-45628240D02*
X111996119Y-45580621D01*
X111996119Y-45580621D02*
X112019928Y-45556811D01*
X112019928Y-45556811D02*
X112067547Y-45533002D01*
X112067547Y-45533002D02*
X112138976Y-45533002D01*
X112138976Y-45533002D02*
X112186595Y-45556811D01*
X112186595Y-45556811D02*
X112210404Y-45580621D01*
X112210404Y-45580621D02*
X112234214Y-45628240D01*
X112234214Y-45628240D02*
X112234214Y-45818716D01*
X112472309Y-45318716D02*
X111972309Y-45318716D01*
X111972309Y-44985383D02*
X111972309Y-44890145D01*
X111972309Y-44890145D02*
X111996119Y-44842526D01*
X111996119Y-44842526D02*
X112043738Y-44794907D01*
X112043738Y-44794907D02*
X112138976Y-44771097D01*
X112138976Y-44771097D02*
X112305642Y-44771097D01*
X112305642Y-44771097D02*
X112400880Y-44794907D01*
X112400880Y-44794907D02*
X112448500Y-44842526D01*
X112448500Y-44842526D02*
X112472309Y-44890145D01*
X112472309Y-44890145D02*
X112472309Y-44985383D01*
X112472309Y-44985383D02*
X112448500Y-45033002D01*
X112448500Y-45033002D02*
X112400880Y-45080621D01*
X112400880Y-45080621D02*
X112305642Y-45104430D01*
X112305642Y-45104430D02*
X112138976Y-45104430D01*
X112138976Y-45104430D02*
X112043738Y-45080621D01*
X112043738Y-45080621D02*
X111996119Y-45033002D01*
X111996119Y-45033002D02*
X111972309Y-44985383D01*
X111972309Y-44604430D02*
X111972309Y-44294906D01*
X111972309Y-44294906D02*
X112162785Y-44461573D01*
X112162785Y-44461573D02*
X112162785Y-44390144D01*
X112162785Y-44390144D02*
X112186595Y-44342525D01*
X112186595Y-44342525D02*
X112210404Y-44318716D01*
X112210404Y-44318716D02*
X112258023Y-44294906D01*
X112258023Y-44294906D02*
X112377071Y-44294906D01*
X112377071Y-44294906D02*
X112424690Y-44318716D01*
X112424690Y-44318716D02*
X112448500Y-44342525D01*
X112448500Y-44342525D02*
X112472309Y-44390144D01*
X112472309Y-44390144D02*
X112472309Y-44533001D01*
X112472309Y-44533001D02*
X112448500Y-44580620D01*
X112448500Y-44580620D02*
X112424690Y-44604430D01*
X112472309Y-44056811D02*
X112472309Y-43961573D01*
X112472309Y-43961573D02*
X112448500Y-43913954D01*
X112448500Y-43913954D02*
X112424690Y-43890145D01*
X112424690Y-43890145D02*
X112353261Y-43842526D01*
X112353261Y-43842526D02*
X112258023Y-43818716D01*
X112258023Y-43818716D02*
X112067547Y-43818716D01*
X112067547Y-43818716D02*
X112019928Y-43842526D01*
X112019928Y-43842526D02*
X111996119Y-43866335D01*
X111996119Y-43866335D02*
X111972309Y-43913954D01*
X111972309Y-43913954D02*
X111972309Y-44009192D01*
X111972309Y-44009192D02*
X111996119Y-44056811D01*
X111996119Y-44056811D02*
X112019928Y-44080621D01*
X112019928Y-44080621D02*
X112067547Y-44104430D01*
X112067547Y-44104430D02*
X112186595Y-44104430D01*
X112186595Y-44104430D02*
X112234214Y-44080621D01*
X112234214Y-44080621D02*
X112258023Y-44056811D01*
X112258023Y-44056811D02*
X112281833Y-44009192D01*
X112281833Y-44009192D02*
X112281833Y-43913954D01*
X112281833Y-43913954D02*
X112258023Y-43866335D01*
X112258023Y-43866335D02*
X112234214Y-43842526D01*
X112234214Y-43842526D02*
X112186595Y-43818716D01*
X112281833Y-43604431D02*
X112281833Y-43223479D01*
X112472309Y-42985383D02*
X111972309Y-42985383D01*
X111972309Y-42985383D02*
X112472309Y-42699669D01*
X112472309Y-42699669D02*
X111972309Y-42699669D01*
X112424690Y-42175859D02*
X112448500Y-42199668D01*
X112448500Y-42199668D02*
X112472309Y-42271097D01*
X112472309Y-42271097D02*
X112472309Y-42318716D01*
X112472309Y-42318716D02*
X112448500Y-42390144D01*
X112448500Y-42390144D02*
X112400880Y-42437763D01*
X112400880Y-42437763D02*
X112353261Y-42461573D01*
X112353261Y-42461573D02*
X112258023Y-42485382D01*
X112258023Y-42485382D02*
X112186595Y-42485382D01*
X112186595Y-42485382D02*
X112091357Y-42461573D01*
X112091357Y-42461573D02*
X112043738Y-42437763D01*
X112043738Y-42437763D02*
X111996119Y-42390144D01*
X111996119Y-42390144D02*
X111972309Y-42318716D01*
X111972309Y-42318716D02*
X111972309Y-42271097D01*
X111972309Y-42271097D02*
X111996119Y-42199668D01*
X111996119Y-42199668D02*
X112019928Y-42175859D01*
X112448500Y-41985382D02*
X112472309Y-41913954D01*
X112472309Y-41913954D02*
X112472309Y-41794906D01*
X112472309Y-41794906D02*
X112448500Y-41747287D01*
X112448500Y-41747287D02*
X112424690Y-41723478D01*
X112424690Y-41723478D02*
X112377071Y-41699668D01*
X112377071Y-41699668D02*
X112329452Y-41699668D01*
X112329452Y-41699668D02*
X112281833Y-41723478D01*
X112281833Y-41723478D02*
X112258023Y-41747287D01*
X112258023Y-41747287D02*
X112234214Y-41794906D01*
X112234214Y-41794906D02*
X112210404Y-41890144D01*
X112210404Y-41890144D02*
X112186595Y-41937763D01*
X112186595Y-41937763D02*
X112162785Y-41961573D01*
X112162785Y-41961573D02*
X112115166Y-41985382D01*
X112115166Y-41985382D02*
X112067547Y-41985382D01*
X112067547Y-41985382D02*
X112019928Y-41961573D01*
X112019928Y-41961573D02*
X111996119Y-41937763D01*
X111996119Y-41937763D02*
X111972309Y-41890144D01*
X111972309Y-41890144D02*
X111972309Y-41771097D01*
X111972309Y-41771097D02*
X111996119Y-41699668D01*
X112138976Y-41485383D02*
X112281833Y-41104431D01*
X112281833Y-41104431D02*
X112424690Y-41485383D01*
X125142236Y-67988976D02*
X124761283Y-68131833D01*
X124761283Y-68131833D02*
X125142236Y-68274690D01*
X125642236Y-67846119D02*
X125594617Y-67822309D01*
X125594617Y-67822309D02*
X125523188Y-67822309D01*
X125523188Y-67822309D02*
X125451760Y-67846119D01*
X125451760Y-67846119D02*
X125404141Y-67893738D01*
X125404141Y-67893738D02*
X125380331Y-67941357D01*
X125380331Y-67941357D02*
X125356522Y-68036595D01*
X125356522Y-68036595D02*
X125356522Y-68108023D01*
X125356522Y-68108023D02*
X125380331Y-68203261D01*
X125380331Y-68203261D02*
X125404141Y-68250880D01*
X125404141Y-68250880D02*
X125451760Y-68298500D01*
X125451760Y-68298500D02*
X125523188Y-68322309D01*
X125523188Y-68322309D02*
X125570807Y-68322309D01*
X125570807Y-68322309D02*
X125642236Y-68298500D01*
X125642236Y-68298500D02*
X125666045Y-68274690D01*
X125666045Y-68274690D02*
X125666045Y-68108023D01*
X125666045Y-68108023D02*
X125570807Y-68108023D01*
X125880331Y-68322309D02*
X125880331Y-67822309D01*
X125880331Y-67822309D02*
X126070807Y-67822309D01*
X126070807Y-67822309D02*
X126118426Y-67846119D01*
X126118426Y-67846119D02*
X126142236Y-67869928D01*
X126142236Y-67869928D02*
X126166045Y-67917547D01*
X126166045Y-67917547D02*
X126166045Y-67988976D01*
X126166045Y-67988976D02*
X126142236Y-68036595D01*
X126142236Y-68036595D02*
X126118426Y-68060404D01*
X126118426Y-68060404D02*
X126070807Y-68084214D01*
X126070807Y-68084214D02*
X125880331Y-68084214D01*
X126380331Y-68322309D02*
X126380331Y-67822309D01*
X126713664Y-67822309D02*
X126808902Y-67822309D01*
X126808902Y-67822309D02*
X126856521Y-67846119D01*
X126856521Y-67846119D02*
X126904140Y-67893738D01*
X126904140Y-67893738D02*
X126927950Y-67988976D01*
X126927950Y-67988976D02*
X126927950Y-68155642D01*
X126927950Y-68155642D02*
X126904140Y-68250880D01*
X126904140Y-68250880D02*
X126856521Y-68298500D01*
X126856521Y-68298500D02*
X126808902Y-68322309D01*
X126808902Y-68322309D02*
X126713664Y-68322309D01*
X126713664Y-68322309D02*
X126666045Y-68298500D01*
X126666045Y-68298500D02*
X126618426Y-68250880D01*
X126618426Y-68250880D02*
X126594617Y-68155642D01*
X126594617Y-68155642D02*
X126594617Y-67988976D01*
X126594617Y-67988976D02*
X126618426Y-67893738D01*
X126618426Y-67893738D02*
X126666045Y-67846119D01*
X126666045Y-67846119D02*
X126713664Y-67822309D01*
X127404141Y-68322309D02*
X127118427Y-68322309D01*
X127261284Y-68322309D02*
X127261284Y-67822309D01*
X127261284Y-67822309D02*
X127213665Y-67893738D01*
X127213665Y-67893738D02*
X127166046Y-67941357D01*
X127166046Y-67941357D02*
X127118427Y-67965166D01*
X127713664Y-67822309D02*
X127761283Y-67822309D01*
X127761283Y-67822309D02*
X127808902Y-67846119D01*
X127808902Y-67846119D02*
X127832712Y-67869928D01*
X127832712Y-67869928D02*
X127856521Y-67917547D01*
X127856521Y-67917547D02*
X127880331Y-68012785D01*
X127880331Y-68012785D02*
X127880331Y-68131833D01*
X127880331Y-68131833D02*
X127856521Y-68227071D01*
X127856521Y-68227071D02*
X127832712Y-68274690D01*
X127832712Y-68274690D02*
X127808902Y-68298500D01*
X127808902Y-68298500D02*
X127761283Y-68322309D01*
X127761283Y-68322309D02*
X127713664Y-68322309D01*
X127713664Y-68322309D02*
X127666045Y-68298500D01*
X127666045Y-68298500D02*
X127642236Y-68274690D01*
X127642236Y-68274690D02*
X127618426Y-68227071D01*
X127618426Y-68227071D02*
X127594617Y-68131833D01*
X127594617Y-68131833D02*
X127594617Y-68012785D01*
X127594617Y-68012785D02*
X127618426Y-67917547D01*
X127618426Y-67917547D02*
X127642236Y-67869928D01*
X127642236Y-67869928D02*
X127666045Y-67846119D01*
X127666045Y-67846119D02*
X127713664Y-67822309D01*
X121691283Y-44402309D02*
X121691283Y-43902309D01*
X121691283Y-43902309D02*
X121810331Y-43902309D01*
X121810331Y-43902309D02*
X121881759Y-43926119D01*
X121881759Y-43926119D02*
X121929378Y-43973738D01*
X121929378Y-43973738D02*
X121953188Y-44021357D01*
X121953188Y-44021357D02*
X121976997Y-44116595D01*
X121976997Y-44116595D02*
X121976997Y-44188023D01*
X121976997Y-44188023D02*
X121953188Y-44283261D01*
X121953188Y-44283261D02*
X121929378Y-44330880D01*
X121929378Y-44330880D02*
X121881759Y-44378500D01*
X121881759Y-44378500D02*
X121810331Y-44402309D01*
X121810331Y-44402309D02*
X121691283Y-44402309D01*
X122191283Y-44402309D02*
X122191283Y-43902309D01*
X122715092Y-44402309D02*
X122548426Y-44164214D01*
X122429378Y-44402309D02*
X122429378Y-43902309D01*
X122429378Y-43902309D02*
X122619854Y-43902309D01*
X122619854Y-43902309D02*
X122667473Y-43926119D01*
X122667473Y-43926119D02*
X122691283Y-43949928D01*
X122691283Y-43949928D02*
X122715092Y-43997547D01*
X122715092Y-43997547D02*
X122715092Y-44068976D01*
X122715092Y-44068976D02*
X122691283Y-44116595D01*
X122691283Y-44116595D02*
X122667473Y-44140404D01*
X122667473Y-44140404D02*
X122619854Y-44164214D01*
X122619854Y-44164214D02*
X122429378Y-44164214D01*
X122929378Y-44211833D02*
X123310331Y-44211833D01*
X123810331Y-43926119D02*
X123762712Y-43902309D01*
X123762712Y-43902309D02*
X123691283Y-43902309D01*
X123691283Y-43902309D02*
X123619855Y-43926119D01*
X123619855Y-43926119D02*
X123572236Y-43973738D01*
X123572236Y-43973738D02*
X123548426Y-44021357D01*
X123548426Y-44021357D02*
X123524617Y-44116595D01*
X123524617Y-44116595D02*
X123524617Y-44188023D01*
X123524617Y-44188023D02*
X123548426Y-44283261D01*
X123548426Y-44283261D02*
X123572236Y-44330880D01*
X123572236Y-44330880D02*
X123619855Y-44378500D01*
X123619855Y-44378500D02*
X123691283Y-44402309D01*
X123691283Y-44402309D02*
X123738902Y-44402309D01*
X123738902Y-44402309D02*
X123810331Y-44378500D01*
X123810331Y-44378500D02*
X123834140Y-44354690D01*
X123834140Y-44354690D02*
X123834140Y-44188023D01*
X123834140Y-44188023D02*
X123738902Y-44188023D01*
X124048426Y-44402309D02*
X124048426Y-43902309D01*
X124048426Y-43902309D02*
X124238902Y-43902309D01*
X124238902Y-43902309D02*
X124286521Y-43926119D01*
X124286521Y-43926119D02*
X124310331Y-43949928D01*
X124310331Y-43949928D02*
X124334140Y-43997547D01*
X124334140Y-43997547D02*
X124334140Y-44068976D01*
X124334140Y-44068976D02*
X124310331Y-44116595D01*
X124310331Y-44116595D02*
X124286521Y-44140404D01*
X124286521Y-44140404D02*
X124238902Y-44164214D01*
X124238902Y-44164214D02*
X124048426Y-44164214D01*
X124548426Y-44402309D02*
X124548426Y-43902309D01*
X124881759Y-43902309D02*
X124976997Y-43902309D01*
X124976997Y-43902309D02*
X125024616Y-43926119D01*
X125024616Y-43926119D02*
X125072235Y-43973738D01*
X125072235Y-43973738D02*
X125096045Y-44068976D01*
X125096045Y-44068976D02*
X125096045Y-44235642D01*
X125096045Y-44235642D02*
X125072235Y-44330880D01*
X125072235Y-44330880D02*
X125024616Y-44378500D01*
X125024616Y-44378500D02*
X124976997Y-44402309D01*
X124976997Y-44402309D02*
X124881759Y-44402309D01*
X124881759Y-44402309D02*
X124834140Y-44378500D01*
X124834140Y-44378500D02*
X124786521Y-44330880D01*
X124786521Y-44330880D02*
X124762712Y-44235642D01*
X124762712Y-44235642D02*
X124762712Y-44068976D01*
X124762712Y-44068976D02*
X124786521Y-43973738D01*
X124786521Y-43973738D02*
X124834140Y-43926119D01*
X124834140Y-43926119D02*
X124881759Y-43902309D01*
X125286522Y-43949928D02*
X125310331Y-43926119D01*
X125310331Y-43926119D02*
X125357950Y-43902309D01*
X125357950Y-43902309D02*
X125476998Y-43902309D01*
X125476998Y-43902309D02*
X125524617Y-43926119D01*
X125524617Y-43926119D02*
X125548426Y-43949928D01*
X125548426Y-43949928D02*
X125572236Y-43997547D01*
X125572236Y-43997547D02*
X125572236Y-44045166D01*
X125572236Y-44045166D02*
X125548426Y-44116595D01*
X125548426Y-44116595D02*
X125262712Y-44402309D01*
X125262712Y-44402309D02*
X125572236Y-44402309D01*
X126048426Y-44402309D02*
X125762712Y-44402309D01*
X125905569Y-44402309D02*
X125905569Y-43902309D01*
X125905569Y-43902309D02*
X125857950Y-43973738D01*
X125857950Y-43973738D02*
X125810331Y-44021357D01*
X125810331Y-44021357D02*
X125762712Y-44045166D01*
X126262711Y-44068976D02*
X126643664Y-44211833D01*
X126643664Y-44211833D02*
X126262711Y-44354690D01*
X125142236Y-65338976D02*
X124761283Y-65481833D01*
X124761283Y-65481833D02*
X125142236Y-65624690D01*
X125642236Y-65196119D02*
X125594617Y-65172309D01*
X125594617Y-65172309D02*
X125523188Y-65172309D01*
X125523188Y-65172309D02*
X125451760Y-65196119D01*
X125451760Y-65196119D02*
X125404141Y-65243738D01*
X125404141Y-65243738D02*
X125380331Y-65291357D01*
X125380331Y-65291357D02*
X125356522Y-65386595D01*
X125356522Y-65386595D02*
X125356522Y-65458023D01*
X125356522Y-65458023D02*
X125380331Y-65553261D01*
X125380331Y-65553261D02*
X125404141Y-65600880D01*
X125404141Y-65600880D02*
X125451760Y-65648500D01*
X125451760Y-65648500D02*
X125523188Y-65672309D01*
X125523188Y-65672309D02*
X125570807Y-65672309D01*
X125570807Y-65672309D02*
X125642236Y-65648500D01*
X125642236Y-65648500D02*
X125666045Y-65624690D01*
X125666045Y-65624690D02*
X125666045Y-65458023D01*
X125666045Y-65458023D02*
X125570807Y-65458023D01*
X125880331Y-65672309D02*
X125880331Y-65172309D01*
X125880331Y-65172309D02*
X126070807Y-65172309D01*
X126070807Y-65172309D02*
X126118426Y-65196119D01*
X126118426Y-65196119D02*
X126142236Y-65219928D01*
X126142236Y-65219928D02*
X126166045Y-65267547D01*
X126166045Y-65267547D02*
X126166045Y-65338976D01*
X126166045Y-65338976D02*
X126142236Y-65386595D01*
X126142236Y-65386595D02*
X126118426Y-65410404D01*
X126118426Y-65410404D02*
X126070807Y-65434214D01*
X126070807Y-65434214D02*
X125880331Y-65434214D01*
X126380331Y-65672309D02*
X126380331Y-65172309D01*
X126713664Y-65172309D02*
X126808902Y-65172309D01*
X126808902Y-65172309D02*
X126856521Y-65196119D01*
X126856521Y-65196119D02*
X126904140Y-65243738D01*
X126904140Y-65243738D02*
X126927950Y-65338976D01*
X126927950Y-65338976D02*
X126927950Y-65505642D01*
X126927950Y-65505642D02*
X126904140Y-65600880D01*
X126904140Y-65600880D02*
X126856521Y-65648500D01*
X126856521Y-65648500D02*
X126808902Y-65672309D01*
X126808902Y-65672309D02*
X126713664Y-65672309D01*
X126713664Y-65672309D02*
X126666045Y-65648500D01*
X126666045Y-65648500D02*
X126618426Y-65600880D01*
X126618426Y-65600880D02*
X126594617Y-65505642D01*
X126594617Y-65505642D02*
X126594617Y-65338976D01*
X126594617Y-65338976D02*
X126618426Y-65243738D01*
X126618426Y-65243738D02*
X126666045Y-65196119D01*
X126666045Y-65196119D02*
X126713664Y-65172309D01*
X127356522Y-65338976D02*
X127356522Y-65672309D01*
X127237474Y-65148500D02*
X127118427Y-65505642D01*
X127118427Y-65505642D02*
X127427950Y-65505642D01*
X127856521Y-65172309D02*
X127618426Y-65172309D01*
X127618426Y-65172309D02*
X127594617Y-65410404D01*
X127594617Y-65410404D02*
X127618426Y-65386595D01*
X127618426Y-65386595D02*
X127666045Y-65362785D01*
X127666045Y-65362785D02*
X127785093Y-65362785D01*
X127785093Y-65362785D02*
X127832712Y-65386595D01*
X127832712Y-65386595D02*
X127856521Y-65410404D01*
X127856521Y-65410404D02*
X127880331Y-65458023D01*
X127880331Y-65458023D02*
X127880331Y-65577071D01*
X127880331Y-65577071D02*
X127856521Y-65624690D01*
X127856521Y-65624690D02*
X127832712Y-65648500D01*
X127832712Y-65648500D02*
X127785093Y-65672309D01*
X127785093Y-65672309D02*
X127666045Y-65672309D01*
X127666045Y-65672309D02*
X127618426Y-65648500D01*
X127618426Y-65648500D02*
X127594617Y-65624690D01*
X135357764Y-74318976D02*
X135738716Y-74461833D01*
X135738716Y-74461833D02*
X135357764Y-74604690D01*
X134857763Y-74176119D02*
X134905382Y-74152309D01*
X134905382Y-74152309D02*
X134976811Y-74152309D01*
X134976811Y-74152309D02*
X135048239Y-74176119D01*
X135048239Y-74176119D02*
X135095858Y-74223738D01*
X135095858Y-74223738D02*
X135119668Y-74271357D01*
X135119668Y-74271357D02*
X135143477Y-74366595D01*
X135143477Y-74366595D02*
X135143477Y-74438023D01*
X135143477Y-74438023D02*
X135119668Y-74533261D01*
X135119668Y-74533261D02*
X135095858Y-74580880D01*
X135095858Y-74580880D02*
X135048239Y-74628500D01*
X135048239Y-74628500D02*
X134976811Y-74652309D01*
X134976811Y-74652309D02*
X134929192Y-74652309D01*
X134929192Y-74652309D02*
X134857763Y-74628500D01*
X134857763Y-74628500D02*
X134833954Y-74604690D01*
X134833954Y-74604690D02*
X134833954Y-74438023D01*
X134833954Y-74438023D02*
X134929192Y-74438023D01*
X134619668Y-74652309D02*
X134619668Y-74152309D01*
X134619668Y-74152309D02*
X134429192Y-74152309D01*
X134429192Y-74152309D02*
X134381573Y-74176119D01*
X134381573Y-74176119D02*
X134357763Y-74199928D01*
X134357763Y-74199928D02*
X134333954Y-74247547D01*
X134333954Y-74247547D02*
X134333954Y-74318976D01*
X134333954Y-74318976D02*
X134357763Y-74366595D01*
X134357763Y-74366595D02*
X134381573Y-74390404D01*
X134381573Y-74390404D02*
X134429192Y-74414214D01*
X134429192Y-74414214D02*
X134619668Y-74414214D01*
X134119668Y-74652309D02*
X134119668Y-74152309D01*
X133786335Y-74152309D02*
X133691097Y-74152309D01*
X133691097Y-74152309D02*
X133643478Y-74176119D01*
X133643478Y-74176119D02*
X133595859Y-74223738D01*
X133595859Y-74223738D02*
X133572049Y-74318976D01*
X133572049Y-74318976D02*
X133572049Y-74485642D01*
X133572049Y-74485642D02*
X133595859Y-74580880D01*
X133595859Y-74580880D02*
X133643478Y-74628500D01*
X133643478Y-74628500D02*
X133691097Y-74652309D01*
X133691097Y-74652309D02*
X133786335Y-74652309D01*
X133786335Y-74652309D02*
X133833954Y-74628500D01*
X133833954Y-74628500D02*
X133881573Y-74580880D01*
X133881573Y-74580880D02*
X133905382Y-74485642D01*
X133905382Y-74485642D02*
X133905382Y-74318976D01*
X133905382Y-74318976D02*
X133881573Y-74223738D01*
X133881573Y-74223738D02*
X133833954Y-74176119D01*
X133833954Y-74176119D02*
X133786335Y-74152309D01*
X133143477Y-74318976D02*
X133143477Y-74652309D01*
X133262525Y-74128500D02*
X133381572Y-74485642D01*
X133381572Y-74485642D02*
X133072049Y-74485642D01*
X132667287Y-74152309D02*
X132762525Y-74152309D01*
X132762525Y-74152309D02*
X132810144Y-74176119D01*
X132810144Y-74176119D02*
X132833954Y-74199928D01*
X132833954Y-74199928D02*
X132881573Y-74271357D01*
X132881573Y-74271357D02*
X132905382Y-74366595D01*
X132905382Y-74366595D02*
X132905382Y-74557071D01*
X132905382Y-74557071D02*
X132881573Y-74604690D01*
X132881573Y-74604690D02*
X132857763Y-74628500D01*
X132857763Y-74628500D02*
X132810144Y-74652309D01*
X132810144Y-74652309D02*
X132714906Y-74652309D01*
X132714906Y-74652309D02*
X132667287Y-74628500D01*
X132667287Y-74628500D02*
X132643478Y-74604690D01*
X132643478Y-74604690D02*
X132619668Y-74557071D01*
X132619668Y-74557071D02*
X132619668Y-74438023D01*
X132619668Y-74438023D02*
X132643478Y-74390404D01*
X132643478Y-74390404D02*
X132667287Y-74366595D01*
X132667287Y-74366595D02*
X132714906Y-74342785D01*
X132714906Y-74342785D02*
X132810144Y-74342785D01*
X132810144Y-74342785D02*
X132857763Y-74366595D01*
X132857763Y-74366595D02*
X132881573Y-74390404D01*
X132881573Y-74390404D02*
X132905382Y-74438023D01*
X106293880Y-26813188D02*
X106317690Y-26765569D01*
X106317690Y-26765569D02*
X106317690Y-26694140D01*
X106317690Y-26694140D02*
X106293880Y-26622712D01*
X106293880Y-26622712D02*
X106246261Y-26575093D01*
X106246261Y-26575093D02*
X106198642Y-26551283D01*
X106198642Y-26551283D02*
X106103404Y-26527474D01*
X106103404Y-26527474D02*
X106031976Y-26527474D01*
X106031976Y-26527474D02*
X105936738Y-26551283D01*
X105936738Y-26551283D02*
X105889119Y-26575093D01*
X105889119Y-26575093D02*
X105841500Y-26622712D01*
X105841500Y-26622712D02*
X105817690Y-26694140D01*
X105817690Y-26694140D02*
X105817690Y-26741759D01*
X105817690Y-26741759D02*
X105841500Y-26813188D01*
X105841500Y-26813188D02*
X105865309Y-26836997D01*
X105865309Y-26836997D02*
X106031976Y-26836997D01*
X106031976Y-26836997D02*
X106031976Y-26741759D01*
X105817690Y-27051283D02*
X106317690Y-27051283D01*
X106317690Y-27051283D02*
X105817690Y-27336997D01*
X105817690Y-27336997D02*
X106317690Y-27336997D01*
X105817690Y-27575093D02*
X106317690Y-27575093D01*
X106317690Y-27575093D02*
X106317690Y-27694141D01*
X106317690Y-27694141D02*
X106293880Y-27765569D01*
X106293880Y-27765569D02*
X106246261Y-27813188D01*
X106246261Y-27813188D02*
X106198642Y-27836998D01*
X106198642Y-27836998D02*
X106103404Y-27860807D01*
X106103404Y-27860807D02*
X106031976Y-27860807D01*
X106031976Y-27860807D02*
X105936738Y-27836998D01*
X105936738Y-27836998D02*
X105889119Y-27813188D01*
X105889119Y-27813188D02*
X105841500Y-27765569D01*
X105841500Y-27765569D02*
X105817690Y-27694141D01*
X105817690Y-27694141D02*
X105817690Y-27575093D01*
X106151023Y-28075093D02*
X106008166Y-28456046D01*
X106008166Y-28456046D02*
X105865309Y-28075093D01*
X136658976Y-40662236D02*
X136801833Y-40281283D01*
X136801833Y-40281283D02*
X136944690Y-40662236D01*
X136516119Y-41162236D02*
X136492309Y-41114617D01*
X136492309Y-41114617D02*
X136492309Y-41043188D01*
X136492309Y-41043188D02*
X136516119Y-40971760D01*
X136516119Y-40971760D02*
X136563738Y-40924141D01*
X136563738Y-40924141D02*
X136611357Y-40900331D01*
X136611357Y-40900331D02*
X136706595Y-40876522D01*
X136706595Y-40876522D02*
X136778023Y-40876522D01*
X136778023Y-40876522D02*
X136873261Y-40900331D01*
X136873261Y-40900331D02*
X136920880Y-40924141D01*
X136920880Y-40924141D02*
X136968500Y-40971760D01*
X136968500Y-40971760D02*
X136992309Y-41043188D01*
X136992309Y-41043188D02*
X136992309Y-41090807D01*
X136992309Y-41090807D02*
X136968500Y-41162236D01*
X136968500Y-41162236D02*
X136944690Y-41186045D01*
X136944690Y-41186045D02*
X136778023Y-41186045D01*
X136778023Y-41186045D02*
X136778023Y-41090807D01*
X136992309Y-41400331D02*
X136492309Y-41400331D01*
X136492309Y-41400331D02*
X136492309Y-41590807D01*
X136492309Y-41590807D02*
X136516119Y-41638426D01*
X136516119Y-41638426D02*
X136539928Y-41662236D01*
X136539928Y-41662236D02*
X136587547Y-41686045D01*
X136587547Y-41686045D02*
X136658976Y-41686045D01*
X136658976Y-41686045D02*
X136706595Y-41662236D01*
X136706595Y-41662236D02*
X136730404Y-41638426D01*
X136730404Y-41638426D02*
X136754214Y-41590807D01*
X136754214Y-41590807D02*
X136754214Y-41400331D01*
X136992309Y-41900331D02*
X136492309Y-41900331D01*
X136492309Y-42233664D02*
X136492309Y-42328902D01*
X136492309Y-42328902D02*
X136516119Y-42376521D01*
X136516119Y-42376521D02*
X136563738Y-42424140D01*
X136563738Y-42424140D02*
X136658976Y-42447950D01*
X136658976Y-42447950D02*
X136825642Y-42447950D01*
X136825642Y-42447950D02*
X136920880Y-42424140D01*
X136920880Y-42424140D02*
X136968500Y-42376521D01*
X136968500Y-42376521D02*
X136992309Y-42328902D01*
X136992309Y-42328902D02*
X136992309Y-42233664D01*
X136992309Y-42233664D02*
X136968500Y-42186045D01*
X136968500Y-42186045D02*
X136920880Y-42138426D01*
X136920880Y-42138426D02*
X136825642Y-42114617D01*
X136825642Y-42114617D02*
X136658976Y-42114617D01*
X136658976Y-42114617D02*
X136563738Y-42138426D01*
X136563738Y-42138426D02*
X136516119Y-42186045D01*
X136516119Y-42186045D02*
X136492309Y-42233664D01*
X136539928Y-42638427D02*
X136516119Y-42662236D01*
X136516119Y-42662236D02*
X136492309Y-42709855D01*
X136492309Y-42709855D02*
X136492309Y-42828903D01*
X136492309Y-42828903D02*
X136516119Y-42876522D01*
X136516119Y-42876522D02*
X136539928Y-42900331D01*
X136539928Y-42900331D02*
X136587547Y-42924141D01*
X136587547Y-42924141D02*
X136635166Y-42924141D01*
X136635166Y-42924141D02*
X136706595Y-42900331D01*
X136706595Y-42900331D02*
X136992309Y-42614617D01*
X136992309Y-42614617D02*
X136992309Y-42924141D01*
X136492309Y-43376521D02*
X136492309Y-43138426D01*
X136492309Y-43138426D02*
X136730404Y-43114617D01*
X136730404Y-43114617D02*
X136706595Y-43138426D01*
X136706595Y-43138426D02*
X136682785Y-43186045D01*
X136682785Y-43186045D02*
X136682785Y-43305093D01*
X136682785Y-43305093D02*
X136706595Y-43352712D01*
X136706595Y-43352712D02*
X136730404Y-43376521D01*
X136730404Y-43376521D02*
X136778023Y-43400331D01*
X136778023Y-43400331D02*
X136897071Y-43400331D01*
X136897071Y-43400331D02*
X136944690Y-43376521D01*
X136944690Y-43376521D02*
X136968500Y-43352712D01*
X136968500Y-43352712D02*
X136992309Y-43305093D01*
X136992309Y-43305093D02*
X136992309Y-43186045D01*
X136992309Y-43186045D02*
X136968500Y-43138426D01*
X136968500Y-43138426D02*
X136944690Y-43114617D01*
X116793188Y-65196119D02*
X116745569Y-65172309D01*
X116745569Y-65172309D02*
X116674140Y-65172309D01*
X116674140Y-65172309D02*
X116602712Y-65196119D01*
X116602712Y-65196119D02*
X116555093Y-65243738D01*
X116555093Y-65243738D02*
X116531283Y-65291357D01*
X116531283Y-65291357D02*
X116507474Y-65386595D01*
X116507474Y-65386595D02*
X116507474Y-65458023D01*
X116507474Y-65458023D02*
X116531283Y-65553261D01*
X116531283Y-65553261D02*
X116555093Y-65600880D01*
X116555093Y-65600880D02*
X116602712Y-65648500D01*
X116602712Y-65648500D02*
X116674140Y-65672309D01*
X116674140Y-65672309D02*
X116721759Y-65672309D01*
X116721759Y-65672309D02*
X116793188Y-65648500D01*
X116793188Y-65648500D02*
X116816997Y-65624690D01*
X116816997Y-65624690D02*
X116816997Y-65458023D01*
X116816997Y-65458023D02*
X116721759Y-65458023D01*
X117031283Y-65672309D02*
X117031283Y-65172309D01*
X117031283Y-65172309D02*
X117221759Y-65172309D01*
X117221759Y-65172309D02*
X117269378Y-65196119D01*
X117269378Y-65196119D02*
X117293188Y-65219928D01*
X117293188Y-65219928D02*
X117316997Y-65267547D01*
X117316997Y-65267547D02*
X117316997Y-65338976D01*
X117316997Y-65338976D02*
X117293188Y-65386595D01*
X117293188Y-65386595D02*
X117269378Y-65410404D01*
X117269378Y-65410404D02*
X117221759Y-65434214D01*
X117221759Y-65434214D02*
X117031283Y-65434214D01*
X117531283Y-65672309D02*
X117531283Y-65172309D01*
X117864616Y-65172309D02*
X117959854Y-65172309D01*
X117959854Y-65172309D02*
X118007473Y-65196119D01*
X118007473Y-65196119D02*
X118055092Y-65243738D01*
X118055092Y-65243738D02*
X118078902Y-65338976D01*
X118078902Y-65338976D02*
X118078902Y-65505642D01*
X118078902Y-65505642D02*
X118055092Y-65600880D01*
X118055092Y-65600880D02*
X118007473Y-65648500D01*
X118007473Y-65648500D02*
X117959854Y-65672309D01*
X117959854Y-65672309D02*
X117864616Y-65672309D01*
X117864616Y-65672309D02*
X117816997Y-65648500D01*
X117816997Y-65648500D02*
X117769378Y-65600880D01*
X117769378Y-65600880D02*
X117745569Y-65505642D01*
X117745569Y-65505642D02*
X117745569Y-65338976D01*
X117745569Y-65338976D02*
X117769378Y-65243738D01*
X117769378Y-65243738D02*
X117816997Y-65196119D01*
X117816997Y-65196119D02*
X117864616Y-65172309D01*
X118388426Y-65172309D02*
X118436045Y-65172309D01*
X118436045Y-65172309D02*
X118483664Y-65196119D01*
X118483664Y-65196119D02*
X118507474Y-65219928D01*
X118507474Y-65219928D02*
X118531283Y-65267547D01*
X118531283Y-65267547D02*
X118555093Y-65362785D01*
X118555093Y-65362785D02*
X118555093Y-65481833D01*
X118555093Y-65481833D02*
X118531283Y-65577071D01*
X118531283Y-65577071D02*
X118507474Y-65624690D01*
X118507474Y-65624690D02*
X118483664Y-65648500D01*
X118483664Y-65648500D02*
X118436045Y-65672309D01*
X118436045Y-65672309D02*
X118388426Y-65672309D01*
X118388426Y-65672309D02*
X118340807Y-65648500D01*
X118340807Y-65648500D02*
X118316998Y-65624690D01*
X118316998Y-65624690D02*
X118293188Y-65577071D01*
X118293188Y-65577071D02*
X118269379Y-65481833D01*
X118269379Y-65481833D02*
X118269379Y-65362785D01*
X118269379Y-65362785D02*
X118293188Y-65267547D01*
X118293188Y-65267547D02*
X118316998Y-65219928D01*
X118316998Y-65219928D02*
X118340807Y-65196119D01*
X118340807Y-65196119D02*
X118388426Y-65172309D01*
X118793188Y-65672309D02*
X118888426Y-65672309D01*
X118888426Y-65672309D02*
X118936045Y-65648500D01*
X118936045Y-65648500D02*
X118959854Y-65624690D01*
X118959854Y-65624690D02*
X119007473Y-65553261D01*
X119007473Y-65553261D02*
X119031283Y-65458023D01*
X119031283Y-65458023D02*
X119031283Y-65267547D01*
X119031283Y-65267547D02*
X119007473Y-65219928D01*
X119007473Y-65219928D02*
X118983664Y-65196119D01*
X118983664Y-65196119D02*
X118936045Y-65172309D01*
X118936045Y-65172309D02*
X118840807Y-65172309D01*
X118840807Y-65172309D02*
X118793188Y-65196119D01*
X118793188Y-65196119D02*
X118769378Y-65219928D01*
X118769378Y-65219928D02*
X118745569Y-65267547D01*
X118745569Y-65267547D02*
X118745569Y-65386595D01*
X118745569Y-65386595D02*
X118769378Y-65434214D01*
X118769378Y-65434214D02*
X118793188Y-65458023D01*
X118793188Y-65458023D02*
X118840807Y-65481833D01*
X118840807Y-65481833D02*
X118936045Y-65481833D01*
X118936045Y-65481833D02*
X118983664Y-65458023D01*
X118983664Y-65458023D02*
X119007473Y-65434214D01*
X119007473Y-65434214D02*
X119031283Y-65386595D01*
X119245568Y-65338976D02*
X119626521Y-65481833D01*
X119626521Y-65481833D02*
X119245568Y-65624690D01*
X116793188Y-70366119D02*
X116745569Y-70342309D01*
X116745569Y-70342309D02*
X116674140Y-70342309D01*
X116674140Y-70342309D02*
X116602712Y-70366119D01*
X116602712Y-70366119D02*
X116555093Y-70413738D01*
X116555093Y-70413738D02*
X116531283Y-70461357D01*
X116531283Y-70461357D02*
X116507474Y-70556595D01*
X116507474Y-70556595D02*
X116507474Y-70628023D01*
X116507474Y-70628023D02*
X116531283Y-70723261D01*
X116531283Y-70723261D02*
X116555093Y-70770880D01*
X116555093Y-70770880D02*
X116602712Y-70818500D01*
X116602712Y-70818500D02*
X116674140Y-70842309D01*
X116674140Y-70842309D02*
X116721759Y-70842309D01*
X116721759Y-70842309D02*
X116793188Y-70818500D01*
X116793188Y-70818500D02*
X116816997Y-70794690D01*
X116816997Y-70794690D02*
X116816997Y-70628023D01*
X116816997Y-70628023D02*
X116721759Y-70628023D01*
X117031283Y-70842309D02*
X117031283Y-70342309D01*
X117031283Y-70342309D02*
X117221759Y-70342309D01*
X117221759Y-70342309D02*
X117269378Y-70366119D01*
X117269378Y-70366119D02*
X117293188Y-70389928D01*
X117293188Y-70389928D02*
X117316997Y-70437547D01*
X117316997Y-70437547D02*
X117316997Y-70508976D01*
X117316997Y-70508976D02*
X117293188Y-70556595D01*
X117293188Y-70556595D02*
X117269378Y-70580404D01*
X117269378Y-70580404D02*
X117221759Y-70604214D01*
X117221759Y-70604214D02*
X117031283Y-70604214D01*
X117531283Y-70842309D02*
X117531283Y-70342309D01*
X117864616Y-70342309D02*
X117959854Y-70342309D01*
X117959854Y-70342309D02*
X118007473Y-70366119D01*
X118007473Y-70366119D02*
X118055092Y-70413738D01*
X118055092Y-70413738D02*
X118078902Y-70508976D01*
X118078902Y-70508976D02*
X118078902Y-70675642D01*
X118078902Y-70675642D02*
X118055092Y-70770880D01*
X118055092Y-70770880D02*
X118007473Y-70818500D01*
X118007473Y-70818500D02*
X117959854Y-70842309D01*
X117959854Y-70842309D02*
X117864616Y-70842309D01*
X117864616Y-70842309D02*
X117816997Y-70818500D01*
X117816997Y-70818500D02*
X117769378Y-70770880D01*
X117769378Y-70770880D02*
X117745569Y-70675642D01*
X117745569Y-70675642D02*
X117745569Y-70508976D01*
X117745569Y-70508976D02*
X117769378Y-70413738D01*
X117769378Y-70413738D02*
X117816997Y-70366119D01*
X117816997Y-70366119D02*
X117864616Y-70342309D01*
X118388426Y-70342309D02*
X118436045Y-70342309D01*
X118436045Y-70342309D02*
X118483664Y-70366119D01*
X118483664Y-70366119D02*
X118507474Y-70389928D01*
X118507474Y-70389928D02*
X118531283Y-70437547D01*
X118531283Y-70437547D02*
X118555093Y-70532785D01*
X118555093Y-70532785D02*
X118555093Y-70651833D01*
X118555093Y-70651833D02*
X118531283Y-70747071D01*
X118531283Y-70747071D02*
X118507474Y-70794690D01*
X118507474Y-70794690D02*
X118483664Y-70818500D01*
X118483664Y-70818500D02*
X118436045Y-70842309D01*
X118436045Y-70842309D02*
X118388426Y-70842309D01*
X118388426Y-70842309D02*
X118340807Y-70818500D01*
X118340807Y-70818500D02*
X118316998Y-70794690D01*
X118316998Y-70794690D02*
X118293188Y-70747071D01*
X118293188Y-70747071D02*
X118269379Y-70651833D01*
X118269379Y-70651833D02*
X118269379Y-70532785D01*
X118269379Y-70532785D02*
X118293188Y-70437547D01*
X118293188Y-70437547D02*
X118316998Y-70389928D01*
X118316998Y-70389928D02*
X118340807Y-70366119D01*
X118340807Y-70366119D02*
X118388426Y-70342309D01*
X118840807Y-70556595D02*
X118793188Y-70532785D01*
X118793188Y-70532785D02*
X118769378Y-70508976D01*
X118769378Y-70508976D02*
X118745569Y-70461357D01*
X118745569Y-70461357D02*
X118745569Y-70437547D01*
X118745569Y-70437547D02*
X118769378Y-70389928D01*
X118769378Y-70389928D02*
X118793188Y-70366119D01*
X118793188Y-70366119D02*
X118840807Y-70342309D01*
X118840807Y-70342309D02*
X118936045Y-70342309D01*
X118936045Y-70342309D02*
X118983664Y-70366119D01*
X118983664Y-70366119D02*
X119007473Y-70389928D01*
X119007473Y-70389928D02*
X119031283Y-70437547D01*
X119031283Y-70437547D02*
X119031283Y-70461357D01*
X119031283Y-70461357D02*
X119007473Y-70508976D01*
X119007473Y-70508976D02*
X118983664Y-70532785D01*
X118983664Y-70532785D02*
X118936045Y-70556595D01*
X118936045Y-70556595D02*
X118840807Y-70556595D01*
X118840807Y-70556595D02*
X118793188Y-70580404D01*
X118793188Y-70580404D02*
X118769378Y-70604214D01*
X118769378Y-70604214D02*
X118745569Y-70651833D01*
X118745569Y-70651833D02*
X118745569Y-70747071D01*
X118745569Y-70747071D02*
X118769378Y-70794690D01*
X118769378Y-70794690D02*
X118793188Y-70818500D01*
X118793188Y-70818500D02*
X118840807Y-70842309D01*
X118840807Y-70842309D02*
X118936045Y-70842309D01*
X118936045Y-70842309D02*
X118983664Y-70818500D01*
X118983664Y-70818500D02*
X119007473Y-70794690D01*
X119007473Y-70794690D02*
X119031283Y-70747071D01*
X119031283Y-70747071D02*
X119031283Y-70651833D01*
X119031283Y-70651833D02*
X119007473Y-70604214D01*
X119007473Y-70604214D02*
X118983664Y-70580404D01*
X118983664Y-70580404D02*
X118936045Y-70556595D01*
X119245568Y-70508976D02*
X119626521Y-70651833D01*
X119626521Y-70651833D02*
X119245568Y-70794690D01*
D11*
X100372047Y-38504473D02*
X100086333Y-37742568D01*
X100086333Y-37742568D02*
X99800619Y-38504473D01*
X100657761Y-39504472D02*
X100705380Y-39409234D01*
X100705380Y-39409234D02*
X100705380Y-39266377D01*
X100705380Y-39266377D02*
X100657761Y-39123520D01*
X100657761Y-39123520D02*
X100562523Y-39028282D01*
X100562523Y-39028282D02*
X100467285Y-38980663D01*
X100467285Y-38980663D02*
X100276809Y-38933044D01*
X100276809Y-38933044D02*
X100133952Y-38933044D01*
X100133952Y-38933044D02*
X99943476Y-38980663D01*
X99943476Y-38980663D02*
X99848238Y-39028282D01*
X99848238Y-39028282D02*
X99753000Y-39123520D01*
X99753000Y-39123520D02*
X99705380Y-39266377D01*
X99705380Y-39266377D02*
X99705380Y-39361615D01*
X99705380Y-39361615D02*
X99753000Y-39504472D01*
X99753000Y-39504472D02*
X99800619Y-39552091D01*
X99800619Y-39552091D02*
X100133952Y-39552091D01*
X100133952Y-39552091D02*
X100133952Y-39361615D01*
X99705380Y-39980663D02*
X100705380Y-39980663D01*
X100705380Y-39980663D02*
X100705380Y-40361615D01*
X100705380Y-40361615D02*
X100657761Y-40456853D01*
X100657761Y-40456853D02*
X100610142Y-40504472D01*
X100610142Y-40504472D02*
X100514904Y-40552091D01*
X100514904Y-40552091D02*
X100372047Y-40552091D01*
X100372047Y-40552091D02*
X100276809Y-40504472D01*
X100276809Y-40504472D02*
X100229190Y-40456853D01*
X100229190Y-40456853D02*
X100181571Y-40361615D01*
X100181571Y-40361615D02*
X100181571Y-39980663D01*
X99705380Y-40980663D02*
X100705380Y-40980663D01*
X100705380Y-41647329D02*
X100705380Y-41837805D01*
X100705380Y-41837805D02*
X100657761Y-41933043D01*
X100657761Y-41933043D02*
X100562523Y-42028281D01*
X100562523Y-42028281D02*
X100372047Y-42075900D01*
X100372047Y-42075900D02*
X100038714Y-42075900D01*
X100038714Y-42075900D02*
X99848238Y-42028281D01*
X99848238Y-42028281D02*
X99753000Y-41933043D01*
X99753000Y-41933043D02*
X99705380Y-41837805D01*
X99705380Y-41837805D02*
X99705380Y-41647329D01*
X99705380Y-41647329D02*
X99753000Y-41552091D01*
X99753000Y-41552091D02*
X99848238Y-41456853D01*
X99848238Y-41456853D02*
X100038714Y-41409234D01*
X100038714Y-41409234D02*
X100372047Y-41409234D01*
X100372047Y-41409234D02*
X100562523Y-41456853D01*
X100562523Y-41456853D02*
X100657761Y-41552091D01*
X100657761Y-41552091D02*
X100705380Y-41647329D01*
X100705380Y-42694948D02*
X100705380Y-42790186D01*
X100705380Y-42790186D02*
X100657761Y-42885424D01*
X100657761Y-42885424D02*
X100610142Y-42933043D01*
X100610142Y-42933043D02*
X100514904Y-42980662D01*
X100514904Y-42980662D02*
X100324428Y-43028281D01*
X100324428Y-43028281D02*
X100086333Y-43028281D01*
X100086333Y-43028281D02*
X99895857Y-42980662D01*
X99895857Y-42980662D02*
X99800619Y-42933043D01*
X99800619Y-42933043D02*
X99753000Y-42885424D01*
X99753000Y-42885424D02*
X99705380Y-42790186D01*
X99705380Y-42790186D02*
X99705380Y-42694948D01*
X99705380Y-42694948D02*
X99753000Y-42599710D01*
X99753000Y-42599710D02*
X99800619Y-42552091D01*
X99800619Y-42552091D02*
X99895857Y-42504472D01*
X99895857Y-42504472D02*
X100086333Y-42456853D01*
X100086333Y-42456853D02*
X100324428Y-42456853D01*
X100324428Y-42456853D02*
X100514904Y-42504472D01*
X100514904Y-42504472D02*
X100610142Y-42552091D01*
X100610142Y-42552091D02*
X100657761Y-42599710D01*
X100657761Y-42599710D02*
X100705380Y-42694948D01*
D12*
G36*
X122844110Y-59535491D02*
G01*
X122759760Y-59244986D01*
X122666996Y-58945365D01*
X122565816Y-58636627D01*
X122456222Y-58318773D01*
X122389818Y-58133049D01*
X121427013Y-55486434D01*
X119992330Y-55486434D01*
X119992330Y-61020000D01*
X121024012Y-61020000D01*
X121024012Y-58216580D01*
X121020990Y-57895737D01*
X121013386Y-57594713D01*
X121001154Y-57274755D01*
X120984294Y-56935864D01*
X120975652Y-56784829D01*
X121012288Y-56784829D01*
X121099306Y-57068807D01*
X121177885Y-57315324D01*
X121274972Y-57606217D01*
X121375722Y-57892714D01*
X122523175Y-61020000D01*
X123182630Y-61020000D01*
X124330083Y-57892714D01*
X124430833Y-57606217D01*
X124527920Y-57315324D01*
X124616946Y-57035422D01*
X124693517Y-56784829D01*
X124731618Y-56784829D01*
X124712204Y-57114594D01*
X124697558Y-57434541D01*
X124687681Y-57744671D01*
X124682571Y-58044984D01*
X124681793Y-58212184D01*
X124681793Y-61020000D01*
X125713475Y-61020000D01*
X125713475Y-55486434D01*
X124287585Y-55486434D01*
X123324780Y-58121325D01*
X123220324Y-58413894D01*
X123118534Y-58715860D01*
X123019408Y-59027223D01*
X122922947Y-59347982D01*
X122869023Y-59535491D01*
X122844110Y-59535491D01*
G37*
G36*
X117505176Y-56896077D02*
G01*
X117797768Y-56916765D01*
X118100425Y-56960683D01*
X118163301Y-56972988D01*
X118448206Y-57043353D01*
X118737899Y-57142400D01*
X118737899Y-57831165D01*
X118673490Y-57813992D01*
X118384498Y-57744749D01*
X118096029Y-57690481D01*
X117798541Y-57655310D01*
X117501053Y-57643586D01*
X117384091Y-57647708D01*
X117089260Y-57709532D01*
X117068440Y-57717775D01*
X116815219Y-57885387D01*
X116662812Y-58137445D01*
X116615917Y-58433468D01*
X116615917Y-58599064D01*
X116701280Y-58577174D01*
X116996936Y-58521395D01*
X117165372Y-58500856D01*
X117471744Y-58487690D01*
X117515467Y-58488050D01*
X117828065Y-58513746D01*
X118113614Y-58580013D01*
X118367930Y-58683869D01*
X118613335Y-58846727D01*
X118778027Y-59015466D01*
X118938667Y-59276106D01*
X119025495Y-59545750D01*
X119054438Y-59847634D01*
X119038233Y-60074199D01*
X118956252Y-60372267D01*
X118871210Y-60538437D01*
X118683677Y-60772337D01*
X118544504Y-60885613D01*
X118270418Y-61025861D01*
X118051830Y-61085968D01*
X117750181Y-61113789D01*
X117661824Y-61111615D01*
X117369162Y-61068360D01*
X117325336Y-61056796D01*
X117046762Y-60943796D01*
X117037726Y-60938748D01*
X116788841Y-60772337D01*
X116595401Y-60595017D01*
X116579281Y-60595017D01*
X116539713Y-61020000D01*
X115678025Y-61020000D01*
X115684716Y-60812031D01*
X115694145Y-60510020D01*
X115695862Y-60436450D01*
X115700263Y-60129155D01*
X115701472Y-59822721D01*
X115701472Y-59325931D01*
X116615917Y-59325931D01*
X116615917Y-59947285D01*
X116769790Y-60092365D01*
X116974954Y-60225722D01*
X117225547Y-60325373D01*
X117512777Y-60363475D01*
X117744319Y-60329769D01*
X117937759Y-60230118D01*
X118068185Y-60061591D01*
X118116545Y-59821256D01*
X118086664Y-59620671D01*
X117904054Y-59381618D01*
X117890531Y-59372783D01*
X117614666Y-59265492D01*
X117322267Y-59238004D01*
X117239130Y-59239336D01*
X116945645Y-59265847D01*
X116911122Y-59270858D01*
X116615917Y-59325931D01*
X115701472Y-59325931D01*
X115701472Y-58305973D01*
X115724012Y-58031887D01*
X115804054Y-57746168D01*
X115912727Y-57533671D01*
X116111800Y-57299204D01*
X116362777Y-57120362D01*
X116636434Y-57001716D01*
X116780669Y-56959461D01*
X117079047Y-56908522D01*
X117389678Y-56893272D01*
X117505176Y-56896077D01*
G37*
G36*
X111733014Y-59428513D02*
G01*
X111802669Y-59140219D01*
X111838527Y-59088527D01*
X112068358Y-58902862D01*
X112122826Y-58876036D01*
X112404649Y-58773965D01*
X112527292Y-58742679D01*
X112816147Y-58678451D01*
X112997704Y-58641563D01*
X113297636Y-58569821D01*
X113584688Y-58486488D01*
X113621988Y-58474501D01*
X113901891Y-58359096D01*
X114146622Y-58206322D01*
X114360765Y-57998091D01*
X114507124Y-57771081D01*
X114607142Y-57474326D01*
X114639960Y-57160569D01*
X114640481Y-57111625D01*
X114619049Y-56799964D01*
X114547459Y-56498144D01*
X114488073Y-56351053D01*
X114332678Y-56088988D01*
X114135768Y-55869559D01*
X114071884Y-55814696D01*
X113823964Y-55649523D01*
X113541823Y-55525864D01*
X113454926Y-55498157D01*
X113153460Y-55429842D01*
X112849423Y-55397693D01*
X112660648Y-55392644D01*
X112357044Y-55402515D01*
X112052747Y-55432126D01*
X111775512Y-55476175D01*
X111483778Y-55538310D01*
X111198700Y-55619128D01*
X111007613Y-55688667D01*
X111007613Y-56518115D01*
X111298655Y-56426055D01*
X111606676Y-56347745D01*
X111831200Y-56304159D01*
X112142564Y-56260513D01*
X112438449Y-56239117D01*
X112569790Y-56236748D01*
X112885500Y-56258566D01*
X113189404Y-56340612D01*
X113339155Y-56421395D01*
X113541388Y-56650373D01*
X113608536Y-56948223D01*
X113608799Y-56970942D01*
X113549786Y-57263106D01*
X113519406Y-57316789D01*
X113304425Y-57525297D01*
X113276140Y-57542470D01*
X113006591Y-57659284D01*
X112921500Y-57684619D01*
X112633669Y-57753696D01*
X112495052Y-57782805D01*
X112190912Y-57852408D01*
X111899115Y-57930427D01*
X111818011Y-57954263D01*
X111530486Y-58061682D01*
X111259285Y-58213174D01*
X111243551Y-58223907D01*
X111019337Y-58423210D01*
X110847878Y-58675268D01*
X110742691Y-58970113D01*
X110703622Y-59280342D01*
X110701332Y-59386015D01*
X110724413Y-59703241D01*
X110801510Y-60008763D01*
X110865464Y-60156845D01*
X111034443Y-60419912D01*
X111256718Y-60639782D01*
X111330013Y-60694668D01*
X111596113Y-60849420D01*
X111880812Y-60960497D01*
X112064207Y-61011207D01*
X112371118Y-61069610D01*
X112666957Y-61101667D01*
X112978824Y-61113689D01*
X113010893Y-61113789D01*
X113318464Y-61103918D01*
X113622572Y-61074307D01*
X113896029Y-61030258D01*
X114200958Y-60957924D01*
X114485253Y-60857702D01*
X114618499Y-60794319D01*
X114618499Y-59988318D01*
X114315836Y-60087992D01*
X114018944Y-60164997D01*
X113824221Y-60203740D01*
X113529665Y-60243925D01*
X113228513Y-60265564D01*
X113024082Y-60269685D01*
X112728930Y-60254229D01*
X112555136Y-60230118D01*
X112259623Y-60149392D01*
X112140411Y-60095296D01*
X111904656Y-59912297D01*
X111844389Y-59834445D01*
X111741824Y-59558382D01*
X111733014Y-59428513D01*
G37*
G36*
X108165015Y-56895379D02*
G01*
X108463585Y-56935931D01*
X108753740Y-57028094D01*
X108853653Y-57073518D01*
X109114756Y-57235726D01*
X109332595Y-57432561D01*
X109452946Y-57576175D01*
X109609429Y-57824570D01*
X109737062Y-58112533D01*
X109755162Y-58164356D01*
X109833842Y-58468417D01*
X109874714Y-58772785D01*
X109886538Y-59069476D01*
X109885954Y-59138255D01*
X109868875Y-59431752D01*
X109822164Y-59727133D01*
X109737062Y-60014696D01*
X109687810Y-60132970D01*
X109535979Y-60407330D01*
X109334061Y-60649239D01*
X109251443Y-60722426D01*
X108988897Y-60892327D01*
X108703914Y-61003879D01*
X108512581Y-61051965D01*
X108214246Y-61098333D01*
X107902309Y-61113789D01*
X107693848Y-61109484D01*
X107388025Y-61086884D01*
X107090446Y-61044912D01*
X106805668Y-60987741D01*
X106508660Y-60899832D01*
X106508660Y-60175896D01*
X106548376Y-60187088D01*
X106844058Y-60260439D01*
X107135875Y-60315115D01*
X107420287Y-60349826D01*
X107729385Y-60363475D01*
X107918773Y-60354819D01*
X108211521Y-60301926D01*
X108345301Y-60256445D01*
X108601332Y-60107020D01*
X108708568Y-60005640D01*
X108870976Y-59758241D01*
X108949115Y-59535911D01*
X108994075Y-59238004D01*
X106416336Y-59238004D01*
X106414118Y-59192115D01*
X106404612Y-58893621D01*
X106414465Y-58611176D01*
X106429663Y-58487690D01*
X107354228Y-58487690D01*
X108948646Y-58487690D01*
X108942853Y-58444436D01*
X108865115Y-58160893D01*
X108857066Y-58141813D01*
X108695122Y-57892714D01*
X108688398Y-57885527D01*
X108443063Y-57710997D01*
X108405763Y-57695198D01*
X108107473Y-57643586D01*
X108072715Y-57644179D01*
X107779211Y-57710997D01*
X107544738Y-57892714D01*
X107538920Y-57899897D01*
X107402588Y-58160893D01*
X107393946Y-58189662D01*
X107354228Y-58487690D01*
X106429663Y-58487690D01*
X106453270Y-58295875D01*
X106529176Y-57989434D01*
X106570535Y-57872920D01*
X106700841Y-57602468D01*
X106877955Y-57363684D01*
X106906131Y-57333785D01*
X107138614Y-57142024D01*
X107408450Y-57007578D01*
X107466380Y-56987150D01*
X107771099Y-56915151D01*
X108078164Y-56893272D01*
X108165015Y-56895379D01*
G37*
D10*
X105096119Y-46936811D02*
X105072309Y-46984430D01*
X105072309Y-46984430D02*
X105072309Y-47055859D01*
X105072309Y-47055859D02*
X105096119Y-47127287D01*
X105096119Y-47127287D02*
X105143738Y-47174906D01*
X105143738Y-47174906D02*
X105191357Y-47198716D01*
X105191357Y-47198716D02*
X105286595Y-47222525D01*
X105286595Y-47222525D02*
X105358023Y-47222525D01*
X105358023Y-47222525D02*
X105453261Y-47198716D01*
X105453261Y-47198716D02*
X105500880Y-47174906D01*
X105500880Y-47174906D02*
X105548500Y-47127287D01*
X105548500Y-47127287D02*
X105572309Y-47055859D01*
X105572309Y-47055859D02*
X105572309Y-47008240D01*
X105572309Y-47008240D02*
X105548500Y-46936811D01*
X105548500Y-46936811D02*
X105524690Y-46913002D01*
X105524690Y-46913002D02*
X105358023Y-46913002D01*
X105358023Y-46913002D02*
X105358023Y-47008240D01*
X105572309Y-46698716D02*
X105072309Y-46698716D01*
X105072309Y-46698716D02*
X105072309Y-46508240D01*
X105072309Y-46508240D02*
X105096119Y-46460621D01*
X105096119Y-46460621D02*
X105119928Y-46436811D01*
X105119928Y-46436811D02*
X105167547Y-46413002D01*
X105167547Y-46413002D02*
X105238976Y-46413002D01*
X105238976Y-46413002D02*
X105286595Y-46436811D01*
X105286595Y-46436811D02*
X105310404Y-46460621D01*
X105310404Y-46460621D02*
X105334214Y-46508240D01*
X105334214Y-46508240D02*
X105334214Y-46698716D01*
X105572309Y-46198716D02*
X105072309Y-46198716D01*
X105072309Y-45865383D02*
X105072309Y-45770145D01*
X105072309Y-45770145D02*
X105096119Y-45722526D01*
X105096119Y-45722526D02*
X105143738Y-45674907D01*
X105143738Y-45674907D02*
X105238976Y-45651097D01*
X105238976Y-45651097D02*
X105405642Y-45651097D01*
X105405642Y-45651097D02*
X105500880Y-45674907D01*
X105500880Y-45674907D02*
X105548500Y-45722526D01*
X105548500Y-45722526D02*
X105572309Y-45770145D01*
X105572309Y-45770145D02*
X105572309Y-45865383D01*
X105572309Y-45865383D02*
X105548500Y-45913002D01*
X105548500Y-45913002D02*
X105500880Y-45960621D01*
X105500880Y-45960621D02*
X105405642Y-45984430D01*
X105405642Y-45984430D02*
X105238976Y-45984430D01*
X105238976Y-45984430D02*
X105143738Y-45960621D01*
X105143738Y-45960621D02*
X105096119Y-45913002D01*
X105096119Y-45913002D02*
X105072309Y-45865383D01*
X105072309Y-45341573D02*
X105072309Y-45293954D01*
X105072309Y-45293954D02*
X105096119Y-45246335D01*
X105096119Y-45246335D02*
X105119928Y-45222525D01*
X105119928Y-45222525D02*
X105167547Y-45198716D01*
X105167547Y-45198716D02*
X105262785Y-45174906D01*
X105262785Y-45174906D02*
X105381833Y-45174906D01*
X105381833Y-45174906D02*
X105477071Y-45198716D01*
X105477071Y-45198716D02*
X105524690Y-45222525D01*
X105524690Y-45222525D02*
X105548500Y-45246335D01*
X105548500Y-45246335D02*
X105572309Y-45293954D01*
X105572309Y-45293954D02*
X105572309Y-45341573D01*
X105572309Y-45341573D02*
X105548500Y-45389192D01*
X105548500Y-45389192D02*
X105524690Y-45413001D01*
X105524690Y-45413001D02*
X105477071Y-45436811D01*
X105477071Y-45436811D02*
X105381833Y-45460620D01*
X105381833Y-45460620D02*
X105262785Y-45460620D01*
X105262785Y-45460620D02*
X105167547Y-45436811D01*
X105167547Y-45436811D02*
X105119928Y-45413001D01*
X105119928Y-45413001D02*
X105096119Y-45389192D01*
X105096119Y-45389192D02*
X105072309Y-45341573D01*
X105119928Y-44984430D02*
X105096119Y-44960621D01*
X105096119Y-44960621D02*
X105072309Y-44913002D01*
X105072309Y-44913002D02*
X105072309Y-44793954D01*
X105072309Y-44793954D02*
X105096119Y-44746335D01*
X105096119Y-44746335D02*
X105119928Y-44722526D01*
X105119928Y-44722526D02*
X105167547Y-44698716D01*
X105167547Y-44698716D02*
X105215166Y-44698716D01*
X105215166Y-44698716D02*
X105286595Y-44722526D01*
X105286595Y-44722526D02*
X105572309Y-45008240D01*
X105572309Y-45008240D02*
X105572309Y-44698716D01*
X105381833Y-44484431D02*
X105381833Y-44103479D01*
X105572309Y-43865383D02*
X105072309Y-43865383D01*
X105072309Y-43865383D02*
X105429452Y-43698716D01*
X105429452Y-43698716D02*
X105072309Y-43532050D01*
X105072309Y-43532050D02*
X105572309Y-43532050D01*
X105572309Y-43222525D02*
X105548500Y-43270144D01*
X105548500Y-43270144D02*
X105524690Y-43293954D01*
X105524690Y-43293954D02*
X105477071Y-43317763D01*
X105477071Y-43317763D02*
X105334214Y-43317763D01*
X105334214Y-43317763D02*
X105286595Y-43293954D01*
X105286595Y-43293954D02*
X105262785Y-43270144D01*
X105262785Y-43270144D02*
X105238976Y-43222525D01*
X105238976Y-43222525D02*
X105238976Y-43151097D01*
X105238976Y-43151097D02*
X105262785Y-43103478D01*
X105262785Y-43103478D02*
X105286595Y-43079668D01*
X105286595Y-43079668D02*
X105334214Y-43055859D01*
X105334214Y-43055859D02*
X105477071Y-43055859D01*
X105477071Y-43055859D02*
X105524690Y-43079668D01*
X105524690Y-43079668D02*
X105548500Y-43103478D01*
X105548500Y-43103478D02*
X105572309Y-43151097D01*
X105572309Y-43151097D02*
X105572309Y-43222525D01*
X105238976Y-42913001D02*
X105238976Y-42722525D01*
X105072309Y-42841573D02*
X105500880Y-42841573D01*
X105500880Y-42841573D02*
X105548500Y-42817763D01*
X105548500Y-42817763D02*
X105572309Y-42770144D01*
X105572309Y-42770144D02*
X105572309Y-42722525D01*
X105572309Y-42555859D02*
X105238976Y-42555859D01*
X105072309Y-42555859D02*
X105096119Y-42579668D01*
X105096119Y-42579668D02*
X105119928Y-42555859D01*
X105119928Y-42555859D02*
X105096119Y-42532049D01*
X105096119Y-42532049D02*
X105072309Y-42555859D01*
X105072309Y-42555859D02*
X105119928Y-42555859D01*
X105572309Y-42246335D02*
X105548500Y-42293954D01*
X105548500Y-42293954D02*
X105524690Y-42317764D01*
X105524690Y-42317764D02*
X105477071Y-42341573D01*
X105477071Y-42341573D02*
X105334214Y-42341573D01*
X105334214Y-42341573D02*
X105286595Y-42317764D01*
X105286595Y-42317764D02*
X105262785Y-42293954D01*
X105262785Y-42293954D02*
X105238976Y-42246335D01*
X105238976Y-42246335D02*
X105238976Y-42174907D01*
X105238976Y-42174907D02*
X105262785Y-42127288D01*
X105262785Y-42127288D02*
X105286595Y-42103478D01*
X105286595Y-42103478D02*
X105334214Y-42079669D01*
X105334214Y-42079669D02*
X105477071Y-42079669D01*
X105477071Y-42079669D02*
X105524690Y-42103478D01*
X105524690Y-42103478D02*
X105548500Y-42127288D01*
X105548500Y-42127288D02*
X105572309Y-42174907D01*
X105572309Y-42174907D02*
X105572309Y-42246335D01*
X105238976Y-41865383D02*
X105572309Y-41865383D01*
X105286595Y-41865383D02*
X105262785Y-41841573D01*
X105262785Y-41841573D02*
X105238976Y-41793954D01*
X105238976Y-41793954D02*
X105238976Y-41722526D01*
X105238976Y-41722526D02*
X105262785Y-41674907D01*
X105262785Y-41674907D02*
X105310404Y-41651097D01*
X105310404Y-41651097D02*
X105572309Y-41651097D01*
X105238976Y-41413002D02*
X105381833Y-41032050D01*
X105381833Y-41032050D02*
X105524690Y-41413002D01*
X123143188Y-74566119D02*
X123095569Y-74542309D01*
X123095569Y-74542309D02*
X123024140Y-74542309D01*
X123024140Y-74542309D02*
X122952712Y-74566119D01*
X122952712Y-74566119D02*
X122905093Y-74613738D01*
X122905093Y-74613738D02*
X122881283Y-74661357D01*
X122881283Y-74661357D02*
X122857474Y-74756595D01*
X122857474Y-74756595D02*
X122857474Y-74828023D01*
X122857474Y-74828023D02*
X122881283Y-74923261D01*
X122881283Y-74923261D02*
X122905093Y-74970880D01*
X122905093Y-74970880D02*
X122952712Y-75018500D01*
X122952712Y-75018500D02*
X123024140Y-75042309D01*
X123024140Y-75042309D02*
X123071759Y-75042309D01*
X123071759Y-75042309D02*
X123143188Y-75018500D01*
X123143188Y-75018500D02*
X123166997Y-74994690D01*
X123166997Y-74994690D02*
X123166997Y-74828023D01*
X123166997Y-74828023D02*
X123071759Y-74828023D01*
X123381283Y-75042309D02*
X123381283Y-74542309D01*
X123381283Y-74542309D02*
X123666997Y-75042309D01*
X123666997Y-75042309D02*
X123666997Y-74542309D01*
X123905093Y-75042309D02*
X123905093Y-74542309D01*
X123905093Y-74542309D02*
X124024141Y-74542309D01*
X124024141Y-74542309D02*
X124095569Y-74566119D01*
X124095569Y-74566119D02*
X124143188Y-74613738D01*
X124143188Y-74613738D02*
X124166998Y-74661357D01*
X124166998Y-74661357D02*
X124190807Y-74756595D01*
X124190807Y-74756595D02*
X124190807Y-74828023D01*
X124190807Y-74828023D02*
X124166998Y-74923261D01*
X124166998Y-74923261D02*
X124143188Y-74970880D01*
X124143188Y-74970880D02*
X124095569Y-75018500D01*
X124095569Y-75018500D02*
X124024141Y-75042309D01*
X124024141Y-75042309D02*
X123905093Y-75042309D01*
X110256119Y-46236811D02*
X110232309Y-46284430D01*
X110232309Y-46284430D02*
X110232309Y-46355859D01*
X110232309Y-46355859D02*
X110256119Y-46427287D01*
X110256119Y-46427287D02*
X110303738Y-46474906D01*
X110303738Y-46474906D02*
X110351357Y-46498716D01*
X110351357Y-46498716D02*
X110446595Y-46522525D01*
X110446595Y-46522525D02*
X110518023Y-46522525D01*
X110518023Y-46522525D02*
X110613261Y-46498716D01*
X110613261Y-46498716D02*
X110660880Y-46474906D01*
X110660880Y-46474906D02*
X110708500Y-46427287D01*
X110708500Y-46427287D02*
X110732309Y-46355859D01*
X110732309Y-46355859D02*
X110732309Y-46308240D01*
X110732309Y-46308240D02*
X110708500Y-46236811D01*
X110708500Y-46236811D02*
X110684690Y-46213002D01*
X110684690Y-46213002D02*
X110518023Y-46213002D01*
X110518023Y-46213002D02*
X110518023Y-46308240D01*
X110732309Y-45998716D02*
X110232309Y-45998716D01*
X110232309Y-45998716D02*
X110232309Y-45808240D01*
X110232309Y-45808240D02*
X110256119Y-45760621D01*
X110256119Y-45760621D02*
X110279928Y-45736811D01*
X110279928Y-45736811D02*
X110327547Y-45713002D01*
X110327547Y-45713002D02*
X110398976Y-45713002D01*
X110398976Y-45713002D02*
X110446595Y-45736811D01*
X110446595Y-45736811D02*
X110470404Y-45760621D01*
X110470404Y-45760621D02*
X110494214Y-45808240D01*
X110494214Y-45808240D02*
X110494214Y-45998716D01*
X110732309Y-45498716D02*
X110232309Y-45498716D01*
X110232309Y-45165383D02*
X110232309Y-45070145D01*
X110232309Y-45070145D02*
X110256119Y-45022526D01*
X110256119Y-45022526D02*
X110303738Y-44974907D01*
X110303738Y-44974907D02*
X110398976Y-44951097D01*
X110398976Y-44951097D02*
X110565642Y-44951097D01*
X110565642Y-44951097D02*
X110660880Y-44974907D01*
X110660880Y-44974907D02*
X110708500Y-45022526D01*
X110708500Y-45022526D02*
X110732309Y-45070145D01*
X110732309Y-45070145D02*
X110732309Y-45165383D01*
X110732309Y-45165383D02*
X110708500Y-45213002D01*
X110708500Y-45213002D02*
X110660880Y-45260621D01*
X110660880Y-45260621D02*
X110565642Y-45284430D01*
X110565642Y-45284430D02*
X110398976Y-45284430D01*
X110398976Y-45284430D02*
X110303738Y-45260621D01*
X110303738Y-45260621D02*
X110256119Y-45213002D01*
X110256119Y-45213002D02*
X110232309Y-45165383D01*
X110398976Y-44522525D02*
X110732309Y-44522525D01*
X110208500Y-44641573D02*
X110565642Y-44760620D01*
X110565642Y-44760620D02*
X110565642Y-44451097D01*
X110232309Y-44165383D02*
X110232309Y-44117764D01*
X110232309Y-44117764D02*
X110256119Y-44070145D01*
X110256119Y-44070145D02*
X110279928Y-44046335D01*
X110279928Y-44046335D02*
X110327547Y-44022526D01*
X110327547Y-44022526D02*
X110422785Y-43998716D01*
X110422785Y-43998716D02*
X110541833Y-43998716D01*
X110541833Y-43998716D02*
X110637071Y-44022526D01*
X110637071Y-44022526D02*
X110684690Y-44046335D01*
X110684690Y-44046335D02*
X110708500Y-44070145D01*
X110708500Y-44070145D02*
X110732309Y-44117764D01*
X110732309Y-44117764D02*
X110732309Y-44165383D01*
X110732309Y-44165383D02*
X110708500Y-44213002D01*
X110708500Y-44213002D02*
X110684690Y-44236811D01*
X110684690Y-44236811D02*
X110637071Y-44260621D01*
X110637071Y-44260621D02*
X110541833Y-44284430D01*
X110541833Y-44284430D02*
X110422785Y-44284430D01*
X110422785Y-44284430D02*
X110327547Y-44260621D01*
X110327547Y-44260621D02*
X110279928Y-44236811D01*
X110279928Y-44236811D02*
X110256119Y-44213002D01*
X110256119Y-44213002D02*
X110232309Y-44165383D01*
X110541833Y-43784431D02*
X110541833Y-43403479D01*
X110732309Y-43165383D02*
X110232309Y-43165383D01*
X110232309Y-43165383D02*
X110589452Y-42998716D01*
X110589452Y-42998716D02*
X110232309Y-42832050D01*
X110232309Y-42832050D02*
X110732309Y-42832050D01*
X110732309Y-42593954D02*
X110232309Y-42593954D01*
X110708500Y-42379668D02*
X110732309Y-42308240D01*
X110732309Y-42308240D02*
X110732309Y-42189192D01*
X110732309Y-42189192D02*
X110708500Y-42141573D01*
X110708500Y-42141573D02*
X110684690Y-42117764D01*
X110684690Y-42117764D02*
X110637071Y-42093954D01*
X110637071Y-42093954D02*
X110589452Y-42093954D01*
X110589452Y-42093954D02*
X110541833Y-42117764D01*
X110541833Y-42117764D02*
X110518023Y-42141573D01*
X110518023Y-42141573D02*
X110494214Y-42189192D01*
X110494214Y-42189192D02*
X110470404Y-42284430D01*
X110470404Y-42284430D02*
X110446595Y-42332049D01*
X110446595Y-42332049D02*
X110422785Y-42355859D01*
X110422785Y-42355859D02*
X110375166Y-42379668D01*
X110375166Y-42379668D02*
X110327547Y-42379668D01*
X110327547Y-42379668D02*
X110279928Y-42355859D01*
X110279928Y-42355859D02*
X110256119Y-42332049D01*
X110256119Y-42332049D02*
X110232309Y-42284430D01*
X110232309Y-42284430D02*
X110232309Y-42165383D01*
X110232309Y-42165383D02*
X110256119Y-42093954D01*
X110232309Y-41784431D02*
X110232309Y-41689193D01*
X110232309Y-41689193D02*
X110256119Y-41641574D01*
X110256119Y-41641574D02*
X110303738Y-41593955D01*
X110303738Y-41593955D02*
X110398976Y-41570145D01*
X110398976Y-41570145D02*
X110565642Y-41570145D01*
X110565642Y-41570145D02*
X110660880Y-41593955D01*
X110660880Y-41593955D02*
X110708500Y-41641574D01*
X110708500Y-41641574D02*
X110732309Y-41689193D01*
X110732309Y-41689193D02*
X110732309Y-41784431D01*
X110732309Y-41784431D02*
X110708500Y-41832050D01*
X110708500Y-41832050D02*
X110660880Y-41879669D01*
X110660880Y-41879669D02*
X110565642Y-41903478D01*
X110565642Y-41903478D02*
X110398976Y-41903478D01*
X110398976Y-41903478D02*
X110303738Y-41879669D01*
X110303738Y-41879669D02*
X110256119Y-41832050D01*
X110256119Y-41832050D02*
X110232309Y-41784431D01*
X110398976Y-41355859D02*
X110541833Y-40974907D01*
X110541833Y-40974907D02*
X110684690Y-41355859D01*
X120191283Y-42002309D02*
X120191283Y-41502309D01*
X120191283Y-41502309D02*
X120381759Y-41502309D01*
X120381759Y-41502309D02*
X120429378Y-41526119D01*
X120429378Y-41526119D02*
X120453188Y-41549928D01*
X120453188Y-41549928D02*
X120476997Y-41597547D01*
X120476997Y-41597547D02*
X120476997Y-41668976D01*
X120476997Y-41668976D02*
X120453188Y-41716595D01*
X120453188Y-41716595D02*
X120429378Y-41740404D01*
X120429378Y-41740404D02*
X120381759Y-41764214D01*
X120381759Y-41764214D02*
X120191283Y-41764214D01*
X120905569Y-41668976D02*
X120905569Y-42002309D01*
X120691283Y-41668976D02*
X120691283Y-41930880D01*
X120691283Y-41930880D02*
X120715093Y-41978500D01*
X120715093Y-41978500D02*
X120762712Y-42002309D01*
X120762712Y-42002309D02*
X120834140Y-42002309D01*
X120834140Y-42002309D02*
X120881759Y-41978500D01*
X120881759Y-41978500D02*
X120905569Y-41954690D01*
X121119855Y-41978500D02*
X121167474Y-42002309D01*
X121167474Y-42002309D02*
X121262712Y-42002309D01*
X121262712Y-42002309D02*
X121310331Y-41978500D01*
X121310331Y-41978500D02*
X121334140Y-41930880D01*
X121334140Y-41930880D02*
X121334140Y-41907071D01*
X121334140Y-41907071D02*
X121310331Y-41859452D01*
X121310331Y-41859452D02*
X121262712Y-41835642D01*
X121262712Y-41835642D02*
X121191283Y-41835642D01*
X121191283Y-41835642D02*
X121143664Y-41811833D01*
X121143664Y-41811833D02*
X121119855Y-41764214D01*
X121119855Y-41764214D02*
X121119855Y-41740404D01*
X121119855Y-41740404D02*
X121143664Y-41692785D01*
X121143664Y-41692785D02*
X121191283Y-41668976D01*
X121191283Y-41668976D02*
X121262712Y-41668976D01*
X121262712Y-41668976D02*
X121310331Y-41692785D01*
X121548426Y-42002309D02*
X121548426Y-41502309D01*
X121762712Y-42002309D02*
X121762712Y-41740404D01*
X121762712Y-41740404D02*
X121738902Y-41692785D01*
X121738902Y-41692785D02*
X121691283Y-41668976D01*
X121691283Y-41668976D02*
X121619855Y-41668976D01*
X121619855Y-41668976D02*
X121572236Y-41692785D01*
X121572236Y-41692785D02*
X121548426Y-41716595D01*
X121881760Y-42049928D02*
X122262712Y-42049928D01*
X122643664Y-41526119D02*
X122596045Y-41502309D01*
X122596045Y-41502309D02*
X122524616Y-41502309D01*
X122524616Y-41502309D02*
X122453188Y-41526119D01*
X122453188Y-41526119D02*
X122405569Y-41573738D01*
X122405569Y-41573738D02*
X122381759Y-41621357D01*
X122381759Y-41621357D02*
X122357950Y-41716595D01*
X122357950Y-41716595D02*
X122357950Y-41788023D01*
X122357950Y-41788023D02*
X122381759Y-41883261D01*
X122381759Y-41883261D02*
X122405569Y-41930880D01*
X122405569Y-41930880D02*
X122453188Y-41978500D01*
X122453188Y-41978500D02*
X122524616Y-42002309D01*
X122524616Y-42002309D02*
X122572235Y-42002309D01*
X122572235Y-42002309D02*
X122643664Y-41978500D01*
X122643664Y-41978500D02*
X122667473Y-41954690D01*
X122667473Y-41954690D02*
X122667473Y-41788023D01*
X122667473Y-41788023D02*
X122572235Y-41788023D01*
X122881759Y-42002309D02*
X122881759Y-41502309D01*
X122881759Y-41502309D02*
X123072235Y-41502309D01*
X123072235Y-41502309D02*
X123119854Y-41526119D01*
X123119854Y-41526119D02*
X123143664Y-41549928D01*
X123143664Y-41549928D02*
X123167473Y-41597547D01*
X123167473Y-41597547D02*
X123167473Y-41668976D01*
X123167473Y-41668976D02*
X123143664Y-41716595D01*
X123143664Y-41716595D02*
X123119854Y-41740404D01*
X123119854Y-41740404D02*
X123072235Y-41764214D01*
X123072235Y-41764214D02*
X122881759Y-41764214D01*
X123381759Y-42002309D02*
X123381759Y-41502309D01*
X123715092Y-41502309D02*
X123810330Y-41502309D01*
X123810330Y-41502309D02*
X123857949Y-41526119D01*
X123857949Y-41526119D02*
X123905568Y-41573738D01*
X123905568Y-41573738D02*
X123929378Y-41668976D01*
X123929378Y-41668976D02*
X123929378Y-41835642D01*
X123929378Y-41835642D02*
X123905568Y-41930880D01*
X123905568Y-41930880D02*
X123857949Y-41978500D01*
X123857949Y-41978500D02*
X123810330Y-42002309D01*
X123810330Y-42002309D02*
X123715092Y-42002309D01*
X123715092Y-42002309D02*
X123667473Y-41978500D01*
X123667473Y-41978500D02*
X123619854Y-41930880D01*
X123619854Y-41930880D02*
X123596045Y-41835642D01*
X123596045Y-41835642D02*
X123596045Y-41668976D01*
X123596045Y-41668976D02*
X123619854Y-41573738D01*
X123619854Y-41573738D02*
X123667473Y-41526119D01*
X123667473Y-41526119D02*
X123715092Y-41502309D01*
X124119855Y-41549928D02*
X124143664Y-41526119D01*
X124143664Y-41526119D02*
X124191283Y-41502309D01*
X124191283Y-41502309D02*
X124310331Y-41502309D01*
X124310331Y-41502309D02*
X124357950Y-41526119D01*
X124357950Y-41526119D02*
X124381759Y-41549928D01*
X124381759Y-41549928D02*
X124405569Y-41597547D01*
X124405569Y-41597547D02*
X124405569Y-41645166D01*
X124405569Y-41645166D02*
X124381759Y-41716595D01*
X124381759Y-41716595D02*
X124096045Y-42002309D01*
X124096045Y-42002309D02*
X124405569Y-42002309D01*
X124881759Y-42002309D02*
X124596045Y-42002309D01*
X124738902Y-42002309D02*
X124738902Y-41502309D01*
X124738902Y-41502309D02*
X124691283Y-41573738D01*
X124691283Y-41573738D02*
X124643664Y-41621357D01*
X124643664Y-41621357D02*
X124596045Y-41645166D01*
X125096044Y-41668976D02*
X125476997Y-41811833D01*
X125476997Y-41811833D02*
X125096044Y-41954690D01*
X108426119Y-46346811D02*
X108402309Y-46394430D01*
X108402309Y-46394430D02*
X108402309Y-46465859D01*
X108402309Y-46465859D02*
X108426119Y-46537287D01*
X108426119Y-46537287D02*
X108473738Y-46584906D01*
X108473738Y-46584906D02*
X108521357Y-46608716D01*
X108521357Y-46608716D02*
X108616595Y-46632525D01*
X108616595Y-46632525D02*
X108688023Y-46632525D01*
X108688023Y-46632525D02*
X108783261Y-46608716D01*
X108783261Y-46608716D02*
X108830880Y-46584906D01*
X108830880Y-46584906D02*
X108878500Y-46537287D01*
X108878500Y-46537287D02*
X108902309Y-46465859D01*
X108902309Y-46465859D02*
X108902309Y-46418240D01*
X108902309Y-46418240D02*
X108878500Y-46346811D01*
X108878500Y-46346811D02*
X108854690Y-46323002D01*
X108854690Y-46323002D02*
X108688023Y-46323002D01*
X108688023Y-46323002D02*
X108688023Y-46418240D01*
X108902309Y-46108716D02*
X108402309Y-46108716D01*
X108402309Y-46108716D02*
X108402309Y-45918240D01*
X108402309Y-45918240D02*
X108426119Y-45870621D01*
X108426119Y-45870621D02*
X108449928Y-45846811D01*
X108449928Y-45846811D02*
X108497547Y-45823002D01*
X108497547Y-45823002D02*
X108568976Y-45823002D01*
X108568976Y-45823002D02*
X108616595Y-45846811D01*
X108616595Y-45846811D02*
X108640404Y-45870621D01*
X108640404Y-45870621D02*
X108664214Y-45918240D01*
X108664214Y-45918240D02*
X108664214Y-46108716D01*
X108902309Y-45608716D02*
X108402309Y-45608716D01*
X108402309Y-45275383D02*
X108402309Y-45180145D01*
X108402309Y-45180145D02*
X108426119Y-45132526D01*
X108426119Y-45132526D02*
X108473738Y-45084907D01*
X108473738Y-45084907D02*
X108568976Y-45061097D01*
X108568976Y-45061097D02*
X108735642Y-45061097D01*
X108735642Y-45061097D02*
X108830880Y-45084907D01*
X108830880Y-45084907D02*
X108878500Y-45132526D01*
X108878500Y-45132526D02*
X108902309Y-45180145D01*
X108902309Y-45180145D02*
X108902309Y-45275383D01*
X108902309Y-45275383D02*
X108878500Y-45323002D01*
X108878500Y-45323002D02*
X108830880Y-45370621D01*
X108830880Y-45370621D02*
X108735642Y-45394430D01*
X108735642Y-45394430D02*
X108568976Y-45394430D01*
X108568976Y-45394430D02*
X108473738Y-45370621D01*
X108473738Y-45370621D02*
X108426119Y-45323002D01*
X108426119Y-45323002D02*
X108402309Y-45275383D01*
X108568976Y-44632525D02*
X108902309Y-44632525D01*
X108378500Y-44751573D02*
X108735642Y-44870620D01*
X108735642Y-44870620D02*
X108735642Y-44561097D01*
X108902309Y-44108716D02*
X108902309Y-44394430D01*
X108902309Y-44251573D02*
X108402309Y-44251573D01*
X108402309Y-44251573D02*
X108473738Y-44299192D01*
X108473738Y-44299192D02*
X108521357Y-44346811D01*
X108521357Y-44346811D02*
X108545166Y-44394430D01*
X108711833Y-43894431D02*
X108711833Y-43513479D01*
X108902309Y-43275383D02*
X108402309Y-43275383D01*
X108402309Y-43275383D02*
X108759452Y-43108716D01*
X108759452Y-43108716D02*
X108402309Y-42942050D01*
X108402309Y-42942050D02*
X108902309Y-42942050D01*
X108402309Y-42608716D02*
X108402309Y-42513478D01*
X108402309Y-42513478D02*
X108426119Y-42465859D01*
X108426119Y-42465859D02*
X108473738Y-42418240D01*
X108473738Y-42418240D02*
X108568976Y-42394430D01*
X108568976Y-42394430D02*
X108735642Y-42394430D01*
X108735642Y-42394430D02*
X108830880Y-42418240D01*
X108830880Y-42418240D02*
X108878500Y-42465859D01*
X108878500Y-42465859D02*
X108902309Y-42513478D01*
X108902309Y-42513478D02*
X108902309Y-42608716D01*
X108902309Y-42608716D02*
X108878500Y-42656335D01*
X108878500Y-42656335D02*
X108830880Y-42703954D01*
X108830880Y-42703954D02*
X108735642Y-42727763D01*
X108735642Y-42727763D02*
X108568976Y-42727763D01*
X108568976Y-42727763D02*
X108473738Y-42703954D01*
X108473738Y-42703954D02*
X108426119Y-42656335D01*
X108426119Y-42656335D02*
X108402309Y-42608716D01*
X108878500Y-42203953D02*
X108902309Y-42132525D01*
X108902309Y-42132525D02*
X108902309Y-42013477D01*
X108902309Y-42013477D02*
X108878500Y-41965858D01*
X108878500Y-41965858D02*
X108854690Y-41942049D01*
X108854690Y-41942049D02*
X108807071Y-41918239D01*
X108807071Y-41918239D02*
X108759452Y-41918239D01*
X108759452Y-41918239D02*
X108711833Y-41942049D01*
X108711833Y-41942049D02*
X108688023Y-41965858D01*
X108688023Y-41965858D02*
X108664214Y-42013477D01*
X108664214Y-42013477D02*
X108640404Y-42108715D01*
X108640404Y-42108715D02*
X108616595Y-42156334D01*
X108616595Y-42156334D02*
X108592785Y-42180144D01*
X108592785Y-42180144D02*
X108545166Y-42203953D01*
X108545166Y-42203953D02*
X108497547Y-42203953D01*
X108497547Y-42203953D02*
X108449928Y-42180144D01*
X108449928Y-42180144D02*
X108426119Y-42156334D01*
X108426119Y-42156334D02*
X108402309Y-42108715D01*
X108402309Y-42108715D02*
X108402309Y-41989668D01*
X108402309Y-41989668D02*
X108426119Y-41918239D01*
X108902309Y-41703954D02*
X108402309Y-41703954D01*
X108568976Y-41465859D02*
X108711833Y-41084907D01*
X108711833Y-41084907D02*
X108854690Y-41465859D01*
X116072309Y-42640621D02*
X116072309Y-42878716D01*
X116072309Y-42878716D02*
X115572309Y-42878716D01*
X115810404Y-42473954D02*
X115810404Y-42307287D01*
X116072309Y-42235859D02*
X116072309Y-42473954D01*
X116072309Y-42473954D02*
X115572309Y-42473954D01*
X115572309Y-42473954D02*
X115572309Y-42235859D01*
X116072309Y-42021573D02*
X115572309Y-42021573D01*
X115572309Y-42021573D02*
X115572309Y-41902525D01*
X115572309Y-41902525D02*
X115596119Y-41831097D01*
X115596119Y-41831097D02*
X115643738Y-41783478D01*
X115643738Y-41783478D02*
X115691357Y-41759668D01*
X115691357Y-41759668D02*
X115786595Y-41735859D01*
X115786595Y-41735859D02*
X115858023Y-41735859D01*
X115858023Y-41735859D02*
X115953261Y-41759668D01*
X115953261Y-41759668D02*
X116000880Y-41783478D01*
X116000880Y-41783478D02*
X116048500Y-41831097D01*
X116048500Y-41831097D02*
X116072309Y-41902525D01*
X116072309Y-41902525D02*
X116072309Y-42021573D01*
X115738976Y-41521573D02*
X115881833Y-41140621D01*
X115881833Y-41140621D02*
X116024690Y-41521573D01*
X113068166Y-26041283D02*
X113068166Y-26422236D01*
X112877690Y-26231759D02*
X113258642Y-26231759D01*
X112877690Y-26922236D02*
X112877690Y-26636522D01*
X112877690Y-26779379D02*
X113377690Y-26779379D01*
X113377690Y-26779379D02*
X113306261Y-26731760D01*
X113306261Y-26731760D02*
X113258642Y-26684141D01*
X113258642Y-26684141D02*
X113234833Y-26636522D01*
X112925309Y-27136521D02*
X112901500Y-27160331D01*
X112901500Y-27160331D02*
X112877690Y-27136521D01*
X112877690Y-27136521D02*
X112901500Y-27112712D01*
X112901500Y-27112712D02*
X112925309Y-27136521D01*
X112925309Y-27136521D02*
X112877690Y-27136521D01*
X113163404Y-27446045D02*
X113187214Y-27398426D01*
X113187214Y-27398426D02*
X113211023Y-27374616D01*
X113211023Y-27374616D02*
X113258642Y-27350807D01*
X113258642Y-27350807D02*
X113282452Y-27350807D01*
X113282452Y-27350807D02*
X113330071Y-27374616D01*
X113330071Y-27374616D02*
X113353880Y-27398426D01*
X113353880Y-27398426D02*
X113377690Y-27446045D01*
X113377690Y-27446045D02*
X113377690Y-27541283D01*
X113377690Y-27541283D02*
X113353880Y-27588902D01*
X113353880Y-27588902D02*
X113330071Y-27612711D01*
X113330071Y-27612711D02*
X113282452Y-27636521D01*
X113282452Y-27636521D02*
X113258642Y-27636521D01*
X113258642Y-27636521D02*
X113211023Y-27612711D01*
X113211023Y-27612711D02*
X113187214Y-27588902D01*
X113187214Y-27588902D02*
X113163404Y-27541283D01*
X113163404Y-27541283D02*
X113163404Y-27446045D01*
X113163404Y-27446045D02*
X113139595Y-27398426D01*
X113139595Y-27398426D02*
X113115785Y-27374616D01*
X113115785Y-27374616D02*
X113068166Y-27350807D01*
X113068166Y-27350807D02*
X112972928Y-27350807D01*
X112972928Y-27350807D02*
X112925309Y-27374616D01*
X112925309Y-27374616D02*
X112901500Y-27398426D01*
X112901500Y-27398426D02*
X112877690Y-27446045D01*
X112877690Y-27446045D02*
X112877690Y-27541283D01*
X112877690Y-27541283D02*
X112901500Y-27588902D01*
X112901500Y-27588902D02*
X112925309Y-27612711D01*
X112925309Y-27612711D02*
X112972928Y-27636521D01*
X112972928Y-27636521D02*
X113068166Y-27636521D01*
X113068166Y-27636521D02*
X113115785Y-27612711D01*
X113115785Y-27612711D02*
X113139595Y-27588902D01*
X113139595Y-27588902D02*
X113163404Y-27541283D01*
X113377690Y-27779378D02*
X112877690Y-27946044D01*
X112877690Y-27946044D02*
X113377690Y-28112711D01*
X113211023Y-28279377D02*
X113068166Y-28660330D01*
X113068166Y-28660330D02*
X112925309Y-28279377D01*
X121671283Y-46942309D02*
X121671283Y-46442309D01*
X121671283Y-46442309D02*
X121790331Y-46442309D01*
X121790331Y-46442309D02*
X121861759Y-46466119D01*
X121861759Y-46466119D02*
X121909378Y-46513738D01*
X121909378Y-46513738D02*
X121933188Y-46561357D01*
X121933188Y-46561357D02*
X121956997Y-46656595D01*
X121956997Y-46656595D02*
X121956997Y-46728023D01*
X121956997Y-46728023D02*
X121933188Y-46823261D01*
X121933188Y-46823261D02*
X121909378Y-46870880D01*
X121909378Y-46870880D02*
X121861759Y-46918500D01*
X121861759Y-46918500D02*
X121790331Y-46942309D01*
X121790331Y-46942309D02*
X121671283Y-46942309D01*
X122171283Y-46942309D02*
X122171283Y-46442309D01*
X122695092Y-46942309D02*
X122528426Y-46704214D01*
X122409378Y-46942309D02*
X122409378Y-46442309D01*
X122409378Y-46442309D02*
X122599854Y-46442309D01*
X122599854Y-46442309D02*
X122647473Y-46466119D01*
X122647473Y-46466119D02*
X122671283Y-46489928D01*
X122671283Y-46489928D02*
X122695092Y-46537547D01*
X122695092Y-46537547D02*
X122695092Y-46608976D01*
X122695092Y-46608976D02*
X122671283Y-46656595D01*
X122671283Y-46656595D02*
X122647473Y-46680404D01*
X122647473Y-46680404D02*
X122599854Y-46704214D01*
X122599854Y-46704214D02*
X122409378Y-46704214D01*
X122909378Y-46751833D02*
X123290331Y-46751833D01*
X123790331Y-46466119D02*
X123742712Y-46442309D01*
X123742712Y-46442309D02*
X123671283Y-46442309D01*
X123671283Y-46442309D02*
X123599855Y-46466119D01*
X123599855Y-46466119D02*
X123552236Y-46513738D01*
X123552236Y-46513738D02*
X123528426Y-46561357D01*
X123528426Y-46561357D02*
X123504617Y-46656595D01*
X123504617Y-46656595D02*
X123504617Y-46728023D01*
X123504617Y-46728023D02*
X123528426Y-46823261D01*
X123528426Y-46823261D02*
X123552236Y-46870880D01*
X123552236Y-46870880D02*
X123599855Y-46918500D01*
X123599855Y-46918500D02*
X123671283Y-46942309D01*
X123671283Y-46942309D02*
X123718902Y-46942309D01*
X123718902Y-46942309D02*
X123790331Y-46918500D01*
X123790331Y-46918500D02*
X123814140Y-46894690D01*
X123814140Y-46894690D02*
X123814140Y-46728023D01*
X123814140Y-46728023D02*
X123718902Y-46728023D01*
X124028426Y-46942309D02*
X124028426Y-46442309D01*
X124028426Y-46442309D02*
X124218902Y-46442309D01*
X124218902Y-46442309D02*
X124266521Y-46466119D01*
X124266521Y-46466119D02*
X124290331Y-46489928D01*
X124290331Y-46489928D02*
X124314140Y-46537547D01*
X124314140Y-46537547D02*
X124314140Y-46608976D01*
X124314140Y-46608976D02*
X124290331Y-46656595D01*
X124290331Y-46656595D02*
X124266521Y-46680404D01*
X124266521Y-46680404D02*
X124218902Y-46704214D01*
X124218902Y-46704214D02*
X124028426Y-46704214D01*
X124528426Y-46942309D02*
X124528426Y-46442309D01*
X124861759Y-46442309D02*
X124956997Y-46442309D01*
X124956997Y-46442309D02*
X125004616Y-46466119D01*
X125004616Y-46466119D02*
X125052235Y-46513738D01*
X125052235Y-46513738D02*
X125076045Y-46608976D01*
X125076045Y-46608976D02*
X125076045Y-46775642D01*
X125076045Y-46775642D02*
X125052235Y-46870880D01*
X125052235Y-46870880D02*
X125004616Y-46918500D01*
X125004616Y-46918500D02*
X124956997Y-46942309D01*
X124956997Y-46942309D02*
X124861759Y-46942309D01*
X124861759Y-46942309D02*
X124814140Y-46918500D01*
X124814140Y-46918500D02*
X124766521Y-46870880D01*
X124766521Y-46870880D02*
X124742712Y-46775642D01*
X124742712Y-46775642D02*
X124742712Y-46608976D01*
X124742712Y-46608976D02*
X124766521Y-46513738D01*
X124766521Y-46513738D02*
X124814140Y-46466119D01*
X124814140Y-46466119D02*
X124861759Y-46442309D01*
X125242712Y-46442309D02*
X125552236Y-46442309D01*
X125552236Y-46442309D02*
X125385569Y-46632785D01*
X125385569Y-46632785D02*
X125456998Y-46632785D01*
X125456998Y-46632785D02*
X125504617Y-46656595D01*
X125504617Y-46656595D02*
X125528426Y-46680404D01*
X125528426Y-46680404D02*
X125552236Y-46728023D01*
X125552236Y-46728023D02*
X125552236Y-46847071D01*
X125552236Y-46847071D02*
X125528426Y-46894690D01*
X125528426Y-46894690D02*
X125504617Y-46918500D01*
X125504617Y-46918500D02*
X125456998Y-46942309D01*
X125456998Y-46942309D02*
X125314141Y-46942309D01*
X125314141Y-46942309D02*
X125266522Y-46918500D01*
X125266522Y-46918500D02*
X125242712Y-46894690D01*
X125718902Y-46442309D02*
X126052235Y-46442309D01*
X126052235Y-46442309D02*
X125837950Y-46942309D01*
X126242711Y-46608976D02*
X126623664Y-46751833D01*
X126623664Y-46751833D02*
X126242711Y-46894690D01*
X111358166Y-26021283D02*
X111358166Y-26402236D01*
X111167690Y-26211759D02*
X111548642Y-26211759D01*
X111667690Y-26592712D02*
X111667690Y-26902236D01*
X111667690Y-26902236D02*
X111477214Y-26735569D01*
X111477214Y-26735569D02*
X111477214Y-26806998D01*
X111477214Y-26806998D02*
X111453404Y-26854617D01*
X111453404Y-26854617D02*
X111429595Y-26878426D01*
X111429595Y-26878426D02*
X111381976Y-26902236D01*
X111381976Y-26902236D02*
X111262928Y-26902236D01*
X111262928Y-26902236D02*
X111215309Y-26878426D01*
X111215309Y-26878426D02*
X111191500Y-26854617D01*
X111191500Y-26854617D02*
X111167690Y-26806998D01*
X111167690Y-26806998D02*
X111167690Y-26664141D01*
X111167690Y-26664141D02*
X111191500Y-26616522D01*
X111191500Y-26616522D02*
X111215309Y-26592712D01*
X111215309Y-27116521D02*
X111191500Y-27140331D01*
X111191500Y-27140331D02*
X111167690Y-27116521D01*
X111167690Y-27116521D02*
X111191500Y-27092712D01*
X111191500Y-27092712D02*
X111215309Y-27116521D01*
X111215309Y-27116521D02*
X111167690Y-27116521D01*
X111667690Y-27306997D02*
X111667690Y-27616521D01*
X111667690Y-27616521D02*
X111477214Y-27449854D01*
X111477214Y-27449854D02*
X111477214Y-27521283D01*
X111477214Y-27521283D02*
X111453404Y-27568902D01*
X111453404Y-27568902D02*
X111429595Y-27592711D01*
X111429595Y-27592711D02*
X111381976Y-27616521D01*
X111381976Y-27616521D02*
X111262928Y-27616521D01*
X111262928Y-27616521D02*
X111215309Y-27592711D01*
X111215309Y-27592711D02*
X111191500Y-27568902D01*
X111191500Y-27568902D02*
X111167690Y-27521283D01*
X111167690Y-27521283D02*
X111167690Y-27378426D01*
X111167690Y-27378426D02*
X111191500Y-27330807D01*
X111191500Y-27330807D02*
X111215309Y-27306997D01*
X111667690Y-27759378D02*
X111167690Y-27926044D01*
X111167690Y-27926044D02*
X111667690Y-28092711D01*
X111501023Y-28259377D02*
X111358166Y-28640330D01*
X111358166Y-28640330D02*
X111215309Y-28259377D01*
X125142236Y-70508976D02*
X124761283Y-70651833D01*
X124761283Y-70651833D02*
X125142236Y-70794690D01*
X125642236Y-70366119D02*
X125594617Y-70342309D01*
X125594617Y-70342309D02*
X125523188Y-70342309D01*
X125523188Y-70342309D02*
X125451760Y-70366119D01*
X125451760Y-70366119D02*
X125404141Y-70413738D01*
X125404141Y-70413738D02*
X125380331Y-70461357D01*
X125380331Y-70461357D02*
X125356522Y-70556595D01*
X125356522Y-70556595D02*
X125356522Y-70628023D01*
X125356522Y-70628023D02*
X125380331Y-70723261D01*
X125380331Y-70723261D02*
X125404141Y-70770880D01*
X125404141Y-70770880D02*
X125451760Y-70818500D01*
X125451760Y-70818500D02*
X125523188Y-70842309D01*
X125523188Y-70842309D02*
X125570807Y-70842309D01*
X125570807Y-70842309D02*
X125642236Y-70818500D01*
X125642236Y-70818500D02*
X125666045Y-70794690D01*
X125666045Y-70794690D02*
X125666045Y-70628023D01*
X125666045Y-70628023D02*
X125570807Y-70628023D01*
X125880331Y-70842309D02*
X125880331Y-70342309D01*
X125880331Y-70342309D02*
X126070807Y-70342309D01*
X126070807Y-70342309D02*
X126118426Y-70366119D01*
X126118426Y-70366119D02*
X126142236Y-70389928D01*
X126142236Y-70389928D02*
X126166045Y-70437547D01*
X126166045Y-70437547D02*
X126166045Y-70508976D01*
X126166045Y-70508976D02*
X126142236Y-70556595D01*
X126142236Y-70556595D02*
X126118426Y-70580404D01*
X126118426Y-70580404D02*
X126070807Y-70604214D01*
X126070807Y-70604214D02*
X125880331Y-70604214D01*
X126380331Y-70842309D02*
X126380331Y-70342309D01*
X126713664Y-70342309D02*
X126808902Y-70342309D01*
X126808902Y-70342309D02*
X126856521Y-70366119D01*
X126856521Y-70366119D02*
X126904140Y-70413738D01*
X126904140Y-70413738D02*
X126927950Y-70508976D01*
X126927950Y-70508976D02*
X126927950Y-70675642D01*
X126927950Y-70675642D02*
X126904140Y-70770880D01*
X126904140Y-70770880D02*
X126856521Y-70818500D01*
X126856521Y-70818500D02*
X126808902Y-70842309D01*
X126808902Y-70842309D02*
X126713664Y-70842309D01*
X126713664Y-70842309D02*
X126666045Y-70818500D01*
X126666045Y-70818500D02*
X126618426Y-70770880D01*
X126618426Y-70770880D02*
X126594617Y-70675642D01*
X126594617Y-70675642D02*
X126594617Y-70508976D01*
X126594617Y-70508976D02*
X126618426Y-70413738D01*
X126618426Y-70413738D02*
X126666045Y-70366119D01*
X126666045Y-70366119D02*
X126713664Y-70342309D01*
X127404141Y-70842309D02*
X127118427Y-70842309D01*
X127261284Y-70842309D02*
X127261284Y-70342309D01*
X127261284Y-70342309D02*
X127213665Y-70413738D01*
X127213665Y-70413738D02*
X127166046Y-70461357D01*
X127166046Y-70461357D02*
X127118427Y-70485166D01*
X127570807Y-70342309D02*
X127880331Y-70342309D01*
X127880331Y-70342309D02*
X127713664Y-70532785D01*
X127713664Y-70532785D02*
X127785093Y-70532785D01*
X127785093Y-70532785D02*
X127832712Y-70556595D01*
X127832712Y-70556595D02*
X127856521Y-70580404D01*
X127856521Y-70580404D02*
X127880331Y-70628023D01*
X127880331Y-70628023D02*
X127880331Y-70747071D01*
X127880331Y-70747071D02*
X127856521Y-70794690D01*
X127856521Y-70794690D02*
X127832712Y-70818500D01*
X127832712Y-70818500D02*
X127785093Y-70842309D01*
X127785093Y-70842309D02*
X127642236Y-70842309D01*
X127642236Y-70842309D02*
X127594617Y-70818500D01*
X127594617Y-70818500D02*
X127570807Y-70794690D01*
D13*
X134854000Y-33560000D02*
X134913000Y-33250000D01*
X134854000Y-37646000D02*
X134854000Y-33560000D01*
X134913000Y-33250000D02*
X135083000Y-32976000D01*
X135083000Y-32976000D02*
X135341000Y-32783000D01*
X135341000Y-32783000D02*
X135639000Y-32701000D01*
X135639000Y-32701000D02*
X136197000Y-32547000D01*
X135796000Y-37283000D02*
X135796000Y-37646000D01*
X135796000Y-37646000D02*
X134854000Y-37646000D01*
X136197000Y-32547000D02*
X136650000Y-32209000D01*
X136650000Y-32209000D02*
X136949000Y-31730000D01*
X136949000Y-31730000D02*
X137054000Y-31168000D01*
X137054000Y-28521000D02*
X138075000Y-27500000D01*
X137054000Y-31168000D02*
X137054000Y-28521000D01*
X139109000Y-37281000D02*
X138682000Y-37366000D01*
X139392000Y-37092000D02*
X139109000Y-37281000D01*
X139581000Y-36809000D02*
X139392000Y-37092000D01*
X139646000Y-33682000D02*
X139646000Y-36482000D01*
X139646000Y-36482000D02*
X139581000Y-36809000D01*
X139733000Y-33244000D02*
X139646000Y-33682000D01*
X139977000Y-32877000D02*
X139733000Y-33244000D01*
X140344000Y-32633000D02*
X139977000Y-32877000D01*
X140782000Y-32546000D02*
X140344000Y-32633000D01*
X140909000Y-27584000D02*
X141846000Y-28521000D01*
X141004000Y-32546000D02*
X140782000Y-32546000D01*
X141537000Y-32013000D02*
X141004000Y-32546000D01*
X141766000Y-31671000D02*
X141537000Y-32013000D01*
X141846000Y-28521000D02*
X141846000Y-31268000D01*
X141846000Y-31268000D02*
X141766000Y-31671000D01*
X134854000Y-69560000D02*
X134913000Y-69250000D01*
X134854000Y-73646000D02*
X134854000Y-69560000D01*
X134913000Y-69250000D02*
X135083000Y-68976000D01*
X135083000Y-68976000D02*
X135341000Y-68783000D01*
X135341000Y-68783000D02*
X135639000Y-68701000D01*
X135639000Y-68701000D02*
X136197000Y-68547000D01*
X135796000Y-73283000D02*
X135796000Y-73646000D01*
X135796000Y-73646000D02*
X134854000Y-73646000D01*
X136197000Y-68547000D02*
X136650000Y-68209000D01*
X136650000Y-68209000D02*
X136949000Y-67730000D01*
X136949000Y-67730000D02*
X137054000Y-67168000D01*
X137054000Y-64521000D02*
X138075000Y-63500000D01*
X137054000Y-67168000D02*
X137054000Y-64521000D01*
X139109000Y-73281000D02*
X138682000Y-73366000D01*
X139392000Y-73092000D02*
X139109000Y-73281000D01*
X139581000Y-72809000D02*
X139392000Y-73092000D01*
X139646000Y-69682000D02*
X139646000Y-72482000D01*
X139646000Y-72482000D02*
X139581000Y-72809000D01*
X139733000Y-69244000D02*
X139646000Y-69682000D01*
X139977000Y-68877000D02*
X139733000Y-69244000D01*
X140344000Y-68633000D02*
X139977000Y-68877000D01*
X140782000Y-68546000D02*
X140344000Y-68633000D01*
X140909000Y-63584000D02*
X141846000Y-64521000D01*
X141004000Y-68546000D02*
X140782000Y-68546000D01*
X141537000Y-68013000D02*
X141004000Y-68546000D01*
X141766000Y-67671000D02*
X141537000Y-68013000D01*
X141846000Y-64521000D02*
X141846000Y-67268000D01*
X141846000Y-67268000D02*
X141766000Y-67671000D01*
X94840000Y-29440000D02*
X94840000Y-35860000D01*
X94840000Y-35860000D02*
X95250000Y-35860000D01*
X95250000Y-29440000D02*
X94840000Y-29440000D01*
X96850000Y-35860000D02*
X99250000Y-35860000D01*
X99250000Y-29440000D02*
X96850000Y-29440000D01*
X100980000Y-35860000D02*
X101260000Y-35860000D01*
X101260000Y-29440000D02*
X100850000Y-29440000D01*
X101260000Y-35860000D02*
X101260000Y-29440000D01*
%LPC*%
D14*
X109700000Y-74000000D03*
D15*
X112240000Y-74000000D03*
X114780000Y-74000000D03*
X117320000Y-74000000D03*
D16*
X148500000Y-72000000D03*
X148500000Y-24000000D03*
D17*
X118515000Y-29450000D03*
D18*
X116735000Y-29450000D03*
X114955000Y-29450000D03*
X113175000Y-29450000D03*
X111395000Y-29450000D03*
X109615000Y-29450000D03*
X107835000Y-29450000D03*
X106055000Y-29450000D03*
X105165000Y-40150000D03*
X106945000Y-40150000D03*
X108725000Y-40150000D03*
X110505000Y-40150000D03*
X112285000Y-40150000D03*
X114065000Y-40150000D03*
X115845000Y-40150000D03*
X117625000Y-40150000D03*
D16*
X95500000Y-72000000D03*
X95500000Y-24000000D03*
D14*
X142580000Y-59000000D03*
X137500000Y-59000000D03*
X132420000Y-59000000D03*
D19*
X123400000Y-73140000D03*
D14*
X120860000Y-73140000D03*
X123400000Y-70600000D03*
X120860000Y-70600000D03*
X123400000Y-68060000D03*
X120860000Y-68060000D03*
X123400000Y-65520000D03*
X120860000Y-65520000D03*
D20*
X150520000Y-65800000D03*
D21*
X147980000Y-65800000D03*
D22*
X133500000Y-24500000D03*
D23*
X128350000Y-25000000D03*
D24*
X139400000Y-30000000D03*
D25*
X133500000Y-30000000D03*
D24*
X137300000Y-35000000D03*
D22*
X133500000Y-35500000D03*
D26*
X139500000Y-26500000D03*
X137300000Y-38500000D03*
D27*
X127875000Y-54300000D03*
D23*
X127875000Y-44190000D03*
X127875000Y-46730000D03*
X127875000Y-49270000D03*
X127875000Y-51810000D03*
X126650000Y-41800000D03*
X128500000Y-41800000D03*
D28*
X102050000Y-72900000D03*
D29*
X103300000Y-72900000D03*
X104550000Y-72900000D03*
X102050000Y-74150000D03*
X103300000Y-74150000D03*
X104550000Y-74150000D03*
D20*
X150620000Y-29950000D03*
D21*
X148080000Y-29950000D03*
D14*
X142580000Y-38000000D03*
X137500000Y-38000000D03*
X132420000Y-38000000D03*
D30*
X149200000Y-51920000D03*
X149200000Y-49380000D03*
X149200000Y-46840000D03*
X149200000Y-44300000D03*
D22*
X133500000Y-60500000D03*
D23*
X128350000Y-61000000D03*
D24*
X139400000Y-66000000D03*
D25*
X133500000Y-66000000D03*
D24*
X137300000Y-71000000D03*
D22*
X133500000Y-71500000D03*
D26*
X139500000Y-62500000D03*
X137300000Y-74500000D03*
D31*
X106040000Y-23000000D03*
X103500000Y-23000000D03*
X100960000Y-23000000D03*
D32*
X96050000Y-29750000D03*
X96050000Y-35550000D03*
X100050000Y-29750000D03*
X100050000Y-35550000D03*
%LPD*%
M02*
