%TF.GenerationSoftware,KiCad,Pcbnew,8.0.8*%
%TF.CreationDate,2025-02-01T16:26:25+01:00*%
%TF.ProjectId,Trackball,54726163-6b62-4616-9c6c-2e6b69636164,rev?*%
%TF.SameCoordinates,Original*%
%TF.FileFunction,Legend,Bot*%
%TF.FilePolarity,Positive*%
%FSLAX46Y46*%
G04 Gerber Fmt 4.6, Leading zero omitted, Abs format (unit mm)*
G04 Created by KiCad (PCBNEW 8.0.8) date 2025-02-01 16:26:25*
%MOMM*%
%LPD*%
G01*
G04 APERTURE LIST*
G04 Aperture macros list*
%AMRoundRect*
0 Rectangle with rounded corners*
0 $1 Rounding radius*
0 $2 $3 $4 $5 $6 $7 $8 $9 X,Y pos of 4 corners*
0 Add a 4 corners polygon primitive as box body*
4,1,4,$2,$3,$4,$5,$6,$7,$8,$9,$2,$3,0*
0 Add four circle primitives for the rounded corners*
1,1,$1+$1,$2,$3*
1,1,$1+$1,$4,$5*
1,1,$1+$1,$6,$7*
1,1,$1+$1,$8,$9*
0 Add four rect primitives between the rounded corners*
20,1,$1+$1,$2,$3,$4,$5,0*
20,1,$1+$1,$4,$5,$6,$7,0*
20,1,$1+$1,$6,$7,$8,$9,0*
20,1,$1+$1,$8,$9,$2,$3,0*%
G04 Aperture macros list end*
%ADD10C,0.120000*%
%ADD11C,1.700000*%
%ADD12RoundRect,0.625000X0.875000X-0.625000X0.875000X0.625000X-0.875000X0.625000X-0.875000X-0.625000X0*%
%ADD13O,1.700000X1.400000*%
%ADD14O,1.700000X1.700000*%
%ADD15C,3.200000*%
%ADD16R,2.000000X1.200000*%
%ADD17O,2.000000X1.200000*%
%ADD18RoundRect,0.250000X-0.600000X-0.600000X0.600000X-0.600000X0.600000X0.600000X-0.600000X0.600000X0*%
%ADD19R,1.800000X1.800000*%
%ADD20C,1.800000*%
%ADD21R,0.950000X0.950000*%
%ADD22C,0.950000*%
%ADD23O,2.000000X1.600000*%
%ADD24C,1.000000*%
G04 APERTURE END LIST*
D10*
X84000000Y-53300000D02*
G75*
G02*
X82600000Y-53300000I-700000J0D01*
G01*
X82600000Y-53300000D02*
G75*
G02*
X84000000Y-53300000I700000J0D01*
G01*
X84000000Y-55783333D02*
G75*
G02*
X82600000Y-55783333I-700000J0D01*
G01*
X82600000Y-55783333D02*
G75*
G02*
X84000000Y-55783333I700000J0D01*
G01*
X83200000Y-44283333D02*
G75*
G02*
X81800000Y-44283333I-700000J0D01*
G01*
X81800000Y-44283333D02*
G75*
G02*
X83200000Y-44283333I700000J0D01*
G01*
X85600000Y-44283333D02*
G75*
G02*
X84200000Y-44283333I-700000J0D01*
G01*
X84200000Y-44283333D02*
G75*
G02*
X85600000Y-44283333I700000J0D01*
G01*
X83200000Y-46983333D02*
G75*
G02*
X81800000Y-46983333I-700000J0D01*
G01*
X81800000Y-46983333D02*
G75*
G02*
X83200000Y-46983333I700000J0D01*
G01*
X84000000Y-50816667D02*
G75*
G02*
X82600000Y-50816667I-700000J0D01*
G01*
X82600000Y-50816667D02*
G75*
G02*
X84000000Y-50816667I700000J0D01*
G01*
X85600000Y-47033333D02*
G75*
G02*
X84200000Y-47033333I-700000J0D01*
G01*
X84200000Y-47033333D02*
G75*
G02*
X85600000Y-47033333I700000J0D01*
G01*
%LPC*%
D11*
X123050000Y-26990000D03*
X123050000Y-32070000D03*
X123050000Y-37150000D03*
X113050000Y-27340000D03*
X113050000Y-32420000D03*
X113050000Y-37500000D03*
D12*
X91050000Y-34970000D03*
X91050000Y-25970000D03*
D13*
X93050000Y-32970000D03*
X93050000Y-30470000D03*
X93050000Y-27970000D03*
D11*
X125050000Y-80840000D03*
D14*
X125050000Y-78300000D03*
X125050000Y-75760000D03*
X125050000Y-73220000D03*
D15*
X123050000Y-21550000D03*
X83050000Y-21550000D03*
D16*
X97700000Y-53735000D03*
D17*
X97700000Y-55515000D03*
X97700000Y-57295000D03*
X97700000Y-59075000D03*
X97700000Y-60855000D03*
X97700000Y-62635000D03*
X97700000Y-64415000D03*
X97700000Y-66195000D03*
X108400000Y-67085000D03*
X108400000Y-65305000D03*
X108400000Y-63525000D03*
X108400000Y-61745000D03*
X108400000Y-59965000D03*
X108400000Y-58185000D03*
X108400000Y-56405000D03*
X108400000Y-54625000D03*
D15*
X123050000Y-87650000D03*
X83050000Y-87650000D03*
D18*
X118550000Y-47720000D03*
D11*
X121090000Y-47720000D03*
X118550000Y-50260000D03*
X121090000Y-50260000D03*
X118550000Y-52800000D03*
X121090000Y-52800000D03*
X118550000Y-55340000D03*
X121090000Y-55340000D03*
D19*
X112300000Y-19560000D03*
D20*
X112300000Y-22100000D03*
D21*
X82750000Y-80950000D03*
D22*
X82750000Y-79700000D03*
X82750000Y-78450000D03*
X84000000Y-80950000D03*
X84000000Y-79700000D03*
X84000000Y-78450000D03*
D19*
X93850000Y-19680000D03*
D20*
X93850000Y-22220000D03*
D11*
X83050000Y-26990000D03*
X83050000Y-32070000D03*
X83050000Y-37150000D03*
D23*
X125800000Y-60220000D03*
X125800000Y-62760000D03*
X125800000Y-65300000D03*
X125800000Y-67840000D03*
D24*
X83300000Y-53300000D03*
X83300000Y-55783333D03*
X82500000Y-44283333D03*
X84900000Y-44283333D03*
X82500000Y-46983333D03*
X83300000Y-50816667D03*
X84900000Y-47033333D03*
%LPD*%
M02*
