%TF.GenerationSoftware,KiCad,Pcbnew,8.0.8*%
%TF.CreationDate,2025-02-01T16:26:25+01:00*%
%TF.ProjectId,Trackball,54726163-6b62-4616-9c6c-2e6b69636164,rev?*%
%TF.SameCoordinates,Original*%
%TF.FileFunction,AssemblyDrawing,Top*%
%FSLAX46Y46*%
G04 Gerber Fmt 4.6, Leading zero omitted, Abs format (unit mm)*
G04 Created by KiCad (PCBNEW 8.0.8) date 2025-02-01 16:26:25*
%MOMM*%
%LPD*%
G01*
G04 APERTURE LIST*
%ADD10C,0.150000*%
%ADD11C,0.075000*%
%ADD12C,0.120000*%
%ADD13C,0.080000*%
%ADD14C,0.060000*%
%ADD15C,0.100000*%
G04 APERTURE END LIST*
D10*
X121552200Y-34355713D02*
X121599819Y-34212856D01*
X121599819Y-34212856D02*
X121599819Y-33974761D01*
X121599819Y-33974761D02*
X121552200Y-33879523D01*
X121552200Y-33879523D02*
X121504580Y-33831904D01*
X121504580Y-33831904D02*
X121409342Y-33784285D01*
X121409342Y-33784285D02*
X121314104Y-33784285D01*
X121314104Y-33784285D02*
X121218866Y-33831904D01*
X121218866Y-33831904D02*
X121171247Y-33879523D01*
X121171247Y-33879523D02*
X121123628Y-33974761D01*
X121123628Y-33974761D02*
X121076009Y-34165237D01*
X121076009Y-34165237D02*
X121028390Y-34260475D01*
X121028390Y-34260475D02*
X120980771Y-34308094D01*
X120980771Y-34308094D02*
X120885533Y-34355713D01*
X120885533Y-34355713D02*
X120790295Y-34355713D01*
X120790295Y-34355713D02*
X120695057Y-34308094D01*
X120695057Y-34308094D02*
X120647438Y-34260475D01*
X120647438Y-34260475D02*
X120599819Y-34165237D01*
X120599819Y-34165237D02*
X120599819Y-33927142D01*
X120599819Y-33927142D02*
X120647438Y-33784285D01*
X120599819Y-33450951D02*
X121599819Y-33212856D01*
X121599819Y-33212856D02*
X120885533Y-33022380D01*
X120885533Y-33022380D02*
X121599819Y-32831904D01*
X121599819Y-32831904D02*
X120599819Y-32593809D01*
X121599819Y-31689047D02*
X121599819Y-32260475D01*
X121599819Y-31974761D02*
X120599819Y-31974761D01*
X120599819Y-31974761D02*
X120742676Y-32069999D01*
X120742676Y-32069999D02*
X120837914Y-32165237D01*
X120837914Y-32165237D02*
X120885533Y-32260475D01*
X120599819Y-31069999D02*
X120599819Y-30974761D01*
X120599819Y-30974761D02*
X120647438Y-30879523D01*
X120647438Y-30879523D02*
X120695057Y-30831904D01*
X120695057Y-30831904D02*
X120790295Y-30784285D01*
X120790295Y-30784285D02*
X120980771Y-30736666D01*
X120980771Y-30736666D02*
X121218866Y-30736666D01*
X121218866Y-30736666D02*
X121409342Y-30784285D01*
X121409342Y-30784285D02*
X121504580Y-30831904D01*
X121504580Y-30831904D02*
X121552200Y-30879523D01*
X121552200Y-30879523D02*
X121599819Y-30974761D01*
X121599819Y-30974761D02*
X121599819Y-31069999D01*
X121599819Y-31069999D02*
X121552200Y-31165237D01*
X121552200Y-31165237D02*
X121504580Y-31212856D01*
X121504580Y-31212856D02*
X121409342Y-31260475D01*
X121409342Y-31260475D02*
X121218866Y-31308094D01*
X121218866Y-31308094D02*
X120980771Y-31308094D01*
X120980771Y-31308094D02*
X120790295Y-31260475D01*
X120790295Y-31260475D02*
X120695057Y-31212856D01*
X120695057Y-31212856D02*
X120647438Y-31165237D01*
X120647438Y-31165237D02*
X120599819Y-31069999D01*
X120933152Y-29879523D02*
X121599819Y-29879523D01*
X120552200Y-30117618D02*
X121266485Y-30355713D01*
X121266485Y-30355713D02*
X121266485Y-29736666D01*
X111552200Y-33753332D02*
X111599819Y-33610475D01*
X111599819Y-33610475D02*
X111599819Y-33372380D01*
X111599819Y-33372380D02*
X111552200Y-33277142D01*
X111552200Y-33277142D02*
X111504580Y-33229523D01*
X111504580Y-33229523D02*
X111409342Y-33181904D01*
X111409342Y-33181904D02*
X111314104Y-33181904D01*
X111314104Y-33181904D02*
X111218866Y-33229523D01*
X111218866Y-33229523D02*
X111171247Y-33277142D01*
X111171247Y-33277142D02*
X111123628Y-33372380D01*
X111123628Y-33372380D02*
X111076009Y-33562856D01*
X111076009Y-33562856D02*
X111028390Y-33658094D01*
X111028390Y-33658094D02*
X110980771Y-33705713D01*
X110980771Y-33705713D02*
X110885533Y-33753332D01*
X110885533Y-33753332D02*
X110790295Y-33753332D01*
X110790295Y-33753332D02*
X110695057Y-33705713D01*
X110695057Y-33705713D02*
X110647438Y-33658094D01*
X110647438Y-33658094D02*
X110599819Y-33562856D01*
X110599819Y-33562856D02*
X110599819Y-33324761D01*
X110599819Y-33324761D02*
X110647438Y-33181904D01*
X110599819Y-32848570D02*
X111599819Y-32610475D01*
X111599819Y-32610475D02*
X110885533Y-32419999D01*
X110885533Y-32419999D02*
X111599819Y-32229523D01*
X111599819Y-32229523D02*
X110599819Y-31991428D01*
X110933152Y-31181904D02*
X111599819Y-31181904D01*
X110552200Y-31419999D02*
X111266485Y-31658094D01*
X111266485Y-31658094D02*
X111266485Y-31039047D01*
X86957200Y-31803332D02*
X87004819Y-31660475D01*
X87004819Y-31660475D02*
X87004819Y-31422380D01*
X87004819Y-31422380D02*
X86957200Y-31327142D01*
X86957200Y-31327142D02*
X86909580Y-31279523D01*
X86909580Y-31279523D02*
X86814342Y-31231904D01*
X86814342Y-31231904D02*
X86719104Y-31231904D01*
X86719104Y-31231904D02*
X86623866Y-31279523D01*
X86623866Y-31279523D02*
X86576247Y-31327142D01*
X86576247Y-31327142D02*
X86528628Y-31422380D01*
X86528628Y-31422380D02*
X86481009Y-31612856D01*
X86481009Y-31612856D02*
X86433390Y-31708094D01*
X86433390Y-31708094D02*
X86385771Y-31755713D01*
X86385771Y-31755713D02*
X86290533Y-31803332D01*
X86290533Y-31803332D02*
X86195295Y-31803332D01*
X86195295Y-31803332D02*
X86100057Y-31755713D01*
X86100057Y-31755713D02*
X86052438Y-31708094D01*
X86052438Y-31708094D02*
X86004819Y-31612856D01*
X86004819Y-31612856D02*
X86004819Y-31374761D01*
X86004819Y-31374761D02*
X86052438Y-31231904D01*
X86004819Y-30898570D02*
X87004819Y-30660475D01*
X87004819Y-30660475D02*
X86290533Y-30469999D01*
X86290533Y-30469999D02*
X87004819Y-30279523D01*
X87004819Y-30279523D02*
X86004819Y-30041428D01*
X86004819Y-29755713D02*
X86004819Y-29136666D01*
X86004819Y-29136666D02*
X86385771Y-29469999D01*
X86385771Y-29469999D02*
X86385771Y-29327142D01*
X86385771Y-29327142D02*
X86433390Y-29231904D01*
X86433390Y-29231904D02*
X86481009Y-29184285D01*
X86481009Y-29184285D02*
X86576247Y-29136666D01*
X86576247Y-29136666D02*
X86814342Y-29136666D01*
X86814342Y-29136666D02*
X86909580Y-29184285D01*
X86909580Y-29184285D02*
X86957200Y-29231904D01*
X86957200Y-29231904D02*
X87004819Y-29327142D01*
X87004819Y-29327142D02*
X87004819Y-29612856D01*
X87004819Y-29612856D02*
X86957200Y-29708094D01*
X86957200Y-29708094D02*
X86909580Y-29755713D01*
X124504819Y-77363333D02*
X125219104Y-77363333D01*
X125219104Y-77363333D02*
X125361961Y-77410952D01*
X125361961Y-77410952D02*
X125457200Y-77506190D01*
X125457200Y-77506190D02*
X125504819Y-77649047D01*
X125504819Y-77649047D02*
X125504819Y-77744285D01*
X125504819Y-76363333D02*
X125504819Y-76934761D01*
X125504819Y-76649047D02*
X124504819Y-76649047D01*
X124504819Y-76649047D02*
X124647676Y-76744285D01*
X124647676Y-76744285D02*
X124742914Y-76839523D01*
X124742914Y-76839523D02*
X124790533Y-76934761D01*
X123504819Y-22011904D02*
X122504819Y-22011904D01*
X122981009Y-22011904D02*
X122981009Y-21440476D01*
X123504819Y-21440476D02*
X122504819Y-21440476D01*
X122838152Y-20535714D02*
X123504819Y-20535714D01*
X122457200Y-20773809D02*
X123171485Y-21011904D01*
X123171485Y-21011904D02*
X123171485Y-20392857D01*
D11*
X118177409Y-67180952D02*
X118582171Y-67180952D01*
X118582171Y-67180952D02*
X118629790Y-67157142D01*
X118629790Y-67157142D02*
X118653600Y-67133333D01*
X118653600Y-67133333D02*
X118677409Y-67085714D01*
X118677409Y-67085714D02*
X118677409Y-66990476D01*
X118677409Y-66990476D02*
X118653600Y-66942857D01*
X118653600Y-66942857D02*
X118629790Y-66919047D01*
X118629790Y-66919047D02*
X118582171Y-66895238D01*
X118582171Y-66895238D02*
X118177409Y-66895238D01*
X118344076Y-66442856D02*
X118677409Y-66442856D01*
X118153600Y-66561904D02*
X118510742Y-66680951D01*
X118510742Y-66680951D02*
X118510742Y-66371428D01*
D10*
X83504819Y-22011904D02*
X82504819Y-22011904D01*
X82981009Y-22011904D02*
X82981009Y-21440476D01*
X83504819Y-21440476D02*
X82504819Y-21440476D01*
X82504819Y-21059523D02*
X82504819Y-20440476D01*
X82504819Y-20440476D02*
X82885771Y-20773809D01*
X82885771Y-20773809D02*
X82885771Y-20630952D01*
X82885771Y-20630952D02*
X82933390Y-20535714D01*
X82933390Y-20535714D02*
X82981009Y-20488095D01*
X82981009Y-20488095D02*
X83076247Y-20440476D01*
X83076247Y-20440476D02*
X83314342Y-20440476D01*
X83314342Y-20440476D02*
X83409580Y-20488095D01*
X83409580Y-20488095D02*
X83457200Y-20535714D01*
X83457200Y-20535714D02*
X83504819Y-20630952D01*
X83504819Y-20630952D02*
X83504819Y-20916666D01*
X83504819Y-20916666D02*
X83457200Y-21011904D01*
X83457200Y-21011904D02*
X83409580Y-21059523D01*
X123504819Y-88111904D02*
X122504819Y-88111904D01*
X122981009Y-88111904D02*
X122981009Y-87540476D01*
X123504819Y-87540476D02*
X122504819Y-87540476D01*
X122600057Y-87111904D02*
X122552438Y-87064285D01*
X122552438Y-87064285D02*
X122504819Y-86969047D01*
X122504819Y-86969047D02*
X122504819Y-86730952D01*
X122504819Y-86730952D02*
X122552438Y-86635714D01*
X122552438Y-86635714D02*
X122600057Y-86588095D01*
X122600057Y-86588095D02*
X122695295Y-86540476D01*
X122695295Y-86540476D02*
X122790533Y-86540476D01*
X122790533Y-86540476D02*
X122933390Y-86588095D01*
X122933390Y-86588095D02*
X123504819Y-87159523D01*
X123504819Y-87159523D02*
X123504819Y-86540476D01*
X83504819Y-88111904D02*
X82504819Y-88111904D01*
X82981009Y-88111904D02*
X82981009Y-87540476D01*
X83504819Y-87540476D02*
X82504819Y-87540476D01*
X83504819Y-86540476D02*
X83504819Y-87111904D01*
X83504819Y-86826190D02*
X82504819Y-86826190D01*
X82504819Y-86826190D02*
X82647676Y-86921428D01*
X82647676Y-86921428D02*
X82742914Y-87016666D01*
X82742914Y-87016666D02*
X82790533Y-87111904D01*
X119274819Y-51863333D02*
X119989104Y-51863333D01*
X119989104Y-51863333D02*
X120131961Y-51910952D01*
X120131961Y-51910952D02*
X120227200Y-52006190D01*
X120227200Y-52006190D02*
X120274819Y-52149047D01*
X120274819Y-52149047D02*
X120274819Y-52244285D01*
X119370057Y-51434761D02*
X119322438Y-51387142D01*
X119322438Y-51387142D02*
X119274819Y-51291904D01*
X119274819Y-51291904D02*
X119274819Y-51053809D01*
X119274819Y-51053809D02*
X119322438Y-50958571D01*
X119322438Y-50958571D02*
X119370057Y-50910952D01*
X119370057Y-50910952D02*
X119465295Y-50863333D01*
X119465295Y-50863333D02*
X119560533Y-50863333D01*
X119560533Y-50863333D02*
X119703390Y-50910952D01*
X119703390Y-50910952D02*
X120274819Y-51482380D01*
X120274819Y-51482380D02*
X120274819Y-50863333D01*
D12*
X112663855Y-22182380D02*
X111863855Y-22182380D01*
X111863855Y-22182380D02*
X111863855Y-21991904D01*
X111863855Y-21991904D02*
X111901950Y-21877618D01*
X111901950Y-21877618D02*
X111978140Y-21801428D01*
X111978140Y-21801428D02*
X112054331Y-21763333D01*
X112054331Y-21763333D02*
X112206712Y-21725237D01*
X112206712Y-21725237D02*
X112320998Y-21725237D01*
X112320998Y-21725237D02*
X112473379Y-21763333D01*
X112473379Y-21763333D02*
X112549569Y-21801428D01*
X112549569Y-21801428D02*
X112625760Y-21877618D01*
X112625760Y-21877618D02*
X112663855Y-21991904D01*
X112663855Y-21991904D02*
X112663855Y-22182380D01*
X112663855Y-20963333D02*
X112663855Y-21420476D01*
X112663855Y-21191904D02*
X111863855Y-21191904D01*
X111863855Y-21191904D02*
X111978140Y-21268095D01*
X111978140Y-21268095D02*
X112054331Y-21344285D01*
X112054331Y-21344285D02*
X112092426Y-21420476D01*
X111863855Y-20468094D02*
X111863855Y-20391904D01*
X111863855Y-20391904D02*
X111901950Y-20315713D01*
X111901950Y-20315713D02*
X111940045Y-20277618D01*
X111940045Y-20277618D02*
X112016236Y-20239523D01*
X112016236Y-20239523D02*
X112168617Y-20201428D01*
X112168617Y-20201428D02*
X112359093Y-20201428D01*
X112359093Y-20201428D02*
X112511474Y-20239523D01*
X112511474Y-20239523D02*
X112587664Y-20277618D01*
X112587664Y-20277618D02*
X112625760Y-20315713D01*
X112625760Y-20315713D02*
X112663855Y-20391904D01*
X112663855Y-20391904D02*
X112663855Y-20468094D01*
X112663855Y-20468094D02*
X112625760Y-20544285D01*
X112625760Y-20544285D02*
X112587664Y-20582380D01*
X112587664Y-20582380D02*
X112511474Y-20620475D01*
X112511474Y-20620475D02*
X112359093Y-20658571D01*
X112359093Y-20658571D02*
X112168617Y-20658571D01*
X112168617Y-20658571D02*
X112016236Y-20620475D01*
X112016236Y-20620475D02*
X111940045Y-20582380D01*
X111940045Y-20582380D02*
X111901950Y-20544285D01*
X111901950Y-20544285D02*
X111863855Y-20468094D01*
X111940045Y-19896666D02*
X111901950Y-19858570D01*
X111901950Y-19858570D02*
X111863855Y-19782380D01*
X111863855Y-19782380D02*
X111863855Y-19591904D01*
X111863855Y-19591904D02*
X111901950Y-19515713D01*
X111901950Y-19515713D02*
X111940045Y-19477618D01*
X111940045Y-19477618D02*
X112016236Y-19439523D01*
X112016236Y-19439523D02*
X112092426Y-19439523D01*
X112092426Y-19439523D02*
X112206712Y-19477618D01*
X112206712Y-19477618D02*
X112663855Y-19934761D01*
X112663855Y-19934761D02*
X112663855Y-19439523D01*
D10*
X102288095Y-81054819D02*
X102288095Y-81864342D01*
X102288095Y-81864342D02*
X102335714Y-81959580D01*
X102335714Y-81959580D02*
X102383333Y-82007200D01*
X102383333Y-82007200D02*
X102478571Y-82054819D01*
X102478571Y-82054819D02*
X102669047Y-82054819D01*
X102669047Y-82054819D02*
X102764285Y-82007200D01*
X102764285Y-82007200D02*
X102811904Y-81959580D01*
X102811904Y-81959580D02*
X102859523Y-81864342D01*
X102859523Y-81864342D02*
X102859523Y-81054819D01*
X103859523Y-82054819D02*
X103288095Y-82054819D01*
X103573809Y-82054819D02*
X103573809Y-81054819D01*
X103573809Y-81054819D02*
X103478571Y-81197676D01*
X103478571Y-81197676D02*
X103383333Y-81292914D01*
X103383333Y-81292914D02*
X103288095Y-81340533D01*
D13*
X91740476Y-54729530D02*
X91716667Y-54753340D01*
X91716667Y-54753340D02*
X91645238Y-54777149D01*
X91645238Y-54777149D02*
X91597619Y-54777149D01*
X91597619Y-54777149D02*
X91526191Y-54753340D01*
X91526191Y-54753340D02*
X91478572Y-54705720D01*
X91478572Y-54705720D02*
X91454762Y-54658101D01*
X91454762Y-54658101D02*
X91430953Y-54562863D01*
X91430953Y-54562863D02*
X91430953Y-54491435D01*
X91430953Y-54491435D02*
X91454762Y-54396197D01*
X91454762Y-54396197D02*
X91478572Y-54348578D01*
X91478572Y-54348578D02*
X91526191Y-54300959D01*
X91526191Y-54300959D02*
X91597619Y-54277149D01*
X91597619Y-54277149D02*
X91645238Y-54277149D01*
X91645238Y-54277149D02*
X91716667Y-54300959D01*
X91716667Y-54300959D02*
X91740476Y-54324768D01*
X92216667Y-54777149D02*
X91930953Y-54777149D01*
X92073810Y-54777149D02*
X92073810Y-54277149D01*
X92073810Y-54277149D02*
X92026191Y-54348578D01*
X92026191Y-54348578D02*
X91978572Y-54396197D01*
X91978572Y-54396197D02*
X91930953Y-54420006D01*
X92526190Y-54277149D02*
X92573809Y-54277149D01*
X92573809Y-54277149D02*
X92621428Y-54300959D01*
X92621428Y-54300959D02*
X92645238Y-54324768D01*
X92645238Y-54324768D02*
X92669047Y-54372387D01*
X92669047Y-54372387D02*
X92692857Y-54467625D01*
X92692857Y-54467625D02*
X92692857Y-54586673D01*
X92692857Y-54586673D02*
X92669047Y-54681911D01*
X92669047Y-54681911D02*
X92645238Y-54729530D01*
X92645238Y-54729530D02*
X92621428Y-54753340D01*
X92621428Y-54753340D02*
X92573809Y-54777149D01*
X92573809Y-54777149D02*
X92526190Y-54777149D01*
X92526190Y-54777149D02*
X92478571Y-54753340D01*
X92478571Y-54753340D02*
X92454762Y-54729530D01*
X92454762Y-54729530D02*
X92430952Y-54681911D01*
X92430952Y-54681911D02*
X92407143Y-54586673D01*
X92407143Y-54586673D02*
X92407143Y-54467625D01*
X92407143Y-54467625D02*
X92430952Y-54372387D01*
X92430952Y-54372387D02*
X92454762Y-54324768D01*
X92454762Y-54324768D02*
X92478571Y-54300959D01*
X92478571Y-54300959D02*
X92526190Y-54277149D01*
X93121428Y-54443816D02*
X93121428Y-54777149D01*
X93002380Y-54253340D02*
X92883333Y-54610482D01*
X92883333Y-54610482D02*
X93192856Y-54610482D01*
D10*
X80764286Y-71057200D02*
X80907143Y-71104819D01*
X80907143Y-71104819D02*
X81145238Y-71104819D01*
X81145238Y-71104819D02*
X81240476Y-71057200D01*
X81240476Y-71057200D02*
X81288095Y-71009580D01*
X81288095Y-71009580D02*
X81335714Y-70914342D01*
X81335714Y-70914342D02*
X81335714Y-70819104D01*
X81335714Y-70819104D02*
X81288095Y-70723866D01*
X81288095Y-70723866D02*
X81240476Y-70676247D01*
X81240476Y-70676247D02*
X81145238Y-70628628D01*
X81145238Y-70628628D02*
X80954762Y-70581009D01*
X80954762Y-70581009D02*
X80859524Y-70533390D01*
X80859524Y-70533390D02*
X80811905Y-70485771D01*
X80811905Y-70485771D02*
X80764286Y-70390533D01*
X80764286Y-70390533D02*
X80764286Y-70295295D01*
X80764286Y-70295295D02*
X80811905Y-70200057D01*
X80811905Y-70200057D02*
X80859524Y-70152438D01*
X80859524Y-70152438D02*
X80954762Y-70104819D01*
X80954762Y-70104819D02*
X81192857Y-70104819D01*
X81192857Y-70104819D02*
X81335714Y-70152438D01*
X81669048Y-70104819D02*
X81907143Y-71104819D01*
X81907143Y-71104819D02*
X82097619Y-70390533D01*
X82097619Y-70390533D02*
X82288095Y-71104819D01*
X82288095Y-71104819D02*
X82526191Y-70104819D01*
X83430952Y-71104819D02*
X82859524Y-71104819D01*
X83145238Y-71104819D02*
X83145238Y-70104819D01*
X83145238Y-70104819D02*
X83050000Y-70247676D01*
X83050000Y-70247676D02*
X82954762Y-70342914D01*
X82954762Y-70342914D02*
X82859524Y-70390533D01*
X84050000Y-70104819D02*
X84145238Y-70104819D01*
X84145238Y-70104819D02*
X84240476Y-70152438D01*
X84240476Y-70152438D02*
X84288095Y-70200057D01*
X84288095Y-70200057D02*
X84335714Y-70295295D01*
X84335714Y-70295295D02*
X84383333Y-70485771D01*
X84383333Y-70485771D02*
X84383333Y-70723866D01*
X84383333Y-70723866D02*
X84335714Y-70914342D01*
X84335714Y-70914342D02*
X84288095Y-71009580D01*
X84288095Y-71009580D02*
X84240476Y-71057200D01*
X84240476Y-71057200D02*
X84145238Y-71104819D01*
X84145238Y-71104819D02*
X84050000Y-71104819D01*
X84050000Y-71104819D02*
X83954762Y-71057200D01*
X83954762Y-71057200D02*
X83907143Y-71009580D01*
X83907143Y-71009580D02*
X83859524Y-70914342D01*
X83859524Y-70914342D02*
X83811905Y-70723866D01*
X83811905Y-70723866D02*
X83811905Y-70485771D01*
X83811905Y-70485771D02*
X83859524Y-70295295D01*
X83859524Y-70295295D02*
X83907143Y-70200057D01*
X83907143Y-70200057D02*
X83954762Y-70152438D01*
X83954762Y-70152438D02*
X84050000Y-70104819D01*
X84716667Y-70104819D02*
X85335714Y-70104819D01*
X85335714Y-70104819D02*
X85002381Y-70485771D01*
X85002381Y-70485771D02*
X85145238Y-70485771D01*
X85145238Y-70485771D02*
X85240476Y-70533390D01*
X85240476Y-70533390D02*
X85288095Y-70581009D01*
X85288095Y-70581009D02*
X85335714Y-70676247D01*
X85335714Y-70676247D02*
X85335714Y-70914342D01*
X85335714Y-70914342D02*
X85288095Y-71009580D01*
X85288095Y-71009580D02*
X85240476Y-71057200D01*
X85240476Y-71057200D02*
X85145238Y-71104819D01*
X85145238Y-71104819D02*
X84859524Y-71104819D01*
X84859524Y-71104819D02*
X84764286Y-71057200D01*
X84764286Y-71057200D02*
X84716667Y-71009580D01*
X80714286Y-66707200D02*
X80857143Y-66754819D01*
X80857143Y-66754819D02*
X81095238Y-66754819D01*
X81095238Y-66754819D02*
X81190476Y-66707200D01*
X81190476Y-66707200D02*
X81238095Y-66659580D01*
X81238095Y-66659580D02*
X81285714Y-66564342D01*
X81285714Y-66564342D02*
X81285714Y-66469104D01*
X81285714Y-66469104D02*
X81238095Y-66373866D01*
X81238095Y-66373866D02*
X81190476Y-66326247D01*
X81190476Y-66326247D02*
X81095238Y-66278628D01*
X81095238Y-66278628D02*
X80904762Y-66231009D01*
X80904762Y-66231009D02*
X80809524Y-66183390D01*
X80809524Y-66183390D02*
X80761905Y-66135771D01*
X80761905Y-66135771D02*
X80714286Y-66040533D01*
X80714286Y-66040533D02*
X80714286Y-65945295D01*
X80714286Y-65945295D02*
X80761905Y-65850057D01*
X80761905Y-65850057D02*
X80809524Y-65802438D01*
X80809524Y-65802438D02*
X80904762Y-65754819D01*
X80904762Y-65754819D02*
X81142857Y-65754819D01*
X81142857Y-65754819D02*
X81285714Y-65802438D01*
X81619048Y-65754819D02*
X81857143Y-66754819D01*
X81857143Y-66754819D02*
X82047619Y-66040533D01*
X82047619Y-66040533D02*
X82238095Y-66754819D01*
X82238095Y-66754819D02*
X82476191Y-65754819D01*
X83380952Y-66754819D02*
X82809524Y-66754819D01*
X83095238Y-66754819D02*
X83095238Y-65754819D01*
X83095238Y-65754819D02*
X83000000Y-65897676D01*
X83000000Y-65897676D02*
X82904762Y-65992914D01*
X82904762Y-65992914D02*
X82809524Y-66040533D01*
X84000000Y-65754819D02*
X84095238Y-65754819D01*
X84095238Y-65754819D02*
X84190476Y-65802438D01*
X84190476Y-65802438D02*
X84238095Y-65850057D01*
X84238095Y-65850057D02*
X84285714Y-65945295D01*
X84285714Y-65945295D02*
X84333333Y-66135771D01*
X84333333Y-66135771D02*
X84333333Y-66373866D01*
X84333333Y-66373866D02*
X84285714Y-66564342D01*
X84285714Y-66564342D02*
X84238095Y-66659580D01*
X84238095Y-66659580D02*
X84190476Y-66707200D01*
X84190476Y-66707200D02*
X84095238Y-66754819D01*
X84095238Y-66754819D02*
X84000000Y-66754819D01*
X84000000Y-66754819D02*
X83904762Y-66707200D01*
X83904762Y-66707200D02*
X83857143Y-66659580D01*
X83857143Y-66659580D02*
X83809524Y-66564342D01*
X83809524Y-66564342D02*
X83761905Y-66373866D01*
X83761905Y-66373866D02*
X83761905Y-66135771D01*
X83761905Y-66135771D02*
X83809524Y-65945295D01*
X83809524Y-65945295D02*
X83857143Y-65850057D01*
X83857143Y-65850057D02*
X83904762Y-65802438D01*
X83904762Y-65802438D02*
X84000000Y-65754819D01*
X85190476Y-65754819D02*
X85000000Y-65754819D01*
X85000000Y-65754819D02*
X84904762Y-65802438D01*
X84904762Y-65802438D02*
X84857143Y-65850057D01*
X84857143Y-65850057D02*
X84761905Y-65992914D01*
X84761905Y-65992914D02*
X84714286Y-66183390D01*
X84714286Y-66183390D02*
X84714286Y-66564342D01*
X84714286Y-66564342D02*
X84761905Y-66659580D01*
X84761905Y-66659580D02*
X84809524Y-66707200D01*
X84809524Y-66707200D02*
X84904762Y-66754819D01*
X84904762Y-66754819D02*
X85095238Y-66754819D01*
X85095238Y-66754819D02*
X85190476Y-66707200D01*
X85190476Y-66707200D02*
X85238095Y-66659580D01*
X85238095Y-66659580D02*
X85285714Y-66564342D01*
X85285714Y-66564342D02*
X85285714Y-66326247D01*
X85285714Y-66326247D02*
X85238095Y-66231009D01*
X85238095Y-66231009D02*
X85190476Y-66183390D01*
X85190476Y-66183390D02*
X85095238Y-66135771D01*
X85095238Y-66135771D02*
X84904762Y-66135771D01*
X84904762Y-66135771D02*
X84809524Y-66183390D01*
X84809524Y-66183390D02*
X84761905Y-66231009D01*
X84761905Y-66231009D02*
X84714286Y-66326247D01*
D13*
X117990476Y-72229530D02*
X117966667Y-72253340D01*
X117966667Y-72253340D02*
X117895238Y-72277149D01*
X117895238Y-72277149D02*
X117847619Y-72277149D01*
X117847619Y-72277149D02*
X117776191Y-72253340D01*
X117776191Y-72253340D02*
X117728572Y-72205720D01*
X117728572Y-72205720D02*
X117704762Y-72158101D01*
X117704762Y-72158101D02*
X117680953Y-72062863D01*
X117680953Y-72062863D02*
X117680953Y-71991435D01*
X117680953Y-71991435D02*
X117704762Y-71896197D01*
X117704762Y-71896197D02*
X117728572Y-71848578D01*
X117728572Y-71848578D02*
X117776191Y-71800959D01*
X117776191Y-71800959D02*
X117847619Y-71777149D01*
X117847619Y-71777149D02*
X117895238Y-71777149D01*
X117895238Y-71777149D02*
X117966667Y-71800959D01*
X117966667Y-71800959D02*
X117990476Y-71824768D01*
X118466667Y-72277149D02*
X118180953Y-72277149D01*
X118323810Y-72277149D02*
X118323810Y-71777149D01*
X118323810Y-71777149D02*
X118276191Y-71848578D01*
X118276191Y-71848578D02*
X118228572Y-71896197D01*
X118228572Y-71896197D02*
X118180953Y-71920006D01*
X118776190Y-71777149D02*
X118823809Y-71777149D01*
X118823809Y-71777149D02*
X118871428Y-71800959D01*
X118871428Y-71800959D02*
X118895238Y-71824768D01*
X118895238Y-71824768D02*
X118919047Y-71872387D01*
X118919047Y-71872387D02*
X118942857Y-71967625D01*
X118942857Y-71967625D02*
X118942857Y-72086673D01*
X118942857Y-72086673D02*
X118919047Y-72181911D01*
X118919047Y-72181911D02*
X118895238Y-72229530D01*
X118895238Y-72229530D02*
X118871428Y-72253340D01*
X118871428Y-72253340D02*
X118823809Y-72277149D01*
X118823809Y-72277149D02*
X118776190Y-72277149D01*
X118776190Y-72277149D02*
X118728571Y-72253340D01*
X118728571Y-72253340D02*
X118704762Y-72229530D01*
X118704762Y-72229530D02*
X118680952Y-72181911D01*
X118680952Y-72181911D02*
X118657143Y-72086673D01*
X118657143Y-72086673D02*
X118657143Y-71967625D01*
X118657143Y-71967625D02*
X118680952Y-71872387D01*
X118680952Y-71872387D02*
X118704762Y-71824768D01*
X118704762Y-71824768D02*
X118728571Y-71800959D01*
X118728571Y-71800959D02*
X118776190Y-71777149D01*
X119395237Y-71777149D02*
X119157142Y-71777149D01*
X119157142Y-71777149D02*
X119133333Y-72015244D01*
X119133333Y-72015244D02*
X119157142Y-71991435D01*
X119157142Y-71991435D02*
X119204761Y-71967625D01*
X119204761Y-71967625D02*
X119323809Y-71967625D01*
X119323809Y-71967625D02*
X119371428Y-71991435D01*
X119371428Y-71991435D02*
X119395237Y-72015244D01*
X119395237Y-72015244D02*
X119419047Y-72062863D01*
X119419047Y-72062863D02*
X119419047Y-72181911D01*
X119419047Y-72181911D02*
X119395237Y-72229530D01*
X119395237Y-72229530D02*
X119371428Y-72253340D01*
X119371428Y-72253340D02*
X119323809Y-72277149D01*
X119323809Y-72277149D02*
X119204761Y-72277149D01*
X119204761Y-72277149D02*
X119157142Y-72253340D01*
X119157142Y-72253340D02*
X119133333Y-72229530D01*
D10*
X82829819Y-80985714D02*
X83544104Y-80985714D01*
X83544104Y-80985714D02*
X83686961Y-81033333D01*
X83686961Y-81033333D02*
X83782200Y-81128571D01*
X83782200Y-81128571D02*
X83829819Y-81271428D01*
X83829819Y-81271428D02*
X83829819Y-81366666D01*
X83829819Y-79985714D02*
X83829819Y-80557142D01*
X83829819Y-80271428D02*
X82829819Y-80271428D01*
X82829819Y-80271428D02*
X82972676Y-80366666D01*
X82972676Y-80366666D02*
X83067914Y-80461904D01*
X83067914Y-80461904D02*
X83115533Y-80557142D01*
X82829819Y-79366666D02*
X82829819Y-79271428D01*
X82829819Y-79271428D02*
X82877438Y-79176190D01*
X82877438Y-79176190D02*
X82925057Y-79128571D01*
X82925057Y-79128571D02*
X83020295Y-79080952D01*
X83020295Y-79080952D02*
X83210771Y-79033333D01*
X83210771Y-79033333D02*
X83448866Y-79033333D01*
X83448866Y-79033333D02*
X83639342Y-79080952D01*
X83639342Y-79080952D02*
X83734580Y-79128571D01*
X83734580Y-79128571D02*
X83782200Y-79176190D01*
X83782200Y-79176190D02*
X83829819Y-79271428D01*
X83829819Y-79271428D02*
X83829819Y-79366666D01*
X83829819Y-79366666D02*
X83782200Y-79461904D01*
X83782200Y-79461904D02*
X83734580Y-79509523D01*
X83734580Y-79509523D02*
X83639342Y-79557142D01*
X83639342Y-79557142D02*
X83448866Y-79604761D01*
X83448866Y-79604761D02*
X83210771Y-79604761D01*
X83210771Y-79604761D02*
X83020295Y-79557142D01*
X83020295Y-79557142D02*
X82925057Y-79509523D01*
X82925057Y-79509523D02*
X82877438Y-79461904D01*
X82877438Y-79461904D02*
X82829819Y-79366666D01*
X83829819Y-78080952D02*
X83829819Y-78652380D01*
X83829819Y-78366666D02*
X82829819Y-78366666D01*
X82829819Y-78366666D02*
X82972676Y-78461904D01*
X82972676Y-78461904D02*
X83067914Y-78557142D01*
X83067914Y-78557142D02*
X83115533Y-78652380D01*
D13*
X89240476Y-86527149D02*
X89073810Y-86289054D01*
X88954762Y-86527149D02*
X88954762Y-86027149D01*
X88954762Y-86027149D02*
X89145238Y-86027149D01*
X89145238Y-86027149D02*
X89192857Y-86050959D01*
X89192857Y-86050959D02*
X89216667Y-86074768D01*
X89216667Y-86074768D02*
X89240476Y-86122387D01*
X89240476Y-86122387D02*
X89240476Y-86193816D01*
X89240476Y-86193816D02*
X89216667Y-86241435D01*
X89216667Y-86241435D02*
X89192857Y-86265244D01*
X89192857Y-86265244D02*
X89145238Y-86289054D01*
X89145238Y-86289054D02*
X88954762Y-86289054D01*
X89716667Y-86527149D02*
X89430953Y-86527149D01*
X89573810Y-86527149D02*
X89573810Y-86027149D01*
X89573810Y-86027149D02*
X89526191Y-86098578D01*
X89526191Y-86098578D02*
X89478572Y-86146197D01*
X89478572Y-86146197D02*
X89430953Y-86170006D01*
X90026190Y-86027149D02*
X90073809Y-86027149D01*
X90073809Y-86027149D02*
X90121428Y-86050959D01*
X90121428Y-86050959D02*
X90145238Y-86074768D01*
X90145238Y-86074768D02*
X90169047Y-86122387D01*
X90169047Y-86122387D02*
X90192857Y-86217625D01*
X90192857Y-86217625D02*
X90192857Y-86336673D01*
X90192857Y-86336673D02*
X90169047Y-86431911D01*
X90169047Y-86431911D02*
X90145238Y-86479530D01*
X90145238Y-86479530D02*
X90121428Y-86503340D01*
X90121428Y-86503340D02*
X90073809Y-86527149D01*
X90073809Y-86527149D02*
X90026190Y-86527149D01*
X90026190Y-86527149D02*
X89978571Y-86503340D01*
X89978571Y-86503340D02*
X89954762Y-86479530D01*
X89954762Y-86479530D02*
X89930952Y-86431911D01*
X89930952Y-86431911D02*
X89907143Y-86336673D01*
X89907143Y-86336673D02*
X89907143Y-86217625D01*
X89907143Y-86217625D02*
X89930952Y-86122387D01*
X89930952Y-86122387D02*
X89954762Y-86074768D01*
X89954762Y-86074768D02*
X89978571Y-86050959D01*
X89978571Y-86050959D02*
X90026190Y-86027149D01*
X90478571Y-86241435D02*
X90430952Y-86217625D01*
X90430952Y-86217625D02*
X90407142Y-86193816D01*
X90407142Y-86193816D02*
X90383333Y-86146197D01*
X90383333Y-86146197D02*
X90383333Y-86122387D01*
X90383333Y-86122387D02*
X90407142Y-86074768D01*
X90407142Y-86074768D02*
X90430952Y-86050959D01*
X90430952Y-86050959D02*
X90478571Y-86027149D01*
X90478571Y-86027149D02*
X90573809Y-86027149D01*
X90573809Y-86027149D02*
X90621428Y-86050959D01*
X90621428Y-86050959D02*
X90645237Y-86074768D01*
X90645237Y-86074768D02*
X90669047Y-86122387D01*
X90669047Y-86122387D02*
X90669047Y-86146197D01*
X90669047Y-86146197D02*
X90645237Y-86193816D01*
X90645237Y-86193816D02*
X90621428Y-86217625D01*
X90621428Y-86217625D02*
X90573809Y-86241435D01*
X90573809Y-86241435D02*
X90478571Y-86241435D01*
X90478571Y-86241435D02*
X90430952Y-86265244D01*
X90430952Y-86265244D02*
X90407142Y-86289054D01*
X90407142Y-86289054D02*
X90383333Y-86336673D01*
X90383333Y-86336673D02*
X90383333Y-86431911D01*
X90383333Y-86431911D02*
X90407142Y-86479530D01*
X90407142Y-86479530D02*
X90430952Y-86503340D01*
X90430952Y-86503340D02*
X90478571Y-86527149D01*
X90478571Y-86527149D02*
X90573809Y-86527149D01*
X90573809Y-86527149D02*
X90621428Y-86503340D01*
X90621428Y-86503340D02*
X90645237Y-86479530D01*
X90645237Y-86479530D02*
X90669047Y-86431911D01*
X90669047Y-86431911D02*
X90669047Y-86336673D01*
X90669047Y-86336673D02*
X90645237Y-86289054D01*
X90645237Y-86289054D02*
X90621428Y-86265244D01*
X90621428Y-86265244D02*
X90573809Y-86241435D01*
X117979530Y-88609523D02*
X118003340Y-88633332D01*
X118003340Y-88633332D02*
X118027149Y-88704761D01*
X118027149Y-88704761D02*
X118027149Y-88752380D01*
X118027149Y-88752380D02*
X118003340Y-88823808D01*
X118003340Y-88823808D02*
X117955720Y-88871427D01*
X117955720Y-88871427D02*
X117908101Y-88895237D01*
X117908101Y-88895237D02*
X117812863Y-88919046D01*
X117812863Y-88919046D02*
X117741435Y-88919046D01*
X117741435Y-88919046D02*
X117646197Y-88895237D01*
X117646197Y-88895237D02*
X117598578Y-88871427D01*
X117598578Y-88871427D02*
X117550959Y-88823808D01*
X117550959Y-88823808D02*
X117527149Y-88752380D01*
X117527149Y-88752380D02*
X117527149Y-88704761D01*
X117527149Y-88704761D02*
X117550959Y-88633332D01*
X117550959Y-88633332D02*
X117574768Y-88609523D01*
X118027149Y-88133332D02*
X118027149Y-88419046D01*
X118027149Y-88276189D02*
X117527149Y-88276189D01*
X117527149Y-88276189D02*
X117598578Y-88323808D01*
X117598578Y-88323808D02*
X117646197Y-88371427D01*
X117646197Y-88371427D02*
X117670006Y-88419046D01*
X117527149Y-87823809D02*
X117527149Y-87776190D01*
X117527149Y-87776190D02*
X117550959Y-87728571D01*
X117550959Y-87728571D02*
X117574768Y-87704761D01*
X117574768Y-87704761D02*
X117622387Y-87680952D01*
X117622387Y-87680952D02*
X117717625Y-87657142D01*
X117717625Y-87657142D02*
X117836673Y-87657142D01*
X117836673Y-87657142D02*
X117931911Y-87680952D01*
X117931911Y-87680952D02*
X117979530Y-87704761D01*
X117979530Y-87704761D02*
X118003340Y-87728571D01*
X118003340Y-87728571D02*
X118027149Y-87776190D01*
X118027149Y-87776190D02*
X118027149Y-87823809D01*
X118027149Y-87823809D02*
X118003340Y-87871428D01*
X118003340Y-87871428D02*
X117979530Y-87895237D01*
X117979530Y-87895237D02*
X117931911Y-87919047D01*
X117931911Y-87919047D02*
X117836673Y-87942856D01*
X117836673Y-87942856D02*
X117717625Y-87942856D01*
X117717625Y-87942856D02*
X117622387Y-87919047D01*
X117622387Y-87919047D02*
X117574768Y-87895237D01*
X117574768Y-87895237D02*
X117550959Y-87871428D01*
X117550959Y-87871428D02*
X117527149Y-87823809D01*
X117741435Y-87371428D02*
X117717625Y-87419047D01*
X117717625Y-87419047D02*
X117693816Y-87442857D01*
X117693816Y-87442857D02*
X117646197Y-87466666D01*
X117646197Y-87466666D02*
X117622387Y-87466666D01*
X117622387Y-87466666D02*
X117574768Y-87442857D01*
X117574768Y-87442857D02*
X117550959Y-87419047D01*
X117550959Y-87419047D02*
X117527149Y-87371428D01*
X117527149Y-87371428D02*
X117527149Y-87276190D01*
X117527149Y-87276190D02*
X117550959Y-87228571D01*
X117550959Y-87228571D02*
X117574768Y-87204762D01*
X117574768Y-87204762D02*
X117622387Y-87180952D01*
X117622387Y-87180952D02*
X117646197Y-87180952D01*
X117646197Y-87180952D02*
X117693816Y-87204762D01*
X117693816Y-87204762D02*
X117717625Y-87228571D01*
X117717625Y-87228571D02*
X117741435Y-87276190D01*
X117741435Y-87276190D02*
X117741435Y-87371428D01*
X117741435Y-87371428D02*
X117765244Y-87419047D01*
X117765244Y-87419047D02*
X117789054Y-87442857D01*
X117789054Y-87442857D02*
X117836673Y-87466666D01*
X117836673Y-87466666D02*
X117931911Y-87466666D01*
X117931911Y-87466666D02*
X117979530Y-87442857D01*
X117979530Y-87442857D02*
X118003340Y-87419047D01*
X118003340Y-87419047D02*
X118027149Y-87371428D01*
X118027149Y-87371428D02*
X118027149Y-87276190D01*
X118027149Y-87276190D02*
X118003340Y-87228571D01*
X118003340Y-87228571D02*
X117979530Y-87204762D01*
X117979530Y-87204762D02*
X117931911Y-87180952D01*
X117931911Y-87180952D02*
X117836673Y-87180952D01*
X117836673Y-87180952D02*
X117789054Y-87204762D01*
X117789054Y-87204762D02*
X117765244Y-87228571D01*
X117765244Y-87228571D02*
X117741435Y-87276190D01*
X111990476Y-62027149D02*
X111823810Y-61789054D01*
X111704762Y-62027149D02*
X111704762Y-61527149D01*
X111704762Y-61527149D02*
X111895238Y-61527149D01*
X111895238Y-61527149D02*
X111942857Y-61550959D01*
X111942857Y-61550959D02*
X111966667Y-61574768D01*
X111966667Y-61574768D02*
X111990476Y-61622387D01*
X111990476Y-61622387D02*
X111990476Y-61693816D01*
X111990476Y-61693816D02*
X111966667Y-61741435D01*
X111966667Y-61741435D02*
X111942857Y-61765244D01*
X111942857Y-61765244D02*
X111895238Y-61789054D01*
X111895238Y-61789054D02*
X111704762Y-61789054D01*
X112466667Y-62027149D02*
X112180953Y-62027149D01*
X112323810Y-62027149D02*
X112323810Y-61527149D01*
X112323810Y-61527149D02*
X112276191Y-61598578D01*
X112276191Y-61598578D02*
X112228572Y-61646197D01*
X112228572Y-61646197D02*
X112180953Y-61670006D01*
X112776190Y-61527149D02*
X112823809Y-61527149D01*
X112823809Y-61527149D02*
X112871428Y-61550959D01*
X112871428Y-61550959D02*
X112895238Y-61574768D01*
X112895238Y-61574768D02*
X112919047Y-61622387D01*
X112919047Y-61622387D02*
X112942857Y-61717625D01*
X112942857Y-61717625D02*
X112942857Y-61836673D01*
X112942857Y-61836673D02*
X112919047Y-61931911D01*
X112919047Y-61931911D02*
X112895238Y-61979530D01*
X112895238Y-61979530D02*
X112871428Y-62003340D01*
X112871428Y-62003340D02*
X112823809Y-62027149D01*
X112823809Y-62027149D02*
X112776190Y-62027149D01*
X112776190Y-62027149D02*
X112728571Y-62003340D01*
X112728571Y-62003340D02*
X112704762Y-61979530D01*
X112704762Y-61979530D02*
X112680952Y-61931911D01*
X112680952Y-61931911D02*
X112657143Y-61836673D01*
X112657143Y-61836673D02*
X112657143Y-61717625D01*
X112657143Y-61717625D02*
X112680952Y-61622387D01*
X112680952Y-61622387D02*
X112704762Y-61574768D01*
X112704762Y-61574768D02*
X112728571Y-61550959D01*
X112728571Y-61550959D02*
X112776190Y-61527149D01*
X113133333Y-61574768D02*
X113157142Y-61550959D01*
X113157142Y-61550959D02*
X113204761Y-61527149D01*
X113204761Y-61527149D02*
X113323809Y-61527149D01*
X113323809Y-61527149D02*
X113371428Y-61550959D01*
X113371428Y-61550959D02*
X113395237Y-61574768D01*
X113395237Y-61574768D02*
X113419047Y-61622387D01*
X113419047Y-61622387D02*
X113419047Y-61670006D01*
X113419047Y-61670006D02*
X113395237Y-61741435D01*
X113395237Y-61741435D02*
X113109523Y-62027149D01*
X113109523Y-62027149D02*
X113419047Y-62027149D01*
D12*
X94213855Y-22302380D02*
X93413855Y-22302380D01*
X93413855Y-22302380D02*
X93413855Y-22111904D01*
X93413855Y-22111904D02*
X93451950Y-21997618D01*
X93451950Y-21997618D02*
X93528140Y-21921428D01*
X93528140Y-21921428D02*
X93604331Y-21883333D01*
X93604331Y-21883333D02*
X93756712Y-21845237D01*
X93756712Y-21845237D02*
X93870998Y-21845237D01*
X93870998Y-21845237D02*
X94023379Y-21883333D01*
X94023379Y-21883333D02*
X94099569Y-21921428D01*
X94099569Y-21921428D02*
X94175760Y-21997618D01*
X94175760Y-21997618D02*
X94213855Y-22111904D01*
X94213855Y-22111904D02*
X94213855Y-22302380D01*
X94213855Y-21083333D02*
X94213855Y-21540476D01*
X94213855Y-21311904D02*
X93413855Y-21311904D01*
X93413855Y-21311904D02*
X93528140Y-21388095D01*
X93528140Y-21388095D02*
X93604331Y-21464285D01*
X93604331Y-21464285D02*
X93642426Y-21540476D01*
X93413855Y-20588094D02*
X93413855Y-20511904D01*
X93413855Y-20511904D02*
X93451950Y-20435713D01*
X93451950Y-20435713D02*
X93490045Y-20397618D01*
X93490045Y-20397618D02*
X93566236Y-20359523D01*
X93566236Y-20359523D02*
X93718617Y-20321428D01*
X93718617Y-20321428D02*
X93909093Y-20321428D01*
X93909093Y-20321428D02*
X94061474Y-20359523D01*
X94061474Y-20359523D02*
X94137664Y-20397618D01*
X94137664Y-20397618D02*
X94175760Y-20435713D01*
X94175760Y-20435713D02*
X94213855Y-20511904D01*
X94213855Y-20511904D02*
X94213855Y-20588094D01*
X94213855Y-20588094D02*
X94175760Y-20664285D01*
X94175760Y-20664285D02*
X94137664Y-20702380D01*
X94137664Y-20702380D02*
X94061474Y-20740475D01*
X94061474Y-20740475D02*
X93909093Y-20778571D01*
X93909093Y-20778571D02*
X93718617Y-20778571D01*
X93718617Y-20778571D02*
X93566236Y-20740475D01*
X93566236Y-20740475D02*
X93490045Y-20702380D01*
X93490045Y-20702380D02*
X93451950Y-20664285D01*
X93451950Y-20664285D02*
X93413855Y-20588094D01*
X94213855Y-19559523D02*
X94213855Y-20016666D01*
X94213855Y-19788094D02*
X93413855Y-19788094D01*
X93413855Y-19788094D02*
X93528140Y-19864285D01*
X93528140Y-19864285D02*
X93604331Y-19940475D01*
X93604331Y-19940475D02*
X93642426Y-20016666D01*
D13*
X115527149Y-88609523D02*
X115289054Y-88776189D01*
X115527149Y-88895237D02*
X115027149Y-88895237D01*
X115027149Y-88895237D02*
X115027149Y-88704761D01*
X115027149Y-88704761D02*
X115050959Y-88657142D01*
X115050959Y-88657142D02*
X115074768Y-88633332D01*
X115074768Y-88633332D02*
X115122387Y-88609523D01*
X115122387Y-88609523D02*
X115193816Y-88609523D01*
X115193816Y-88609523D02*
X115241435Y-88633332D01*
X115241435Y-88633332D02*
X115265244Y-88657142D01*
X115265244Y-88657142D02*
X115289054Y-88704761D01*
X115289054Y-88704761D02*
X115289054Y-88895237D01*
X115527149Y-88133332D02*
X115527149Y-88419046D01*
X115527149Y-88276189D02*
X115027149Y-88276189D01*
X115027149Y-88276189D02*
X115098578Y-88323808D01*
X115098578Y-88323808D02*
X115146197Y-88371427D01*
X115146197Y-88371427D02*
X115170006Y-88419046D01*
X115027149Y-87823809D02*
X115027149Y-87776190D01*
X115027149Y-87776190D02*
X115050959Y-87728571D01*
X115050959Y-87728571D02*
X115074768Y-87704761D01*
X115074768Y-87704761D02*
X115122387Y-87680952D01*
X115122387Y-87680952D02*
X115217625Y-87657142D01*
X115217625Y-87657142D02*
X115336673Y-87657142D01*
X115336673Y-87657142D02*
X115431911Y-87680952D01*
X115431911Y-87680952D02*
X115479530Y-87704761D01*
X115479530Y-87704761D02*
X115503340Y-87728571D01*
X115503340Y-87728571D02*
X115527149Y-87776190D01*
X115527149Y-87776190D02*
X115527149Y-87823809D01*
X115527149Y-87823809D02*
X115503340Y-87871428D01*
X115503340Y-87871428D02*
X115479530Y-87895237D01*
X115479530Y-87895237D02*
X115431911Y-87919047D01*
X115431911Y-87919047D02*
X115336673Y-87942856D01*
X115336673Y-87942856D02*
X115217625Y-87942856D01*
X115217625Y-87942856D02*
X115122387Y-87919047D01*
X115122387Y-87919047D02*
X115074768Y-87895237D01*
X115074768Y-87895237D02*
X115050959Y-87871428D01*
X115050959Y-87871428D02*
X115027149Y-87823809D01*
X115027149Y-87490476D02*
X115027149Y-87180952D01*
X115027149Y-87180952D02*
X115217625Y-87347619D01*
X115217625Y-87347619D02*
X115217625Y-87276190D01*
X115217625Y-87276190D02*
X115241435Y-87228571D01*
X115241435Y-87228571D02*
X115265244Y-87204762D01*
X115265244Y-87204762D02*
X115312863Y-87180952D01*
X115312863Y-87180952D02*
X115431911Y-87180952D01*
X115431911Y-87180952D02*
X115479530Y-87204762D01*
X115479530Y-87204762D02*
X115503340Y-87228571D01*
X115503340Y-87228571D02*
X115527149Y-87276190D01*
X115527149Y-87276190D02*
X115527149Y-87419047D01*
X115527149Y-87419047D02*
X115503340Y-87466666D01*
X115503340Y-87466666D02*
X115479530Y-87490476D01*
X117990476Y-69979530D02*
X117966667Y-70003340D01*
X117966667Y-70003340D02*
X117895238Y-70027149D01*
X117895238Y-70027149D02*
X117847619Y-70027149D01*
X117847619Y-70027149D02*
X117776191Y-70003340D01*
X117776191Y-70003340D02*
X117728572Y-69955720D01*
X117728572Y-69955720D02*
X117704762Y-69908101D01*
X117704762Y-69908101D02*
X117680953Y-69812863D01*
X117680953Y-69812863D02*
X117680953Y-69741435D01*
X117680953Y-69741435D02*
X117704762Y-69646197D01*
X117704762Y-69646197D02*
X117728572Y-69598578D01*
X117728572Y-69598578D02*
X117776191Y-69550959D01*
X117776191Y-69550959D02*
X117847619Y-69527149D01*
X117847619Y-69527149D02*
X117895238Y-69527149D01*
X117895238Y-69527149D02*
X117966667Y-69550959D01*
X117966667Y-69550959D02*
X117990476Y-69574768D01*
X118466667Y-70027149D02*
X118180953Y-70027149D01*
X118323810Y-70027149D02*
X118323810Y-69527149D01*
X118323810Y-69527149D02*
X118276191Y-69598578D01*
X118276191Y-69598578D02*
X118228572Y-69646197D01*
X118228572Y-69646197D02*
X118180953Y-69670006D01*
X118776190Y-69527149D02*
X118823809Y-69527149D01*
X118823809Y-69527149D02*
X118871428Y-69550959D01*
X118871428Y-69550959D02*
X118895238Y-69574768D01*
X118895238Y-69574768D02*
X118919047Y-69622387D01*
X118919047Y-69622387D02*
X118942857Y-69717625D01*
X118942857Y-69717625D02*
X118942857Y-69836673D01*
X118942857Y-69836673D02*
X118919047Y-69931911D01*
X118919047Y-69931911D02*
X118895238Y-69979530D01*
X118895238Y-69979530D02*
X118871428Y-70003340D01*
X118871428Y-70003340D02*
X118823809Y-70027149D01*
X118823809Y-70027149D02*
X118776190Y-70027149D01*
X118776190Y-70027149D02*
X118728571Y-70003340D01*
X118728571Y-70003340D02*
X118704762Y-69979530D01*
X118704762Y-69979530D02*
X118680952Y-69931911D01*
X118680952Y-69931911D02*
X118657143Y-69836673D01*
X118657143Y-69836673D02*
X118657143Y-69717625D01*
X118657143Y-69717625D02*
X118680952Y-69622387D01*
X118680952Y-69622387D02*
X118704762Y-69574768D01*
X118704762Y-69574768D02*
X118728571Y-69550959D01*
X118728571Y-69550959D02*
X118776190Y-69527149D01*
X119371428Y-69527149D02*
X119276190Y-69527149D01*
X119276190Y-69527149D02*
X119228571Y-69550959D01*
X119228571Y-69550959D02*
X119204761Y-69574768D01*
X119204761Y-69574768D02*
X119157142Y-69646197D01*
X119157142Y-69646197D02*
X119133333Y-69741435D01*
X119133333Y-69741435D02*
X119133333Y-69931911D01*
X119133333Y-69931911D02*
X119157142Y-69979530D01*
X119157142Y-69979530D02*
X119180952Y-70003340D01*
X119180952Y-70003340D02*
X119228571Y-70027149D01*
X119228571Y-70027149D02*
X119323809Y-70027149D01*
X119323809Y-70027149D02*
X119371428Y-70003340D01*
X119371428Y-70003340D02*
X119395237Y-69979530D01*
X119395237Y-69979530D02*
X119419047Y-69931911D01*
X119419047Y-69931911D02*
X119419047Y-69812863D01*
X119419047Y-69812863D02*
X119395237Y-69765244D01*
X119395237Y-69765244D02*
X119371428Y-69741435D01*
X119371428Y-69741435D02*
X119323809Y-69717625D01*
X119323809Y-69717625D02*
X119228571Y-69717625D01*
X119228571Y-69717625D02*
X119180952Y-69741435D01*
X119180952Y-69741435D02*
X119157142Y-69765244D01*
X119157142Y-69765244D02*
X119133333Y-69812863D01*
X91740476Y-67527149D02*
X91573810Y-67289054D01*
X91454762Y-67527149D02*
X91454762Y-67027149D01*
X91454762Y-67027149D02*
X91645238Y-67027149D01*
X91645238Y-67027149D02*
X91692857Y-67050959D01*
X91692857Y-67050959D02*
X91716667Y-67074768D01*
X91716667Y-67074768D02*
X91740476Y-67122387D01*
X91740476Y-67122387D02*
X91740476Y-67193816D01*
X91740476Y-67193816D02*
X91716667Y-67241435D01*
X91716667Y-67241435D02*
X91692857Y-67265244D01*
X91692857Y-67265244D02*
X91645238Y-67289054D01*
X91645238Y-67289054D02*
X91454762Y-67289054D01*
X92216667Y-67527149D02*
X91930953Y-67527149D01*
X92073810Y-67527149D02*
X92073810Y-67027149D01*
X92073810Y-67027149D02*
X92026191Y-67098578D01*
X92026191Y-67098578D02*
X91978572Y-67146197D01*
X91978572Y-67146197D02*
X91930953Y-67170006D01*
X92526190Y-67027149D02*
X92573809Y-67027149D01*
X92573809Y-67027149D02*
X92621428Y-67050959D01*
X92621428Y-67050959D02*
X92645238Y-67074768D01*
X92645238Y-67074768D02*
X92669047Y-67122387D01*
X92669047Y-67122387D02*
X92692857Y-67217625D01*
X92692857Y-67217625D02*
X92692857Y-67336673D01*
X92692857Y-67336673D02*
X92669047Y-67431911D01*
X92669047Y-67431911D02*
X92645238Y-67479530D01*
X92645238Y-67479530D02*
X92621428Y-67503340D01*
X92621428Y-67503340D02*
X92573809Y-67527149D01*
X92573809Y-67527149D02*
X92526190Y-67527149D01*
X92526190Y-67527149D02*
X92478571Y-67503340D01*
X92478571Y-67503340D02*
X92454762Y-67479530D01*
X92454762Y-67479530D02*
X92430952Y-67431911D01*
X92430952Y-67431911D02*
X92407143Y-67336673D01*
X92407143Y-67336673D02*
X92407143Y-67217625D01*
X92407143Y-67217625D02*
X92430952Y-67122387D01*
X92430952Y-67122387D02*
X92454762Y-67074768D01*
X92454762Y-67074768D02*
X92478571Y-67050959D01*
X92478571Y-67050959D02*
X92526190Y-67027149D01*
X92859523Y-67027149D02*
X93192856Y-67027149D01*
X93192856Y-67027149D02*
X92978571Y-67527149D01*
D14*
X91614286Y-59581927D02*
X91614286Y-59905737D01*
X91614286Y-59905737D02*
X91633333Y-59943832D01*
X91633333Y-59943832D02*
X91652381Y-59962880D01*
X91652381Y-59962880D02*
X91690476Y-59981927D01*
X91690476Y-59981927D02*
X91766667Y-59981927D01*
X91766667Y-59981927D02*
X91804762Y-59962880D01*
X91804762Y-59962880D02*
X91823809Y-59943832D01*
X91823809Y-59943832D02*
X91842857Y-59905737D01*
X91842857Y-59905737D02*
X91842857Y-59581927D01*
X92242857Y-59981927D02*
X92014286Y-59981927D01*
X92128572Y-59981927D02*
X92128572Y-59581927D01*
X92128572Y-59581927D02*
X92090476Y-59639070D01*
X92090476Y-59639070D02*
X92052381Y-59677165D01*
X92052381Y-59677165D02*
X92014286Y-59696213D01*
X92490476Y-59581927D02*
X92528571Y-59581927D01*
X92528571Y-59581927D02*
X92566667Y-59600975D01*
X92566667Y-59600975D02*
X92585714Y-59620022D01*
X92585714Y-59620022D02*
X92604762Y-59658118D01*
X92604762Y-59658118D02*
X92623809Y-59734308D01*
X92623809Y-59734308D02*
X92623809Y-59829546D01*
X92623809Y-59829546D02*
X92604762Y-59905737D01*
X92604762Y-59905737D02*
X92585714Y-59943832D01*
X92585714Y-59943832D02*
X92566667Y-59962880D01*
X92566667Y-59962880D02*
X92528571Y-59981927D01*
X92528571Y-59981927D02*
X92490476Y-59981927D01*
X92490476Y-59981927D02*
X92452381Y-59962880D01*
X92452381Y-59962880D02*
X92433333Y-59943832D01*
X92433333Y-59943832D02*
X92414286Y-59905737D01*
X92414286Y-59905737D02*
X92395238Y-59829546D01*
X92395238Y-59829546D02*
X92395238Y-59734308D01*
X92395238Y-59734308D02*
X92414286Y-59658118D01*
X92414286Y-59658118D02*
X92433333Y-59620022D01*
X92433333Y-59620022D02*
X92452381Y-59600975D01*
X92452381Y-59600975D02*
X92490476Y-59581927D01*
X92757142Y-59581927D02*
X93004761Y-59581927D01*
X93004761Y-59581927D02*
X92871428Y-59734308D01*
X92871428Y-59734308D02*
X92928571Y-59734308D01*
X92928571Y-59734308D02*
X92966666Y-59753356D01*
X92966666Y-59753356D02*
X92985714Y-59772403D01*
X92985714Y-59772403D02*
X93004761Y-59810499D01*
X93004761Y-59810499D02*
X93004761Y-59905737D01*
X93004761Y-59905737D02*
X92985714Y-59943832D01*
X92985714Y-59943832D02*
X92966666Y-59962880D01*
X92966666Y-59962880D02*
X92928571Y-59981927D01*
X92928571Y-59981927D02*
X92814285Y-59981927D01*
X92814285Y-59981927D02*
X92776190Y-59962880D01*
X92776190Y-59962880D02*
X92757142Y-59943832D01*
D13*
X91740476Y-63027149D02*
X91573810Y-62789054D01*
X91454762Y-63027149D02*
X91454762Y-62527149D01*
X91454762Y-62527149D02*
X91645238Y-62527149D01*
X91645238Y-62527149D02*
X91692857Y-62550959D01*
X91692857Y-62550959D02*
X91716667Y-62574768D01*
X91716667Y-62574768D02*
X91740476Y-62622387D01*
X91740476Y-62622387D02*
X91740476Y-62693816D01*
X91740476Y-62693816D02*
X91716667Y-62741435D01*
X91716667Y-62741435D02*
X91692857Y-62765244D01*
X91692857Y-62765244D02*
X91645238Y-62789054D01*
X91645238Y-62789054D02*
X91454762Y-62789054D01*
X92216667Y-63027149D02*
X91930953Y-63027149D01*
X92073810Y-63027149D02*
X92073810Y-62527149D01*
X92073810Y-62527149D02*
X92026191Y-62598578D01*
X92026191Y-62598578D02*
X91978572Y-62646197D01*
X91978572Y-62646197D02*
X91930953Y-62670006D01*
X92526190Y-62527149D02*
X92573809Y-62527149D01*
X92573809Y-62527149D02*
X92621428Y-62550959D01*
X92621428Y-62550959D02*
X92645238Y-62574768D01*
X92645238Y-62574768D02*
X92669047Y-62622387D01*
X92669047Y-62622387D02*
X92692857Y-62717625D01*
X92692857Y-62717625D02*
X92692857Y-62836673D01*
X92692857Y-62836673D02*
X92669047Y-62931911D01*
X92669047Y-62931911D02*
X92645238Y-62979530D01*
X92645238Y-62979530D02*
X92621428Y-63003340D01*
X92621428Y-63003340D02*
X92573809Y-63027149D01*
X92573809Y-63027149D02*
X92526190Y-63027149D01*
X92526190Y-63027149D02*
X92478571Y-63003340D01*
X92478571Y-63003340D02*
X92454762Y-62979530D01*
X92454762Y-62979530D02*
X92430952Y-62931911D01*
X92430952Y-62931911D02*
X92407143Y-62836673D01*
X92407143Y-62836673D02*
X92407143Y-62717625D01*
X92407143Y-62717625D02*
X92430952Y-62622387D01*
X92430952Y-62622387D02*
X92454762Y-62574768D01*
X92454762Y-62574768D02*
X92478571Y-62550959D01*
X92478571Y-62550959D02*
X92526190Y-62527149D01*
X93121428Y-62693816D02*
X93121428Y-63027149D01*
X93002380Y-62503340D02*
X92883333Y-62860482D01*
X92883333Y-62860482D02*
X93192856Y-62860482D01*
X91740476Y-56929530D02*
X91716667Y-56953340D01*
X91716667Y-56953340D02*
X91645238Y-56977149D01*
X91645238Y-56977149D02*
X91597619Y-56977149D01*
X91597619Y-56977149D02*
X91526191Y-56953340D01*
X91526191Y-56953340D02*
X91478572Y-56905720D01*
X91478572Y-56905720D02*
X91454762Y-56858101D01*
X91454762Y-56858101D02*
X91430953Y-56762863D01*
X91430953Y-56762863D02*
X91430953Y-56691435D01*
X91430953Y-56691435D02*
X91454762Y-56596197D01*
X91454762Y-56596197D02*
X91478572Y-56548578D01*
X91478572Y-56548578D02*
X91526191Y-56500959D01*
X91526191Y-56500959D02*
X91597619Y-56477149D01*
X91597619Y-56477149D02*
X91645238Y-56477149D01*
X91645238Y-56477149D02*
X91716667Y-56500959D01*
X91716667Y-56500959D02*
X91740476Y-56524768D01*
X92216667Y-56977149D02*
X91930953Y-56977149D01*
X92073810Y-56977149D02*
X92073810Y-56477149D01*
X92073810Y-56477149D02*
X92026191Y-56548578D01*
X92026191Y-56548578D02*
X91978572Y-56596197D01*
X91978572Y-56596197D02*
X91930953Y-56620006D01*
X92526190Y-56477149D02*
X92573809Y-56477149D01*
X92573809Y-56477149D02*
X92621428Y-56500959D01*
X92621428Y-56500959D02*
X92645238Y-56524768D01*
X92645238Y-56524768D02*
X92669047Y-56572387D01*
X92669047Y-56572387D02*
X92692857Y-56667625D01*
X92692857Y-56667625D02*
X92692857Y-56786673D01*
X92692857Y-56786673D02*
X92669047Y-56881911D01*
X92669047Y-56881911D02*
X92645238Y-56929530D01*
X92645238Y-56929530D02*
X92621428Y-56953340D01*
X92621428Y-56953340D02*
X92573809Y-56977149D01*
X92573809Y-56977149D02*
X92526190Y-56977149D01*
X92526190Y-56977149D02*
X92478571Y-56953340D01*
X92478571Y-56953340D02*
X92454762Y-56929530D01*
X92454762Y-56929530D02*
X92430952Y-56881911D01*
X92430952Y-56881911D02*
X92407143Y-56786673D01*
X92407143Y-56786673D02*
X92407143Y-56667625D01*
X92407143Y-56667625D02*
X92430952Y-56572387D01*
X92430952Y-56572387D02*
X92454762Y-56524768D01*
X92454762Y-56524768D02*
X92478571Y-56500959D01*
X92478571Y-56500959D02*
X92526190Y-56477149D01*
X92859523Y-56477149D02*
X93192856Y-56477149D01*
X93192856Y-56477149D02*
X92978571Y-56977149D01*
X117940476Y-63979530D02*
X117916667Y-64003340D01*
X117916667Y-64003340D02*
X117845238Y-64027149D01*
X117845238Y-64027149D02*
X117797619Y-64027149D01*
X117797619Y-64027149D02*
X117726191Y-64003340D01*
X117726191Y-64003340D02*
X117678572Y-63955720D01*
X117678572Y-63955720D02*
X117654762Y-63908101D01*
X117654762Y-63908101D02*
X117630953Y-63812863D01*
X117630953Y-63812863D02*
X117630953Y-63741435D01*
X117630953Y-63741435D02*
X117654762Y-63646197D01*
X117654762Y-63646197D02*
X117678572Y-63598578D01*
X117678572Y-63598578D02*
X117726191Y-63550959D01*
X117726191Y-63550959D02*
X117797619Y-63527149D01*
X117797619Y-63527149D02*
X117845238Y-63527149D01*
X117845238Y-63527149D02*
X117916667Y-63550959D01*
X117916667Y-63550959D02*
X117940476Y-63574768D01*
X118416667Y-64027149D02*
X118130953Y-64027149D01*
X118273810Y-64027149D02*
X118273810Y-63527149D01*
X118273810Y-63527149D02*
X118226191Y-63598578D01*
X118226191Y-63598578D02*
X118178572Y-63646197D01*
X118178572Y-63646197D02*
X118130953Y-63670006D01*
X118726190Y-63527149D02*
X118773809Y-63527149D01*
X118773809Y-63527149D02*
X118821428Y-63550959D01*
X118821428Y-63550959D02*
X118845238Y-63574768D01*
X118845238Y-63574768D02*
X118869047Y-63622387D01*
X118869047Y-63622387D02*
X118892857Y-63717625D01*
X118892857Y-63717625D02*
X118892857Y-63836673D01*
X118892857Y-63836673D02*
X118869047Y-63931911D01*
X118869047Y-63931911D02*
X118845238Y-63979530D01*
X118845238Y-63979530D02*
X118821428Y-64003340D01*
X118821428Y-64003340D02*
X118773809Y-64027149D01*
X118773809Y-64027149D02*
X118726190Y-64027149D01*
X118726190Y-64027149D02*
X118678571Y-64003340D01*
X118678571Y-64003340D02*
X118654762Y-63979530D01*
X118654762Y-63979530D02*
X118630952Y-63931911D01*
X118630952Y-63931911D02*
X118607143Y-63836673D01*
X118607143Y-63836673D02*
X118607143Y-63717625D01*
X118607143Y-63717625D02*
X118630952Y-63622387D01*
X118630952Y-63622387D02*
X118654762Y-63574768D01*
X118654762Y-63574768D02*
X118678571Y-63550959D01*
X118678571Y-63550959D02*
X118726190Y-63527149D01*
X119059523Y-63527149D02*
X119369047Y-63527149D01*
X119369047Y-63527149D02*
X119202380Y-63717625D01*
X119202380Y-63717625D02*
X119273809Y-63717625D01*
X119273809Y-63717625D02*
X119321428Y-63741435D01*
X119321428Y-63741435D02*
X119345237Y-63765244D01*
X119345237Y-63765244D02*
X119369047Y-63812863D01*
X119369047Y-63812863D02*
X119369047Y-63931911D01*
X119369047Y-63931911D02*
X119345237Y-63979530D01*
X119345237Y-63979530D02*
X119321428Y-64003340D01*
X119321428Y-64003340D02*
X119273809Y-64027149D01*
X119273809Y-64027149D02*
X119130952Y-64027149D01*
X119130952Y-64027149D02*
X119083333Y-64003340D01*
X119083333Y-64003340D02*
X119059523Y-63979530D01*
X91740476Y-65229530D02*
X91716667Y-65253340D01*
X91716667Y-65253340D02*
X91645238Y-65277149D01*
X91645238Y-65277149D02*
X91597619Y-65277149D01*
X91597619Y-65277149D02*
X91526191Y-65253340D01*
X91526191Y-65253340D02*
X91478572Y-65205720D01*
X91478572Y-65205720D02*
X91454762Y-65158101D01*
X91454762Y-65158101D02*
X91430953Y-65062863D01*
X91430953Y-65062863D02*
X91430953Y-64991435D01*
X91430953Y-64991435D02*
X91454762Y-64896197D01*
X91454762Y-64896197D02*
X91478572Y-64848578D01*
X91478572Y-64848578D02*
X91526191Y-64800959D01*
X91526191Y-64800959D02*
X91597619Y-64777149D01*
X91597619Y-64777149D02*
X91645238Y-64777149D01*
X91645238Y-64777149D02*
X91716667Y-64800959D01*
X91716667Y-64800959D02*
X91740476Y-64824768D01*
X92216667Y-65277149D02*
X91930953Y-65277149D01*
X92073810Y-65277149D02*
X92073810Y-64777149D01*
X92073810Y-64777149D02*
X92026191Y-64848578D01*
X92026191Y-64848578D02*
X91978572Y-64896197D01*
X91978572Y-64896197D02*
X91930953Y-64920006D01*
X92692857Y-65277149D02*
X92407143Y-65277149D01*
X92550000Y-65277149D02*
X92550000Y-64777149D01*
X92550000Y-64777149D02*
X92502381Y-64848578D01*
X92502381Y-64848578D02*
X92454762Y-64896197D01*
X92454762Y-64896197D02*
X92407143Y-64920006D01*
X93002380Y-64777149D02*
X93049999Y-64777149D01*
X93049999Y-64777149D02*
X93097618Y-64800959D01*
X93097618Y-64800959D02*
X93121428Y-64824768D01*
X93121428Y-64824768D02*
X93145237Y-64872387D01*
X93145237Y-64872387D02*
X93169047Y-64967625D01*
X93169047Y-64967625D02*
X93169047Y-65086673D01*
X93169047Y-65086673D02*
X93145237Y-65181911D01*
X93145237Y-65181911D02*
X93121428Y-65229530D01*
X93121428Y-65229530D02*
X93097618Y-65253340D01*
X93097618Y-65253340D02*
X93049999Y-65277149D01*
X93049999Y-65277149D02*
X93002380Y-65277149D01*
X93002380Y-65277149D02*
X92954761Y-65253340D01*
X92954761Y-65253340D02*
X92930952Y-65229530D01*
X92930952Y-65229530D02*
X92907142Y-65181911D01*
X92907142Y-65181911D02*
X92883333Y-65086673D01*
X92883333Y-65086673D02*
X92883333Y-64967625D01*
X92883333Y-64967625D02*
X92907142Y-64872387D01*
X92907142Y-64872387D02*
X92930952Y-64824768D01*
X92930952Y-64824768D02*
X92954761Y-64800959D01*
X92954761Y-64800959D02*
X93002380Y-64777149D01*
X116240476Y-22477149D02*
X116073810Y-22239054D01*
X115954762Y-22477149D02*
X115954762Y-21977149D01*
X115954762Y-21977149D02*
X116145238Y-21977149D01*
X116145238Y-21977149D02*
X116192857Y-22000959D01*
X116192857Y-22000959D02*
X116216667Y-22024768D01*
X116216667Y-22024768D02*
X116240476Y-22072387D01*
X116240476Y-22072387D02*
X116240476Y-22143816D01*
X116240476Y-22143816D02*
X116216667Y-22191435D01*
X116216667Y-22191435D02*
X116192857Y-22215244D01*
X116192857Y-22215244D02*
X116145238Y-22239054D01*
X116145238Y-22239054D02*
X115954762Y-22239054D01*
X116716667Y-22477149D02*
X116430953Y-22477149D01*
X116573810Y-22477149D02*
X116573810Y-21977149D01*
X116573810Y-21977149D02*
X116526191Y-22048578D01*
X116526191Y-22048578D02*
X116478572Y-22096197D01*
X116478572Y-22096197D02*
X116430953Y-22120006D01*
X117026190Y-21977149D02*
X117073809Y-21977149D01*
X117073809Y-21977149D02*
X117121428Y-22000959D01*
X117121428Y-22000959D02*
X117145238Y-22024768D01*
X117145238Y-22024768D02*
X117169047Y-22072387D01*
X117169047Y-22072387D02*
X117192857Y-22167625D01*
X117192857Y-22167625D02*
X117192857Y-22286673D01*
X117192857Y-22286673D02*
X117169047Y-22381911D01*
X117169047Y-22381911D02*
X117145238Y-22429530D01*
X117145238Y-22429530D02*
X117121428Y-22453340D01*
X117121428Y-22453340D02*
X117073809Y-22477149D01*
X117073809Y-22477149D02*
X117026190Y-22477149D01*
X117026190Y-22477149D02*
X116978571Y-22453340D01*
X116978571Y-22453340D02*
X116954762Y-22429530D01*
X116954762Y-22429530D02*
X116930952Y-22381911D01*
X116930952Y-22381911D02*
X116907143Y-22286673D01*
X116907143Y-22286673D02*
X116907143Y-22167625D01*
X116907143Y-22167625D02*
X116930952Y-22072387D01*
X116930952Y-22072387D02*
X116954762Y-22024768D01*
X116954762Y-22024768D02*
X116978571Y-22000959D01*
X116978571Y-22000959D02*
X117026190Y-21977149D01*
X117621428Y-21977149D02*
X117526190Y-21977149D01*
X117526190Y-21977149D02*
X117478571Y-22000959D01*
X117478571Y-22000959D02*
X117454761Y-22024768D01*
X117454761Y-22024768D02*
X117407142Y-22096197D01*
X117407142Y-22096197D02*
X117383333Y-22191435D01*
X117383333Y-22191435D02*
X117383333Y-22381911D01*
X117383333Y-22381911D02*
X117407142Y-22429530D01*
X117407142Y-22429530D02*
X117430952Y-22453340D01*
X117430952Y-22453340D02*
X117478571Y-22477149D01*
X117478571Y-22477149D02*
X117573809Y-22477149D01*
X117573809Y-22477149D02*
X117621428Y-22453340D01*
X117621428Y-22453340D02*
X117645237Y-22429530D01*
X117645237Y-22429530D02*
X117669047Y-22381911D01*
X117669047Y-22381911D02*
X117669047Y-22262863D01*
X117669047Y-22262863D02*
X117645237Y-22215244D01*
X117645237Y-22215244D02*
X117621428Y-22191435D01*
X117621428Y-22191435D02*
X117573809Y-22167625D01*
X117573809Y-22167625D02*
X117478571Y-22167625D01*
X117478571Y-22167625D02*
X117430952Y-22191435D01*
X117430952Y-22191435D02*
X117407142Y-22215244D01*
X117407142Y-22215244D02*
X117383333Y-22262863D01*
D10*
X81552200Y-34355713D02*
X81599819Y-34212856D01*
X81599819Y-34212856D02*
X81599819Y-33974761D01*
X81599819Y-33974761D02*
X81552200Y-33879523D01*
X81552200Y-33879523D02*
X81504580Y-33831904D01*
X81504580Y-33831904D02*
X81409342Y-33784285D01*
X81409342Y-33784285D02*
X81314104Y-33784285D01*
X81314104Y-33784285D02*
X81218866Y-33831904D01*
X81218866Y-33831904D02*
X81171247Y-33879523D01*
X81171247Y-33879523D02*
X81123628Y-33974761D01*
X81123628Y-33974761D02*
X81076009Y-34165237D01*
X81076009Y-34165237D02*
X81028390Y-34260475D01*
X81028390Y-34260475D02*
X80980771Y-34308094D01*
X80980771Y-34308094D02*
X80885533Y-34355713D01*
X80885533Y-34355713D02*
X80790295Y-34355713D01*
X80790295Y-34355713D02*
X80695057Y-34308094D01*
X80695057Y-34308094D02*
X80647438Y-34260475D01*
X80647438Y-34260475D02*
X80599819Y-34165237D01*
X80599819Y-34165237D02*
X80599819Y-33927142D01*
X80599819Y-33927142D02*
X80647438Y-33784285D01*
X80599819Y-33450951D02*
X81599819Y-33212856D01*
X81599819Y-33212856D02*
X80885533Y-33022380D01*
X80885533Y-33022380D02*
X81599819Y-32831904D01*
X81599819Y-32831904D02*
X80599819Y-32593809D01*
X81599819Y-31689047D02*
X81599819Y-32260475D01*
X81599819Y-31974761D02*
X80599819Y-31974761D01*
X80599819Y-31974761D02*
X80742676Y-32069999D01*
X80742676Y-32069999D02*
X80837914Y-32165237D01*
X80837914Y-32165237D02*
X80885533Y-32260475D01*
X80599819Y-31069999D02*
X80599819Y-30974761D01*
X80599819Y-30974761D02*
X80647438Y-30879523D01*
X80647438Y-30879523D02*
X80695057Y-30831904D01*
X80695057Y-30831904D02*
X80790295Y-30784285D01*
X80790295Y-30784285D02*
X80980771Y-30736666D01*
X80980771Y-30736666D02*
X81218866Y-30736666D01*
X81218866Y-30736666D02*
X81409342Y-30784285D01*
X81409342Y-30784285D02*
X81504580Y-30831904D01*
X81504580Y-30831904D02*
X81552200Y-30879523D01*
X81552200Y-30879523D02*
X81599819Y-30974761D01*
X81599819Y-30974761D02*
X81599819Y-31069999D01*
X81599819Y-31069999D02*
X81552200Y-31165237D01*
X81552200Y-31165237D02*
X81504580Y-31212856D01*
X81504580Y-31212856D02*
X81409342Y-31260475D01*
X81409342Y-31260475D02*
X81218866Y-31308094D01*
X81218866Y-31308094D02*
X80980771Y-31308094D01*
X80980771Y-31308094D02*
X80790295Y-31260475D01*
X80790295Y-31260475D02*
X80695057Y-31212856D01*
X80695057Y-31212856D02*
X80647438Y-31165237D01*
X80647438Y-31165237D02*
X80599819Y-31069999D01*
X81599819Y-29784285D02*
X81599819Y-30355713D01*
X81599819Y-30069999D02*
X80599819Y-30069999D01*
X80599819Y-30069999D02*
X80742676Y-30165237D01*
X80742676Y-30165237D02*
X80837914Y-30260475D01*
X80837914Y-30260475D02*
X80885533Y-30355713D01*
D13*
X91740476Y-52527149D02*
X91573810Y-52289054D01*
X91454762Y-52527149D02*
X91454762Y-52027149D01*
X91454762Y-52027149D02*
X91645238Y-52027149D01*
X91645238Y-52027149D02*
X91692857Y-52050959D01*
X91692857Y-52050959D02*
X91716667Y-52074768D01*
X91716667Y-52074768D02*
X91740476Y-52122387D01*
X91740476Y-52122387D02*
X91740476Y-52193816D01*
X91740476Y-52193816D02*
X91716667Y-52241435D01*
X91716667Y-52241435D02*
X91692857Y-52265244D01*
X91692857Y-52265244D02*
X91645238Y-52289054D01*
X91645238Y-52289054D02*
X91454762Y-52289054D01*
X92216667Y-52527149D02*
X91930953Y-52527149D01*
X92073810Y-52527149D02*
X92073810Y-52027149D01*
X92073810Y-52027149D02*
X92026191Y-52098578D01*
X92026191Y-52098578D02*
X91978572Y-52146197D01*
X91978572Y-52146197D02*
X91930953Y-52170006D01*
X92526190Y-52027149D02*
X92573809Y-52027149D01*
X92573809Y-52027149D02*
X92621428Y-52050959D01*
X92621428Y-52050959D02*
X92645238Y-52074768D01*
X92645238Y-52074768D02*
X92669047Y-52122387D01*
X92669047Y-52122387D02*
X92692857Y-52217625D01*
X92692857Y-52217625D02*
X92692857Y-52336673D01*
X92692857Y-52336673D02*
X92669047Y-52431911D01*
X92669047Y-52431911D02*
X92645238Y-52479530D01*
X92645238Y-52479530D02*
X92621428Y-52503340D01*
X92621428Y-52503340D02*
X92573809Y-52527149D01*
X92573809Y-52527149D02*
X92526190Y-52527149D01*
X92526190Y-52527149D02*
X92478571Y-52503340D01*
X92478571Y-52503340D02*
X92454762Y-52479530D01*
X92454762Y-52479530D02*
X92430952Y-52431911D01*
X92430952Y-52431911D02*
X92407143Y-52336673D01*
X92407143Y-52336673D02*
X92407143Y-52217625D01*
X92407143Y-52217625D02*
X92430952Y-52122387D01*
X92430952Y-52122387D02*
X92454762Y-52074768D01*
X92454762Y-52074768D02*
X92478571Y-52050959D01*
X92478571Y-52050959D02*
X92526190Y-52027149D01*
X93169047Y-52527149D02*
X92883333Y-52527149D01*
X93026190Y-52527149D02*
X93026190Y-52027149D01*
X93026190Y-52027149D02*
X92978571Y-52098578D01*
X92978571Y-52098578D02*
X92930952Y-52146197D01*
X92930952Y-52146197D02*
X92883333Y-52170006D01*
X88890476Y-22377149D02*
X88723810Y-22139054D01*
X88604762Y-22377149D02*
X88604762Y-21877149D01*
X88604762Y-21877149D02*
X88795238Y-21877149D01*
X88795238Y-21877149D02*
X88842857Y-21900959D01*
X88842857Y-21900959D02*
X88866667Y-21924768D01*
X88866667Y-21924768D02*
X88890476Y-21972387D01*
X88890476Y-21972387D02*
X88890476Y-22043816D01*
X88890476Y-22043816D02*
X88866667Y-22091435D01*
X88866667Y-22091435D02*
X88842857Y-22115244D01*
X88842857Y-22115244D02*
X88795238Y-22139054D01*
X88795238Y-22139054D02*
X88604762Y-22139054D01*
X89366667Y-22377149D02*
X89080953Y-22377149D01*
X89223810Y-22377149D02*
X89223810Y-21877149D01*
X89223810Y-21877149D02*
X89176191Y-21948578D01*
X89176191Y-21948578D02*
X89128572Y-21996197D01*
X89128572Y-21996197D02*
X89080953Y-22020006D01*
X89676190Y-21877149D02*
X89723809Y-21877149D01*
X89723809Y-21877149D02*
X89771428Y-21900959D01*
X89771428Y-21900959D02*
X89795238Y-21924768D01*
X89795238Y-21924768D02*
X89819047Y-21972387D01*
X89819047Y-21972387D02*
X89842857Y-22067625D01*
X89842857Y-22067625D02*
X89842857Y-22186673D01*
X89842857Y-22186673D02*
X89819047Y-22281911D01*
X89819047Y-22281911D02*
X89795238Y-22329530D01*
X89795238Y-22329530D02*
X89771428Y-22353340D01*
X89771428Y-22353340D02*
X89723809Y-22377149D01*
X89723809Y-22377149D02*
X89676190Y-22377149D01*
X89676190Y-22377149D02*
X89628571Y-22353340D01*
X89628571Y-22353340D02*
X89604762Y-22329530D01*
X89604762Y-22329530D02*
X89580952Y-22281911D01*
X89580952Y-22281911D02*
X89557143Y-22186673D01*
X89557143Y-22186673D02*
X89557143Y-22067625D01*
X89557143Y-22067625D02*
X89580952Y-21972387D01*
X89580952Y-21972387D02*
X89604762Y-21924768D01*
X89604762Y-21924768D02*
X89628571Y-21900959D01*
X89628571Y-21900959D02*
X89676190Y-21877149D01*
X90295237Y-21877149D02*
X90057142Y-21877149D01*
X90057142Y-21877149D02*
X90033333Y-22115244D01*
X90033333Y-22115244D02*
X90057142Y-22091435D01*
X90057142Y-22091435D02*
X90104761Y-22067625D01*
X90104761Y-22067625D02*
X90223809Y-22067625D01*
X90223809Y-22067625D02*
X90271428Y-22091435D01*
X90271428Y-22091435D02*
X90295237Y-22115244D01*
X90295237Y-22115244D02*
X90319047Y-22162863D01*
X90319047Y-22162863D02*
X90319047Y-22281911D01*
X90319047Y-22281911D02*
X90295237Y-22329530D01*
X90295237Y-22329530D02*
X90271428Y-22353340D01*
X90271428Y-22353340D02*
X90223809Y-22377149D01*
X90223809Y-22377149D02*
X90104761Y-22377149D01*
X90104761Y-22377149D02*
X90057142Y-22353340D01*
X90057142Y-22353340D02*
X90033333Y-22329530D01*
X89240476Y-88777149D02*
X89073810Y-88539054D01*
X88954762Y-88777149D02*
X88954762Y-88277149D01*
X88954762Y-88277149D02*
X89145238Y-88277149D01*
X89145238Y-88277149D02*
X89192857Y-88300959D01*
X89192857Y-88300959D02*
X89216667Y-88324768D01*
X89216667Y-88324768D02*
X89240476Y-88372387D01*
X89240476Y-88372387D02*
X89240476Y-88443816D01*
X89240476Y-88443816D02*
X89216667Y-88491435D01*
X89216667Y-88491435D02*
X89192857Y-88515244D01*
X89192857Y-88515244D02*
X89145238Y-88539054D01*
X89145238Y-88539054D02*
X88954762Y-88539054D01*
X89716667Y-88777149D02*
X89430953Y-88777149D01*
X89573810Y-88777149D02*
X89573810Y-88277149D01*
X89573810Y-88277149D02*
X89526191Y-88348578D01*
X89526191Y-88348578D02*
X89478572Y-88396197D01*
X89478572Y-88396197D02*
X89430953Y-88420006D01*
X90026190Y-88277149D02*
X90073809Y-88277149D01*
X90073809Y-88277149D02*
X90121428Y-88300959D01*
X90121428Y-88300959D02*
X90145238Y-88324768D01*
X90145238Y-88324768D02*
X90169047Y-88372387D01*
X90169047Y-88372387D02*
X90192857Y-88467625D01*
X90192857Y-88467625D02*
X90192857Y-88586673D01*
X90192857Y-88586673D02*
X90169047Y-88681911D01*
X90169047Y-88681911D02*
X90145238Y-88729530D01*
X90145238Y-88729530D02*
X90121428Y-88753340D01*
X90121428Y-88753340D02*
X90073809Y-88777149D01*
X90073809Y-88777149D02*
X90026190Y-88777149D01*
X90026190Y-88777149D02*
X89978571Y-88753340D01*
X89978571Y-88753340D02*
X89954762Y-88729530D01*
X89954762Y-88729530D02*
X89930952Y-88681911D01*
X89930952Y-88681911D02*
X89907143Y-88586673D01*
X89907143Y-88586673D02*
X89907143Y-88467625D01*
X89907143Y-88467625D02*
X89930952Y-88372387D01*
X89930952Y-88372387D02*
X89954762Y-88324768D01*
X89954762Y-88324768D02*
X89978571Y-88300959D01*
X89978571Y-88300959D02*
X90026190Y-88277149D01*
X90430952Y-88777149D02*
X90526190Y-88777149D01*
X90526190Y-88777149D02*
X90573809Y-88753340D01*
X90573809Y-88753340D02*
X90597618Y-88729530D01*
X90597618Y-88729530D02*
X90645237Y-88658101D01*
X90645237Y-88658101D02*
X90669047Y-88562863D01*
X90669047Y-88562863D02*
X90669047Y-88372387D01*
X90669047Y-88372387D02*
X90645237Y-88324768D01*
X90645237Y-88324768D02*
X90621428Y-88300959D01*
X90621428Y-88300959D02*
X90573809Y-88277149D01*
X90573809Y-88277149D02*
X90478571Y-88277149D01*
X90478571Y-88277149D02*
X90430952Y-88300959D01*
X90430952Y-88300959D02*
X90407142Y-88324768D01*
X90407142Y-88324768D02*
X90383333Y-88372387D01*
X90383333Y-88372387D02*
X90383333Y-88491435D01*
X90383333Y-88491435D02*
X90407142Y-88539054D01*
X90407142Y-88539054D02*
X90430952Y-88562863D01*
X90430952Y-88562863D02*
X90478571Y-88586673D01*
X90478571Y-88586673D02*
X90573809Y-88586673D01*
X90573809Y-88586673D02*
X90621428Y-88562863D01*
X90621428Y-88562863D02*
X90645237Y-88539054D01*
X90645237Y-88539054D02*
X90669047Y-88491435D01*
D12*
X125950000Y-25670000D02*
X125950000Y-38470000D01*
X120150000Y-25670000D02*
X125950000Y-25670000D01*
X125950000Y-38470000D02*
X120150000Y-38470000D01*
X120150000Y-38470000D02*
X120150000Y-25670000D01*
X115950000Y-26020000D02*
X115950000Y-38820000D01*
X110150000Y-26020000D02*
X115950000Y-26020000D01*
X115950000Y-38820000D02*
X110150000Y-38820000D01*
X110150000Y-38820000D02*
X110150000Y-26020000D01*
D15*
X123780000Y-82110000D02*
X123780000Y-71950000D01*
X125685000Y-82110000D02*
X123780000Y-82110000D01*
X126320000Y-81475000D02*
X125685000Y-82110000D01*
X123780000Y-71950000D02*
X126320000Y-71950000D01*
X126320000Y-71950000D02*
X126320000Y-81475000D01*
X117550000Y-65250000D02*
X119350000Y-65250000D01*
X119350000Y-67700000D02*
X119350000Y-65250000D01*
X119350000Y-67700000D02*
X118700000Y-68350000D01*
X117550000Y-68350000D02*
X117550000Y-65250000D01*
X117550000Y-68350000D02*
X118700000Y-68350000D01*
X124270000Y-60440000D02*
X115370000Y-60440000D01*
X124270000Y-42620000D02*
X124270000Y-60440000D01*
X123070000Y-59250000D02*
X116570000Y-59250000D01*
X123070000Y-43810000D02*
X123070000Y-59250000D01*
X116570000Y-59250000D02*
X116570000Y-53580000D01*
X116570000Y-53580000D02*
X116570000Y-53580000D01*
X116570000Y-53580000D02*
X115370000Y-53580000D01*
X116570000Y-49480000D02*
X116570000Y-43810000D01*
X116570000Y-43810000D02*
X123070000Y-43810000D01*
X116370000Y-42620000D02*
X124270000Y-42620000D01*
X115370000Y-60440000D02*
X115370000Y-43620000D01*
X115370000Y-49480000D02*
X116570000Y-49480000D01*
X115370000Y-43620000D02*
X116370000Y-42620000D01*
X113466190Y-19330000D02*
X111133810Y-19330000D01*
X113466190Y-19330000D02*
G75*
G02*
X111133751Y-19330046I-1166190J-1500000D01*
G01*
X113800000Y-20830000D02*
G75*
G02*
X110800000Y-20830000I-1500000J0D01*
G01*
X110800000Y-20830000D02*
G75*
G02*
X113800000Y-20830000I1500000J0D01*
G01*
X93300000Y-55175000D02*
X91300000Y-55175000D01*
X93300000Y-53925000D02*
X93300000Y-55175000D01*
X91300000Y-55175000D02*
X91300000Y-53925000D01*
X91300000Y-53925000D02*
X93300000Y-53925000D01*
X80050000Y-69850000D02*
X80050000Y-66250000D01*
X86050000Y-69850000D02*
X80050000Y-69850000D01*
X86050000Y-69850000D02*
X86050000Y-66250000D01*
X81300000Y-69050000D02*
X81300000Y-67050000D01*
X84800000Y-69050000D02*
X81300000Y-69050000D01*
X81550000Y-68850000D02*
X81550000Y-67250000D01*
X84550000Y-68850000D02*
X81550000Y-68850000D01*
X84550000Y-68850000D02*
X84550000Y-67250000D01*
X84550000Y-67250000D02*
X81550000Y-67250000D01*
X81300000Y-67050000D02*
X84800000Y-67050000D01*
X84800000Y-67050000D02*
X84800000Y-69050000D01*
X86050000Y-66250000D02*
X80050000Y-66250000D01*
X80000000Y-65500000D02*
X80000000Y-61900000D01*
X86000000Y-65500000D02*
X80000000Y-65500000D01*
X86000000Y-65500000D02*
X86000000Y-61900000D01*
X81250000Y-64700000D02*
X81250000Y-62700000D01*
X84750000Y-64700000D02*
X81250000Y-64700000D01*
X81500000Y-64500000D02*
X81500000Y-62900000D01*
X84500000Y-64500000D02*
X81500000Y-64500000D01*
X84500000Y-64500000D02*
X84500000Y-62900000D01*
X84500000Y-62900000D02*
X81500000Y-62900000D01*
X81250000Y-62700000D02*
X84750000Y-62700000D01*
X84750000Y-62700000D02*
X84750000Y-64700000D01*
X86000000Y-61900000D02*
X80000000Y-61900000D01*
X119550000Y-71425000D02*
X119550000Y-72675000D01*
X117550000Y-71425000D02*
X119550000Y-71425000D01*
X119550000Y-72675000D02*
X117550000Y-72675000D01*
X117550000Y-72675000D02*
X117550000Y-71425000D01*
X81675000Y-82850000D02*
X85075000Y-82850000D01*
X80925000Y-82100000D02*
X80925000Y-77300000D01*
X85825000Y-82100000D02*
X85825000Y-77300000D01*
X81675000Y-81850000D02*
X84675000Y-81850000D01*
X81425000Y-81600000D02*
X81425000Y-80600000D01*
X84925000Y-81600000D02*
X84925000Y-80325000D01*
X82025000Y-80950000D02*
X81425000Y-81250000D01*
X81425000Y-80650000D02*
X82025000Y-80950000D01*
X81425000Y-80600000D02*
X81825000Y-80600000D01*
X81825000Y-80600000D02*
X81825000Y-78800000D01*
X84925000Y-80325000D02*
X85325000Y-80325000D01*
X85325000Y-80325000D02*
X85325000Y-79075000D01*
X84925000Y-79075000D02*
X84925000Y-77800000D01*
X85325000Y-79075000D02*
X84925000Y-79075000D01*
X81425000Y-78800000D02*
X81425000Y-77800000D01*
X81825000Y-78800000D02*
X81425000Y-78800000D01*
X81675000Y-77550000D02*
X84675000Y-77550000D01*
X81675000Y-76550000D02*
X85075000Y-76550000D01*
X81675000Y-82850000D02*
G75*
G02*
X80925000Y-82100000I0J750000D01*
G01*
X85825000Y-82100000D02*
G75*
G02*
X85075000Y-82850000I-750000J0D01*
G01*
X81675000Y-81850000D02*
G75*
G02*
X81425000Y-81600000I-1J249999D01*
G01*
X84925000Y-81600000D02*
G75*
G02*
X84675000Y-81850000I-249999J-1D01*
G01*
X81425000Y-77800000D02*
G75*
G02*
X81675000Y-77550000I250000J0D01*
G01*
X84675000Y-77550000D02*
G75*
G02*
X84925000Y-77800000I0J-250000D01*
G01*
X80925000Y-77300000D02*
G75*
G02*
X81675000Y-76550000I750000J0D01*
G01*
X85075000Y-76550000D02*
G75*
G02*
X85825000Y-77300000I0J-750000D01*
G01*
X88800000Y-85675000D02*
X90800000Y-85675000D01*
X88800000Y-86925000D02*
X88800000Y-85675000D01*
X90800000Y-85675000D02*
X90800000Y-86925000D01*
X90800000Y-86925000D02*
X88800000Y-86925000D01*
X117175000Y-87050000D02*
X118425000Y-87050000D01*
X117175000Y-89050000D02*
X117175000Y-87050000D01*
X118425000Y-87050000D02*
X118425000Y-89050000D01*
X118425000Y-89050000D02*
X117175000Y-89050000D01*
X111550000Y-61175000D02*
X113550000Y-61175000D01*
X111550000Y-62425000D02*
X111550000Y-61175000D01*
X113550000Y-61175000D02*
X113550000Y-62425000D01*
X113550000Y-62425000D02*
X111550000Y-62425000D01*
X95016190Y-19450000D02*
X92683810Y-19450000D01*
X95016190Y-19450000D02*
G75*
G02*
X92683751Y-19450046I-1166190J-1500000D01*
G01*
X95350000Y-20950000D02*
G75*
G02*
X92350000Y-20950000I-1500000J0D01*
G01*
X92350000Y-20950000D02*
G75*
G02*
X95350000Y-20950000I1500000J0D01*
G01*
X114675000Y-87050000D02*
X115925000Y-87050000D01*
X114675000Y-89050000D02*
X114675000Y-87050000D01*
X115925000Y-87050000D02*
X115925000Y-89050000D01*
X115925000Y-89050000D02*
X114675000Y-89050000D01*
X117550000Y-70425000D02*
X117550000Y-69175000D01*
X119550000Y-70425000D02*
X117550000Y-70425000D01*
X117550000Y-69175000D02*
X119550000Y-69175000D01*
X119550000Y-69175000D02*
X119550000Y-70425000D01*
X93300000Y-66675000D02*
X93300000Y-67925000D01*
X91300000Y-66675000D02*
X93300000Y-66675000D01*
X93300000Y-67925000D02*
X91300000Y-67925000D01*
X91300000Y-67925000D02*
X91300000Y-66675000D01*
X91500000Y-61250000D02*
X91500000Y-58750000D01*
X93100000Y-61250000D02*
X91500000Y-61250000D01*
X91500000Y-58750000D02*
X91900000Y-58350000D01*
X91900000Y-58350000D02*
X93100000Y-58350000D01*
X93100000Y-58350000D02*
X93100000Y-61250000D01*
X93300000Y-62175000D02*
X93300000Y-63425000D01*
X91300000Y-62175000D02*
X93300000Y-62175000D01*
X93300000Y-63425000D02*
X91300000Y-63425000D01*
X91300000Y-63425000D02*
X91300000Y-62175000D01*
X93300000Y-57375000D02*
X91300000Y-57375000D01*
X93300000Y-56125000D02*
X93300000Y-57375000D01*
X91300000Y-57375000D02*
X91300000Y-56125000D01*
X91300000Y-56125000D02*
X93300000Y-56125000D01*
X117500000Y-64425000D02*
X117500000Y-63175000D01*
X119500000Y-64425000D02*
X117500000Y-64425000D01*
X117500000Y-63175000D02*
X119500000Y-63175000D01*
X119500000Y-63175000D02*
X119500000Y-64425000D01*
X93300000Y-64425000D02*
X93300000Y-65675000D01*
X91300000Y-64425000D02*
X93300000Y-64425000D01*
X93300000Y-65675000D02*
X91300000Y-65675000D01*
X91300000Y-65675000D02*
X91300000Y-64425000D01*
X115800000Y-22850000D02*
X115800000Y-21650000D01*
X117800000Y-22850000D02*
X115800000Y-22850000D01*
X115800000Y-21650000D02*
X117800000Y-21650000D01*
X117800000Y-21650000D02*
X117800000Y-22850000D01*
D12*
X80150000Y-38470000D02*
X80150000Y-25670000D01*
X85950000Y-38470000D02*
X80150000Y-38470000D01*
X80150000Y-25670000D02*
X85950000Y-25670000D01*
X85950000Y-25670000D02*
X85950000Y-38470000D01*
D15*
X91300000Y-51675000D02*
X93300000Y-51675000D01*
X91300000Y-52925000D02*
X91300000Y-51675000D01*
X93300000Y-51675000D02*
X93300000Y-52925000D01*
X93300000Y-52925000D02*
X91300000Y-52925000D01*
X88450000Y-22750000D02*
X88450000Y-21550000D01*
X90450000Y-22750000D02*
X88450000Y-22750000D01*
X88450000Y-21550000D02*
X90450000Y-21550000D01*
X90450000Y-21550000D02*
X90450000Y-22750000D01*
X88800000Y-87925000D02*
X90800000Y-87925000D01*
X88800000Y-89175000D02*
X88800000Y-87925000D01*
X90800000Y-87925000D02*
X90800000Y-89175000D01*
X90800000Y-89175000D02*
X88800000Y-89175000D01*
M02*
