%TF.GenerationSoftware,KiCad,Pcbnew,8.0.8*%
%TF.CreationDate,2025-02-01T16:26:25+01:00*%
%TF.ProjectId,Trackball,54726163-6b62-4616-9c6c-2e6b69636164,rev?*%
%TF.SameCoordinates,Original*%
%TF.FileFunction,Legend,Top*%
%TF.FilePolarity,Positive*%
%FSLAX46Y46*%
G04 Gerber Fmt 4.6, Leading zero omitted, Abs format (unit mm)*
G04 Created by KiCad (PCBNEW 8.0.8) date 2025-02-01 16:26:25*
%MOMM*%
%LPD*%
G01*
G04 APERTURE LIST*
G04 Aperture macros list*
%AMRoundRect*
0 Rectangle with rounded corners*
0 $1 Rounding radius*
0 $2 $3 $4 $5 $6 $7 $8 $9 X,Y pos of 4 corners*
0 Add a 4 corners polygon primitive as box body*
4,1,4,$2,$3,$4,$5,$6,$7,$8,$9,$2,$3,0*
0 Add four circle primitives for the rounded corners*
1,1,$1+$1,$2,$3*
1,1,$1+$1,$4,$5*
1,1,$1+$1,$6,$7*
1,1,$1+$1,$8,$9*
0 Add four rect primitives between the rounded corners*
20,1,$1+$1,$2,$3,$4,$5,0*
20,1,$1+$1,$4,$5,$6,$7,0*
20,1,$1+$1,$6,$7,$8,$9,0*
20,1,$1+$1,$8,$9,$2,$3,0*%
G04 Aperture macros list end*
%ADD10C,0.050000*%
%ADD11C,0.150000*%
%ADD12C,0.120000*%
%ADD13C,0.100000*%
%ADD14C,0.400000*%
%ADD15C,1.700000*%
%ADD16RoundRect,0.625000X0.875000X-0.625000X0.875000X0.625000X-0.875000X0.625000X-0.875000X-0.625000X0*%
%ADD17O,1.700000X1.400000*%
%ADD18O,1.700000X1.700000*%
%ADD19C,3.200000*%
%ADD20R,1.060000X0.650000*%
%ADD21R,2.000000X1.200000*%
%ADD22O,2.000000X1.200000*%
%ADD23RoundRect,0.250000X-0.600000X-0.600000X0.600000X-0.600000X0.600000X0.600000X-0.600000X0.600000X0*%
%ADD24R,1.800000X1.800000*%
%ADD25C,1.800000*%
%ADD26R,1.500000X0.900000*%
%ADD27R,0.900000X1.500000*%
%ADD28R,0.900000X0.900000*%
%ADD29RoundRect,0.250000X0.250000X0.475000X-0.250000X0.475000X-0.250000X-0.475000X0.250000X-0.475000X0*%
%ADD30R,1.500000X1.500000*%
%ADD31RoundRect,0.250000X-0.250000X-0.475000X0.250000X-0.475000X0.250000X0.475000X-0.250000X0.475000X0*%
%ADD32R,0.950000X0.950000*%
%ADD33C,0.950000*%
%ADD34RoundRect,0.250000X-0.262500X-0.450000X0.262500X-0.450000X0.262500X0.450000X-0.262500X0.450000X0*%
%ADD35RoundRect,0.250000X0.475000X-0.250000X0.475000X0.250000X-0.475000X0.250000X-0.475000X-0.250000X0*%
%ADD36RoundRect,0.250000X0.262500X0.450000X-0.262500X0.450000X-0.262500X-0.450000X0.262500X-0.450000X0*%
%ADD37RoundRect,0.250000X0.450000X-0.262500X0.450000X0.262500X-0.450000X0.262500X-0.450000X-0.262500X0*%
%ADD38RoundRect,0.150000X-0.512500X-0.150000X0.512500X-0.150000X0.512500X0.150000X-0.512500X0.150000X0*%
%ADD39RoundRect,0.243750X0.243750X0.456250X-0.243750X0.456250X-0.243750X-0.456250X0.243750X-0.456250X0*%
%ADD40O,2.000000X1.600000*%
%ADD41RoundRect,0.243750X-0.243750X-0.456250X0.243750X-0.456250X0.243750X0.456250X-0.243750X0.456250X0*%
G04 APERTURE END LIST*
D10*
X103050000Y-18050000D02*
X103050000Y-100000000D01*
D11*
X98288094Y-94519104D02*
X98764284Y-94519104D01*
X98192856Y-94804819D02*
X98526189Y-93804819D01*
X98526189Y-93804819D02*
X98859522Y-94804819D01*
X99192856Y-94138152D02*
X99192856Y-94804819D01*
X99192856Y-94233390D02*
X99240475Y-94185771D01*
X99240475Y-94185771D02*
X99335713Y-94138152D01*
X99335713Y-94138152D02*
X99478570Y-94138152D01*
X99478570Y-94138152D02*
X99573808Y-94185771D01*
X99573808Y-94185771D02*
X99621427Y-94281009D01*
X99621427Y-94281009D02*
X99621427Y-94804819D01*
X99954761Y-94138152D02*
X100335713Y-94138152D01*
X100097618Y-93804819D02*
X100097618Y-94661961D01*
X100097618Y-94661961D02*
X100145237Y-94757200D01*
X100145237Y-94757200D02*
X100240475Y-94804819D01*
X100240475Y-94804819D02*
X100335713Y-94804819D01*
X101049999Y-94757200D02*
X100954761Y-94804819D01*
X100954761Y-94804819D02*
X100764285Y-94804819D01*
X100764285Y-94804819D02*
X100669047Y-94757200D01*
X100669047Y-94757200D02*
X100621428Y-94661961D01*
X100621428Y-94661961D02*
X100621428Y-94281009D01*
X100621428Y-94281009D02*
X100669047Y-94185771D01*
X100669047Y-94185771D02*
X100764285Y-94138152D01*
X100764285Y-94138152D02*
X100954761Y-94138152D01*
X100954761Y-94138152D02*
X101049999Y-94185771D01*
X101049999Y-94185771D02*
X101097618Y-94281009D01*
X101097618Y-94281009D02*
X101097618Y-94376247D01*
X101097618Y-94376247D02*
X100621428Y-94471485D01*
X101526190Y-94138152D02*
X101526190Y-94804819D01*
X101526190Y-94233390D02*
X101573809Y-94185771D01*
X101573809Y-94185771D02*
X101669047Y-94138152D01*
X101669047Y-94138152D02*
X101811904Y-94138152D01*
X101811904Y-94138152D02*
X101907142Y-94185771D01*
X101907142Y-94185771D02*
X101954761Y-94281009D01*
X101954761Y-94281009D02*
X101954761Y-94804819D01*
X102430952Y-94138152D02*
X102430952Y-94804819D01*
X102430952Y-94233390D02*
X102478571Y-94185771D01*
X102478571Y-94185771D02*
X102573809Y-94138152D01*
X102573809Y-94138152D02*
X102716666Y-94138152D01*
X102716666Y-94138152D02*
X102811904Y-94185771D01*
X102811904Y-94185771D02*
X102859523Y-94281009D01*
X102859523Y-94281009D02*
X102859523Y-94804819D01*
X103764285Y-94804819D02*
X103764285Y-94281009D01*
X103764285Y-94281009D02*
X103716666Y-94185771D01*
X103716666Y-94185771D02*
X103621428Y-94138152D01*
X103621428Y-94138152D02*
X103430952Y-94138152D01*
X103430952Y-94138152D02*
X103335714Y-94185771D01*
X103764285Y-94757200D02*
X103669047Y-94804819D01*
X103669047Y-94804819D02*
X103430952Y-94804819D01*
X103430952Y-94804819D02*
X103335714Y-94757200D01*
X103335714Y-94757200D02*
X103288095Y-94661961D01*
X103288095Y-94661961D02*
X103288095Y-94566723D01*
X103288095Y-94566723D02*
X103335714Y-94471485D01*
X103335714Y-94471485D02*
X103430952Y-94423866D01*
X103430952Y-94423866D02*
X103669047Y-94423866D01*
X103669047Y-94423866D02*
X103764285Y-94376247D01*
X104954762Y-94519104D02*
X105430952Y-94519104D01*
X104859524Y-94804819D02*
X105192857Y-93804819D01*
X105192857Y-93804819D02*
X105526190Y-94804819D01*
X105859524Y-94804819D02*
X105859524Y-94138152D01*
X105859524Y-94328628D02*
X105907143Y-94233390D01*
X105907143Y-94233390D02*
X105954762Y-94185771D01*
X105954762Y-94185771D02*
X106050000Y-94138152D01*
X106050000Y-94138152D02*
X106145238Y-94138152D01*
X106859524Y-94757200D02*
X106764286Y-94804819D01*
X106764286Y-94804819D02*
X106573810Y-94804819D01*
X106573810Y-94804819D02*
X106478572Y-94757200D01*
X106478572Y-94757200D02*
X106430953Y-94661961D01*
X106430953Y-94661961D02*
X106430953Y-94281009D01*
X106430953Y-94281009D02*
X106478572Y-94185771D01*
X106478572Y-94185771D02*
X106573810Y-94138152D01*
X106573810Y-94138152D02*
X106764286Y-94138152D01*
X106764286Y-94138152D02*
X106859524Y-94185771D01*
X106859524Y-94185771D02*
X106907143Y-94281009D01*
X106907143Y-94281009D02*
X106907143Y-94376247D01*
X106907143Y-94376247D02*
X106430953Y-94471485D01*
X107764286Y-94804819D02*
X107764286Y-94281009D01*
X107764286Y-94281009D02*
X107716667Y-94185771D01*
X107716667Y-94185771D02*
X107621429Y-94138152D01*
X107621429Y-94138152D02*
X107430953Y-94138152D01*
X107430953Y-94138152D02*
X107335715Y-94185771D01*
X107764286Y-94757200D02*
X107669048Y-94804819D01*
X107669048Y-94804819D02*
X107430953Y-94804819D01*
X107430953Y-94804819D02*
X107335715Y-94757200D01*
X107335715Y-94757200D02*
X107288096Y-94661961D01*
X107288096Y-94661961D02*
X107288096Y-94566723D01*
X107288096Y-94566723D02*
X107335715Y-94471485D01*
X107335715Y-94471485D02*
X107430953Y-94423866D01*
X107430953Y-94423866D02*
X107669048Y-94423866D01*
X107669048Y-94423866D02*
X107764286Y-94376247D01*
D12*
X126070000Y-25550000D02*
X125070000Y-25550000D01*
X126070000Y-25550000D02*
X126070000Y-26550000D01*
X120030000Y-25550000D02*
X121030000Y-25550000D01*
X120030000Y-25550000D02*
X120030000Y-26550000D01*
X122150000Y-29570000D02*
X123950000Y-29570000D01*
X122150000Y-30670000D02*
X123950000Y-30670000D01*
X126070000Y-38590000D02*
X126070000Y-37590000D01*
X126070000Y-38590000D02*
X125070000Y-38590000D01*
X120030000Y-38590000D02*
X120030000Y-37590000D01*
X120030000Y-38590000D02*
X121030000Y-38590000D01*
X123950000Y-29570000D02*
G75*
G02*
X123950000Y-30670000I0J-550000D01*
G01*
X122150000Y-30670000D02*
G75*
G02*
X122150000Y-29570000I0J550000D01*
G01*
X116070000Y-25900000D02*
X115070000Y-25900000D01*
X116070000Y-25900000D02*
X116070000Y-26900000D01*
X110030000Y-25900000D02*
X111030000Y-25900000D01*
X110030000Y-25900000D02*
X110030000Y-26900000D01*
X112150000Y-29920000D02*
X113950000Y-29920000D01*
X112150000Y-31020000D02*
X113950000Y-31020000D01*
X116070000Y-38940000D02*
X116070000Y-37940000D01*
X116070000Y-38940000D02*
X115070000Y-38940000D01*
X110030000Y-38940000D02*
X110030000Y-37940000D01*
X110030000Y-38940000D02*
X111030000Y-38940000D01*
X113950000Y-29920000D02*
G75*
G02*
X113950000Y-31020000I0J-550000D01*
G01*
X112150000Y-31020000D02*
G75*
G02*
X112150000Y-29920000I0J550000D01*
G01*
D13*
X88650000Y-34970000D02*
X89450000Y-34970000D01*
X94750000Y-34970000D02*
X93050000Y-34970000D01*
X88650000Y-25970000D02*
X89450000Y-25970000D01*
X94750000Y-25970000D02*
X93050000Y-25970000D01*
D12*
X119350000Y-65190000D02*
X117550000Y-65190000D01*
X117550000Y-68410000D02*
X120000000Y-68410000D01*
D14*
X95900000Y-53735000D02*
G75*
G02*
X95500000Y-53735000I-200000J0D01*
G01*
X95500000Y-53735000D02*
G75*
G02*
X95900000Y-53735000I200000J0D01*
G01*
D12*
X124380000Y-60550000D02*
X115260000Y-60550000D01*
X124380000Y-42510000D02*
X124380000Y-60550000D01*
X123070000Y-59250000D02*
X116570000Y-59250000D01*
X123070000Y-43810000D02*
X123070000Y-59250000D01*
X116570000Y-59250000D02*
X116570000Y-53580000D01*
X116570000Y-53580000D02*
X116570000Y-53580000D01*
X116570000Y-53580000D02*
X115260000Y-53580000D01*
X116570000Y-49480000D02*
X116570000Y-43810000D01*
X116570000Y-43810000D02*
X123070000Y-43810000D01*
X115260000Y-60550000D02*
X115260000Y-42510000D01*
X115260000Y-49480000D02*
X116570000Y-49480000D01*
X115260000Y-42510000D02*
X124380000Y-42510000D01*
X114870000Y-47720000D02*
X113870000Y-47220000D01*
X113870000Y-48220000D02*
X114870000Y-47720000D01*
X113870000Y-47220000D02*
X113870000Y-48220000D01*
X111220000Y-19270000D02*
X111064000Y-19270000D01*
X113536000Y-19270000D02*
X113380000Y-19270000D01*
X111219939Y-22501397D02*
G75*
G02*
X111064484Y-19270000I1080061J1671397D01*
G01*
X111219951Y-21870910D02*
G75*
G02*
X111220000Y-19789039I1080049J1040910D01*
G01*
X113380000Y-19789039D02*
G75*
G02*
X113380049Y-21870910I-1080000J-1040961D01*
G01*
X113535516Y-19270000D02*
G75*
G02*
X113380061Y-22501397I-1235516J-1560000D01*
G01*
X94050000Y-97350000D02*
X94050000Y-90600000D01*
X112050000Y-97350000D02*
X94050000Y-97350000D01*
X112050000Y-97350000D02*
X112050000Y-90600000D01*
X94050000Y-91410000D02*
X112050000Y-91410000D01*
X94050000Y-72600000D02*
X94050000Y-71850000D01*
X112050000Y-72600000D02*
X112050000Y-71850000D01*
X94050000Y-71850000D02*
X95050000Y-71850000D01*
X112050000Y-71850000D02*
X111050000Y-71850000D01*
X92561252Y-55285000D02*
X92038748Y-55285000D01*
X92561252Y-53815000D02*
X92038748Y-53815000D01*
X79990000Y-69900000D02*
X79990000Y-66200000D01*
X86110000Y-69900000D02*
X79990000Y-69900000D01*
X79990000Y-66200000D02*
X86110000Y-66200000D01*
X86110000Y-66200000D02*
X86110000Y-69900000D01*
X79940000Y-65550000D02*
X79940000Y-61850000D01*
X86060000Y-65550000D02*
X79940000Y-65550000D01*
X79940000Y-61850000D02*
X86060000Y-61850000D01*
X86060000Y-61850000D02*
X86060000Y-65550000D01*
X118288748Y-71315000D02*
X118811252Y-71315000D01*
X118288748Y-72785000D02*
X118811252Y-72785000D01*
X81675000Y-82850000D02*
X85075000Y-82850000D01*
X80925000Y-82100000D02*
X80925000Y-81250000D01*
X85825000Y-82100000D02*
X85825000Y-77300000D01*
X81675000Y-81850000D02*
X84675000Y-81850000D01*
X81425000Y-81600000D02*
X81425000Y-80600000D01*
X84925000Y-81600000D02*
X84925000Y-80325000D01*
X80925000Y-80650000D02*
X80925000Y-77300000D01*
X81425000Y-80600000D02*
X81825000Y-80600000D01*
X81825000Y-80600000D02*
X81825000Y-78800000D01*
X84925000Y-80325000D02*
X85325000Y-80325000D01*
X85325000Y-80325000D02*
X85325000Y-79075000D01*
X84925000Y-79075000D02*
X84925000Y-77800000D01*
X85325000Y-79075000D02*
X84925000Y-79075000D01*
X81425000Y-78800000D02*
X81425000Y-77800000D01*
X81825000Y-78800000D02*
X81425000Y-78800000D01*
X81675000Y-77550000D02*
X84675000Y-77550000D01*
X81675000Y-76550000D02*
X85075000Y-76550000D01*
X81675000Y-82850000D02*
G75*
G02*
X80925000Y-82100000I0J750000D01*
G01*
X85825000Y-82100000D02*
G75*
G02*
X85075000Y-82850000I-750000J0D01*
G01*
X81675000Y-81850000D02*
G75*
G02*
X81425000Y-81600000I-1J249999D01*
G01*
X84925000Y-81600000D02*
G75*
G02*
X84675000Y-81850000I-249999J-1D01*
G01*
X81425000Y-77800000D02*
G75*
G02*
X81675000Y-77550000I250000J0D01*
G01*
X84675000Y-77550000D02*
G75*
G02*
X84925000Y-77800000I0J-250000D01*
G01*
X80925000Y-77300000D02*
G75*
G02*
X81675000Y-76550000I750000J0D01*
G01*
X85075000Y-76550000D02*
G75*
G02*
X85825000Y-77300000I0J-750000D01*
G01*
X80920000Y-80950000D02*
X80450000Y-81290000D01*
X80450000Y-80610000D01*
X80920000Y-80950000D01*
G36*
X80920000Y-80950000D02*
G01*
X80450000Y-81290000D01*
X80450000Y-80610000D01*
X80920000Y-80950000D01*
G37*
X89572936Y-85565000D02*
X90027064Y-85565000D01*
X89572936Y-87035000D02*
X90027064Y-87035000D01*
X117065000Y-88311252D02*
X117065000Y-87788748D01*
X118535000Y-88311252D02*
X118535000Y-87788748D01*
X112777064Y-61065000D02*
X112322936Y-61065000D01*
X112777064Y-62535000D02*
X112322936Y-62535000D01*
X92770000Y-19390000D02*
X92614000Y-19390000D01*
X95086000Y-19390000D02*
X94930000Y-19390000D01*
X92769939Y-22621397D02*
G75*
G02*
X92614484Y-19390000I1080061J1671397D01*
G01*
X92769951Y-21990910D02*
G75*
G02*
X92770000Y-19909039I1080049J1040910D01*
G01*
X94930000Y-19909039D02*
G75*
G02*
X94930049Y-21990910I-1080000J-1040961D01*
G01*
X95085516Y-19390000D02*
G75*
G02*
X94930061Y-22621397I-1235516J-1560000D01*
G01*
X114565000Y-88277064D02*
X114565000Y-87822936D01*
X116035000Y-88277064D02*
X116035000Y-87822936D01*
X118811252Y-70535000D02*
X118288748Y-70535000D01*
X118811252Y-69065000D02*
X118288748Y-69065000D01*
X92072936Y-66565000D02*
X92527064Y-66565000D01*
X92072936Y-68035000D02*
X92527064Y-68035000D01*
X92300000Y-61360000D02*
X91500000Y-61360000D01*
X92300000Y-61360000D02*
X93100000Y-61360000D01*
X92300000Y-58240000D02*
X91500000Y-58240000D01*
X92300000Y-58240000D02*
X93100000Y-58240000D01*
X91000000Y-58290000D02*
X90760000Y-57960000D01*
X91240000Y-57960000D01*
X91000000Y-58290000D01*
G36*
X91000000Y-58290000D02*
G01*
X90760000Y-57960000D01*
X91240000Y-57960000D01*
X91000000Y-58290000D01*
G37*
X92527064Y-62065000D02*
X92072936Y-62065000D01*
X92527064Y-63535000D02*
X92072936Y-63535000D01*
X92561252Y-57485000D02*
X92038748Y-57485000D01*
X92561252Y-56015000D02*
X92038748Y-56015000D01*
X118761252Y-64535000D02*
X118238748Y-64535000D01*
X118761252Y-63065000D02*
X118238748Y-63065000D01*
X92561252Y-64315000D02*
X92038748Y-64315000D01*
X92561252Y-65785000D02*
X92038748Y-65785000D01*
X117058578Y-22960000D02*
X116541422Y-22960000D01*
X117058578Y-21540000D02*
X116541422Y-21540000D01*
X80030000Y-38590000D02*
X81030000Y-38590000D01*
X80030000Y-38590000D02*
X80030000Y-37590000D01*
X86070000Y-38590000D02*
X85070000Y-38590000D01*
X86070000Y-38590000D02*
X86070000Y-37590000D01*
X82150000Y-30670000D02*
X83950000Y-30670000D01*
X82150000Y-29570000D02*
X83950000Y-29570000D01*
X80030000Y-25550000D02*
X80030000Y-26550000D01*
X80030000Y-25550000D02*
X81030000Y-25550000D01*
X86070000Y-25550000D02*
X86070000Y-26550000D01*
X86070000Y-25550000D02*
X85070000Y-25550000D01*
X82150000Y-30670000D02*
G75*
G02*
X82150000Y-29570000I0J550000D01*
G01*
X83950000Y-29570000D02*
G75*
G02*
X83950000Y-30670000I0J-550000D01*
G01*
X92527064Y-51565000D02*
X92072936Y-51565000D01*
X92527064Y-53035000D02*
X92072936Y-53035000D01*
X127500000Y-77840000D02*
X100200000Y-77840000D01*
X127500000Y-50440000D02*
X127500000Y-77840000D01*
X127011000Y-68920000D02*
X124598000Y-68920000D01*
X127011000Y-59141000D02*
X127011000Y-68920000D01*
X127011000Y-59141000D02*
X124598000Y-59141000D01*
X124598000Y-68920000D02*
X124598000Y-59141000D01*
X124217000Y-77302000D02*
X124205000Y-77048000D01*
X124205000Y-73962000D02*
X124205000Y-77048000D01*
X124205000Y-50862000D02*
X124205000Y-73962000D01*
X107605000Y-73962000D02*
X107605000Y-50862000D01*
X107605000Y-73962000D02*
X107580000Y-77302000D01*
X107605000Y-50862000D02*
X124205000Y-50862000D01*
X107580000Y-77302000D02*
X124217000Y-77302000D01*
X100200000Y-77840000D02*
X100200000Y-50440000D01*
X100200000Y-50440000D02*
X127500000Y-50440000D01*
X89191422Y-22860000D02*
X89708578Y-22860000D01*
X89191422Y-21440000D02*
X89708578Y-21440000D01*
X90027064Y-87815000D02*
X89572936Y-87815000D01*
X90027064Y-89285000D02*
X89572936Y-89285000D01*
%LPC*%
D15*
X123050000Y-26990000D03*
X123050000Y-32070000D03*
X123050000Y-37150000D03*
X113050000Y-27340000D03*
X113050000Y-32420000D03*
X113050000Y-37500000D03*
D16*
X91050000Y-34970000D03*
X91050000Y-25970000D03*
D17*
X93050000Y-32970000D03*
X93050000Y-30470000D03*
X93050000Y-27970000D03*
D15*
X125050000Y-80840000D03*
D18*
X125050000Y-78300000D03*
X125050000Y-75760000D03*
X125050000Y-73220000D03*
D19*
X123050000Y-21550000D03*
D20*
X119550000Y-67750000D03*
X119550000Y-66800000D03*
X119550000Y-65850000D03*
X117350000Y-65850000D03*
X117350000Y-67750000D03*
D19*
X83050000Y-21550000D03*
D21*
X97700000Y-53735000D03*
D22*
X97700000Y-55515000D03*
X97700000Y-57295000D03*
X97700000Y-59075000D03*
X97700000Y-60855000D03*
X97700000Y-62635000D03*
X97700000Y-64415000D03*
X97700000Y-66195000D03*
X108400000Y-67085000D03*
X108400000Y-65305000D03*
X108400000Y-63525000D03*
X108400000Y-61745000D03*
X108400000Y-59965000D03*
X108400000Y-58185000D03*
X108400000Y-56405000D03*
X108400000Y-54625000D03*
D19*
X123050000Y-87650000D03*
X83050000Y-87650000D03*
D23*
X118550000Y-47720000D03*
D15*
X121090000Y-47720000D03*
X118550000Y-50260000D03*
X121090000Y-50260000D03*
X118550000Y-52800000D03*
X121090000Y-52800000D03*
X118550000Y-55340000D03*
X121090000Y-55340000D03*
D24*
X112300000Y-19560000D03*
D25*
X112300000Y-22100000D03*
D26*
X111800000Y-89860000D03*
X111800000Y-88590000D03*
X111800000Y-87320000D03*
X111800000Y-86050000D03*
X111800000Y-84780000D03*
X111800000Y-83510000D03*
X111800000Y-82240000D03*
X111800000Y-80970000D03*
X111800000Y-79700000D03*
X111800000Y-78430000D03*
X111800000Y-77160000D03*
X111800000Y-75890000D03*
X111800000Y-74620000D03*
X111800000Y-73350000D03*
D27*
X110035000Y-72100000D03*
X108765000Y-72100000D03*
X107495000Y-72100000D03*
X106225000Y-72100000D03*
X104955000Y-72100000D03*
X103685000Y-72100000D03*
X102415000Y-72100000D03*
X101145000Y-72100000D03*
X99875000Y-72100000D03*
X98605000Y-72100000D03*
X97335000Y-72100000D03*
X96065000Y-72100000D03*
D26*
X94300000Y-73350000D03*
X94300000Y-74620000D03*
X94300000Y-75890000D03*
X94300000Y-77160000D03*
X94300000Y-78430000D03*
X94300000Y-79700000D03*
X94300000Y-80970000D03*
X94300000Y-82240000D03*
X94300000Y-83510000D03*
X94300000Y-84780000D03*
X94300000Y-86050000D03*
X94300000Y-87320000D03*
X94300000Y-88590000D03*
X94300000Y-89860000D03*
D28*
X105950000Y-83540000D03*
X105950000Y-82140000D03*
X105950000Y-80740000D03*
X105950000Y-80740000D03*
X104550000Y-83540000D03*
X104550000Y-83540000D03*
X104550000Y-82140000D03*
X104550000Y-80740000D03*
X103150000Y-83540000D03*
X103150000Y-82140000D03*
X103150000Y-80740000D03*
D29*
X93250000Y-54550000D03*
X91350000Y-54550000D03*
D30*
X86950000Y-68050000D03*
X79150000Y-68050000D03*
X86900000Y-63700000D03*
X79100000Y-63700000D03*
D31*
X117600000Y-72050000D03*
X119500000Y-72050000D03*
D32*
X82750000Y-80950000D03*
D33*
X82750000Y-79700000D03*
X82750000Y-78450000D03*
X84000000Y-80950000D03*
X84000000Y-79700000D03*
X84000000Y-78450000D03*
D34*
X88887500Y-86300000D03*
X90712500Y-86300000D03*
D35*
X117800000Y-89000000D03*
X117800000Y-87100000D03*
D36*
X113462500Y-61800000D03*
X111637500Y-61800000D03*
D24*
X93850000Y-19680000D03*
D25*
X93850000Y-22220000D03*
D37*
X115300000Y-88962500D03*
X115300000Y-87137500D03*
D29*
X119500000Y-69800000D03*
X117600000Y-69800000D03*
D34*
X91387500Y-67300000D03*
X93212500Y-67300000D03*
D38*
X91162500Y-58850000D03*
X91162500Y-59800000D03*
X91162500Y-60750000D03*
X93437500Y-60750000D03*
X93437500Y-58850000D03*
D36*
X93212500Y-62800000D03*
X91387500Y-62800000D03*
D29*
X93250000Y-56750000D03*
X91350000Y-56750000D03*
X119450000Y-63800000D03*
X117550000Y-63800000D03*
X93250000Y-65050000D03*
X91350000Y-65050000D03*
D39*
X117737500Y-22250000D03*
X115862500Y-22250000D03*
D15*
X83050000Y-26990000D03*
X83050000Y-32070000D03*
X83050000Y-37150000D03*
D36*
X93212500Y-52300000D03*
X91387500Y-52300000D03*
D40*
X125800000Y-60220000D03*
X125800000Y-62760000D03*
X125800000Y-65300000D03*
X125800000Y-67840000D03*
D41*
X88512500Y-22150000D03*
X90387500Y-22150000D03*
D36*
X90712500Y-88550000D03*
X88887500Y-88550000D03*
%LPD*%
M02*
