%TF.GenerationSoftware,KiCad,Pcbnew,8.0.8*%
%TF.CreationDate,2025-02-01T16:26:25+01:00*%
%TF.ProjectId,Trackball,54726163-6b62-4616-9c6c-2e6b69636164,rev?*%
%TF.SameCoordinates,Original*%
%TF.FileFunction,Paste,Top*%
%TF.FilePolarity,Positive*%
%FSLAX46Y46*%
G04 Gerber Fmt 4.6, Leading zero omitted, Abs format (unit mm)*
G04 Created by KiCad (PCBNEW 8.0.8) date 2025-02-01 16:26:25*
%MOMM*%
%LPD*%
G01*
G04 APERTURE LIST*
G04 Aperture macros list*
%AMRoundRect*
0 Rectangle with rounded corners*
0 $1 Rounding radius*
0 $2 $3 $4 $5 $6 $7 $8 $9 X,Y pos of 4 corners*
0 Add a 4 corners polygon primitive as box body*
4,1,4,$2,$3,$4,$5,$6,$7,$8,$9,$2,$3,0*
0 Add four circle primitives for the rounded corners*
1,1,$1+$1,$2,$3*
1,1,$1+$1,$4,$5*
1,1,$1+$1,$6,$7*
1,1,$1+$1,$8,$9*
0 Add four rect primitives between the rounded corners*
20,1,$1+$1,$2,$3,$4,$5,0*
20,1,$1+$1,$4,$5,$6,$7,0*
20,1,$1+$1,$6,$7,$8,$9,0*
20,1,$1+$1,$8,$9,$2,$3,0*%
G04 Aperture macros list end*
%ADD10R,1.060000X0.650000*%
%ADD11R,1.500000X0.900000*%
%ADD12R,0.900000X1.500000*%
%ADD13R,0.900000X0.900000*%
%ADD14RoundRect,0.250000X0.250000X0.475000X-0.250000X0.475000X-0.250000X-0.475000X0.250000X-0.475000X0*%
%ADD15R,1.500000X1.500000*%
%ADD16RoundRect,0.250000X-0.250000X-0.475000X0.250000X-0.475000X0.250000X0.475000X-0.250000X0.475000X0*%
%ADD17RoundRect,0.250000X-0.262500X-0.450000X0.262500X-0.450000X0.262500X0.450000X-0.262500X0.450000X0*%
%ADD18RoundRect,0.250000X0.475000X-0.250000X0.475000X0.250000X-0.475000X0.250000X-0.475000X-0.250000X0*%
%ADD19RoundRect,0.250000X0.262500X0.450000X-0.262500X0.450000X-0.262500X-0.450000X0.262500X-0.450000X0*%
%ADD20RoundRect,0.250000X0.450000X-0.262500X0.450000X0.262500X-0.450000X0.262500X-0.450000X-0.262500X0*%
%ADD21RoundRect,0.150000X-0.512500X-0.150000X0.512500X-0.150000X0.512500X0.150000X-0.512500X0.150000X0*%
%ADD22RoundRect,0.243750X0.243750X0.456250X-0.243750X0.456250X-0.243750X-0.456250X0.243750X-0.456250X0*%
%ADD23RoundRect,0.243750X-0.243750X-0.456250X0.243750X-0.456250X0.243750X0.456250X-0.243750X0.456250X0*%
G04 APERTURE END LIST*
D10*
X119550000Y-67750000D03*
X119550000Y-66800000D03*
X119550000Y-65850000D03*
X117350000Y-65850000D03*
X117350000Y-67750000D03*
D11*
X111800000Y-89860000D03*
X111800000Y-88590000D03*
X111800000Y-87320000D03*
X111800000Y-86050000D03*
X111800000Y-84780000D03*
X111800000Y-83510000D03*
X111800000Y-82240000D03*
X111800000Y-80970000D03*
X111800000Y-79700000D03*
X111800000Y-78430000D03*
X111800000Y-77160000D03*
X111800000Y-75890000D03*
X111800000Y-74620000D03*
X111800000Y-73350000D03*
D12*
X110035000Y-72100000D03*
X108765000Y-72100000D03*
X107495000Y-72100000D03*
X106225000Y-72100000D03*
X104955000Y-72100000D03*
X103685000Y-72100000D03*
X102415000Y-72100000D03*
X101145000Y-72100000D03*
X99875000Y-72100000D03*
X98605000Y-72100000D03*
X97335000Y-72100000D03*
X96065000Y-72100000D03*
D11*
X94300000Y-73350000D03*
X94300000Y-74620000D03*
X94300000Y-75890000D03*
X94300000Y-77160000D03*
X94300000Y-78430000D03*
X94300000Y-79700000D03*
X94300000Y-80970000D03*
X94300000Y-82240000D03*
X94300000Y-83510000D03*
X94300000Y-84780000D03*
X94300000Y-86050000D03*
X94300000Y-87320000D03*
X94300000Y-88590000D03*
X94300000Y-89860000D03*
D13*
X105950000Y-83540000D03*
X105950000Y-82140000D03*
X105950000Y-80740000D03*
X105950000Y-80740000D03*
X104550000Y-83540000D03*
X104550000Y-83540000D03*
X104550000Y-82140000D03*
X104550000Y-80740000D03*
X103150000Y-83540000D03*
X103150000Y-82140000D03*
X103150000Y-80740000D03*
D14*
X93250000Y-54550000D03*
X91350000Y-54550000D03*
D15*
X86950000Y-68050000D03*
X79150000Y-68050000D03*
X86900000Y-63700000D03*
X79100000Y-63700000D03*
D16*
X117600000Y-72050000D03*
X119500000Y-72050000D03*
D17*
X88887500Y-86300000D03*
X90712500Y-86300000D03*
D18*
X117800000Y-89000000D03*
X117800000Y-87100000D03*
D19*
X113462500Y-61800000D03*
X111637500Y-61800000D03*
D20*
X115300000Y-88962500D03*
X115300000Y-87137500D03*
D14*
X119500000Y-69800000D03*
X117600000Y-69800000D03*
D17*
X91387500Y-67300000D03*
X93212500Y-67300000D03*
D21*
X91162500Y-58850000D03*
X91162500Y-59800000D03*
X91162500Y-60750000D03*
X93437500Y-60750000D03*
X93437500Y-58850000D03*
D19*
X93212500Y-62800000D03*
X91387500Y-62800000D03*
D14*
X93250000Y-56750000D03*
X91350000Y-56750000D03*
X119450000Y-63800000D03*
X117550000Y-63800000D03*
X93250000Y-65050000D03*
X91350000Y-65050000D03*
D22*
X117737500Y-22250000D03*
X115862500Y-22250000D03*
D19*
X93212500Y-52300000D03*
X91387500Y-52300000D03*
D23*
X88512500Y-22150000D03*
X90387500Y-22150000D03*
D19*
X90712500Y-88550000D03*
X88887500Y-88550000D03*
M02*
